<svg width="58" height="55" viewBox="0 0 58 55" fill="none" xmlns="http://www.w3.org/2000/svg">
<path fill-rule="evenodd" clip-rule="evenodd" d="M42.9514 43.752C49.7295 43.752 55.2242 38.2573 55.2242 31.4793C55.2242 24.7012 49.7295 19.2065 42.9514 19.2065C36.1734 19.2065 30.6787 24.7012 30.6787 31.4793C30.6787 38.2573 36.1734 43.752 42.9514 43.752ZM40.1354 36.5727C39.648 37.052 38.8579 37.052 38.3706 36.5727C37.8832 36.0934 37.8832 35.3163 38.3706 34.8371L41.4591 31.7996L38.3706 28.7623C37.8833 28.283 37.8833 27.5059 38.3706 27.0266C38.858 26.5474 39.6481 26.5474 40.1354 27.0266L43.2239 30.064L46.3122 27.0267C46.7995 26.5475 47.5896 26.5475 48.077 27.0267C48.5643 27.506 48.5643 28.2831 48.077 28.7624L44.9887 31.7996L48.077 34.8369C48.5644 35.3162 48.5644 36.0933 48.077 36.5726C47.5897 37.0519 46.7996 37.0519 46.3122 36.5726L43.2239 33.5353L40.1354 36.5727Z" fill="#515151"/>
<path fill-rule="evenodd" clip-rule="evenodd" d="M3.90912 4.479C2.76413 4.479 1.83594 5.41071 1.83594 6.56003C1.83594 7.70935 2.76413 8.64106 3.90912 8.64106H6.6902L12.2022 46.3152C12.375 47.4964 13.4657 48.327 14.6435 48.1787C14.6761 48.1802 14.7088 48.181 14.7417 48.181H16.9056C16.8929 48.3069 16.8865 48.4347 16.8865 48.5639C16.8865 50.6509 18.5711 52.3426 20.6492 52.3426C22.7273 52.3426 24.4119 50.6509 24.4119 48.5639C24.4119 48.4347 24.4054 48.3069 24.3928 48.181H35.7192C35.7066 48.3069 35.7001 48.4347 35.7001 48.5639C35.7001 50.6509 37.3847 52.3426 39.4628 52.3426C41.5409 52.3426 43.2256 50.6509 43.2256 48.5639C43.2256 48.4347 43.2191 48.3069 43.2065 48.181H45.7141C46.859 48.181 47.7872 47.2493 47.7872 46.1C47.7872 45.8664 47.7489 45.6418 47.6782 45.4322C46.1947 45.9346 44.6051 46.207 42.9519 46.207C40.1176 46.207 37.4704 45.4064 35.224 44.0189H16.2436L15.6186 39.7469H30.7622C29.1606 37.3899 28.2246 34.5441 28.2246 31.4797C28.2246 23.3461 34.8182 16.7524 42.9519 16.7524C45.5536 16.7524 47.9978 17.4271 50.119 18.611L50.9135 13.3703C51.0198 12.6685 50.4787 12.0363 49.7715 12.0363H11.5643L10.7357 6.37271C10.5825 5.32578 9.70846 4.55434 8.69164 4.49562C8.60544 4.48466 8.51758 4.479 8.42841 4.479H3.90912ZM49.7204 21.2406C47.7802 19.9554 45.4534 19.207 42.9519 19.207C36.1738 19.207 30.6792 24.7017 30.6792 31.4797C30.6792 34.6643 31.8921 37.5657 33.8813 39.7469H45.9224C46.4933 39.7469 46.9786 39.3283 47.0644 38.7618L47.343 36.9239C46.9764 36.9667 46.594 36.8497 46.3127 36.573L43.2243 33.5357L40.1358 36.5731C39.6485 37.0524 38.8583 37.0524 38.371 36.5731C37.8837 36.0939 37.8837 35.3168 38.371 34.8375L41.4595 31.8001L38.3711 28.7627C37.8837 28.2834 37.8837 27.5064 38.3711 27.0271C38.8584 26.5478 39.6485 26.5478 40.1359 27.0271L43.2243 30.0644L46.3126 27.0272C46.7999 26.5479 47.5901 26.5479 48.0774 27.0272C48.5647 27.5065 48.5647 28.2835 48.0774 28.7628L44.9891 31.8001L47.7136 34.4795L49.7204 21.2406Z" fill="#515151"/>
</svg>
