<svg width="54" height="55" viewBox="0 0 54 55" fill="none" xmlns="http://www.w3.org/2000/svg">
<g clip-path="url(#clip0_1_478320)">
<path fill-rule="evenodd" clip-rule="evenodd" d="M41.1136 52.2803C47.8916 52.2803 53.3863 46.7856 53.3863 40.0076C53.3863 33.2296 47.8916 27.7349 41.1136 27.7349C34.3356 27.7349 28.8409 33.2296 28.8409 40.0076C28.8409 46.7856 34.3356 52.2803 41.1136 52.2803ZM37.9135 44.5083C37.4261 44.9876 36.636 44.9876 36.1487 44.5083C35.6613 44.029 35.6613 43.2519 36.1487 42.7727L39.2371 39.7353L36.1487 36.698C35.6614 36.2187 35.6614 35.4416 36.1487 34.9623C36.6361 34.4831 37.4262 34.4831 37.9135 34.9623L41.0019 37.9997L44.0903 34.9623C44.5776 34.4831 45.3677 34.4831 45.8551 34.9623C46.3424 35.4416 46.3424 36.2187 45.8551 36.698L42.7667 39.7353L45.8551 42.7727C46.3425 43.2519 46.3425 44.029 45.8551 44.5083C45.3678 44.9876 44.5777 44.9876 44.0903 44.5083L41.0019 41.4709L37.9135 44.5083Z" fill="#515151"/>
<path d="M11.4643 18.0416C11.4392 17.9423 11.4135 17.8555 11.3888 17.7867C12.4916 16.4218 13.8931 15.4542 15.4161 14.9056C15.4938 15.0032 15.6015 15.112 15.7316 15.2069C15.7916 15.2496 15.8548 15.292 15.9237 15.3269L17.7151 16.3748L17.7517 20.0967L16.1752 21.1974L15.6752 21.5456L11.9444 20.1878L11.5497 18.4434C11.5254 18.2978 11.4957 18.1629 11.4643 18.0416Z" fill="#515151"/>
<path d="M11.1708 28.572C10.8783 28.5519 10.6391 28.5933 10.5738 28.6853C10.4111 28.4086 10.2633 28.1244 10.1304 27.8343L10.1335 27.8339C9.56449 26.5925 9.27035 25.2397 9.26239 23.8779C9.42589 23.8541 9.6453 23.7818 9.83319 23.649C9.88436 23.6127 9.93517 23.5731 9.98025 23.5258L11.6395 22.0034C11.6871 21.9641 11.7289 21.9173 11.7704 21.8671L11.7771 21.8588L14.8463 22.9759C14.8494 23.0646 14.8613 23.1515 14.8828 23.2345L15.6313 26.1407L13.5186 28.8859L11.4591 28.6084C11.3596 28.5905 11.2623 28.5774 11.1708 28.572Z" fill="#515151"/>
<path d="M24.103 16.3878C23.3192 15.7513 22.4649 15.2686 21.5743 14.9354L21.504 14.9727C21.3906 15.0484 21.2519 15.1305 21.1008 15.2175L19.3043 16.3651L19.3389 19.8838C19.4041 19.9176 19.4653 19.9571 19.5211 20.0025L21.7518 21.8141L25.1366 21.1159L25.1386 21.1099L25.7429 18.9106C25.7654 18.806 25.7936 18.709 25.8242 18.6201C25.8558 18.5283 25.8896 18.4444 25.9224 18.372C25.879 18.3081 25.8347 18.2446 25.7896 18.1816C25.3194 17.5238 24.7558 16.918 24.103 16.3878Z" fill="#515151"/>
<path d="M27.3577 24.3351C27.4208 24.3945 27.4798 24.4463 27.5317 24.488C27.4036 26.1604 26.8405 27.8165 25.8207 29.2673C25.6866 29.1893 25.5009 29.1162 25.3027 29.0925C25.2386 29.0854 25.1748 29.0815 25.1072 29.0865L23.0499 29.1129L21.2133 26.0971L21.2376 26.0319C21.3486 25.7312 21.4999 25.3244 21.6468 24.9323L22.0757 23.7757L22.2072 23.4259C22.2126 23.4114 22.2176 23.3968 22.2224 23.3821L25.6945 22.6659L27.0789 24.0488C27.1769 24.1553 27.2705 24.2523 27.3577 24.3351Z" fill="#515151"/>
<path d="M20.6013 32.91L20.5108 32.8251L20.5097 32.8242L20.508 32.8228C20.3986 32.716 20.4272 32.4186 20.5622 32.0999C20.5958 32.0223 20.6326 31.9444 20.6776 31.8671L21.6759 29.9349L20.0223 27.2194C19.9508 27.2317 19.8794 27.2372 19.8091 27.2352L19.6682 27.2304L18.552 27.2006C18.1981 27.1908 17.8443 27.1811 17.5766 27.1756L16.8747 27.1575L14.7689 29.8937L15.5111 31.8991C15.5352 31.9546 15.5532 32.0142 15.5662 32.0727L15.5676 32.0708C15.6181 32.3049 15.5899 32.5564 15.5372 32.7361C17.1861 33.2879 18.9449 33.3372 20.6013 32.91Z" fill="#515151"/>
<path fill-rule="evenodd" clip-rule="evenodd" d="M3.29613 6.66054C0.935557 7.32408 -0.474549 9.83331 0.146564 12.2651L8.60106 45.3657C9.22217 47.7974 11.6393 49.2308 13.9999 48.5673L27.1683 44.755C26.6614 43.2655 26.3864 41.6686 26.3864 40.0076C26.3864 34.0653 29.9057 28.945 34.9738 26.6173L29.1952 4.08437C28.9787 3.24752 28.5492 2.52952 27.9827 1.97539C26.9088 0.925049 25.3424 0.463455 23.8001 0.896987L3.29613 6.66054ZM11.6296 32.815C10.2609 31.7035 9.22123 30.3183 8.52376 28.7958L8.5275 28.7953C6.80535 25.038 7.17934 20.4324 9.86627 16.941C13.6422 12.0346 20.5548 11.1864 25.3076 15.0462C26.0918 15.6831 26.7688 16.4108 27.3336 17.201C30.1945 21.1958 30.2276 26.8229 27.0747 30.9198C23.2988 35.8262 16.3824 36.6748 11.6296 32.815Z" fill="#515151"/>
<path d="M46.2677 26.2074C44.6635 25.608 42.9269 25.2803 41.1136 25.2803C39.5871 25.2803 38.5096 25.3957 37.125 25.8268L31.7308 3.38101C31.6736 3.15692 31.6792 3.095 31.6023 2.88259L46.7967 7.15402C49.1607 7.8047 50.5636 10.3008 49.9301 12.7292L46.2677 26.2074Z" fill="#515151"/>
</g>
<defs>
<clipPath id="clip0_1_478320">
<rect width="54" height="54" fill="white" transform="translate(0 0.271973)"/>
</clipPath>
</defs>
</svg>
