<svg width="54" height="55" viewBox="0 0 54 55" fill="none" xmlns="http://www.w3.org/2000/svg">
<path fill-rule="evenodd" clip-rule="evenodd" d="M2.0708 10.0902C2.0708 7.37903 4.26868 5.18115 6.97989 5.18115H39.5503C42.2615 5.18115 44.4594 7.37903 44.4594 10.0902V23.2201C42.9088 22.6652 41.238 22.363 39.4966 22.363C31.363 22.363 24.7694 28.9566 24.7694 37.0902C24.7694 41.4889 26.6977 45.4371 29.7552 48.1357H6.9799C4.26868 48.1357 2.0708 45.9378 2.0708 43.2266V10.0902ZM8.74743 12.5448C7.90018 12.5448 7.21334 13.2316 7.21334 14.0789C7.21334 14.9261 7.90018 15.613 8.74743 15.613H16.8998C17.747 15.613 18.4339 14.9261 18.4339 14.0789C18.4339 13.2316 17.747 12.5448 16.8998 12.5448H8.74743ZM8.74743 18.0675C7.90018 18.0675 7.21334 18.7544 7.21334 19.6016C7.21334 20.4489 7.90018 21.1357 8.74743 21.1357H24.3801C25.2274 21.1357 25.9142 20.4489 25.9142 19.6016C25.9142 18.7544 25.2274 18.0675 24.3801 18.0675H8.74743ZM8.74743 23.5902C7.90018 23.5902 7.21334 24.2771 7.21334 25.1243C7.21334 25.9716 7.90018 26.6584 8.74743 26.6584H24.3801C25.2274 26.6584 25.9142 25.9716 25.9142 25.1243C25.9142 24.2771 25.2274 23.5902 24.3801 23.5902H8.74743Z" fill="#515151"/>
<path fill-rule="evenodd" clip-rule="evenodd" d="M39.6563 49.3628C46.4343 49.3628 51.929 43.8682 51.929 37.0901C51.929 30.3121 46.4343 24.8174 39.6563 24.8174C32.8782 24.8174 27.3835 30.3121 27.3835 37.0901C27.3835 43.8682 32.8782 49.3628 39.6563 49.3628ZM36.8406 42.1832C36.3532 42.6625 35.5631 42.6625 35.0758 42.1832C34.5884 41.7039 34.5884 40.9269 35.0758 40.4476L38.1642 37.4102L35.0759 34.3729C34.5886 33.8937 34.5886 33.1166 35.0759 32.6373C35.5632 32.158 36.3534 32.158 36.8407 32.6373L39.929 35.6746L43.0174 32.6373C43.5047 32.158 44.2948 32.158 44.7822 32.6373C45.2695 33.1166 45.2695 33.8936 44.7822 34.3729L41.6938 37.4102L44.7823 40.4476C45.2696 40.9269 45.2696 41.704 44.7823 42.1833C44.295 42.6625 43.5048 42.6625 43.0175 42.1833L39.929 39.1458L36.8406 42.1832Z" fill="#515151"/>
</svg>
