<svg width="54" height="55" viewBox="0 0 54 55" fill="none" xmlns="http://www.w3.org/2000/svg">
<g clip-path="url(#clip0_1_478317)">
<path fill-rule="evenodd" clip-rule="evenodd" d="M40.4993 35.7051C47.2773 35.7051 52.772 30.2104 52.772 23.4324C52.772 16.6544 47.2773 11.1597 40.4993 11.1597C33.7212 11.1597 28.2266 16.6544 28.2266 23.4324C28.2266 30.2104 33.7212 35.7051 40.4993 35.7051ZM37.2992 27.9331C36.8118 28.4124 36.0217 28.4124 35.5344 27.9331C35.047 27.4538 35.047 26.6767 35.5344 26.1975L38.6228 23.1601L35.5344 20.1228C35.0471 19.6435 35.0471 18.8664 35.5344 18.3872C36.0218 17.9079 36.8119 17.9079 37.2992 18.3872L40.3876 21.4245L43.476 18.3872C43.9633 17.9079 44.7534 17.9079 45.2408 18.3872C45.7281 18.8664 45.7281 19.6435 45.2408 20.1228L42.1524 23.1601L45.2408 26.1975C45.7282 26.6767 45.7282 27.4538 45.2408 27.9331C44.7535 28.4124 43.9634 28.4124 43.476 27.9331L40.3876 24.8957L37.2992 27.9331Z" fill="#515151"/>
<path d="M23.3181 3.18257C23.3181 1.82696 24.417 0.728027 25.7726 0.728027C27.1282 0.728027 28.2272 1.82696 28.2272 3.18257V3.93009C32.0904 4.41486 35.5963 6.19154 38.3779 8.85703C31.2496 9.88563 25.7725 16.0195 25.7725 23.4326C25.7725 31.5662 32.3661 38.1598 40.4997 38.1598C42.0299 38.1598 43.5056 37.9265 44.8931 37.4934L48.1765 40.4392C49.0661 41.6554 48.1975 43.367 46.6906 43.367H33.7439C33.5828 47.461 30.2129 50.7306 26.0794 50.7306C21.9459 50.7306 18.576 47.461 18.415 43.367H5.46823C3.96135 43.367 3.09275 41.6554 3.9824 40.4392L7.43149 37.2669C7.38648 36.6853 7.36352 36.0968 7.36352 35.5025V24.353C7.36352 14.0303 14.2909 5.48462 23.3181 4.01839V3.18257Z" fill="#515151"/>
<path d="M40.433 11.16C33.6857 11.196 28.227 16.6768 28.227 23.4326C28.227 30.2106 33.7217 35.7053 40.4997 35.7053C42.011 35.7053 43.4584 35.4322 44.7953 34.9325V28.2155C44.3518 28.378 43.8331 28.284 43.4765 27.9333L40.388 24.8959L37.2996 27.9333C36.8123 28.4125 36.0221 28.4125 35.5348 27.9333C35.0475 27.454 35.0475 26.6769 35.5348 26.1976L38.6232 23.1603L35.5349 20.123C35.0475 19.6437 35.0475 18.8666 35.5349 18.3873C36.0222 17.908 36.8123 17.908 37.2997 18.3873L40.388 21.4246L43.4764 18.3873C43.6054 18.2604 43.7557 18.1671 43.9159 18.1074C43.1698 15.5349 41.9752 13.1821 40.433 11.16Z" fill="#515151"/>
<path d="M44.5216 20.8306L42.1528 23.1603L44.7953 25.7591V24.353C44.7953 23.1521 44.7016 21.9751 44.5216 20.8306Z" fill="#515151"/>
</g>
<defs>
<clipPath id="clip0_1_478317">
<rect width="54" height="54" fill="white" transform="translate(0 0.271973)"/>
</clipPath>
</defs>
</svg>
