<svg width="54" height="55" viewBox="0 0 54 55" fill="none" xmlns="http://www.w3.org/2000/svg">
<path fill-rule="evenodd" clip-rule="evenodd" d="M9.20572 5.18115C6.49451 5.18115 4.29663 7.37902 4.29663 10.0902V43.2266C4.29663 45.9378 6.4945 48.1357 9.20572 48.1357H31.8254C29.921 46.4548 28.4547 44.2892 27.6195 41.8318C27.4377 41.9383 27.226 41.9993 27.0001 41.9993H24.5455C23.8677 41.9993 23.3183 41.4499 23.3183 40.7721V26.0448C23.3183 25.367 23.8677 24.8175 24.5455 24.8175H27.0001C27.6779 24.8175 28.2274 25.367 28.2274 26.0448V30.8409C29.6343 27.8429 32.0221 25.3967 34.9775 23.9157V18.6811C34.9775 18.0033 35.5269 17.4539 36.2047 17.4539H38.6593C39.3371 17.4539 39.8866 18.0033 39.8866 18.6811V22.4577C40.438 22.3951 40.9986 22.3629 41.5668 22.3629C43.5817 22.3629 45.5021 22.7676 47.2512 23.5V10.0902C47.2512 7.37903 45.0533 5.18115 42.3421 5.18115H9.20572ZM11.6595 40.7721C11.6595 41.4499 12.2089 41.9993 12.8867 41.9993H15.3413C16.0191 41.9993 16.5685 41.4499 16.5685 40.7721V32.7948C16.5685 32.117 16.0191 31.5675 15.3413 31.5675H12.8867C12.2089 31.5675 11.6595 32.117 11.6595 32.7948V40.7721ZM40.4348 10.2212C40.8707 10.9477 40.6352 11.8901 39.9086 12.326L26.7522 20.2198C25.8554 20.7579 24.7314 20.7432 23.849 20.1816L18.7336 16.9263L11.9308 23.1849C11.3072 23.7586 10.3367 23.7181 9.7631 23.0946C9.18947 22.4711 9.2299 21.5006 9.85342 20.927L16.8298 14.5087C17.7507 13.6615 19.1262 13.5394 20.1819 14.2112L25.3363 17.4913L38.3301 9.69503C39.0566 9.25912 39.9989 9.4947 40.4348 10.2212Z" fill="#515151"/>
<path fill-rule="evenodd" clip-rule="evenodd" d="M41.7272 49.3628C48.5052 49.3628 53.9999 43.8682 53.9999 37.0901C53.9999 30.3121 48.5052 24.8174 41.7272 24.8174C34.9492 24.8174 29.4545 30.3121 29.4545 37.0901C29.4545 43.8682 34.9492 49.3628 41.7272 49.3628ZM38.911 42.1832C38.4236 42.6625 37.6335 42.6625 37.1462 42.1832C36.6588 41.7039 36.6588 40.9269 37.1462 40.4476L40.235 37.4098L37.1471 34.3729C36.6598 33.8936 36.6598 33.1166 37.1471 32.6373C37.6345 32.158 38.4246 32.158 38.9119 32.6373L41.9998 35.6742L45.0878 32.6373C45.5751 32.158 46.3652 32.158 46.8526 32.6373C47.3399 33.1166 47.3399 33.8936 46.8526 34.3729L43.7646 37.4098L46.8535 40.4476C47.3409 40.9269 47.3409 41.704 46.8535 42.1832C46.3662 42.6625 45.5761 42.6625 45.0887 42.1832L41.9998 39.1454L38.911 42.1832Z" fill="#515151"/>
</svg>
