<svg width="20" height="21" viewBox="0 0 20 21" fill="none" xmlns="http://www.w3.org/2000/svg">
<g clip-path="url(#clip0_1_482404)">
<rect y="0.237305" width="20.0001" height="20" rx="10" fill="#1A47B8"/>
<path d="M25.3335 0.237305H2.66668C1.19391 0.237305 0 1.43121 0 2.90397V17.5706C0 19.0434 1.19391 20.2373 2.66668 20.2373H25.3335C26.8062 20.2373 28.0001 19.0434 28.0001 17.5706V2.90397C28.0001 1.43121 26.8062 0.237305 25.3335 0.237305Z" fill="#1A47B8"/>
<path opacity="0.5" fill-rule="evenodd" clip-rule="evenodd" d="M2.66602 15.5706L3.99936 14.904L4.66603 13.5706L5.3327 14.904L6.66603 15.5706L5.3327 16.2373L4.66603 17.5706L3.99936 16.2373L2.66602 15.5706ZM15.9994 4.2373V5.57064H17.3328V4.2373H15.9994ZM19.9994 5.57064V6.90397H21.3328V5.57064H19.9994ZM14.6661 8.2373V9.57064H15.9994V8.2373H14.6661ZM18.6661 9.57064V10.904H19.9994V9.57064H18.6661ZM17.3328 13.5706V14.904H18.6661V13.5706H17.3328Z" fill="white"/>
<path d="M12.6669 3.63379H3.33352C2.59714 3.63379 2.00018 4.23074 2.00018 4.96712V11.6338C2.00018 12.3702 2.59714 12.9671 3.33352 12.9671H12.6669C13.4033 12.9671 14.0002 12.3702 14.0002 11.6338V4.96712C14.0002 4.23074 13.4033 3.63379 12.6669 3.63379Z" fill="white"/>
<path fill-rule="evenodd" clip-rule="evenodd" d="M7.33321 8.9668H3.33319V7.63346H7.33321V4.9668H8.66655V7.63346H12.6666V8.9668H8.66655V11.6335H7.33321V8.9668ZM10.6666 10.3001V11.6335H12.6666V10.3001H10.6666ZM10.6666 4.9668V6.30013H12.6666V4.9668H10.6666ZM3.33319 10.3001V11.6335H5.3332V10.3001H3.33319ZM3.33319 4.9668V6.30013H5.3332V4.9668H3.33319Z" fill="#F93939"/>
</g>
<defs>
<clipPath id="clip0_1_482404">
<rect y="0.237305" width="20.0001" height="20" rx="10" fill="white"/>
</clipPath>
</defs>
</svg>
