<svg width="20" height="20" viewBox="0 0 20 20" fill="none" xmlns="http://www.w3.org/2000/svg">
<g clip-path="url(#clip0_1_482211)">
<path d="M21.3333 0H-1.33333C-2.80609 0 -4 1.19391 -4 2.66667V17.3333C-4 18.8061 -2.80609 20 -1.33333 20H21.3333C22.8061 20 24 18.8061 24 17.3333V2.66667C24 1.19391 22.8061 0 21.3333 0Z" fill="#FFDA2C"/>
<path fill-rule="evenodd" clip-rule="evenodd" d="M-4 0H5.33333V20H-4V0Z" fill="#1A47B8"/>
<path fill-rule="evenodd" clip-rule="evenodd" d="M14.667 0H24.0003V20H14.667V0Z" fill="#F93939"/>
<path fill-rule="evenodd" clip-rule="evenodd" d="M11.9146 13.2463C12.7333 12.997 13.3333 12.2357 13.3333 11.333V7.33301C13.3333 6.21967 12.4373 5.33301 11.3333 5.33301H8.66663C7.56529 5.33301 6.66663 6.22634 6.66663 7.33301V11.333C6.66663 12.2423 7.26396 12.9997 8.08529 13.2477C8.33329 14.0743 9.09596 14.6663 9.99996 14.6663C10.9093 14.6663 11.6666 14.0663 11.9146 13.2463Z" fill="#D4AF2C"/>
<path fill-rule="evenodd" clip-rule="evenodd" d="M7.99951 6.66699H9.33285V8.66699H7.99951V6.66699ZM10.6662 9.33366H11.9995V11.3337H10.6662V9.33366Z" fill="#AF010D"/>
<path fill-rule="evenodd" clip-rule="evenodd" d="M10.6662 6.66699H11.9995V8.66699H10.6662V6.66699ZM7.99951 9.33366H9.33285V11.3337H7.99951V9.33366Z" fill="#FFDA2C"/>
</g>
<defs>
<clipPath id="clip0_1_482211">
<rect width="20" height="20" rx="10" fill="white"/>
</clipPath>
</defs>
</svg>
