<svg width="20" height="21" viewBox="0 0 20 21" fill="none" xmlns="http://www.w3.org/2000/svg">
<rect y="0.237305" width="20.0001" height="20" rx="10" fill="#249F58"/>
<path fill-rule="evenodd" clip-rule="evenodd" d="M10.0003 4.37012L18.0003 10.2368L10.0003 16.1034L2.00021 10.2368" fill="#FFDA2C"/>
<path d="M10.0002 13.9706C12.062 13.9706 13.7335 12.2991 13.7335 10.2372C13.7335 8.17538 12.062 6.50391 10.0002 6.50391C7.93829 6.50391 6.26682 8.17538 6.26682 10.2372C6.26682 12.2991 7.93829 13.9706 10.0002 13.9706Z" fill="#1A47B8"/>
<path fill-rule="evenodd" clip-rule="evenodd" d="M8.4006 11.8369V12.9036H9.46728V11.8369H8.4006ZM10.5339 11.8369V12.9036H11.6006V11.8369H10.5339Z" fill="white"/>
<path fill-rule="evenodd" clip-rule="evenodd" d="M7.33322 8.63672C7.33322 8.63672 9.74817 9.06339 11.489 9.80792L13.7333 10.7701" fill="white"/>
<path d="M7.33322 8.63672C7.33322 8.63672 9.74817 9.06339 11.489 9.80792L13.7333 10.7701" stroke="white" stroke-width="0.833335"/>
</svg>
