<svg width="20" height="20" viewBox="0 0 20 20" fill="none" xmlns="http://www.w3.org/2000/svg">
<g clip-path="url(#clip0_1_482373)">
<rect width="20" height="20" rx="10" fill="#F93939"/>
<path d="M21.3333 0H-1.33333C-2.80609 0 -4 1.19391 -4 2.66667V17.3333C-4 18.8061 -2.80609 20 -1.33333 20H21.3333C22.8061 20 24 18.8061 24 17.3333V2.66667C24 1.19391 22.8061 0 21.3333 0Z" fill="#F93939"/>
<path fill-rule="evenodd" clip-rule="evenodd" d="M-4 10.6665H24V19.9998H-4V10.6665Z" fill="#249F58"/>
<path fill-rule="evenodd" clip-rule="evenodd" d="M9.99933 12.333L7.25666 13.7757L7.78066 10.7223L5.55933 8.55567L8.62599 8.11034L9.99933 5.33301L11.3727 8.11167L14.4393 8.55701L12.218 10.721L12.742 13.777" fill="#FFDA2C"/>
</g>
<defs>
<clipPath id="clip0_1_482373">
<rect width="20" height="20" rx="10" fill="white"/>
</clipPath>
</defs>
</svg>
