<svg width="20" height="20" viewBox="0 0 20 20" fill="none" xmlns="http://www.w3.org/2000/svg">
<g clip-path="url(#clip0_1_482241)">
<rect width="20" height="20" rx="10" fill="#F93939"/>
<path d="M25.7459 0H3.07926C1.6065 0 0.412598 1.19391 0.412598 2.66667V17.3333C0.412598 18.8061 1.6065 20 3.07926 20H25.7459C27.2187 20 28.4126 18.8061 28.4126 17.3333V2.66667C28.4126 1.19391 27.2187 0 25.7459 0Z" fill="#F93939"/>
<path fill-rule="evenodd" clip-rule="evenodd" d="M4.4126 0L7.07926 2L4.4126 4V0ZM4.4126 4L7.07926 6L4.4126 8V4ZM4.4126 8L7.07926 10L4.4126 12V8ZM4.4126 12L7.07926 14L4.4126 16V12ZM4.4126 16L7.07926 18L4.4126 20V16ZM3.07926 0L0.412598 2L3.07926 4V0ZM3.07926 4L0.412598 6L3.07926 8V4ZM3.07926 8L0.412598 10L3.07926 12V8ZM3.07926 12L0.412598 14L3.07926 16V12ZM3.07926 16L0.412598 18L3.07926 20V16ZM3.07926 0H4.4126V2.66667H3.07926V0ZM3.07926 17.3333H4.4126V20H3.07926V17.3333ZM3.07926 6.66667H4.4126V9.33333H3.07926V6.66667ZM3.07926 4H4.4126V5.33333H3.07926V4ZM3.07926 14.6667H4.4126V16H3.07926V14.6667ZM3.07926 10.6667H4.4126V13.3333H3.07926V10.6667Z" fill="white"/>
<path fill-rule="evenodd" clip-rule="evenodd" d="M7.07886 13.7837H28.4122V20H7.07886V13.7837Z" fill="#249F58"/>
</g>
<defs>
<clipPath id="clip0_1_482241">
<rect width="20" height="20" rx="10" fill="white"/>
</clipPath>
</defs>
</svg>
