<svg width="20" height="20" viewBox="0 0 20 20" fill="none" xmlns="http://www.w3.org/2000/svg">
<g clip-path="url(#clip0_1_482137)">
<path d="M21.3333 0H-1.33333C-2.80609 0 -4 1.19391 -4 2.66667V17.3333C-4 18.8061 -2.80609 20 -1.33333 20H21.3333C22.8061 20 24 18.8061 24 17.3333V2.66667C24 1.19391 22.8061 0 21.3333 0Z" fill="#F93939"/>
<path fill-rule="evenodd" clip-rule="evenodd" d="M-4 0L9.33333 10.6667L-4 20V0ZM24 0L10.6667 10.6667L24 20V0Z" fill="#00B731"/>
<path fill-rule="evenodd" clip-rule="evenodd" d="M5.544 8.608L-4 2V0H-2L7.12933 6.32C7.92 5.70133 8.916 5.33333 10 5.33333C11.0827 5.33333 12.08 5.70133 12.8707 6.32L22 0H24V2L14.456 8.608C14.5933 9.048 14.6667 9.51467 14.6667 10C14.6667 10.4853 14.5933 10.952 14.456 11.392L24 18V20H22L12.8707 13.68C12.0787 14.2987 11.084 14.6667 10 14.6667C8.91733 14.6667 7.92 14.2987 7.12933 13.68L-2 20H-4V18L5.544 11.392C5.40667 10.952 5.33333 10.4853 5.33333 10C5.33333 9.51467 5.40667 9.048 5.544 8.608Z" fill="white"/>
<path fill-rule="evenodd" clip-rule="evenodd" d="M9.33285 8H10.6662V9.33333H9.33285V8ZM10.6662 10.6667H11.9995V12H10.6662V10.6667ZM7.99951 10.6667H9.33285V12H7.99951V10.6667Z" fill="#AF010D"/>
</g>
<defs>
<clipPath id="clip0_1_482137">
<rect width="20" height="20" rx="10" fill="white"/>
</clipPath>
</defs>
</svg>
