<svg width="20" height="20" viewBox="0 0 20 20" fill="none" xmlns="http://www.w3.org/2000/svg">
<g clip-path="url(#clip0_1_482237)">
<rect width="20" height="20" rx="10" fill="white"/>
<path d="M10.2745 15.4899H9.72547L9.86272 13.2938C9.85496 13.1781 9.79945 13.1477 9.58821 13.1565L7.39214 13.431C7.39214 13.431 7.8039 12.882 7.8039 12.6075C7.8039 12.333 5.33331 10.5487 5.33331 10.5487C5.33331 10.5487 5.88233 10.4114 6.01959 10.2742C6.15684 10.1369 5.47057 8.62713 5.47057 8.62713C5.47057 8.62713 6.86539 9.17614 6.98037 9.03889C7.09536 8.90164 7.25488 8.35262 7.25488 8.35262C7.25488 8.35262 8.35292 9.58791 8.62743 9.58791C8.90194 9.58791 8.07841 6.5683 8.07841 6.5683C8.07841 6.5683 8.76469 7.11732 9.0392 7.11732C9.3137 7.11732 9.99998 5.33301 9.99998 5.33301C9.99998 5.33301 10.6863 7.11732 10.8235 7.11732C10.9608 7.11732 11.9215 6.5683 11.9215 6.5683C11.9215 6.5683 11.2353 9.45065 11.3725 9.58791C11.5098 9.72516 12.7451 8.35262 12.7451 8.35262C12.7451 8.35262 12.8823 8.90164 13.0196 9.03889C13.1568 9.17614 14.5294 8.62713 14.5294 8.62713C14.5294 8.62713 13.8431 10.1369 13.9804 10.2742C14.1176 10.4114 14.6666 10.5487 14.6666 10.5487C14.6666 10.5487 12.1961 12.333 12.1961 12.6075C12.1961 12.882 12.4706 13.431 12.4706 13.431L10.4117 13.1565C10.2463 13.1091 10.1889 13.1451 10.1372 13.2938L10.2745 15.4899Z" fill="#F93939"/>
<rect x="17.3328" width="6.66667" height="20" fill="#F93939"/>
<rect x="-4" width="6.66667" height="20" fill="#F93939"/>
</g>
<defs>
<clipPath id="clip0_1_482237">
<rect width="20" height="20" rx="10" fill="white"/>
</clipPath>
</defs>
</svg>
