<svg width="20" height="20" viewBox="0 0 20 20" fill="none" xmlns="http://www.w3.org/2000/svg">
<g clip-path="url(#clip0_1_482157)">
<rect width="20" height="20" rx="10" fill="white"/>
<path fill-rule="evenodd" clip-rule="evenodd" d="M-4 13.333H24V19.9997H-4V13.333Z" fill="#1A47B8"/>
<path fill-rule="evenodd" clip-rule="evenodd" d="M-4 0H24V6.66667H-4V0Z" fill="#F93939"/>
<path fill-rule="evenodd" clip-rule="evenodd" d="M6.66626 5.33333H7.99959V6.66667H6.66626V5.33333ZM9.33293 4H10.6663V6.66667H9.33293V4ZM11.9996 5.33333H13.3329V6.66667H11.9996V5.33333Z" fill="#3A99FF"/>
<path fill-rule="evenodd" clip-rule="evenodd" d="M10.6672 4H12.0005V6.66667H10.6672V4ZM8.00049 4H9.33382V6.66667H8.00049V4Z" fill="#1A47B8"/>
<mask id="mask0_1_482157" style="mask-type:alpha" maskUnits="userSpaceOnUse" x="6" y="6" width="8" height="9">
<path d="M13.3329 11.3337C13.3329 13.1737 11.8396 14.667 9.99959 14.667C8.15959 14.667 6.66626 13.1737 6.66626 11.3337V6.66699H13.3329V11.3337Z" fill="white"/>
</mask>
<g mask="url(#mask0_1_482157)">
<path d="M13.3329 11.3337C13.3329 13.1737 11.8396 14.667 9.99959 14.667C8.15959 14.667 6.66626 13.1737 6.66626 11.3337V6.66699H13.3329V11.3337Z" fill="#F93939"/>
<path fill-rule="evenodd" clip-rule="evenodd" d="M7.99959 13.3337H9.33293V14.667H7.99959V13.3337ZM10.6663 13.3337H11.9996V14.667H10.6663V13.3337ZM9.33293 12.0003H10.6663V13.3337H9.33293V12.0003ZM7.99959 10.667H9.33293V12.0003H7.99959V10.667ZM10.6663 10.667H11.9996V12.0003H10.6663V10.667ZM9.33293 9.33366H10.6663V10.667H9.33293V9.33366ZM7.99959 8.00033H9.33293V9.33366H7.99959V8.00033ZM10.6663 8.00033H11.9996V9.33366H10.6663V8.00033ZM9.33293 6.66699H10.6663V8.00033H9.33293V6.66699ZM11.9996 6.66699H13.3329V8.00033H11.9996V6.66699ZM11.9996 9.33366H13.3329V10.667H11.9996V9.33366ZM11.9996 12.0003H13.3329V13.3337H11.9996V12.0003ZM6.66626 12.0003H7.99959V13.3337H6.66626V12.0003ZM6.66626 9.33366H7.99959V10.667H6.66626V9.33366ZM6.66626 6.66699H7.99959V8.00033H6.66626V6.66699Z" fill="white"/>
</g>
</g>
<defs>
<clipPath id="clip0_1_482157">
<rect width="20" height="20" rx="10" fill="white"/>
</clipPath>
</defs>
</svg>
