<svg width="20" height="20" viewBox="0 0 20 20" fill="none" xmlns="http://www.w3.org/2000/svg">
<g clip-path="url(#clip0_1_482269)">
<path d="M21.3333 0H-1.33333C-2.80609 0 -4 1.19391 -4 2.66667V17.3333C-4 18.8061 -2.80609 20 -1.33333 20H21.3333C22.8061 20 24 18.8061 24 17.3333V2.66667C24 1.19391 22.8061 0 21.3333 0Z" fill="#F93939"/>
<path fill-rule="evenodd" clip-rule="evenodd" d="M10.0005 11.667L8.0405 12.6977L8.41383 10.515L6.82983 8.96833L9.0205 8.65233L10.0005 6.66699L10.9805 8.65366L13.1712 8.96966L11.5845 10.5163L11.9578 12.6977" fill="#FFDA2C"/>
<path fill-rule="evenodd" clip-rule="evenodd" d="M-4 0H5.33333V20H-4V0Z" fill="#249F58"/>
<path fill-rule="evenodd" clip-rule="evenodd" d="M14.6667 0H24V20H14.6667V0Z" fill="#FFDA2C"/>
</g>
<defs>
<clipPath id="clip0_1_482269">
<rect width="20" height="20" rx="10" fill="white"/>
</clipPath>
</defs>
</svg>
