<svg width="20" height="20" viewBox="0 0 20 20" fill="none" xmlns="http://www.w3.org/2000/svg">
<g clip-path="url(#clip0_1_482261)">
<rect width="20" height="20" rx="10" fill="#3A99FF"/>
<path d="M25.3333 0H2.66667C1.19391 0 0 1.19391 0 2.66667V17.3333C0 18.8061 1.19391 20 2.66667 20H25.3333C26.8061 20 28 18.8061 28 17.3333V2.66667C28 1.19391 26.8061 0 25.3333 0Z" fill="#3A99FF"/>
<path fill-rule="evenodd" clip-rule="evenodd" d="M0 0H28V10.6667H0V0Z" fill="#249F58"/>
<path fill-rule="evenodd" clip-rule="evenodd" d="M0 0L28 10L0 20V0Z" fill="#F93939"/>
<path fill-rule="evenodd" clip-rule="evenodd" d="M12 9.99981C12 8.15981 10.5067 6.66647 8.66667 5.99981C6.82667 6.66647 5.33333 8.15981 5.33333 9.99981C5.33333 11.6131 6.48 12.9571 8 13.2665V8.66381C8 8.29714 8.30933 7.99981 8.66667 7.99981C9.03467 7.99981 9.33333 8.28647 9.33333 8.66381V13.2665C10.8533 12.9571 12 11.6131 12 9.99981ZM13.3333 9.99981C13.3333 7.42247 11.244 5.33314 8.66667 5.99981C6.08933 5.33314 4 7.42247 4 9.99981C4 12.5771 6.08933 14.6665 8.66667 14.6665C11.244 14.6665 13.3333 12.5771 13.3333 9.99981Z" fill="#FFDA2C"/>
</g>
<defs>
<clipPath id="clip0_1_482261">
<rect width="20" height="20" rx="10" fill="white"/>
</clipPath>
</defs>
</svg>
