<svg width="20" height="20" viewBox="0 0 20 20" fill="none" xmlns="http://www.w3.org/2000/svg">
<g clip-path="url(#clip0_1_482195)">
<mask id="mask0_1_482195" style="mask-type:luminance" maskUnits="userSpaceOnUse" x="0" y="0" width="20" height="20">
<path d="M10 20C15.5228 20 20 15.5228 20 10C20 4.47715 15.5228 0 10 0C4.47715 0 0 4.47715 0 10C0 15.5228 4.47715 20 10 20Z" fill="white"/>
</mask>
<g mask="url(#mask0_1_482195)">
<path d="M20 0H0V8.36448H20V0Z" fill="#002488"/>
<path d="M20 8.36426H0V19.9998H20V8.36426Z" fill="#DA121A"/>
<path fill-rule="evenodd" clip-rule="evenodd" d="M5.42144 2.67725C5.34762 2.67725 5.06592 2.98114 5.06592 3.34669C5.06592 3.60994 5.30933 4.22093 5.30933 4.72386H5.53365C5.53365 4.22093 5.77706 3.60994 5.77706 3.34669C5.77706 2.98114 5.49536 2.67725 5.42154 2.67725H5.42144Z" fill="#FCDD09"/>
<path fill-rule="evenodd" clip-rule="evenodd" d="M6.30232 3.66173C6.60878 3.66781 6.78894 4.34013 6.08526 4.55559C6.32099 4.20263 5.88035 3.96263 5.7148 4.72381H5.5835C5.5835 4.66802 5.69016 3.64967 6.30222 3.66173H6.30232Z" fill="#FCDD09"/>
<path fill-rule="evenodd" clip-rule="evenodd" d="M5.04517 4.76709V4.83205H5.42138V4.76709H5.04517ZM5.42138 4.76709V4.83205H5.79759V4.76709H5.42138Z" fill="#FCDD09"/>
<path fill-rule="evenodd" clip-rule="evenodd" d="M5.20479 4.8878C5.13236 5.11255 5.02612 5.15042 4.92554 5.21943C5.16063 5.21943 5.20831 5.19479 5.31199 5.17218C5.27135 5.36172 5.30143 5.68727 5.42058 5.68727V4.88791H5.20468L5.20479 4.8878ZM5.42068 4.8878V5.68716C5.53983 5.68716 5.56991 5.36162 5.52927 5.17207C5.63306 5.19468 5.68063 5.21932 5.91572 5.21932C5.81514 5.15042 5.709 5.11255 5.63647 4.8877H5.42058L5.42068 4.8878Z" fill="#FCDD09"/>
<path fill-rule="evenodd" clip-rule="evenodd" d="M4.53919 3.66173C4.23274 3.66781 4.05258 4.34013 4.75626 4.55559C4.52053 4.20263 4.96117 3.96263 5.12671 4.72381H5.25802C5.25802 4.66802 5.15135 3.64967 4.5393 3.66173H4.53919Z" fill="#FCDD09"/>
<path fill-rule="evenodd" clip-rule="evenodd" d="M10.0005 2.67725C9.92671 2.67725 9.645 2.98114 9.645 3.34669C9.645 3.60994 9.88842 4.22093 9.88842 4.72386H10.1127C10.1127 4.22093 10.3562 3.60994 10.3562 3.34669C10.3562 2.98114 10.0744 2.67725 10.0006 2.67725H10.0005Z" fill="#FCDD09"/>
<path fill-rule="evenodd" clip-rule="evenodd" d="M10.8822 3.66173C11.1887 3.66781 11.3688 4.34013 10.6652 4.55559C10.9009 4.20263 10.4603 3.96263 10.2947 4.72381H10.1634C10.1634 4.66802 10.2701 3.64967 10.8821 3.66173H10.8822Z" fill="#FCDD09"/>
<path fill-rule="evenodd" clip-rule="evenodd" d="M9.62431 4.76709V4.83205H10.0005V4.76709H9.62431ZM10.0005 4.76709V4.83205H10.3767V4.76709H10.0005Z" fill="#FCDD09"/>
<path fill-rule="evenodd" clip-rule="evenodd" d="M9.78464 4.8878C9.71221 5.11255 9.60597 5.15042 9.50539 5.21943C9.74048 5.21943 9.78816 5.19479 9.89184 5.17218C9.8512 5.36172 9.88128 5.68727 10.0004 5.68727V4.88791H9.78453L9.78464 4.8878ZM10.0005 4.8878V5.68716C10.1197 5.68716 10.1498 5.36162 10.1091 5.17207C10.2129 5.19468 10.2605 5.21932 10.4956 5.21932C10.395 5.15042 10.2889 5.11255 10.2163 4.8877H10.0004L10.0005 4.8878Z" fill="#FCDD09"/>
<path fill-rule="evenodd" clip-rule="evenodd" d="M9.11927 3.66173C8.81282 3.66781 8.63266 4.34013 9.33634 4.55559C9.1006 4.20263 9.54124 3.96263 9.70679 4.72381H9.8381C9.8381 4.66802 9.73143 3.64967 9.11938 3.66173H9.11927Z" fill="#FCDD09"/>
<path fill-rule="evenodd" clip-rule="evenodd" d="M14.5804 2.67725C14.5066 2.67725 14.2249 2.98114 14.2249 3.34669C14.2249 3.60994 14.4683 4.22093 14.4683 4.72386H14.6926C14.6926 4.22093 14.936 3.60994 14.936 3.34669C14.936 2.98114 14.6543 2.67725 14.5805 2.67725H14.5804Z" fill="#FCDD09"/>
<path fill-rule="evenodd" clip-rule="evenodd" d="M15.4613 3.66173C15.7677 3.66781 15.9479 4.34013 15.2442 4.55559C15.4799 4.20263 15.0393 3.96263 14.8737 4.72381H14.7424C14.7424 4.66802 14.8491 3.64967 15.4612 3.66173H15.4613Z" fill="#FCDD09"/>
<path fill-rule="evenodd" clip-rule="evenodd" d="M14.2038 4.76709V4.83205H14.58V4.76709H14.2038ZM14.58 4.76709V4.83205H14.9563V4.76709H14.58Z" fill="#FCDD09"/>
<path fill-rule="evenodd" clip-rule="evenodd" d="M14.3637 4.8878C14.2913 5.11255 14.1851 5.15042 14.0845 5.21943C14.3196 5.21943 14.3672 5.19479 14.4709 5.17218C14.4303 5.36172 14.4604 5.68727 14.5795 5.68727V4.88791H14.3636L14.3637 4.8878ZM14.5796 4.8878V5.68716C14.6988 5.68716 14.7288 5.36162 14.6882 5.17207C14.792 5.19468 14.8396 5.21932 15.0747 5.21932C14.9741 5.15042 14.8679 5.11255 14.7954 4.8877H14.5795L14.5796 4.8878Z" fill="#FCDD09"/>
<path fill-rule="evenodd" clip-rule="evenodd" d="M13.6983 3.66173C13.3919 3.66781 13.2117 4.34013 13.9154 4.55559C13.6797 4.20263 14.1203 3.96263 14.2859 4.72381H14.4172C14.4172 4.66802 14.3105 3.64967 13.6984 3.66173H13.6983Z" fill="#FCDD09"/>
<path fill-rule="evenodd" clip-rule="evenodd" d="M8.21644 12.916C8.13719 12.8816 8.06039 12.8509 7.96962 12.7981C7.96962 12.7981 7.97826 12.7924 7.98626 12.7902C8.01004 12.7837 7.99415 12.7673 7.98231 12.7645C7.94359 12.7554 7.86786 12.7383 7.86786 12.7383C7.81047 12.6849 7.78956 12.683 7.77228 12.658C7.62956 12.4519 7.47202 12.1609 7.41698 11.9662C7.40962 11.9402 7.42391 11.9315 7.3965 11.8876C7.3789 11.8592 7.33996 11.8692 7.33506 11.9018C7.30668 12.089 7.68482 12.7257 7.74786 12.7288L7.57495 12.7091C7.55884 12.6564 7.4653 12.5603 7.41719 12.51C7.27831 12.3643 7.11714 12.1425 7.01367 12.0488C7.01068 12.046 7.00439 12.0544 7.00578 12.0582C7.11788 12.3574 7.3021 12.6555 7.39255 12.6973C7.25548 12.681 7.11404 12.6851 6.97196 12.6926C6.93154 12.5899 6.6109 12.1476 6.58988 12.184C6.55468 12.2449 6.86434 12.6353 6.9341 12.7006C6.90647 12.7018 6.89111 12.7072 6.85975 12.716C6.7373 12.6173 6.35863 12.1549 6.04194 11.6194C6.03863 11.6138 6.02604 11.6256 6.027 11.632C6.10092 12.1051 6.44642 12.323 6.62178 12.617C6.62871 12.6286 6.63351 12.6524 6.60588 12.6291C6.30839 12.3784 6.0238 11.9415 5.64812 11.4379C5.6446 11.4332 5.63522 11.4456 5.63671 11.4512C5.69484 11.676 5.74743 11.7636 5.98338 12.1037C5.99863 12.1257 5.98338 12.1436 5.9677 12.1296C5.74903 11.9342 5.58082 11.702 5.26658 11.2851C5.26487 11.2829 5.2606 11.2892 5.26156 11.2919C5.4349 11.7392 6.11522 12.4184 6.46231 12.6521C6.56066 12.7183 6.73634 12.7475 6.803 12.7547C6.8142 12.7559 6.82391 12.766 6.82935 12.7759C6.9277 12.9549 7.29943 13.1324 7.29943 13.1324L7.2238 13.1658C7.2238 13.1658 6.9661 13.0137 6.83042 12.9088C6.77858 12.8688 6.74188 12.8318 6.68972 12.8066C6.54402 12.7362 6.1885 12.6332 6.18263 12.6274C6.18263 12.6274 6.14103 12.5999 6.11383 12.5838C6.11042 12.5818 6.10519 12.5865 6.10359 12.5901C6.10156 12.5948 6.10668 12.605 6.10668 12.605L5.82882 12.526C5.82882 12.526 5.82284 12.5121 5.81783 12.5067C5.75372 12.4386 5.58316 12.353 5.58316 12.353C5.58316 12.353 5.57228 12.3323 5.56428 12.3239C5.37719 12.1286 5.01079 11.8286 4.6173 11.6478C4.60802 11.6435 4.59319 11.6675 4.60119 11.6739C4.84034 11.8648 4.94956 11.9225 5.04066 12.0206C5.09602 12.0802 5.06156 12.0622 5.163 12.1373C5.163 12.1373 4.92279 12.0334 4.76706 11.9972C4.75767 11.9951 4.747 12.0187 4.75522 12.0236C4.97399 12.1526 5.10295 12.1866 5.25954 12.3066C5.32631 12.3578 5.4797 12.43 5.4797 12.43C5.14402 12.3387 4.64236 12.1962 4.47266 12.2496C4.91522 12.3423 5.28983 12.4416 5.67703 12.5636C5.587 12.5739 5.5037 12.6019 5.42071 12.6313C5.42071 12.6313 5.3357 12.5761 5.27532 12.537C5.27298 12.5355 5.26871 12.5419 5.27063 12.544C5.31148 12.5905 5.36972 12.6408 5.36972 12.6408L5.36812 12.6494L5.27298 12.6793L5.44834 12.7107C5.53538 12.7888 5.62242 12.8358 5.70946 12.8884C5.40119 12.945 5.13196 12.9035 5.18892 13.232C5.18946 13.2352 5.19778 13.2376 5.19831 13.2344C5.24514 12.9987 5.31511 12.9905 5.38935 12.9757C5.53975 12.9457 5.87287 12.9827 5.87287 12.9827L6.28716 13.1958C5.60812 13.1768 5.30914 13.3073 5.31938 13.4371C5.3213 13.4616 5.33154 13.464 5.3422 13.4521C5.43948 13.3425 5.65954 13.3043 5.78007 13.2918C5.79202 13.2905 5.80556 13.3056 5.80524 13.3177C5.80311 13.4051 5.73068 13.4973 5.7486 13.5826C5.7533 13.6047 5.771 13.5977 5.77538 13.5866C5.81164 13.4939 5.84812 13.3999 5.91522 13.3618C6.0942 13.2603 6.38018 13.3126 6.5741 13.3185L6.67948 13.3554C6.56631 13.3554 5.99522 13.525 5.91522 13.644C5.89922 13.6678 5.90807 13.7187 5.94188 13.6968C5.9773 13.6738 6.00983 13.6451 6.04866 13.6284C6.25687 13.5386 6.60418 13.4876 6.74956 13.3846L6.88471 13.4128C6.80876 13.4866 6.74295 13.5695 6.70796 13.6795C6.52375 13.7367 6.24023 13.812 6.20162 13.9351C6.17922 14.0064 6.19138 14.1005 6.2477 14.2376C6.25015 14.2434 6.26156 14.2434 6.26114 14.2375C6.25207 14.0841 6.29186 13.9844 6.3421 13.9183C6.41612 13.821 6.62124 13.7806 6.69122 13.7607C6.69207 13.8055 6.69548 13.8504 6.70124 13.8952C6.63234 13.9767 6.58274 14.0637 6.53004 14.1498L6.7246 13.9697L6.79244 14.1698C6.78796 14.0898 6.78818 14.0108 6.77239 13.9286C6.98754 13.779 7.15767 13.8551 7.33719 13.8841C6.95447 14.0514 6.93196 14.2654 6.96364 14.6112C7.02764 14.2351 7.08428 14.0552 7.49058 13.932C7.52162 13.9373 7.55127 13.9471 7.5806 13.9576L7.38316 14.1771C7.38316 14.1771 7.23116 14.3238 7.22039 14.4928C7.21911 14.5127 7.2413 14.5167 7.24866 14.5048C7.38764 14.2768 7.4989 14.1962 7.4989 14.1962L7.67404 13.9152L7.62455 13.8877C7.65634 13.8753 7.68876 13.8671 7.72151 13.8622L7.88322 13.7666C7.75916 13.7661 7.62786 13.7801 7.48151 13.824C7.18487 13.7252 6.9389 13.7103 6.7726 13.8274L6.787 13.7329C7.09516 13.647 7.13644 13.6749 7.38956 13.6087L7.27948 13.5331C7.12578 13.5657 6.97314 13.6033 6.82199 13.6479C6.87063 13.5585 6.93964 13.4819 7.02722 13.4168C7.06935 13.4217 7.10946 13.4187 7.14668 13.4042L7.50754 13.5161L7.7566 13.4515L7.71831 13.4215C7.66423 13.3769 7.63255 13.3831 7.60354 13.3696C7.56407 13.3513 7.48514 13.3025 7.4141 13.243C7.39436 13.2266 7.38135 13.2049 7.33196 13.1881L7.36258 13.1652C7.52492 13.2505 7.68716 13.317 7.84951 13.382L7.93122 13.3431C7.80524 13.2707 7.6029 13.1984 7.43692 13.1261L7.571 13.0778L7.56119 12.9858L7.39319 12.7916C7.4414 12.7998 7.48684 12.8001 7.53271 12.8013C7.57175 12.8831 7.67287 12.9266 7.77346 12.9706C7.87479 13.024 7.97858 12.9798 8.08162 12.9646C7.98348 12.8999 7.8334 12.8588 7.72396 12.8081L7.83714 12.8058C7.93122 12.8813 8.0253 12.9117 8.11938 12.9449L8.1949 12.9504L8.21687 12.9159L8.21644 12.916Z" fill="#008000"/>
<path fill-rule="evenodd" clip-rule="evenodd" d="M4.74247 12.8213C4.74172 12.8282 4.75164 12.8292 4.75634 12.8242C4.89543 12.6755 4.93308 12.5902 5.02108 12.5466C5.11719 12.4989 5.3078 12.5241 5.42599 12.5011C5.43111 12.5001 5.42706 12.4901 5.42226 12.4883C5.2549 12.423 5.03911 12.4021 4.90546 12.4946C4.83207 12.5454 4.76338 12.6301 4.74247 12.8213Z" fill="#008000"/>
<path fill-rule="evenodd" clip-rule="evenodd" d="M5.07992 11.5783C5.07683 11.5758 5.0684 11.5809 5.06989 11.5847C5.27043 12.0798 5.80888 12.4076 6.18659 12.6172C6.18957 12.6189 6.19715 12.6134 6.1948 12.6108C5.98339 12.3799 5.3964 11.8239 5.08003 11.5783H5.07992Z" fill="#008000"/>
<path fill-rule="evenodd" clip-rule="evenodd" d="M6.66992 11.958C6.66992 11.958 6.94587 12.5659 7.17126 12.6859C7.18512 12.6933 7.22512 12.6852 7.21968 12.6704C7.15344 12.4901 6.74555 12.0522 6.66992 11.958Z" fill="#008000"/>
<path fill-rule="evenodd" clip-rule="evenodd" d="M5.54443 12.7106L5.64118 12.773C5.68257 12.7396 5.72641 12.7105 5.78145 12.7009L5.74347 12.6514C5.67265 12.6578 5.61014 12.6981 5.54443 12.7106Z" fill="#DA121A"/>
<path fill-rule="evenodd" clip-rule="evenodd" d="M5.83499 12.6444L5.87979 12.6383L5.84907 12.6143L6.04182 12.6822L5.89142 12.6817L5.83499 12.6444Z" fill="#DA121A"/>
<path fill-rule="evenodd" clip-rule="evenodd" d="M5.84971 12.7666L5.95787 12.8657L5.81376 12.8799L5.67477 12.7937L5.84971 12.7666Z" fill="#DA121A"/>
<path fill-rule="evenodd" clip-rule="evenodd" d="M5.98389 12.7445L6.12298 12.7124L6.19765 12.7381C6.26357 12.8254 6.33205 12.8866 6.40159 12.9389C6.24341 12.9017 6.23263 12.8693 6.14815 12.8603L5.98389 12.7445Z" fill="#DA121A"/>
<path fill-rule="evenodd" clip-rule="evenodd" d="M6.41978 12.8193C6.50064 12.8875 6.58789 12.9415 6.67322 12.9995L6.71184 12.9963V12.9728L6.67578 12.9436C6.59696 12.8973 6.50789 12.8587 6.41968 12.8194L6.41978 12.8193Z" fill="#DA121A"/>
<path fill-rule="evenodd" clip-rule="evenodd" d="M6.02661 13.0034C6.08666 13.0323 6.14597 13.0653 6.20763 13.0872C6.22149 13.0884 6.2345 13.0881 6.24624 13.0856C6.22885 13.0628 6.21349 13.0397 6.17872 13.0203C6.13093 13.0112 6.07856 13.0076 6.02672 13.0034H6.02661Z" fill="#DA121A"/>
<path fill-rule="evenodd" clip-rule="evenodd" d="M6.46614 13.0654L6.62507 13.0931L6.85217 13.2205L6.71062 13.2095L6.46614 13.0654Z" fill="#DA121A"/>
<path fill-rule="evenodd" clip-rule="evenodd" d="M6.92383 13.1553L7.08169 13.2467L7.13951 13.2121L6.92383 13.1553Z" fill="#DA121A"/>
<path fill-rule="evenodd" clip-rule="evenodd" d="M7.25891 13.2451L7.21069 13.2837L7.37091 13.322L7.25891 13.2451Z" fill="#DA121A"/>
<path fill-rule="evenodd" clip-rule="evenodd" d="M6.96791 12.839C7.05751 12.9359 7.20247 13.0113 7.35276 13.0846L7.46199 13.0218C7.29559 12.966 7.1293 12.9098 6.96791 12.8389V12.839Z" fill="#DA121A"/>
<path fill-rule="evenodd" clip-rule="evenodd" d="M7.05334 12.7882C7.13014 12.8175 7.20684 12.8368 7.28364 12.8508C7.25793 12.8305 7.23126 12.8203 7.20705 12.7812L7.05324 12.7882H7.05334Z" fill="#DA121A"/>
<path fill-rule="evenodd" clip-rule="evenodd" d="M12.3841 14.9018C13.3045 15.1253 14.2722 15.3658 15.1085 15.5589L15.1006 15.6022L15.1498 15.4309L12.7004 14.8895L12.4188 14.791L12.384 14.9018H12.3841Z" fill="#008000"/>
<path fill-rule="evenodd" clip-rule="evenodd" d="M12.2746 14.9175L15.04 15.6513L14.9843 15.8031L14.9912 15.7677C14.1536 15.547 12.8977 15.1851 12.062 14.9391L12.2747 14.9175H12.2746Z" fill="#008000"/>
<path fill-rule="evenodd" clip-rule="evenodd" d="M12.034 14.9562L14.8851 15.8747L14.8231 16.0262L14.8005 15.9952C13.928 15.6929 12.1788 15.1282 12.0227 15.0267L12.0341 14.9561L12.034 14.9562Z" fill="#008000"/>
<path fill-rule="evenodd" clip-rule="evenodd" d="M12.3098 15.1915L14.7476 16.116L14.678 16.2607L14.6766 16.2262C13.995 15.9765 13.1123 15.6119 12.2962 15.2853L12.3098 15.1914V15.1915Z" fill="#008000"/>
<path fill-rule="evenodd" clip-rule="evenodd" d="M12.5596 15.4721L14.6231 16.3275L14.5503 16.4693L14.5582 16.4397C13.7793 16.112 12.9591 15.7428 12.157 15.3917L12.311 15.3809L12.5595 15.472L12.5596 15.4721Z" fill="#008000"/>
<path fill-rule="evenodd" clip-rule="evenodd" d="M12.0313 15.396L14.4709 16.5736L14.3863 16.7154L14.3966 16.6833C13.5791 16.2854 12.6986 15.8348 11.8496 15.4107L12.0313 15.3961V15.396Z" fill="#008000"/>
<path fill-rule="evenodd" clip-rule="evenodd" d="M9.92907 11.0873C9.80139 11.5007 9.95488 11.7708 10.2038 11.9922C10.1918 11.7023 10.2557 11.417 10.5773 11.1479C10.3743 11.4605 10.4303 11.773 10.6575 12.0855C10.7015 11.766 10.8597 11.5036 11.1974 11.3309C10.9435 11.5941 10.904 11.9045 11.0806 12.2623C11.1966 11.9498 11.4203 11.7398 11.7627 11.6428C11.3721 11.9336 11.4087 12.2318 11.4538 12.5299C11.6898 12.1857 11.9645 12.0841 12.2528 12.0689C11.779 12.2876 11.7941 12.5783 11.7667 12.8629C12.13 12.5368 12.3884 12.5535 12.6425 12.5838C12.2853 12.6449 12.0676 12.867 12 13.2622C12.3747 13.0271 12.6544 13.0837 12.9269 13.1622C12.609 13.1561 12.3306 13.2775 12.1457 13.7005C12.5482 13.5552 12.8284 13.6388 13.0691 13.7962C12.7685 13.7328 12.4748 13.7688 12.2054 14.1587C12.6135 14.0991 12.8631 14.2493 13.0789 14.4444C12.8144 14.329 12.53 14.2972 12.1614 14.6189C12.5036 14.6513 12.7769 14.7926 12.9564 15.0823C12.7125 14.8892 12.4147 14.8385 12.0138 15.0592C12.4369 15.1694 12.59 15.4192 12.7133 15.6845C12.5422 15.4904 12.3537 15.3117 11.7863 15.4624C12.1612 15.6534 12.2821 15.9214 12.339 16.2114C12.1826 15.8945 11.8909 15.7644 11.4794 15.8014C11.8016 16.0899 11.8805 16.3654 11.8573 16.6435C11.7809 16.3416 11.5657 16.1434 11.122 16.0829C11.3804 16.4191 11.3728 16.7055 11.3086 16.9896C11.2916 16.5824 11.0399 16.3965 10.6993 16.2762C10.865 16.59 10.8459 16.8937 10.7074 17.2001C10.7435 16.8706 10.6238 16.5923 10.2519 16.3814C10.3212 16.6871 10.3027 16.982 10.0583 17.2771C10.2149 16.9027 10.0425 16.6333 9.79317 16.3785C9.78933 16.6927 9.71968 16.9907 9.41376 17.2311C9.62869 16.8838 9.54048 16.5797 9.34165 16.2915C9.28437 16.5776 9.16373 16.8455 8.79723 17.0433C9.06709 16.7401 9.06048 16.4271 8.91563 16.1091C8.78795 16.3589 8.66635 16.6113 8.23179 16.7281C8.60757 16.4515 8.59211 16.1485 8.53685 15.8426C8.35968 16.084 8.144 16.2842 7.7536 16.2977C8.01536 16.1825 8.22891 15.9974 8.22592 15.4997C8.01536 15.7028 7.75979 15.8476 7.35019 15.7926C7.7248 15.7297 7.91861 15.4769 7.99659 15.1024C7.72171 15.2742 7.4192 15.3258 7.07755 15.2082C7.48149 15.2163 7.70389 14.9908 7.84885 14.666C7.55616 14.759 7.25685 14.7954 6.92736 14.5722C7.25579 14.6609 7.54624 14.5498 7.79296 14.2078C7.488 14.2372 7.18955 14.2108 6.92139 13.924C7.24672 14.0943 7.55083 14.0335 7.84683 13.7514C7.51541 13.7247 7.23211 13.5965 7.03413 13.288C7.34965 13.5279 7.66517 13.5049 7.98069 13.3072C7.63872 13.2265 7.40821 13.0233 7.28907 12.6977C7.51232 12.9599 7.81024 13.0466 8.20416 12.9079C7.84747 12.7189 7.71083 12.4577 7.65749 12.1651C7.84949 12.5229 8.16555 12.6096 8.51605 12.565C8.26101 12.356 8.11253 12.0942 8.13173 11.7296C8.23349 12.099 8.52235 12.2605 8.88352 12.2898C8.71381 12.0888 8.58731 11.8606 8.68149 11.3885C8.68757 11.7679 8.92843 11.9703 9.29749 12.0979C9.16405 11.8269 9.09504 11.5373 9.28949 11.1726C9.22528 11.546 9.42507 11.8018 9.74827 12.0025C9.67563 11.7005 9.68448 11.3965 9.92939 11.0869L9.92907 11.0873Z" fill="#FCDD09"/>
</g>
</g>
<defs>
<clipPath id="clip0_1_482195">
<rect width="20" height="20" fill="white"/>
</clipPath>
</defs>
</svg>
