<svg width="20" height="20" viewBox="0 0 20 20" fill="none" xmlns="http://www.w3.org/2000/svg">
<g clip-path="url(#clip0_1_482554)">
<rect width="20.0001" height="20" rx="10" fill="white"/>
<path d="M20.0001 0H0V20H20.0001V0Z" fill="white"/>
<path d="M19.9999 14.4443H-0.000152588V19.9999H19.9999V14.4443Z" fill="#27A536"/>
<path d="M20.0001 0H0V5.55556H20.0001V0Z" fill="#F59D44"/>
<path d="M9.53622 6.47426C7.58953 6.73027 6.21852 8.51677 6.47524 10.4635C6.73125 12.4101 8.51776 13.7811 10.4644 13.5244C12.4111 13.2684 13.7821 11.4819 13.5254 9.53523C13.2694 7.58855 11.4829 6.21755 9.53622 6.47426ZM10.4064 13.0837C8.70313 13.3083 7.13976 12.1087 6.91592 10.4054C6.69138 8.70214 7.89101 7.13878 9.59428 6.91494C11.2975 6.6904 12.8609 7.89003 13.0848 9.59329C13.3093 11.2965 12.1097 12.8599 10.4064 13.0837Z" fill="#2D1C67"/>
<path d="M9.91911 9.3833C9.57846 9.42807 9.33853 9.74074 9.3833 10.0814C9.42807 10.422 9.74074 10.662 10.0814 10.6172C10.422 10.5724 10.662 10.2598 10.6172 9.91911C10.5724 9.57846 10.2598 9.33854 9.91911 9.3833Z" fill="#2D1C67"/>
<path d="M9.59473 6.91504L9.94377 8.7519L9.95427 9.64725L9.73253 8.77988L9.59473 6.91504Z" fill="#2D1C67"/>
<path d="M10.4064 13.0838L10.0567 11.2469L10.0469 10.3516L10.2686 11.2189L10.4064 13.0838Z" fill="#2D1C67"/>
<path d="M8.80957 7.125L9.62238 8.80937L9.86441 9.67114L9.42582 8.89051L8.80957 7.125Z" fill="#2D1C67"/>
<path d="M11.1909 12.8743L10.378 11.1906L10.1367 10.3281L10.5753 11.1088L11.1909 12.8743Z" fill="#2D1C67"/>
<path d="M8.10645 7.53125L9.32706 8.94702L9.78383 9.71716L9.15778 9.07712L8.10645 7.53125Z" fill="#2D1C67"/>
<path d="M11.8942 12.4672L10.6729 11.0514L10.2168 10.2812L10.8421 10.9213L11.8942 12.4672Z" fill="#2D1C67"/>
<path d="M7.1259 8.80859L8.89142 9.42484L9.67206 9.86343L8.80958 9.6221L7.1259 8.80859Z" fill="#2D1C67"/>
<path d="M12.8746 11.1906L11.1097 10.5743L10.3291 10.1357L11.1909 10.3771L12.8746 11.1906Z" fill="#2D1C67"/>
<path d="M6.91602 9.59375L8.78017 9.73155L9.64754 9.95329L8.75289 9.9435L6.91602 9.59375Z" fill="#2D1C67"/>
<path d="M13.0857 10.4054L11.2209 10.2676L10.3535 10.0459L11.2489 10.0564L13.0857 10.4054Z" fill="#2D1C67"/>
<path d="M7.12598 11.1906L8.80966 10.3771L9.67213 10.1357L8.8915 10.5743L7.12598 11.1906Z" fill="#2D1C67"/>
<path d="M12.8745 8.80859L11.1908 9.6221L10.3291 9.86343L11.1097 9.42484L12.8745 8.80859Z" fill="#2D1C67"/>
<path d="M7.53223 11.8932L8.948 10.6726L9.71815 10.2158L9.07811 10.8419L7.53223 11.8932Z" fill="#2D1C67"/>
<path d="M12.4691 8.10547L11.0533 9.32678L10.2832 9.78285L10.9232 9.1575L12.4691 8.10547Z" fill="#2D1C67"/>
<path d="M8.80957 12.8733L9.42582 11.1078L9.86441 10.3271L9.62238 11.1896L8.80957 12.8733Z" fill="#2D1C67"/>
<path d="M11.1909 7.125L10.5753 8.89051L10.1367 9.67114L10.378 8.80937L11.1909 7.125Z" fill="#2D1C67"/>
<path d="M9.59473 13.0838L9.73253 11.2189L9.95427 10.3516L9.94377 11.2469L9.59473 13.0838Z" fill="#2D1C67"/>
<path d="M10.4064 6.91504L10.2686 8.77988L10.0469 9.64725L10.0567 8.7519L10.4064 6.91504Z" fill="#2D1C67"/>
<path d="M13.0857 9.59375L11.2489 9.9435L10.3535 9.95329L11.2209 9.73155L13.0857 9.59375Z" fill="#2D1C67"/>
<path d="M6.91594 10.4054L8.75281 10.0564L9.64746 10.0459L8.78009 10.2676L6.91594 10.4054Z" fill="#2D1C67"/>
<path d="M12.4691 11.8932L10.9232 10.8419L10.2832 10.2158L11.0533 10.6726L12.4691 11.8932Z" fill="#2D1C67"/>
<path d="M7.53223 8.10547L9.07811 9.1575L9.71815 9.78285L8.948 9.32678L7.53223 8.10547Z" fill="#2D1C67"/>
<path d="M8.10645 12.4672L9.15778 10.9213L9.78383 10.2812L9.32706 11.0514L8.10645 12.4672Z" fill="#2D1C67"/>
<path d="M11.8941 7.53125L10.8421 9.07712L10.2167 9.71716L10.6728 8.94702L11.8941 7.53125Z" fill="#2D1C67"/>
<path d="M9.15522 6.84424C9.07198 6.86662 9.02301 6.95196 9.0454 7.0345C9.06778 7.11774 9.15312 7.16671 9.23566 7.14432C9.3182 7.12194 9.36786 7.0366 9.34548 6.95406C9.3231 6.87152 9.23776 6.82186 9.15522 6.84424Z" fill="#2D1C67"/>
<path d="M10.7656 12.855C10.6824 12.8774 10.6334 12.9627 10.6558 13.0452C10.6782 13.1278 10.7635 13.1774 10.8461 13.1551C10.9293 13.1327 10.9783 13.0473 10.9559 12.9648C10.9335 12.8823 10.8482 12.8326 10.7656 12.855Z" fill="#2D1C67"/>
<path d="M8.36679 7.17063C8.29264 7.2133 8.26676 7.30843 8.31013 7.38328C8.3535 7.45812 8.44793 7.48331 8.52277 7.43994C8.59762 7.39657 8.6228 7.30214 8.57943 7.22729C8.53606 7.15245 8.44163 7.12726 8.36679 7.17063Z" fill="#2D1C67"/>
<path d="M11.478 12.5592C11.4038 12.6018 11.378 12.697 11.4213 12.7718C11.464 12.8459 11.5591 12.8718 11.634 12.8285C11.7081 12.7858 11.734 12.6907 11.6906 12.6158C11.648 12.5417 11.5528 12.5158 11.478 12.5592Z" fill="#2D1C67"/>
<path d="M7.6902 7.6892C7.62935 7.75005 7.62935 7.84868 7.6902 7.90954C7.75106 7.97039 7.84969 7.97039 7.91054 7.90954C7.9714 7.84868 7.9714 7.75005 7.91054 7.6892C7.84969 7.62834 7.75106 7.62834 7.6902 7.6892Z" fill="#2D1C67"/>
<path d="M12.0906 12.0896C12.0297 12.1504 12.0297 12.2491 12.0906 12.3099C12.1514 12.3708 12.2501 12.3708 12.3109 12.3099C12.3718 12.2491 12.3718 12.1504 12.3109 12.0896C12.2501 12.0287 12.1514 12.0287 12.0906 12.0896Z" fill="#2D1C67"/>
<path d="M7.17114 8.36679C7.12848 8.44093 7.15366 8.53606 7.2278 8.57943C7.30195 8.6228 7.39708 8.59692 7.44045 8.52277C7.48312 8.44863 7.45794 8.3535 7.38379 8.31013C7.30965 8.26676 7.21451 8.29264 7.17114 8.36679Z" fill="#2D1C67"/>
<path d="M12.5598 11.4768C12.5171 11.551 12.5423 11.6461 12.6165 11.6895C12.6906 11.7328 12.7858 11.707 12.8291 11.6328C12.8725 11.5587 12.8466 11.4635 12.7725 11.4202C12.6983 11.3775 12.6032 11.4027 12.5598 11.4768Z" fill="#2D1C67"/>
<path d="M6.84522 9.15402C6.82283 9.23726 6.8725 9.32259 6.95504 9.34428C7.03758 9.36596 7.12362 9.317 7.1453 9.23446C7.16768 9.15122 7.11802 9.06588 7.03548 9.0442C6.95294 9.02251 6.8669 9.07148 6.84522 9.15402Z" fill="#2D1C67"/>
<path d="M12.856 10.7644C12.8336 10.8476 12.8832 10.9329 12.9658 10.9546C13.0483 10.9763 13.1344 10.9273 13.156 10.8448C13.1784 10.7616 13.1288 10.6762 13.0462 10.6545C12.9637 10.6329 12.8776 10.6818 12.856 10.7644Z" fill="#2D1C67"/>
<path d="M6.73364 10C6.73364 10.0861 6.80359 10.1553 6.88893 10.1553C6.97427 10.1553 7.04422 10.0854 7.04422 10C7.04422 9.91468 6.97427 9.84473 6.88893 9.84473C6.80359 9.84473 6.73364 9.91468 6.73364 10Z" fill="#2D1C67"/>
<path d="M12.956 10C12.956 10.0861 13.026 10.1553 13.1113 10.1553C13.1966 10.1553 13.2666 10.0854 13.2666 10C13.2666 9.91468 13.1966 9.84473 13.1113 9.84473C13.026 9.84473 12.956 9.91468 12.956 10Z" fill="#2D1C67"/>
<path d="M6.84526 10.845C6.86765 10.9283 6.95299 10.9773 7.03553 10.9549C7.11877 10.9325 7.16773 10.8471 7.14535 10.7646C7.12296 10.6821 7.03762 10.6324 6.95508 10.6548C6.87184 10.6772 6.82288 10.7625 6.84526 10.845Z" fill="#2D1C67"/>
<path d="M12.856 9.2347C12.8783 9.31793 12.9637 9.3669 13.0462 9.34452C13.1295 9.32213 13.1784 9.23679 13.156 9.15425C13.1337 9.07171 13.0483 9.02205 12.9658 9.04444C12.8832 9.06682 12.8336 9.15216 12.856 9.2347Z" fill="#2D1C67"/>
<path d="M7.17153 11.6333C7.2142 11.7074 7.30933 11.7333 7.38418 11.6899C7.45833 11.6473 7.48421 11.5521 7.44084 11.4773C7.39747 11.4024 7.30304 11.3773 7.22819 11.4206C7.15335 11.464 7.12816 11.5584 7.17153 11.6333Z" fill="#2D1C67"/>
<path d="M12.5603 8.5218C12.603 8.59594 12.6981 8.62182 12.7729 8.57846C12.8478 8.53509 12.873 8.44066 12.8296 8.36581C12.7869 8.29166 12.6918 8.26578 12.6169 8.30915C12.5421 8.35252 12.5169 8.44695 12.5603 8.5218Z" fill="#2D1C67"/>
<path d="M7.69017 12.3099C7.75103 12.3708 7.84966 12.3708 7.91051 12.3099C7.97137 12.2491 7.97137 12.1504 7.91051 12.0896C7.84966 12.0287 7.75103 12.0287 7.69017 12.0896C7.62932 12.1504 7.62932 12.2491 7.69017 12.3099Z" fill="#2D1C67"/>
<path d="M12.0906 7.90954C12.1514 7.97039 12.2501 7.97039 12.3109 7.90954C12.3718 7.84868 12.3718 7.75005 12.3109 7.6892C12.2501 7.62834 12.1514 7.62834 12.0906 7.6892C12.0297 7.75005 12.0297 7.84868 12.0906 7.90954Z" fill="#2D1C67"/>
<path d="M8.36679 12.8281C8.44093 12.8708 8.53606 12.8456 8.57943 12.7715C8.6228 12.6973 8.59692 12.6022 8.52277 12.5588C8.44863 12.5162 8.3535 12.5414 8.31013 12.6155C8.26676 12.6896 8.29264 12.7848 8.36679 12.8281Z" fill="#2D1C67"/>
<path d="M11.478 7.43947C11.5521 7.48214 11.6473 7.45696 11.6906 7.38281C11.734 7.30867 11.7081 7.21354 11.634 7.17017C11.5598 7.1275 11.4647 7.15268 11.4213 7.22683C11.378 7.30097 11.4038 7.3961 11.478 7.43947Z" fill="#2D1C67"/>
<path d="M9.15493 13.1551C9.23817 13.1774 9.32351 13.1278 9.3452 13.0452C9.36758 12.962 9.31792 12.8767 9.23537 12.855C9.15214 12.8326 9.0668 12.8823 9.04511 12.9648C9.02343 13.0473 9.07239 13.1334 9.15493 13.1551Z" fill="#2D1C67"/>
<path d="M10.7653 7.14408C10.8486 7.16647 10.9339 7.1168 10.9556 7.03426C10.978 6.95102 10.9283 6.86569 10.8458 6.844C10.7632 6.82232 10.6772 6.87128 10.6555 6.95382C10.6338 7.03636 10.6828 7.1224 10.7653 7.14408Z" fill="#2D1C67"/>
<path d="M10.001 13.2666C10.087 13.2666 10.1563 13.1967 10.1563 13.1113C10.1563 13.026 10.0863 12.9561 10.001 12.9561C9.91565 12.9561 9.8457 13.026 9.8457 13.1113C9.8457 13.1967 9.91565 13.2666 10.001 13.2666Z" fill="#2D1C67"/>
<path d="M10.001 7.04397C10.087 7.04397 10.1563 6.97402 10.1563 6.88869C10.1563 6.80335 10.0863 6.7334 10.001 6.7334C9.91565 6.7334 9.8457 6.80335 9.8457 6.88869C9.8457 6.97402 9.91565 7.04397 10.001 7.04397Z" fill="#2D1C67"/>
</g>
<defs>
<clipPath id="clip0_1_482554">
<rect width="20.0001" height="20" rx="10" fill="white"/>
</clipPath>
</defs>
</svg>
