<svg width="20" height="20" viewBox="0 0 20 20" fill="none" xmlns="http://www.w3.org/2000/svg">
<g clip-path="url(#clip0_1_482213)">
<path d="M8.0696 0.188477C4.15576 0.953935 1.06315 3.99846 0.224609 7.88537H8.06767V0.188477H8.0696Z" fill="white"/>
<path d="M0.217316 12.082C1.04239 15.9843 4.14462 19.0462 8.06807 19.8135V12.082H0.217316Z" fill="white"/>
<path d="M12.2815 19.7366C16.0376 18.8596 18.9802 15.867 19.7822 12.082H12.2815V19.7366Z" fill="white"/>
<path d="M12.2815 0.265625V7.88751H19.7745C18.9629 4.11599 16.0261 1.13879 12.2815 0.265625Z" fill="white"/>
<path d="M12.282 0.26541C11.5492 0.0942398 10.7857 0 10.001 0C9.33936 0 8.69507 0.0653909 8.07001 0.18848V7.88537H0.225022C0.0788537 8.56621 0 9.27397 0 9.99904C0 10.7241 0.0750072 11.4088 0.217329 12.08H8.06808V19.8115C8.69314 19.9346 9.33744 20 9.99904 20C10.7837 20 11.5473 19.9058 12.28 19.7346V12.08H19.7807C19.9231 11.4088 19.9981 10.7126 19.9981 9.99904C19.9981 9.28551 19.9192 8.56621 19.7731 7.88537H12.28V0.26541H12.282Z" fill="#FF0000"/>
<path d="M14.711 7.4388H11.6627L10.5606 5.50977H9.82786L8.72583 7.4388H5.67746L7.20068 10.1064L5.67746 12.7739H8.72583L10.1933 15.3434L11.6627 12.7739H14.711L13.1859 10.1064L14.711 7.4388Z" fill="white"/>
<path d="M9.30133 12.5572C9.30133 12.5572 10.8149 12.4553 10.9649 12.5572V11.5186C10.9649 11.5186 11.4958 11.0494 11.7073 10.5512C11.7073 10.5512 12.1112 10.0089 12.2882 9.87424C12.2882 9.87424 12.4189 9.6146 12.2208 9.52036C12.2208 9.52036 12.092 9.45113 11.8535 9.55306L11.5323 9.96848C11.5323 9.96848 11.3688 9.98002 11.1477 10.0858V9.1184C11.1477 9.1184 11.165 9.12994 11.0977 8.96646L11.0034 7.66826C11.0034 7.66826 10.963 7.39516 10.8169 7.38747C10.8169 7.38747 10.6938 7.31438 10.588 7.4644C10.588 7.4644 10.5418 7.09705 10.286 7.11436C10.286 7.11436 9.99947 7.12206 9.97447 7.41439C9.97447 7.41439 9.80714 7.28169 9.67059 7.33938C9.53404 7.39708 9.47057 7.32977 9.43595 7.72596C9.40134 8.12215 9.41864 7.97214 9.41864 7.97214C9.41864 7.97214 8.98399 7.74327 8.97437 8.11254C8.96475 8.4818 8.90898 10.2147 8.96475 11.0628C8.96475 11.0628 9.10708 11.3763 9.28594 11.5167C9.28594 11.5167 9.25901 12.3033 9.30517 12.5553L9.30133 12.5572Z" fill="#FF0000"/>
<path d="M10.9823 12.5933L10.9534 12.5721C10.9304 12.5568 10.8361 12.5298 10.4668 12.5298C9.98026 12.5298 9.30904 12.5741 9.30327 12.576H9.28596L9.28212 12.5606C9.23788 12.3202 9.25904 11.6221 9.26288 11.5259C9.08787 11.3816 8.94939 11.0835 8.94362 11.072V11.0643C8.90708 10.5316 8.91093 9.56224 8.95131 8.18326V8.1121C8.95901 7.92362 9.07056 7.88323 9.16287 7.88323C9.25519 7.88323 9.34943 7.9217 9.39751 7.94285C9.40136 7.90247 9.40713 7.83515 9.41482 7.72553C9.44367 7.40242 9.49175 7.37549 9.59561 7.34472C9.61676 7.33895 9.63792 7.33318 9.661 7.32164C9.686 7.3101 9.71485 7.30433 9.7437 7.30433C9.83217 7.30433 9.91487 7.35241 9.95718 7.37934C10.0014 7.10431 10.2803 7.09277 10.2841 7.09277C10.2899 7.09277 10.2957 7.09277 10.3014 7.09277C10.5072 7.09277 10.5765 7.32164 10.5976 7.4178C10.6496 7.36203 10.7034 7.34857 10.7419 7.34857C10.7803 7.34857 10.8092 7.36203 10.8207 7.36588C10.9765 7.37742 11.0188 7.65052 11.0207 7.66206L11.115 8.95834C11.1708 9.09104 11.1708 9.1122 11.165 9.12181V10.0527C11.3477 9.96805 11.4862 9.95074 11.5208 9.94689L11.8401 9.53339H11.8439C11.9324 9.493 12.0151 9.47377 12.092 9.47377C12.1785 9.47377 12.2247 9.49877 12.2266 9.49877C12.2786 9.52378 12.3151 9.56224 12.3343 9.61417C12.3747 9.73149 12.3055 9.87189 12.3016 9.87766L12.2959 9.88343C12.1228 10.0142 11.7227 10.5508 11.7189 10.5566C11.5227 11.0201 11.0419 11.4663 10.9804 11.522V12.5895L10.9823 12.5933ZM8.97824 11.0605C8.99363 11.0932 9.13018 11.3759 9.29173 11.5047L9.29942 11.5105V11.5201C9.29942 11.5201 9.27442 12.274 9.31481 12.5395C9.42251 12.5318 10.0206 12.4952 10.4649 12.4952C10.7823 12.4952 10.8977 12.5144 10.9438 12.5298V11.5124L10.9496 11.5067C10.9496 11.5067 11.4785 11.0335 11.6862 10.545C11.7054 10.52 12.0901 10.0027 12.2709 9.86419C12.2805 9.84111 12.3305 9.72572 12.2997 9.6334C12.2843 9.59109 12.2555 9.56032 12.2112 9.53916C12.2112 9.53916 12.1689 9.51801 12.0939 9.51801C12.0228 9.51801 11.9458 9.53532 11.8651 9.56993L11.5419 9.98921H11.5343C11.5343 9.98921 11.3727 10.0027 11.1573 10.1065L11.1304 10.12V9.10835C11.1265 9.09297 11.115 9.05835 11.0823 8.97757V8.9718L10.9861 7.6736C10.9861 7.6736 10.9457 7.41588 10.8188 7.41011H10.8111C10.8111 7.41011 10.7842 7.3928 10.7476 7.3928C10.6957 7.3928 10.6476 7.42165 10.6072 7.47935L10.5784 7.51974L10.5726 7.47166C10.5726 7.47166 10.5284 7.13701 10.3072 7.13701C10.3014 7.13701 10.2976 7.13701 10.2918 7.13701C10.2803 7.13701 10.0206 7.14855 9.99757 7.41973L9.99372 7.45435L9.9668 7.43319C9.9668 7.43319 9.85717 7.34857 9.75139 7.34857C9.72639 7.34857 9.70331 7.35241 9.68408 7.36203C9.65907 7.37357 9.63407 7.37934 9.61484 7.38511C9.53022 7.41011 9.4879 7.42165 9.46098 7.73322C9.44944 7.85631 9.44367 7.92555 9.44175 7.96401V7.9794C9.4379 8.01209 9.43598 8.02363 9.41867 8.02363H9.41097L9.4052 8.01786C9.4052 8.01786 9.39943 8.00825 9.39943 7.98709C9.36482 7.96978 9.26096 7.92555 9.16864 7.92555C9.05709 7.92555 8.9994 7.98901 8.99555 8.11787V8.18903C8.95324 9.56417 8.95131 10.5296 8.98401 11.0624L8.97824 11.0605Z" fill="black"/>
<path d="M10.5663 9.09293H10.5298L10.5471 7.46777H10.5856L10.5663 9.09293Z" fill="black"/>
<path d="M9.98213 7.39799L9.94366 7.39844L9.96261 9.04272L10.0011 9.04227L9.98213 7.39799Z" fill="black"/>
<path d="M9.43511 7.94511L9.39667 7.94629L9.43441 9.17467L9.47286 9.17349L9.43511 7.94511Z" fill="black"/>
<path d="M10.7568 10.6355C10.7568 10.6355 10.7011 10.4489 11.1223 10.0854L11.1473 10.1143C10.7511 10.4566 10.7934 10.622 10.7934 10.624L10.7568 10.6355Z" fill="black"/>
<path d="M7.96901 3.30416L8.54792 3.35417L9.04219 3.05029H11.3193L11.7136 3.35417H12.5271L12.6925 3.73497L12.2617 4.59275C12.2617 4.59275 10.4346 4.42927 10.0692 4.27733C10.0692 4.27733 8.44983 4.66776 7.90555 4.59275C7.90555 4.59275 7.54974 3.85806 7.54974 3.62727L7.74399 3.29647L7.97094 3.30416H7.96901Z" fill="#F10A22"/>
<path d="M8.07095 4.6213C8.00556 4.6213 7.94787 4.61745 7.90171 4.61168H7.89209L7.88824 4.60014C7.87286 4.56937 7.53052 3.85969 7.53052 3.62697V3.6212L7.73246 3.27694L7.97094 3.28463L8.54408 3.33464L9.03643 3.03076H11.3251L11.7194 3.33464H12.5387L12.7137 3.7366L12.7099 3.74429L12.2733 4.61361H12.2598C12.1848 4.60591 10.4443 4.44821 10.0673 4.29819C9.96921 4.32127 8.69601 4.6213 8.07288 4.6213H8.07095ZM7.91709 4.57514C7.96133 4.58091 8.01326 4.58283 8.07095 4.58283C8.7114 4.58283 10.05 4.26165 10.0635 4.2578H10.0692H10.075C10.4173 4.40012 12.0848 4.55591 12.2502 4.56937L12.6714 3.73083L12.5137 3.36926H11.7059L11.3117 3.06538H9.04605L8.55177 3.36926L7.9671 3.31925L7.75362 3.31348L7.56706 3.63082C7.57283 3.84622 7.8767 4.48859 7.91709 4.57322V4.57514Z" fill="black"/>
<path d="M12.5736 3.48523V3.90065C12.5736 3.90065 11.987 3.88142 12.4082 4.31607C12.4082 4.31607 11.912 4.92767 11.7043 4.13144C11.7043 4.13144 11.9409 4.16606 11.9601 3.97566C11.9601 3.97566 11.9986 3.80641 11.762 3.76794C11.762 3.76794 11.8755 3.48523 11.5928 3.41791C11.5928 3.41791 11.3908 3.38906 11.3966 3.71986C11.3966 3.71986 11.11 3.65447 11.0735 3.8718C11.0735 3.8718 11.0543 4.03912 11.3101 4.09682C11.3101 4.09682 10.6965 4.83536 10.2888 3.93719C10.2888 3.93719 10.6042 4.03143 10.6023 3.76794C10.6023 3.76794 10.5908 3.56023 10.2888 3.57947V2.89863C10.2888 2.89863 10.3542 2.75631 10.3542 2.69092H9.88108C9.88108 2.75631 9.94647 2.89863 9.94647 2.89863V3.57947C9.64451 3.56023 9.6349 3.76794 9.6349 3.76794C9.6349 4.03335 9.94647 3.93719 9.94647 3.93719C9.54258 4.83536 8.93098 4.09682 8.93098 4.09682C9.18486 4.03912 9.16562 3.8718 9.16562 3.8718C9.12716 3.65447 8.84251 3.71986 8.84251 3.71986C8.85021 3.38906 8.64826 3.41791 8.64826 3.41791C8.36555 3.4833 8.47902 3.76794 8.47902 3.76794C8.24438 3.80641 8.28092 3.97566 8.28092 3.97566C8.30015 4.16414 8.53479 4.13144 8.53479 4.13144C8.32708 4.92959 7.83473 4.31607 7.83473 4.31607C8.254 3.88142 7.66932 3.90065 7.66932 3.90065V3.48523C7.28467 3.74102 7.33083 3.75064 7.33083 3.75064C7.36737 3.99681 7.48084 4.09105 7.48084 4.09105C7.46161 4.43147 7.71548 4.37377 7.71548 4.37377C7.74241 4.60072 7.83473 4.77766 7.83473 4.77766C7.88281 4.75842 9.85992 4.49301 10.1176 4.4584C10.3754 4.49301 12.3602 4.75842 12.4082 4.77766C12.4082 4.77766 12.4986 4.60072 12.5275 4.37377C12.5275 4.37377 12.7833 4.42955 12.764 4.09105C12.764 4.09105 12.8775 3.99681 12.916 3.75064C12.916 3.75064 12.9641 3.74102 12.5756 3.48523H12.5736Z" fill="#FEDF00"/>
<path d="M12.4155 4.80236L12.4001 4.79659C12.3501 4.7812 11.1403 4.6158 10.1152 4.47925C9.09399 4.6158 7.88618 4.7812 7.84002 4.79659L7.82464 4.80236L7.81694 4.7889C7.81694 4.7889 7.7304 4.6158 7.69962 4.39655C7.66116 4.4004 7.58423 4.39655 7.52653 4.33693C7.47845 4.28693 7.45729 4.20615 7.46114 4.09845C7.43422 4.07344 7.34767 3.97343 7.31305 3.76188L7.3092 3.75034C7.30536 3.73495 7.29959 3.70418 7.65731 3.46762L7.68616 3.44838V3.88112C7.7554 3.88112 7.9458 3.89458 7.99196 4.00421C8.02466 4.08114 7.9785 4.18499 7.85733 4.31578C7.89772 4.36193 8.04966 4.52156 8.2016 4.52156C8.33622 4.52156 8.43816 4.39655 8.50739 4.1523C8.50163 4.1523 8.49778 4.1523 8.49201 4.1523C8.35546 4.1523 8.27083 4.08883 8.25929 3.97728C8.25929 3.97728 8.24583 3.90997 8.28814 3.84842C8.32084 3.80034 8.37469 3.76957 8.45162 3.75226C8.43816 3.70995 8.417 3.60994 8.46316 3.52339C8.49586 3.46185 8.55548 3.41954 8.64202 3.39838C8.64202 3.39838 8.64972 3.39838 8.65741 3.39838C8.67857 3.39838 8.73626 3.40415 8.78242 3.45223C8.83243 3.50416 8.85743 3.58494 8.85935 3.69841C8.87666 3.69649 8.90359 3.69264 8.93436 3.69264C9.07476 3.69264 9.1613 3.75611 9.18246 3.86958C9.18246 3.8715 9.19785 4.04075 8.96321 4.10806C9.02475 4.17538 9.22285 4.36386 9.44018 4.36386C9.62481 4.36386 9.78252 4.22923 9.90945 3.96574C9.88637 3.96959 9.85753 3.97343 9.82483 3.97343C9.75367 3.97343 9.69982 3.9542 9.66328 3.91766C9.62866 3.88304 9.61135 3.83304 9.61135 3.76765C9.61135 3.7638 9.62481 3.55032 9.92292 3.55801V2.90218C9.91138 2.8791 9.85752 2.75409 9.85752 2.69062V2.67139H10.3691V2.69062C10.3691 2.75409 10.3133 2.8791 10.3037 2.90218V3.55801C10.6038 3.55032 10.6172 3.7638 10.6172 3.76572C10.6172 3.83111 10.5999 3.88112 10.5653 3.91574C10.5287 3.95228 10.4749 3.97151 10.4037 3.97151C10.371 3.97151 10.3403 3.96767 10.3191 3.96382C10.446 4.22923 10.6057 4.36193 10.7922 4.36193C11.0115 4.36193 11.2096 4.17153 11.2711 4.10614C11.0346 4.03883 11.0519 3.86958 11.0519 3.86766C11.0711 3.75226 11.1596 3.69072 11.3 3.69072C11.3307 3.69072 11.3577 3.69456 11.375 3.69649C11.375 3.58494 11.4019 3.50224 11.4519 3.45223C11.5 3.40415 11.5558 3.39838 11.5788 3.39838C11.5885 3.39838 11.5923 3.39838 11.5923 3.39838C11.6808 3.41954 11.7423 3.46185 11.775 3.52339C11.8193 3.60994 11.7981 3.70802 11.7866 3.75226C11.8635 3.76765 11.9173 3.80034 11.95 3.84842C11.9923 3.91189 11.9789 3.97728 11.9789 3.9792C11.9673 4.08883 11.8827 4.1523 11.7462 4.1523C11.7404 4.1523 11.7346 4.1523 11.7308 4.1523C11.8 4.39848 11.902 4.52156 12.0385 4.52156C12.1924 4.52156 12.3424 4.36386 12.3847 4.31578C12.2616 4.18692 12.2174 4.08114 12.2501 4.00421C12.2962 3.89266 12.4866 3.88112 12.5578 3.8792V3.44838L12.5866 3.46762C12.9463 3.70418 12.9405 3.73303 12.9367 3.75034L12.9328 3.7638C12.8982 3.97343 12.8097 4.07152 12.7847 4.09652C12.7886 4.20423 12.7674 4.28308 12.7193 4.33501C12.6636 4.39463 12.5847 4.39655 12.5462 4.39463C12.5155 4.61196 12.4308 4.77928 12.4289 4.78697L12.4212 4.80236H12.4155ZM10.1152 4.44079H10.1172C10.6191 4.5081 12.2058 4.72158 12.3962 4.7562C12.4174 4.71197 12.4847 4.55811 12.5078 4.37155V4.35039L12.5309 4.35424C12.5309 4.35424 12.5462 4.35809 12.5655 4.35809C12.6001 4.35809 12.6501 4.35039 12.6886 4.31001C12.7309 4.26577 12.7482 4.19269 12.7443 4.09075V4.08114L12.752 4.07537C12.752 4.07537 12.8597 3.98113 12.8963 3.74649C12.8867 3.73303 12.8367 3.6811 12.5943 3.51954V3.91958H12.5655C12.5251 3.91958 12.3251 3.92343 12.2847 4.01959C12.2578 4.08306 12.3058 4.18115 12.4251 4.30231L12.4366 4.31385L12.4251 4.32731C12.4174 4.33693 12.2347 4.55811 12.0385 4.55811C11.8789 4.55811 11.7616 4.41579 11.6885 4.13499L11.6808 4.10806L11.7096 4.11191C11.7096 4.11191 11.725 4.11383 11.7481 4.11383C11.8154 4.11383 11.9308 4.0946 11.9423 3.97343C11.9423 3.97151 11.9539 3.91766 11.9193 3.86958C11.8904 3.82727 11.8366 3.79842 11.7596 3.78688L11.7366 3.78303L11.7442 3.76188C11.7442 3.76188 11.7923 3.63879 11.7442 3.54262C11.7173 3.4907 11.6654 3.45415 11.5885 3.43685C11.5885 3.43685 11.5865 3.43685 11.5808 3.43685C11.5596 3.43685 11.5173 3.44261 11.4808 3.47916C11.4346 3.52531 11.4134 3.60802 11.4154 3.71956V3.74457L11.3923 3.7388C11.3923 3.7388 11.3519 3.72918 11.3019 3.72918C11.2173 3.72918 11.1115 3.75418 11.0903 3.87343C11.0903 3.87919 11.0788 4.02344 11.3115 4.07729L11.3423 4.08498L11.3231 4.10806C11.3134 4.1196 11.0769 4.4004 10.7942 4.4004C10.5845 4.4004 10.4076 4.24654 10.271 3.94459L10.2537 3.90612L10.2941 3.91766C10.2941 3.91766 10.348 3.93305 10.4076 3.93305C10.4672 3.93305 10.5134 3.91766 10.5422 3.88881C10.5691 3.86189 10.5826 3.81957 10.5826 3.76572C10.5826 3.75995 10.5691 3.57724 10.2903 3.59455H10.2691V2.88679C10.2845 2.85217 10.323 2.76178 10.3326 2.70601H9.90176C9.90945 2.76178 9.94792 2.85217 9.96523 2.88679V2.89449V3.59455H9.94407C9.66712 3.57532 9.65174 3.75803 9.65174 3.7638C9.65174 3.81765 9.6652 3.85804 9.69212 3.88496C9.72097 3.91381 9.76713 3.9292 9.82675 3.9292C9.88637 3.9292 9.9383 3.91381 9.94023 3.91381L9.98061 3.90227L9.9633 3.94074C9.82675 4.24269 9.65174 4.39655 9.4421 4.39655C9.1613 4.39655 8.92474 4.11576 8.91513 4.10422L8.89589 4.08114L8.92667 4.07344C9.15938 4.01959 9.14784 3.87535 9.14784 3.86766C9.12669 3.74841 9.02283 3.72341 8.93821 3.72341C8.8882 3.72341 8.84974 3.73303 8.84974 3.73303L8.82666 3.7388V3.71379C8.8305 3.60032 8.80742 3.51954 8.76127 3.47339C8.72472 3.43684 8.68434 3.43108 8.66318 3.43108C8.65741 3.43108 8.65549 3.43108 8.65356 3.43108C8.58048 3.44838 8.52855 3.483 8.50163 3.53493C8.45162 3.63109 8.4997 3.75226 8.50163 3.75418L8.50932 3.77534L8.48624 3.77919C8.40931 3.79072 8.35546 3.81957 8.32661 3.86189C8.29391 3.91189 8.30353 3.96382 8.30353 3.96382C8.31699 4.08883 8.43046 4.10614 8.49778 4.10614C8.52086 4.10614 8.53624 4.10422 8.53624 4.10422L8.56509 4.10037L8.5574 4.1273C8.48432 4.40809 8.367 4.55041 8.20929 4.55041C8.01312 4.55041 7.83233 4.32924 7.82464 4.31962L7.81502 4.30616L7.82656 4.29462C7.94388 4.17345 7.99196 4.07537 7.96504 4.0119C7.92465 3.91574 7.72463 3.90997 7.68424 3.90997H7.65539V3.50993C7.41306 3.67148 7.36498 3.72149 7.35344 3.73687C7.38998 3.97151 7.49576 4.06383 7.49768 4.06575L7.50538 4.07152V4.08114C7.49961 4.18307 7.51884 4.25615 7.55923 4.30039C7.59769 4.34078 7.64577 4.34847 7.68039 4.34847C7.70155 4.34847 7.71501 4.34462 7.71501 4.34462L7.73617 4.34078V4.36193C7.76117 4.54849 7.82848 4.70235 7.84964 4.74659C8.03043 4.71197 9.48057 4.51579 10.1191 4.43117H10.121L10.1152 4.44079Z" fill="black"/>
<path d="M12.2646 5.46961C12.2646 5.46961 12.3704 5.1542 12.405 4.77916C12.405 4.77916 11.3876 4.49452 10.1433 4.45605C10.1433 4.45605 8.59505 4.52529 7.90267 4.77339C7.90267 4.77339 7.81613 4.86956 7.96037 5.46961C7.96037 5.46961 10.176 5.17343 12.2646 5.46961Z" fill="#FEDF00"/>
<path d="M7.94694 5.49047L7.9431 5.47316C7.80077 4.8808 7.87963 4.77117 7.88924 4.76155L7.89694 4.75578C8.58354 4.50961 10.1279 4.43652 10.1433 4.43652C11.378 4.47307 12.4012 4.75771 12.4108 4.75963L12.4262 4.76348V4.77886C12.3916 5.1539 12.2839 5.47124 12.2839 5.47316L12.2781 5.48855H12.2627C11.6473 5.39815 10.9607 5.35392 10.2202 5.35392C8.9605 5.35392 7.97194 5.4847 7.96233 5.4847H7.94502L7.94694 5.49047ZM7.91617 4.7904C7.90655 4.81156 7.85655 4.94426 7.97579 5.45008C8.11234 5.43277 9.04897 5.3193 10.2202 5.3193C10.9549 5.3193 11.6377 5.36354 12.2512 5.45008C12.2724 5.38469 12.3551 5.11159 12.3839 4.79425C12.2531 4.75963 11.2876 4.51153 10.1414 4.47691C10.1279 4.47691 8.597 4.54807 7.91425 4.79233L7.91617 4.7904Z" fill="black"/>
<path d="M12.0861 5.09276L12.2996 5.262C12.2996 5.262 12.7246 5.22161 12.4054 4.96582L12.0861 5.09276Z" fill="#F10A22"/>
<path d="M12.2957 5.28091L12.0496 5.08666L12.4092 4.94434L12.4169 4.95203C12.5169 5.03281 12.5573 5.10012 12.5381 5.15974C12.5073 5.25975 12.3227 5.28091 12.3015 5.28283H12.2938L12.2957 5.28091ZM12.1246 5.09627L12.3073 5.24052C12.3631 5.23475 12.4861 5.20782 12.5035 5.14628C12.515 5.10589 12.4804 5.05012 12.4015 4.98472L12.1226 5.09627H12.1246Z" fill="black"/>
<path d="M8.18153 5.08494L7.9392 4.95801C7.9392 4.95801 7.52955 5.07725 7.89304 5.26958L8.18153 5.08494Z" fill="#F10A22"/>
<path d="M7.89307 5.29043L7.88345 5.28466C7.76998 5.22504 7.71805 5.16542 7.72382 5.10388C7.73536 5.00002 7.9123 4.94425 7.93346 4.93848H7.94115L8.22002 5.0808L7.89307 5.28851V5.29043ZM7.9373 4.97694C7.88538 4.99425 7.76806 5.04426 7.76229 5.10772C7.75844 5.15004 7.80267 5.19812 7.89114 5.2462L8.14309 5.08464L7.9373 4.97694Z" fill="black"/>
<path d="M10.5987 4.88301C10.5987 4.9984 10.3948 5.09072 10.1448 5.09072C9.89475 5.09072 9.69089 4.9984 9.69089 4.88301C9.69089 4.76761 9.89475 4.67529 10.1448 4.67529C10.3948 4.67529 10.5987 4.76761 10.5987 4.88301Z" fill="#F10A22"/>
<path d="M10.1433 5.10965C9.87785 5.10965 9.67014 5.00964 9.67014 4.88271C9.67014 4.75577 9.87785 4.65576 10.1433 4.65576C10.4087 4.65576 10.6164 4.75577 10.6164 4.88271C10.6164 5.00964 10.4087 5.10965 10.1433 5.10965ZM10.1433 4.69423C9.9067 4.69423 9.7086 4.78077 9.7086 4.88271C9.7086 4.98464 9.90862 5.07119 10.1433 5.07119C10.3779 5.07119 10.5779 4.98464 10.5779 4.88271C10.5779 4.78077 10.3779 4.69423 10.1433 4.69423Z" fill="black"/>
<path d="M11.6412 5.01076C11.622 5.11077 11.4951 5.17039 11.3585 5.14346C11.222 5.11654 11.1258 5.0146 11.145 4.91652C11.1643 4.81651 11.2912 4.75689 11.4277 4.78381C11.5643 4.81074 11.6605 4.91267 11.6412 5.01076Z" fill="#F10A22"/>
<path d="M11.4217 5.16893C11.3986 5.16893 11.3755 5.16701 11.3543 5.16316C11.2832 5.1497 11.2216 5.117 11.1793 5.07085C11.1351 5.02276 11.1159 4.96699 11.1255 4.91314C11.1428 4.82274 11.2409 4.75928 11.362 4.75928C11.3851 4.75928 11.4082 4.7612 11.4293 4.76505C11.5005 4.77851 11.562 4.81121 11.6044 4.85736C11.6486 4.90545 11.6678 4.96122 11.6563 5.01507C11.639 5.10546 11.5428 5.16893 11.4197 5.16893H11.4217ZM11.362 4.79582C11.2582 4.79582 11.1774 4.84582 11.162 4.91891C11.1543 4.96122 11.1697 5.00545 11.2062 5.04392C11.2447 5.08431 11.2986 5.11316 11.362 5.1247C11.3832 5.12854 11.4024 5.13047 11.4236 5.13047C11.5274 5.13047 11.6101 5.07854 11.6236 5.00738C11.6313 4.96507 11.6159 4.92083 11.5794 4.88237C11.5428 4.84198 11.487 4.81313 11.4236 4.80159C11.4043 4.79774 11.3832 4.79582 11.362 4.79582Z" fill="black"/>
<path d="M9.03589 4.8885C9.06666 4.98466 8.98396 5.09813 8.85125 5.14045C8.71855 5.18276 8.58584 5.13852 8.55507 5.04044C8.5243 4.94235 8.607 4.8308 8.7397 4.78849C8.87241 4.74618 9.00512 4.79041 9.03589 4.8885Z" fill="#F10A22"/>
<path d="M8.74933 5.1751C8.64355 5.1751 8.56085 5.1251 8.53585 5.04624C8.50315 4.94046 8.59162 4.81737 8.73394 4.77122C8.76856 4.75968 8.8051 4.75391 8.83972 4.75391C8.9455 4.75391 9.0282 4.80391 9.0532 4.88276C9.0859 4.98854 8.99743 5.11356 8.85511 5.15779C8.82049 5.16933 8.78395 5.1751 8.74933 5.1751ZM8.83972 4.79237C8.80895 4.79237 8.77625 4.79814 8.74548 4.80776C8.62239 4.84622 8.54546 4.94816 8.57239 5.0347C8.59162 5.09625 8.66086 5.13664 8.74933 5.13664C8.7801 5.13664 8.81279 5.13087 8.84357 5.12125C8.96666 5.08278 9.04359 4.98085 9.01666 4.8943C8.99743 4.83276 8.92819 4.79237 8.83972 4.79237Z" fill="black"/>
<path d="M12.2093 5.43097C12.2093 5.43097 11.7708 5.28864 10.2245 5.26172C10.2245 5.26172 10.2091 5.26172 10.1995 5.26172C10.1918 5.26172 10.1841 5.26172 10.1764 5.26172C8.56468 5.29057 8.10694 5.43289 8.10694 5.43289C7.64728 5.69638 8.10694 5.94255 8.10694 5.94255C8.10694 5.94255 9.31283 5.70022 10.1764 5.72715C10.1764 5.72715 10.1918 5.72715 10.1995 5.72715C10.2071 5.72715 10.2168 5.72715 10.2245 5.72715C11.0534 5.6983 12.2112 5.94063 12.2112 5.94063C12.2112 5.94063 12.6516 5.69445 12.2112 5.43097H12.2093Z" fill="#FEDF00"/>
<path d="M12.2131 5.96149H12.2054C12.1938 5.95764 11.0591 5.723 10.2417 5.74416L10.2225 5.74608H10.1994H10.1571V5.74224C9.30896 5.72108 8.1223 5.95572 8.11076 5.95764H8.10499H8.09922C8.08961 5.95379 7.88767 5.84225 7.88574 5.68261C7.88574 5.58645 7.9569 5.49606 8.09922 5.41336C8.1223 5.40566 8.57812 5.26911 10.159 5.24219H10.1783H10.2013H10.2437C11.7611 5.27104 12.1977 5.40759 12.2169 5.41336C12.3592 5.49798 12.4285 5.58837 12.4266 5.68454C12.4246 5.84417 12.2285 5.95379 12.2208 5.95764L12.215 5.96149H12.2131ZM10.1879 5.28065H10.1783C8.59158 5.30758 8.12038 5.44798 8.11461 5.4499C7.98767 5.52298 7.92228 5.60184 7.92421 5.68454C7.92421 5.80763 8.07999 5.90379 8.11269 5.92302C8.20693 5.90379 9.23395 5.70569 10.0398 5.70569C10.0879 5.70569 10.134 5.70569 10.1783 5.70762H10.1975H10.2013H10.2148H10.2244C11.013 5.68261 12.1073 5.90187 12.2073 5.92302C12.2381 5.90379 12.3862 5.80763 12.3881 5.68454C12.3881 5.60376 12.3266 5.52298 12.2015 5.44798C12.2015 5.44798 11.7477 5.30758 10.2244 5.28065H10.2052H10.1994H10.186H10.1879Z" fill="black"/>
<path d="M7.25296 3.79609C7.25296 3.79609 8.60501 2.64406 10.1205 2.62482C10.1205 2.62482 11.788 2.69983 12.9593 3.79609C12.9593 3.79609 13.2055 3.75763 13.167 3.59799C13.167 3.59799 12.1861 2.52097 10.1205 2.30364C10.1205 2.30364 9.0666 2.18055 7.07217 3.54991C7.07217 3.54991 7.07217 3.71916 7.25104 3.79609H7.25296Z" fill="#FEDF00"/>
<path d="M7.25489 3.8194L7.24335 3.81555C7.05487 3.7367 7.05295 3.55976 7.05295 3.55207V3.54245L7.06064 3.53668C8.75311 2.37311 9.77436 2.28271 10.0455 2.28271C10.0936 2.28271 10.1186 2.28656 10.1206 2.28656C12.1688 2.50197 13.1689 3.57707 13.1785 3.58669L13.1824 3.59053V3.59438C13.1939 3.63669 13.1862 3.67516 13.1651 3.70785C13.1074 3.79248 12.967 3.81555 12.9612 3.81555H12.9516L12.9458 3.81171C11.7919 2.73276 10.1359 2.64621 10.1186 2.64429C8.6281 2.66352 7.27797 3.80017 7.26451 3.81171L7.25489 3.8194ZM10.1186 2.60775C10.1359 2.60775 11.8015 2.69622 12.9631 3.77709C12.9939 3.77132 13.092 3.74632 13.1324 3.6867C13.1478 3.66362 13.1535 3.63861 13.1478 3.60784C13.0824 3.5386 12.09 2.53082 10.1167 2.3231C10.1167 2.3231 10.0917 2.32118 10.0455 2.32118C9.77629 2.32118 8.7685 2.41157 7.08949 3.56168C7.09141 3.5963 7.11257 3.71362 7.2472 3.77517C7.36836 3.67516 8.6781 2.62506 10.1186 2.60582V2.60775Z" fill="black"/>
<path d="M11.1112 2.26236C11.1112 2.4143 10.9785 2.53546 10.815 2.53546C10.6515 2.53546 10.5188 2.41238 10.5188 2.26236C10.5188 2.11235 10.6515 1.98926 10.815 1.98926C10.9785 1.98926 11.1112 2.11235 11.1112 2.26236Z" fill="white"/>
<path d="M10.8135 2.5544C10.6384 2.5544 10.498 2.42362 10.498 2.26206C10.498 2.10051 10.6404 1.96973 10.8135 1.96973C10.9866 1.96973 11.1289 2.10051 11.1289 2.26206C11.1289 2.42362 10.9866 2.5544 10.8135 2.5544ZM10.8135 2.00627C10.6596 2.00627 10.5346 2.12166 10.5346 2.26206C10.5346 2.40246 10.6596 2.51786 10.8135 2.51786C10.9673 2.51786 11.0923 2.40246 11.0923 2.26206C11.0923 2.12166 10.9673 2.00627 10.8135 2.00627Z" fill="black"/>
<path d="M11.6668 2.42164C11.6668 2.58704 11.538 2.71975 11.3783 2.71975C11.2187 2.71975 11.0898 2.58704 11.0898 2.42164C11.0898 2.25624 11.2187 2.12354 11.3783 2.12354C11.538 2.12354 11.6668 2.25816 11.6668 2.42164Z" fill="white"/>
<path d="M11.3783 2.73868C11.2091 2.73868 11.0706 2.59636 11.0706 2.42134C11.0706 2.24633 11.2091 2.104 11.3783 2.104C11.5476 2.104 11.6861 2.24633 11.6861 2.42134C11.6861 2.59636 11.5476 2.73868 11.3783 2.73868ZM11.3783 2.14247C11.2302 2.14247 11.1091 2.26748 11.1091 2.42134C11.1091 2.5752 11.2302 2.70022 11.3783 2.70022C11.5264 2.70022 11.6476 2.5752 11.6476 2.42134C11.6476 2.26748 11.5264 2.14247 11.3783 2.14247Z" fill="black"/>
<path d="M12.2592 2.65831C12.2592 2.82755 12.1245 2.96603 11.9572 2.96603C11.7899 2.96603 11.6553 2.82755 11.6553 2.65831C11.6553 2.48906 11.7899 2.35059 11.9572 2.35059C12.1245 2.35059 12.2592 2.48906 12.2592 2.65831Z" fill="white"/>
<path d="M11.9587 2.98496C11.7817 2.98496 11.6394 2.8388 11.6394 2.65801C11.6394 2.47722 11.7836 2.33105 11.9587 2.33105C12.1337 2.33105 12.2799 2.47722 12.2799 2.65801C12.2799 2.8388 12.1356 2.98496 11.9587 2.98496ZM11.9587 2.36952C11.8029 2.36952 11.6759 2.49838 11.6759 2.65801C11.6759 2.81764 11.8029 2.9465 11.9587 2.9465C12.1144 2.9465 12.2414 2.81764 12.2414 2.65801C12.2414 2.49838 12.1144 2.36952 11.9587 2.36952Z" fill="black"/>
<path d="M12.768 2.94092C12.768 3.09671 12.6391 3.22364 12.4814 3.22364C12.3237 3.22364 12.1948 3.09671 12.1948 2.94092C12.1948 2.78514 12.3237 2.6582 12.4814 2.6582C12.6391 2.6582 12.768 2.78514 12.768 2.94092Z" fill="white"/>
<path d="M12.4799 3.24258C12.3106 3.24258 12.1741 3.10795 12.1741 2.94062C12.1741 2.7733 12.3106 2.63867 12.4799 2.63867C12.6491 2.63867 12.7857 2.7733 12.7857 2.94062C12.7857 3.10795 12.6491 3.24258 12.4799 3.24258ZM12.4799 2.67714C12.3318 2.67714 12.2106 2.79446 12.2106 2.94062C12.2106 3.08679 12.3318 3.20411 12.4799 3.20411C12.628 3.20411 12.7472 3.08679 12.7472 2.94062C12.7472 2.79446 12.626 2.67714 12.4799 2.67714Z" fill="black"/>
<path d="M13.2993 3.29707C13.2993 3.46439 13.1627 3.59902 12.9954 3.59902C12.8281 3.59902 12.6915 3.46439 12.6915 3.29707C12.6915 3.12975 12.8281 2.99512 12.9954 2.99512C13.1627 2.99512 13.2993 3.12975 13.2993 3.29707Z" fill="white"/>
<path d="M12.9939 3.61796C12.815 3.61796 12.6708 3.47371 12.6708 3.29677C12.6708 3.11983 12.815 2.97559 12.9939 2.97559C13.1727 2.97559 13.317 3.11983 13.317 3.29677C13.317 3.47371 13.1727 3.61796 12.9939 3.61796ZM12.9939 3.01405C12.8362 3.01405 12.7073 3.14099 12.7073 3.29677C12.7073 3.45255 12.8362 3.57949 12.9939 3.57949C13.1516 3.57949 13.2805 3.45255 13.2805 3.29677C13.2805 3.14099 13.1516 3.01405 12.9939 3.01405Z" fill="black"/>
<path d="M9.39934 2.54111C9.57141 2.54111 9.71091 2.40161 9.71091 2.22954C9.71091 2.05746 9.57141 1.91797 9.39934 1.91797C9.22726 1.91797 9.08777 2.05746 9.08777 2.22954C9.08777 2.40161 9.22726 2.54111 9.39934 2.54111Z" fill="white"/>
<path d="M9.39934 2.55809C9.21663 2.55809 9.06854 2.41 9.06854 2.22729C9.06854 2.04458 9.21663 1.89648 9.39934 1.89648C9.58205 1.89648 9.73014 2.04458 9.73014 2.22729C9.73014 2.41 9.58205 2.55809 9.39934 2.55809ZM9.39934 1.93495C9.23779 1.93495 9.10701 2.06573 9.10701 2.22729C9.10701 2.38884 9.23779 2.51962 9.39934 2.51962C9.5609 2.51962 9.69168 2.38884 9.69168 2.22729C9.69168 2.06573 9.5609 1.93495 9.39934 1.93495Z" fill="black"/>
<path d="M8.76615 2.69453C8.9276 2.69453 9.05849 2.56365 9.05849 2.4022C9.05849 2.24075 8.9276 2.10986 8.76615 2.10986C8.6047 2.10986 8.47382 2.24075 8.47382 2.4022C8.47382 2.56365 8.6047 2.69453 8.76615 2.69453Z" fill="white"/>
<path d="M8.76616 2.71347C8.59499 2.71347 8.45459 2.57307 8.45459 2.4019C8.45459 2.23073 8.59499 2.09033 8.76616 2.09033C8.93733 2.09033 9.07773 2.23073 9.07773 2.4019C9.07773 2.57307 8.93733 2.71347 8.76616 2.71347ZM8.76616 2.12687C8.61422 2.12687 8.49306 2.24996 8.49306 2.39998C8.49306 2.54999 8.61614 2.67308 8.76616 2.67308C8.91617 2.67308 9.03926 2.54999 9.03926 2.39998C9.03926 2.24996 8.91617 2.12687 8.76616 2.12687Z" fill="black"/>
<path d="M8.47188 2.66245C8.47188 2.82401 8.3411 2.95479 8.17954 2.95479C8.01799 2.95479 7.88721 2.82401 7.88721 2.66245C7.88721 2.5009 8.01799 2.37012 8.17954 2.37012C8.3411 2.37012 8.47188 2.5009 8.47188 2.66245Z" fill="white"/>
<path d="M8.18144 2.97372C8.01027 2.97372 7.86987 2.83332 7.86987 2.66215C7.86987 2.49098 8.01027 2.35059 8.18144 2.35059C8.35261 2.35059 8.49301 2.49098 8.49301 2.66215C8.49301 2.83332 8.35261 2.97372 8.18144 2.97372ZM8.18144 2.38905C8.03143 2.38905 7.90834 2.51214 7.90834 2.66215C7.90834 2.81217 8.03143 2.93526 8.18144 2.93526C8.33146 2.93526 8.45454 2.81217 8.45454 2.66215C8.45454 2.51214 8.33146 2.38905 8.18144 2.38905Z" fill="black"/>
<path d="M7.96029 2.96647C7.96029 3.1338 7.82374 3.27035 7.65641 3.27035C7.48909 3.27035 7.35254 3.1338 7.35254 2.96647C7.35254 2.79915 7.48909 2.6626 7.65641 2.6626C7.82374 2.6626 7.96029 2.79915 7.96029 2.96647Z" fill="white"/>
<path d="M7.65831 3.28928C7.48137 3.28928 7.33521 3.14504 7.33521 2.96617C7.33521 2.78731 7.47945 2.64307 7.65831 2.64307C7.83718 2.64307 7.9795 2.78731 7.9795 2.96617C7.9795 3.14504 7.83525 3.28928 7.65831 3.28928ZM7.65831 2.68345C7.50061 2.68345 7.37367 2.81039 7.37367 2.9681C7.37367 3.12581 7.50061 3.25274 7.65831 3.25274C7.81602 3.25274 7.94296 3.12581 7.94296 2.9681C7.94296 2.81039 7.81602 2.68345 7.65831 2.68345Z" fill="black"/>
<path d="M7.46067 3.35364C7.46067 3.50558 7.33758 3.62674 7.18564 3.62674C7.0337 3.62674 6.91254 3.50365 6.91254 3.35364C6.91254 3.20363 7.03563 3.07861 7.18564 3.07861C7.33565 3.07861 7.46067 3.2017 7.46067 3.35364Z" fill="white"/>
<path d="M7.18565 3.64619C7.02409 3.64619 6.89331 3.51541 6.89331 3.35386C6.89331 3.19231 7.02409 3.06152 7.18565 3.06152C7.3472 3.06152 7.47798 3.19231 7.47798 3.35386C7.47798 3.51541 7.3472 3.64619 7.18565 3.64619ZM7.18565 3.09807C7.04525 3.09807 6.92985 3.21346 6.92985 3.35386C6.92985 3.49426 7.04333 3.60965 7.18565 3.60965C7.32797 3.60965 7.44144 3.49426 7.44144 3.35386C7.44144 3.21346 7.32604 3.09807 7.18565 3.09807Z" fill="black"/>
<path d="M10.3868 3.04959C10.3868 3.19576 10.2675 3.315 10.1214 3.315C9.9752 3.315 9.85596 3.19576 9.85596 3.04959C9.85596 2.90342 9.9752 2.78418 10.1214 2.78418C10.2675 2.78418 10.3868 2.90342 10.3868 3.04959Z" fill="#FEDF00"/>
<path d="M10.1228 3.33253C9.96702 3.33253 9.84009 3.20559 9.84009 3.04981C9.84009 2.89402 9.96702 2.76709 10.1228 2.76709C10.2786 2.76709 10.4055 2.89402 10.4055 3.04981C10.4055 3.20559 10.2786 3.33253 10.1228 3.33253ZM10.1228 2.80363C9.98818 2.80363 9.87663 2.91326 9.87663 3.04981C9.87663 3.18636 9.98626 3.29599 10.1228 3.29599C10.2594 3.29599 10.369 3.18636 10.369 3.04981C10.369 2.91326 10.2594 2.80363 10.1228 2.80363Z" fill="black"/>
<path d="M10.6317 1.12871C10.5202 1.20179 10.4048 1.24026 10.2932 1.25757C10.3278 1.04986 10.399 0.895996 10.399 0.895996H9.84511C9.92204 1.01332 9.96243 1.1364 9.97782 1.2518C9.76433 1.21526 9.61432 1.12871 9.61432 1.12871V1.68261C9.72587 1.60953 9.84896 1.57683 9.9682 1.56529C9.92973 1.77108 9.84703 1.91532 9.84703 1.91532H10.4009C10.3317 1.80955 10.2971 1.69415 10.2836 1.57875C10.4856 1.61337 10.6317 1.68261 10.6317 1.68261V1.12871Z" fill="#FEDF00"/>
<path d="M10.434 1.93478H9.81282L9.8282 1.90593C9.8282 1.90593 9.90321 1.77322 9.94168 1.58667C9.82051 1.60205 9.71281 1.63859 9.62242 1.69822L9.59357 1.71745V1.09623L9.62242 1.11354C9.62242 1.11354 9.76089 1.1924 9.95514 1.23086C9.93591 1.11547 9.8936 1.00584 9.83013 0.907755L9.81089 0.878906H10.4302L10.4167 0.905832C10.4167 0.905832 10.3513 1.04623 10.3167 1.23663C10.4263 1.21548 10.5283 1.17509 10.6206 1.11547L10.6494 1.09623V1.71553L10.6225 1.70399C10.6225 1.70399 10.4879 1.64052 10.3033 1.6059C10.3186 1.71937 10.3571 1.8213 10.4129 1.90785L10.4321 1.9367L10.434 1.93478ZM9.87629 1.89631H10.3648C10.3109 1.804 10.2763 1.69822 10.2629 1.5809V1.55589L10.2859 1.55974C10.4398 1.58667 10.561 1.63282 10.6129 1.65398V1.16355C10.5167 1.22125 10.411 1.25971 10.2975 1.27702L10.2725 1.28087L10.2763 1.25587C10.3033 1.09623 10.3494 0.9693 10.3725 0.917371H9.88206C9.9436 1.0193 9.98207 1.13278 9.99938 1.25202L10.0032 1.27702L9.97822 1.27317C9.81667 1.24625 9.68973 1.18855 9.63588 1.16163V1.65013C9.73204 1.59436 9.84551 1.55974 9.9686 1.54628H9.9936L9.98976 1.56936C9.96091 1.72514 9.90706 1.84438 9.88013 1.89823L9.87629 1.89631Z" fill="black"/>
<path d="M10.5027 2.17179C10.5027 2.38335 10.3315 2.55452 10.12 2.55452C9.90841 2.55452 9.73724 2.38335 9.73724 2.17179C9.73724 1.96023 9.90841 1.78906 10.12 1.78906C10.3315 1.78906 10.5027 1.96023 10.5027 2.17179Z" fill="white"/>
<path d="M10.12 2.57345C9.8988 2.57345 9.71802 2.39267 9.71802 2.17149C9.71802 1.95032 9.8988 1.76953 10.12 1.76953C10.3412 1.76953 10.5219 1.95032 10.5219 2.17149C10.5219 2.39267 10.3412 2.57345 10.12 2.57345ZM10.12 1.808C9.91996 1.808 9.75648 1.97147 9.75648 2.17149C9.75648 2.37151 9.91996 2.53499 10.12 2.53499C10.32 2.53499 10.4835 2.37151 10.4835 2.17149C10.4835 1.97147 10.32 1.808 10.12 1.808Z" fill="black"/>
</g>
<defs>
<clipPath id="clip0_1_482213">
<rect width="20" height="20" fill="white"/>
</clipPath>
</defs>
</svg>
