<svg width="20" height="20" viewBox="0 0 20 20" fill="none" xmlns="http://www.w3.org/2000/svg">
<g clip-path="url(#clip0_1_482379)">
<ellipse cx="10" cy="10" rx="10" ry="10" fill="#696969"/>
<path d="M15.4732 4.86532C12.6411 1.84775 7.88308 1.69783 4.86651 4.52833C1.84867 7.3601 1.69874 12.1177 4.52949 15.1353C7.36152 18.1516 12.1196 18.3028 15.1362 15.471C18.1527 12.6393 18.3039 7.88161 15.4719 4.86532H15.4732ZM12.7885 4.30922C12.9141 4.50398 13.583 5.5675 13.8137 6.47213C13.5369 6.71046 12.2849 7.78295 11.8915 8.08791C11.5006 7.96874 10.1372 7.57153 9.00692 7.47799C8.59941 6.58361 8.21369 5.45987 8.1163 5.17156C8.91721 4.41044 9.77708 3.80949 9.96033 3.68392C10.232 3.71724 11.7531 3.91456 12.7885 4.30922ZM11.056 16.2116C10.3947 15.9784 9.23117 15.1609 8.9595 14.9662C9.09149 14.15 9.46184 12.8481 9.53488 12.5983C9.93213 12.5073 11.1136 12.1946 12.226 11.4591C12.5309 11.6539 13.5894 12.3189 14.3878 12.7328C14.3211 13.0877 14.0828 14.264 13.7227 15.0277C13.0499 15.4749 11.3341 16.1117 11.056 16.2129V16.2116ZM16.2587 10.8659C16.0703 11.0709 15.4309 11.7436 14.4916 12.5188C13.6932 12.1049 12.6283 11.4335 12.3413 11.2516C12.3336 10.8697 12.29 9.67294 12.0325 8.27883C12.431 7.96874 13.665 6.91163 13.9611 6.65793C14.2161 6.80016 15.1169 7.31782 15.9307 7.97643C15.9845 8.25192 16.2933 9.87155 16.2587 10.8672V10.8659ZM5.54441 5.54444C6.64518 5.24844 7.61653 5.24588 7.89461 5.25229C7.99841 5.55981 8.38669 6.69252 8.80316 7.59972C8.54431 7.93671 7.84591 8.89388 7.28848 10.0791C6.82843 10.1253 5.86349 10.2149 4.88573 10.2598C4.3488 9.37438 4.03612 8.23014 3.97846 8.00847C4.39109 7.05514 5.3791 5.75842 5.54441 5.54444ZM4.90239 10.4968C5.88143 10.452 6.84765 10.3623 7.31026 10.3162C7.48838 10.6263 8.03941 11.4604 9.30165 12.5483C9.21708 12.8404 8.85955 14.1026 8.72628 14.9252C7.98175 15.1097 6.69131 15.0841 6.32866 15.0725C5.33809 14.2768 4.54102 13.1159 4.40903 12.9186C4.42184 11.8256 4.79731 10.7723 4.90239 10.4981V10.4968ZM11.1482 16.4295C11.4609 16.3154 13.1089 15.7042 13.8239 15.243C13.9521 15.3083 14.2622 15.4544 14.6723 15.5659C13.5548 16.5038 12.226 17.0509 10.8599 17.2111C10.9535 16.9228 11.097 16.5576 11.1482 16.4282V16.4295ZM17.116 11.4604C16.961 11.2964 16.7175 11.0363 16.4983 10.8018C16.5176 9.78698 16.2318 8.26986 16.1677 7.94568C16.2702 7.83677 16.5394 7.5459 16.7444 7.29476C17.2762 8.62479 17.3979 10.0753 17.116 11.4591V11.4604ZM13.5446 3.65573C13.3588 3.75696 13.0743 3.91713 12.85 4.07729C11.7787 3.67495 10.2743 3.48147 9.99108 3.44687C9.83987 3.27133 9.65534 2.94586 9.55026 2.7511C10.9253 2.66653 12.3169 2.97021 13.5459 3.65573H13.5446ZM5.02926 4.70131C5.05104 4.68081 5.07539 4.66031 5.09846 4.63981C5.15612 4.9563 5.28299 5.28432 5.34065 5.42143C5.12537 5.69948 4.19118 6.9347 3.77086 7.89314C3.50432 7.94696 3.1942 8.02897 2.99558 8.08407C3.33645 6.83091 4.01562 5.65335 5.03054 4.70131H5.02926ZM4.70377 14.9726C4.14889 14.3819 3.71576 13.722 3.39667 13.0237C3.68629 13.0659 4.06944 13.0711 4.22706 13.0711C4.3488 13.253 4.7704 13.8604 5.35475 14.4844C5.58285 14.7266 5.83658 14.9713 6.10697 15.1943C6.07493 15.5159 6.05699 15.8747 6.04674 16.0963C5.56491 15.7837 5.11383 15.4108 4.70377 14.9739V14.9726Z" fill="#363636"/>
</g>
<defs>
<clipPath id="clip0_1_482379">
<rect width="20.0001" height="20" rx="10" fill="white"/>
</clipPath>
</defs>
</svg>
