<svg width="20" height="20" viewBox="0 0 20 20" fill="none" xmlns="http://www.w3.org/2000/svg">
<g clip-path="url(#clip0_1_482169)">
<rect width="20" height="20" rx="10" fill="#AF010D"/>
<path fill-rule="evenodd" clip-rule="evenodd" d="M-4 0L9.33333 9.33333H10.6667L1.33333 0H-4ZM-4 20L9.33333 10.6667H10.6667L1.33333 20H-4Z" fill="#FFDA2C"/>
<path fill-rule="evenodd" clip-rule="evenodd" d="M10.6667 9.33333H9.33333L18.6667 0H24L10.6667 9.33333ZM10.6667 10.6667H9.33333L18.6667 20H24L10.6667 10.6667ZM6.66667 9.33333L-4 8V12L6.66667 10.6667V9.33333ZM13.3333 9.33333L24 8V12L13.3333 10.6667V9.33333ZM9.33333 6.66667L8 0H12L10.6667 6.66667H9.33333ZM9.33333 13.3333L8 20H12L10.6667 13.3333" fill="#FFDA2C"/>
<path d="M9.99959 13.3337C11.8405 13.3337 13.3329 11.8413 13.3329 10.0003C13.3329 8.15938 11.8405 6.66699 9.99959 6.66699C8.15864 6.66699 6.66626 8.15938 6.66626 10.0003C6.66626 11.8413 8.15864 13.3337 9.99959 13.3337Z" fill="#AF010D"/>
<path d="M10.0005 12C11.1051 12 12.0005 11.1046 12.0005 10C12.0005 8.89543 11.1051 8 10.0005 8C8.89592 8 8.00049 8.89543 8.00049 10C8.00049 11.1046 8.89592 12 10.0005 12Z" fill="#FFDA2C"/>
</g>
<defs>
<clipPath id="clip0_1_482169">
<rect width="20" height="20" rx="10" fill="white"/>
</clipPath>
</defs>
</svg>
