<svg width="20" height="20" viewBox="0 0 20 20" fill="none" xmlns="http://www.w3.org/2000/svg">
<g clip-path="url(#clip0_1_482331)">
<path d="M21.3333 0H-1.33334C-2.8061 0 -4.00001 1.19391 -4.00001 2.66667V17.3333C-4.00001 18.8061 -2.8061 20 -1.33334 20H21.3333C22.8061 20 24 18.8061 24 17.3333V2.66667C24 1.19391 22.8061 0 21.3333 0Z" fill="white"/>
<path fill-rule="evenodd" clip-rule="evenodd" d="M-4.00001 0H5.33333V20H-4.00001V0ZM14.6667 0H24V20H14.6667V0Z" fill="#F93939"/>
<path d="M10 10.6667C10.3682 10.6667 10.6667 10.0697 10.6667 9.33333C10.6667 8.59695 10.3682 8 10 8C9.63182 8 9.33334 8.59695 9.33334 9.33333C9.33334 10.0697 9.63182 10.6667 10 10.6667Z" fill="#FFDA2C"/>
<path fill-rule="evenodd" clip-rule="evenodd" d="M13.3329 10.0003C13.3329 8.16033 11.8396 6.66699 9.99959 6.66699C8.15959 6.66699 6.66626 8.16033 6.66626 10.0003C6.66626 11.8403 8.15959 13.3337 9.99959 13.3337C11.8396 13.3337 13.3329 11.8403 13.3329 10.0003ZM9.99959 12.0003C11.1036 12.0003 11.9996 10.807 11.9996 9.33366C11.9996 7.86033 11.1036 6.66699 9.99959 6.66699C8.89559 6.66699 7.99959 7.86033 7.99959 9.33366C7.99959 10.807 8.89559 12.0003 9.99959 12.0003Z" fill="#249F58"/>
</g>
<defs>
<clipPath id="clip0_1_482331">
<rect width="20" height="20" rx="10" fill="white"/>
</clipPath>
</defs>
</svg>
