<svg width="20" height="20" viewBox="0 0 20 20" fill="none" xmlns="http://www.w3.org/2000/svg">
<g clip-path="url(#clip0_1_482117)">
<rect width="20" height="20" rx="10" fill="white"/>
<path d="M21.3333 0H-1.33333C-2.80609 0 -4 1.19391 -4 2.66667V17.3333C-4 18.8061 -2.80609 20 -1.33333 20H21.3333C22.8061 20 24 18.8061 24 17.3333V2.66667C24 1.19391 22.8061 0 21.3333 0Z" fill="white"/>
<path fill-rule="evenodd" clip-rule="evenodd" d="M3.96501 6.632C3.87701 7.42667 3.62634 8 3.33301 8C3.03967 8 2.78901 7.42667 2.70101 6.632C1.90634 6.544 1.33301 6.29333 1.33301 6C1.33301 5.70667 1.90634 5.456 2.70101 5.368C2.78901 4.57333 3.03967 4 3.33301 4C3.62634 4 3.87701 4.57333 3.96501 5.368C4.75967 5.456 5.33301 5.70667 5.33301 6C5.33301 6.29333 4.75967 6.544 3.96501 6.632Z" fill="#1A47B8"/>
<path fill-rule="evenodd" clip-rule="evenodd" d="M17.2987 15.965C17.2107 16.7597 16.96 17.333 16.6667 17.333C16.3734 17.333 16.1227 16.7597 16.0347 15.965C15.24 15.877 14.6667 15.6263 14.6667 15.333C14.6667 15.0397 15.24 14.789 16.0347 14.701C16.1227 13.9063 16.372 13.333 16.6667 13.333C16.96 13.333 17.2107 13.9063 17.2987 14.701C18.0934 14.789 18.6667 15.0383 18.6667 15.333C18.6667 15.6263 18.0934 15.877 17.2987 15.965Z" fill="#F93939"/>
<path fill-rule="evenodd" clip-rule="evenodd" d="M-4 10.6665H9.33333V19.9998H-4V10.6665Z" fill="#1A47B8"/>
<path fill-rule="evenodd" clip-rule="evenodd" d="M9.33334 0H24V10.6667H9.33334V0Z" fill="#F93939"/>
</g>
<defs>
<clipPath id="clip0_1_482117">
<rect width="20" height="20" rx="10" fill="white"/>
</clipPath>
</defs>
</svg>
