<svg width="20" height="20" viewBox="0 0 20 20" fill="none" xmlns="http://www.w3.org/2000/svg">
<g clip-path="url(#clip0_1_482287)">
<rect width="20" height="20" rx="10" fill="#1A47B8"/>
<path fill-rule="evenodd" clip-rule="evenodd" d="M-1.33301 13.333H26.667V19.9997H-1.33301V13.333Z" fill="#F93939"/>
<path fill-rule="evenodd" clip-rule="evenodd" d="M-1.33301 0H26.667V6.66667H-1.33301V0ZM11.907 13.3333H12.0003V6.66667H2.66699V13.3333H2.76033C2.69899 13.5493 2.66699 13.7733 2.66699 14C2.66699 15.84 7.33366 17.3333 7.33366 17.3333C7.33366 17.3333 12.0003 15.84 12.0003 14C12.0003 13.7733 11.9683 13.5493 11.907 13.3333Z" fill="white"/>
<path fill-rule="evenodd" clip-rule="evenodd" d="M10.6667 13.333V5.33301H4V13.333C4 14.8063 7.33333 15.9997 7.33333 15.9997C7.33333 15.9997 10.6667 14.8063 10.6667 13.333Z" fill="#F93939"/>
<path fill-rule="evenodd" clip-rule="evenodd" d="M6.66669 10.667V9.33366H5.33335V8.00033H6.66669V6.66699H8.00002V8.00033H9.33335V9.33366H8.00002V10.667H10V12.0003H8.00002V13.3337H6.66669V12.0003H4.66669V10.667H6.66669Z" fill="white"/>
<path fill-rule="evenodd" clip-rule="evenodd" d="M7.33333 16.0001C7.33333 16.0001 10.6667 14.8068 10.6667 13.3334C10.6667 11.8601 9.33333 12.0001 7.33333 13.3334C5.33333 12.0001 4 11.8601 4 13.3334C4 14.8068 7.33333 16.0001 7.33333 16.0001Z" fill="#1A47B8"/>
</g>
<defs>
<clipPath id="clip0_1_482287">
<rect width="20" height="20" rx="10" fill="white"/>
</clipPath>
</defs>
</svg>
