<svg width="20" height="21" viewBox="0 0 20 21" fill="none" xmlns="http://www.w3.org/2000/svg">
<rect y="0.237305" width="20.0001" height="20" rx="10" fill="white"/>
<path fill-rule="evenodd" clip-rule="evenodd" d="M14.6663 10.2373C14.6663 12.8146 12.5769 14.904 9.99957 14.904C7.42223 14.904 5.33289 12.8146 5.33289 10.2373C5.33289 8.74397 8.46623 8.1173 11.1036 8.3533C11.3836 8.27864 11.6849 8.2373 11.9996 8.2373C13.4729 8.2373 14.6663 9.1333 14.6663 10.2373Z" fill="#232C80"/>
<path fill-rule="evenodd" clip-rule="evenodd" d="M9.3329 9.57031C9.3329 9.57031 10.5262 8.23698 11.9996 8.23698C13.4729 8.23698 14.6663 9.13298 14.6663 10.237C14.6663 7.65965 12.5769 5.57031 9.99957 5.57031C8.1369 5.57031 6.52889 6.66098 5.78089 8.23965C5.33289 9.57031 5.33289 9.95965 5.33289 10.237C5.99956 10.9036 6.74089 10.9036 7.3329 10.9036C7.9249 10.9036 8.4569 10.6463 8.82357 10.237L9.3329 9.57031Z" fill="#F93939"/>
<path fill-rule="evenodd" clip-rule="evenodd" d="M15.9996 6.90397H18.6663L15.9996 4.2373H14.6663L15.9996 6.90397ZM3.99957 6.90397H1.33289L3.99957 4.2373H5.3329L3.99957 6.90397ZM15.9996 13.5706H18.6663L15.9996 16.2373H14.6663L15.9996 13.5706ZM3.99957 13.5706H1.33289L3.99957 16.2373H5.3329L3.99957 13.5706Z" fill="#151515"/>
</svg>
