<svg width="20" height="20" viewBox="0 0 20 20" fill="none" xmlns="http://www.w3.org/2000/svg">
<g clip-path="url(#clip0_1_482448)">
<rect width="20.0001" height="20" rx="10" fill="#005430"/>
<path fill-rule="evenodd" clip-rule="evenodd" d="M7.72352 6.58301C7.69851 6.35801 7.58185 6.26634 7.56518 6.31634H7.59851C7.58185 6.38301 7.53185 6.81634 7.55685 7.01634C7.58185 7.20801 7.78185 7.51634 8.00685 7.51634C8.14729 7.52154 8.22929 7.24754 8.28933 7.04693C8.32548 6.92613 8.35366 6.83195 8.38185 6.84134C8.43285 6.85834 8.4222 7.0333 8.41278 7.18808C8.40835 7.26094 8.40418 7.32933 8.40685 7.37467C8.41518 7.50801 8.61519 7.65801 8.80685 7.64967C8.90783 7.64089 9.0065 7.55578 9.10041 7.47477C9.18476 7.40201 9.26527 7.33256 9.34019 7.32467C9.41037 7.31729 9.44453 7.37048 9.48404 7.432C9.53367 7.50927 9.59173 7.59967 9.74019 7.59967C9.96206 7.59967 10.0397 7.44969 10.0931 7.3465C10.1039 7.32567 10.1137 7.30674 10.1235 7.29134C10.1819 7.19967 10.2985 7.18301 10.2569 7.25801C10.2152 7.32467 10.2319 7.45801 10.3485 7.43301C10.4394 7.42003 10.4949 7.25035 10.5347 7.12869C10.5459 7.09414 10.556 7.06346 10.5652 7.04134C10.5985 6.94134 10.4735 6.99134 10.4235 7.04134C10.3735 7.09134 10.2569 7.04967 10.1735 7.00801C10.1138 6.97813 10.0969 6.90114 10.0737 6.79546C10.0645 6.75374 10.0543 6.70754 10.0402 6.65801L10.0299 6.62715C9.9792 6.47608 9.96196 6.42467 10.0402 6.42467C10.0652 6.42467 10.0911 6.43673 10.1131 6.44702C10.1643 6.47095 10.1951 6.48534 10.1485 6.31634C10.0902 6.08301 9.84019 5.93301 9.78186 5.94134C9.72352 5.95801 9.46519 6.09134 9.59019 6.38301C9.61001 6.43256 9.63488 6.48812 9.66096 6.54638C9.7884 6.83109 9.94473 7.18034 9.68186 7.20801C9.37613 7.24019 9.41994 6.6199 9.43833 6.35953L9.44019 6.33301C9.45686 6.09134 9.31519 5.83301 9.22352 5.83301C9.15117 5.83959 9.11516 5.95 9.0827 6.04951L9.0827 6.04953L9.08269 6.04954L9.08269 6.04955L9.08269 6.04956L9.08268 6.04956L9.08268 6.04957C9.07403 6.07611 9.06563 6.10187 9.05685 6.12467C9.03253 6.18791 9.06216 6.30227 9.09602 6.43292C9.12016 6.52609 9.14645 6.62755 9.15686 6.72467C9.18186 6.95801 9.00685 7.24967 8.88185 7.24967C8.76519 7.24967 8.59852 7.10801 8.60685 6.88301C8.61519 6.66634 8.54852 6.19967 8.45685 6.19967C8.36518 6.19967 8.24852 6.33301 8.19018 6.44134C8.16627 6.4802 8.14021 6.58018 8.11086 6.69281L8.11085 6.69282L8.11085 6.69282C8.05837 6.89419 7.99534 7.136 7.91518 7.14134C7.79018 7.14967 7.74852 6.80801 7.72352 6.58301ZM3.75694 5.94922C3.67699 5.96376 3.72383 6.06705 3.77582 6.18168C3.78343 6.19848 3.79116 6.21551 3.79861 6.23255C3.85695 6.36589 3.88195 6.48255 3.84861 6.55755C3.81528 6.63255 3.94861 6.55755 3.98195 6.44089C4.01528 6.31589 3.98195 5.91589 3.75694 5.95755V5.94922ZM3.45644 6.64976C3.45644 6.64976 3.45944 6.64751 3.46454 6.64661C3.4321 7.352 3.56529 7.80818 3.77311 7.84143C3.94862 7.86951 3.9881 7.54275 4.0211 7.26968L4.0211 7.26968L4.0211 7.26968C4.02727 7.2186 4.03322 7.16941 4.03978 7.12476C4.08145 6.84143 4.17312 7.06643 4.17312 7.06643C4.17312 7.06643 4.15645 7.46643 4.15645 7.68309C4.15645 7.89976 4.30645 7.93309 4.46478 7.95809C4.62312 7.98309 4.62312 8.09976 4.62312 8.09976L4.65645 9.14143C4.98145 9.04143 4.89812 8.42476 4.89812 8.42476C4.89812 8.42476 4.83145 7.70809 4.93145 7.63309C5.03145 7.56643 5.27312 7.79976 5.27312 7.79976C5.27312 7.79976 5.47312 7.91643 5.69812 7.62476C5.85218 7.43219 5.76285 7.10158 5.71074 6.90875C5.68393 6.80952 5.66698 6.74677 5.69812 6.75809C5.78146 6.79143 5.78146 6.72476 5.73146 6.61643C5.68146 6.50809 5.51479 6.22476 5.34812 6.34976C5.19842 6.46794 5.36159 6.81704 5.47139 7.05197L5.48979 7.09143C5.59812 7.32476 5.45645 7.40809 5.37312 7.35809C5.29812 7.30809 5.13979 7.13309 5.13979 7.13309C5.13979 7.13309 5.23979 7.10809 5.13979 6.69976C5.03979 6.29143 4.86479 6.34976 4.86479 6.34976C4.86479 6.34976 4.78978 6.34976 4.77312 6.64976C4.76486 6.80248 4.83021 6.95929 4.88207 7.08374C4.93491 7.21054 4.97374 7.30373 4.90645 7.32476C4.77312 7.37476 4.73978 7.04143 4.72312 6.58309C4.70645 6.12476 4.61478 6.01643 4.45645 6.05809C4.28978 6.10809 4.47312 6.82476 4.48978 6.84976C4.50645 6.86643 4.64812 7.44976 4.48978 7.47476C4.33145 7.49143 4.36478 7.26643 4.36478 7.26643C4.41478 6.72476 4.26478 6.49976 4.26478 6.49976C4.26478 6.49976 4.02311 6.38309 3.91478 6.94143C3.80645 7.49976 3.78145 7.43309 3.78145 7.43309C3.68189 7.45798 3.60557 7.08798 3.55941 6.86422C3.54375 6.7883 3.53156 6.72921 3.52311 6.70809C3.49977 6.64975 3.47643 6.64451 3.46454 6.64661L3.46478 6.64143L3.45644 6.64976ZM5.01826 6.0832C4.99915 6.04419 4.97752 6 4.94028 6V6.00833C4.86528 6.00833 4.85695 6.35 5.14029 6.36667C5.43195 6.38333 5.39862 6 5.33195 6C5.29862 6 5.29029 6.03333 5.28195 6.06667C5.27362 6.1 5.26529 6.13333 5.23195 6.13333C5.19751 6.13333 5.19198 6.09774 5.18664 6.06333C5.18165 6.03115 5.17681 6 5.14862 6C5.117 6 5.10742 6.04161 5.09864 6.07973C5.09122 6.11194 5.08437 6.14167 5.06528 6.14167C5.04689 6.14167 5.03336 6.11405 5.01826 6.0832ZM9.07321 7.74137C9.11044 7.74137 9.13208 7.78556 9.15118 7.82458C9.16629 7.85542 9.17981 7.88304 9.19821 7.88304C9.21729 7.88304 9.22414 7.85332 9.23156 7.8211C9.24034 7.78298 9.24993 7.74137 9.28154 7.74137C9.30973 7.74137 9.31457 7.77252 9.31956 7.8047C9.3249 7.83911 9.33043 7.87471 9.36487 7.87471C9.39821 7.87471 9.40654 7.84137 9.41487 7.80804C9.42321 7.77471 9.43154 7.74137 9.46488 7.74137C9.53154 7.74137 9.56488 8.12471 9.27321 8.10804C8.98987 8.09137 8.99821 7.74971 9.07321 7.74971V7.74137ZM11.5593 7.14082C11.5402 7.1018 11.5185 7.05762 11.4813 7.05762V7.06595C11.4063 7.06595 11.398 7.40762 11.6813 7.42428C11.973 7.44095 11.9396 7.05762 11.873 7.05762C11.8396 7.05762 11.8313 7.09095 11.823 7.12428C11.8146 7.15762 11.8063 7.19095 11.773 7.19095C11.7385 7.19095 11.733 7.15536 11.7277 7.12095C11.7227 7.08876 11.7178 7.05762 11.6896 7.05762C11.658 7.05762 11.6484 7.09923 11.6397 7.13735C11.6322 7.16956 11.6254 7.19928 11.6063 7.19928C11.5879 7.19928 11.5744 7.17167 11.5593 7.14082ZM7.36467 7.81635C7.36467 7.81635 7.273 7.78302 7.23134 7.84135C7.20988 7.86638 7.20684 7.9175 7.20377 7.96903C7.1997 8.03758 7.19558 8.10684 7.148 8.11635C7.11061 8.12466 7.07943 8.07497 7.0462 8.02201C7.01279 7.96876 6.9773 7.9122 6.93134 7.90802C6.88777 7.90406 6.83478 7.96975 6.77686 8.04158C6.71292 8.12086 6.64296 8.20761 6.573 8.21635C6.51002 8.22475 6.50204 8.15488 6.49364 8.08135C6.48537 8.00893 6.47669 7.93295 6.41467 7.92468C6.39439 7.92468 6.37001 7.94935 6.34596 7.97367C6.31069 8.00933 6.27615 8.04427 6.25633 7.99968C6.23133 7.92468 6.08966 6.76635 6.08966 6.76635C6.08966 6.76635 6.273 6.80802 6.30633 6.76635C6.348 6.71635 6.073 6.19135 6.073 6.19135C6.073 6.19135 5.998 5.98302 5.86466 6.03302C5.73133 6.08302 5.73133 6.35802 5.748 6.39968C5.76466 6.44968 5.96466 7.81635 5.96466 7.81635C5.96466 7.81635 6.03966 8.14135 5.95633 8.17468C5.91712 8.19429 5.87421 8.14562 5.8224 8.08685C5.76412 8.02074 5.69457 7.94184 5.60633 7.93302C5.43966 7.91635 5.05633 8.04135 5.06466 8.37468C5.06466 8.70802 5.22299 8.80802 5.33133 8.82468C5.38802 8.82904 5.48122 8.77179 5.56197 8.72219C5.63554 8.677 5.69877 8.63815 5.71466 8.65802C5.748 8.69968 5.51466 9.32468 5.04799 9.37468C4.58132 9.42468 4.53132 9.08302 4.52299 8.88302C4.5212 8.84001 4.52056 8.80085 4.52001 8.76655V8.76654C4.51797 8.64132 4.51699 8.58069 4.46466 8.63302C4.43966 8.65802 4.23966 8.98302 4.29799 9.38302C4.37299 9.90802 5.07299 9.76635 5.07299 9.76635C5.07299 9.76635 5.523 9.74135 5.773 9.23302C5.90609 8.9624 5.92581 8.81459 5.93653 8.73428C5.94595 8.66372 5.94842 8.64525 6.01466 8.64135C6.15633 8.63302 5.96466 9.24135 5.93966 9.28302C5.923 9.32468 5.58133 9.99968 5.03133 10.0664C4.44094 10.1345 4.37304 9.9276 4.29687 9.69551L4.29686 9.6955C4.28917 9.67207 4.2814 9.64838 4.27299 9.62468C4.22559 9.49111 4.22275 9.35753 4.2207 9.26082C4.21878 9.1705 4.21754 9.11233 4.18132 9.11635C4.10632 9.11635 4.02299 9.52468 4.03965 9.69968C4.06465 9.86635 4.15632 10.458 4.85633 10.408C5.55633 10.358 6.08966 9.89135 6.23133 9.45802C6.36467 9.02468 6.26467 8.57468 6.26467 8.57468C6.26467 8.57468 6.248 8.50802 6.40633 8.59968C6.49763 8.65254 6.55567 8.60843 6.62361 8.5568C6.67349 8.5189 6.72871 8.47694 6.80633 8.46635C6.91391 8.45232 6.94273 8.47767 6.96942 8.50113C6.99028 8.51948 7.00983 8.53667 7.06467 8.53302C7.18967 8.51635 7.373 8.44135 7.373 8.19135V7.82468L7.36467 7.81635ZM5.41466 8.29135C5.498 8.23302 5.58133 8.34968 5.58133 8.34968C5.41466 8.53302 5.33133 8.34968 5.41466 8.29135ZM6.74034 7.0826C6.38201 7.26593 6.38201 7.14093 6.38201 7.14093L7.13339 6.47212C7.12109 6.45636 7.10213 6.43077 7.07368 6.39093C7.06534 6.3826 7.05701 6.37427 7.05701 6.36593C6.95701 6.19927 6.99034 6.04093 7.19034 6.0326C7.40701 6.02427 7.43201 6.1576 7.40701 6.26593C7.39034 6.37427 7.29868 6.3326 7.29868 6.3326C7.29868 6.3326 7.19868 6.17427 7.14034 6.22427C7.08201 6.27427 7.22368 6.36593 7.22368 6.36593C7.22368 6.36593 7.42368 6.4576 7.42368 6.51593C7.42368 6.6076 6.94034 6.9826 6.74034 7.0826ZM7.11463 7.05747C7.14426 7.04477 7.13303 7.1009 7.12027 7.16466C7.10791 7.22641 7.09413 7.29531 7.11463 7.31581C7.13634 7.33752 7.19425 7.32077 7.25063 7.30445C7.30246 7.28946 7.353 7.27484 7.37296 7.29081C7.40629 7.32414 7.21463 7.58247 7.10629 7.55747C6.98962 7.53247 6.88962 7.42414 6.90629 7.30747C6.93129 7.19081 6.96462 7.13247 7.11463 7.05747ZM8.05654 5.84112C8.1075 5.83475 8.03674 5.93062 7.9894 5.99477C7.97481 6.01454 7.96244 6.0313 7.95654 6.04112C7.95116 6.0501 7.945 6.0583 7.93898 6.06631C7.91707 6.09549 7.89706 6.12215 7.92321 6.17446C7.94107 6.21018 7.9733 6.20762 8.00321 6.20524C8.02911 6.20317 8.05328 6.20125 8.06488 6.22446C8.09821 6.27446 8.00654 6.39112 7.91488 6.36612C7.82321 6.34112 7.73154 6.20779 7.77321 6.10779C7.81488 6.00779 7.95654 5.86612 8.05654 5.84946V5.84112ZM8.70677 6.44147C8.65677 6.40814 8.68177 6.1998 8.70677 6.10814V6.0998C8.70677 6.0998 8.77344 5.8498 8.88177 5.8748C8.97723 5.89683 8.93682 6.03532 8.89736 6.17054L8.89735 6.17057L8.89734 6.17061C8.89202 6.18883 8.88672 6.207 8.88177 6.2248C8.84844 6.3748 8.75677 6.48314 8.70677 6.44147ZM6.70637 8.74133C6.6397 8.74133 6.73137 8.91633 6.77304 8.99133C6.79632 9.03325 6.79879 9.13244 6.80079 9.21324V9.21324C6.80238 9.27701 6.80368 9.32932 6.8147 9.333C6.8397 9.333 6.95637 9.233 6.95637 9.108C6.95637 8.983 6.90637 8.74967 6.70637 8.74967V8.74133ZM9.82308 8.79096H11.0398L11.0314 8.80762C11.0564 8.83262 10.9731 8.94929 10.9064 9.03262C10.8762 9.07044 10.8579 9.12369 10.8408 9.1737C10.8202 9.23391 10.8012 9.28942 10.7648 9.30762C10.6981 9.34096 10.4647 9.43262 10.0981 9.44096C9.73141 9.44929 9.54808 9.60762 9.51475 9.69929C9.49184 9.76227 9.55942 9.79378 9.61747 9.82085C9.64391 9.83318 9.66837 9.84459 9.68141 9.85762C9.68857 9.86335 9.70482 9.87301 9.72621 9.88572C9.8293 9.94699 10.0516 10.0791 9.94808 10.1826C9.62456 10.5061 8.96851 9.94656 8.6986 9.71633C8.63479 9.6619 8.59256 9.62588 8.58141 9.62429C8.53141 9.60762 8.45641 9.70762 8.35641 9.84929C8.04807 10.2826 7.73974 10.4076 7.43974 10.4243C7.19989 10.4376 7.0506 10.1686 6.98333 10.0475C6.96646 10.0171 6.95475 9.99597 6.94807 9.99096C6.93306 9.97595 6.70678 10.0556 6.46029 10.1423C6.15944 10.2482 5.82847 10.3647 5.81473 10.3326C5.78973 10.2743 6.2064 9.99096 6.2064 9.99096C6.2064 9.99096 6.97307 9.53262 6.99807 9.44096C7.02307 9.34929 7.19807 9.02429 7.21474 9.02429C7.3064 9.02429 7.21474 9.34929 7.21474 9.34929C7.21474 9.34929 7.16473 9.38262 7.41474 9.20762C7.6564 9.02429 7.8064 8.80762 7.81474 8.62429C7.82492 8.51226 7.74176 8.42513 7.66602 8.34577C7.61781 8.29526 7.57261 8.24791 7.5564 8.19929C7.5064 8.07429 7.5064 7.86596 7.6814 7.77429C7.8564 7.68262 8.01474 7.97429 8.06474 8.09929C8.11474 8.22429 8.08141 8.24929 8.0064 8.20762C7.9314 8.16596 7.89807 8.21596 7.93141 8.24096C7.96474 8.26596 8.07307 8.52429 8.07307 8.75762C8.07307 8.9792 7.91526 9.19326 7.82086 9.32131L7.8064 9.34096C7.76828 9.39641 7.68115 9.46195 7.58937 9.53099C7.46047 9.62795 7.32241 9.73181 7.29807 9.82429C7.26473 9.98262 7.53974 10.1993 8.11474 9.64096C8.25641 9.49929 8.38974 9.27429 8.43141 9.09096C8.47307 8.90762 8.37307 8.50762 8.25641 8.20762C8.13974 7.90762 8.15641 7.68262 8.27307 7.60762C8.37358 7.54301 8.44316 7.7196 8.48182 7.81771C8.48804 7.83349 8.49346 7.84724 8.49807 7.85762C8.53141 7.92429 8.61474 8.14096 8.63974 8.26596C8.67308 8.38262 8.73141 8.86596 8.73141 8.86596C8.73141 8.86596 8.78141 8.92429 8.80641 8.79929C8.81809 8.71751 8.94035 8.63572 9.04973 8.56255C9.09638 8.53134 9.14069 8.5017 9.17308 8.47429C9.28141 8.38262 9.77308 8.28262 9.77308 8.28262C9.75641 7.84929 9.93141 7.59929 10.2064 7.59929C10.4814 7.59929 10.5814 7.94096 10.5814 8.11596C10.5814 8.29096 10.3814 8.46596 10.2397 8.55762C10.1607 8.60878 10.0012 8.65215 9.87564 8.68628L9.87563 8.68628C9.77621 8.71332 9.69808 8.73456 9.69808 8.74929C9.69808 8.78262 9.82308 8.79096 9.82308 8.79096ZM10.2314 8.19929C10.2647 8.14929 10.1647 8.00762 10.0564 8.00762C9.99808 8.00762 10.0147 8.07429 10.0564 8.11596C10.0897 8.15762 10.2064 8.24929 10.2314 8.19929ZM9.44013 9.31487C9.48352 9.29372 9.53187 9.27015 9.59808 9.20762H9.58975C9.65641 9.14929 9.41475 9.10762 9.18974 9.07429C9.12329 9.06632 9.06786 9.05326 9.02183 9.04241C8.92355 9.01925 8.86812 9.00619 8.83974 9.07429C8.79808 9.16596 8.83974 9.39096 8.93974 9.50762C8.96238 9.53403 8.98287 9.56043 9.0024 9.58558C9.06914 9.67155 9.12448 9.74284 9.21474 9.74929C9.27446 9.75782 9.2665 9.71177 9.25567 9.64914C9.24534 9.5894 9.2324 9.51458 9.27308 9.45762C9.33825 9.36452 9.38522 9.34163 9.44013 9.31487ZM3.94805 8.2583C3.85639 8.31664 3.58972 8.6083 3.57305 8.6833C3.55769 8.75245 3.65564 8.71535 3.77551 8.66996L3.80639 8.6583C3.93972 8.6083 4.37305 8.39997 4.37305 8.39997C4.37305 8.39997 4.57306 8.34164 4.55639 8.2583C4.53972 8.17497 4.31472 8.01664 3.94805 8.2583ZM3.54805 9.60811V9.26644H3.53971C3.46565 9.28496 3.42358 9.51376 3.38643 9.71583L3.38643 9.71584C3.37342 9.78659 3.36101 9.85408 3.34805 9.90811C3.29805 10.1164 3.38138 10.3414 3.59805 10.3664C3.81472 10.3831 3.83972 9.94977 3.79805 9.89144C3.77657 9.86566 3.72407 9.90855 3.6714 9.95159C3.62191 9.99203 3.57227 10.0326 3.54805 10.0164C3.5146 9.99414 3.5259 9.87861 3.53705 9.76465C3.54257 9.70826 3.54805 9.65225 3.54805 9.60811ZM10.1645 9.90845C10.1641 9.91172 10.1641 9.91466 10.1645 9.91732V9.90845ZM10.1653 9.9207L10.1645 9.91732V9.92512L10.1653 9.9207ZM10.1653 9.9207C10.1719 9.94246 10.2088 9.94161 10.2497 9.94065C10.2946 9.93961 10.3443 9.93845 10.3645 9.96678C10.3839 9.98999 10.3727 10.024 10.361 10.0595C10.3475 10.1006 10.3333 10.1439 10.3645 10.1751C10.4093 10.2199 10.5474 10.1763 10.6431 10.146C10.6721 10.1369 10.6971 10.129 10.7145 10.1251C10.7979 10.1085 10.9729 10.0585 10.9479 9.99178C10.924 9.92813 10.8393 9.94045 10.781 9.94895L10.7729 9.95012C10.746 9.95012 10.7209 9.96605 10.6951 9.98241C10.6649 10.0016 10.6338 10.0213 10.5979 10.0168C10.5312 10.0085 10.4729 9.98345 10.5062 9.91678C10.5395 9.84178 10.5479 9.75012 10.5062 9.71678C10.4651 9.67564 10.1883 9.80512 10.1653 9.9207ZM10.4564 6.04104L10.7647 6.3327V6.34104C10.8119 6.38399 10.8193 6.29191 10.828 6.1846C10.8361 6.08369 10.8453 5.96931 10.8897 5.94104C10.973 5.89104 11.048 6.0827 11.048 6.0827C11.048 6.0827 11.373 6.69104 11.373 6.76604C11.373 6.81152 11.3577 6.80184 11.3345 6.78717C11.3194 6.77766 11.3011 6.76604 11.2814 6.76604C11.2397 6.76604 11.2397 6.84937 11.2397 6.84937L11.3397 7.44937L12.1564 8.84104C12.1564 8.84104 12.1814 9.44104 12.1147 9.41604C12.0064 9.37437 11.398 8.1077 11.398 8.1077C11.398 8.1077 11.4897 9.29104 11.398 9.59104C11.3147 9.89104 11.073 9.91604 11.073 9.91604V7.5827C11.073 7.5827 10.4064 6.69104 10.2814 6.51604C10.1564 6.34104 10.123 6.06604 10.198 5.9327C10.273 5.79937 10.4564 6.04104 10.4564 6.04104ZM11.481 6.24933C11.4227 6.19933 11.406 6.06599 11.481 6.04099C11.5727 6.00766 11.656 6.07433 11.7227 6.15766C11.7894 6.24099 11.7894 6.44099 11.7727 6.53266C11.756 6.62433 11.6644 6.78266 11.6144 6.74933C11.5839 6.72901 11.5967 6.69632 11.6152 6.64937C11.627 6.61927 11.6412 6.58331 11.6477 6.54099C11.6644 6.43266 11.5394 6.29933 11.481 6.24933ZM12.1145 5.99148C12.1478 5.94981 12.4395 6.50814 12.4395 6.54148C12.4395 6.55118 12.4458 6.5637 12.453 6.57781C12.4704 6.6122 12.4926 6.65603 12.4395 6.69148C12.3645 6.74148 12.3228 6.79148 12.3228 6.86648C12.3228 6.90575 12.3616 7.20778 12.401 7.51415L12.401 7.51421L12.4011 7.51431L12.4011 7.51445L12.4011 7.51447C12.4369 7.79308 12.4732 8.07521 12.4811 8.16648C12.4978 8.35814 12.5061 9.25814 12.4811 9.41648C12.4311 9.74981 12.2561 9.99148 12.0645 10.1831C11.8728 10.3831 11.4228 10.5998 11.2645 10.2915C11.2645 10.2915 11.1978 10.2665 11.4395 10.1498C11.6811 10.0331 12.1228 9.75814 12.2145 9.51648C12.3311 9.21648 12.1811 8.20814 12.1811 8.20814C12.1811 8.20814 12.0228 6.84148 12.0228 6.75814C12.0228 6.67481 12.0311 6.11648 12.1145 5.99148ZM12.9793 6.7476C12.9334 6.72596 12.8994 6.7099 12.9146 6.84157H12.9062L12.9562 7.18324C12.9562 7.18324 13.1979 9.12491 13.1646 9.39991C13.1312 9.66657 12.9229 9.74157 12.9229 9.74157C12.9229 9.74157 12.8896 8.89991 12.8062 8.09991C12.7577 7.60858 12.6739 7.13492 12.6318 6.89745L12.6318 6.89737L12.6318 6.89736L12.6318 6.89732C12.6161 6.80862 12.6062 6.75291 12.6062 6.74157C12.5979 6.65824 12.5979 6.09991 12.6812 5.97491C12.7146 5.93324 13.0229 6.48324 13.0229 6.51657C13.0229 6.52636 13.0337 6.54691 13.047 6.57233C13.079 6.63352 13.1259 6.72292 13.0729 6.75824C13.0435 6.77786 13.0089 6.76156 12.9793 6.7476ZM13.3399 7.30823C13.2732 7.35823 13.3149 7.4999 13.4232 7.66657C13.5316 7.83323 13.7482 7.95823 13.7732 7.95823C13.7982 7.95823 13.7982 7.70823 13.7982 7.58323C13.7982 7.45823 13.8399 7.3999 13.8566 7.4249C13.8732 7.44157 13.9816 7.45823 13.9982 7.4249C14.0066 7.39157 13.9316 7.19157 13.9232 7.1749C13.9149 7.15823 13.7982 7.0249 13.7482 7.10823C13.7216 7.14632 13.7123 7.20007 13.703 7.25437C13.6919 7.31889 13.6806 7.38418 13.6399 7.4249C13.6056 7.45537 13.5661 7.41621 13.5222 7.37266C13.47 7.32092 13.4116 7.26299 13.3482 7.30823H13.3399ZM13.5149 8.39128C13.5232 8.37461 14.1149 7.94961 14.1149 7.94961V7.95794C14.1815 7.90794 14.2065 8.06628 14.2065 8.10794C14.2065 8.14961 14.1649 8.20794 14.1649 8.20794C14.1649 8.20794 13.6232 8.59128 13.5815 8.64961C13.5399 8.71628 13.4482 8.63294 13.4482 8.55794C13.4424 8.50572 13.477 8.4535 13.4985 8.42097C13.5079 8.40678 13.5149 8.39634 13.5149 8.39128ZM14.0318 8.41603L14.0313 8.41634L14.0257 8.41603H14.0318ZM14.0313 8.41634C14.0693 8.41953 14.2318 8.45339 14.2318 8.79936C14.2318 9.19103 14.0901 9.19103 14.0735 9.19103C14.0617 9.18513 14.0666 9.0875 14.0704 9.01022V9.01021C14.072 8.97824 14.0735 8.94976 14.0735 8.9327C14.0786 8.89673 14.0552 8.84494 14.0327 8.79487L14.0327 8.79486C14.0186 8.76372 14.0049 8.73326 13.9985 8.7077C13.9818 8.64119 13.9652 8.45859 14.0313 8.41634ZM15.2816 6.73275C15.1899 6.56608 15.2149 6.40775 15.2816 6.39941V6.40775C15.3566 6.39941 15.4733 6.48275 15.5066 6.82441C15.5399 7.16608 15.3733 7.24108 15.3733 7.24108C15.3733 7.24108 15.3483 7.17441 15.3816 7.05775C15.4113 6.9536 15.3813 6.90258 15.3093 6.78019L15.2816 6.73275ZM12.7566 9.19174C12.7566 9.19174 12.5983 10.0167 13.0233 10.0167C13.1816 10.0167 13.3566 9.60008 13.3899 9.51674L13.4 9.49122C13.4427 9.38153 13.549 9.10841 13.6483 9.10841C13.6936 9.10841 13.7608 9.18285 13.8396 9.27003C13.949 9.39117 14.0806 9.5369 14.2066 9.54174C14.3896 9.54174 14.3852 9.32689 14.3816 9.1525C14.3808 9.11241 14.3801 9.07446 14.3816 9.04174C14.3816 8.86674 14.2899 7.38341 14.2899 7.38341C14.2899 7.38341 13.7149 6.75008 13.6149 6.48341C13.5733 6.35841 13.5899 5.98341 13.6233 5.97508C13.6649 5.95841 14.1066 6.39174 14.0983 6.40008C14.0983 6.40008 14.1233 6.44174 14.0483 6.45841C13.9907 6.47761 14.0068 6.50172 14.0212 6.5232C14.0255 6.52969 14.0297 6.53594 14.0316 6.54174C14.0399 6.56674 14.1566 6.65008 14.1566 6.65008L14.1316 6.10008C14.1316 6.10008 14.1316 5.97508 14.1983 5.97508C14.2733 5.97508 14.6399 6.63341 14.6399 6.63341C14.6399 6.63341 14.6316 6.74174 14.5816 6.72508L14.5628 6.71553C14.5213 6.69434 14.4878 6.67722 14.4733 6.69174C14.4649 6.70841 14.5149 7.17508 14.5149 7.17508L14.9066 7.72508L14.6649 6.15008C14.6649 6.15008 14.6816 5.99174 14.8233 5.98341C14.9569 5.97555 15.0387 6.23473 15.0965 6.41802L15.1066 6.45008C15.1229 6.50139 15.1386 6.54486 15.152 6.58197C15.1864 6.67745 15.2056 6.73074 15.1816 6.76674C15.1603 6.79233 15.1368 6.78737 15.1167 6.78312C15.0975 6.77906 15.0814 6.77567 15.0733 6.80008C15.0649 6.85008 15.2649 8.29174 15.2649 8.29174C15.2649 8.29174 15.6983 8.80008 15.7566 9.00008C15.79 9.12508 15.7233 9.53341 15.7233 9.53341L15.3399 8.94174V9.34174C15.3399 9.34174 15.1399 9.65008 15.0649 9.70008C14.9899 9.75008 14.9899 8.39174 14.9899 8.36674C14.9899 8.34174 14.7066 7.94174 14.6816 7.94174C14.6566 7.94174 14.6816 9.19174 14.6816 9.19174V9.47508C14.6816 9.47508 14.5483 9.96674 14.2566 9.96674C14.0953 9.96674 13.9875 9.84945 13.8937 9.74744C13.818 9.66505 13.7515 9.59263 13.6733 9.60008C13.5968 9.611 13.5426 9.78105 13.4836 9.96629C13.4075 10.205 13.3234 10.4688 13.1733 10.4501C12.9066 10.4167 12.6899 10.1417 12.6483 9.97508C12.6066 9.80841 12.5899 9.18341 12.7566 9.19174ZM14.6648 9.94141C14.6648 9.88308 14.8565 9.86641 14.8565 9.86641C14.8565 9.86641 14.9981 9.86641 14.9981 9.90808C14.9981 9.92306 14.983 9.94983 14.9663 9.97931C14.9459 10.0154 14.9231 10.0556 14.9231 10.0831C14.9231 10.1074 14.9624 10.1179 15.0038 10.129C15.0477 10.1407 15.0938 10.1531 15.0981 10.1831C15.1087 10.2199 15.0593 10.2368 15.0068 10.2548C14.9762 10.2653 14.9446 10.2761 14.9231 10.2914C14.8565 10.3414 14.7065 10.4247 14.6648 10.3664C14.6337 10.3353 14.6963 10.2556 14.7479 10.1899L14.7479 10.1899C14.7792 10.1501 14.8065 10.1155 14.8065 10.0997C14.8065 10.0807 14.7767 10.0581 14.7445 10.0336C14.7064 10.0046 14.6648 9.97303 14.6648 9.94141ZM15.5063 10.058L15.503 10.0593C15.3758 10.1102 15.0654 10.2343 15.1563 10.383C15.1979 10.458 15.5396 10.483 15.7896 10.308C16.0396 10.133 16.1146 9.84133 16.1313 9.658C16.1646 9.333 16.1479 8.608 16.1313 8.36633C16.1146 8.12467 15.9979 6.99967 15.9563 6.84133C15.9174 6.69377 15.9727 6.66926 15.9939 6.65986L15.9979 6.658C16.0041 6.65596 16.0161 6.65492 16.0308 6.65366C16.0761 6.64976 16.1459 6.64374 16.1396 6.59967C16.1396 6.54133 15.8146 6.083 15.8146 6.083C15.8146 6.083 15.7479 5.97467 15.7146 5.983C15.6813 5.983 15.6063 6.11633 15.6146 6.333C15.6229 6.54133 15.8563 8.608 15.8563 8.608C15.8563 8.608 16.0229 9.833 15.5146 10.058H15.5063ZM14.0814 13.9493C14.0814 13.9493 14.3147 13.8576 14.3897 13.9493L14.3981 13.9576C14.4045 13.9655 14.411 13.9733 14.4176 13.9811C14.4881 14.065 14.5647 14.1562 14.5647 14.4076C14.5647 14.5076 14.5064 14.8576 14.2981 14.8326C14.0814 14.8076 14.1064 14.6743 14.1064 14.6743H13.1647C13.1647 14.6743 13.2147 14.8326 13.0897 14.8326C12.9731 14.8326 12.8814 14.641 12.8814 14.566C12.8814 14.491 12.9147 14.3243 12.9147 14.3243H6.08136C6.08136 14.3243 5.72302 14.4076 5.17302 13.9243L12.9647 13.9576C12.9647 13.9576 12.8314 13.7993 12.8397 13.7326C12.8564 13.666 12.8897 13.5576 12.9647 13.5576C13.0013 13.5576 13.0062 13.5755 13.0122 13.5976C13.0185 13.6209 13.0261 13.6489 13.0731 13.666C13.1647 13.6993 13.2064 13.7326 13.1731 13.8076C13.1397 13.8826 13.1147 13.9493 13.1147 13.9493H14.0814ZM13.7897 14.5243H13.9564H13.9647C13.9981 14.5326 14.1147 14.4993 14.1147 14.441C14.1147 14.3826 14.0064 14.3493 14.0064 14.3493H13.1064C13.0397 14.3493 13.0814 14.5243 13.2314 14.5243H13.5147C13.5147 14.5243 13.5231 14.4326 13.6397 14.441C13.712 14.4461 13.7363 14.4768 13.7542 14.4995C13.7652 14.5134 13.7739 14.5243 13.7897 14.5243Z" fill="#FBFBFB"/>
<g clip-path="url(#clip1_1_482448)">
<mask id="mask0_1_482448" style="mask-type:luminance" maskUnits="userSpaceOnUse" x="-7" y="0" width="35" height="20">
<path d="M27.0023 0H-6.99786V20H27.0023V0Z" fill="white"/>
</mask>
<g mask="url(#mask0_1_482448)">
<path d="M28.6693 -0.000976562H-5.33087V19.999H28.6693V-0.000976562Z" fill="#DB201B"/>
<path d="M9.99994 -0.833984H-6.66681V10.8327H9.99994V-0.833984Z" fill="#1A47B8"/>
<path d="M6.1941 6.26707L5.41589 9.20797L4.63768 6.26707L5.41589 3.32617M5.41589 7.05012L8.33257 6.26707L5.41589 5.4824L2.49921 6.26707" fill="white"/>
<path d="M6.0895 6.65803L3.95746 8.81263L4.7421 5.87336L6.87414 3.71875M5.02669 6.94498L7.94177 7.73614L5.8049 5.5864L2.88983 4.79524" fill="white"/>
<path d="M5.8049 6.94661L2.88983 7.73776L5.02669 5.58802L7.94177 4.79686M4.7421 6.65803L6.87414 8.81263L6.0895 5.87336L3.95746 3.71875" fill="white"/>
<path d="M5.41577 4.59863C6.32904 4.59863 7.06866 5.34602 7.06866 6.26687C7.06866 7.18773 6.32904 7.93349 5.41577 7.93349C4.5025 7.93349 3.76288 7.18611 3.76288 6.26687C3.76288 5.34764 4.5025 4.59863 5.41577 4.59863Z" fill="#1C2666"/>
<path d="M5.41641 4.7959C6.22195 4.7959 6.87475 5.45412 6.87475 6.26635C6.87475 7.07858 6.22035 7.7368 5.41641 7.7368C4.61247 7.7368 3.95807 7.07858 3.95807 6.26635C3.95807 5.45412 4.61086 4.7959 5.41641 4.7959Z" fill="white"/>
</g>
</g>
</g>
<defs>
<clipPath id="clip0_1_482448">
<rect width="20.0001" height="20" rx="10" fill="white"/>
</clipPath>
<clipPath id="clip1_1_482448">
<rect width="34.0002" height="20" fill="white" transform="translate(-6.99979)"/>
</clipPath>
</defs>
</svg>
