<svg width="20" height="20" viewBox="0 0 20 20" fill="none" xmlns="http://www.w3.org/2000/svg">
<g clip-path="url(#clip0_1_482333)">
<rect width="20" height="20" rx="10" fill="white"/>
<path fill-rule="evenodd" clip-rule="evenodd" d="M12.0003 4H26.667V6.66667H12.0003V4ZM12.0003 9.33333H26.667V12H12.0003V9.33333ZM-1.33301 14.6667H26.667V17.3333H-1.33301V14.6667Z" fill="#3A99FF"/>
<path fill-rule="evenodd" clip-rule="evenodd" d="M7.83967 9.17317C7.53301 10.8332 6.82634 11.9998 5.99967 11.9998C5.17301 11.9998 4.46634 10.8345 4.15967 9.17317C2.49967 8.8665 1.33301 8.15984 1.33301 7.33317C1.33301 6.5065 2.49834 5.79984 4.15967 5.49317C4.46634 3.83317 5.17301 2.6665 5.99967 2.6665C6.82634 2.6665 7.53301 3.83184 7.83967 5.49317C9.49967 5.79984 10.6663 6.5065 10.6663 7.33317C10.6663 8.15984 9.50101 8.8665 7.83967 9.17317Z" fill="#D4AF2C"/>
<path fill-rule="evenodd" clip-rule="evenodd" d="M6.91567 8.24917C6.83034 10.3865 6.45301 11.9998 5.99967 11.9998C5.54634 11.9998 5.16901 10.3865 5.08367 8.24917C2.94634 8.16384 1.33301 7.7865 1.33301 7.33317C1.33301 6.87984 2.94634 6.5025 5.08367 6.41717C5.16901 4.27984 5.54634 2.6665 5.99967 2.6665C6.45301 2.6665 6.83034 4.27984 6.91567 6.41717C9.05301 6.5025 10.6663 6.87984 10.6663 7.33317C10.6663 7.7865 9.05301 8.16384 6.91567 8.24917Z" fill="#FFDA2C"/>
<path d="M6 9.33301C7.10457 9.33301 8 8.43758 8 7.33301C8 6.22844 7.10457 5.33301 6 5.33301C4.89543 5.33301 4 6.22844 4 7.33301C4 8.43758 4.89543 9.33301 6 9.33301Z" fill="#FFDA2C"/>
</g>
<defs>
<clipPath id="clip0_1_482333">
<rect width="20" height="20" rx="10" fill="white"/>
</clipPath>
</defs>
</svg>
