<svg width="20" height="20" viewBox="0 0 20 20" fill="none" xmlns="http://www.w3.org/2000/svg">
<rect width="20.0001" height="20" rx="10" fill="#DB201B"/>
<path d="M11.9625 10.5165C11.9315 10.4164 11.9663 10.3076 12.0496 10.244L14.4122 8.44066C14.6023 8.29554 14.4997 7.99194 14.2605 7.99194H11.3663C11.2567 7.99194 11.1598 7.9205 11.1275 7.81574L10.2388 4.9398C10.1662 4.7049 9.83374 4.70487 9.76112 4.93977L8.87198 7.81578C8.8396 7.92051 8.74276 7.99194 8.63313 7.99194H5.73956C5.50038 7.99194 5.39775 8.29554 5.58788 8.44066L7.95041 10.244C8.03373 10.3076 8.06853 10.4164 8.03757 10.5165L7.13996 13.4201C7.06808 13.6526 7.33703 13.8403 7.53049 13.6927L9.84834 11.9236C9.93791 11.8552 10.0621 11.8552 10.1517 11.9236L12.4696 13.6927C12.663 13.8403 12.932 13.6526 12.8601 13.4201L11.9625 10.5165Z" fill="#F4E600"/>
</svg>
