<svg width="60" height="60" viewBox="0 0 60 60" fill="none" xmlns="http://www.w3.org/2000/svg">
<g clip-path="url(#clip0_1_477996)">
<path d="M11.2751 19.8929L22.5442 25.0977L20.6428 31.4324L13.9716 29.0829C9.55396 27.4941 10.3332 22.2942 11.2751 19.8929Z" fill="#E27B3F"/>
<path d="M11.3874 18.8324L22.6565 24.0372L20.7551 30.3719L14.0839 28.0224C9.66626 26.4336 10.4456 21.2337 11.3874 18.8324Z" fill="url(#paint0_linear_1_477996)"/>
<path d="M22.2504 24.2197L20.534 29.9374L14.1971 27.7058L14.1981 27.706C12.1355 26.9642 11.286 25.3947 11.0585 23.6879C10.8496 22.1194 11.1744 20.4557 11.5782 19.2905L22.2504 24.2197Z" stroke="white" stroke-opacity="0.3" stroke-width="0.671997"/>
<path d="M9.81526 15.2074L21.0843 20.4122L19.183 26.7469L12.5117 24.3974C8.09412 22.8086 8.87341 17.6087 9.81526 15.2074Z" fill="#DB783F"/>
<path d="M9.92659 14.0853L21.1957 19.2901L19.2943 25.6248L12.6231 23.2753C8.20545 21.6865 8.98474 16.4866 9.92659 14.0853Z" fill="url(#paint1_linear_1_477996)"/>
<path d="M20.7896 19.4726L19.0732 25.1903L12.7363 22.9587L12.7373 22.9589C10.6747 22.2171 9.82517 20.6476 9.59773 18.9409C9.38875 17.3723 9.71359 15.7087 10.1174 14.5435L20.7896 19.4726Z" stroke="white" stroke-opacity="0.3" stroke-width="0.671997"/>
<path d="M9.64436 9.86458L20.9134 15.0694L19.0121 21.4041L12.3408 19.0546C7.92322 17.4658 8.70251 12.2659 9.64436 9.86458Z" fill="#F08A4E"/>
<path d="M10.5646 9.09365L20.3628 13.6192C20.7426 13.7945 20.9354 14.2226 20.8152 14.6232L19.3765 19.4163C19.2387 19.8754 18.7452 20.1263 18.293 19.9671L12.4522 17.91C8.49879 16.4882 8.70744 12.1744 9.46998 9.5624C9.60544 9.09841 10.1258 8.89097 10.5646 9.09365Z" fill="url(#paint2_linear_1_477996)"/>
<path d="M10.424 9.39901L20.2216 13.9237C20.4211 14.0158 20.535 14.2247 20.5117 14.4364L20.493 14.5265L19.055 19.32C18.9825 19.5608 18.7467 19.7064 18.5073 19.6752L18.4044 19.6497L12.5654 17.5935L12.5664 17.5937C10.7161 16.9282 9.84669 15.6002 9.52042 14.1107C9.23136 12.7911 9.37122 11.347 9.66 10.1525L9.79266 9.65645C9.85582 9.44039 10.0836 9.30914 10.3216 9.36372L10.424 9.39901Z" stroke="white" stroke-opacity="0.3" stroke-width="0.671997"/>
<path d="M48.7239 19.8929L37.4548 25.0977L39.3562 31.4324L46.0274 29.0829C50.4451 27.4941 49.6658 22.2942 48.7239 19.8929Z" fill="#E27B3F"/>
<path d="M48.6116 18.8324L37.3425 24.0372L39.2439 30.3719L45.9151 28.0224C50.3328 26.4336 49.5535 21.2337 48.6116 18.8324Z" fill="url(#paint3_linear_1_477996)"/>
<path d="M37.7486 24.2197L39.465 29.9374L45.8019 27.7058L45.8009 27.706C47.8635 26.9642 48.713 25.3947 48.9405 23.6879C49.1495 22.1194 48.8246 20.4557 48.4208 19.2905L37.7486 24.2197Z" stroke="white" stroke-opacity="0.3" stroke-width="0.671997"/>
<path d="M50.1839 15.2074L38.9148 20.4122L40.8162 26.7469L47.4874 24.3974C51.905 22.8086 51.1257 17.6087 50.1839 15.2074Z" fill="#DB783F"/>
<path d="M50.0726 14.0853L38.8035 19.2901L40.7048 25.6248L47.3761 23.2753C51.7937 21.6865 51.0144 16.4866 50.0726 14.0853Z" fill="url(#paint4_linear_1_477996)"/>
<path d="M39.2096 19.4726L40.926 25.1903L47.2628 22.9587L47.2619 22.9589C49.3244 22.2171 50.174 20.6476 50.4014 18.9409C50.6104 17.3723 50.2856 15.7087 49.8818 14.5435L39.2096 19.4726Z" stroke="white" stroke-opacity="0.3" stroke-width="0.671997"/>
<path d="M50.3547 9.86458L39.0856 15.0694L40.9869 21.4041L47.6582 19.0546C52.0758 17.4658 51.2965 12.2659 50.3547 9.86458Z" fill="#F08A4E"/>
<path d="M49.4345 9.09365L39.6362 13.6192C39.2564 13.7945 39.0636 14.2226 39.1839 14.6232L40.6225 19.4163C40.7603 19.8754 41.2539 20.1263 41.7061 19.9671L47.5468 17.91C51.5002 16.4882 51.2916 12.1744 50.529 9.5624C50.3936 9.09841 49.8733 8.89097 49.4345 9.09365Z" fill="url(#paint5_linear_1_477996)"/>
<path d="M49.575 9.39901L39.7774 13.9237C39.5779 14.0158 39.464 14.2247 39.4873 14.4364L39.506 14.5265L40.9441 19.32C41.0165 19.5608 41.2523 19.7064 41.4917 19.6752L41.5946 19.6497L47.4336 17.5935L47.4327 17.5937C49.2829 16.9282 50.1523 15.6002 50.4786 14.1107C50.7677 12.7911 50.6278 11.347 50.339 10.1525L50.2064 9.65645C50.1432 9.44039 49.9154 9.30914 49.6775 9.36372L49.575 9.39901Z" stroke="white" stroke-opacity="0.3" stroke-width="0.671997"/>
<path d="M29.0803 7.32045C29.6691 6.99467 30.384 6.99467 30.9728 7.32045L43.3146 14.1491C43.9367 14.4933 44.3229 15.1483 44.3229 15.8593V29.3747C44.3229 30.0858 43.9367 30.7408 43.3146 31.085L30.9728 37.9136C30.384 38.2394 29.6691 38.2394 29.0803 37.9136L16.7385 31.085C16.1164 30.7408 15.7302 30.0858 15.7302 29.3747V15.8593C15.7302 15.1483 16.1164 14.4933 16.7385 14.1491L29.0803 7.32045Z" fill="#E36833"/>
<path d="M29.0803 5.94447C29.6691 5.61869 30.384 5.61869 30.9728 5.94447L43.3146 12.7731C43.9367 13.1173 44.3229 13.7723 44.3229 14.4834V27.9988C44.3229 28.7098 43.9367 29.3648 43.3146 29.709L30.9728 36.5376C30.384 36.8634 29.6691 36.8634 29.0803 36.5376L16.7385 29.709C16.1164 29.3648 15.7302 28.7098 15.7302 27.9988V14.4834C15.7302 13.7723 16.1164 13.1173 16.7385 12.7731L29.0803 5.94447Z" fill="url(#paint6_linear_1_477996)"/>
<path opacity="0.8" d="M29.0908 10.0581C29.6741 9.74003 30.3789 9.74003 30.9622 10.0581L39.7299 14.8389C40.358 15.1813 40.7488 15.8396 40.7488 16.5549V25.9271C40.7488 26.6425 40.358 27.3007 39.7299 27.6432L30.9622 32.4239C30.3789 32.742 29.6741 32.742 29.0908 32.4239L20.3231 27.6432C19.6951 27.3007 19.3042 26.6425 19.3042 25.9271V16.5549C19.3042 15.8396 19.6951 15.1813 20.3231 14.8389L29.0908 10.0581Z" fill="url(#paint7_linear_1_477996)"/>
<path d="M29.5552 13.7653C29.752 13.346 30.3483 13.346 30.5451 13.7653L32.3477 17.6054C32.4251 17.7703 32.5796 17.8858 32.7596 17.9135L36.8354 18.5399C37.2751 18.6075 37.4544 19.144 37.1436 19.4623L34.1611 22.5168C34.0399 22.641 33.9848 22.8155 34.0127 22.9868L34.7117 27.2721C34.7852 27.7225 34.3069 28.0594 33.9075 27.8385C32.6538 27.1453 31.7046 26.6204 30.3153 25.8521C30.1506 25.761 29.9502 25.7607 29.7856 25.8518L26.1928 27.8385C25.7934 28.0594 25.3151 27.7225 25.3886 27.2721L26.0876 22.9868C26.1155 22.8155 26.0604 22.641 25.9391 22.5168L22.9567 19.4623C22.6459 19.144 22.8251 18.6075 23.2649 18.5399L27.3407 17.9135C27.5207 17.8858 27.6752 17.7703 27.7526 17.6054L29.5552 13.7653Z" fill="url(#paint8_linear_1_477996)"/>
<mask id="mask0_1_477996" style="mask-type:alpha" maskUnits="userSpaceOnUse" x="22" y="13" width="16" height="15">
<path d="M29.5552 13.7653C29.752 13.346 30.3483 13.346 30.5451 13.7653L32.3477 17.6054C32.4251 17.7703 32.5795 17.8858 32.7596 17.9135L36.8354 18.5399C37.2751 18.6075 37.4544 19.144 37.1436 19.4623L34.1611 22.5168C34.0399 22.641 33.9848 22.8155 34.0127 22.9868L34.7117 27.2721C34.7852 27.7225 34.3069 28.0594 33.9075 27.8385C32.6538 27.1453 31.7046 26.6204 30.3153 25.8521C30.1506 25.761 29.9502 25.7607 29.7856 25.8518L26.1928 27.8385C25.7934 28.0594 25.3151 27.7225 25.3886 27.2721L26.0876 22.9868C26.1155 22.8155 26.0604 22.641 25.9391 22.5168L22.9567 19.4623C22.6459 19.144 22.8251 18.6075 23.2649 18.5399L27.3407 17.9135C27.5207 17.8858 27.6752 17.7703 27.7526 17.6054L29.5552 13.7653Z" fill="url(#paint9_linear_1_477996)"/>
</mask>
<g mask="url(#mask0_1_477996)">
<path opacity="0.8" d="M30.1154 20.719V13.2447C29.6883 12.3904 27.624 15.5582 26.9121 17.5157L30.1154 20.719Z" fill="url(#paint10_linear_1_477996)"/>
<path opacity="0.8" d="M30.1065 20.7186L25.4028 27.6055C25.1008 28.5115 28.1122 28.0061 29.9998 27.1252L30.1065 20.7186Z" fill="url(#paint11_linear_1_477996)"/>
<path opacity="0.8" d="M30.2215 20.719L22.2132 19.1173C21.359 19.5444 23.5219 22.1426 25.4795 22.8545L30.2215 20.719Z" fill="url(#paint12_linear_1_477996)"/>
<path opacity="0.8" d="M30.0387 20.7188L34.493 27.6593C35.3991 27.9613 35.3738 24.7419 34.493 22.8544L30.0387 20.7188Z" fill="url(#paint13_linear_1_477996)"/>
<path opacity="0.8" d="M30.0572 20.7196L37.1631 19.118C37.8777 18.4843 34.9672 17.6973 32.8921 17.5163L30.0572 20.7196Z" fill="url(#paint14_linear_1_477996)"/>
</g>
</g>
<rect x="15" y="42" width="30" height="15" rx="4" fill="#E36833"/>
<rect x="15" y="42" width="30" height="14" rx="4" fill="url(#paint15_linear_1_477996)"/>
<rect x="15" y="42" width="30" height="14" rx="4" fill="#C79516" fill-opacity="0.2" style="mix-blend-mode:multiply"/>
<rect x="15" y="42" width="30" height="14" rx="4" fill="url(#paint16_linear_1_477996)"/>
<path d="M21.55 46.63C21.5833 45.9633 21.8167 45.45 22.25 45.09C22.69 44.7233 23.2667 44.54 23.98 44.54C24.4667 44.54 24.8833 44.6267 25.23 44.8C25.5767 44.9667 25.8367 45.1967 26.01 45.49C26.19 45.7767 26.28 46.1033 26.28 46.47C26.28 46.89 26.17 47.2467 25.95 47.54C25.7367 47.8267 25.48 48.02 25.18 48.12V48.16C25.5667 48.28 25.8667 48.4933 26.08 48.8C26.3 49.1067 26.41 49.5 26.41 49.98C26.41 50.38 26.3167 50.7367 26.13 51.05C25.95 51.3633 25.68 51.61 25.32 51.79C24.9667 51.9633 24.54 52.05 24.04 52.05C23.2867 52.05 22.6733 51.86 22.2 51.48C21.7267 51.1 21.4767 50.54 21.45 49.8H22.81C22.8233 50.1267 22.9333 50.39 23.14 50.59C23.3533 50.7833 23.6433 50.88 24.01 50.88C24.35 50.88 24.61 50.7867 24.79 50.6C24.9767 50.4067 25.07 50.16 25.07 49.86C25.07 49.46 24.9433 49.1733 24.69 49C24.4367 48.8267 24.0433 48.74 23.51 48.74H23.22V47.59H23.51C24.4567 47.59 24.93 47.2733 24.93 46.64C24.93 46.3533 24.8433 46.13 24.67 45.97C24.5033 45.81 24.26 45.73 23.94 45.73C23.6267 45.73 23.3833 45.8167 23.21 45.99C23.0433 46.1567 22.9467 46.37 22.92 46.63H21.55ZM29.0763 47.32C29.2563 47.0267 29.4897 46.7967 29.7763 46.63C30.0697 46.4633 30.403 46.38 30.7763 46.38V47.85H30.4063C29.9663 47.85 29.633 47.9533 29.4063 48.16C29.1863 48.3667 29.0763 48.7267 29.0763 49.24V52H27.6763V46.46H29.0763V47.32ZM31.3593 49.21C31.3593 48.65 31.4693 48.1533 31.6893 47.72C31.916 47.2867 32.2226 46.9533 32.6093 46.72C32.996 46.4867 33.426 46.37 33.8993 46.37C34.2593 46.37 34.6026 46.45 34.9293 46.61C35.256 46.7633 35.516 46.97 35.7093 47.23V44.6H37.1293V52H35.7093V51.18C35.536 51.4533 35.2926 51.6733 34.9793 51.84C34.666 52.0067 34.3026 52.09 33.8893 52.09C33.4226 52.09 32.996 51.97 32.6093 51.73C32.2226 51.49 31.916 51.1533 31.6893 50.72C31.4693 50.28 31.3593 49.7767 31.3593 49.21ZM35.7193 49.23C35.7193 48.89 35.6526 48.6 35.5193 48.36C35.386 48.1133 35.206 47.9267 34.9793 47.8C34.7526 47.6667 34.5093 47.6 34.2493 47.6C33.9893 47.6 33.7493 47.6633 33.5293 47.79C33.3093 47.9167 33.1293 48.1033 32.9893 48.35C32.856 48.59 32.7893 48.8767 32.7893 49.21C32.7893 49.5433 32.856 49.8367 32.9893 50.09C33.1293 50.3367 33.3093 50.5267 33.5293 50.66C33.756 50.7933 33.996 50.86 34.2493 50.86C34.5093 50.86 34.7526 50.7967 34.9793 50.67C35.206 50.5367 35.386 50.35 35.5193 50.11C35.6526 49.8633 35.7193 49.57 35.7193 49.23Z" fill="#FFEADB"/>
<rect x="16" y="42" width="28" height="13" rx="3" stroke="url(#paint17_linear_1_477996)" stroke-width="2"/>
<defs>
<linearGradient id="paint0_linear_1_477996" x1="17.1344" y1="19.6494" x2="15.712" y2="29.6549" gradientUnits="userSpaceOnUse">
<stop stop-color="#FCBC9B"/>
<stop offset="1" stop-color="#FF9A69"/>
</linearGradient>
<linearGradient id="paint1_linear_1_477996" x1="15.6736" y1="14.9023" x2="14.2512" y2="24.9078" gradientUnits="userSpaceOnUse">
<stop stop-color="#FCBC9B"/>
<stop offset="1" stop-color="#FF9A69"/>
</linearGradient>
<linearGradient id="paint2_linear_1_477996" x1="15.5027" y1="9.5371" x2="14.0803" y2="19.5426" gradientUnits="userSpaceOnUse">
<stop stop-color="#FFE3CE"/>
<stop offset="1" stop-color="#FFA57A"/>
</linearGradient>
<linearGradient id="paint3_linear_1_477996" x1="42.8646" y1="19.6494" x2="44.287" y2="29.6549" gradientUnits="userSpaceOnUse">
<stop stop-color="#FCBC9B"/>
<stop offset="1" stop-color="#FF9A69"/>
</linearGradient>
<linearGradient id="paint4_linear_1_477996" x1="44.3255" y1="14.9023" x2="45.748" y2="24.9078" gradientUnits="userSpaceOnUse">
<stop stop-color="#FCBC9B"/>
<stop offset="1" stop-color="#FF9A69"/>
</linearGradient>
<linearGradient id="paint5_linear_1_477996" x1="44.4963" y1="9.5371" x2="45.9188" y2="19.5426" gradientUnits="userSpaceOnUse">
<stop stop-color="#FFE3CE"/>
<stop offset="1" stop-color="#FFA57A"/>
</linearGradient>
<linearGradient id="paint6_linear_1_477996" x1="20.2249" y1="8.38718" x2="40.8189" y2="33.9698" gradientUnits="userSpaceOnUse">
<stop stop-color="#FDC59D"/>
<stop offset="1" stop-color="#FE926D"/>
</linearGradient>
<linearGradient id="paint7_linear_1_477996" x1="23.836" y1="12.696" x2="37.5973" y2="30.557" gradientUnits="userSpaceOnUse">
<stop stop-color="#FFAA67"/>
<stop offset="1" stop-color="#FF7455"/>
</linearGradient>
<linearGradient id="paint8_linear_1_477996" x1="24.2965" y1="14.7936" x2="35.5433" y2="27.4463" gradientUnits="userSpaceOnUse">
<stop stop-color="#FFFFFD"/>
<stop offset="1" stop-color="#FFC49D"/>
</linearGradient>
<linearGradient id="paint9_linear_1_477996" x1="30.0501" y1="12.7109" x2="30.0501" y2="28.3835" gradientUnits="userSpaceOnUse">
<stop stop-color="white"/>
<stop offset="1" stop-color="#E7E1B4"/>
</linearGradient>
<linearGradient id="paint10_linear_1_477996" x1="28.5138" y1="13.1016" x2="28.5138" y2="20.719" gradientUnits="userSpaceOnUse">
<stop stop-color="#FFDFCA"/>
<stop offset="1" stop-color="#FF9E62"/>
</linearGradient>
<linearGradient id="paint11_linear_1_477996" x1="25.7639" y1="28.2112" x2="31.6815" y2="22.2936" gradientUnits="userSpaceOnUse">
<stop stop-color="#FFDFCA"/>
<stop offset="1" stop-color="#FF9E62"/>
</linearGradient>
<linearGradient id="paint12_linear_1_477996" x1="22.0215" y1="20.9859" x2="30.2215" y2="20.9859" gradientUnits="userSpaceOnUse">
<stop stop-color="#FFDFCA"/>
<stop offset="1" stop-color="#FF9E62"/>
</linearGradient>
<linearGradient id="paint13_linear_1_477996" x1="35.8242" y1="26.588" x2="29.9969" y2="20.7607" gradientUnits="userSpaceOnUse">
<stop stop-color="#FFDFCA"/>
<stop offset="1" stop-color="#FF9E62"/>
</linearGradient>
<linearGradient id="paint14_linear_1_477996" x1="36.981" y1="17.7938" x2="29.7895" y2="19.7207" gradientUnits="userSpaceOnUse">
<stop stop-color="#FFDFCA"/>
<stop offset="1" stop-color="#FF9E62"/>
</linearGradient>
<linearGradient id="paint15_linear_1_477996" x1="22.5" y1="43.8846" x2="28.1658" y2="58.7671" gradientUnits="userSpaceOnUse">
<stop stop-color="#FFD130"/>
<stop offset="1" stop-color="#FFA44F"/>
</linearGradient>
<linearGradient id="paint16_linear_1_477996" x1="22.5" y1="43.8846" x2="28.1658" y2="58.7671" gradientUnits="userSpaceOnUse">
<stop stop-color="#FFAA67"/>
<stop offset="0.0001" stop-color="#FFAA67"/>
<stop offset="1" stop-color="#FF7455"/>
</linearGradient>
<linearGradient id="paint17_linear_1_477996" x1="23.5" y1="41" x2="33.5" y2="57" gradientUnits="userSpaceOnUse">
<stop stop-color="#FFD7BE"/>
<stop offset="1" stop-color="#FE9974"/>
</linearGradient>
<clipPath id="clip0_1_477996">
<rect width="41.9998" height="41.9998" fill="white" transform="translate(9 1)"/>
</clipPath>
</defs>
</svg>
