<svg width="16" height="16" viewBox="0 0 16 16" fill="none" xmlns="http://www.w3.org/2000/svg">
<g clip-path="url(#clip0_1_483478)">
<rect width="16.0001" height="16" rx="8" fill="#1A47B8"/>
<path d="M20.2668 0H2.13334C0.95513 0 0 0.955126 0 2.13333V13.8667C0 15.0449 0.95513 16 2.13334 16H20.2668C21.445 16 22.4001 15.0449 22.4001 13.8667V2.13333C22.4001 0.955126 21.445 0 20.2668 0Z" fill="#1A47B8"/>
<path opacity="0.5" fill-rule="evenodd" clip-rule="evenodd" d="M2.13281 12.2669L3.19948 11.7335L3.73282 10.6669L4.26616 11.7335L5.33283 12.2669L4.26616 12.8002L3.73282 13.8669L3.19948 12.8002L2.13281 12.2669ZM12.7995 3.2002V4.26686H13.8662V3.2002H12.7995ZM15.9995 4.26686V5.33353H17.0662V4.26686H15.9995ZM11.7329 6.4002V7.46686H12.7995V6.4002H11.7329ZM14.9329 7.46686V8.53353H15.9995V7.46686H14.9329ZM13.8662 10.6669V11.7335H14.9329V10.6669H13.8662Z" fill="white"/>
<path d="M10.133 2.7168H2.66628C2.07717 2.7168 1.59961 3.19436 1.59961 3.78346V9.1168C1.59961 9.7059 2.07717 10.1835 2.66628 10.1835H10.133C10.7221 10.1835 11.1997 9.7059 11.1997 9.1168V3.78346C11.1997 3.19436 10.7221 2.7168 10.133 2.7168Z" fill="white"/>
<path fill-rule="evenodd" clip-rule="evenodd" d="M5.86603 6.9832H2.66602V5.91654H5.86603V3.7832H6.9327V5.91654H10.1327V6.9832H6.9327V9.11654H5.86603V6.9832ZM8.53271 8.04987V9.11654H10.1327V8.04987H8.53271ZM8.53271 3.7832V4.84987H10.1327V3.7832H8.53271ZM2.66602 8.04987V9.11654H4.26602V8.04987H2.66602ZM2.66602 3.7832V4.84987H4.26602V3.7832H2.66602Z" fill="#F93939"/>
</g>
<defs>
<clipPath id="clip0_1_483478">
<rect width="16.0001" height="16" rx="8" fill="white"/>
</clipPath>
</defs>
</svg>
