<svg width="16" height="16" viewBox="0 0 16 16" fill="none" xmlns="http://www.w3.org/2000/svg">
<g clip-path="url(#clip0_1_482941)">
<path d="M17.0667 0H-1.06668C-2.24489 0 -3.20001 0.955126 -3.20001 2.13333V13.8667C-3.20001 15.0449 -2.24489 16 -1.06668 16H17.0667C18.2449 16 19.2 15.0449 19.2 13.8667V2.13333C19.2 0.955126 18.2449 0 17.0667 0Z" fill="#FFDA2C"/>
<path fill-rule="evenodd" clip-rule="evenodd" d="M-3.20001 0H4.26665V16H-3.20001V0Z" fill="#1A47B8"/>
<path fill-rule="evenodd" clip-rule="evenodd" d="M11.7336 0H19.2002V16H11.7336V0Z" fill="#F93939"/>
<path fill-rule="evenodd" clip-rule="evenodd" d="M9.53171 10.5973C10.1866 10.3978 10.6666 9.78874 10.6666 9.0666V5.8666C10.6666 4.97593 9.94985 4.2666 9.06665 4.2666H6.93331C6.05225 4.2666 5.33331 4.98127 5.33331 5.8666V9.0666C5.33331 9.79407 5.81118 10.3999 6.46825 10.5983C6.66665 11.2597 7.27678 11.7333 7.99998 11.7333C8.72745 11.7333 9.33331 11.2533 9.53171 10.5973Z" fill="#D4AF2C"/>
<path fill-rule="evenodd" clip-rule="evenodd" d="M6.3996 5.3335H7.46626V6.9335H6.3996V5.3335ZM8.53293 7.46683H9.5996V9.06683H8.53293V7.46683Z" fill="#AF010D"/>
<path fill-rule="evenodd" clip-rule="evenodd" d="M8.53293 5.3335H9.5996V6.9335H8.53293V5.3335ZM6.3996 7.46683H7.46626V9.06683H6.3996V7.46683Z" fill="#FFDA2C"/>
</g>
<defs>
<clipPath id="clip0_1_482941">
<rect width="16" height="16" rx="8" fill="white"/>
</clipPath>
</defs>
</svg>
