<svg width="16" height="16" viewBox="0 0 16 16" fill="none" xmlns="http://www.w3.org/2000/svg">
<g clip-path="url(#clip0_1_483180)">
<rect width="16" height="16" rx="8" fill="#F93939"/>
<path d="M17.0667 0H-1.06668C-2.24489 0 -3.20001 0.955126 -3.20001 2.13333V13.8667C-3.20001 15.0449 -2.24489 16 -1.06668 16H17.0667C18.2449 16 19.2 15.0449 19.2 13.8667V2.13333C19.2 0.955126 18.2449 0 17.0667 0Z" fill="#F93939"/>
<path fill-rule="evenodd" clip-rule="evenodd" d="M7.99999 4.88057L6.66303 3.98926L5.77172 4.88057H6.66303L5.77172 5.77187L3.98911 4.88057V9.33711L6.66303 8.4458L5.77172 10.2284H4.88041L5.77172 11.1197L6.66303 10.2284L7.99999 12.011V4.88057ZM9.33696 3.98926L10.2283 4.88057H9.33696L10.2283 5.77187L12.0109 4.88057V9.33711L9.33696 8.4458L10.2283 10.2284H11.1196L10.2283 11.1197L9.33696 10.2284L7.99999 12.011V4.88057L9.33696 3.98926Z" fill="#151515"/>
</g>
<defs>
<clipPath id="clip0_1_483180">
<rect width="16" height="16" rx="8" fill="white"/>
</clipPath>
</defs>
</svg>
