<svg width="16" height="16" viewBox="0 0 16 16" fill="none" xmlns="http://www.w3.org/2000/svg">
<g clip-path="url(#clip0_1_483340)">
<rect width="16" height="16" rx="8" fill="white"/>
<path d="M17.0667 0H-1.06668C-2.24489 0 -3.20001 0.955126 -3.20001 2.13333V13.8667C-3.20001 15.0449 -2.24489 16 -1.06668 16H17.0667C18.2449 16 19.2 15.0449 19.2 13.8667V2.13333C19.2 0.955126 18.2449 0 17.0667 0Z" fill="white"/>
<path fill-rule="evenodd" clip-rule="evenodd" d="M-3.20001 0H7.46665V16H-3.20001V0Z" fill="#249F58"/>
<path fill-rule="evenodd" clip-rule="evenodd" d="M10.7226 10.9474C9.84579 12.0749 8.47406 12.8002 6.93379 12.8002C4.28312 12.8002 2.13379 10.6509 2.13379 8.0002C2.13379 5.34953 4.28312 3.2002 6.93379 3.2002C8.47406 3.2002 9.84579 3.92553 10.7226 5.053C10.0453 4.5602 9.19299 4.26686 8.26712 4.26686C6.05912 4.26686 4.26712 5.93833 4.26712 8.0002C4.26712 10.0621 6.05912 11.7335 8.26712 11.7335C9.19299 11.7335 10.0453 11.4402 10.7226 10.9474Z" fill="#F93939"/>
<path fill-rule="evenodd" clip-rule="evenodd" d="M10.667 7.9999L11.7337 7.46657L12.267 6.3999L12.8003 7.46657L13.867 7.9999L12.8003 8.53324L12.267 9.5999L11.7337 8.53324L10.667 7.9999Z" fill="#F93939"/>
</g>
<defs>
<clipPath id="clip0_1_483340">
<rect width="16" height="16" rx="8" fill="white"/>
</clipPath>
</defs>
</svg>
