<svg width="16" height="16" viewBox="0 0 16 16" fill="none" xmlns="http://www.w3.org/2000/svg">
<g clip-path="url(#clip0_1_483183)">
<rect width="16" height="16" rx="8" fill="#F93939"/>
<path d="M17.0667 0H-1.06666C-2.24487 0 -3.2 0.955126 -3.2 2.13333V13.8667C-3.2 15.0449 -2.24487 16 -1.06666 16H17.0667C18.2449 16 19.2 15.0449 19.2 13.8667V2.13333C19.2 0.955126 18.2449 0 17.0667 0Z" fill="#F93939"/>
<path fill-rule="evenodd" clip-rule="evenodd" d="M-3.2 8.5332H19.2V15.9999H-3.2V8.5332Z" fill="#151515"/>
<path fill-rule="evenodd" clip-rule="evenodd" d="M10.5392 9.74588C11.0021 9.12508 11.2752 8.35495 11.2752 7.52081C11.2752 5.95601 10.312 4.61628 8.94667 4.06055L8.30134 4.96401C9.40427 5.29148 10.2085 6.31228 10.2085 7.52081C10.2085 8.15441 9.98774 8.73681 9.61867 9.19335L5.94187 6.98748L8.81761 9.86321C8.43894 10.0701 8.00374 10.1875 7.54187 10.1875C6.64587 10.1875 5.85334 9.74588 5.37014 9.06748L4.72481 9.97095C5.40854 10.7571 6.41654 11.2541 7.54187 11.2541C8.29921 11.2541 9.00534 11.028 9.59414 10.6397L10.2085 11.2541L11.2752 10.1875L10.5392 9.74588ZM5.94187 4.85415H7.00854V5.92081H5.94187V4.85415Z" fill="#FFDA2C"/>
</g>
<defs>
<clipPath id="clip0_1_483183">
<rect width="16" height="16" rx="8" fill="white"/>
</clipPath>
</defs>
</svg>
