<svg width="16" height="16" viewBox="0 0 16 16" fill="none" xmlns="http://www.w3.org/2000/svg">
<g clip-path="url(#clip0_1_483459)">
<path d="M17.0666 0H-1.06685C-2.24507 0 -3.2002 0.955126 -3.2002 2.13333V13.8667C-3.2002 15.0449 -2.24507 16 -1.06685 16H17.0666C18.2448 16 19.1999 15.0449 19.1999 13.8667V2.13333C19.1999 0.955126 18.2448 0 17.0666 0Z" fill="white"/>
<path fill-rule="evenodd" clip-rule="evenodd" d="M-3.2002 10.6667H19.1999V16H-3.2002V10.6667ZM-3.2002 0H19.1999V5.33333H-3.2002V0Z" fill="#3ECBF8"/>
<path d="M7.99942 9.60039C8.88308 9.60039 9.59943 8.88405 9.59943 8.00039C9.59943 7.11674 8.88308 6.40039 7.99942 6.40039C7.11576 6.40039 6.39941 7.11674 6.39941 8.00039C6.39941 8.88405 7.11576 9.60039 7.99942 9.60039Z" fill="#FFDA2C"/>
</g>
<defs>
<clipPath id="clip0_1_483459">
<rect width="16.0001" height="16" rx="8" fill="white"/>
</clipPath>
</defs>
</svg>
