<svg width="16" height="16" viewBox="0 0 16 16" fill="none" xmlns="http://www.w3.org/2000/svg">
<g clip-path="url(#clip0_1_482664)">
<rect width="16" height="16" rx="8" fill="#FFDA2C"/>
<path d="M17.0667 0H-1.06668C-2.24489 0 -3.20001 0.955126 -3.20001 2.13333V13.8667C-3.20001 15.0449 -2.24489 16 -1.06668 16H17.0667C18.2449 16 19.2 15.0449 19.2 13.8667V2.13333C19.2 0.955126 18.2449 0 17.0667 0Z" fill="#FFDA2C"/>
<path fill-rule="evenodd" clip-rule="evenodd" d="M-3.20001 0L19.2 14.9333L19.0688 16.1067L-3.20001 16V0Z" fill="#1A47B8"/>
<path fill-rule="evenodd" clip-rule="evenodd" d="M-2.13361 3.2002H-1.06694V4.26686H-2.13361V3.2002ZM1.06639 5.33353H2.13306V6.4002H1.06639V5.33353ZM4.26639 7.46686H5.33306V8.53353H4.26639V7.46686ZM7.46639 9.6002H8.53306V10.6669H7.46639V9.6002ZM10.6664 11.7335H11.7331V12.8002H10.6664V11.7335ZM13.8664 13.8669H14.9331V14.9335H13.8664V13.8669Z" fill="white"/>
</g>
<defs>
<clipPath id="clip0_1_482664">
<rect width="16" height="16" rx="8" fill="white"/>
</clipPath>
</defs>
</svg>
