<svg width="16" height="16" viewBox="0 0 16 16" fill="none" xmlns="http://www.w3.org/2000/svg">
<g clip-path="url(#clip0_1_482678)">
<path d="M17.0667 0H-1.06666C-2.24487 0 -3.2 0.955126 -3.2 2.13333V13.8667C-3.2 15.0449 -2.24487 16 -1.06666 16H17.0667C18.2449 16 19.2 15.0449 19.2 13.8667V2.13333C19.2 0.955126 18.2449 0 17.0667 0Z" fill="#F93939"/>
<path fill-rule="evenodd" clip-rule="evenodd" d="M-3.2 0L7.46667 8.53333L-3.2 16V0ZM19.2 0L8.53334 8.53333L19.2 16V0Z" fill="#00B731"/>
<path fill-rule="evenodd" clip-rule="evenodd" d="M4.4352 6.8864L-3.2 1.6V0H-1.6L5.70347 5.056C6.336 4.56107 7.1328 4.26667 8 4.26667C8.86614 4.26667 9.664 4.56107 10.2965 5.056L17.6 0H19.2V1.6L11.5648 6.8864C11.6747 7.2384 11.7333 7.61173 11.7333 8C11.7333 8.38827 11.6747 8.7616 11.5648 9.1136L19.2 14.4V16H17.6L10.2965 10.944C9.66294 11.4389 8.8672 11.7333 8 11.7333C7.13387 11.7333 6.336 11.4389 5.70347 10.944L-1.6 16H-3.2V14.4L4.4352 9.1136C4.32534 8.7616 4.26667 8.38827 4.26667 8C4.26667 7.61173 4.32534 7.2384 4.4352 6.8864Z" fill="white"/>
<path fill-rule="evenodd" clip-rule="evenodd" d="M7.46628 6.3999H8.53295V7.46657H7.46628V6.3999ZM8.53295 8.53324H9.59961V9.5999H8.53295V8.53324ZM6.39961 8.53324H7.46628V9.5999H6.39961V8.53324Z" fill="#AF010D"/>
</g>
<defs>
<clipPath id="clip0_1_482678">
<rect width="16" height="16" rx="8" fill="white"/>
</clipPath>
</defs>
</svg>
