<svg width="16" height="16" viewBox="0 0 16 16" fill="none" xmlns="http://www.w3.org/2000/svg">
<g clip-path="url(#clip0_1_483443)">
<rect width="16" height="16" rx="8" fill="#F93939"/>
<path d="M17.0667 0H-1.06668C-2.24489 0 -3.20001 0.955126 -3.20001 2.13333V13.8667C-3.20001 15.0449 -2.24489 16 -1.06668 16H17.0667C18.2449 16 19.2 15.0449 19.2 13.8667V2.13333C19.2 0.955126 18.2449 0 17.0667 0Z" fill="#F93939"/>
<path fill-rule="evenodd" clip-rule="evenodd" d="M-3.20001 8.5332H19.2V15.9999H-3.20001V8.5332Z" fill="#249F58"/>
<path fill-rule="evenodd" clip-rule="evenodd" d="M7.99945 9.8666L5.80532 11.0207L6.22452 8.57807L4.44745 6.84473L6.90078 6.48847L7.99945 4.2666L9.09811 6.48954L11.5514 6.8458L9.77438 8.577L10.1936 11.0218" fill="#FFDA2C"/>
</g>
<defs>
<clipPath id="clip0_1_483443">
<rect width="16" height="16" rx="8" fill="white"/>
</clipPath>
</defs>
</svg>
