<svg width="16" height="16" viewBox="0 0 16 16" fill="none" xmlns="http://www.w3.org/2000/svg">
<g clip-path="url(#clip0_1_483188)">
<path d="M17.0667 0H-1.06666C-2.24487 0 -3.2 0.955126 -3.2 2.13333V13.8667C-3.2 15.0449 -2.24487 16 -1.06666 16H17.0667C18.2449 16 19.2 15.0449 19.2 13.8667V2.13333C19.2 0.955126 18.2449 0 17.0667 0Z" fill="#FFDA2C"/>
<path fill-rule="evenodd" clip-rule="evenodd" d="M6.39961 7.4668H7.46628V8.53346H6.39961V7.4668ZM8.53295 7.4668H9.59961V8.53346H8.53295V7.4668Z" fill="#03BCDB"/>
<path fill-rule="evenodd" clip-rule="evenodd" d="M9.60001 7.46657H10.6667V9.5999H9.60001V7.46657ZM8.53334 6.3999H9.60001V7.46657H8.53334V6.3999ZM6.40001 6.3999H7.46668V7.46657H6.40001V6.3999ZM5.33334 7.46657H6.40001V9.5999H5.33334V7.46657Z" fill="#AF010D"/>
<path fill-rule="evenodd" clip-rule="evenodd" d="M7.467 8.5332H8.53366V9.59987H7.467V8.5332Z" fill="#249F58"/>
<path fill-rule="evenodd" clip-rule="evenodd" d="M7.467 6.3999H8.53366V7.46657H7.467V6.3999Z" fill="#151515"/>
<path fill-rule="evenodd" clip-rule="evenodd" d="M8.53295 8.5332H9.59961V9.59987H8.53295V8.5332ZM6.39961 8.5332H7.46628V9.59987H6.39961V8.5332Z" fill="#D4AF2C"/>
<path fill-rule="evenodd" clip-rule="evenodd" d="M7.467 7.4668H8.53366V8.53346H7.467V7.4668Z" fill="#249F58"/>
<path fill-rule="evenodd" clip-rule="evenodd" d="M-3.2 10.6665H19.2V15.9998H-3.2V10.6665Z" fill="#249F58"/>
<path fill-rule="evenodd" clip-rule="evenodd" d="M-3.2 0H19.2V5.33333H-3.2V0Z" fill="#F93939"/>
</g>
<defs>
<clipPath id="clip0_1_483188">
<rect width="16" height="16" rx="8" fill="white"/>
</clipPath>
</defs>
</svg>
