<svg width="16" height="16" viewBox="0 0 16 16" fill="none" xmlns="http://www.w3.org/2000/svg">
<g clip-path="url(#clip0_1_482775)">
<path d="M17.0667 0H-1.06666C-2.24487 0 -3.2 0.955126 -3.2 2.13333V13.8667C-3.2 15.0449 -2.24487 16 -1.06666 16H17.0667C18.2449 16 19.2 15.0449 19.2 13.8667V2.13333C19.2 0.955126 18.2449 0 17.0667 0Z" fill="#FFDA2C"/>
<path fill-rule="evenodd" clip-rule="evenodd" d="M-3.2 0H4.26667V16H-3.2V0ZM11.7333 0H19.2V16H11.7333V0Z" fill="#1A47B8"/>
<path fill-rule="evenodd" clip-rule="evenodd" d="M7.46668 10.6665H8.53334V11.7332H7.46668V10.6665ZM9.60001 8.5332H10.6667V9.59987H9.60001V8.5332ZM5.33334 8.5332H6.40001V9.59987H5.33334V8.5332Z" fill="#AE6A3E"/>
<path fill-rule="evenodd" clip-rule="evenodd" d="M8.53334 8.53327V4.2666H7.46668V8.53327H6.40001V9.59994H7.46668V10.6666H8.53334V9.59994H9.60001V8.53327H8.53334ZM9.60001 5.33327H10.6667V8.53327H9.60001V5.33327ZM5.33334 5.33327H6.40001V8.53327H5.33334V5.33327Z" fill="#151515"/>
</g>
<defs>
<clipPath id="clip0_1_482775">
<rect width="16" height="16" rx="8" fill="white"/>
</clipPath>
</defs>
</svg>
