<svg width="16" height="16" viewBox="0 0 16 16" fill="none" xmlns="http://www.w3.org/2000/svg">
<rect width="16.0001" height="16" rx="8" fill="#249F58"/>
<path fill-rule="evenodd" clip-rule="evenodd" d="M7.99964 3.30664L14.3997 7.99997L7.99964 12.6933L1.59961 7.99997" fill="#FFDA2C"/>
<path d="M7.99938 10.987C9.64887 10.987 10.9861 9.64983 10.9861 8.00034C10.9861 6.35085 9.64887 5.01367 7.99938 5.01367C6.34988 5.01367 5.0127 6.35085 5.0127 8.00034C5.0127 9.64983 6.34988 10.987 7.99938 10.987Z" fill="#1A47B8"/>
<path fill-rule="evenodd" clip-rule="evenodd" d="M6.71973 9.28027V10.1336H7.57306V9.28027H6.71973ZM8.4264 9.28027V10.1336H9.27974V9.28027H8.4264Z" fill="white"/>
<path fill-rule="evenodd" clip-rule="evenodd" d="M5.86621 6.71973C5.86621 6.71973 7.79817 7.06106 9.19081 7.65669L10.9862 8.42639" fill="white"/>
<path d="M5.86621 6.71973C5.86621 6.71973 7.79817 7.06106 9.19081 7.65669L10.9862 8.42639" stroke="white" stroke-width="0.666668"/>
</svg>
