<svg width="16" height="16" viewBox="0 0 16 16" fill="none" xmlns="http://www.w3.org/2000/svg">
<g clip-path="url(#clip0_1_483160)">
<rect width="16" height="16" rx="8" fill="#FFD702"/>
<path fill-rule="evenodd" clip-rule="evenodd" d="M-3.20001 16H19.2V2.1333L-3.20001 13.8666V16Z" fill="#013088"/>
<path fill-rule="evenodd" clip-rule="evenodd" d="M-18 26L18 5.46667V-2L-18 18.5333V26Z" fill="white"/>
<path d="M2.00004 9.0018C2.00584 8.98545 2.01972 8.9814 2.0312 8.9748C2.14249 8.9111 2.25334 8.84658 2.36565 8.7847C2.3962 8.76786 2.41068 8.74746 2.41377 8.71261C2.4287 8.54411 2.46493 8.37942 2.51654 8.21878C2.62718 7.87434 2.80173 7.56536 3.04095 7.29284C3.25071 7.05392 3.49574 6.85944 3.77541 6.70843C3.95543 6.61121 4.14462 6.53617 4.34254 6.48363C4.46799 6.45036 4.59487 6.42413 4.7243 6.41155C4.72831 6.41114 4.73237 6.41009 4.73639 6.41013C4.77915 6.41074 4.80358 6.38835 4.82402 6.35172C4.88436 6.24341 4.9483 6.13713 5.0107 6.02999C5.01679 6.01951 5.02198 6.0085 5.03257 6C5.04917 6.00376 5.05318 6.01931 5.06028 6.03145C5.1252 6.14186 5.1906 6.25204 5.2541 6.36326C5.26952 6.39026 5.28729 6.40572 5.31943 6.40843C5.39079 6.41446 5.46151 6.42563 5.53203 6.43879C5.67842 6.46611 5.82144 6.50545 5.96089 6.55709C6.19406 6.64343 6.41093 6.7604 6.61079 6.90813C6.90353 7.12455 7.14202 7.38958 7.32517 7.70398C7.42668 7.87831 7.50657 8.0621 7.56455 8.25508C7.60922 8.40379 7.642 8.55524 7.65621 8.71006C7.65933 8.7441 7.67154 8.76608 7.70274 8.78324C7.81631 8.84561 7.92829 8.91081 8.04084 8.97493C8.04672 8.97824 8.05309 8.98088 8.05849 8.9848C8.07419 8.99626 8.07435 9.00358 8.05666 9.01415C8.01264 9.04045 7.96805 9.06583 7.92358 9.09133C7.84982 9.13363 7.77671 9.17722 7.70169 9.21717C7.67154 9.23323 7.65945 9.2542 7.65653 9.28682C7.6444 9.42278 7.61721 9.55622 7.58082 9.68756C7.52118 9.90281 7.43565 10.1076 7.32204 10.3002C7.067 10.7327 6.71693 11.0668 6.2729 11.3023C6.07036 11.4098 5.85686 11.4884 5.63294 11.5389C5.52469 11.5634 5.41575 11.5829 5.30522 11.5925C5.27812 11.5948 5.26851 11.6116 5.25771 11.6301C5.19511 11.7372 5.13291 11.8445 5.07006 11.9514C5.06008 11.9684 5.05355 11.9884 5.0357 12C5.02121 11.993 5.01703 11.9798 5.01042 11.9684C4.94566 11.8579 4.88014 11.7479 4.81668 11.6367C4.80065 11.6087 4.78313 11.5944 4.74872 11.5907C4.59276 11.5737 4.43927 11.544 4.28829 11.4996C3.76608 11.3462 3.33267 11.0587 2.98618 10.6415C2.77986 10.393 2.62686 10.1142 2.52624 9.80704C2.47065 9.63729 2.43101 9.4643 2.41385 9.28662C2.41048 9.25161 2.39575 9.23129 2.36557 9.21458C2.25338 9.15249 2.14241 9.08817 2.03104 9.02459C2.02065 9.01864 2.00909 9.01419 2 9.00192L2.00004 9.0018ZM7.31774 8.99516C7.31563 8.87479 7.30715 8.75001 7.28622 8.62587C7.25242 8.4252 7.19286 8.2327 7.10571 8.04915C6.92012 7.65825 6.64431 7.34526 6.28105 7.10917C6.06987 6.97192 5.8412 6.87352 5.59707 6.81241C5.46066 6.77829 5.32178 6.75841 5.18099 6.74923C4.94002 6.73352 4.70283 6.75574 4.46925 6.81358C4.29982 6.85555 4.13732 6.9178 3.98201 6.99819C3.66724 7.16114 3.40323 7.38371 3.19253 7.66812C2.94507 8.00212 2.80063 8.37675 2.76237 8.79004C2.73807 9.05239 2.75763 9.31236 2.82591 9.5682C2.88259 9.78065 2.96686 9.98104 3.08258 10.1678C3.30821 10.532 3.61263 10.8115 3.99467 11.0069C4.17725 11.1003 4.36944 11.1668 4.56987 11.208C4.71699 11.2382 4.8661 11.2537 5.01687 11.2547C5.31788 11.2566 5.60863 11.2039 5.88778 11.0924C6.19561 10.9695 6.46497 10.7886 6.69368 10.5483C6.97336 10.2546 7.16174 9.91155 7.25664 9.51712C7.29758 9.34697 7.31596 9.17471 7.31778 8.99508L7.31774 8.99516Z" fill="black"/>
<path d="M5.03917 7.50391C5.06453 7.54661 5.08875 7.58672 5.11236 7.62719C5.22309 7.81702 5.33361 8.00701 5.44425 8.19687C5.44969 8.20618 5.45594 8.21505 5.46109 8.22452C5.46973 8.24034 5.48284 8.24763 5.50069 8.24759C5.51554 8.24759 5.53043 8.24844 5.54528 8.24844C5.79542 8.24848 6.04559 8.24844 6.29573 8.24848C6.35168 8.24848 6.35208 8.2488 6.32445 8.29628C6.19486 8.51885 6.06547 8.74154 5.9347 8.96338C5.91965 8.98892 5.91904 9.00831 5.93389 9.03348C6.03861 9.21125 6.1422 9.3897 6.24615 9.56791C6.27536 9.61798 6.30481 9.66792 6.33362 9.71823C6.34811 9.74353 6.34356 9.75158 6.315 9.75328C6.30559 9.75385 6.29609 9.75341 6.2866 9.75341C6.03374 9.75341 5.78089 9.75446 5.52804 9.75235C5.48706 9.75199 5.4645 9.76522 5.44466 9.79975C5.32635 10.0054 5.20613 10.21 5.0866 10.415C5.07439 10.436 5.06307 10.4575 5.05013 10.478C5.03917 10.4953 5.03183 10.4957 5.02063 10.4778C4.99848 10.4424 4.97782 10.406 4.95673 10.3699C4.84373 10.1768 4.73 9.98403 4.61867 9.78991C4.60175 9.76041 4.58223 9.75276 4.55079 9.75288C4.29522 9.75385 4.03969 9.75341 3.78412 9.75341C3.776 9.75341 3.76789 9.75361 3.75977 9.75337C3.72634 9.75227 3.72139 9.7441 3.73859 9.71443C3.80282 9.60361 3.86753 9.49307 3.93221 9.3825C4.00163 9.26378 4.0706 9.14483 4.14128 9.02689C4.15593 9.00244 4.14822 8.98516 4.13601 8.96427C4.00248 8.73624 3.86952 8.50788 3.73636 8.2796C3.73234 8.27268 3.72707 8.26641 3.7265 8.2554C3.73936 8.24366 3.75624 8.24872 3.77125 8.24868C3.95513 8.24828 4.13905 8.24844 4.32293 8.24844C4.3973 8.24844 4.47167 8.24775 4.54604 8.24872C4.57988 8.24917 4.60175 8.23889 4.62021 8.20675C4.74777 7.98462 4.87797 7.764 5.00732 7.54292C5.01475 7.53021 5.01994 7.51589 5.03917 7.50391Z" fill="#F93939"/>
</g>
<defs>
<clipPath id="clip0_1_483160">
<rect width="16" height="16" rx="8" fill="white"/>
</clipPath>
</defs>
</svg>
