<svg width="16" height="16" viewBox="0 0 16 16" fill="none" xmlns="http://www.w3.org/2000/svg">
<g clip-path="url(#clip0_1_482762)">
<rect width="16" height="16" rx="8" fill="#1A47B8"/>
<path fill-rule="evenodd" clip-rule="evenodd" d="M0 8.5332H22.4V9.59987H0V8.5332Z" fill="white"/>
<path fill-rule="evenodd" clip-rule="evenodd" d="M0 9.6001H22.4V10.6668H0V9.6001Z" fill="#F93939"/>
<path fill-rule="evenodd" clip-rule="evenodd" d="M0 10.6665H22.4V11.7332H0V10.6665Z" fill="white"/>
<path fill-rule="evenodd" clip-rule="evenodd" d="M5.33333 7.46657H6.4V8.53324H5.33333V7.46657ZM7.46666 6.3999H8.53333V7.46657H7.46666V6.3999ZM9.6 7.46657H10.6667V8.53324H9.6V7.46657ZM10.6667 9.5999H11.7333V10.6666H10.6667V9.5999ZM4.26666 9.5999H5.33333V10.6666H4.26666V9.5999ZM9.6 11.7332H10.6667V12.7999H9.6V11.7332ZM7.46666 12.7999H8.53333V13.8666H7.46666V12.7999ZM5.33333 11.7332H6.4V12.7999H5.33333V11.7332Z" fill="#FFDA2C"/>
</g>
<defs>
<clipPath id="clip0_1_482762">
<rect width="16" height="16" rx="8" fill="white"/>
</clipPath>
</defs>
</svg>
