<svg width="16" height="16" viewBox="0 0 16 16" fill="none" xmlns="http://www.w3.org/2000/svg">
<g clip-path="url(#clip0_1_483403)">
<rect width="16" height="16" rx="8" fill="#1A47B8"/>
<path fill-rule="evenodd" clip-rule="evenodd" d="M5.33332 5.33353H4.79506C4.49678 5.33353 4.26665 5.57231 4.26665 5.86686C4.26665 6.1528 4.50323 6.4002 4.79506 6.4002H5.33332V6.93845C5.33332 7.23673 5.5721 7.46686 5.86665 7.46686C6.15259 7.46686 6.39998 7.23028 6.39998 6.93845V6.4002H6.93823C7.23651 6.4002 7.46665 6.16141 7.46665 5.86686C7.46665 5.58092 7.23007 5.33353 6.93823 5.33353H6.39998V4.79528C6.39998 4.497 6.1612 4.26686 5.86665 4.26686C5.58071 4.26686 5.33332 4.50344 5.33332 4.79528V5.33353ZM3.19998 3.2002H4.26665V4.26686H3.19998V3.2002Z" fill="white"/>
<path d="M22.4 9.6001H0V11.7334H22.4V9.6001Z" fill="#FFDA2C"/>
</g>
<defs>
<clipPath id="clip0_1_483403">
<rect width="16" height="16" rx="8" fill="white"/>
</clipPath>
</defs>
</svg>
