<svg width="16" height="16" viewBox="0 0 16 16" fill="none" xmlns="http://www.w3.org/2000/svg">
<g clip-path="url(#clip0_1_483096)">
<rect width="16" height="16" rx="8" fill="white"/>
<path d="M8.2196 12.3921H7.78039L7.89019 10.6352C7.88398 10.5427 7.83957 10.5184 7.67058 10.5254L5.91372 10.745C5.91372 10.745 6.24313 10.3058 6.24313 10.0862C6.24313 9.8666 4.26666 8.43915 4.26666 8.43915C4.26666 8.43915 4.70588 8.32935 4.81568 8.21954C4.92549 8.10974 4.37647 6.9019 4.37647 6.9019C4.37647 6.9019 5.49232 7.34111 5.58431 7.23131C5.6763 7.1215 5.80392 6.68229 5.80392 6.68229C5.80392 6.68229 6.68235 7.67052 6.90196 7.67052C7.12156 7.67052 6.46274 5.25484 6.46274 5.25484C6.46274 5.25484 7.01176 5.69405 7.23137 5.69405C7.45098 5.69405 8 4.2666 8 4.2666C8 4.2666 8.54902 5.69405 8.65882 5.69405C8.76862 5.69405 9.53725 5.25484 9.53725 5.25484C9.53725 5.25484 8.98823 7.56072 9.09804 7.67052C9.20784 7.78033 10.1961 6.68229 10.1961 6.68229C10.1961 6.68229 10.3059 7.1215 10.4157 7.23131C10.5255 7.34111 11.6235 6.9019 11.6235 6.9019C11.6235 6.9019 11.0745 8.10974 11.1843 8.21954C11.2941 8.32935 11.7333 8.43915 11.7333 8.43915C11.7333 8.43915 9.75686 9.8666 9.75686 10.0862C9.75686 10.3058 9.97647 10.745 9.97647 10.745L8.32941 10.5254C8.19702 10.4875 8.15113 10.5163 8.1098 10.6352L8.2196 12.3921Z" fill="#F93939"/>
<rect x="13.8662" width="5.33333" height="16" fill="#F93939"/>
<rect x="-3.20001" width="5.33333" height="16" fill="#F93939"/>
</g>
<defs>
<clipPath id="clip0_1_483096">
<rect width="16" height="16" rx="8" fill="white"/>
</clipPath>
</defs>
</svg>
