<svg width="16" height="16" viewBox="0 0 16 16" fill="none" xmlns="http://www.w3.org/2000/svg">
<g clip-path="url(#clip0_1_482710)">
<path d="M17.0667 0H-1.06668C-2.24489 0 -3.20001 0.955126 -3.20001 2.13333V13.8667C-3.20001 15.0449 -2.24489 16 -1.06668 16H17.0667C18.2449 16 19.2 15.0449 19.2 13.8667V2.13333C19.2 0.955126 18.2449 0 17.0667 0Z" fill="white"/>
<path fill-rule="evenodd" clip-rule="evenodd" d="M-3.20001 10.6665H19.2V15.9998H-3.20001V10.6665Z" fill="#FFDA2C"/>
<path fill-rule="evenodd" clip-rule="evenodd" d="M-3.20001 8.5332H19.2V11.7332H-3.20001V8.5332Z" fill="#249F58"/>
<path fill-rule="evenodd" clip-rule="evenodd" d="M-3.20001 0H19.2V5.33333H-3.20001V0Z" fill="#1A47B8"/>
<path fill-rule="evenodd" clip-rule="evenodd" d="M0 2.1333H1.06667V3.19997H0V2.1333Z" fill="#FFDA2C"/>
<path fill-rule="evenodd" clip-rule="evenodd" d="M2.13379 2.13356H3.20046V3.20023H2.13379V2.13356ZM4.26712 2.13356H5.33379V3.20023H4.26712V2.13356ZM3.20046 3.20023H4.26712V4.26689H3.20046V3.20023ZM3.20046 1.06689H4.26712V2.13356H3.20046V1.06689Z" fill="#D4AF2C"/>
<path fill-rule="evenodd" clip-rule="evenodd" d="M6.40039 0H9.60039V16H6.40039V0Z" fill="#F93939"/>
</g>
<defs>
<clipPath id="clip0_1_482710">
<rect width="16" height="16" rx="8" fill="white"/>
</clipPath>
</defs>
</svg>
