<svg width="16" height="16" viewBox="0 0 16 16" fill="none" xmlns="http://www.w3.org/2000/svg">
<g clip-path="url(#clip0_1_482727)">
<rect width="16" height="16" rx="8" fill="white"/>
<path fill-rule="evenodd" clip-rule="evenodd" d="M-3.20001 10.6665H19.2V15.9998H-3.20001V10.6665Z" fill="#1A47B8"/>
<path fill-rule="evenodd" clip-rule="evenodd" d="M-3.20001 0H19.2V5.33333H-3.20001V0Z" fill="#F93939"/>
<path fill-rule="evenodd" clip-rule="evenodd" d="M5.33301 4.26686H6.39967V5.33353H5.33301V4.26686ZM7.46634 3.2002H8.53301V5.33353H7.46634V3.2002ZM9.59967 4.26686H10.6663V5.33353H9.59967V4.26686Z" fill="#3A99FF"/>
<path fill-rule="evenodd" clip-rule="evenodd" d="M8.53372 3.2002H9.60039V5.33353H8.53372V3.2002ZM6.40039 3.2002H7.46706V5.33353H6.40039V3.2002Z" fill="#1A47B8"/>
<mask id="mask0_1_482727" style="mask-type:alpha" maskUnits="userSpaceOnUse" x="5" y="5" width="6" height="7">
<path d="M10.6663 9.06683C10.6663 10.5388 9.47167 11.7335 7.99967 11.7335C6.52767 11.7335 5.33301 10.5388 5.33301 9.06683V5.3335H10.6663V9.06683Z" fill="white"/>
</mask>
<g mask="url(#mask0_1_482727)">
<path d="M10.6663 9.06683C10.6663 10.5388 9.47167 11.7335 7.99967 11.7335C6.52767 11.7335 5.33301 10.5388 5.33301 9.06683V5.3335H10.6663V9.06683Z" fill="#F93939"/>
<path fill-rule="evenodd" clip-rule="evenodd" d="M6.39967 10.6668H7.46634V11.7335H6.39967V10.6668ZM8.53301 10.6668H9.59967V11.7335H8.53301V10.6668ZM7.46634 9.60016H8.53301V10.6668H7.46634V9.60016ZM6.39967 8.5335H7.46634V9.60016H6.39967V8.5335ZM8.53301 8.5335H9.59967V9.60016H8.53301V8.5335ZM7.46634 7.46683H8.53301V8.5335H7.46634V7.46683ZM6.39967 6.40016H7.46634V7.46683H6.39967V6.40016ZM8.53301 6.40016H9.59967V7.46683H8.53301V6.40016ZM7.46634 5.3335H8.53301V6.40016H7.46634V5.3335ZM9.59967 5.3335H10.6663V6.40016H9.59967V5.3335ZM9.59967 7.46683H10.6663V8.5335H9.59967V7.46683ZM9.59967 9.60016H10.6663V10.6668H9.59967V9.60016ZM5.33301 9.60016H6.39967V10.6668H5.33301V9.60016ZM5.33301 7.46683H6.39967V8.5335H5.33301V7.46683ZM5.33301 5.3335H6.39967V6.40016H5.33301V5.3335Z" fill="white"/>
</g>
</g>
<defs>
<clipPath id="clip0_1_482727">
<rect width="16" height="16" rx="8" fill="white"/>
</clipPath>
</defs>
</svg>
