<svg width="16" height="16" viewBox="0 0 16 16" fill="none" xmlns="http://www.w3.org/2000/svg">
<g clip-path="url(#clip0_1_483416)">
<rect width="16" height="16" rx="8" fill="#F93939"/>
<path d="M20.2667 0H2.13333C0.955126 0 0 0.955126 0 2.13333V13.8667C0 15.0449 0.955126 16 2.13333 16H20.2667C21.4449 16 22.4 15.0449 22.4 13.8667V2.13333C22.4 0.955126 21.4449 0 20.2667 0Z" fill="#F93939"/>
<path fill-rule="evenodd" clip-rule="evenodd" d="M5.86466 7.7122L4.29666 8.53673L4.59533 6.7906L3.32812 5.55326L5.08066 5.30046L5.86466 3.71113L6.64759 5.30046L8.40013 5.55326L7.13079 6.7906L7.43159 8.53566L5.86466 7.7122ZM9.60013 3.2002H10.6668V4.26686H9.60013V3.2002ZM10.6668 5.33353H11.7335V6.4002H10.6668V5.33353ZM10.6668 7.46686H11.7335V8.53353H10.6668V7.46686ZM9.60013 9.6002H10.6668V10.6669H9.60013V9.6002Z" fill="#FFDA2C"/>
</g>
<defs>
<clipPath id="clip0_1_483416">
<rect width="16" height="16" rx="8" fill="white"/>
</clipPath>
</defs>
</svg>
