<svg width="16" height="16" viewBox="0 0 16 16" fill="none" xmlns="http://www.w3.org/2000/svg">
<g clip-path="url(#clip0_1_483155)">
<rect width="16" height="16" rx="8" fill="#3A99FF"/>
<path d="M20.2667 0H2.13333C0.955126 0 0 0.955126 0 2.13333V13.8667C0 15.0449 0.955126 16 2.13333 16H20.2667C21.4449 16 22.4 15.0449 22.4 13.8667V2.13333C22.4 0.955126 21.4449 0 20.2667 0Z" fill="#3A99FF"/>
<path fill-rule="evenodd" clip-rule="evenodd" d="M0 0H22.4V8.53333H0V0Z" fill="#249F58"/>
<path fill-rule="evenodd" clip-rule="evenodd" d="M0 0L22.4 8L0 16V0Z" fill="#F93939"/>
<path fill-rule="evenodd" clip-rule="evenodd" d="M9.60001 7.99994C9.60001 6.52794 8.40535 5.33328 6.93335 4.79994C5.46135 5.33328 4.26668 6.52794 4.26668 7.99994C4.26668 9.29061 5.18401 10.3658 6.40001 10.6133V6.93114C6.40001 6.63781 6.64748 6.39994 6.93335 6.39994C7.22775 6.39994 7.46668 6.62928 7.46668 6.93114V10.6133C8.68268 10.3658 9.60001 9.29061 9.60001 7.99994ZM10.6667 7.99994C10.6667 5.93808 8.99521 4.26661 6.93335 4.79994C4.87148 4.26661 3.20001 5.93808 3.20001 7.99994C3.20001 10.0618 4.87148 11.7333 6.93335 11.7333C8.99521 11.7333 10.6667 10.0618 10.6667 7.99994Z" fill="#FFDA2C"/>
</g>
<defs>
<clipPath id="clip0_1_483155">
<rect width="16" height="16" rx="8" fill="white"/>
</clipPath>
</defs>
</svg>
