<svg width="16" height="16" viewBox="0 0 16 16" fill="none" xmlns="http://www.w3.org/2000/svg">
<g clip-path="url(#clip0_1_482691)">
<path d="M17.0667 0H-1.06666C-2.24487 0 -3.2 0.955126 -3.2 2.13333V13.8667C-3.2 15.0449 -2.24487 16 -1.06666 16H17.0667C18.2449 16 19.2 15.0449 19.2 13.8667V2.13333C19.2 0.955126 18.2449 0 17.0667 0Z" fill="#1A47B8"/>
<path fill-rule="evenodd" clip-rule="evenodd" d="M-3.2 11.7334H19.2V16.0001H-3.2V11.7334Z" fill="#F93939"/>
<path fill-rule="evenodd" clip-rule="evenodd" d="M-3.2 0H19.2V8.53333H-3.2V0Z" fill="#FFDA2C"/>
<path fill-rule="evenodd" clip-rule="evenodd" d="M3.2 4.2666H6.4L8 5.33327L9.6 4.2666H12.8L9.6 5.33327L8.53333 6.39994H7.46666L6.4 5.33327L3.2 4.2666Z" fill="#151515"/>
<path d="M8.00039 10.6666C8.88405 10.6666 9.60039 9.71144 9.60039 8.53324C9.60039 7.35503 8.88405 6.3999 8.00039 6.3999C7.11674 6.3999 6.40039 7.35503 6.40039 8.53324C6.40039 9.71144 7.11674 10.6666 8.00039 10.6666Z" fill="#3ECBF8"/>
<path fill-rule="evenodd" clip-rule="evenodd" d="M5.33333 7.4668V9.60013L7.46666 10.6668H8.53333L10.6667 9.60013V7.4668L11.7333 9.60013L10.6667 10.6668L8.53333 11.7335H7.46666L5.33333 10.6668L4.26666 9.60013L5.33333 7.4668Z" fill="#FFDA2C"/>
</g>
<defs>
<clipPath id="clip0_1_482691">
<rect width="16" height="16" rx="8" fill="white"/>
</clipPath>
</defs>
</svg>
