<svg width="16" height="16" viewBox="0 0 16 16" fill="none" xmlns="http://www.w3.org/2000/svg">
<g clip-path="url(#clip0_1_482669)">
<path d="M17.0667 0H-1.06668C-2.24489 0 -3.20001 0.955126 -3.20001 2.13333V13.8667C-3.20001 15.0449 -2.24489 16 -1.06668 16H17.0667C18.2449 16 19.2 15.0449 19.2 13.8667V2.13333C19.2 0.955126 18.2449 0 17.0667 0Z" fill="white"/>
<path fill-rule="evenodd" clip-rule="evenodd" d="M-3.20001 10.6665H19.2V15.9998H-3.20001V10.6665Z" fill="#151515"/>
<path fill-rule="evenodd" clip-rule="evenodd" d="M-3.20001 0H19.2V5.33333H-3.20001V0Z" fill="#F93939"/>
<path fill-rule="evenodd" clip-rule="evenodd" d="M7.99967 7.46657L6.39967 6.3999L5.33301 7.46657L6.39967 9.5999L7.46634 8.53324H8.53301L9.59967 9.5999L10.6663 7.46657L9.59967 6.3999L7.99967 7.46657Z" fill="#D4AF2C"/>
</g>
<defs>
<clipPath id="clip0_1_482669">
<rect width="16" height="16" rx="8" fill="white"/>
</clipPath>
</defs>
</svg>
