<svg width="16" height="16" viewBox="0 0 16 16" fill="none" xmlns="http://www.w3.org/2000/svg">
<rect width="16.0001" height="16" rx="8" fill="#1A47B8"/>
<ellipse cx="8.00034" cy="8.26595" rx="5.33335" ry="5.33333" fill="#1A47B8"/>
<path d="M3.02652 9.22925L3.60817 8.89981L4.18981 9.22925L4.07875 8.53185L4.54934 8.03866L3.89993 7.93656L3.60817 7.30273L3.3164 7.93656L2.66699 8.03866L3.13758 8.53185L3.02652 9.22925Z" fill="#FFDA2C"/>
<path d="M11.8107 9.22925L12.3923 8.89981L12.974 9.22925L12.8629 8.53185L13.3335 8.03866L12.6841 7.93656L12.3923 7.30273L12.1006 7.93656L11.4512 8.03866L11.9218 8.53185L11.8107 9.22925Z" fill="#FFDA2C"/>
<path d="M7.60562 13.5994L8.18727 13.2699L8.76891 13.5994L8.65785 12.902L9.12844 12.4088L8.47903 12.3067L8.18727 11.6729L7.8955 12.3067L7.24609 12.4088L7.71668 12.902L7.60562 13.5994Z" fill="#FFDA2C"/>
<path d="M10.6867 12.5076L11.2683 12.1781L11.85 12.5076L11.7389 11.8102L12.2095 11.317L11.5601 11.2149L11.2683 10.5811L10.9766 11.2149L10.3271 11.317L10.7977 11.8102L10.6867 12.5076Z" fill="#FFDA2C"/>
<path d="M4.2814 12.5076L4.86305 12.1781L5.44469 12.5076L5.33364 11.8102L5.80422 11.317L5.15481 11.2149L4.86305 10.5811L4.57128 11.2149L3.92188 11.317L4.39246 11.8102L4.2814 12.5076Z" fill="#FFDA2C"/>
<path d="M7.60562 4.85913L8.18727 4.5297L8.76891 4.85913L8.65785 4.16173L9.12844 3.66855L8.47903 3.56644L8.18727 2.93262L7.8955 3.56644L7.24609 3.66855L7.71668 4.16173L7.60562 4.85913Z" fill="#FFDA2C"/>
<path d="M10.7435 5.9519L11.3251 5.62247L11.9068 5.9519L11.7957 5.25451L12.2663 4.76132L11.6169 4.65921L11.3251 4.02539L11.0334 4.65921L10.3839 4.76132L10.8545 5.25451L10.7435 5.9519Z" fill="#FFDA2C"/>
<path d="M4.2814 5.9519L4.86305 5.62247L5.44469 5.9519L5.33364 5.25451L5.80422 4.76132L5.15481 4.65921L4.86305 4.02539L4.57128 4.65921L3.92188 4.76132L4.39246 5.25451L4.2814 5.9519Z" fill="#FFDA2C"/>
</svg>
