<svg width="16" height="16" viewBox="0 0 16 16" fill="none" xmlns="http://www.w3.org/2000/svg">
<g clip-path="url(#clip0_1_483255)">
<rect width="16" height="16" rx="8" fill="white"/>
<path fill-rule="evenodd" clip-rule="evenodd" d="M-3.20001 10.6667H19.2V16H-3.20001V10.6667ZM-3.20001 0H19.2V5.33333H-3.20001V0Z" fill="#1A47B8"/>
<path d="M8.00039 9.5999C8.88405 9.5999 9.60039 8.88356 9.60039 7.9999C9.60039 7.11625 8.88405 6.3999 8.00039 6.3999C7.11674 6.3999 6.40039 7.11625 6.40039 7.9999C6.40039 8.88356 7.11674 9.5999 8.00039 9.5999Z" fill="#1A47B8"/>
<path d="M8.00001 8.53346C8.29456 8.53346 8.53334 8.29468 8.53334 8.00013C8.53334 7.70558 8.29456 7.4668 8.00001 7.4668C7.70546 7.4668 7.46667 7.70558 7.46667 8.00013C7.46667 8.29468 7.70546 8.53346 8.00001 8.53346Z" fill="#FFDA2C"/>
<path fill-rule="evenodd" clip-rule="evenodd" d="M5.33301 7.4668L6.39967 8.53346L7.99967 9.60013L9.59967 8.53346L10.6663 7.4668L9.59967 9.60013H6.39967L5.33301 7.4668Z" fill="#249F58"/>
</g>
<defs>
<clipPath id="clip0_1_483255">
<rect width="16" height="16" rx="8" fill="white"/>
</clipPath>
</defs>
</svg>
