<svg width="16" height="16" viewBox="0 0 16 16" fill="none" xmlns="http://www.w3.org/2000/svg">
<g clip-path="url(#clip0_1_483383)">
<rect width="16" height="16" rx="8" fill="white"/>
<path fill-rule="evenodd" clip-rule="evenodd" d="M-3.20001 10.6665H19.2V15.9998H-3.20001V10.6665Z" fill="#F93939"/>
<path fill-rule="evenodd" clip-rule="evenodd" d="M-3.20001 0H19.2V5.33333H-3.20001V0Z" fill="#00B731"/>
<path fill-rule="evenodd" clip-rule="evenodd" d="M8.00001 7.46657C8.29441 7.46657 8.53334 7.22764 8.53334 6.93324C8.53334 6.63884 8.29441 6.3999 8.00001 6.3999C7.70561 6.3999 7.46667 6.63884 7.46667 6.93324C7.46667 7.22764 7.70561 7.46657 8.00001 7.46657ZM10.1333 7.46657C10.4277 7.46657 10.6667 7.22764 10.6667 6.93324C10.6667 6.63884 10.4277 6.3999 10.1333 6.3999C9.83894 6.3999 9.60001 6.63884 9.60001 6.93324C9.60001 7.22764 9.83894 7.46657 10.1333 7.46657ZM12.2667 7.46657C12.5611 7.46657 12.8 7.22764 12.8 6.93324C12.8 6.63884 12.5611 6.3999 12.2667 6.3999C11.9723 6.3999 11.7333 6.63884 11.7333 6.93324C11.7333 7.22764 11.9723 7.46657 12.2667 7.46657Z" fill="#FFDA2C"/>
<path fill-rule="evenodd" clip-rule="evenodd" d="M9.06666 8.53346C9.36106 8.53346 9.59999 8.29453 9.59999 8.00013C9.59999 7.70573 9.36106 7.4668 9.06666 7.4668C8.77226 7.4668 8.53333 7.70573 8.53333 8.00013C8.53333 8.29453 8.77226 8.53346 9.06666 8.53346ZM11.2 8.53346C11.4944 8.53346 11.7333 8.29453 11.7333 8.00013C11.7333 7.70573 11.4944 7.4668 11.2 7.4668C10.9056 7.4668 10.6667 7.70573 10.6667 8.00013C10.6667 8.29453 10.9056 8.53346 11.2 8.53346Z" fill="#00B731"/>
<path fill-rule="evenodd" clip-rule="evenodd" d="M9.59961 7.4668H10.6663V9.60013H9.59961V7.4668Z" fill="#AE6A3E"/>
<path fill-rule="evenodd" clip-rule="evenodd" d="M-1.06641 0V16.0352L6.40026 8L-1.06641 0Z" fill="#3A99FF"/>
</g>
<defs>
<clipPath id="clip0_1_483383">
<rect width="16" height="16" rx="8" fill="white"/>
</clipPath>
</defs>
</svg>
