<svg width="16" height="16" viewBox="0 0 16 16" fill="none" xmlns="http://www.w3.org/2000/svg">
<g clip-path="url(#clip0_1_482686)">
<rect width="16" height="16" rx="8" fill="#FFDA2C"/>
<path d="M17.0667 0H-1.06666C-2.24487 0 -3.2 0.955126 -3.2 2.13333V13.8667C-3.2 15.0449 -2.24487 16 -1.06666 16H17.0667C18.2449 16 19.2 15.0449 19.2 13.8667V2.13333C19.2 0.955126 18.2449 0 17.0667 0Z" fill="#0B7E30"/>
<path fill-rule="evenodd" clip-rule="evenodd" d="M-3.2 0L19.2 14.8344L19.0688 16L-3.2 15.894V0Z" fill="#FFDA2C"/>
<path fill-rule="evenodd" clip-rule="evenodd" d="M8.0004 9.3335L6.4324 10.158L6.73107 8.4119L5.46387 7.17456L7.2164 6.92176L8.0004 5.3335L8.7844 6.92283L10.5369 7.17563L9.2676 8.41296L9.56627 10.158" fill="#F93939"/>
</g>
<defs>
<clipPath id="clip0_1_482686">
<rect width="16" height="16" rx="8" fill="white"/>
</clipPath>
</defs>
</svg>
