<svg width="16" height="16" viewBox="0 0 16 16" fill="none" xmlns="http://www.w3.org/2000/svg">
<mask id="mask0_1_482736" style="mask-type:luminance" maskUnits="userSpaceOnUse" x="0" y="0" width="16" height="16">
<path d="M8 16C12.4183 16 16 12.4183 16 8C16 3.58172 12.4183 0 8 0C3.58172 0 0 3.58172 0 8C0 12.4183 3.58172 16 8 16Z" fill="white"/>
</mask>
<g mask="url(#mask0_1_482736)">
<path fill-rule="evenodd" clip-rule="evenodd" d="M-6.91135 -0.00292969H22.9068V15.9971H-6.91135V-0.00292969Z" fill="#C62139"/>
<path fill-rule="evenodd" clip-rule="evenodd" d="M-6.18381 0.724121H22.1798V15.2696H-6.18381V0.724121Z" fill="#00297B"/>
<path fill-rule="evenodd" clip-rule="evenodd" d="M8.00613 3.93018C8.00613 3.93018 5.51541 5.91204 5.51541 7.97071C5.51541 10.0294 8.00613 12.064 8.00613 12.064C8.00613 12.064 10.4809 10.1778 10.4809 7.97071C10.4809 5.76362 8.00613 3.93018 8.00613 3.93018Z" fill="#92DBFC"/>
<path fill-rule="evenodd" clip-rule="evenodd" d="M5.79099 9.22716C6.43915 10.784 8.00613 12.0639 8.00613 12.0639C8.00613 12.0639 9.60096 10.8483 10.2301 9.22705" fill="#008CE7"/>
<path fill-rule="evenodd" clip-rule="evenodd" d="M10.2385 8.77794C9.85447 9.05266 7.69383 8.92071 7.69383 8.92071L7.57303 9.22829L10.1457 9.23623C10.1564 9.19405 10.1821 9.14386 10.1911 9.10125L10.2385 8.77783V8.77794Z" fill="#9C8431"/>
<path fill-rule="evenodd" clip-rule="evenodd" d="M6.37265 10.0512C6.48204 10.0547 6.59105 10.0778 6.68892 10.1303C6.86385 10.2221 6.96529 10.2214 7.15388 10.2243C7.35121 10.2274 7.50614 10.3726 7.71942 10.3787C8.11233 10.3897 8.27756 10.5848 7.97201 10.5847C7.82769 10.5845 7.5183 10.4877 7.36881 10.508C7.1415 10.5311 7.01009 10.5484 6.84188 10.6821C6.68161 10.4897 6.5214 10.2781 6.37265 10.0512ZM7.14998 11.0308C7.24742 10.9642 7.31452 10.9121 7.40908 10.9092C7.59281 10.9035 7.65548 10.7899 7.86785 10.79C8.10918 10.8343 8.43628 10.761 8.62774 10.7186C8.96764 10.6402 8.80641 10.4025 8.60065 10.3162C8.43436 10.245 8.12262 10.3126 7.92929 10.2419C7.78294 10.1848 7.90358 10.0936 7.98236 10.0742C8.06177 10.0597 8.147 10.0859 8.24582 10.102C8.4223 10.1176 8.64396 10.1011 8.799 10.077C9.11937 10.028 9.10614 9.93393 9.26081 9.93174C9.37366 9.92652 9.45953 9.89297 9.53649 9.83804C9.62694 9.77772 9.72108 9.65388 9.83046 9.65884L9.89478 9.66161C9.21916 10.9686 8.00572 11.8267 8.00572 11.8267C8.00572 11.8267 7.61361 11.5265 7.15004 11.0309L7.14998 11.0308Z" fill="#FFDE52"/>
<path fill-rule="evenodd" clip-rule="evenodd" d="M8.70286 10.0732C8.74478 10.2354 8.78916 10.2905 8.95961 10.3321C9.12783 10.3738 9.38484 10.2102 9.22553 10.0515C9.07396 9.90387 8.91423 9.86611 8.77844 9.7332C8.56777 9.5243 8.27871 9.09246 8.14143 8.68414C7.99119 8.23774 8.01732 6.98099 8.02404 6.3444C8.0242 6.33699 8.04233 6.33256 8.04436 6.32958C8.05412 6.31555 8.06345 6.33411 8.0482 6.24078C8.0442 6.21688 8.02527 6.19214 8.02537 6.16792C8.02553 6.12478 7.87641 6.21507 7.83711 6.29203C7.82815 6.30963 7.86569 6.35976 7.86569 6.36968C7.87076 6.98046 7.80511 8.18632 7.96724 8.73224C8.06756 9.07022 8.25065 9.33118 8.41641 9.57267C8.51577 9.72744 8.65956 9.89443 8.70281 10.0732H8.70286Z" fill="#8C4200"/>
<path d="M6.84468 8.28525C6.84276 8.28498 6.83519 8.28402 6.82794 8.28306C6.7761 8.27672 6.72074 8.2549 6.6802 8.22466C6.6225 8.18162 6.58426 8.11277 6.57151 8.02829C6.56794 8.00466 6.5681 7.94376 6.57167 7.92056C6.58186 7.85528 6.60575 7.79768 6.6401 7.75565C6.65028 7.74328 6.6698 7.72429 6.68175 7.71538C6.70991 7.69394 6.74634 7.6772 6.78468 7.66781C6.81215 7.66093 6.82906 7.65885 6.86207 7.65789C6.90799 7.65677 6.94026 7.66093 6.97658 7.67298C7.02303 7.68824 7.05903 7.71298 7.08447 7.7468C7.10164 7.76962 7.12394 7.82034 7.12708 7.8437C7.12874 7.8565 7.12367 7.86594 7.11236 7.8708C7.10879 7.87229 7.09092 7.87768 7.07252 7.88264C7.03556 7.89256 7.03034 7.89282 7.02207 7.88594C7.01658 7.88125 7.01466 7.87768 7.00986 7.86269C7.00767 7.85634 7.00228 7.84344 6.99775 7.83426C6.99076 7.82013 6.98783 7.81586 6.97839 7.80637C6.9689 7.79677 6.96479 7.79384 6.9506 7.78701C6.91924 7.77176 6.8841 7.76653 6.84356 7.77149C6.81386 7.77506 6.7817 7.78717 6.76154 7.80242C6.71658 7.83624 6.69156 7.90301 6.69418 7.98189C6.69759 8.08952 6.74324 8.14872 6.83711 8.16754C6.85514 8.17112 6.89444 8.17112 6.91364 8.16754C6.9417 8.16232 6.98276 8.14626 7.00602 8.13138L7.01439 8.12616V8.09192L7.01455 8.05757L6.94047 8.05704L6.86639 8.0565L6.8617 8.0532C6.85908 8.05128 6.85551 8.0477 6.85375 8.04509C6.85044 8.04056 6.85044 8.03986 6.85044 7.9996C6.8506 7.95933 6.8506 7.95864 6.85386 7.9541C6.85567 7.95149 6.85935 7.94792 6.86196 7.94616L6.86666 7.94274L6.99354 7.94301L7.12052 7.94328L7.12506 7.94658C7.12767 7.94834 7.13124 7.95234 7.13316 7.95538L7.13647 7.96077L7.13674 8.06589C7.137 8.17789 7.13674 8.18242 7.13002 8.19053C7.1281 8.19288 7.1193 8.20002 7.11066 8.20632C7.05071 8.25042 6.98698 8.27666 6.92143 8.28424C6.90452 8.28616 6.8553 8.28685 6.8449 8.28536L6.84468 8.28525ZM7.50836 8.2909C7.44196 8.28584 7.39183 8.26605 7.35524 8.23069C7.31924 8.19592 7.30138 8.15234 7.29338 8.07981C7.29103 8.0596 7.29092 8.03832 7.29103 7.87421C7.2913 7.69746 7.29146 7.69085 7.29418 7.68552C7.29567 7.68248 7.29924 7.67821 7.30202 7.67602L7.30724 7.67218L7.35082 7.67176C7.3929 7.67149 7.39466 7.67149 7.40084 7.67453C7.40468 7.67645 7.40852 7.67992 7.4106 7.68306L7.41391 7.68845L7.41444 7.8781C7.41487 8.04525 7.41514 8.06957 7.41722 8.08274C7.42271 8.11709 7.4282 8.12989 7.44431 8.14594C7.46452 8.166 7.48554 8.17341 7.52538 8.1748C7.56207 8.17592 7.58724 8.17176 7.60879 8.1612C7.63364 8.14909 7.64495 8.13 7.65348 8.08632C7.65663 8.06984 7.65663 8.06722 7.65786 7.88002C7.65908 7.66797 7.65812 7.68557 7.66954 7.67688L7.67492 7.67288H7.72026C7.77082 7.67304 7.76932 7.67272 7.77743 7.68344L7.78154 7.68882L7.7817 7.85896C7.78186 8.02968 7.781 8.06541 7.77647 8.09757C7.76671 8.166 7.74404 8.2093 7.70031 8.24312C7.68559 8.25453 7.67956 8.25837 7.66511 8.26552C7.64298 8.27666 7.61743 8.28418 7.58842 8.28834C7.57332 8.29053 7.52367 8.29208 7.50831 8.29096L7.50836 8.2909ZM8.10239 8.28168C8.10047 8.28125 8.0962 8.2781 8.09279 8.2748C8.0858 8.26781 8.08383 8.2613 8.08591 8.25256C8.08852 8.24168 8.30346 7.68701 8.30692 7.68258C8.31364 7.67352 8.31556 7.67325 8.36591 7.67336C8.4162 7.67336 8.41812 7.67378 8.425 7.68269C8.42676 7.6853 8.4801 7.81437 8.54346 7.96978C8.64404 8.21677 8.6585 8.2532 8.6585 8.25976C8.6585 8.26813 8.65519 8.27389 8.64735 8.27954C8.64266 8.28285 8.64255 8.28285 8.59226 8.28269H8.5418L8.53631 8.27842C8.52932 8.27309 8.52943 8.27362 8.49684 8.1884C8.48202 8.14952 8.46922 8.1165 8.46842 8.11512C8.46719 8.11266 8.46084 8.1125 8.3674 8.11234C8.2738 8.11218 8.26762 8.11234 8.26666 8.11469C8.26612 8.11608 8.25348 8.15069 8.2385 8.19165C8.22367 8.23245 8.21018 8.26808 8.20852 8.27069C8.20687 8.2733 8.20346 8.27688 8.20095 8.27864C8.19642 8.28194 8.19562 8.28194 8.15108 8.28205C8.12623 8.28221 8.10436 8.28189 8.10244 8.28152L8.10239 8.28168ZM8.42442 7.99773C8.42223 7.99154 8.3689 7.84888 8.36751 7.84546C8.36698 7.84397 8.36628 7.84466 8.36516 7.84765C8.36271 7.85506 8.30815 8.00061 8.30746 8.00184C8.30703 8.00237 8.3337 8.00296 8.36655 8.00306H8.4265L8.42442 7.99768V7.99773ZM8.87988 8.28114C8.87354 8.27922 8.86671 8.27192 8.8649 8.2652C8.86394 8.26136 8.86367 8.16722 8.86436 7.97368L8.86532 7.68797L8.86916 7.68274C8.87684 7.67272 8.87615 7.67282 8.945 7.67298C9.00234 7.67314 9.00714 7.67325 9.01194 7.67576C9.01471 7.67725 9.01839 7.68056 9.02004 7.68306C9.0217 7.68541 9.0537 7.77954 9.09108 7.89197C9.12858 8.0044 9.15951 8.0965 9.15994 8.0965C9.16036 8.0965 9.19226 8.00509 9.23087 7.89352C9.27471 7.76653 9.3025 7.68834 9.30479 7.68477C9.31247 7.67362 9.31178 7.67378 9.37487 7.67389C9.42863 7.67389 9.43108 7.67405 9.43615 7.67693C9.43903 7.67858 9.44303 7.68242 9.44506 7.6853L9.44863 7.6908L9.4482 7.97816C9.44767 8.24904 9.44751 8.26584 9.44506 8.27021C9.44367 8.27266 9.4401 8.27666 9.43711 8.27885L9.43172 8.28296L9.38788 8.2828C9.34447 8.2828 9.34404 8.2828 9.33935 8.27938C9.33674 8.27762 9.33316 8.274 9.3314 8.27144L9.32799 8.26674L9.32756 8.10184L9.32714 7.93704L9.31946 7.9589C9.31519 7.97101 9.28906 8.04578 9.26148 8.12509C9.21295 8.26402 9.21092 8.26968 9.20527 8.27544C9.20186 8.27901 9.19759 8.28178 9.19471 8.28232C9.19194 8.28285 9.1737 8.28328 9.15391 8.28328C9.1194 8.28312 9.11764 8.28301 9.11146 8.27986C9.10788 8.2781 9.10362 8.27453 9.10196 8.27202C9.10031 8.26957 9.07354 8.19218 9.04244 8.10008C9.0114 8.00813 8.98543 7.93282 8.98484 7.93282C8.98415 7.93282 8.98362 8.00733 8.98335 8.09858C8.98308 8.28424 8.98388 8.27064 8.97236 8.27837L8.96644 8.28221L8.92548 8.28237C8.90292 8.28253 8.88244 8.28194 8.87999 8.28114L8.87983 8.2813L8.87988 8.28114Z" fill="white"/>
<path d="M6.8413 8.26004C6.7668 8.25151 6.69976 8.21855 6.65933 8.17044C6.62525 8.13002 6.60328 8.07674 6.59597 8.01679C6.59362 7.997 6.59378 7.95028 6.59624 7.9313C6.60477 7.86602 6.63058 7.80511 6.66754 7.76319C6.73064 7.69156 6.86162 7.66271 6.96797 7.69706C7.03506 7.71866 7.0749 7.75962 7.09757 7.8298C7.10072 7.83956 7.10306 7.84783 7.1028 7.8482C7.102 7.84874 7.04482 7.86431 7.04056 7.86511C7.0381 7.86554 7.03682 7.86319 7.03314 7.8522C7.02258 7.82116 7.00648 7.7953 6.98861 7.781C6.94957 7.74996 6.89458 7.73855 6.83016 7.74831C6.78893 7.75466 6.74797 7.77578 6.72445 7.80303C6.68914 7.84383 6.67165 7.89386 6.66946 7.95999C6.66738 8.02543 6.67922 8.0753 6.70658 8.11652C6.75096 8.18362 6.85432 8.21354 6.94626 8.18607C6.97565 8.17727 7.0077 8.16202 7.03026 8.14596L7.04072 8.13855L7.04088 8.08564V8.03258L6.95789 8.03242L6.87474 8.03226L6.8749 7.99983V7.9674L6.99362 7.96767L7.11234 7.96783L7.11208 8.07119L7.11192 8.17455L7.09885 8.18415C7.04541 8.22346 6.99181 8.24724 6.93448 8.25743C6.9133 8.26116 6.86274 8.2625 6.8413 8.26004ZM7.49922 8.26511C7.44536 8.25919 7.40344 8.24186 7.37373 8.213C7.34664 8.18676 7.33112 8.15418 7.32301 8.10676C7.31725 8.07268 7.31682 8.05508 7.31709 7.87364L7.31736 7.69594L7.35378 7.6961H7.39005L7.39032 7.88564C7.39058 8.08724 7.39048 8.08399 7.39816 8.11434C7.40792 8.15311 7.43677 8.1818 7.478 8.19375C7.51096 8.20335 7.55549 8.20351 7.59304 8.19418C7.63757 8.18303 7.66146 8.15914 7.67357 8.11375C7.6829 8.07898 7.6828 8.08228 7.68376 7.88148L7.68472 7.69663L7.72114 7.69679H7.75741L7.75698 7.86815C7.75682 7.96682 7.75602 8.04916 7.75506 8.06234C7.74888 8.14922 7.72632 8.1962 7.67368 8.23178C7.65293 8.24591 7.62477 8.25663 7.59368 8.26244C7.58018 8.2649 7.51453 8.26671 7.49912 8.26506L7.49922 8.26511ZM8.1141 8.24943C8.11592 8.2449 8.1644 8.11914 8.222 7.96986L8.32685 7.69855L8.36616 7.69828L8.40562 7.69786L8.51858 7.97546C8.58072 8.12815 8.63197 8.25434 8.6325 8.25583C8.63346 8.25844 8.63101 8.2586 8.5924 8.2586L8.55117 8.25844L8.54402 8.23988C8.54002 8.2297 8.52562 8.19162 8.5117 8.15551L8.48653 8.0898L8.36808 8.08927L8.24962 8.08858L8.21885 8.17322L8.18808 8.25786L8.14946 8.2577H8.11096L8.1141 8.24932V8.24943ZM8.46237 8.02607C8.46194 8.02458 8.44573 7.98127 8.42648 7.92986C8.40722 7.87844 8.38552 7.81882 8.37837 7.79711C8.37122 7.77551 8.36504 7.75754 8.36477 7.75711C8.36434 7.75668 8.36162 7.76618 8.35874 7.77812C8.34925 7.81786 8.34018 7.84506 8.30637 7.93439C8.28808 7.98319 8.27256 8.02426 8.27202 8.0258C8.2709 8.02842 8.27613 8.02858 8.36701 8.02868C8.45773 8.02884 8.46306 8.02868 8.46237 8.02607ZM8.89005 7.97743L8.89058 7.69722L8.94557 7.69775L9.0004 7.69828L9.07464 7.92164C9.11544 8.04436 9.15117 8.15252 9.15394 8.16202C9.15682 8.17135 9.15944 8.17876 9.15986 8.1785C9.16013 8.17807 9.16936 8.15156 9.18018 8.1194C9.19117 8.0874 9.22829 7.97962 9.2628 7.87999L9.32562 7.69887L9.37485 7.6986L9.42408 7.69834L9.42354 7.97844L9.42301 8.25866L9.38824 8.2585H9.35346L9.35389 8.02308C9.35416 7.89359 9.35373 7.78847 9.35293 7.78932C9.35224 7.79012 9.31773 7.88799 9.2764 8.00676C9.23501 8.12548 9.19832 8.23066 9.1949 8.24042L9.18856 8.25812H9.12285L9.04285 8.0209C8.99885 7.89044 8.96232 7.78271 8.96162 7.78132C8.96093 7.7801 8.96013 7.88676 8.95986 8.01839L8.95933 8.25764H8.92456L8.88978 8.25748L8.89021 7.97743H8.89005Z" fill="#BD0728"/>
<path fill-rule="evenodd" clip-rule="evenodd" d="M6.45809 6.16421C6.46865 6.17877 6.46716 6.24159 6.46716 6.24159C6.4758 6.24682 6.61628 6.12202 6.61628 6.12767C6.61644 6.15391 6.61959 6.2081 6.61959 6.2081C6.61959 6.2081 6.76497 6.06986 6.77105 6.08442C6.77777 6.10079 6.77052 6.1809 6.77052 6.1809C6.77052 6.1809 6.86727 6.07423 6.88503 6.05503C6.89783 6.04127 6.89575 6.07237 6.89697 6.1225C6.89724 6.13146 7.05559 6.0057 7.06519 6.00346C7.08567 5.99909 7.09201 6.06874 7.09089 6.08618C7.09009 6.09909 7.23697 6.00234 7.23052 6.01514L7.2414 6.08949C7.28236 6.08383 7.37996 6.04741 7.43863 6.0569C7.45745 6.05994 7.45649 6.06943 7.43975 6.07626C7.15692 6.19077 6.93932 6.36335 6.8126 6.60389C6.76945 6.68581 6.75623 6.75727 6.76764 6.77525C6.76764 6.77525 6.81847 6.66586 6.8758 6.64869C6.88348 6.6465 6.8886 6.71877 6.89644 6.71466C6.89644 6.71466 6.93985 6.60501 6.97121 6.56458C6.97958 6.5537 6.99361 6.62218 7.00257 6.61199C7.00257 6.61199 7.02513 6.53861 7.06924 6.48746C7.07559 6.48015 7.08694 6.55685 7.09398 6.55039C7.13974 6.50821 7.18279 6.40239 7.19996 6.39455C7.21191 6.38522 7.21399 6.4825 7.2254 6.47413C7.2254 6.47413 7.29068 6.34303 7.32972 6.31925C7.35473 6.30383 7.35377 6.39087 7.35377 6.39087C7.40353 6.34181 7.45836 6.26042 7.48433 6.22511C7.49628 6.2089 7.48972 6.33231 7.50247 6.33711C7.51884 6.34346 7.62604 6.24255 7.63809 6.24047C7.64604 6.23909 7.65543 6.26922 7.63452 6.29338C7.63287 6.2953 7.50204 6.44623 7.50204 6.44623C7.52748 6.45103 7.53735 6.44389 7.55564 6.44869C7.60993 6.46298 7.45393 6.55247 7.45654 6.56922C7.45654 6.56922 7.53175 6.56783 7.50657 6.58239C7.48844 6.59295 7.38908 6.72095 7.38908 6.71642C7.38908 6.71407 7.43895 6.71754 7.43868 6.73183C7.43825 6.75834 7.35606 6.89509 7.35526 6.89429C7.35073 6.88975 7.39937 6.88837 7.40598 6.90186C7.41809 6.92671 7.32161 7.03738 7.34044 7.05621C7.34305 7.05882 7.39553 7.05701 7.41889 7.06223C7.43015 7.06469 7.46177 7.26319 7.45382 7.25519C7.45201 7.25327 7.48764 7.06911 7.50924 7.01301C7.52241 6.97903 7.56465 7.06426 7.56807 7.05669C7.56625 7.05669 7.55953 6.93562 7.56545 6.88047C7.56711 6.86506 7.59745 6.89658 7.59708 6.88186C7.59596 6.84847 7.59324 6.81274 7.60012 6.78015C7.60535 6.75557 7.63116 6.82453 7.64124 6.80597C7.64124 6.80597 7.60988 6.68613 7.62295 6.65231C7.63159 6.63007 7.65249 6.70618 7.66625 6.70922C7.66625 6.70922 7.65857 6.61605 7.67297 6.59199L7.71654 6.63871C7.72604 6.62373 7.72423 6.47861 7.73303 6.46501C7.74033 6.45359 7.78551 6.51941 7.79228 6.50911C7.79831 6.49978 7.77319 6.39199 7.77879 6.38351C7.78673 6.3713 7.83639 6.41349 7.83735 6.41263C7.85756 6.39231 7.85687 6.34159 7.8654 6.32277C7.88823 6.27178 8.01905 6.26517 8.03447 6.30149C8.04204 6.31909 8.03681 6.34175 8.03377 6.36911C8.035 6.37023 8.09932 6.37487 8.09991 6.36991C8.09991 6.36991 8.09222 6.42997 8.09676 6.4961C8.09745 6.5049 8.16204 6.49391 8.16289 6.50271C8.16881 6.56495 8.15452 6.57077 8.15452 6.57077C8.15505 6.5753 8.19809 6.56415 8.19879 6.56895C8.20348 6.59935 8.19372 6.63631 8.17447 6.67189C8.17159 6.67695 8.23601 6.66693 8.23703 6.67285C8.24487 6.71957 8.24636 6.75669 8.23825 6.82266C8.23756 6.82805 8.30134 6.77605 8.3023 6.78143C8.3119 6.83695 8.30081 6.8969 8.30657 6.95434C8.30796 6.96767 8.34876 6.91461 8.35249 6.93002C8.35622 6.94511 8.34343 7.05509 8.34961 7.06127C8.34961 7.06127 8.41793 7.05786 8.42396 7.06362C8.47809 7.11445 8.4678 7.20325 8.4678 7.20325C8.48263 7.19226 8.47702 7.08533 8.46204 6.98746C8.46038 6.97717 8.51452 6.98111 8.51286 6.97151C8.51286 6.97151 8.4535 6.93578 8.43398 6.83626C8.42988 6.81498 8.49132 6.81935 8.49132 6.81935C8.47425 6.78021 8.44433 6.77274 8.41889 6.73509C8.41063 6.72271 8.48268 6.71706 8.48268 6.71349C8.48284 6.67594 8.42193 6.65807 8.39047 6.61909C8.37697 6.60245 8.45617 6.60165 8.45617 6.60165C8.43297 6.56933 8.35639 6.55519 8.31735 6.51247C8.29607 6.48922 8.395 6.46645 8.39377 6.46245C8.38289 6.42821 8.28988 6.41749 8.24481 6.37887C8.23548 6.37093 8.30364 6.34394 8.30364 6.34394C8.29676 6.32938 8.14817 6.23167 8.2238 6.24058C8.25569 6.24442 8.32044 6.28981 8.32551 6.28293C8.32551 6.28293 8.32273 6.22591 8.32935 6.21903C8.3542 6.19322 8.43996 6.32869 8.46913 6.32319C8.46913 6.32319 8.47985 6.22618 8.49303 6.22357C8.52438 6.21765 8.56257 6.36485 8.59351 6.36485C8.59761 6.36485 8.59996 6.27978 8.61591 6.27509C8.63393 6.26986 8.65409 6.37045 8.67692 6.39274C8.69809 6.41322 8.69836 6.31413 8.71073 6.33295C8.73175 6.3633 8.73687 6.42666 8.76556 6.45461C8.78423 6.47274 8.78769 6.36719 8.80844 6.38133C8.83249 6.3977 8.82684 6.45237 8.85393 6.4793C8.86684 6.4921 8.87553 6.40959 8.8902 6.4217C8.90326 6.43226 8.91206 6.53317 8.92609 6.54911C8.94396 6.56943 8.9646 6.49594 8.9831 6.50762C8.99644 6.51615 8.99329 6.60341 9.00567 6.62213C9.03095 6.6609 9.04417 6.57525 9.06092 6.58847C9.0726 6.59743 9.09788 6.69775 9.10849 6.7057C9.13201 6.72357 9.14492 6.66005 9.16279 6.66901C9.17569 6.67535 9.20182 6.80453 9.21254 6.80122C9.21953 6.79903 9.23686 6.50682 9.12444 6.38357C8.94124 6.18261 8.61319 6.06666 8.34545 6.06373C8.34545 6.06373 8.48001 6.0369 8.48358 6.01466C8.49073 5.97029 8.55751 5.97551 8.60412 5.98565C8.61239 5.98746 8.60796 5.90719 8.60908 5.90677C8.65073 5.90581 8.68796 5.93039 8.7278 5.95461C8.74017 5.96218 8.70263 5.87418 8.71585 5.88175C8.767 5.9113 8.82385 5.91994 8.85836 5.95583C8.86742 5.96533 8.84791 5.8881 8.84791 5.8881C8.87345 5.88191 8.92391 5.91877 8.94369 5.95322C8.95329 5.97029 8.94316 5.86319 8.95068 5.88218C8.95068 5.88218 9.03975 5.91242 9.04935 5.94991C9.04935 5.94991 9.05665 5.88202 9.0686 5.88559C9.10433 5.89493 9.13569 5.9553 9.16358 5.96394C9.16358 5.96394 9.15207 5.90346 9.16113 5.90581C9.22823 5.92271 9.30102 5.96421 9.30092 5.96394C9.2631 5.86938 9.1198 5.77029 8.86758 5.74378C8.82129 5.73898 8.6334 5.7313 8.47409 5.76826C8.34353 5.7985 8.24044 5.81567 8.26161 5.79503C8.34791 5.7105 8.48742 5.70021 8.52577 5.68053C8.55324 5.6665 8.43329 5.62021 8.45708 5.61359C8.48071 5.60794 8.58791 5.59903 8.58791 5.59903C8.61116 5.5809 8.50999 5.54543 8.52508 5.51903C8.55532 5.46613 8.73415 5.51423 8.7494 5.49418C8.75436 5.48746 8.67255 5.43909 8.67601 5.43194C8.68908 5.40511 8.84823 5.45173 8.85191 5.42837C8.85191 5.42837 8.80364 5.39237 8.76929 5.36282C8.76519 5.35925 8.91142 5.31994 8.91142 5.31994C8.90865 5.31717 8.88641 5.30154 8.85286 5.28847C8.8222 5.27653 8.98124 5.23514 8.98124 5.23514C8.77975 5.14303 8.25681 5.40501 8.15303 5.67685C8.12609 5.7417 8.12524 5.67119 8.13089 5.61626C8.13628 5.55717 8.14369 5.50533 8.13735 5.45109C8.13543 5.43498 8.09463 5.49381 8.09185 5.47818C8.0814 5.42047 8.11233 5.35711 8.0982 5.29306C8.0935 5.27146 8.03937 5.35669 8.03223 5.33514C8.01244 5.27589 8.04705 5.19263 8.03303 5.11098C8.02753 5.07909 7.97628 5.1793 7.9591 5.15071C7.93905 5.11759 7.94785 4.99487 7.93836 4.97631C7.93068 4.96149 7.88503 5.03514 7.88119 5.02127C7.81932 4.79631 7.90151 4.76826 7.78279 4.89509C7.77868 4.89946 7.75228 4.76207 7.74775 4.76671C7.69911 4.87087 7.61937 4.69247 7.59217 4.70911C7.57185 4.72175 7.64769 4.79077 7.64854 4.82181C7.64897 4.83679 7.57873 4.83775 7.57873 4.83775C7.58023 4.86346 7.71233 4.93546 7.7166 4.96362C7.72001 4.98687 7.62316 4.98106 7.62316 4.98106C7.6262 5.01253 7.73628 5.0425 7.74231 5.07589C7.74572 5.09429 7.69078 5.09845 7.69254 5.11711C7.69542 5.14586 7.79895 5.20261 7.80236 5.23189C7.80471 5.25221 7.73623 5.26063 7.73463 5.27957C7.73255 5.3025 7.87207 5.37946 7.87223 5.40106C7.87239 5.43157 7.8167 5.41589 7.79142 5.4313C7.75585 5.4529 7.90561 5.54031 7.91196 5.56517C7.91692 5.58703 7.85201 5.56778 7.84982 5.58773C7.84705 5.61386 7.92321 5.65327 7.94065 5.69807C7.95809 5.74234 7.94022 5.75359 7.91521 5.73599C7.86502 5.70069 7.66273 5.4857 7.60903 5.42842C7.53095 5.34511 7.37111 5.25183 7.21169 5.24634C7.19505 5.25141 7.29745 5.32383 7.29814 5.35013C7.2983 5.35685 7.25212 5.36687 7.25414 5.36895C7.28246 5.39727 7.37057 5.43093 7.37057 5.43093L7.34529 5.47642C7.35121 5.48975 7.39297 5.49333 7.45991 5.5153C7.45991 5.5153 7.40972 5.54634 7.41345 5.54927C7.44892 5.57759 7.51761 5.5985 7.51761 5.5985L7.44998 5.62117C7.44598 5.63423 7.60214 5.69674 7.60214 5.69674C7.60214 5.69674 7.55334 5.73882 7.55553 5.74101C7.56748 5.75295 7.68225 5.77951 7.68225 5.77951C7.68417 5.78143 7.60119 5.8073 7.60172 5.80783C7.6318 5.83791 7.71484 5.84767 7.7342 5.89743C7.7342 5.89743 7.74561 5.92575 7.71276 5.92037C7.58358 5.87349 7.38348 5.77647 6.99548 5.81455C6.59884 5.86623 6.2966 6.21109 6.30182 6.24543C6.30182 6.24543 6.44364 6.14373 6.45863 6.16437L6.45809 6.16421Z" fill="#109421"/>
<path fill-rule="evenodd" clip-rule="evenodd" d="M7.84553 6.11428C7.88447 6.08922 7.93759 6.10234 7.96415 6.14362C7.99071 6.1849 7.98073 6.23866 7.9418 6.26372C7.90287 6.28879 7.84975 6.27567 7.82319 6.23439C7.79663 6.19311 7.8066 6.13935 7.84553 6.11428Z" fill="#8C4200"/>
<path d="M8.11412 6.32148C8.14455 6.27441 8.13324 6.21298 8.08884 6.18427C8.04444 6.15556 7.98378 6.17044 7.95334 6.21751C7.9229 6.26458 7.93422 6.32601 7.97861 6.35472C8.02301 6.38343 8.08368 6.36855 8.11412 6.32148Z" fill="#8C4200"/>
<path d="M8.00564 6.40377C8.03814 6.35351 8.02607 6.28792 7.97868 6.25727C7.93129 6.22663 7.86653 6.24253 7.83403 6.29279C7.80153 6.34305 7.81359 6.40863 7.86098 6.43928C7.90838 6.46993 7.97314 6.45403 8.00564 6.40377Z" fill="#8C4200"/>
<path fill-rule="evenodd" clip-rule="evenodd" d="M7.13474 9.57764H7.26103V9.67204H7.13474V9.57764Z" fill="black"/>
<path fill-rule="evenodd" clip-rule="evenodd" d="M6.50306 9.63831C6.50306 9.63831 7.33276 9.70151 7.84156 9.59229C7.84156 9.59229 7.88428 9.6213 7.8229 9.69303C7.76146 9.76466 7.60605 9.78002 7.52066 9.79543C7.52066 9.79543 7.50018 9.84146 7.50183 9.8654C7.50365 9.8893 7.5557 9.88685 7.58125 9.88162L7.60679 9.87655C7.60679 9.87655 7.59485 9.96615 7.28077 9.9781C7.17767 9.9821 6.83778 9.98924 6.76594 9.8885C6.76594 9.8885 6.82818 9.89356 6.84439 9.8885C6.8606 9.88343 6.84876 9.81852 6.84274 9.80908C6.83682 9.79975 6.62242 9.80909 6.50989 9.70493C6.48199 9.67522 6.46866 9.64364 6.46866 9.63234C6.46866 9.63138 6.503 9.63836 6.503 9.63836L6.50306 9.63831ZM6.93543 9.81244C6.93543 9.81244 7.16247 9.84146 7.42375 9.81244C7.42375 9.81244 7.43063 9.86194 7.41868 9.88076C7.40674 9.89959 7.10535 9.91404 6.9533 9.88764C6.92882 9.8798 6.92802 9.84983 6.93543 9.81244Z" fill="#8C4200"/>
<path fill-rule="evenodd" clip-rule="evenodd" d="M6.61804 9.59786C6.61804 9.59786 6.92588 9.2705 6.83164 8.5874C6.83164 8.5874 7.15244 8.67002 7.47938 9.1418C7.47938 9.1418 7.57473 9.23759 7.68689 9.57924L6.61804 9.5978V9.59786Z" fill="#FDF9FF"/>
<path fill-rule="evenodd" clip-rule="evenodd" d="M8.00621 3.69287C8.00621 3.69287 5.37 5.65532 5.37 7.96935C5.37 10.2834 8.00621 12.3017 8.00621 12.3017C8.00621 12.3017 10.6255 10.4501 10.6255 7.96935C10.6255 5.4886 8.00621 3.69287 8.00621 3.69287ZM8.00525 4.16786C8.00525 4.16786 5.66002 5.91372 5.66002 7.97239C5.66002 10.0311 8.00525 11.8267 8.00525 11.8267C8.00525 11.8267 10.3355 10.1795 10.3355 7.97239C10.3355 5.7653 8.00525 4.16786 8.00525 4.16786Z" fill="#C62139"/>
</g>
</svg>
