<svg width="16" height="16" viewBox="0 0 16 16" fill="none" xmlns="http://www.w3.org/2000/svg">
<g clip-path="url(#clip0_1_483114)">
<rect width="16" height="16" rx="8" fill="white"/>
<path fill-rule="evenodd" clip-rule="evenodd" d="M6.39999 9.6H-3.20001V6.4H6.39999V0H9.59999V6.4H19.2V9.6H9.59999V16H6.39999V9.6Z" fill="#F93939"/>
<path fill-rule="evenodd" clip-rule="evenodd" d="M12.7997 11.7333H11.7331V12.8H12.7997V13.8666H13.8664V12.8H14.9331V11.7333H13.8664V10.6666H12.7997V11.7333ZM12.7997 3.19997H11.7331V4.26663H12.7997V5.3333H13.8664V4.26663H14.9331V3.19997H13.8664V2.1333H12.7997V3.19997ZM2.13307 3.19997H1.06641V4.26663H2.13307V5.3333H3.19974V4.26663H4.26641V3.19997H3.19974V2.1333H2.13307V3.19997ZM2.13307 11.7333H1.06641V12.8H2.13307V13.8666H3.19974V12.8H4.26641V11.7333H3.19974V10.6666H2.13307V11.7333Z" fill="#F93939"/>
</g>
<defs>
<clipPath id="clip0_1_483114">
<rect width="16" height="16" rx="8" fill="white"/>
</clipPath>
</defs>
</svg>
