<svg width="16" height="16" viewBox="0 0 16 16" fill="none" xmlns="http://www.w3.org/2000/svg">
<rect width="16" height="16" rx="8" fill="#F93939"/>
<path fill-rule="evenodd" clip-rule="evenodd" d="M0 3.2002H16V12.8002H0V3.2002Z" fill="#FFDA2C"/>
<path fill-rule="evenodd" clip-rule="evenodd" d="M0 3.2002L8 8.0002L0 12.8002V3.2002Z" fill="#249F58"/>
<path fill-rule="evenodd" clip-rule="evenodd" d="M1.06641 7.4668H2.13307V8.53346H1.06641V7.4668Z" fill="#FFDA2C"/>
<path fill-rule="evenodd" clip-rule="evenodd" d="M16 3.2002L8 8.0002L16 12.8002V3.2002Z" fill="#249F58"/>
<path fill-rule="evenodd" clip-rule="evenodd" d="M4.26666 1.06689H5.33333V2.13356H4.26666V1.06689ZM7.46666 1.06689H8.53333V2.13356H7.46666V1.06689ZM10.6667 1.06689H11.7333V2.13356H10.6667V1.06689ZM4.26666 13.8669H5.33333V14.9336H4.26666V13.8669ZM7.46666 13.8669H8.53333V14.9336H7.46666V13.8669ZM10.6667 13.8669H11.7333V14.9336H10.6667V13.8669Z" fill="#FFDA2C"/>
<path d="M7.99967 10.6668C9.47243 10.6668 10.6663 9.47292 10.6663 8.00016C10.6663 6.5274 9.47243 5.3335 7.99967 5.3335C6.52692 5.3335 5.33301 6.5274 5.33301 8.00016C5.33301 9.47292 6.52692 10.6668 7.99967 10.6668Z" fill="#F93939"/>
<path fill-rule="evenodd" clip-rule="evenodd" d="M8.0004 9.3335L6.4324 10.158L6.73107 8.4119L5.46387 7.17456L7.2164 6.92176L8.0004 5.3335L8.7844 6.92283L10.5369 7.17563L9.2676 8.41296L9.56627 10.158" fill="#FFDA2C"/>
</svg>
