<svg width="16" height="16" viewBox="0 0 16 16" fill="none" xmlns="http://www.w3.org/2000/svg">
<g clip-path="url(#clip0_1_482859)">
<mask id="mask0_1_482859" style="mask-type:luminance" maskUnits="userSpaceOnUse" x="0" y="0" width="16" height="16">
<path d="M8 16C12.4183 16 16 12.4183 16 8C16 3.58172 12.4183 0 8 0C3.58172 0 0 3.58172 0 8C0 12.4183 3.58172 16 8 16Z" fill="white"/>
</mask>
<g mask="url(#mask0_1_482859)">
<path d="M16 0H0V6.69158H16V0Z" fill="#002488"/>
<path d="M16 6.69141H0V15.9998H16V6.69141Z" fill="#DA121A"/>
<path fill-rule="evenodd" clip-rule="evenodd" d="M4.33715 2.1416C4.2781 2.1416 4.05273 2.38472 4.05273 2.67715C4.05273 2.88776 4.24747 3.37655 4.24747 3.77889H4.42692C4.42692 3.37655 4.62165 2.88776 4.62165 2.67715C4.62165 2.38472 4.39629 2.1416 4.33724 2.1416H4.33715Z" fill="#FCDD09"/>
<path fill-rule="evenodd" clip-rule="evenodd" d="M5.04186 2.92928C5.28702 2.93415 5.43115 3.472 4.8682 3.64438C5.05679 3.36201 4.70428 3.17001 4.57184 3.77895H4.4668C4.4668 3.73432 4.55213 2.91964 5.04177 2.92928H5.04186Z" fill="#FCDD09"/>
<path fill-rule="evenodd" clip-rule="evenodd" d="M4.03613 3.81348V3.86544H4.3371V3.81348H4.03613ZM4.3371 3.81348V3.86544H4.63807V3.81348H4.3371Z" fill="#FCDD09"/>
<path fill-rule="evenodd" clip-rule="evenodd" d="M4.16383 3.91024C4.10589 4.09004 4.0209 4.12033 3.94043 4.17554C4.1285 4.17554 4.16665 4.15583 4.24959 4.13774C4.21708 4.28938 4.24114 4.54982 4.33646 4.54982V3.91033H4.16375L4.16383 3.91024ZM4.33655 3.91024V4.54973C4.43186 4.54973 4.45593 4.28929 4.42342 4.13765C4.50645 4.15575 4.5445 4.17546 4.73258 4.17546C4.65211 4.12033 4.5672 4.09004 4.50918 3.91016H4.33646L4.33655 3.91024Z" fill="#FCDD09"/>
<path fill-rule="evenodd" clip-rule="evenodd" d="M3.63135 2.92928C3.38619 2.93415 3.24206 3.472 3.80501 3.64438C3.61642 3.36201 3.96893 3.17001 4.10137 3.77895H4.20642C4.20642 3.73432 4.12108 2.91964 3.63144 2.92928H3.63135Z" fill="#FCDD09"/>
<path fill-rule="evenodd" clip-rule="evenodd" d="M8.00042 2.1416C7.94137 2.1416 7.716 2.38472 7.716 2.67715C7.716 2.88776 7.91073 3.37655 7.91073 3.77889H8.09019C8.09019 3.37655 8.28492 2.88776 8.28492 2.67715C8.28492 2.38472 8.05956 2.1416 8.0005 2.1416H8.00042Z" fill="#FCDD09"/>
<path fill-rule="evenodd" clip-rule="evenodd" d="M8.70578 2.92928C8.95095 2.93415 9.09507 3.472 8.53213 3.64438C8.72072 3.36201 8.3682 3.17001 8.23577 3.77895H8.13072C8.13072 3.73432 8.21606 2.91964 8.7057 2.92928H8.70578Z" fill="#FCDD09"/>
<path fill-rule="evenodd" clip-rule="evenodd" d="M7.69945 3.81348V3.86544H8.00042V3.81348H7.69945ZM8.00042 3.81348V3.86544H8.30139V3.81348H8.00042Z" fill="#FCDD09"/>
<path fill-rule="evenodd" clip-rule="evenodd" d="M7.82771 3.91024C7.76977 4.09004 7.68478 4.12033 7.60431 4.17554C7.79238 4.17554 7.83053 4.15583 7.91347 4.13774C7.88096 4.28938 7.90502 4.54982 8.00034 4.54982V3.91033H7.82763L7.82771 3.91024ZM8.00043 3.91024V4.54973C8.09574 4.54973 8.11981 4.28929 8.0873 4.13765C8.17032 4.15575 8.20838 4.17546 8.39646 4.17546C8.31599 4.12033 8.23108 4.09004 8.17306 3.91016H8.00034L8.00043 3.91024Z" fill="#FCDD09"/>
<path fill-rule="evenodd" clip-rule="evenodd" d="M7.29542 2.92928C7.05025 2.93415 6.90613 3.472 7.46907 3.64438C7.28048 3.36201 7.63299 3.17001 7.76543 3.77895H7.87048C7.87048 3.73432 7.78514 2.91964 7.2955 2.92928H7.29542Z" fill="#FCDD09"/>
<path fill-rule="evenodd" clip-rule="evenodd" d="M11.6643 2.1416C11.6052 2.1416 11.3799 2.38472 11.3799 2.67715C11.3799 2.88776 11.5746 3.37655 11.5746 3.77889H11.7541C11.7541 3.37655 11.9488 2.88776 11.9488 2.67715C11.9488 2.38472 11.7234 2.1416 11.6644 2.1416H11.6643Z" fill="#FCDD09"/>
<path fill-rule="evenodd" clip-rule="evenodd" d="M12.369 2.92928C12.6142 2.93415 12.7583 3.472 12.1954 3.64438C12.3839 3.36201 12.0314 3.17001 11.899 3.77895H11.7939C11.7939 3.73432 11.8793 2.91964 12.3689 2.92928H12.369Z" fill="#FCDD09"/>
<path fill-rule="evenodd" clip-rule="evenodd" d="M11.3631 3.81348V3.86544H11.664V3.81348H11.3631ZM11.664 3.81348V3.86544H11.965V3.81348H11.664Z" fill="#FCDD09"/>
<path fill-rule="evenodd" clip-rule="evenodd" d="M11.491 3.91024C11.433 4.09004 11.348 4.12033 11.2676 4.17554C11.4557 4.17554 11.4938 4.15583 11.5767 4.13774C11.5442 4.28938 11.5683 4.54982 11.6636 4.54982V3.91033H11.4909L11.491 3.91024ZM11.6637 3.91024V4.54973C11.759 4.54973 11.7831 4.28929 11.7506 4.13765C11.8336 4.15575 11.8717 4.17546 12.0597 4.17546C11.9793 4.12033 11.8944 4.09004 11.8363 3.91016H11.6636L11.6637 3.91024Z" fill="#FCDD09"/>
<path fill-rule="evenodd" clip-rule="evenodd" d="M10.9587 2.92928C10.7135 2.93415 10.5694 3.472 11.1323 3.64438C10.9437 3.36201 11.2962 3.17001 11.4287 3.77895H11.5337C11.5337 3.73432 11.4484 2.91964 10.9588 2.92928H10.9587Z" fill="#FCDD09"/>
<path fill-rule="evenodd" clip-rule="evenodd" d="M6.57315 10.3329C6.50975 10.3054 6.44831 10.2808 6.37569 10.2386C6.37569 10.2386 6.3826 10.2341 6.389 10.2323C6.40803 10.2271 6.39532 10.2139 6.38585 10.2117C6.35487 10.2044 6.29428 10.1907 6.29428 10.1907C6.24838 10.148 6.23165 10.1465 6.21783 10.1265C6.10365 9.96159 5.97761 9.7288 5.93358 9.57306C5.92769 9.55224 5.93913 9.54533 5.9172 9.51017C5.90312 9.48747 5.87197 9.4955 5.86804 9.52152C5.84535 9.67128 6.14785 10.1806 6.19828 10.1831L6.05996 10.1674C6.04707 10.1253 5.97224 10.0484 5.93375 10.0081C5.82265 9.89153 5.69371 9.71412 5.61094 9.63911C5.60855 9.63689 5.60351 9.64363 5.60462 9.64662C5.69431 9.88598 5.84168 10.1245 5.91404 10.1579C5.80439 10.1449 5.69123 10.1482 5.57757 10.1542C5.54523 10.072 5.28872 9.71822 5.27191 9.74731C5.24375 9.79604 5.49147 10.1084 5.54728 10.1606C5.52518 10.1615 5.51289 10.1659 5.4878 10.1729C5.38984 10.0939 5.0869 9.72402 4.83355 9.29565C4.8309 9.29112 4.82083 9.30059 4.8216 9.30571C4.88074 9.68417 5.15713 9.8585 5.29742 10.0937C5.30297 10.103 5.30681 10.122 5.28471 10.1034C5.04671 9.90279 4.81904 9.55327 4.5185 9.15041C4.51568 9.14665 4.50817 9.15655 4.50937 9.16108C4.55587 9.34087 4.59794 9.41102 4.7867 9.68306C4.7989 9.70064 4.7867 9.71497 4.77416 9.7038C4.59922 9.54746 4.46465 9.36169 4.21326 9.02821C4.2119 9.02642 4.20848 9.03145 4.20925 9.03359C4.34792 9.39147 4.89217 9.93479 5.16985 10.1218C5.24852 10.1747 5.38907 10.1981 5.4424 10.2038C5.45136 10.2048 5.45913 10.2129 5.46348 10.2208C5.54216 10.364 5.83954 10.506 5.83954 10.506L5.77904 10.5327C5.77904 10.5327 5.57288 10.411 5.46433 10.3272C5.42286 10.2952 5.39351 10.2655 5.35178 10.2454C5.23521 10.1891 4.9508 10.1067 4.9461 10.102C4.9461 10.102 4.91282 10.08 4.89106 10.0671C4.88833 10.0655 4.88415 10.0693 4.88287 10.0722C4.88125 10.0759 4.88535 10.0841 4.88535 10.0841L4.66305 10.0209C4.66305 10.0209 4.65827 10.0098 4.65426 10.0054C4.60298 9.95101 4.46653 9.88248 4.46653 9.88248C4.46653 9.88248 4.45783 9.86593 4.45143 9.85919C4.30175 9.70294 4.00863 9.46298 3.69384 9.31834C3.68641 9.31493 3.67455 9.33413 3.68095 9.33925C3.87227 9.49191 3.95965 9.53808 4.03252 9.61658C4.07681 9.66429 4.04925 9.64986 4.1304 9.70994C4.1304 9.70994 3.93823 9.62682 3.81365 9.5979C3.80614 9.59619 3.7976 9.61505 3.80417 9.61897C3.97919 9.72214 4.08236 9.74936 4.20763 9.84536C4.26105 9.88632 4.38376 9.94409 4.38376 9.94409C4.11521 9.87105 3.71389 9.75704 3.57812 9.7998C3.93217 9.87395 4.23186 9.95339 4.54162 10.051C4.4696 10.0592 4.40296 10.0817 4.33657 10.1051C4.33657 10.1051 4.26856 10.061 4.22026 10.0297C4.21838 10.0285 4.21497 10.0336 4.2165 10.0353C4.24919 10.0725 4.29578 10.1127 4.29578 10.1127L4.2945 10.1196L4.21838 10.1435L4.35867 10.1687C4.4283 10.2312 4.49793 10.2687 4.56756 10.3109C4.32095 10.3561 4.10557 10.3229 4.15114 10.5857C4.15157 10.5883 4.15822 10.5902 4.15865 10.5876C4.19611 10.3991 4.25209 10.3925 4.31148 10.3807C4.4318 10.3567 4.6983 10.3863 4.6983 10.3863L5.02973 10.5567C4.4865 10.5415 4.24731 10.646 4.2555 10.7498C4.25704 10.7694 4.26523 10.7713 4.27376 10.7618C4.35159 10.6741 4.52763 10.6436 4.62406 10.6335C4.63361 10.6325 4.64445 10.6446 4.64419 10.6542C4.64249 10.7242 4.58455 10.7979 4.59888 10.8662C4.60264 10.8839 4.6168 10.8782 4.6203 10.8694C4.64931 10.7952 4.6785 10.72 4.73217 10.6896C4.87536 10.6083 5.10414 10.6501 5.25928 10.6549L5.34359 10.6844C5.25305 10.6844 4.79617 10.8201 4.73217 10.9153C4.71937 10.9343 4.72646 10.9751 4.75351 10.9575C4.78184 10.9392 4.80786 10.9162 4.83893 10.9028C5.0055 10.831 5.28334 10.7902 5.39965 10.7077L5.50777 10.7304C5.44701 10.7894 5.39436 10.8557 5.36637 10.9437C5.219 10.9894 4.99218 11.0497 4.96129 11.1481C4.94337 11.2052 4.9531 11.2805 4.99816 11.3902C5.00012 11.3948 5.00925 11.3948 5.00891 11.3901C5.00166 11.2674 5.03349 11.1877 5.07368 11.1347C5.1329 11.0569 5.29699 11.0246 5.35297 11.0086C5.35366 11.0445 5.35639 11.0804 5.36099 11.1162C5.30587 11.1814 5.26619 11.2511 5.22403 11.3199L5.37968 11.1759L5.43395 11.336C5.43037 11.272 5.43054 11.2087 5.41791 11.1429C5.59003 11.0233 5.72614 11.0841 5.86975 11.1074C5.56358 11.2412 5.54557 11.4124 5.57091 11.6891C5.62211 11.3882 5.66743 11.2442 5.99246 11.1457C6.01729 11.1499 6.04102 11.1578 6.06448 11.1662L5.90653 11.3418C5.90653 11.3418 5.78493 11.4591 5.77631 11.5944C5.77529 11.6102 5.79304 11.6135 5.79893 11.6039C5.91011 11.4216 5.99912 11.357 5.99912 11.357L6.13923 11.1323L6.09964 11.1103C6.12507 11.1004 6.15101 11.0938 6.17721 11.0899L6.30657 11.0134C6.20733 11.013 6.10228 11.0242 5.98521 11.0593C5.7479 10.9803 5.55112 10.9684 5.41808 11.062L5.4296 10.9864C5.67613 10.9177 5.70915 10.94 5.91165 10.887L5.82359 10.8266C5.70062 10.8526 5.57851 10.8828 5.45759 10.9184C5.4965 10.8469 5.55171 10.7857 5.62177 10.7335C5.65548 10.7374 5.68757 10.735 5.71735 10.7234L6.00603 10.813L6.20528 10.7613L6.17465 10.7373C6.13138 10.7016 6.10604 10.7065 6.08283 10.6958C6.05126 10.6811 5.98811 10.6421 5.93128 10.5945C5.91549 10.5814 5.90508 10.564 5.86557 10.5506L5.89006 10.5323C6.01994 10.6005 6.14973 10.6537 6.27961 10.7057L6.34497 10.6745C6.24419 10.6167 6.08232 10.5588 5.94954 10.501L6.0568 10.4623L6.04895 10.3888L5.91455 10.2334C5.95312 10.2399 5.98947 10.2402 6.02617 10.2411C6.0574 10.3066 6.1383 10.3414 6.21876 10.3766C6.29983 10.4193 6.38286 10.3839 6.46529 10.3718C6.38679 10.32 6.26672 10.2871 6.17917 10.2466L6.26971 10.2447C6.34497 10.3051 6.42024 10.3295 6.4955 10.356L6.55592 10.3604L6.5735 10.3328L6.57315 10.3329Z" fill="#008000"/>
<path fill-rule="evenodd" clip-rule="evenodd" d="M3.79398 10.2571C3.79338 10.2627 3.80132 10.2634 3.80507 10.2594C3.91635 10.1405 3.94647 10.0723 4.01687 10.0374C4.09375 9.99925 4.24624 10.0194 4.34079 10.001C4.34489 10.0002 4.34165 9.99216 4.33781 9.99071C4.20392 9.93849 4.03129 9.92176 3.92437 9.99575C3.86566 10.0365 3.8107 10.1042 3.79398 10.2571Z" fill="#008000"/>
<path fill-rule="evenodd" clip-rule="evenodd" d="M4.06393 9.26272C4.06146 9.26076 4.05472 9.26485 4.05591 9.26784C4.21634 9.66396 4.6471 9.92619 4.94927 10.0939C4.95166 10.0952 4.95771 10.0908 4.95584 10.0887C4.78671 9.904 4.31712 9.45924 4.06402 9.26272H4.06393Z" fill="#008000"/>
<path fill-rule="evenodd" clip-rule="evenodd" d="M5.33594 9.56641C5.33594 9.56641 5.55669 10.0527 5.737 10.1487C5.7481 10.1546 5.7801 10.1481 5.77575 10.1363C5.72275 9.99205 5.39644 9.64176 5.33594 9.56641Z" fill="#008000"/>
<path fill-rule="evenodd" clip-rule="evenodd" d="M4.43555 10.1685L4.51294 10.2184C4.54605 10.1917 4.58113 10.1684 4.62516 10.1607L4.59478 10.1211C4.53812 10.1262 4.48811 10.1585 4.43555 10.1685Z" fill="#DA121A"/>
<path fill-rule="evenodd" clip-rule="evenodd" d="M4.668 10.1155L4.70384 10.1105L4.67926 10.0913L4.83346 10.1457L4.71314 10.1452L4.668 10.1155Z" fill="#DA121A"/>
<path fill-rule="evenodd" clip-rule="evenodd" d="M4.67977 10.2134L4.7663 10.2927L4.65102 10.304L4.53983 10.2351L4.67977 10.2134Z" fill="#DA121A"/>
<path fill-rule="evenodd" clip-rule="evenodd" d="M4.78711 10.1956L4.89838 10.1699L4.95812 10.1905C5.01085 10.2603 5.06564 10.3093 5.12127 10.3511C4.99473 10.3214 4.98611 10.2954 4.91852 10.2883L4.78711 10.1956Z" fill="#DA121A"/>
<path fill-rule="evenodd" clip-rule="evenodd" d="M5.13583 10.2554C5.20051 10.3099 5.27031 10.3531 5.33858 10.3995L5.36947 10.3969V10.3782L5.34063 10.3548C5.27757 10.3177 5.20631 10.2869 5.13574 10.2555L5.13583 10.2554Z" fill="#DA121A"/>
<path fill-rule="evenodd" clip-rule="evenodd" d="M4.82129 10.4028C4.86933 10.426 4.91678 10.4523 4.9661 10.4698C4.97719 10.4708 4.9876 10.4706 4.99699 10.4685C4.98308 10.4504 4.97079 10.4318 4.94297 10.4163C4.90475 10.4091 4.86285 10.4062 4.82137 10.4028H4.82129Z" fill="#DA121A"/>
<path fill-rule="evenodd" clip-rule="evenodd" d="M5.17291 10.4521L5.30006 10.4743L5.48173 10.5762L5.3685 10.5674L5.17291 10.4521Z" fill="#DA121A"/>
<path fill-rule="evenodd" clip-rule="evenodd" d="M5.53906 10.5244L5.66536 10.5975L5.71161 10.5699L5.53906 10.5244Z" fill="#DA121A"/>
<path fill-rule="evenodd" clip-rule="evenodd" d="M5.80713 10.5962L5.76855 10.6271L5.89673 10.6577L5.80713 10.5962Z" fill="#DA121A"/>
<path fill-rule="evenodd" clip-rule="evenodd" d="M5.57433 10.2711C5.64601 10.3486 5.76197 10.409 5.88221 10.4676L5.96959 10.4173C5.83647 10.3727 5.70343 10.3277 5.57433 10.271V10.2711Z" fill="#DA121A"/>
<path fill-rule="evenodd" clip-rule="evenodd" d="M5.64268 10.2306C5.70412 10.2541 5.76547 10.2696 5.82691 10.2807C5.80635 10.2645 5.78501 10.2563 5.76564 10.2251L5.64259 10.2306H5.64268Z" fill="#DA121A"/>
<path fill-rule="evenodd" clip-rule="evenodd" d="M9.90731 11.9217C10.6436 12.1004 11.4178 12.2929 12.0868 12.4473L12.0805 12.482L12.1198 12.3449L10.1603 11.9118L9.93505 11.833L9.90723 11.9217H9.90731Z" fill="#008000"/>
<path fill-rule="evenodd" clip-rule="evenodd" d="M9.81967 11.9341L12.032 12.5212L11.9875 12.6426L11.9929 12.6143C11.3229 12.4377 10.3182 12.1482 9.6496 11.9514L9.81975 11.9341H9.81967Z" fill="#008000"/>
<path fill-rule="evenodd" clip-rule="evenodd" d="M9.62721 11.9649L11.9081 12.6997L11.8585 12.821L11.8404 12.7962C11.1424 12.5543 9.74301 12.1026 9.61816 12.0213L9.62729 11.9648L9.62721 11.9649Z" fill="#008000"/>
<path fill-rule="evenodd" clip-rule="evenodd" d="M9.84783 12.1534L11.7981 12.893L11.7424 13.0088L11.7413 12.9811C11.196 12.7814 10.4899 12.4897 9.83699 12.2284L9.84783 12.1533V12.1534Z" fill="#008000"/>
<path fill-rule="evenodd" clip-rule="evenodd" d="M10.0477 12.3776L11.6985 13.062L11.6402 13.1754L11.6465 13.1518C11.0234 12.8896 10.3673 12.5942 9.72559 12.3134L9.84881 12.3047L10.0476 12.3776L10.0477 12.3776Z" fill="#008000"/>
<path fill-rule="evenodd" clip-rule="evenodd" d="M9.62501 12.3169L11.5768 13.259L11.509 13.3724L11.5173 13.3467C10.8633 13.0284 10.1589 12.668 9.47969 12.3287L9.62501 12.317V12.3169Z" fill="#008000"/>
<path fill-rule="evenodd" clip-rule="evenodd" d="M7.94325 8.86997C7.84111 9.20064 7.9639 9.4167 8.16307 9.59385C8.15343 9.36192 8.20454 9.13374 8.46182 8.91844C8.29943 9.16847 8.34423 9.41849 8.52599 9.66852C8.56124 9.41286 8.68779 9.20294 8.95795 9.06479C8.75477 9.27539 8.7232 9.52371 8.86451 9.80992C8.95727 9.55998 9.13621 9.39195 9.41013 9.3143C9.09764 9.547 9.127 9.78551 9.16301 10.024C9.35185 9.74865 9.57158 9.66741 9.80224 9.65521C9.42319 9.83014 9.43531 10.0628 9.41338 10.2904C9.70402 10.0296 9.9107 10.0429 10.114 10.0671C9.82827 10.116 9.6541 10.2937 9.6 10.6098C9.89978 10.4218 10.1235 10.4671 10.3415 10.5299C10.0872 10.525 9.86445 10.6221 9.71657 10.9605C10.0385 10.8442 10.2627 10.9111 10.4553 11.0371C10.2148 10.9863 9.97982 11.0152 9.76435 11.3271C10.0908 11.2794 10.2905 11.3995 10.4631 11.5556C10.2515 11.4633 10.024 11.4378 9.72911 11.6952C10.0029 11.7211 10.2215 11.8342 10.3651 12.066C10.17 11.9114 9.93178 11.8709 9.61101 12.0474C9.94953 12.1356 10.072 12.3354 10.1706 12.5477C10.0337 12.3924 9.88297 12.2494 9.42908 12.37C9.72894 12.5228 9.82571 12.7372 9.87119 12.9692C9.74609 12.7157 9.5127 12.6116 9.18349 12.6412C9.44128 12.872 9.50443 13.0924 9.48582 13.3149C9.42473 13.0734 9.25252 12.9149 8.89762 12.8664C9.1043 13.1354 9.09824 13.3645 9.04687 13.5918C9.0333 13.266 8.83191 13.1173 8.55945 13.0211C8.69197 13.2721 8.67669 13.5151 8.56593 13.7602C8.59477 13.4966 8.49903 13.2739 8.20156 13.1052C8.25694 13.3498 8.24218 13.5857 8.04668 13.8218C8.17195 13.5223 8.03396 13.3067 7.83454 13.1029C7.83147 13.3542 7.77574 13.5927 7.53101 13.785C7.70295 13.5072 7.63238 13.2639 7.47332 13.0333C7.4275 13.2622 7.33099 13.4765 7.03778 13.6347C7.25367 13.3922 7.24838 13.1418 7.1325 12.8874C7.03036 13.0872 6.93308 13.2891 6.58543 13.3826C6.88606 13.1613 6.87369 12.9189 6.82948 12.6742C6.68774 12.8673 6.5152 13.0275 6.20288 13.0382C6.41229 12.9461 6.58313 12.798 6.58074 12.3999C6.41229 12.5623 6.20783 12.6781 5.88015 12.6342C6.17984 12.5838 6.33489 12.3816 6.39727 12.082C6.17737 12.2195 5.93536 12.2608 5.66204 12.1667C5.98519 12.1731 6.16311 11.9927 6.27908 11.7329C6.04493 11.8073 5.80548 11.8364 5.54189 11.6579C5.80463 11.7288 6.03699 11.64 6.23437 11.3663C5.9904 11.3899 5.75164 11.3687 5.53711 11.1393C5.79738 11.2755 6.04066 11.2269 6.27746 11.0013C6.01233 10.9798 5.78569 10.8773 5.62731 10.6305C5.87972 10.8224 6.13214 10.8041 6.38455 10.6458C6.11098 10.5813 5.92657 10.4188 5.83125 10.1582C6.00986 10.368 6.24819 10.4374 6.56333 10.3264C6.27797 10.1752 6.16866 9.96625 6.12599 9.73218C6.27959 10.0184 6.53244 10.0878 6.81284 10.0521C6.60881 9.88492 6.49003 9.67543 6.50539 9.38376C6.58679 9.67927 6.81788 9.80847 7.10682 9.83193C6.97105 9.67117 6.86985 9.48855 6.94519 9.11087C6.95006 9.4144 7.14274 9.57636 7.43799 9.67842C7.33124 9.46159 7.27603 9.22991 7.43159 8.93815C7.38022 9.2369 7.54005 9.44153 7.79861 9.60213C7.7405 9.36047 7.74758 9.11727 7.94351 8.86963L7.94325 8.86997Z" fill="#FCDD09"/>
</g>
</g>
<defs>
<clipPath id="clip0_1_482859">
<rect width="16" height="16" fill="white"/>
</clipPath>
</defs>
</svg>
