<svg width="16" height="16" viewBox="0 0 16 16" fill="none" xmlns="http://www.w3.org/2000/svg">
<g clip-path="url(#clip0_1_482767)">
<rect width="16" height="16" rx="8" fill="white"/>
<rect x="12.8" width="6.4" height="16" fill="#3ECBF8"/>
<rect x="-3.2" width="6.4" height="16" fill="#3ECBF8"/>
<path d="M7.99999 8.53324C8.29454 8.53324 8.53333 8.05567 8.53333 7.46657C8.53333 6.87747 8.29454 6.3999 7.99999 6.3999C7.70544 6.3999 7.46666 6.87747 7.46666 7.46657C7.46666 8.05567 7.70544 8.53324 7.99999 8.53324Z" fill="#FFDA2C"/>
<path fill-rule="evenodd" clip-rule="evenodd" d="M10.6663 8.00016C10.6663 6.52816 9.47167 5.3335 7.99967 5.3335C6.52767 5.3335 5.33301 6.52816 5.33301 8.00016C5.33301 9.47216 6.52767 10.6668 7.99967 10.6668C9.47167 10.6668 10.6663 9.47216 10.6663 8.00016ZM7.99967 9.60016C8.88287 9.60016 9.59967 8.6455 9.59967 7.46683C9.59967 6.28816 8.88287 5.3335 7.99967 5.3335C7.11647 5.3335 6.39967 6.28816 6.39967 7.46683C6.39967 8.6455 7.11647 9.60016 7.99967 9.60016Z" fill="#249F58"/>
</g>
<defs>
<clipPath id="clip0_1_482767">
<rect width="16" height="16" rx="8" fill="white"/>
</clipPath>
</defs>
</svg>
