<svg width="16" height="16" viewBox="0 0 16 16" fill="none" xmlns="http://www.w3.org/2000/svg">
<g clip-path="url(#clip0_1_483473)">
<path d="M2.96317e-05 17.0665L3.04243e-05 -1.06686C3.04758e-05 -2.24507 0.955161 -3.2002 2.13337 -3.2002L13.8668 -3.20019C15.045 -3.20019 16.0001 -2.24507 16.0001 -1.06686L16.0001 17.0665C16.0001 18.2447 15.045 19.1998 13.8668 19.1998L2.13337 19.1998C0.95516 19.1998 2.95802e-05 18.2447 2.96317e-05 17.0665Z" fill="#F93939"/>
<path fill-rule="evenodd" clip-rule="evenodd" d="M3.05176e-05 -3.2002L3.01446e-05 5.33314L16.0001 5.33314L16.0001 -3.20019L3.05176e-05 -3.2002Z" fill="#151515"/>
<path fill-rule="evenodd" clip-rule="evenodd" d="M3.05176e-05 10.666L3.01446e-05 19.1993L16.0001 19.1993L16.0001 10.666L3.05176e-05 10.666Z" fill="#FFDA2C"/>
</g>
<defs>
<clipPath id="clip0_1_483473">
<rect width="16.0001" height="16" rx="8" fill="white"/>
</clipPath>
</defs>
</svg>
