<svg width="16" height="16" viewBox="0 0 16 16" fill="none" xmlns="http://www.w3.org/2000/svg">
<g clip-path="url(#clip0_1_482634)">
<rect width="16" height="16" rx="8" fill="#F93939"/>
<path fill-rule="evenodd" clip-rule="evenodd" d="M-3.2 0H19.2V8.53333H-3.2V0Z" fill="#1A47B8"/>
<path fill-rule="evenodd" clip-rule="evenodd" d="M3.2 5.3335H12.0889V10.6668H3.2V5.3335Z" fill="white"/>
<path fill-rule="evenodd" clip-rule="evenodd" d="M6.75566 7.11133H8.53344V10.6669H6.75566V7.11133Z" fill="#FFDA2C"/>
<path fill-rule="evenodd" clip-rule="evenodd" d="M4.97734 8.00016C4.97734 6.52816 6.16134 5.3335 7.64401 5.3335C9.11601 5.3335 10.3107 6.5175 10.3107 8.00016V10.6668H4.97734V8.00016ZM6.75512 8.00905C6.75512 7.51127 7.16756 7.11127 7.64401 7.11127C8.13467 7.11127 8.5329 7.49172 8.5329 8.00905V10.6668H6.75512V8.00905Z" fill="#249F58"/>
</g>
<defs>
<clipPath id="clip0_1_482634">
<rect width="16" height="16" rx="8" fill="white"/>
</clipPath>
</defs>
</svg>
