<svg width="16" height="16" viewBox="0 0 16 16" fill="none" xmlns="http://www.w3.org/2000/svg">
<g clip-path="url(#clip0_1_482843)">
<rect width="16" height="16" rx="8" fill="white"/>
<path fill-rule="evenodd" clip-rule="evenodd" d="M7.99967 9.5999C9.47167 9.5999 10.6663 8.8831 10.6663 7.9999C10.6663 7.1167 9.47167 6.3999 7.99967 6.3999C6.52767 6.3999 5.33301 7.1167 5.33301 7.9999C5.33301 8.8831 6.52767 9.5999 7.99967 9.5999ZM7.99967 8.7999C8.88287 8.7999 9.59967 8.2623 9.59967 7.5999C9.59967 6.93857 8.88287 6.3999 7.99967 6.3999C7.11647 6.3999 6.39967 6.9375 6.39967 7.5999C6.39967 8.26124 7.11647 8.7999 7.99967 8.7999Z" fill="#F93939"/>
<path d="M8.00001 8.53324C8.29456 8.53324 8.53334 8.05567 8.53334 7.46657C8.53334 6.87747 8.29456 6.3999 8.00001 6.3999C7.70546 6.3999 7.46667 6.87747 7.46667 7.46657C7.46667 8.05567 7.70546 8.53324 8.00001 8.53324Z" fill="#AF010D"/>
<path fill-rule="evenodd" clip-rule="evenodd" d="M-3.20001 10.6665H19.2V15.9998H-3.20001V10.6665Z" fill="#F93939"/>
<path fill-rule="evenodd" clip-rule="evenodd" d="M-3.20001 0H19.2V5.33333H-3.20001V0Z" fill="#00B731"/>
</g>
<defs>
<clipPath id="clip0_1_482843">
<rect width="16" height="16" rx="8" fill="white"/>
</clipPath>
</defs>
</svg>
