<svg width="16" height="16" viewBox="0 0 16 16" fill="none" xmlns="http://www.w3.org/2000/svg">
<g clip-path="url(#clip0_1_482918)">
<rect width="16" height="16" rx="8" fill="white"/>
<path fill-rule="evenodd" clip-rule="evenodd" d="M-3.20001 10.6665H19.2V15.9998H-3.20001V10.6665Z" fill="#151515"/>
<path fill-rule="evenodd" clip-rule="evenodd" d="M7.46668 8.53324H8.53335V9.06124C8.53335 9.37057 8.77228 9.5999 9.06668 9.5999C9.35255 9.5999 9.60001 9.35884 9.60001 9.06124V6.9279C9.60001 6.6367 9.84748 6.3999 10.1333 6.3999C10.4277 6.3999 10.6667 6.6303 10.6667 6.9279V8.53324H12.256C12.5568 8.53324 12.8 8.7807 12.8 9.06657C12.8 9.36097 12.5632 9.5999 12.256 9.5999H3.74401C3.44321 9.5999 3.20001 9.35244 3.20001 9.06657C3.20001 8.84044 3.33868 8.64737 3.54135 8.5695C3.56801 8.50124 3.60855 8.43617 3.66508 8.3807L5.17975 6.86604C5.38668 6.6591 5.72908 6.66657 5.93175 6.86817C6.14081 7.07617 6.14721 7.40684 5.93601 7.61804L5.02081 8.53324H6.40001V8.00524C6.40001 7.70657 6.64748 7.46657 6.93335 7.46657C7.22775 7.46657 7.46668 7.69484 7.46668 8.00524V8.53324Z" fill="#249F58"/>
<path fill-rule="evenodd" clip-rule="evenodd" d="M-3.20001 0H19.2V5.33333H-3.20001V0Z" fill="#F93939"/>
</g>
<defs>
<clipPath id="clip0_1_482918">
<rect width="16" height="16" rx="8" fill="white"/>
</clipPath>
</defs>
</svg>
