<svg width="16" height="16" viewBox="0 0 16 16" fill="none" xmlns="http://www.w3.org/2000/svg">
<g clip-path="url(#clip0_1_483628)">
<rect width="16.0001" height="16" rx="8" fill="white"/>
<path d="M16.0001 0H0V16H16.0001V0Z" fill="white"/>
<path d="M16.0001 11.5557H0V16.0001H16.0001V11.5557Z" fill="#27A536"/>
<path d="M16.0001 0H0V4.44444H16.0001V0Z" fill="#F59D44"/>
<path d="M7.62878 5.18C6.07143 5.38481 4.97462 6.814 5.18 8.37135C5.38481 9.92869 6.81401 11.0255 8.37136 10.8201C9.92872 10.6153 11.0255 9.18612 10.8202 7.62877C10.6153 6.07143 9.18613 4.97462 7.62878 5.18ZM8.32492 10.4676C6.96231 10.6472 5.71161 9.68751 5.53254 8.3249C5.35291 6.9623 6.31261 5.71161 7.67523 5.53254C9.03784 5.35291 10.2885 6.31261 10.4676 7.67522C10.6472 9.03782 9.68753 10.2885 8.32492 10.4676Z" fill="#2D1C67"/>
<path d="M7.9349 7.50723C7.66238 7.54304 7.47044 7.79318 7.50625 8.0657C7.54207 8.33822 7.7922 8.53016 8.06473 8.49435C8.33725 8.45853 8.52919 8.2084 8.49338 7.93588C8.45756 7.66335 8.20742 7.47141 7.9349 7.50723Z" fill="#2D1C67"/>
<path d="M7.67578 5.53223L7.95502 7.00172L7.96341 7.71799L7.78602 7.0241L7.67578 5.53223Z" fill="#2D1C67"/>
<path d="M8.32474 10.468L8.04494 8.9985L8.03711 8.28223L8.2145 8.97612L8.32474 10.468Z" fill="#2D1C67"/>
<path d="M7.04688 5.7002L7.69712 7.04769L7.89074 7.73711L7.53988 7.11261L7.04688 5.7002Z" fill="#2D1C67"/>
<path d="M8.95268 10.2996L8.30244 8.95267L8.10938 8.2627L8.46024 8.8872L8.95268 10.2996Z" fill="#2D1C67"/>
<path d="M6.48523 6.02539L7.46172 7.15801L7.82714 7.77412L7.3263 7.26209L6.48523 6.02539Z" fill="#2D1C67"/>
<path d="M9.51574 9.97431L8.53869 8.8417L8.17383 8.22559L8.67411 8.73761L9.51574 9.97431Z" fill="#2D1C67"/>
<path d="M5.70117 7.04785L7.11359 7.54085L7.7381 7.89172L7.04812 7.69866L5.70117 7.04785Z" fill="#2D1C67"/>
<path d="M10.3 8.95226L8.88818 8.45926L8.26367 8.1084L8.95309 8.30146L10.3 8.95226Z" fill="#2D1C67"/>
<path d="M5.5332 7.6748L7.02452 7.78504L7.71842 7.96244L7.0027 7.9546L5.5332 7.6748Z" fill="#2D1C67"/>
<path d="M10.4681 8.32474L8.97623 8.2145L8.28233 8.03711L8.99862 8.0455L10.4681 8.32474Z" fill="#2D1C67"/>
<path d="M5.70117 8.95226L7.04812 8.30146L7.7381 8.1084L7.11359 8.45926L5.70117 8.95226Z" fill="#2D1C67"/>
<path d="M10.3 7.04785L8.95309 7.69866L8.26367 7.89172L8.88818 7.54085L10.3 7.04785Z" fill="#2D1C67"/>
<path d="M6.02539 9.51573L7.15801 8.53924L7.77413 8.17383L7.26209 8.67466L6.02539 9.51573Z" fill="#2D1C67"/>
<path d="M9.9753 6.48535L8.84268 7.4624L8.22656 7.82725L8.73859 7.32698L9.9753 6.48535Z" fill="#2D1C67"/>
<path d="M7.04709 10.2996L7.54009 8.8872L7.89096 8.2627L7.69734 8.95267L7.04709 10.2996Z" fill="#2D1C67"/>
<path d="M8.95268 5.7002L8.46024 7.11261L8.10938 7.73711L8.30244 7.04769L8.95268 5.7002Z" fill="#2D1C67"/>
<path d="M7.67578 10.468L7.78602 8.97612L7.96341 8.28223L7.95502 8.9985L7.67578 10.468Z" fill="#2D1C67"/>
<path d="M8.32474 5.53223L8.2145 7.0241L8.03711 7.71799L8.04494 7.00172L8.32474 5.53223Z" fill="#2D1C67"/>
<path d="M10.468 7.67578L8.99851 7.95558L8.28223 7.96341L8.97612 7.78602L10.468 7.67578Z" fill="#2D1C67"/>
<path d="M5.53223 8.32474L7.00172 8.0455L7.71744 8.03711L7.02355 8.2145L5.53223 8.32474Z" fill="#2D1C67"/>
<path d="M9.9753 9.51573L8.73859 8.67466L8.22656 8.17383L8.84268 8.53924L9.9753 9.51573Z" fill="#2D1C67"/>
<path d="M6.02539 6.48535L7.26209 7.32698L7.77413 7.82725L7.15801 7.4624L6.02539 6.48535Z" fill="#2D1C67"/>
<path d="M6.48535 9.97431L7.32642 8.73761L7.82726 8.22559L7.46184 8.8417L6.48535 9.97431Z" fill="#2D1C67"/>
<path d="M9.51476 6.02539L8.67313 7.26209L8.17285 7.77412L8.53771 7.15801L9.51476 6.02539Z" fill="#2D1C67"/>
<path d="M7.32364 5.47598C7.25705 5.49388 7.21787 5.56216 7.23578 5.62819C7.25369 5.69478 7.32196 5.73395 7.38799 5.71604C7.45402 5.69814 7.49375 5.62987 7.47585 5.56383C7.45794 5.4978 7.38967 5.45807 7.32364 5.47598Z" fill="#2D1C67"/>
<path d="M8.61172 10.2846C8.54513 10.3025 8.50596 10.3707 8.52387 10.4368C8.54177 10.5028 8.61004 10.5425 8.67608 10.5246C8.74267 10.5067 8.78184 10.4385 8.76393 10.3724C8.74602 10.3064 8.67775 10.2667 8.61172 10.2846Z" fill="#2D1C67"/>
<path d="M6.69325 5.7367C6.63394 5.77084 6.61323 5.84694 6.64793 5.90682C6.68262 5.96669 6.75816 5.98684 6.81804 5.95214C6.87792 5.91745 6.89806 5.8419 6.86337 5.78203C6.82867 5.72215 6.75313 5.70201 6.69325 5.7367Z" fill="#2D1C67"/>
<path d="M9.18219 10.0481C9.12287 10.0822 9.10217 10.1583 9.13686 10.2182C9.171 10.2775 9.2471 10.2982 9.30698 10.2635C9.3663 10.2294 9.387 10.1533 9.35231 10.0934C9.31817 10.0341 9.24207 10.0134 9.18219 10.0481Z" fill="#2D1C67"/>
<path d="M6.15175 6.15175C6.10306 6.20043 6.10306 6.27934 6.15175 6.32802C6.20043 6.3767 6.27934 6.3767 6.32802 6.32802C6.3767 6.27934 6.3767 6.20043 6.32802 6.15175C6.27934 6.10306 6.20043 6.10306 6.15175 6.15175Z" fill="#2D1C67"/>
<path d="M9.67128 9.67226C9.62259 9.72094 9.62259 9.79984 9.67128 9.84853C9.71996 9.89721 9.79887 9.89721 9.84755 9.84853C9.89624 9.79984 9.89624 9.72094 9.84755 9.67226C9.79887 9.62357 9.71996 9.62357 9.67128 9.67226Z" fill="#2D1C67"/>
<path d="M5.73731 6.69401C5.70317 6.75333 5.72332 6.82944 5.78263 6.86413C5.84195 6.89883 5.91806 6.87812 5.95275 6.8188C5.98689 6.75949 5.96674 6.68338 5.90742 6.64869C5.84811 6.61399 5.772 6.6347 5.73731 6.69401Z" fill="#2D1C67"/>
<path d="M10.0479 9.18205C10.0137 9.24136 10.0339 9.31747 10.0932 9.35216C10.1525 9.38686 10.2286 9.36615 10.2633 9.30684C10.298 9.24752 10.2773 9.17142 10.218 9.13672C10.1587 9.10259 10.0825 9.12273 10.0479 9.18205Z" fill="#2D1C67"/>
<path d="M5.475 7.32341C5.45709 7.39 5.49683 7.45827 5.56286 7.47562C5.62889 7.49296 5.69772 7.45379 5.71507 7.38776C5.73297 7.32117 5.69324 7.2529 5.62721 7.23555C5.56118 7.21821 5.49235 7.25738 5.475 7.32341Z" fill="#2D1C67"/>
<path d="M10.2836 8.61247C10.2657 8.67906 10.3054 8.74733 10.3715 8.76468C10.4375 8.78203 10.5063 8.74286 10.5237 8.67682C10.5416 8.61023 10.5018 8.54196 10.4358 8.52462C10.3698 8.50727 10.3009 8.54644 10.2836 8.61247Z" fill="#2D1C67"/>
<path d="M5.38649 8.00021C5.38649 8.06904 5.44245 8.12444 5.51072 8.12444C5.57899 8.12444 5.63495 8.06848 5.63495 8.00021C5.63495 7.93194 5.57899 7.87598 5.51072 7.87598C5.44245 7.87598 5.38649 7.93194 5.38649 8.00021Z" fill="#2D1C67"/>
<path d="M10.3652 8.00021C10.3652 8.06904 10.4212 8.12444 10.4895 8.12444C10.5577 8.12444 10.6137 8.06848 10.6137 8.00021C10.6137 7.93194 10.5577 7.87598 10.4895 7.87598C10.4212 7.87598 10.3652 7.93194 10.3652 8.00021Z" fill="#2D1C67"/>
<path d="M5.47504 8.67604C5.49295 8.74263 5.56122 8.7818 5.62725 8.76389C5.69384 8.74599 5.73301 8.67772 5.71511 8.61169C5.6972 8.54565 5.62893 8.50592 5.5629 8.52383C5.4963 8.54174 5.45713 8.61001 5.47504 8.67604Z" fill="#2D1C67"/>
<path d="M10.2836 7.38795C10.3015 7.45454 10.3698 7.49372 10.4358 7.47581C10.5024 7.4579 10.5416 7.38963 10.5237 7.3236C10.5058 7.25757 10.4375 7.21784 10.3715 7.23574C10.3054 7.25365 10.2657 7.32192 10.2836 7.38795Z" fill="#2D1C67"/>
<path d="M5.7367 9.30721C5.77084 9.36653 5.84694 9.38723 5.90682 9.35254C5.96614 9.3184 5.98684 9.2423 5.95215 9.18242C5.91745 9.12254 5.84191 9.1024 5.78203 9.13709C5.72215 9.17179 5.70201 9.24733 5.7367 9.30721Z" fill="#2D1C67"/>
<path d="M10.0472 6.81783C10.0814 6.87714 10.1575 6.89785 10.2174 6.86315C10.2772 6.82846 10.2974 6.75291 10.2627 6.69304C10.2286 6.63372 10.1525 6.61302 10.0926 6.64771C10.0327 6.68241 10.0126 6.75795 10.0472 6.81783Z" fill="#2D1C67"/>
<path d="M6.15175 9.84853C6.20043 9.89721 6.27934 9.89721 6.32802 9.84853C6.3767 9.79984 6.3767 9.72094 6.32802 9.67226C6.27934 9.62357 6.20043 9.62357 6.15175 9.67226C6.10306 9.72094 6.10306 9.79984 6.15175 9.84853Z" fill="#2D1C67"/>
<path d="M9.67128 6.32802C9.71996 6.3767 9.79887 6.3767 9.84755 6.32802C9.89624 6.27934 9.89624 6.20043 9.84755 6.15175C9.79887 6.10306 9.71996 6.10306 9.67128 6.15175C9.62259 6.20043 9.62259 6.27934 9.67128 6.32802Z" fill="#2D1C67"/>
<path d="M6.69325 10.2633C6.75257 10.2974 6.82867 10.2773 6.86337 10.218C6.89806 10.1587 6.87736 10.0825 6.81804 10.0479C6.75872 10.0137 6.68262 10.0339 6.64793 10.0932C6.61323 10.1525 6.63394 10.2286 6.69325 10.2633Z" fill="#2D1C67"/>
<path d="M9.1823 5.95177C9.24161 5.98591 9.31772 5.96576 9.35241 5.90645C9.38711 5.84713 9.3664 5.77102 9.30709 5.73633C9.24777 5.70219 9.17166 5.72234 9.13697 5.78166C9.10227 5.84097 9.12298 5.91708 9.1823 5.95177Z" fill="#2D1C67"/>
<path d="M7.32341 10.5246C7.39 10.5425 7.45827 10.5028 7.47562 10.4368C7.49353 10.3702 7.45379 10.3019 7.38776 10.2846C7.32117 10.2667 7.2529 10.3064 7.23555 10.3724C7.21821 10.4385 7.25738 10.5073 7.32341 10.5246Z" fill="#2D1C67"/>
<path d="M8.61149 5.71585C8.67809 5.73376 8.74636 5.69403 8.7637 5.628C8.78161 5.5614 8.74188 5.49313 8.67585 5.47579C8.60982 5.45844 8.54099 5.49761 8.52364 5.56364C8.50629 5.62968 8.54546 5.69851 8.61149 5.71585Z" fill="#2D1C67"/>
<path d="M8.0003 10.6137C8.06913 10.6137 8.12453 10.5577 8.12453 10.4895C8.12453 10.4212 8.06857 10.3652 8.0003 10.3652C7.93203 10.3652 7.87607 10.4212 7.87607 10.4895C7.87607 10.5577 7.93203 10.6137 8.0003 10.6137Z" fill="#2D1C67"/>
<path d="M8.00021 5.63518C8.06904 5.63518 8.12444 5.57922 8.12444 5.51095C8.12444 5.44268 8.06848 5.38672 8.00021 5.38672C7.93194 5.38672 7.87598 5.44268 7.87598 5.51095C7.87598 5.57922 7.93194 5.63518 8.00021 5.63518Z" fill="#2D1C67"/>
</g>
<defs>
<clipPath id="clip0_1_483628">
<rect width="16.0001" height="16" rx="8" fill="white"/>
</clipPath>
</defs>
</svg>
