<svg width="16" height="16" viewBox="0 0 16 16" fill="none" xmlns="http://www.w3.org/2000/svg">
<rect width="16" height="16" rx="8" fill="#03BCDB"/>
<path fill-rule="evenodd" clip-rule="evenodd" d="M1.06641 2.6613C1.06641 2.3701 1.31387 2.1333 1.59974 2.1333C1.89414 2.1333 2.13307 2.3637 2.13307 2.6613V4.8053C2.13307 5.0965 1.88561 5.3333 1.59974 5.3333C1.30534 5.3333 1.06641 5.1029 1.06641 4.8053V2.6613ZM2.13307 4.79463C2.13307 4.50343 2.38054 4.26663 2.66641 4.26663C2.96081 4.26663 3.19974 4.49703 3.19974 4.79463V6.93863C3.19974 7.22983 2.95227 7.46663 2.66641 7.46663C2.37201 7.46663 2.13307 7.23623 2.13307 6.93863V4.79463ZM2.13307 9.0613C2.13307 8.7701 2.38054 8.5333 2.66641 8.5333C2.96081 8.5333 3.19974 8.7637 3.19974 9.0613V11.2053C3.19974 11.4965 2.95227 11.7333 2.66641 11.7333C2.37201 11.7333 2.13307 11.5029 2.13307 11.2053V9.0613ZM1.06641 11.1946C1.06641 10.9034 1.31387 10.6666 1.59974 10.6666C1.89414 10.6666 2.13307 10.897 2.13307 11.1946V13.3386C2.13307 13.6298 1.88561 13.8666 1.59974 13.8666C1.30534 13.8666 1.06641 13.6362 1.06641 13.3386V11.1946ZM1.06641 6.9333C1.06641 6.6389 1.31387 6.39997 1.59974 6.39997C1.89414 6.39997 2.13307 6.64743 2.13307 6.9333C2.13307 7.2277 1.88561 7.46663 1.59974 7.46663C1.30534 7.46663 1.06641 7.21917 1.06641 6.9333ZM2.13307 2.66663C2.13307 2.37223 2.38054 2.1333 2.66641 2.1333C2.96081 2.1333 3.19974 2.38077 3.19974 2.66663C3.19974 2.96103 2.95227 3.19997 2.66641 3.19997C2.37201 3.19997 2.13307 2.9525 2.13307 2.66663ZM1.06641 7.99997C1.06641 7.70557 1.31387 7.46663 1.59974 7.46663C1.89414 7.46663 2.13307 7.7141 2.13307 7.99997C2.13307 8.29437 1.88561 8.5333 1.59974 8.5333C1.30534 8.5333 1.06641 8.28583 1.06641 7.99997ZM2.13307 13.3333C2.13307 13.0389 2.38054 12.8 2.66641 12.8C2.96081 12.8 3.19974 13.0474 3.19974 13.3333C3.19974 13.6277 2.95227 13.8666 2.66641 13.8666C2.37201 13.8666 2.13307 13.6192 2.13307 13.3333ZM1.06641 9.06663C1.06641 8.77223 1.31387 8.5333 1.59974 8.5333C1.89414 8.5333 2.13307 8.78077 2.13307 9.06663C2.13307 9.36103 1.88561 9.59997 1.59974 9.59997C1.30534 9.59997 1.06641 9.3525 1.06641 9.06663Z" fill="#FFDA2C"/>
<path d="M11.2 9.59994C12.6728 9.59994 13.8667 8.40603 13.8667 6.93327C13.8667 5.46051 12.6728 4.2666 11.2 4.2666C9.72723 4.2666 8.53333 5.46051 8.53333 6.93327C8.53333 8.40603 9.72723 9.59994 11.2 9.59994Z" fill="#FFDA2C"/>
<path fill-rule="evenodd" clip-rule="evenodd" d="M7.46667 7.4668L8.53334 9.60013L11.2 10.6668L13.8667 9.60013L14.9333 7.4668V10.6668L11.2 11.7335L7.46667 10.6668V7.4668Z" fill="#FFDA2C"/>
</svg>
