<svg width="16" height="16" viewBox="0 0 16 16" fill="none" xmlns="http://www.w3.org/2000/svg">
<g clip-path="url(#clip0_1_483372)">
<rect width="16" height="16" rx="8" fill="#151515"/>
<path fill-rule="evenodd" clip-rule="evenodd" d="M-3.20001 10.6665H19.2V11.7332H-3.20001V10.6665Z" fill="white"/>
<path fill-rule="evenodd" clip-rule="evenodd" d="M-3.20001 11.7334H19.2V16.0001H-3.20001V11.7334Z" fill="#0A6A30"/>
<path fill-rule="evenodd" clip-rule="evenodd" d="M-3.20001 5.3335H19.2V10.6668H-3.20001V5.3335Z" fill="#F93939"/>
<path fill-rule="evenodd" clip-rule="evenodd" d="M-3.20001 4.2666H19.2V5.33327H-3.20001V4.2666Z" fill="white"/>
<path fill-rule="evenodd" clip-rule="evenodd" d="M10.0411 6.3084C10.1179 6.3084 10.5744 5.59373 10.5744 4.7084C10.5744 3.8252 10.1179 3.1084 10.0411 3.1084C9.96639 3.1084 9.50772 3.8252 9.50772 4.7084C9.50772 5.59373 9.96639 6.3084 10.0411 6.3084ZM6.90612 5.84013C6.85279 5.89346 6.02079 5.71213 5.39786 5.086C4.77386 4.46093 4.59039 3.63107 4.64479 3.57773C4.69812 3.5244 5.52799 3.70573 6.15306 4.33186C6.77812 4.95693 6.96052 5.7868 6.90719 5.8412L6.90612 5.84013ZM8.91039 10.6753C8.96372 10.6252 9.79572 10.7959 10.4197 11.3793C11.0437 11.966 11.2272 12.7415 11.1739 12.7916C11.1205 12.8417 10.2885 12.6711 9.66346 12.0876C9.03946 11.5009 8.85599 10.7255 8.91039 10.6753ZM6.90612 10.6753C6.85279 10.6252 6.02079 10.7959 5.39786 11.3793C4.77386 11.966 4.59039 12.7415 4.64479 12.7916C4.69812 12.8417 5.52799 12.6711 6.15306 12.0876C6.77812 11.5009 6.96052 10.7255 6.90719 10.6753H6.90612Z" fill="white"/>
<path fill-rule="evenodd" clip-rule="evenodd" d="M7.99967 12.8002C8.38047 12.8002 10.6663 10.6509 10.6663 8.0002C10.6663 5.34953 8.38047 3.2002 7.99967 3.2002C7.61887 3.2002 5.33301 5.34953 5.33301 8.0002C5.33301 10.6509 7.61887 12.8002 7.99967 12.8002Z" fill="#F93939"/>
<path fill-rule="evenodd" clip-rule="evenodd" d="M5.86634 9.5999C5.94101 9.5999 6.39967 8.8831 6.39967 7.9999C6.39967 7.1167 5.94101 6.3999 5.86634 6.3999C5.79167 6.3999 5.33301 7.1167 5.33301 7.9999C5.33301 8.8831 5.79167 9.5999 5.86634 9.5999ZM10.133 9.5999C10.2077 9.5999 10.6663 8.8831 10.6663 7.9999C10.6663 7.1167 10.2077 6.3999 10.133 6.3999C10.0583 6.3999 9.59967 7.1167 9.59967 7.9999C9.59967 8.8831 10.0583 9.5999 10.133 9.5999Z" fill="#151515"/>
<path d="M8.53334 7.9999C8.53334 7.11625 8.29456 6.3999 8.00001 6.3999C7.70546 6.3999 7.46667 7.11625 7.46667 7.9999C7.46667 8.88356 7.70546 9.5999 8.00001 9.5999C8.29456 9.5999 8.53334 8.88356 8.53334 7.9999Z" fill="white"/>
</g>
<defs>
<clipPath id="clip0_1_483372">
<rect width="16" height="16" rx="8" fill="white"/>
</clipPath>
</defs>
</svg>
