<svg width="16" height="16" viewBox="0 0 16 16" fill="none" xmlns="http://www.w3.org/2000/svg">
<g clip-path="url(#clip0_1_483127)">
<rect width="16" height="16" rx="8" fill="#1A47B8"/>
<path fill-rule="evenodd" clip-rule="evenodd" d="M-3.2 3.2002H19.2V4.26686H-3.2V3.2002Z" fill="white"/>
<path fill-rule="evenodd" clip-rule="evenodd" d="M-3.2 4.2666H19.2V11.7333H-3.2V4.2666Z" fill="#F93939"/>
<path d="M2.66667 10.6668C4.13943 10.6668 5.33333 9.47292 5.33333 8.00016C5.33333 6.5274 4.13943 5.3335 2.66667 5.3335C1.19391 5.3335 0 6.5274 0 8.00016C0 9.47292 1.19391 10.6668 2.66667 10.6668Z" fill="white"/>
<path fill-rule="evenodd" clip-rule="evenodd" d="M2.66504 9.04116L1.38504 9.71316L1.63037 8.28916L0.595703 7.28223L2.02504 7.07423L2.66504 5.7793L3.30504 7.0753L4.73437 7.28436L3.6997 8.29236L3.94504 9.71743" fill="#F93939"/>
<path fill-rule="evenodd" clip-rule="evenodd" d="M-3.2 11.7334H19.2V12.8001H-3.2V11.7334Z" fill="white"/>
</g>
<defs>
<clipPath id="clip0_1_483127">
<rect width="16" height="16" rx="8" fill="white"/>
</clipPath>
</defs>
</svg>
