<svg width="16" height="16" viewBox="0 0 16 16" fill="none" xmlns="http://www.w3.org/2000/svg">
<g clip-path="url(#clip0_1_483117)">
<path d="M13.6557 13.6554C16.7791 10.532 16.7791 5.46798 13.6557 2.34458C10.5323 -0.778821 5.46827 -0.778822 2.34487 2.34458C-0.778529 5.46798 -0.778529 10.532 2.34487 13.6554C5.46827 16.7788 10.5323 16.7788 13.6557 13.6554Z" fill="#244AA5"/>
<path d="M12.6909 10.0978C12.6909 10.0978 12.6908 10.0975 12.6909 10.0973C12.7942 9.97275 12.8878 9.85986 12.9765 9.75288C12.9162 9.65939 12.8541 9.56319 12.7937 9.46953C12.7113 9.47691 12.6296 9.47531 12.553 9.49421C12.4908 9.50955 12.4358 9.55839 12.3799 9.59115C12.3716 9.59603 12.3635 9.60165 12.3577 9.6094C12.3376 9.63675 12.2992 9.63601 12.2791 9.61157C12.264 9.59324 12.2492 9.57467 12.237 9.55453C12.2179 9.52333 12.207 9.4872 12.1995 9.46949H12.1994C12.1193 9.45604 12.0537 9.45079 11.9922 9.43189C11.9639 9.42315 11.9383 9.39248 11.9342 9.3632C11.9155 9.22755 11.8623 9.19561 11.7247 9.22025C11.6555 9.2326 11.5745 9.22981 11.5095 9.20541C11.3397 9.14189 11.1703 9.09625 10.987 9.11516C10.9544 9.11852 10.9195 9.10064 10.8856 9.09256V9.09248C10.8979 9.06103 10.9105 9.02974 10.9226 8.99821C10.9698 8.87543 11.0171 8.7527 11.0632 8.62956C11.0659 8.62239 11.0552 8.61066 11.057 8.6025C11.0686 8.55284 11.0827 8.5038 11.0947 8.45418C11.1077 8.40009 11.1194 8.34572 11.1317 8.29143L11.1316 8.29134C11.0735 8.2886 11.0119 8.27207 10.9581 8.28593C10.8464 8.31476 10.7454 8.28536 10.7103 8.18944C10.6735 8.08849 10.615 8.06684 10.5305 8.07221C10.4623 8.07647 10.395 8.09546 10.3301 8.10735H10.33C10.287 8.05076 10.2346 7.99647 10.1999 7.93258C10.1439 7.82933 10.0746 7.73735 10.111 7.59506C10.1524 7.43358 10.0557 7.29638 9.91598 7.25447H9.91589C9.90462 7.27288 9.89437 7.29379 9.8803 7.31175C9.85463 7.34448 9.82679 7.37548 9.79985 7.40717H9.79976C9.77385 7.36912 9.74523 7.33258 9.723 7.29256C9.70857 7.26632 9.70283 7.23515 9.69421 7.20588C9.66022 7.09003 9.62081 6.97534 9.59543 6.85765C9.58194 6.79495 9.59301 6.72697 9.59301 6.66144L9.55024 6.68711H9.55016C9.4725 6.64085 9.39487 6.59464 9.31684 6.54818C9.31675 6.5481 9.31671 6.5481 9.31663 6.54818C9.18549 6.7266 9.12456 6.69818 9.0131 6.56446C8.9231 6.45657 8.80853 6.4788 8.72057 6.53666C8.63495 6.593 8.5923 6.57283 8.5262 6.5187C8.37013 6.39121 8.20676 6.27385 7.99759 6.24691C7.97512 6.244 7.954 6.23075 7.96126 6.23354C8.00354 6.14735 8.03146 6.09051 8.07214 6.00752C8.07222 6.00752 8.07222 6.00743 8.07226 6.00743L8.2342 5.98033C8.2342 5.98033 8.2344 5.98012 8.23432 5.98008C8.15895 5.8797 8.10269 5.78805 8.02929 5.71326C7.9809 5.66401 7.91066 5.62464 7.84407 5.61148C7.82205 5.60709 7.78112 5.69804 7.73663 5.76328C7.65433 5.75357 7.54882 5.74102 7.41674 5.72535C7.41666 5.72535 7.41654 5.72544 7.4165 5.72548C7.29225 6.03368 7.00553 6.00489 6.75359 6.00731C6.75359 6.00731 6.75351 6.00731 6.75351 6.00739L6.84733 6.25704C6.84733 6.25704 6.84746 6.25724 6.84758 6.25724C7.08812 6.24675 7.09681 6.51615 7.23176 6.65193C7.25428 6.67464 7.18875 6.79438 7.15111 6.8622C7.13761 6.88656 7.08681 6.89029 7.07172 6.89599C7.07164 6.89599 7.07159 6.89612 7.07159 6.89624C7.09325 6.99109 7.11215 7.07384 7.12474 7.12919C7.06069 7.19882 7.02136 7.26058 6.96555 7.2967C6.91471 7.32959 6.83827 7.3608 6.78701 7.34566C6.72095 7.32606 6.68815 7.31971 6.64878 7.38257C6.59474 7.46881 6.53015 7.54836 6.46434 7.63861C6.46434 7.63869 6.46426 7.63869 6.46426 7.63861C6.3733 7.55069 6.29744 7.60298 6.24614 7.68208C6.09516 7.91503 6.30273 8.02399 6.41677 8.14048C6.26009 8.25698 6.11201 8.37114 5.95836 8.47727C5.93056 8.49642 5.86315 8.49974 5.84219 8.48014C5.74005 8.38467 5.64356 8.42876 5.54178 8.47321C5.4551 8.51114 5.36689 8.54575 5.27791 8.57773C5.25843 8.58474 5.23252 8.57105 5.21001 8.57265C5.16133 8.57621 5.09552 8.56547 5.06743 8.59249C4.95052 8.70489 4.84747 8.83148 4.73393 8.94765C4.69948 8.98291 4.64228 9.02937 4.60451 9.02232C4.42712 8.98902 4.25284 8.93899 4.0775 8.89483C4.04162 8.88573 3.98954 8.85612 3.97253 8.86994C3.8411 8.9768 3.60921 8.95626 3.59453 9.21726C3.5835 9.41286 3.62057 9.48503 3.81305 9.52316C3.96121 9.55257 4.09903 9.63396 4.25916 9.69953C4.25924 9.69953 4.25928 9.69961 4.25924 9.69965C4.11293 9.84859 3.98803 9.96718 4.10354 10.156C4.11428 10.1736 4.11285 10.2041 4.10674 10.2256C4.0604 10.3894 4.14225 10.4906 4.27827 10.5504C4.45107 10.6264 4.57597 10.74 4.64248 10.9191C4.66577 10.9819 4.69587 11.0475 4.74024 11.096C4.82865 11.1926 4.89217 11.2826 4.76571 11.3901V11.3902C4.77825 11.4101 4.78309 11.4252 4.79338 11.4331C4.90381 11.5165 4.98829 11.5971 4.92883 11.7643C4.90508 11.8313 4.95224 11.9469 5.08309 11.9321C5.18237 11.9209 5.28193 11.9082 5.38162 11.906C5.41873 11.9052 5.4599 11.9267 5.49332 11.9476C5.64385 12.0416 5.79221 12.1393 5.94159 12.2352C6.00765 12.2776 6.08073 12.3116 6.13965 12.3621C6.38323 12.5711 6.45109 12.8789 6.5705 13.1564C6.59748 13.2192 6.58444 13.2987 6.59252 13.3703C6.60396 13.4724 6.58108 13.6112 6.63849 13.6687C6.75605 13.7862 6.77684 13.9315 6.8297 14.0691C6.84803 14.1168 6.85496 14.1701 6.87936 14.214C6.95903 14.3574 6.92844 14.4867 6.79554 14.5788C6.75228 14.6088 6.68397 14.6725 6.69282 14.6966C6.74285 14.8319 6.74966 14.9991 6.9184 15.0739L6.91848 15.0739C6.95165 15.0448 6.97933 15.0029 7.01579 14.9926C7.07053 14.9773 7.15812 14.959 7.18432 14.9866C7.2446 15.0505 7.29741 15.0391 7.34387 14.998C7.47825 14.8793 7.60541 14.7524 7.73048 14.6334V14.6333C7.6825 14.5697 7.61058 14.5054 7.62165 14.4837C7.68566 14.359 7.58429 14.2718 7.57142 14.1678C7.54464 13.9511 7.59282 13.7393 7.75816 13.5948C7.85444 13.5105 8.00079 13.4502 8.12803 13.4434C8.27881 13.4353 8.37169 13.3874 8.45698 13.2705C8.49294 13.2212 8.5743 13.201 8.63864 13.1776C8.69982 13.1554 8.77502 13.1615 8.8278 13.1289C9.00946 13.0165 9.18562 12.895 9.3603 12.7718C9.43256 12.7208 9.71705 12.7228 9.74231 12.7992C9.80653 12.9935 10.0164 13.1162 10.0023 13.3488C10.0002 13.3829 10.0618 13.4506 10.0952 13.4514C10.1844 13.4536 10.2749 13.4304 10.3639 13.412C10.4178 13.4008 10.4697 13.3799 10.5373 13.3587C10.5374 13.3587 10.5375 13.3587 10.5374 13.3586C10.523 13.326 10.4956 13.2773 10.4803 13.2251C10.4694 13.1882 10.4624 13.1414 10.4756 13.1077C10.5616 12.8874 10.6725 12.6835 10.851 12.5197C10.9266 12.4503 10.9846 12.4245 11.0675 12.5022C11.0969 12.5297 11.1444 12.5376 11.1786 12.5523H11.1787V12.2771H11.1788C11.4044 12.205 11.5753 12.2155 11.6281 12.4667C11.6281 12.4669 11.6283 12.4669 11.6283 12.4669C11.6882 12.4564 11.735 12.4523 11.7795 12.4398C11.914 12.4017 11.9378 12.3307 11.8636 12.211C11.8319 12.16 11.8082 12.104 11.7791 12.0468L11.6227 12.0803V11.6458C11.6227 11.6458 11.6227 11.6457 11.6228 11.6457C11.7304 11.6837 11.8225 11.6943 11.8833 11.5815C11.891 11.5673 11.9574 11.5681 11.9837 11.5836C12.0613 11.6297 12.0952 11.5904 12.1274 11.5282C12.1554 11.4742 12.1874 11.4222 12.2219 11.3619C12.2067 11.3321 12.1893 11.3012 12.1724 11.2691C12.1555 11.2369 12.1392 11.2034 12.1264 11.1687C12.1141 11.135 12.1123 11.0776 12.1326 11.0551C12.2599 10.9138 12.3947 10.7791 12.5284 10.6407C12.5284 10.6407 12.5285 10.6407 12.5285 10.6406C12.4722 10.5108 12.4886 10.4791 12.6345 10.4458C12.7701 10.4148 12.8269 10.3033 12.7604 10.1964C12.7392 10.1624 12.7143 10.1308 12.6908 10.0978L12.6909 10.0978Z" fill="#D0A650"/>
<path d="M3.05954 3.35986L3.2521 3.96261L3.87978 3.9558L3.37397 4.3192L3.56649 4.92002L3.05954 4.56294L2.55262 4.92002L2.73752 4.33273L2.23933 3.9558L2.85036 3.96261L3.05954 3.35986Z" fill="white"/>
<path d="M4.9803 2.65332L5.17286 3.25607L5.80054 3.24926L5.29473 3.61265L5.48725 4.21347L4.9803 3.85639L4.47338 4.21347L4.65828 3.62619L4.1601 3.24926L4.77113 3.25607L4.9803 2.65332Z" fill="white"/>
<path d="M7.01765 2.29248L7.21017 2.89523L7.83785 2.88842L7.33204 3.25182L7.52456 3.85268L7.01765 3.4956L6.51069 3.85268L6.69558 3.26539L6.1974 2.88842L6.80843 2.89523L7.01765 2.29248Z" fill="white"/>
<path d="M13.0009 3.35986L12.8083 3.96261L12.1807 3.9558L12.6864 4.3192L12.494 4.92002L13.0009 4.56294L13.5078 4.92002L13.3229 4.33273L13.8211 3.9558L13.21 3.96261L13.0009 3.35986Z" fill="white"/>
<path d="M11.0799 2.65332L10.8873 3.25607L10.2596 3.24926L10.7654 3.61265L10.5729 4.21347L11.0799 3.85639L11.5868 4.21347L11.4019 3.62619L11.9001 3.24926L11.289 3.25607L11.0799 2.65332Z" fill="white"/>
<path d="M9.0429 2.29248L8.85033 2.89523L8.22266 2.88842L8.72846 3.25182L8.53598 3.85268L9.0429 3.4956L9.54981 3.85268L9.36492 3.26539L9.86314 2.88842L9.25207 2.89523L9.0429 2.29248Z" fill="white"/>
<path d="M13.6557 13.6554C16.7791 10.532 16.7791 5.46798 13.6557 2.34458C10.5323 -0.778821 5.46827 -0.778822 2.34487 2.34458C-0.778529 5.46798 -0.778529 10.532 2.34487 13.6554C5.46827 16.7788 10.5323 16.7788 13.6557 13.6554Z" stroke="#244AA5" stroke-width="0.0041006" stroke-miterlimit="10"/>
</g>
<defs>
<clipPath id="clip0_1_483117">
<rect width="16" height="16" fill="white"/>
</clipPath>
</defs>
</svg>
