<svg width="16" height="16" viewBox="0 0 16 16" fill="none" xmlns="http://www.w3.org/2000/svg">
<g clip-path="url(#clip0_1_483394)">
<rect width="16" height="16" rx="8" fill="white"/>
<path fill-rule="evenodd" clip-rule="evenodd" d="M4.26665 0H19.2V1.06667H4.26665V0ZM4.26665 2.13333H19.2V3.2H4.26665V2.13333ZM4.26665 4.26667H19.2V5.33333H4.26665V4.26667ZM4.26665 6.4H19.2V7.46667H4.26665V6.4ZM-3.20001 8.53333H19.2V9.6H-3.20001V8.53333ZM-3.20001 10.6667H19.2V11.7333H-3.20001V10.6667ZM-3.20001 12.8H19.2V13.8667H-3.20001V12.8Z" fill="#F93939"/>
<path d="M19.2 14.9333H-3.20001V16H19.2V14.9333Z" fill="#F93939"/>
<path fill-rule="evenodd" clip-rule="evenodd" d="M0 0H7.46667V7.46667H0V0Z" fill="#1A47B8"/>
<path fill-rule="evenodd" clip-rule="evenodd" d="M3.66907 5.22358L2.06054 6.06945L2.36774 4.27745L1.06641 3.01132L2.86481 2.74998L3.66907 1.12012L4.47334 2.74892L6.27174 3.01025L4.97041 4.27958L5.27761 6.06945" fill="white"/>
</g>
<defs>
<clipPath id="clip0_1_483394">
<rect width="16" height="16" rx="8" fill="white"/>
</clipPath>
</defs>
</svg>
