<svg width="16" height="16" viewBox="0 0 16 16" fill="none" xmlns="http://www.w3.org/2000/svg">
<g clip-path="url(#clip0_1_482905)">
<rect width="16" height="16" rx="8" fill="#249F58"/>
<path fill-rule="evenodd" clip-rule="evenodd" d="M7.99845 7.73349L6.43045 8.55802L6.72911 6.81189L5.46191 5.57456L7.21445 5.32176L7.99845 3.73242L8.78138 5.32176L10.5339 5.57456L9.26458 6.81189L9.56538 8.55696" fill="#FFDA2C"/>
<path fill-rule="evenodd" clip-rule="evenodd" d="M12.7627 6.33407C12.7872 6.53034 12.8 6.73087 12.8 6.93354C12.8 9.58421 10.6507 11.7335 8 11.7335C5.34933 11.7335 3.2 9.58421 3.2 6.93354C3.2 6.73087 3.2128 6.53034 3.23733 6.33301C3.5328 8.17621 5.552 9.60021 8 9.60021C10.448 9.60021 12.4672 8.17514 12.7627 6.33301V6.33407Z" fill="#FFDA2C"/>
<rect x="-3.2" width="22.4" height="2.13333" fill="#AF010D"/>
<rect x="-3.2" y="13.8667" width="22.4" height="2.13333" fill="#AF010D"/>
</g>
<defs>
<clipPath id="clip0_1_482905">
<rect width="16" height="16" rx="8" fill="white"/>
</clipPath>
</defs>
</svg>
