<svg width="16" height="16" viewBox="0 0 16 16" fill="none" xmlns="http://www.w3.org/2000/svg">
<g clip-path="url(#clip0_1_483038)">
<rect width="16" height="16" rx="8" fill="white"/>
<rect x="-3.20001" width="22.4" height="1.14872" fill="#AF010D"/>
<rect x="-3.20001" y="2.29736" width="22.4" height="1.14872" fill="#AF010D"/>
<rect x="-3.20001" y="4.59473" width="22.4" height="1.14872" fill="#AF010D"/>
<rect x="-3.20001" y="6.89209" width="22.4" height="1.14872" fill="#AF010D"/>
<rect x="-3.20001" y="9.18994" width="22.4" height="1.14872" fill="#AF010D"/>
<rect x="-3.20001" y="11.4873" width="22.4" height="1.14872" fill="#AF010D"/>
<rect x="-3.20001" y="13.7847" width="22.4" height="1.14872" fill="#AF010D"/>
<path fill-rule="evenodd" clip-rule="evenodd" d="M-3.20001 0H8.53332V9.19467H-3.20001V0Z" fill="#1A47B8"/>
<path fill-rule="evenodd" clip-rule="evenodd" d="M4.26666 4.2666H5.33333V5.33327H4.26666V4.2666Z" fill="#FFDA2C"/>
<path fill-rule="evenodd" clip-rule="evenodd" d="M4.8 6.39997C4.3136 7.04743 3.5392 7.46663 2.66667 7.46663C1.19467 7.46663 0 6.27197 0 4.79997C0 3.32797 1.19467 2.1333 2.66667 2.1333C3.5392 2.1333 4.3136 2.5525 4.8 3.19997H3.2C2.3168 3.19997 1.6 3.91677 1.6 4.79997C1.6 5.68317 2.3168 6.39997 3.2 6.39997H4.8Z" fill="#FFDA2C"/>
</g>
<defs>
<clipPath id="clip0_1_483038">
<rect width="16" height="16" rx="8" fill="white"/>
</clipPath>
</defs>
</svg>
