<svg width="16" height="16" viewBox="0 0 16 16" fill="none" xmlns="http://www.w3.org/2000/svg">
<g clip-path="url(#clip0_1_483263)">
<rect width="16" height="16" rx="8" fill="#012169"/>
<path fill-rule="evenodd" clip-rule="evenodd" d="M16.0003 10.6668V6.9335C16.0003 6.04283 15.2835 5.3335 14.4003 5.3335H12.267C11.3859 5.3335 10.667 6.04816 10.667 6.9335V10.6668C10.667 10.861 11.7337 12.8002 13.3337 12.8002C14.9337 12.8002 16.0003 10.8556 16.0003 10.6668Z" fill="white"/>
<path fill-rule="evenodd" clip-rule="evenodd" d="M16.5 10.7143V6.71429C16.5 5.76 15.6936 5 14.7 5H12.3C11.3088 5 10.5 5.76571 10.5 6.71429V10.7143C10.5 10.9223 11.7 13 13.5 13C15.3 13 16.5 10.9166 16.5 10.7143Z" fill="#A53D08"/>
<path fill-rule="evenodd" clip-rule="evenodd" d="M16.5 9.70629V10.8057H14.1H12.9H10.5V9.70629V8.42857V5H16.5V8.42857V9.70629Z" fill="#00A2DD"/>
<path fill-rule="evenodd" clip-rule="evenodd" d="M11.5 7H15.5V8H11.5V7Z" fill="#551100"/>
<path fill-rule="evenodd" clip-rule="evenodd" d="M13.5 6L13.5 12L12.3 12L12.3 6L13.5 6Z" fill="#551100"/>
<path d="M14.5 7H13.5V12H14.5V7Z" fill="#008021"/>
<g clip-path="url(#clip1_1_483263)">
<path d="M7.99739 2.00049H-2V7.9902H7.99739V2.00049Z" fill="white"/>
<path d="M7.99788 4.39732H3.59587V2.00098H2.39426V4.39732H-1.99609V5.59486H2.39426V7.99023H3.59587V5.59486H7.99788V4.39732Z" fill="#F93939"/>
<path d="M-1.99991 2.69824V4.00241H0.180645L-1.99991 2.69824Z" fill="#012169"/>
<path d="M-0.797142 2.00049L-0.829102 2.00215L1.99834 3.70209V2.00049H-0.797142Z" fill="#012169"/>
<path d="M1.35572 3.9938L-1.99991 2.00049V2.47032L0.556122 3.9938H1.35572Z" fill="#F93939"/>
<path d="M4.64453 5.99658L8.00021 7.9899V7.52007L5.44418 5.99658H4.64453Z" fill="#F93939"/>
<path d="M-1.99991 7.30222V5.99805H0.180645L-1.99991 7.30222Z" fill="#012169"/>
<path d="M-0.797142 7.99994L-0.829102 7.99828L1.99834 6.29834V7.99994H-0.797142Z" fill="#012169"/>
<path d="M1.33823 5.99609L-1.99805 7.98849L-1.2178 7.98935L2.00145 6.07712V5.99609H1.33823Z" fill="#F93939"/>
<path d="M8.00001 2.69775V4.00187H5.81946L8.00001 2.69775Z" fill="#012169"/>
<path d="M6.79743 2L6.82939 2.00166L4.00195 3.7016V2H6.79743Z" fill="#012169"/>
<path d="M7.99632 2.00299L7.24582 2.00293L4.00391 3.92864V3.99619H4.68979L7.99632 2.00299Z" fill="#F93939"/>
<path d="M8.00001 7.30167V5.99756H5.81946L8.00001 7.30167Z" fill="#012169"/>
<path d="M6.79743 7.99945L6.82939 7.99779L4.00195 6.29785V7.99945H6.79743Z" fill="#012169"/>
</g>
</g>
<defs>
<clipPath id="clip0_1_483263">
<rect width="16" height="16" rx="8" fill="white"/>
</clipPath>
<clipPath id="clip1_1_483263">
<rect x="-2" y="2" width="10" height="6" rx="1" fill="white"/>
</clipPath>
</defs>
</svg>
