<svg width="16" height="16" viewBox="0 0 16 16" fill="none" xmlns="http://www.w3.org/2000/svg">
<g clip-path="url(#clip0_1_482618)">
<rect width="16" height="16" rx="8" fill="#D4AF2C"/>
<rect x="-2.13379" width="20.2667" height="16" fill="#AF010D"/>
<path fill-rule="evenodd" clip-rule="evenodd" d="M8 5.09647L6.7552 4.2666L5.9264 5.09647H6.7552L5.9264 5.92634L4.26666 5.09647V9.2458L6.7552 8.4138L5.9264 10.0735H5.09653L5.9264 10.9034L6.7552 10.0735L8 11.7333V5.09647ZM9.2448 4.2666L10.0736 5.09647H9.2448L10.0736 5.92634L11.7333 5.09647V9.2458L9.2448 8.4138L10.0736 10.0735H10.9035L10.0736 10.9034L9.2448 10.0735L8 11.7333V5.09647L9.2448 4.2666Z" fill="#D4AF2C"/>
<path fill-rule="evenodd" clip-rule="evenodd" d="M6.40039 6.93883C6.40039 6.0535 7.11079 5.3335 8.00039 5.3335C8.88359 5.3335 9.60039 6.05136 9.60039 6.93883V6.57296C9.60039 7.4583 9.05852 8.65936 8.40572 9.24176L8.00039 9.60016L7.59506 9.24176C6.93692 8.6551 6.40039 7.46043 6.40039 6.57296V6.93883Z" fill="#1A47B8"/>
<path fill-rule="evenodd" clip-rule="evenodd" d="M6.40039 6.3999H9.60039V7.46657H6.40039V6.3999Z" fill="#AE6A3E"/>
</g>
<defs>
<clipPath id="clip0_1_482618">
<rect width="16" height="16" rx="8" fill="white"/>
</clipPath>
</defs>
</svg>
