<svg width="16" height="16" viewBox="0 0 16 16" fill="none" xmlns="http://www.w3.org/2000/svg">
<g clip-path="url(#clip0_1_482831)">
<rect width="16" height="16" rx="8" fill="#FFDA2C"/>
<path fill-rule="evenodd" clip-rule="evenodd" d="M-3.20001 0H4.26665V16H-3.20001V0Z" fill="#1A47B8"/>
<path fill-rule="evenodd" clip-rule="evenodd" d="M5.33301 5.33327H10.6663V10.6666H5.33301V5.33327ZM5.33301 10.6666L7.99967 12.7999L10.6663 10.6666H5.33301ZM7.46634 4.2666H8.53301V5.33327H7.46634V4.2666Z" fill="#AE6A3E"/>
<path fill-rule="evenodd" clip-rule="evenodd" d="M6.40039 6.3999H9.60039V8.53324H6.40039V6.3999Z" fill="#AF010D"/>
<path fill-rule="evenodd" clip-rule="evenodd" d="M6.40039 8.5332H9.60039V10.1332H6.40039V8.5332ZM6.40039 10.1332L8.00039 11.1999L9.60039 10.1332H6.40039Z" fill="#1A47B8"/>
<path fill-rule="evenodd" clip-rule="evenodd" d="M8.00001 7.4668C8.29441 7.4668 8.53334 7.69506 8.53334 8.00546V9.06146C8.53334 9.36013 8.28587 9.60013 8.00001 9.60013C7.70561 9.60013 7.46667 9.37186 7.46667 9.06146V8.00546C7.46667 7.7068 7.71414 7.4668 8.00001 7.4668Z" fill="#FFDA2C"/>
<path fill-rule="evenodd" clip-rule="evenodd" d="M11.7333 0H19.2V16H11.7333V0Z" fill="#AF010D"/>
</g>
<defs>
<clipPath id="clip0_1_482831">
<rect width="16" height="16" rx="8" fill="white"/>
</clipPath>
</defs>
</svg>
