<svg width="16" height="16" viewBox="0 0 16 16" fill="none" xmlns="http://www.w3.org/2000/svg">
<g clip-path="url(#clip0_1_482781)">
<rect width="16" height="16" rx="8" fill="#AF010D"/>
<path fill-rule="evenodd" clip-rule="evenodd" d="M-3.2 0L7.46667 7.46667H8.53334L1.06667 0H-3.2ZM-3.2 16L7.46667 8.53333H8.53334L1.06667 16H-3.2Z" fill="#FFDA2C"/>
<path fill-rule="evenodd" clip-rule="evenodd" d="M8.53334 7.46667H7.46667L14.9333 0H19.2L8.53334 7.46667ZM8.53334 8.53333H7.46667L14.9333 16H19.2L8.53334 8.53333ZM5.33334 7.46667L-3.2 6.4V9.6L5.33334 8.53333V7.46667ZM10.6667 7.46667L19.2 6.4V9.6L10.6667 8.53333V7.46667ZM7.46667 5.33333L6.4 0H9.6L8.53334 5.33333H7.46667ZM7.46667 10.6667L6.4 16H9.6L8.53334 10.6667" fill="#FFDA2C"/>
<path d="M7.99967 10.6668C9.47243 10.6668 10.6663 9.47292 10.6663 8.00016C10.6663 6.5274 9.47243 5.3335 7.99967 5.3335C6.52692 5.3335 5.33301 6.5274 5.33301 8.00016C5.33301 9.47292 6.52692 10.6668 7.99967 10.6668Z" fill="#AF010D"/>
<path d="M8.00039 9.5999C8.88405 9.5999 9.60039 8.88356 9.60039 7.9999C9.60039 7.11625 8.88405 6.3999 8.00039 6.3999C7.11674 6.3999 6.40039 7.11625 6.40039 7.9999C6.40039 8.88356 7.11674 9.5999 8.00039 9.5999Z" fill="#FFDA2C"/>
</g>
<defs>
<clipPath id="clip0_1_482781">
<rect width="16" height="16" rx="8" fill="white"/>
</clipPath>
</defs>
</svg>
