<svg width="16" height="16" viewBox="0 0 16 16" fill="none" xmlns="http://www.w3.org/2000/svg">
<g clip-path="url(#clip0_1_483204)">
<rect width="16" height="16" rx="8" fill="#1A47B8"/>
<path d="M17.0667 0H-1.06666C-2.24487 0 -3.2 0.955126 -3.2 2.13333V13.8667C-3.2 15.0449 -2.24487 16 -1.06666 16H17.0667C18.2449 16 19.2 15.0449 19.2 13.8667V2.13333C19.2 0.955126 18.2449 0 17.0667 0Z" fill="#1A47B8"/>
<path fill-rule="evenodd" clip-rule="evenodd" d="M12.8003 4.2666V5.33327H13.867V4.2666H12.8003ZM14.9337 6.39994V7.4666H16.0003V6.39994H14.9337ZM10.667 7.4666V8.53327H11.7337V7.4666H10.667ZM12.8003 11.7333V12.7999H13.867V11.7333H12.8003Z" fill="#F93939"/>
<g clip-path="url(#clip1_1_483204)">
<path d="M7.99739 2.00049H-2V7.9902H7.99739V2.00049Z" fill="white"/>
<path d="M7.99788 4.39732H3.59587V2.00098H2.39426V4.39732H-1.99609V5.59486H2.39426V7.99023H3.59587V5.59486H7.99788V4.39732Z" fill="#F93939"/>
<path d="M-1.99989 2.69824V4.00241H0.18066L-1.99989 2.69824Z" fill="#1A47B8"/>
<path d="M-0.797142 2.00049L-0.829102 2.00215L1.99834 3.70209V2.00049H-0.797142Z" fill="#1A47B8"/>
<path d="M1.35572 3.9938L-1.99991 2.00049V2.47032L0.556122 3.9938H1.35572Z" fill="#F93939"/>
<path d="M4.64453 5.99658L8.00021 7.9899V7.52007L5.44418 5.99658H4.64453Z" fill="#F93939"/>
<path d="M-1.99989 7.30222V5.99805H0.18066L-1.99989 7.30222Z" fill="#1A47B8"/>
<path d="M-0.797142 7.99994L-0.829102 7.99828L1.99834 6.29834V7.99994H-0.797142Z" fill="#1A47B8"/>
<path d="M1.33823 5.99609L-1.99805 7.98849L-1.2178 7.98935L2.00145 6.07712V5.99609H1.33823Z" fill="#F93939"/>
<path d="M8 2.69775V4.00187H5.81944L8 2.69775Z" fill="#1A47B8"/>
<path d="M6.79743 2L6.82939 2.00166L4.00195 3.7016V2H6.79743Z" fill="#1A47B8"/>
<path d="M7.99632 2.00299L7.24582 2.00293L4.00391 3.92864V3.99619H4.68979L7.99632 2.00299Z" fill="#F93939"/>
<path d="M8 7.30167V5.99756H5.81944L8 7.30167Z" fill="#1A47B8"/>
<path d="M6.79743 7.99945L6.82939 7.99779L4.00195 6.29785V7.99945H6.79743Z" fill="#1A47B8"/>
</g>
</g>
<defs>
<clipPath id="clip0_1_483204">
<rect width="16" height="16" rx="8" fill="white"/>
</clipPath>
<clipPath id="clip1_1_483204">
<rect x="-2" y="2" width="10" height="6" rx="1" fill="white"/>
</clipPath>
</defs>
</svg>
