<svg width="16" height="16" viewBox="0 0 16 16" fill="none" xmlns="http://www.w3.org/2000/svg">
<g clip-path="url(#clip0_1_483453)">
<ellipse cx="8.00004" cy="8" rx="8.00004" ry="8" fill="#696969"/>
<path d="M12.3778 3.89226C10.1121 1.4782 6.30568 1.35827 3.89243 3.62266C1.47815 5.88808 1.35821 9.6942 3.62281 12.1083C5.88843 14.5213 9.69489 14.6422 12.1081 12.3768C14.5214 10.1114 14.6424 6.30529 12.3767 3.89226H12.3778ZM10.23 3.44737C10.3305 3.60319 10.8656 4.454 11.0502 5.1777C10.8287 5.36837 9.82714 6.22636 9.51241 6.47033C9.19973 6.37499 8.10895 6.05722 7.20475 5.98239C6.87875 5.26689 6.57017 4.36789 6.49226 4.13725C7.13299 3.52836 7.82088 3.04759 7.96748 2.94714C8.18481 2.97379 9.40169 3.13165 10.23 3.44737ZM8.844 12.9693C8.31501 12.7828 7.38416 12.1288 7.16682 11.9729C7.27241 11.32 7.56869 10.2785 7.62712 10.0786C7.94492 10.0058 8.89013 9.7557 9.77998 9.16731C10.024 9.32312 10.8708 9.85513 11.5094 10.1862C11.4561 10.4702 11.2655 11.4112 10.9774 12.0221C10.4392 12.3799 9.06646 12.8894 8.844 12.9703V12.9693ZM13.0062 8.6927C12.8555 8.85671 12.3439 9.39487 11.5925 10.015C10.9538 9.68395 10.1019 9.14681 9.87224 9.00124C9.86609 8.69577 9.83124 7.73835 9.62518 6.62306C9.94401 6.37499 10.9312 5.52931 11.1681 5.32634C11.3721 5.44012 12.0928 5.85426 12.7437 6.38115C12.7868 6.60154 13.0339 7.89724 13.0062 8.69372V8.6927ZM4.43474 4.43555C5.31536 4.19876 6.09244 4.19671 6.3149 4.20183C6.39794 4.44785 6.70857 5.35402 7.04175 6.07977C6.83467 6.34937 6.27595 7.1151 5.83 8.0633C5.46196 8.1002 4.69001 8.17196 3.90781 8.20783C3.47826 7.49951 3.22812 6.58411 3.18199 6.40677C3.51209 5.64412 4.3025 4.60674 4.43474 4.43555ZM3.92113 8.39747C4.70436 8.3616 5.47734 8.28984 5.84743 8.25294C5.98993 8.50101 6.43075 9.16833 7.44054 10.0386C7.37288 10.2723 7.08686 11.282 6.98024 11.9401C6.38462 12.0878 5.35227 12.0673 5.06215 12.058C4.26969 11.4215 3.63204 10.4927 3.52644 10.3349C3.53669 9.46048 3.83707 8.61786 3.92113 8.3985V8.39747ZM8.91781 13.1436C9.16795 13.0523 10.4863 12.5634 11.0584 12.1944C11.1609 12.2466 11.409 12.3635 11.737 12.4527C10.8431 13.203 9.77998 13.6407 8.68715 13.7689C8.76199 13.5382 8.87681 13.2461 8.91781 13.1426V13.1436ZM13.692 9.16833C13.568 9.03712 13.3732 8.82903 13.1979 8.64144C13.2133 7.82958 12.9847 6.61589 12.9334 6.35654C13.0154 6.26941 13.2307 6.03672 13.3947 5.8358C13.8202 6.89983 13.9176 8.06022 13.692 9.16731V9.16833ZM10.8349 2.92458C10.6862 3.00557 10.4586 3.1337 10.2792 3.26183C9.42219 2.93996 8.21865 2.78517 7.99208 2.7575C7.87111 2.61706 7.72349 2.35669 7.63942 2.20088C8.73943 2.13322 9.85277 2.37617 10.8359 2.92458H10.8349ZM4.02262 3.76105C4.04005 3.74465 4.05953 3.72825 4.07798 3.71184C4.12412 3.96504 4.22561 4.22746 4.27174 4.33714C4.09951 4.55958 3.35216 5.54776 3.01591 6.31452C2.80267 6.35757 2.55458 6.42317 2.39568 6.46725C2.66838 5.46473 3.21172 4.52268 4.02365 3.76105H4.02262ZM3.76223 11.9781C3.31833 11.5055 2.97183 10.9776 2.71656 10.4189C2.94825 10.4528 3.25477 10.4569 3.38087 10.4569C3.47826 10.6024 3.81554 11.0883 4.28302 11.5875C4.4655 11.7813 4.66848 11.977 4.88479 12.1554C4.85916 12.4127 4.84481 12.6997 4.83661 12.8771C4.45115 12.6269 4.09029 12.3286 3.76223 11.9791V11.9781Z" fill="#363636"/>
</g>
<defs>
<clipPath id="clip0_1_483453">
<rect width="16.0001" height="16" rx="8" fill="white"/>
</clipPath>
</defs>
</svg>
