<svg width="16" height="16" viewBox="0 0 16 16" fill="none" xmlns="http://www.w3.org/2000/svg">
<g clip-path="url(#clip0_1_482949)">
<path d="M6.45568 0.150879C3.32461 0.763246 0.850521 3.19886 0.179688 6.30839H6.45414V0.150879H6.45568Z" fill="white"/>
<path d="M0.173859 9.66553C0.833922 12.7874 3.3157 15.2368 6.45446 15.8507V9.66553H0.173859Z" fill="white"/>
<path d="M9.8252 15.7892C12.8301 15.0876 15.1842 12.6935 15.8258 9.66553H9.8252V15.7892Z" fill="white"/>
<path d="M9.8252 0.212402V6.30991H15.8196C15.1703 3.2927 12.8209 0.910931 9.8252 0.212402Z" fill="white"/>
<path d="M9.82556 0.212328C9.23935 0.0753919 8.62852 0 8.00077 0C7.47149 0 6.95605 0.0523127 6.45601 0.150784V6.3083H0.180017C0.063083 6.85297 0 7.41918 0 7.99923C0 8.57929 0.0600058 9.12703 0.173863 9.66401H6.45447V15.8492C6.95452 15.9477 7.46995 16 7.99923 16C8.62698 16 9.23781 15.9246 9.82402 15.7877V9.66401H15.8246C15.9385 9.12703 15.9985 8.57006 15.9985 7.99923C15.9985 7.42841 15.9354 6.85297 15.8184 6.3083H9.82402V0.212328H9.82556Z" fill="#FF0000"/>
<path d="M11.7688 5.95094H9.33011L8.44849 4.40771H7.86228L6.98066 5.95094H4.54196L5.76054 8.08499L4.54196 10.219H6.98066L8.15462 12.2746L9.33011 10.219H11.7688L10.5487 8.08499L11.7688 5.95094Z" fill="white"/>
<path d="M7.44107 10.0457C7.44107 10.0457 8.65195 9.96411 8.77196 10.0457V9.21481C8.77196 9.21481 9.19662 8.83939 9.36587 8.44089C9.36587 8.44089 9.68897 8.007 9.83053 7.8993C9.83053 7.8993 9.93515 7.69158 9.77668 7.61619C9.77668 7.61619 9.67359 7.5608 9.4828 7.64235L9.22585 7.97469C9.22585 7.97469 9.09507 7.98392 8.91813 8.06854V7.29462C8.91813 7.29462 8.93198 7.30385 8.87813 7.17307L8.80274 6.13451C8.80274 6.13451 8.77043 5.91603 8.65349 5.90987C8.65349 5.90987 8.55502 5.85141 8.4704 5.97142C8.4704 5.97142 8.43347 5.67754 8.22883 5.69139C8.22883 5.69139 7.99958 5.69755 7.97958 5.93142C7.97958 5.93142 7.84572 5.82525 7.73648 5.87141C7.62724 5.91757 7.57646 5.86372 7.54877 6.18067C7.52107 6.49762 7.53492 6.37761 7.53492 6.37761C7.53492 6.37761 7.1872 6.19452 7.1795 6.48993C7.17181 6.78534 7.12719 8.17163 7.17181 8.85016C7.17181 8.85016 7.28567 9.10095 7.42876 9.21327C7.42876 9.21327 7.40722 9.84256 7.44414 10.0441L7.44107 10.0457Z" fill="#FF0000"/>
<path d="M8.78582 10.0747L8.76274 10.0578C8.74428 10.0455 8.66889 10.024 8.37348 10.024C7.98421 10.024 7.44723 10.0594 7.44262 10.0609H7.42877L7.42569 10.0486C7.3903 9.85626 7.40723 9.29774 7.41031 9.22081C7.27029 9.10542 7.15951 8.86693 7.1549 8.8577V8.85154C7.12566 8.42535 7.12874 7.64989 7.16105 6.54671V6.48978C7.16721 6.339 7.25645 6.30669 7.3303 6.30669C7.40415 6.30669 7.47954 6.33746 7.51801 6.35438C7.52109 6.32207 7.5257 6.26822 7.53186 6.18052C7.55494 5.92203 7.5934 5.90049 7.67649 5.87587C7.69341 5.87126 7.71034 5.86664 7.7288 5.85741C7.7488 5.84818 7.77188 5.84356 7.79496 5.84356C7.86573 5.84356 7.9319 5.88203 7.96574 5.90357C8.00113 5.68355 8.22423 5.67432 8.22731 5.67432C8.23192 5.67432 8.23654 5.67432 8.24116 5.67432C8.40579 5.67432 8.46118 5.85741 8.4781 5.93434C8.51964 5.88972 8.56272 5.87895 8.5935 5.87895C8.62427 5.87895 8.64735 5.88972 8.65658 5.8928C8.78121 5.90203 8.81506 6.12051 8.8166 6.12974L8.89199 7.16677C8.93661 7.27293 8.93661 7.28986 8.93199 7.29755V8.04224C9.07816 7.97454 9.18894 7.96069 9.21663 7.95761L9.47204 7.62681H9.47512C9.5459 7.5945 9.61206 7.57911 9.6736 7.57911C9.74284 7.57911 9.77976 7.59912 9.7813 7.59912C9.82285 7.61912 9.85208 7.64989 9.86747 7.69143C9.89978 7.78529 9.84439 7.89761 9.84131 7.90222L9.83669 7.90684C9.69822 8.01146 9.37819 8.44074 9.37511 8.44535C9.21817 8.81616 8.83352 9.17311 8.78428 9.21773V10.0717L8.78582 10.0747ZM7.18259 8.84847C7.1949 8.87462 7.30414 9.1008 7.43339 9.20389L7.43954 9.2085V9.2162C7.43954 9.2162 7.41954 9.81933 7.45185 10.0317C7.53801 10.0255 8.01652 9.99627 8.37194 9.99627C8.62581 9.99627 8.71812 10.0117 8.75505 10.024V9.21004L8.75967 9.20543C8.75967 9.20543 9.18278 8.82693 9.34895 8.43612C9.36434 8.41612 9.67206 8.00223 9.81669 7.89145C9.82438 7.87299 9.86439 7.78067 9.83977 7.70682C9.82746 7.67297 9.80438 7.64835 9.769 7.63143C9.769 7.63143 9.73515 7.6145 9.67514 7.6145C9.61821 7.6145 9.55667 7.62835 9.49204 7.65605L9.23356 7.99146H9.2274C9.2274 7.99146 9.09816 8.00223 8.92584 8.08532L8.9043 8.09609V7.28678C8.90122 7.27447 8.89199 7.24678 8.86583 7.18215V7.17754L8.7889 6.13898C8.7889 6.13898 8.75659 5.9328 8.65504 5.92819H8.64889C8.64889 5.92819 8.62735 5.91434 8.59811 5.91434C8.55657 5.91434 8.51811 5.93742 8.48579 5.98358L8.46272 6.01589L8.4581 5.97742C8.4581 5.97742 8.42271 5.7097 8.24577 5.7097C8.24116 5.7097 8.23808 5.7097 8.23346 5.7097C8.22423 5.7097 8.01652 5.71894 7.99806 5.93588L7.99498 5.96357L7.97344 5.94665C7.97344 5.94665 7.88574 5.87895 7.80111 5.87895C7.78111 5.87895 7.76265 5.88203 7.74726 5.88972C7.72726 5.89895 7.70726 5.90357 7.69187 5.90819C7.62417 5.92819 7.59032 5.93742 7.56878 6.18667C7.55955 6.28514 7.55494 6.34053 7.5534 6.37131V6.38362C7.55032 6.40977 7.54878 6.419 7.53493 6.419H7.52878L7.52416 6.41439C7.52416 6.41439 7.51955 6.40669 7.51955 6.38977C7.49185 6.37592 7.40877 6.34053 7.33491 6.34053C7.24567 6.34053 7.19952 6.39131 7.19644 6.4944V6.55132C7.16259 7.65143 7.16105 8.42381 7.18721 8.85001L7.18259 8.84847Z" fill="black"/>
<path d="M8.45306 7.27425H8.42383L8.43768 5.97412H8.46845L8.45306 7.27425Z" fill="black"/>
<path d="M7.9857 5.91859L7.95493 5.91895L7.97008 7.23437L8.00085 7.23401L7.9857 5.91859Z" fill="black"/>
<path d="M7.54809 6.35599L7.51733 6.35693L7.54753 7.33964L7.57829 7.3387L7.54809 6.35599Z" fill="black"/>
<path d="M8.60547 8.5084C8.60547 8.5084 8.56085 8.35916 8.89781 8.06836L8.91781 8.09144C8.60086 8.36531 8.63471 8.49763 8.63471 8.49917L8.60547 8.5084Z" fill="black"/>
<path d="M6.37521 2.64353L6.83833 2.68353L7.23376 2.44043H9.05547L9.37088 2.68353H10.0217L10.154 2.98817L9.80939 3.67439C9.80939 3.67439 8.34771 3.54361 8.05537 3.42206C8.05537 3.42206 6.75986 3.7344 6.32444 3.67439C6.32444 3.67439 6.03979 3.08665 6.03979 2.90201L6.19519 2.63737L6.37675 2.64353H6.37521Z" fill="#F10A22"/>
<path d="M6.45676 3.69723C6.40445 3.69723 6.35829 3.69416 6.32137 3.68954H6.31367L6.31059 3.68031C6.29829 3.65569 6.02441 3.08795 6.02441 2.90177V2.89716L6.18597 2.62175L6.37676 2.6279L6.83526 2.6679L7.22914 2.4248H9.06009L9.37551 2.6679H10.031L10.171 2.98947L10.1679 2.99563L9.81862 3.69108H9.80785C9.74785 3.68493 8.35541 3.55876 8.05384 3.43875C7.97537 3.45721 6.95681 3.69723 6.4583 3.69723H6.45676ZM6.33367 3.66031C6.36906 3.66492 6.4106 3.66646 6.45676 3.66646C6.96912 3.66646 8.03999 3.40951 8.05076 3.40644H8.05538H8.05999C8.33387 3.52029 9.66784 3.64492 9.80016 3.65569L10.1371 2.98486L10.011 2.6956H9.36473L9.04932 2.4525H7.23684L6.84142 2.6956L6.37368 2.6556L6.20289 2.65098L6.05365 2.90485C6.05826 3.07717 6.30136 3.59107 6.33367 3.65877V3.66031Z" fill="black"/>
<path d="M10.0589 2.78828V3.12062C10.0589 3.12062 9.58964 3.10523 9.92659 3.45296C9.92659 3.45296 9.52963 3.94223 9.36346 3.30525C9.36346 3.30525 9.55271 3.33295 9.5681 3.18062C9.5681 3.18062 9.59887 3.04523 9.40962 3.01445C9.40962 3.01445 9.5004 2.78828 9.27422 2.73443C9.27422 2.73443 9.11267 2.71135 9.11728 2.97599C9.11728 2.97599 8.88803 2.92368 8.8588 3.09754C8.8588 3.09754 8.84341 3.2314 9.04805 3.27756C9.04805 3.27756 8.55723 3.86838 8.23105 3.14985C8.23105 3.14985 8.48338 3.22524 8.48184 3.01445C8.48184 3.01445 8.47261 2.84828 8.23105 2.86367V2.319C8.23105 2.319 8.28336 2.20514 8.28336 2.15283H7.90486C7.90486 2.20514 7.95717 2.319 7.95717 2.319V2.86367C7.71561 2.84828 7.70792 3.01445 7.70792 3.01445C7.70792 3.22678 7.95717 3.14985 7.95717 3.14985C7.63407 3.86838 7.14479 3.27756 7.14479 3.27756C7.34788 3.2314 7.3325 3.09754 7.3325 3.09754C7.30173 2.92368 7.07401 2.97599 7.07401 2.97599C7.08017 2.71135 6.91861 2.73443 6.91861 2.73443C6.69244 2.78674 6.78321 3.01445 6.78321 3.01445C6.5955 3.04523 6.62474 3.18062 6.62474 3.18062C6.64012 3.33141 6.82783 3.30525 6.82783 3.30525C6.66166 3.94377 6.26778 3.45296 6.26778 3.45296C6.6032 3.10523 6.13546 3.12062 6.13546 3.12062V2.78828C5.82774 2.99291 5.86466 3.00061 5.86466 3.00061C5.8939 3.19755 5.98468 3.27294 5.98468 3.27294C5.96929 3.54527 6.17239 3.49912 6.17239 3.49912C6.19393 3.68067 6.26778 3.82222 6.26778 3.82222C6.30625 3.80684 7.88794 3.59451 8.09411 3.56681C8.30028 3.59451 9.88813 3.80684 9.92659 3.82222C9.92659 3.82222 9.99891 3.68067 10.022 3.49912C10.022 3.49912 10.2266 3.54374 10.2112 3.27294C10.2112 3.27294 10.302 3.19755 10.3328 3.00061C10.3328 3.00061 10.3713 2.99291 10.0605 2.78828H10.0589Z" fill="#FEDF00"/>
<path d="M9.93237 3.84199L9.92006 3.83737C9.88006 3.82506 8.91227 3.69274 8.09219 3.5835C7.27519 3.69274 6.30894 3.82506 6.27202 3.83737L6.25971 3.84199L6.25356 3.83122C6.25356 3.83122 6.18432 3.69274 6.1597 3.51734C6.12893 3.52042 6.06738 3.51734 6.02123 3.46964C5.98276 3.42964 5.96584 3.36502 5.96891 3.27886C5.94737 3.25885 5.87813 3.17885 5.85044 3.0096L5.84736 3.00037C5.84429 2.98806 5.83967 2.96344 6.12585 2.77419L6.14893 2.75881V3.10499C6.20432 3.10499 6.35664 3.11576 6.39357 3.20346C6.41972 3.26501 6.3828 3.34809 6.28587 3.45272C6.31818 3.48964 6.43973 3.61735 6.56128 3.61735C6.66898 3.61735 6.75053 3.51734 6.80592 3.32194C6.8013 3.32194 6.79822 3.32194 6.79361 3.32194C6.68437 3.32194 6.61667 3.27116 6.60744 3.18192C6.60744 3.18192 6.59667 3.12807 6.63051 3.07884C6.65667 3.04037 6.69975 3.01575 6.7613 3.00191C6.75053 2.96806 6.7336 2.88805 6.77053 2.81881C6.79668 2.76958 6.84438 2.73573 6.91362 2.7188C6.91362 2.7188 6.91977 2.7188 6.92593 2.7188C6.94285 2.7188 6.98901 2.72342 7.02594 2.76188C7.06594 2.80342 7.08594 2.86805 7.08748 2.95882C7.10133 2.95729 7.12287 2.95421 7.14749 2.95421C7.25981 2.95421 7.32904 3.00498 7.34597 3.09576C7.34597 3.0973 7.35828 3.2327 7.17057 3.28655C7.2198 3.3404 7.37828 3.49118 7.55214 3.49118C7.69985 3.49118 7.82601 3.38348 7.92756 3.17269C7.9091 3.17577 7.88602 3.17885 7.85986 3.17885C7.80294 3.17885 7.75985 3.16346 7.73062 3.13423C7.70293 3.10653 7.68908 3.06653 7.68908 3.01421C7.68908 3.01114 7.69985 2.84035 7.93833 2.84651V2.32184C7.9291 2.30338 7.88602 2.20337 7.88602 2.15259V2.13721H8.29529V2.15259C8.29529 2.20337 8.25067 2.30338 8.24298 2.32184V2.84651C8.483 2.84035 8.49377 3.01114 8.49377 3.01268C8.49377 3.06499 8.47992 3.10499 8.45223 3.13269C8.42299 3.16192 8.37991 3.17731 8.32299 3.17731C8.29683 3.17731 8.27221 3.17423 8.25529 3.17115C8.35683 3.38348 8.48454 3.48964 8.63378 3.48964C8.80919 3.48964 8.96766 3.33732 9.0169 3.28501C8.82765 3.23116 8.8415 3.09576 8.8415 3.09422C8.85688 3.00191 8.92766 2.95267 9.03998 2.95267C9.06459 2.95267 9.08614 2.95575 9.09998 2.95729C9.09998 2.86805 9.12152 2.80189 9.16153 2.76188C9.19999 2.72342 9.24461 2.7188 9.26308 2.7188C9.27077 2.7188 9.27385 2.7188 9.27385 2.7188C9.34462 2.73573 9.39386 2.76958 9.42001 2.81881C9.4554 2.88805 9.43848 2.96652 9.42925 3.00191C9.49079 3.01421 9.53387 3.04037 9.56003 3.07884C9.59388 3.12961 9.58311 3.18192 9.58311 3.18346C9.57387 3.27116 9.50618 3.32194 9.39693 3.32194C9.39232 3.32194 9.3877 3.32194 9.38463 3.32194C9.44002 3.51888 9.52156 3.61735 9.6308 3.61735C9.75389 3.61735 9.8739 3.49118 9.90775 3.45272C9.80928 3.34963 9.77389 3.26501 9.80005 3.20346C9.83698 3.11422 9.9893 3.10499 10.0462 3.10345V2.75881L10.0693 2.77419C10.357 2.96344 10.3524 2.98652 10.3493 3.00037L10.3463 3.01114C10.3186 3.17885 10.2478 3.25731 10.2278 3.27732C10.2309 3.36348 10.2139 3.42656 10.1755 3.4681C10.1309 3.5158 10.0678 3.51734 10.037 3.5158C10.0124 3.68966 9.94468 3.82352 9.94314 3.82968L9.93699 3.84199H9.93237ZM8.09219 3.55273H8.09373C8.49531 3.60658 9.76466 3.77736 9.91698 3.80506C9.93391 3.76967 9.98776 3.64658 10.0062 3.49734V3.48041L10.0247 3.48349C10.0247 3.48349 10.037 3.48657 10.0524 3.48657C10.0801 3.48657 10.1201 3.48041 10.1509 3.4481C10.1847 3.41271 10.1986 3.35425 10.1955 3.2727V3.26501L10.2016 3.26039C10.2016 3.26039 10.2878 3.185 10.317 2.99729C10.3093 2.98652 10.2693 2.94498 10.0755 2.81573V3.13576H10.0524C10.0201 3.13576 9.86006 3.13884 9.82774 3.21577C9.8062 3.26655 9.84467 3.34502 9.94006 3.44195L9.9493 3.45118L9.94006 3.46195C9.93391 3.46964 9.78774 3.64658 9.6308 3.64658C9.5031 3.64658 9.40924 3.53273 9.35078 3.30809L9.34462 3.28655L9.3677 3.28963C9.3677 3.28963 9.38001 3.29116 9.39847 3.29116C9.45232 3.29116 9.54464 3.27578 9.55387 3.17885C9.55387 3.17731 9.5631 3.13423 9.53541 3.09576C9.51233 3.06191 9.46925 3.03883 9.4077 3.0296L9.38924 3.02652L9.3954 3.0096C9.3954 3.0096 9.43386 2.91113 9.3954 2.8342C9.37386 2.79265 9.33231 2.76342 9.27077 2.74957C9.27077 2.74957 9.26923 2.74957 9.26461 2.74957C9.24769 2.74957 9.21384 2.75419 9.18461 2.78342C9.14768 2.82035 9.13075 2.88651 9.13229 2.97575V2.99575L9.11383 2.99114C9.11383 2.99114 9.08152 2.98344 9.04152 2.98344C8.97382 2.98344 8.88919 3.00344 8.87227 3.09884C8.87227 3.10345 8.86304 3.21885 9.04921 3.26193L9.07383 3.26808L9.05844 3.28655C9.05075 3.29578 8.8615 3.52042 8.63532 3.52042C8.46761 3.52042 8.32606 3.39733 8.21682 3.15577L8.20297 3.12499L8.23528 3.13423C8.23528 3.13423 8.27837 3.14653 8.32606 3.14653C8.37376 3.14653 8.41069 3.13423 8.43377 3.11115C8.45531 3.08961 8.46608 3.05576 8.46608 3.01268C8.46608 3.00806 8.45531 2.86189 8.23221 2.87574H8.21528V2.30953C8.22759 2.28184 8.25836 2.20952 8.26606 2.1649H7.92141C7.92756 2.20952 7.95833 2.28184 7.97218 2.30953V2.31569V2.87574H7.95526C7.7337 2.86035 7.72139 3.00652 7.72139 3.01114C7.72139 3.05422 7.73216 3.08653 7.7537 3.10807C7.77678 3.13115 7.81371 3.14346 7.8614 3.14346C7.9091 3.14346 7.95064 3.13115 7.95218 3.13115L7.98449 3.12192L7.97064 3.15269C7.8614 3.39425 7.72139 3.51734 7.55368 3.51734C7.32904 3.51734 7.13979 3.2927 7.1321 3.28347L7.11672 3.26501L7.14133 3.25885C7.3275 3.21577 7.31827 3.10038 7.31827 3.09422C7.30135 2.99883 7.21826 2.97883 7.15056 2.97883C7.11056 2.97883 7.07979 2.98652 7.07979 2.98652L7.06133 2.99114V2.97113C7.0644 2.88036 7.04594 2.81573 7.00901 2.77881C6.97978 2.74957 6.94747 2.74496 6.93054 2.74496C6.92593 2.74496 6.92439 2.74496 6.92285 2.74496C6.86438 2.75881 6.82284 2.7865 6.8013 2.82804C6.7613 2.90497 6.79976 3.00191 6.8013 3.00344L6.80745 3.02037L6.78899 3.02345C6.72745 3.03268 6.68437 3.05576 6.66129 3.08961C6.63513 3.12961 6.64282 3.17115 6.64282 3.17115C6.65359 3.27116 6.74437 3.28501 6.79822 3.28501C6.81669 3.28501 6.829 3.28347 6.829 3.28347L6.85207 3.28039L6.84592 3.30193C6.78745 3.52657 6.6936 3.64043 6.56743 3.64043C6.41049 3.64043 6.26586 3.46349 6.25971 3.4558L6.25202 3.44502L6.26125 3.43579C6.3551 3.33886 6.39357 3.26039 6.37203 3.20962C6.33972 3.13269 6.1797 3.12807 6.14739 3.12807H6.12431V2.80804C5.93045 2.93728 5.89198 2.97729 5.88275 2.9896C5.91198 3.17731 5.99661 3.25116 5.99815 3.2527L6.0043 3.25731V3.26501C5.99968 3.34655 6.01507 3.40502 6.04738 3.44041C6.07815 3.47272 6.11662 3.47887 6.14431 3.47887C6.16124 3.47887 6.17201 3.4758 6.17201 3.4758L6.18893 3.47272V3.48964C6.20894 3.63889 6.26279 3.76198 6.27971 3.79737C6.42434 3.76967 7.58445 3.61273 8.09527 3.54503H8.09681L8.09219 3.55273Z" fill="black"/>
<path d="M9.81171 4.37579C9.81171 4.37579 9.89633 4.12346 9.92403 3.82343C9.92403 3.82343 9.1101 3.59571 8.11462 3.56494C8.11462 3.56494 6.87604 3.62033 6.32214 3.81881C6.32214 3.81881 6.25291 3.89574 6.3683 4.37579C6.3683 4.37579 8.14078 4.13884 9.81171 4.37579Z" fill="#FEDF00"/>
<path d="M6.35754 4.39247L6.35446 4.37863C6.24061 3.90474 6.30369 3.81703 6.31138 3.80934L6.31754 3.80473C6.86682 3.60778 8.10233 3.54932 8.11463 3.54932C9.10242 3.57855 9.92096 3.80626 9.92865 3.8078L9.94096 3.81088V3.82319C9.91327 4.12322 9.82711 4.37709 9.82711 4.37863L9.82249 4.39094H9.81018C9.31783 4.31862 8.76854 4.28323 8.17618 4.28323C7.16839 4.28323 6.37754 4.38786 6.36985 4.38786H6.356L6.35754 4.39247ZM6.33292 3.83242C6.32523 3.84935 6.28523 3.95551 6.38062 4.36016C6.48986 4.34632 7.23916 4.25554 8.17618 4.25554C8.76393 4.25554 9.31013 4.29093 9.80095 4.36016C9.81787 4.30785 9.88403 4.08937 9.90711 3.8355C9.80249 3.8078 9.03011 3.60932 8.11309 3.58163C8.10232 3.58163 6.87759 3.63856 6.33139 3.83396L6.33292 3.83242Z" fill="black"/>
<path d="M9.66888 4.0742L9.83967 4.2096C9.83967 4.2096 10.1797 4.17729 9.92429 3.97266L9.66888 4.0742Z" fill="#F10A22"/>
<path d="M9.83659 4.22482L9.63965 4.06942L9.92737 3.95557L9.93352 3.96172C10.0135 4.02634 10.0458 4.08019 10.0305 4.12789C10.0058 4.2079 9.85813 4.22482 9.84121 4.22636H9.83505L9.83659 4.22482ZM9.69965 4.07712L9.84582 4.19251C9.89044 4.1879 9.98891 4.16636 10.0028 4.11712C10.012 4.08481 9.9843 4.04019 9.92121 3.98788L9.69812 4.07712H9.69965Z" fill="black"/>
<path d="M6.54523 4.06786L6.35137 3.96631C6.35137 3.96631 6.02364 4.0617 6.31444 4.21556L6.54523 4.06786Z" fill="#F10A22"/>
<path d="M6.31445 4.23225L6.30676 4.22763C6.21598 4.17994 6.17444 4.13224 6.17906 4.083C6.18829 3.99992 6.32984 3.9553 6.34677 3.95068H6.35292L6.57602 4.06454L6.31445 4.23071V4.23225ZM6.34984 3.98146C6.3083 3.9953 6.21444 4.03531 6.20983 4.08608C6.20675 4.11993 6.24214 4.1584 6.31292 4.19686L6.51447 4.06762L6.34984 3.98146Z" fill="black"/>
<path d="M8.47894 3.9064C8.47894 3.99872 8.31585 4.07257 8.11583 4.07257C7.91581 4.07257 7.75272 3.99872 7.75272 3.9064C7.75272 3.81409 7.91581 3.74023 8.11583 3.74023C8.31585 3.74023 8.47894 3.81409 8.47894 3.9064Z" fill="#F10A22"/>
<path d="M8.11461 4.08772C7.90228 4.08772 7.73611 4.00771 7.73611 3.90617C7.73611 3.80462 7.90228 3.72461 8.11461 3.72461C8.32694 3.72461 8.49311 3.80462 8.49311 3.90617C8.49311 4.00771 8.32694 4.08772 8.11461 4.08772ZM8.11461 3.75538C7.92536 3.75538 7.76689 3.82462 7.76689 3.90617C7.76689 3.98771 7.9269 4.05695 8.11461 4.05695C8.30232 4.05695 8.46234 3.98771 8.46234 3.90617C8.46234 3.82462 8.30232 3.75538 8.11461 3.75538Z" fill="black"/>
<path d="M9.31298 4.009C9.2976 4.089 9.19605 4.1367 9.08681 4.11516C8.97757 4.09362 8.90064 4.01207 8.91602 3.9336C8.93141 3.8536 9.03296 3.8059 9.1422 3.82744C9.25144 3.84898 9.32837 3.93053 9.31298 4.009Z" fill="#F10A22"/>
<path d="M9.13732 4.13534C9.11886 4.13534 9.10039 4.1338 9.08347 4.13073C9.02654 4.11995 8.97731 4.0938 8.94346 4.05687C8.90807 4.01841 8.89268 3.97379 8.90038 3.93071C8.91422 3.85839 8.99269 3.80762 9.08962 3.80762C9.10809 3.80762 9.12655 3.80916 9.14348 3.81223C9.2004 3.823 9.24964 3.84916 9.28349 3.88609C9.31888 3.92455 9.33426 3.96917 9.32503 4.01225C9.31118 4.08457 9.23425 4.13534 9.13578 4.13534H9.13732ZM9.08962 3.83685C9.00654 3.83685 8.94192 3.87685 8.92961 3.93532C8.92345 3.96917 8.93576 4.00456 8.965 4.03533C8.99577 4.06764 9.03885 4.09072 9.08962 4.09995C9.10655 4.10303 9.12194 4.10457 9.13886 4.10457C9.22195 4.10457 9.2881 4.06303 9.29888 4.0061C9.30503 3.97225 9.29272 3.93686 9.26349 3.90609C9.23425 3.87378 9.18963 3.8507 9.13886 3.84147C9.12347 3.83839 9.10655 3.83685 9.08962 3.83685Z" fill="black"/>
<path d="M7.22872 3.9107C7.25334 3.98763 7.18718 4.07841 7.08102 4.11226C6.97485 4.14611 6.86869 4.11072 6.84407 4.03225C6.81945 3.95378 6.88561 3.86454 6.99178 3.83069C7.09794 3.79684 7.2041 3.83223 7.22872 3.9107Z" fill="#F10A22"/>
<path d="M6.99946 4.14018C6.91484 4.14018 6.84868 4.10017 6.82868 4.03709C6.80252 3.95247 6.8733 3.854 6.98715 3.81707C7.01485 3.80784 7.04408 3.80322 7.07178 3.80322C7.1564 3.80322 7.22256 3.84323 7.24256 3.90631C7.26872 3.99093 7.19794 4.09094 7.08409 4.12633C7.05639 4.13556 7.02716 4.14018 6.99946 4.14018ZM7.07178 3.83399C7.04716 3.83399 7.021 3.83861 6.99638 3.8463C6.89791 3.87708 6.83637 3.95862 6.85791 4.02786C6.8733 4.0771 6.92869 4.10941 6.99946 4.10941C7.02408 4.10941 7.05024 4.10479 7.07485 4.0971C7.17332 4.06632 7.23487 3.98478 7.21333 3.91554C7.19794 3.86631 7.14255 3.83399 7.07178 3.83399Z" fill="black"/>
<path d="M9.7674 4.34487C9.7674 4.34487 9.4166 4.23101 8.17956 4.20947C8.17956 4.20947 8.16725 4.20947 8.15955 4.20947C8.1534 4.20947 8.14725 4.20947 8.14109 4.20947C6.85174 4.23255 6.48555 4.34641 6.48555 4.34641C6.11782 4.5572 6.48555 4.75414 6.48555 4.75414C6.48555 4.75414 7.45026 4.56028 8.14109 4.58182C8.14109 4.58182 8.1534 4.58182 8.15955 4.58182C8.16571 4.58182 8.1734 4.58182 8.17956 4.58182C8.8427 4.55874 9.76894 4.7526 9.76894 4.7526C9.76894 4.7526 10.1213 4.55566 9.76894 4.34487H9.7674Z" fill="#FEDF00"/>
<path d="M9.77047 4.76929H9.76431C9.75508 4.76621 8.8473 4.5785 8.19339 4.59542L8.178 4.59696H8.15954H8.12569V4.59389C7.44717 4.57696 6.49784 4.76467 6.48861 4.76621H6.484H6.47938C6.47169 4.76313 6.31013 4.67389 6.30859 4.54619C6.30859 4.46926 6.36552 4.39694 6.47938 4.33078C6.49784 4.32463 6.86249 4.21539 8.12723 4.19385H8.14262H8.16108H8.19493C9.40889 4.21693 9.75816 4.32617 9.77354 4.33078C9.8874 4.39848 9.94279 4.4708 9.94125 4.54773C9.93971 4.67543 9.78277 4.76313 9.77662 4.76621L9.772 4.76929H9.77047ZM8.15031 4.22462H8.14262C6.87326 4.24616 6.4963 4.35848 6.49169 4.36002C6.39014 4.41848 6.33783 4.48157 6.33937 4.54773C6.33937 4.6462 6.46399 4.72313 6.49015 4.73852C6.56554 4.72313 7.38716 4.56465 8.03184 4.56465C8.0703 4.56465 8.10723 4.56465 8.14262 4.56619H8.158H8.16108H8.17185H8.17954C8.81037 4.54619 9.68584 4.72159 9.76585 4.73852C9.79047 4.72313 9.90894 4.6462 9.91048 4.54773C9.91048 4.48311 9.86124 4.41848 9.76123 4.35848C9.76123 4.35848 9.39812 4.24616 8.17954 4.22462H8.16416H8.15954H8.14877H8.15031Z" fill="black"/>
<path d="M5.80237 3.03707C5.80237 3.03707 6.88402 2.11544 8.09644 2.10005C8.09644 2.10005 9.43042 2.16006 10.3674 3.03707C10.3674 3.03707 10.5644 3.0063 10.5336 2.87859C10.5336 2.87859 9.74891 2.01697 8.09644 1.84311C8.09644 1.84311 7.25328 1.74464 5.65775 2.84013C5.65775 2.84013 5.65775 2.97552 5.80084 3.03707H5.80237Z" fill="#FEDF00"/>
<path d="M5.80392 3.05552L5.79469 3.05244C5.6439 2.98936 5.64236 2.84781 5.64236 2.84165V2.83396L5.64852 2.82935C7.0025 1.89849 7.8195 1.82617 8.03644 1.82617C8.07491 1.82617 8.09491 1.82925 8.09645 1.82925C9.73507 2.00157 10.5351 2.86166 10.5428 2.86935L10.5459 2.87243V2.8755C10.5551 2.90935 10.549 2.94013 10.5321 2.96628C10.4859 3.03398 10.3736 3.05244 10.369 3.05244H10.3613L10.3567 3.04937C9.4335 2.18621 8.10876 2.11697 8.09491 2.11543C6.90249 2.13082 5.82238 3.04013 5.81161 3.04937L5.80392 3.05552ZM8.09491 2.0862C8.10876 2.0862 9.44119 2.15697 10.3705 3.02167C10.3951 3.01706 10.4736 2.99705 10.5059 2.94936C10.5182 2.93089 10.5228 2.91089 10.5182 2.88627C10.4659 2.83088 9.67198 2.02465 8.09337 1.85848C8.09337 1.85848 8.07337 1.85694 8.03644 1.85694C7.82104 1.85694 7.0148 1.92926 5.6716 2.84935C5.67314 2.87704 5.69006 2.9709 5.79776 3.02013C5.8947 2.94013 6.94249 2.10004 8.09491 2.08466V2.0862Z" fill="black"/>
<path d="M8.88893 1.80979C8.88893 1.93134 8.78277 2.02827 8.65199 2.02827C8.5212 2.02827 8.41504 1.9298 8.41504 1.80979C8.41504 1.68978 8.5212 1.59131 8.65199 1.59131C8.78277 1.59131 8.88893 1.68978 8.88893 1.80979Z" fill="white"/>
<path d="M8.65077 2.04342C8.51076 2.04342 8.39844 1.9388 8.39844 1.80955C8.39844 1.68031 8.51229 1.57568 8.65077 1.57568C8.78924 1.57568 8.9031 1.68031 8.9031 1.80955C8.9031 1.9388 8.78924 2.04342 8.65077 2.04342ZM8.65077 1.60492C8.52768 1.60492 8.42767 1.69723 8.42767 1.80955C8.42767 1.92187 8.52768 2.01419 8.65077 2.01419C8.77386 2.01419 8.87387 1.92187 8.87387 1.80955C8.87387 1.69723 8.77386 1.60492 8.65077 1.60492Z" fill="black"/>
<path d="M9.33347 1.93721C9.33347 2.06954 9.23038 2.1757 9.10268 2.1757C8.97497 2.1757 8.87189 2.06954 8.87189 1.93721C8.87189 1.80489 8.97497 1.69873 9.10268 1.69873C9.23038 1.69873 9.33347 1.80643 9.33347 1.93721Z" fill="white"/>
<path d="M9.10268 2.19085C8.96729 2.19085 8.85651 2.07699 8.85651 1.93698C8.85651 1.79696 8.96729 1.68311 9.10268 1.68311C9.23808 1.68311 9.34886 1.79696 9.34886 1.93698C9.34886 2.07699 9.23808 2.19085 9.10268 2.19085ZM9.10268 1.71388C8.98421 1.71388 8.88728 1.81389 8.88728 1.93698C8.88728 2.06006 8.98421 2.16007 9.10268 2.16007C9.22116 2.16007 9.31809 2.06006 9.31809 1.93698C9.31809 1.81389 9.22116 1.71388 9.10268 1.71388Z" fill="black"/>
<path d="M9.80734 2.12655C9.80734 2.26195 9.69964 2.37273 9.56578 2.37273C9.43192 2.37273 9.32422 2.26195 9.32422 2.12655C9.32422 1.99115 9.43192 1.88037 9.56578 1.88037C9.69964 1.88037 9.80734 1.99115 9.80734 2.12655Z" fill="white"/>
<path d="M9.56693 2.38787C9.42538 2.38787 9.31152 2.27094 9.31152 2.12631C9.31152 1.98168 9.42692 1.86475 9.56693 1.86475C9.70695 1.86475 9.82388 1.98168 9.82388 2.12631C9.82388 2.27094 9.70848 2.38787 9.56693 2.38787ZM9.56693 1.89552C9.44231 1.89552 9.34076 1.99861 9.34076 2.12631C9.34076 2.25401 9.44231 2.3571 9.56693 2.3571C9.69156 2.3571 9.79311 2.25401 9.79311 2.12631C9.79311 1.99861 9.69156 1.89552 9.56693 1.89552Z" fill="black"/>
<path d="M10.2144 2.35264C10.2144 2.47727 10.1113 2.57882 9.98511 2.57882C9.85895 2.57882 9.75586 2.47727 9.75586 2.35264C9.75586 2.22801 9.85895 2.12646 9.98511 2.12646C10.1113 2.12646 10.2144 2.22801 10.2144 2.35264Z" fill="white"/>
<path d="M9.9839 2.59396C9.8485 2.59396 9.73926 2.48626 9.73926 2.3524C9.73926 2.21854 9.8485 2.11084 9.9839 2.11084C10.1193 2.11084 10.2285 2.21854 10.2285 2.3524C10.2285 2.48626 10.1193 2.59396 9.9839 2.59396ZM9.9839 2.14161C9.86542 2.14161 9.76849 2.23547 9.76849 2.3524C9.76849 2.46934 9.86542 2.56319 9.9839 2.56319C10.1024 2.56319 10.1978 2.46934 10.1978 2.3524C10.1978 2.23547 10.1008 2.14161 9.9839 2.14161Z" fill="black"/>
<path d="M10.6394 2.63756C10.6394 2.77142 10.5302 2.87912 10.3963 2.87912C10.2625 2.87912 10.1532 2.77142 10.1532 2.63756C10.1532 2.5037 10.2625 2.396 10.3963 2.396C10.5302 2.396 10.6394 2.5037 10.6394 2.63756Z" fill="white"/>
<path d="M10.3951 2.89427C10.252 2.89427 10.1366 2.77887 10.1366 2.63732C10.1366 2.49577 10.252 2.38037 10.3951 2.38037C10.5382 2.38037 10.6536 2.49577 10.6536 2.63732C10.6536 2.77887 10.5382 2.89427 10.3951 2.89427ZM10.3951 2.41114C10.2689 2.41114 10.1659 2.51269 10.1659 2.63732C10.1659 2.76195 10.2689 2.86349 10.3951 2.86349C10.5213 2.86349 10.6244 2.76195 10.6244 2.63732C10.6244 2.51269 10.5213 2.41114 10.3951 2.41114Z" fill="black"/>
<path d="M7.51946 2.03269C7.65712 2.03269 7.76871 1.92109 7.76871 1.78343C7.76871 1.64577 7.65712 1.53418 7.51946 1.53418C7.3818 1.53418 7.2702 1.64577 7.2702 1.78343C7.2702 1.92109 7.3818 2.03269 7.51946 2.03269Z" fill="white"/>
<path d="M7.51946 2.04637C7.37329 2.04637 7.25482 1.9279 7.25482 1.78173C7.25482 1.63556 7.37329 1.51709 7.51946 1.51709C7.66563 1.51709 7.7841 1.63556 7.7841 1.78173C7.7841 1.9279 7.66563 2.04637 7.51946 2.04637ZM7.51946 1.54786C7.39022 1.54786 7.28559 1.65249 7.28559 1.78173C7.28559 1.91097 7.39022 2.0156 7.51946 2.0156C7.64871 2.0156 7.75333 1.91097 7.75333 1.78173C7.75333 1.65249 7.64871 1.54786 7.51946 1.54786Z" fill="black"/>
<path d="M7.01292 2.15573C7.14208 2.15573 7.24679 2.05102 7.24679 1.92186C7.24679 1.79269 7.14208 1.68799 7.01292 1.68799C6.88376 1.68799 6.77905 1.79269 6.77905 1.92186C6.77905 2.05102 6.88376 2.15573 7.01292 2.15573Z" fill="white"/>
<path d="M7.01293 2.17087C6.87599 2.17087 6.76367 2.05855 6.76367 1.92162C6.76367 1.78468 6.87599 1.67236 7.01293 1.67236C7.14986 1.67236 7.26218 1.78468 7.26218 1.92162C7.26218 2.05855 7.14986 2.17087 7.01293 2.17087ZM7.01293 1.7016C6.89138 1.7016 6.79444 1.80007 6.79444 1.92008C6.79444 2.04009 6.89292 2.13856 7.01293 2.13856C7.13294 2.13856 7.23141 2.04009 7.23141 1.92008C7.23141 1.80007 7.13294 1.7016 7.01293 1.7016Z" fill="black"/>
<path d="M6.77749 2.12986C6.77749 2.25911 6.67287 2.36373 6.54362 2.36373C6.41438 2.36373 6.30975 2.25911 6.30975 2.12986C6.30975 2.00062 6.41438 1.896 6.54362 1.896C6.67287 1.896 6.77749 2.00062 6.77749 2.12986Z" fill="white"/>
<path d="M6.54515 2.37888C6.40822 2.37888 6.2959 2.26656 6.2959 2.12963C6.2959 1.99269 6.40822 1.88037 6.54515 1.88037C6.68209 1.88037 6.79441 1.99269 6.79441 2.12963C6.79441 2.26656 6.68209 2.37888 6.54515 2.37888ZM6.54515 1.91114C6.42514 1.91114 6.32667 2.00961 6.32667 2.12963C6.32667 2.24964 6.42514 2.34811 6.54515 2.34811C6.66517 2.34811 6.76364 2.24964 6.76364 2.12963C6.76364 2.00961 6.66517 1.91114 6.54515 1.91114Z" fill="black"/>
<path d="M6.36822 2.37298C6.36822 2.50684 6.25898 2.61608 6.12512 2.61608C5.99126 2.61608 5.88202 2.50684 5.88202 2.37298C5.88202 2.23912 5.99126 2.12988 6.12512 2.12988C6.25898 2.12988 6.36822 2.23912 6.36822 2.37298Z" fill="white"/>
<path d="M6.12665 2.63123C5.9851 2.63123 5.86816 2.51583 5.86816 2.37274C5.86816 2.22965 5.98356 2.11426 6.12665 2.11426C6.26974 2.11426 6.3836 2.22965 6.3836 2.37274C6.3836 2.51583 6.2682 2.63123 6.12665 2.63123ZM6.12665 2.14657C6.00048 2.14657 5.89894 2.24812 5.89894 2.37428C5.89894 2.50045 6.00048 2.602 6.12665 2.602C6.25282 2.602 6.35436 2.50045 6.35436 2.37428C6.35436 2.24812 6.25282 2.14657 6.12665 2.14657Z" fill="black"/>
<path d="M5.96853 2.68291C5.96853 2.80446 5.87006 2.90139 5.74851 2.90139C5.62696 2.90139 5.53003 2.80292 5.53003 2.68291C5.53003 2.5629 5.6285 2.46289 5.74851 2.46289C5.86852 2.46289 5.96853 2.56136 5.96853 2.68291Z" fill="white"/>
<path d="M5.74852 2.91696C5.61927 2.91696 5.51465 2.81233 5.51465 2.68309C5.51465 2.55384 5.61927 2.44922 5.74852 2.44922C5.87776 2.44922 5.98239 2.55384 5.98239 2.68309C5.98239 2.81233 5.87776 2.91696 5.74852 2.91696ZM5.74852 2.47845C5.6362 2.47845 5.54388 2.57077 5.54388 2.68309C5.54388 2.79541 5.63466 2.88772 5.74852 2.88772C5.86237 2.88772 5.95315 2.79541 5.95315 2.68309C5.95315 2.57077 5.86084 2.47845 5.74852 2.47845Z" fill="black"/>
<path d="M8.30942 2.43987C8.30942 2.5568 8.21403 2.6522 8.09709 2.6522C7.98016 2.6522 7.88477 2.5568 7.88477 2.43987C7.88477 2.32293 7.98016 2.22754 8.09709 2.22754C8.21403 2.22754 8.30942 2.32293 8.30942 2.43987Z" fill="#FEDF00"/>
<path d="M8.09825 2.66622C7.97362 2.66622 7.87207 2.56467 7.87207 2.44004C7.87207 2.31542 7.97362 2.21387 8.09825 2.21387C8.22287 2.21387 8.32442 2.31542 8.32442 2.44004C8.32442 2.56467 8.22287 2.66622 8.09825 2.66622ZM8.09825 2.2431C7.99054 2.2431 7.9013 2.3308 7.9013 2.44004C7.9013 2.54928 7.989 2.63698 8.09825 2.63698C8.20749 2.63698 8.29519 2.54928 8.29519 2.44004C8.29519 2.3308 8.20749 2.2431 8.09825 2.2431Z" fill="black"/>
<path d="M8.50539 0.902969C8.41615 0.961436 8.32384 0.992208 8.2346 1.00606C8.26229 0.839886 8.31922 0.716797 8.31922 0.716797H7.8761C7.93764 0.810652 7.96996 0.909123 7.98226 1.00144C7.81148 0.972206 7.69147 0.902969 7.69147 0.902969V1.34609C7.78071 1.28762 7.87918 1.26146 7.97457 1.25223C7.9438 1.41686 7.87764 1.53226 7.87764 1.53226H8.32076C8.26537 1.44764 8.23767 1.35532 8.2269 1.263C8.38846 1.2907 8.50539 1.34609 8.50539 1.34609V0.902969Z" fill="#FEDF00"/>
<path d="M8.34724 1.54782H7.85027L7.86258 1.52474C7.86258 1.52474 7.92258 1.41858 7.95335 1.26933C7.85642 1.28164 7.77026 1.31088 7.69794 1.35857L7.67487 1.37396V0.876988L7.69794 0.890835C7.69794 0.890835 7.80872 0.953918 7.96412 0.984691C7.94874 0.892374 7.91489 0.804673 7.86411 0.726204L7.84873 0.703125H8.34416L8.33339 0.724666C8.33339 0.724666 8.28108 0.836984 8.25338 0.989306C8.34108 0.972382 8.42263 0.940071 8.49648 0.892374L8.51956 0.876988V1.37242L8.49802 1.36319C8.49802 1.36319 8.39032 1.31241 8.24261 1.28472C8.25492 1.3755 8.28569 1.45704 8.33031 1.52628L8.3457 1.54936L8.34724 1.54782ZM7.90104 1.51705H8.29185C8.24877 1.4432 8.22107 1.35857 8.2103 1.26472V1.24472L8.22876 1.24779C8.35185 1.26933 8.44879 1.30626 8.49033 1.32318V0.930839C8.4134 0.976997 8.32877 1.00777 8.238 1.02162L8.21799 1.02469L8.22107 1.00469C8.24261 0.876988 8.27954 0.77544 8.298 0.733897H7.90566C7.95489 0.815443 7.98566 0.906221 7.99951 1.00162L8.00259 1.02162L7.98259 1.01854C7.85334 0.996999 7.7518 0.950841 7.70871 0.929301V1.32011C7.78565 1.27549 7.87642 1.24779 7.97489 1.23702H7.9949L7.99182 1.25549C7.96874 1.38011 7.92566 1.47551 7.90412 1.51859L7.90104 1.51705Z" fill="black"/>
<path d="M8.40216 1.73734C8.40216 1.90658 8.26522 2.04352 8.09598 2.04352C7.92673 2.04352 7.78979 1.90658 7.78979 1.73734C7.78979 1.56809 7.92673 1.43115 8.09598 1.43115C8.26522 1.43115 8.40216 1.56809 8.40216 1.73734Z" fill="white"/>
<path d="M8.09598 2.05867C7.91904 2.05867 7.77441 1.91404 7.77441 1.7371C7.77441 1.56016 7.91904 1.41553 8.09598 1.41553C8.27292 1.41553 8.41755 1.56016 8.41755 1.7371C8.41755 1.91404 8.27292 2.05867 8.09598 2.05867ZM8.09598 1.4463C7.93597 1.4463 7.80519 1.57708 7.80519 1.7371C7.80519 1.89711 7.93597 2.02789 8.09598 2.02789C8.256 2.02789 8.38678 1.89711 8.38678 1.7371C8.38678 1.57708 8.256 1.4463 8.09598 1.4463Z" fill="black"/>
</g>
<defs>
<clipPath id="clip0_1_482949">
<rect width="16" height="16" fill="white"/>
</clipPath>
</defs>
</svg>
