<svg width="16" height="16" viewBox="0 0 16 16" fill="none" xmlns="http://www.w3.org/2000/svg">
<g clip-path="url(#clip0_1_482641)">
<rect width="16" height="16" rx="8" fill="white"/>
<path d="M17.0667 0H-1.06668C-2.24489 0 -3.20001 0.955126 -3.20001 2.13333V13.8667C-3.20001 15.0449 -2.24489 16 -1.06668 16H17.0667C18.2449 16 19.2 15.0449 19.2 13.8667V2.13333C19.2 0.955126 18.2449 0 17.0667 0Z" fill="white"/>
<path fill-rule="evenodd" clip-rule="evenodd" d="M3.17201 5.3058C3.10161 5.94153 2.90107 6.4002 2.66641 6.4002C2.43174 6.4002 2.23121 5.94153 2.16081 5.3058C1.52507 5.2354 1.06641 5.03486 1.06641 4.8002C1.06641 4.56553 1.52507 4.365 2.16081 4.2946C2.23121 3.65886 2.43174 3.2002 2.66641 3.2002C2.90107 3.2002 3.10161 3.65886 3.17201 4.2946C3.80774 4.365 4.26641 4.56553 4.26641 4.8002C4.26641 5.03486 3.80774 5.2354 3.17201 5.3058Z" fill="#1A47B8"/>
<path fill-rule="evenodd" clip-rule="evenodd" d="M13.8389 12.7721C13.7685 13.4078 13.568 13.8665 13.3333 13.8665C13.0987 13.8665 12.8981 13.4078 12.8277 12.7721C12.192 12.7017 11.7333 12.5012 11.7333 12.2665C11.7333 12.0318 12.192 11.8313 12.8277 11.7609C12.8981 11.1252 13.0976 10.6665 13.3333 10.6665C13.568 10.6665 13.7685 11.1252 13.8389 11.7609C14.4747 11.8313 14.9333 12.0308 14.9333 12.2665C14.9333 12.5012 14.4747 12.7017 13.8389 12.7721Z" fill="#F93939"/>
<path fill-rule="evenodd" clip-rule="evenodd" d="M-3.20001 8.5332H7.46665V15.9999H-3.20001V8.5332Z" fill="#1A47B8"/>
<path fill-rule="evenodd" clip-rule="evenodd" d="M7.46667 0H19.2V8.53333H7.46667V0Z" fill="#F93939"/>
</g>
<defs>
<clipPath id="clip0_1_482641">
<rect width="16" height="16" rx="8" fill="white"/>
</clipPath>
</defs>
</svg>
