<svg width="16" height="16" viewBox="0 0 16 16" fill="none" xmlns="http://www.w3.org/2000/svg">
<g clip-path="url(#clip0_1_483348)">
<path d="M17.0667 0H-1.06667C-2.24488 0 -3.2 0.955126 -3.2 2.13333V13.8667C-3.2 15.0449 -2.24488 16 -1.06667 16H17.0667C18.2449 16 19.2 15.0449 19.2 13.8667V2.13333C19.2 0.955126 18.2449 0 17.0667 0Z" fill="white"/>
<path fill-rule="evenodd" clip-rule="evenodd" d="M-3.2 0H4.26666V16H-3.2V0ZM11.7333 0H19.2V16H11.7333V0Z" fill="#F93939"/>
<path d="M8.00001 8.53324C8.29456 8.53324 8.53334 8.05567 8.53334 7.46657C8.53334 6.87747 8.29456 6.3999 8.00001 6.3999C7.70546 6.3999 7.46667 6.87747 7.46667 7.46657C7.46667 8.05567 7.70546 8.53324 8.00001 8.53324Z" fill="#FFDA2C"/>
<path fill-rule="evenodd" clip-rule="evenodd" d="M10.6663 8.00016C10.6663 6.52816 9.47167 5.3335 7.99967 5.3335C6.52767 5.3335 5.33301 6.52816 5.33301 8.00016C5.33301 9.47216 6.52767 10.6668 7.99967 10.6668C9.47167 10.6668 10.6663 9.47216 10.6663 8.00016ZM7.99967 9.60016C8.88287 9.60016 9.59967 8.6455 9.59967 7.46683C9.59967 6.28816 8.88287 5.3335 7.99967 5.3335C7.11647 5.3335 6.39967 6.28816 6.39967 7.46683C6.39967 8.6455 7.11647 9.60016 7.99967 9.60016Z" fill="#249F58"/>
</g>
<defs>
<clipPath id="clip0_1_483348">
<rect width="16" height="16" rx="8" fill="white"/>
</clipPath>
</defs>
</svg>
