<svg width="16" height="16" viewBox="0 0 16 16" fill="none" xmlns="http://www.w3.org/2000/svg">
<g clip-path="url(#clip0_1_483242)">
<rect width="16" height="16" rx="8" fill="#F93939"/>
<path d="M17.0667 0H-1.06668C-2.24489 0 -3.20001 0.955126 -3.20001 2.13333V13.8667C-3.20001 15.0449 -2.24489 16 -1.06668 16H17.0667C18.2449 16 19.2 15.0449 19.2 13.8667V2.13333C19.2 0.955126 18.2449 0 17.0667 0Z" fill="#F93939"/>
<path fill-rule="evenodd" clip-rule="evenodd" d="M-3.20001 0H19.2V8.53333H-3.20001V0Z" fill="#1A47B8"/>
<path fill-rule="evenodd" clip-rule="evenodd" d="M-3.20001 0V16.0352L7.46665 8L-3.20001 0Z" fill="white"/>
<path fill-rule="evenodd" clip-rule="evenodd" d="M1.58426 8.51737C2.51226 8.4587 3.20026 8.2507 3.20026 8.00003C3.20026 7.75043 2.51226 7.54137 1.58426 7.4827C1.52559 6.5547 1.31759 5.8667 1.06693 5.8667C0.817327 5.8667 0.608261 6.5547 0.549594 7.4827C-0.378406 7.54137 -1.06641 7.74937 -1.06641 8.00003C-1.06641 8.24963 -0.378406 8.4587 0.549594 8.51737C0.607194 9.44537 0.81626 10.1334 1.06693 10.1334C1.31653 10.1334 1.52559 9.44537 1.58426 8.51737Z" fill="#FFDA2C"/>
<path d="M4.8 8.53346C5.09455 8.53346 5.33333 8.29468 5.33333 8.00013C5.33333 7.70558 5.09455 7.4668 4.8 7.4668C4.50544 7.4668 4.26666 7.70558 4.26666 8.00013C4.26666 8.29468 4.50544 8.53346 4.8 8.53346Z" fill="#FFDA2C"/>
<path d="M-0.533073 5.33327C-0.238521 5.33327 0.000260472 5.09449 0.000260472 4.79993C0.000260472 4.50538 -0.238521 4.2666 -0.533073 4.2666C-0.827625 4.2666 -1.06641 4.50538 -1.06641 4.79993C-1.06641 5.09449 -0.827625 5.33327 -0.533073 5.33327Z" fill="#FFDA2C"/>
<path d="M-0.533073 11.7332C-0.238521 11.7332 0.000260472 11.4944 0.000260472 11.1998C0.000260472 10.9053 -0.238521 10.6665 -0.533073 10.6665C-0.827625 10.6665 -1.06641 10.9053 -1.06641 11.1998C-1.06641 11.4944 -0.827625 11.7332 -0.533073 11.7332Z" fill="#FFDA2C"/>
</g>
<defs>
<clipPath id="clip0_1_483242">
<rect width="16" height="16" rx="8" fill="white"/>
</clipPath>
</defs>
</svg>
