<svg width="16" height="16" viewBox="0 0 16 16" fill="none" xmlns="http://www.w3.org/2000/svg">
<g clip-path="url(#clip0_1_483315)">
<rect width="16" height="16" rx="8" fill="white"/>
<path fill-rule="evenodd" clip-rule="evenodd" d="M-3.20001 10.6665H19.2V15.9998H-3.20001V10.6665Z" fill="#1A47B8"/>
<path fill-rule="evenodd" clip-rule="evenodd" d="M9.56839 7.68018C9.58972 7.78364 9.60039 7.89031 9.60039 8.00018C9.60039 8.88338 8.88359 9.60018 8.00039 9.60018C7.11719 9.60018 6.40039 8.88338 6.40039 8.00018C6.40039 7.89031 6.41106 7.78364 6.43239 7.68018C6.58172 8.16658 7.22599 8.53351 8.00039 8.53351C8.77479 8.53351 9.41906 8.16658 9.56839 7.68018Z" fill="#249F58"/>
<path d="M8.00001 7.46657C8.29456 7.46657 8.53334 7.22779 8.53334 6.93324C8.53334 6.63868 8.29456 6.3999 8.00001 6.3999C7.70546 6.3999 7.46667 6.63868 7.46667 6.93324C7.46667 7.22779 7.70546 7.46657 8.00001 7.46657Z" fill="#FFDA2C"/>
<path fill-rule="evenodd" clip-rule="evenodd" d="M-3.20001 0H19.2V5.33333H-3.20001V0Z" fill="#F93939"/>
</g>
<defs>
<clipPath id="clip0_1_483315">
<rect width="16" height="16" rx="8" fill="white"/>
</clipPath>
</defs>
</svg>
