<svg width="16" height="16" viewBox="0 0 16 16" fill="none" xmlns="http://www.w3.org/2000/svg">
<g clip-path="url(#clip0_1_483600)">
<rect width="16.0001" height="16" rx="8" fill="#F93939"/>
<path fill-rule="evenodd" clip-rule="evenodd" d="M-2.13297 0H5.33374V16H-2.13297V0Z" fill="#249F58"/>
<path d="M5.3338 10.6666C7.10112 10.6666 8.53382 9.23391 8.53382 7.4666C8.53382 5.69929 7.10112 4.2666 5.3338 4.2666C3.56648 4.2666 2.13379 5.69929 2.13379 7.4666C2.13379 9.23391 3.56648 10.6666 5.3338 10.6666Z" fill="#FFDA2C"/>
<path fill-rule="evenodd" clip-rule="evenodd" d="M7.46688 8.53301V5.33301H3.2002V8.53301C3.2002 9.12181 4.15487 9.59967 5.33354 9.59967C6.51221 9.59967 7.46688 9.12181 7.46688 8.53301Z" fill="#F93939"/>
<path fill-rule="evenodd" clip-rule="evenodd" d="M4.2666 6.40039H6.39994V8.53372H4.2666V6.40039Z" fill="white"/>
<path fill-rule="evenodd" clip-rule="evenodd" d="M4.2666 6.40039H5.33327V7.46706H4.2666V6.40039ZM5.33327 7.46706H6.39994V8.53372H5.33327V7.46706Z" fill="#1A47B8"/>
</g>
<defs>
<clipPath id="clip0_1_483600">
<rect width="16.0001" height="16" rx="8" fill="white"/>
</clipPath>
</defs>
</svg>
