<svg width="16" height="16" viewBox="0 0 16 16" fill="none" xmlns="http://www.w3.org/2000/svg">
<g clip-path="url(#clip0_1_483228)">
<rect width="16" height="16" rx="8" fill="#1A47B8"/>
<path fill-rule="evenodd" clip-rule="evenodd" d="M-1.06641 10.6665H21.3336V15.9998H-1.06641V10.6665Z" fill="#F93939"/>
<path fill-rule="evenodd" clip-rule="evenodd" d="M-1.06641 0H21.3336V5.33333H-1.06641V0ZM9.52559 10.6667H9.60026V5.33333H2.13359V10.6667H2.20826C2.15919 10.8395 2.13359 11.0187 2.13359 11.2C2.13359 12.672 5.86693 13.8667 5.86693 13.8667C5.86693 13.8667 9.60026 12.672 9.60026 11.2C9.60026 11.0187 9.57466 10.8395 9.52559 10.6667Z" fill="white"/>
<path fill-rule="evenodd" clip-rule="evenodd" d="M8.53335 10.6666V4.2666H3.20001V10.6666C3.20001 11.8453 5.86668 12.7999 5.86668 12.7999C5.86668 12.7999 8.53335 11.8453 8.53335 10.6666Z" fill="#F93939"/>
<path fill-rule="evenodd" clip-rule="evenodd" d="M5.33334 8.5335V7.46683H4.26667V6.40016H5.33334V5.3335H6.4V6.40016H7.46667V7.46683H6.4V8.5335H8V9.60016H6.4V10.6668H5.33334V9.60016H3.73334V8.5335H5.33334Z" fill="white"/>
<path fill-rule="evenodd" clip-rule="evenodd" d="M5.86668 12.8001C5.86668 12.8001 8.53335 11.8454 8.53335 10.6667C8.53335 9.48808 7.46668 9.60008 5.86668 10.6667C4.26668 9.60008 3.20001 9.48808 3.20001 10.6667C3.20001 11.8454 5.86668 12.8001 5.86668 12.8001Z" fill="#1A47B8"/>
</g>
<defs>
<clipPath id="clip0_1_483228">
<rect width="16" height="16" rx="8" fill="white"/>
</clipPath>
</defs>
</svg>
