<svg width="16" height="16" viewBox="0 0 16 16" fill="none" xmlns="http://www.w3.org/2000/svg">
<g clip-path="url(#clip0_1_483110)">
<rect width="16" height="16" rx="8" fill="white"/>
<path fill-rule="evenodd" clip-rule="evenodd" d="M-3.20001 10.6665H19.2V15.9998H-3.20001V10.6665Z" fill="#151515"/>
<path fill-rule="evenodd" clip-rule="evenodd" d="M-3.20001 0H19.2V5.33333H-3.20001V0Z" fill="#AF010D"/>
<path fill-rule="evenodd" clip-rule="evenodd" d="M3.7338 9.3335L2.1658 10.158L2.46447 8.4119L1.19727 7.17456L2.9498 6.92176L3.7338 5.3335L4.5178 6.92283L6.27033 7.17563L5.001 8.41296L5.29966 10.158L3.7338 9.3335ZM12.2671 9.3335L10.6991 10.158L10.9978 8.4119L9.7306 7.17456L11.4831 6.92176L12.2671 5.3335L13.0511 6.92283L14.8037 7.17563L13.5343 8.41296L13.833 10.158" fill="#249F58"/>
</g>
<defs>
<clipPath id="clip0_1_483110">
<rect width="16" height="16" rx="8" fill="white"/>
</clipPath>
</defs>
</svg>
