<svg width="16" height="16" viewBox="0 0 16 16" fill="none" xmlns="http://www.w3.org/2000/svg">
<rect width="16.0001" height="16" rx="8" fill="#005430"/>
<path fill-rule="evenodd" clip-rule="evenodd" d="M6.17782 5.26699C6.15782 5.08699 6.06448 5.01366 6.05115 5.05366H6.07782C6.06448 5.10699 6.02448 5.45366 6.04448 5.61366C6.06448 5.76699 6.22449 6.01366 6.40449 6.01366C6.51684 6.01782 6.58244 5.79862 6.63047 5.63813C6.65939 5.54149 6.68194 5.46614 6.70449 5.47366C6.74528 5.48726 6.73677 5.62723 6.72923 5.75105V5.75106V5.75107V5.75108V5.75109L6.72923 5.7511L6.72923 5.75117C6.72568 5.80941 6.72235 5.86408 6.72449 5.90033C6.73115 6.00699 6.89116 6.12699 7.04449 6.12033C7.12527 6.1133 7.2042 6.04521 7.27934 5.9804C7.34681 5.9222 7.41122 5.86663 7.47116 5.86033C7.5273 5.85442 7.55463 5.89697 7.58624 5.94619C7.62594 6.008 7.67239 6.08033 7.79116 6.08033C7.96865 6.08033 8.03078 5.96034 8.07352 5.87779C8.08215 5.86112 8.08999 5.84598 8.09783 5.83366C8.14449 5.76033 8.23783 5.74699 8.20449 5.80699C8.17116 5.86033 8.18449 5.96699 8.27783 5.94699C8.35052 5.93661 8.3949 5.80087 8.42673 5.70354C8.43577 5.67589 8.44379 5.65135 8.45116 5.63366C8.47783 5.55366 8.37783 5.59366 8.33783 5.63366C8.29783 5.67366 8.20449 5.64033 8.13783 5.60699C8.09003 5.58309 8.0765 5.5215 8.05793 5.43695L8.05793 5.43694C8.0506 5.40356 8.04248 5.36661 8.03116 5.32699L8.0229 5.3023C7.98237 5.18145 7.96858 5.14033 8.03116 5.14033C8.05121 5.14033 8.07185 5.14997 8.08948 5.1582C8.13048 5.17735 8.15512 5.18886 8.11783 5.05366C8.07116 4.86699 7.87116 4.74699 7.82449 4.75366C7.77783 4.76699 7.57116 4.87366 7.67116 5.10699C7.68701 5.14663 7.70691 5.19108 7.72778 5.23769C7.82973 5.46546 7.95479 5.74486 7.74449 5.76699C7.49991 5.79274 7.53496 5.29651 7.54967 5.08821L7.55116 5.06699C7.56449 4.87366 7.45116 4.66699 7.37782 4.66699C7.31994 4.67225 7.29113 4.76059 7.26517 4.8402L7.26516 4.84022L7.26516 4.84024L7.26515 4.84025L7.26515 4.84026L7.26514 4.84027L7.26514 4.84028L7.26514 4.84029C7.25822 4.8615 7.2515 4.88209 7.24449 4.90033C7.22503 4.95092 7.24874 5.0424 7.27582 5.14692C7.29513 5.22146 7.31617 5.30262 7.32449 5.38033C7.34449 5.56699 7.20449 5.80033 7.10449 5.80033C7.01116 5.80033 6.87782 5.68699 6.88449 5.50699C6.89116 5.33366 6.83782 4.96033 6.76449 4.96033C6.69115 4.96033 6.59782 5.06699 6.55115 5.15366C6.53202 5.18475 6.51118 5.26473 6.48769 5.35484C6.4457 5.51593 6.39528 5.70938 6.33115 5.71366C6.23115 5.72033 6.19782 5.44699 6.17782 5.26699ZM3.00503 4.76068C2.94107 4.77231 2.97854 4.85495 3.02013 4.94665C3.02622 4.96009 3.0324 4.97372 3.03836 4.98735C3.08503 5.09402 3.10503 5.18735 3.07836 5.24735C3.0517 5.30735 3.15836 5.24735 3.18503 5.15402C3.2117 5.05402 3.18503 4.73402 3.00503 4.76735V4.76068ZM2.76465 5.32066C2.76465 5.32066 2.76705 5.31886 2.77112 5.31814C2.74517 5.88245 2.85172 6.24739 3.01798 6.274C3.15839 6.29646 3.18997 6.03505 3.21637 5.8166L3.21637 5.8166C3.22131 5.77574 3.22606 5.73638 3.23132 5.70066C3.26465 5.474 3.33798 5.654 3.33798 5.654C3.33798 5.654 3.32465 5.974 3.32465 6.14733C3.32465 6.32066 3.44465 6.34733 3.57132 6.36733C3.69799 6.38733 3.69799 6.48066 3.69799 6.48066L3.72465 7.314C3.98465 7.234 3.91799 6.74066 3.91799 6.74066C3.91799 6.74066 3.86465 6.16733 3.94465 6.10733C4.02465 6.054 4.21799 6.24066 4.21799 6.24066C4.21799 6.24066 4.37799 6.334 4.55799 6.10066C4.68124 5.94661 4.60977 5.68212 4.56809 5.52785C4.54664 5.44847 4.53307 5.39827 4.55799 5.40733C4.62466 5.434 4.62466 5.38066 4.58466 5.294C4.54466 5.20733 4.41132 4.98066 4.27799 5.08066C4.15823 5.17521 4.28876 5.45449 4.3766 5.64243L4.39132 5.674C4.47799 5.86066 4.36466 5.92733 4.29799 5.88733C4.23799 5.84733 4.11132 5.70733 4.11132 5.70733C4.11132 5.70733 4.19132 5.68733 4.11132 5.36066C4.03132 5.034 3.89132 5.08066 3.89132 5.08066C3.89132 5.08066 3.83132 5.08066 3.81799 5.32066C3.81138 5.44284 3.86366 5.56829 3.90515 5.66785C3.94742 5.76928 3.97849 5.84384 3.92465 5.86066C3.81799 5.90066 3.79132 5.634 3.77799 5.26733C3.76465 4.90066 3.69132 4.814 3.56465 4.84733C3.43132 4.88733 3.57799 5.46066 3.59132 5.48066C3.60465 5.494 3.71799 5.96066 3.59132 5.98066C3.46465 5.994 3.49132 5.814 3.49132 5.814C3.53132 5.38066 3.41132 5.20066 3.41132 5.20066C3.41132 5.20066 3.21798 5.10733 3.13132 5.554C3.04465 6.00066 3.02465 5.94733 3.02465 5.94733C2.94501 5.96724 2.88395 5.67124 2.84702 5.49223C2.83449 5.43149 2.82474 5.38422 2.81798 5.36733C2.79931 5.32065 2.78064 5.31646 2.77112 5.31814L2.77132 5.314L2.76465 5.32066ZM4.01408 4.86729C3.9988 4.83607 3.98149 4.80072 3.9517 4.80072V4.80739C3.8917 4.80739 3.88503 5.08072 4.1117 5.09406C4.34504 5.10739 4.31837 4.80072 4.26504 4.80072C4.23837 4.80072 4.2317 4.82739 4.22504 4.85406C4.21837 4.88072 4.2117 4.90739 4.18504 4.90739C4.15748 4.90739 4.15306 4.87891 4.14879 4.85139C4.14479 4.82564 4.14092 4.80072 4.11837 4.80072C4.09308 4.80072 4.08541 4.83401 4.07838 4.86451C4.07245 4.89028 4.06697 4.91406 4.0517 4.91406C4.03698 4.91406 4.02617 4.89196 4.01408 4.86729ZM7.25834 6.1933C7.28813 6.1933 7.30544 6.22865 7.32072 6.25986C7.33281 6.28454 7.34362 6.30664 7.35834 6.30664C7.37361 6.30664 7.37909 6.28286 7.38502 6.25708C7.39205 6.22659 7.39972 6.1933 7.42501 6.1933C7.44756 6.1933 7.45143 6.21822 7.45543 6.24397C7.4597 6.27149 7.46412 6.29997 7.49168 6.29997C7.51834 6.29997 7.52501 6.2733 7.53168 6.24664C7.53834 6.21997 7.54501 6.1933 7.57168 6.1933C7.62501 6.1933 7.65168 6.49997 7.41834 6.48664C7.19167 6.4733 7.19834 6.19997 7.25834 6.19997V6.1933ZM9.2465 5.71397C9.23122 5.68275 9.21391 5.6474 9.18412 5.6474V5.65407C9.12412 5.65407 9.11746 5.9274 9.34412 5.94074C9.57746 5.95407 9.55079 5.6474 9.49746 5.6474C9.47079 5.6474 9.46412 5.67407 9.45746 5.70074C9.45079 5.7274 9.44412 5.75407 9.41746 5.75407C9.3899 5.75407 9.38548 5.72559 9.38121 5.69807C9.37721 5.67232 9.37334 5.6474 9.35079 5.6474C9.3255 5.6474 9.31783 5.68069 9.31081 5.71119C9.30487 5.73696 9.29939 5.76074 9.28412 5.76074C9.26941 5.76074 9.25859 5.73864 9.2465 5.71397ZM5.89123 6.2541C5.89123 6.2541 5.81789 6.22743 5.78456 6.2741C5.76739 6.29412 5.76496 6.33502 5.76251 6.37624C5.75925 6.43108 5.75595 6.48649 5.71789 6.4941C5.68798 6.50074 5.66303 6.46099 5.63645 6.41863C5.60972 6.37602 5.58133 6.33077 5.54456 6.32743C5.5097 6.32426 5.46731 6.37682 5.42098 6.43428L5.42097 6.43428C5.36982 6.4977 5.31386 6.5671 5.25789 6.5741C5.20751 6.58081 5.20112 6.52492 5.1944 6.4661C5.18778 6.40816 5.18084 6.34738 5.13122 6.34076C5.115 6.34076 5.09549 6.36049 5.07625 6.37995C5.04804 6.40848 5.02041 6.43643 5.00455 6.40076C4.98455 6.34076 4.87122 5.4141 4.87122 5.4141C4.87122 5.4141 5.01789 5.44743 5.04455 5.4141C5.07789 5.3741 4.85789 4.9541 4.85789 4.9541C4.85789 4.9541 4.79789 4.78743 4.69122 4.82743C4.58455 4.86743 4.58455 5.08743 4.59789 5.12076C4.61122 5.16076 4.77122 6.2541 4.77122 6.2541C4.77122 6.2541 4.83122 6.5141 4.76455 6.54076C4.73318 6.55645 4.69886 6.51751 4.65741 6.4705C4.61078 6.41761 4.55514 6.35449 4.48455 6.34743C4.35122 6.3341 4.04455 6.4341 4.05122 6.70076C4.05122 6.96743 4.17788 7.04743 4.26455 7.06076C4.3099 7.06425 4.38446 7.01845 4.44907 6.97877C4.50792 6.94262 4.55851 6.91154 4.57122 6.92743C4.59789 6.96076 4.41122 7.46076 4.03788 7.50076C3.66455 7.54076 3.62455 7.26743 3.61788 7.10743C3.61645 7.07302 3.61594 7.0417 3.61549 7.01425C3.61387 6.91407 3.61308 6.86557 3.57121 6.90743C3.55121 6.92743 3.39121 7.18743 3.43788 7.50743C3.49788 7.92743 4.05788 7.8141 4.05788 7.8141C4.05788 7.8141 4.41789 7.7941 4.61789 7.38743C4.72436 7.17094 4.74014 7.05269 4.74872 6.98844C4.75625 6.932 4.75822 6.91721 4.81122 6.9141C4.92455 6.90743 4.77122 7.3941 4.75122 7.42743C4.73789 7.46076 4.46455 8.00076 4.02455 8.0541C3.55224 8.10859 3.49792 7.9431 3.43698 7.75742L3.43698 7.75742C3.43083 7.73867 3.42461 7.71972 3.41788 7.70076C3.37996 7.5939 3.37769 7.48704 3.37605 7.40968C3.37451 7.33741 3.37352 7.29088 3.34455 7.2941C3.28455 7.2941 3.21788 7.62076 3.23121 7.76076C3.25121 7.8941 3.32455 8.36743 3.88455 8.32743C4.44455 8.28743 4.87122 7.9141 4.98455 7.56743C5.09122 7.22076 5.01122 6.86076 5.01122 6.86076C5.01122 6.86076 4.99789 6.80743 5.12456 6.88076C5.19759 6.92305 5.24403 6.88776 5.29837 6.84646C5.33828 6.81613 5.38246 6.78257 5.44456 6.7741C5.53062 6.76287 5.55368 6.78315 5.57502 6.80192C5.59171 6.8166 5.60735 6.83036 5.65122 6.82743C5.75122 6.8141 5.89789 6.7541 5.89789 6.5541V6.26076L5.89123 6.2541ZM4.33122 6.6341C4.39788 6.58743 4.46455 6.68076 4.46455 6.68076C4.33122 6.82743 4.26455 6.68076 4.33122 6.6341ZM5.39116 5.66739C5.10449 5.81405 5.10449 5.71405 5.10449 5.71405L5.7056 5.179C5.69576 5.1664 5.68059 5.14593 5.65783 5.11406C5.65116 5.10739 5.64449 5.10072 5.64449 5.09405C5.56449 4.96072 5.59116 4.83406 5.75116 4.82739C5.9245 4.82072 5.9445 4.92739 5.9245 5.01405C5.91116 5.10072 5.83783 5.06739 5.83783 5.06739C5.83783 5.06739 5.75783 4.94072 5.71116 4.98072C5.66449 5.02072 5.77783 5.09405 5.77783 5.09405C5.77783 5.09405 5.93783 5.16739 5.93783 5.21406C5.93783 5.28739 5.55116 5.58739 5.39116 5.66739ZM5.69156 5.6469C5.71527 5.63674 5.70629 5.68164 5.69608 5.73265C5.6862 5.78204 5.67517 5.83717 5.69156 5.85356C5.70893 5.87093 5.75526 5.85753 5.80037 5.84448C5.84183 5.83249 5.88227 5.82079 5.89823 5.83356C5.9249 5.86023 5.77156 6.0669 5.6849 6.0469C5.59156 6.0269 5.51156 5.94023 5.5249 5.8469C5.5449 5.75356 5.57156 5.7069 5.69156 5.6469ZM6.4449 4.67401C6.48567 4.66892 6.42906 4.74561 6.39119 4.79693L6.39119 4.79693C6.37951 4.81275 6.36962 4.82616 6.3649 4.83401C6.3606 4.84119 6.35567 4.84775 6.35086 4.85416C6.33333 4.87751 6.31732 4.89883 6.33824 4.94068C6.35253 4.96926 6.37831 4.96721 6.40223 4.9653C6.42296 4.96365 6.44229 4.96211 6.45157 4.98068C6.47824 5.02068 6.4049 5.11401 6.33157 5.09401C6.25824 5.07401 6.1849 4.96735 6.21824 4.88735C6.25157 4.80735 6.3649 4.69401 6.4449 4.68068V4.67401ZM6.9645 5.1539C6.9245 5.12723 6.9445 4.96057 6.9645 4.88723V4.88057C6.9645 4.88057 7.01783 4.68057 7.1045 4.70057C7.18087 4.71819 7.14854 4.82898 7.11697 4.93716L7.11697 4.93716C7.11271 4.95176 7.10846 4.9663 7.1045 4.98057C7.07783 5.10057 7.0045 5.18723 6.9645 5.1539ZM5.36456 6.99408C5.31123 6.99408 5.38456 7.13408 5.41789 7.19408C5.43652 7.22762 5.43849 7.30697 5.4401 7.37161C5.44136 7.42262 5.4424 7.46448 5.45123 7.46742C5.47123 7.46742 5.56456 7.38742 5.56456 7.28742C5.56456 7.18742 5.52456 7.00075 5.36456 7.00075V6.99408ZM7.85794 7.03388H8.83128L8.82461 7.04721C8.84461 7.06721 8.77794 7.16055 8.72461 7.22721C8.70041 7.25746 8.68582 7.30007 8.67211 7.34008C8.65562 7.38824 8.64041 7.43265 8.61127 7.44721C8.55794 7.47388 8.37127 7.54721 8.07794 7.55388C7.7846 7.56055 7.63794 7.68721 7.61127 7.76055C7.59295 7.81093 7.64701 7.83614 7.69345 7.8578C7.7146 7.86766 7.73417 7.87678 7.7446 7.88721C7.75033 7.89179 7.76333 7.89952 7.78044 7.90969C7.86292 7.9587 8.04076 8.06439 7.95794 8.14721C7.69912 8.40603 7.17428 7.95836 6.95835 7.77418C6.90731 7.73064 6.87352 7.70182 6.8646 7.70055C6.8246 7.68721 6.7646 7.76721 6.6846 7.88055C6.43793 8.22721 6.19126 8.32721 5.95126 8.34055C5.75939 8.35121 5.63995 8.13603 5.58614 8.03909C5.57264 8.01477 5.56327 7.99789 5.55793 7.99388C5.54592 7.98187 5.3649 8.04558 5.1677 8.11498L5.1677 8.11498C4.92702 8.19968 4.66225 8.29286 4.65126 8.26721C4.63126 8.22055 4.96459 7.99388 4.96459 7.99388C4.96459 7.99388 5.57793 7.62721 5.59793 7.55388C5.61793 7.48055 5.75793 7.22055 5.77126 7.22055C5.84459 7.22055 5.77126 7.48055 5.77126 7.48055C5.77126 7.48055 5.73126 7.50721 5.93126 7.36721C6.1246 7.22055 6.2446 7.04721 6.25126 6.90055C6.25941 6.81092 6.19288 6.74122 6.13229 6.67773C6.09372 6.63733 6.05756 6.59944 6.0446 6.56055C6.0046 6.46055 6.0046 6.29388 6.1446 6.22055C6.2846 6.14721 6.41126 6.38055 6.45126 6.48055C6.49126 6.58055 6.4646 6.60055 6.4046 6.56721C6.3446 6.53388 6.31793 6.57388 6.3446 6.59388C6.37126 6.61388 6.45793 6.82055 6.45793 7.00721C6.45793 7.18447 6.33169 7.35572 6.25617 7.45816L6.25616 7.45816L6.2446 7.47388C6.2141 7.51824 6.1444 7.57067 6.07097 7.6259L6.07097 7.62591C5.96785 7.70347 5.8574 7.78656 5.83793 7.86055C5.81126 7.98721 6.03126 8.16055 6.49126 7.71388C6.6046 7.60055 6.71127 7.42055 6.7446 7.27388C6.77793 7.12721 6.69793 6.80721 6.6046 6.56721C6.51126 6.32721 6.5246 6.14721 6.61793 6.08721C6.69834 6.03552 6.754 6.1768 6.78493 6.25529C6.78991 6.26791 6.79424 6.2789 6.79793 6.28721C6.8246 6.34055 6.89127 6.51388 6.91127 6.61388C6.93793 6.70721 6.9846 7.09388 6.9846 7.09388C6.9846 7.09388 7.0246 7.14055 7.0446 7.04055C7.05395 6.97512 7.15175 6.90969 7.23926 6.85115C7.27658 6.82619 7.31202 6.80247 7.33794 6.78055C7.4246 6.70721 7.81794 6.62721 7.81794 6.62721C7.8046 6.28055 7.9446 6.08055 8.16461 6.08055C8.38461 6.08055 8.46461 6.35388 8.46461 6.49388C8.46461 6.63388 8.30461 6.77388 8.19127 6.84721C8.12803 6.88814 8.00042 6.92283 7.89998 6.95014C7.82044 6.97177 7.75794 6.98876 7.75794 7.00055C7.75794 7.02721 7.85794 7.03388 7.85794 7.03388ZM8.18461 6.56055C8.21127 6.52055 8.13127 6.40721 8.04461 6.40721C7.99794 6.40721 8.01127 6.46055 8.04461 6.49388C8.07127 6.52721 8.16461 6.60055 8.18461 6.56055ZM7.55158 7.45301C7.58629 7.43609 7.62497 7.41724 7.67794 7.36721H7.67127C7.7246 7.32055 7.53127 7.28721 7.35127 7.26055C7.29811 7.25417 7.25376 7.24372 7.21694 7.23504C7.13831 7.21651 7.09397 7.20606 7.07127 7.26055C7.03793 7.33388 7.07127 7.51388 7.15127 7.60721C7.16937 7.62833 7.18577 7.64945 7.20138 7.66957L7.20139 7.66958C7.25478 7.73835 7.29906 7.79539 7.37127 7.80055C7.41904 7.80737 7.41267 7.77053 7.40401 7.72043C7.39574 7.67264 7.38539 7.61278 7.41794 7.56721C7.47007 7.49273 7.50765 7.47442 7.55158 7.45301ZM3.1587 6.60756C3.08536 6.65423 2.87203 6.88756 2.8587 6.94756C2.8464 7.00287 2.92477 6.9732 3.02066 6.93689L3.02066 6.93688L3.04536 6.92756C3.15203 6.88756 3.4987 6.72089 3.4987 6.72089C3.4987 6.72089 3.6587 6.67423 3.64537 6.60756C3.63203 6.54089 3.45203 6.41423 3.1587 6.60756ZM2.83824 7.68734V7.414H2.83158C2.77232 7.42882 2.73867 7.61186 2.70895 7.77352C2.69854 7.83013 2.68862 7.88411 2.67824 7.92734C2.63824 8.094 2.70491 8.274 2.87824 8.294C3.05158 8.30734 3.07158 7.96067 3.03824 7.914C3.02106 7.89338 2.97906 7.9277 2.93692 7.96213C2.89733 7.99447 2.85762 8.02692 2.83824 8.014C2.81148 7.99617 2.82053 7.90375 2.82945 7.81258C2.83386 7.76746 2.83824 7.72265 2.83824 7.68734ZM8.13105 7.92699C8.13072 7.9296 8.13073 7.93196 8.13105 7.93408V7.92699ZM8.13165 7.93679L8.13105 7.93408V7.94032L8.13165 7.93679ZM8.13165 7.93679C8.13695 7.9542 8.16645 7.95351 8.1992 7.95275C8.23507 7.95191 8.27486 7.95099 8.29105 7.97366C8.30652 7.99222 8.29758 8.01939 8.28822 8.04785C8.27741 8.08072 8.26604 8.11531 8.29105 8.14032C8.32688 8.17615 8.43736 8.14125 8.51391 8.11707C8.53706 8.10975 8.55711 8.10342 8.57105 8.10032C8.63772 8.08699 8.77772 8.04699 8.75772 7.99366C8.73862 7.94273 8.6709 7.95259 8.62419 7.95939L8.61772 7.96032C8.59621 7.96032 8.57611 7.97307 8.55548 7.98616C8.53134 8.00147 8.50647 8.01725 8.47772 8.01366C8.42438 8.00699 8.37772 7.98699 8.40438 7.93366C8.43105 7.87366 8.43772 7.80032 8.40438 7.77366C8.37147 7.74074 8.15006 7.84432 8.13165 7.93679ZM8.36437 4.83355L8.61104 5.06689V5.07355C8.64884 5.10791 8.65476 5.03426 8.66166 4.94841C8.66815 4.86768 8.6755 4.77617 8.71104 4.75355C8.77771 4.71355 8.83771 4.86689 8.83771 4.86689C8.83771 4.86689 9.09771 5.35355 9.09771 5.41355C9.09771 5.44994 9.08545 5.44219 9.06688 5.43046C9.05483 5.42285 9.04012 5.41355 9.02438 5.41355C8.99104 5.41355 8.99104 5.48022 8.99104 5.48022L9.07104 5.96022L9.72438 7.07355C9.72438 7.07355 9.74438 7.55355 9.69105 7.53355C9.60438 7.50022 9.11771 6.48689 9.11771 6.48689C9.11771 6.48689 9.19105 7.43355 9.11771 7.67355C9.05104 7.91355 8.85771 7.93355 8.85771 7.93355V6.06689C8.85771 6.06689 8.32437 5.35355 8.22437 5.21355C8.12437 5.07355 8.09771 4.85355 8.15771 4.74689C8.21771 4.64022 8.36437 4.83355 8.36437 4.83355ZM9.18469 5.00077C9.13802 4.96077 9.12469 4.8541 9.18469 4.8341C9.25802 4.80744 9.32469 4.86077 9.37802 4.92744C9.43135 4.9941 9.43135 5.1541 9.41802 5.22744C9.40469 5.30077 9.33135 5.42744 9.29135 5.40077C9.26698 5.38452 9.27726 5.35837 9.29203 5.3208C9.3015 5.29673 9.31281 5.26796 9.31802 5.2341C9.33135 5.14744 9.23135 5.04077 9.18469 5.00077ZM9.69151 4.79361C9.71818 4.76028 9.95152 5.20695 9.95152 5.23361C9.95152 5.24137 9.9566 5.25139 9.96232 5.26268C9.97627 5.29019 9.99406 5.32525 9.95152 5.35361C9.89151 5.39361 9.85818 5.43361 9.85818 5.49361C9.85818 5.52503 9.88926 5.76666 9.92078 6.01176L9.92078 6.01181L9.92079 6.01183C9.94946 6.23478 9.9785 6.46058 9.98485 6.53361C9.99818 6.68695 10.0048 7.40695 9.98485 7.53361C9.94485 7.80028 9.80485 7.99361 9.65151 8.14695C9.49818 8.30695 9.13818 8.48028 9.01151 8.23361C9.01151 8.23361 8.95818 8.21361 9.15151 8.12028C9.34485 8.02695 9.69818 7.80695 9.77151 7.61361C9.86485 7.37361 9.74485 6.56695 9.74485 6.56695C9.74485 6.56695 9.61818 5.47361 9.61818 5.40695C9.61818 5.34028 9.62485 4.89361 9.69151 4.79361ZM10.3833 5.39821C10.3466 5.3809 10.3194 5.36806 10.3315 5.4734H10.3249L10.3649 5.74673C10.3649 5.74673 10.5582 7.30006 10.5315 7.52006C10.5049 7.7334 10.3382 7.7934 10.3382 7.7934C10.3382 7.7934 10.3115 7.12006 10.2449 6.48006C10.206 6.08696 10.1389 5.70798 10.1053 5.51803L10.1053 5.518C10.0927 5.44704 10.0848 5.40246 10.0848 5.3934C10.0782 5.32673 10.0782 4.88006 10.1449 4.78006C10.1715 4.74673 10.4182 5.18673 10.4182 5.2134C10.4182 5.22122 10.4268 5.23766 10.4375 5.258L10.4375 5.258C10.4631 5.30695 10.5006 5.37847 10.4582 5.40673C10.4346 5.42242 10.407 5.40939 10.3833 5.39821ZM10.6712 5.84673C10.6179 5.88673 10.6512 6.00006 10.7379 6.13339C10.8245 6.26673 10.9979 6.36673 11.0179 6.36673C11.0379 6.36673 11.0379 6.16673 11.0379 6.06673C11.0379 5.96673 11.0712 5.92006 11.0845 5.94006C11.0979 5.95339 11.1845 5.96673 11.1979 5.94006C11.2045 5.91339 11.1445 5.75339 11.1379 5.74006C11.1312 5.72673 11.0379 5.62006 10.9979 5.68673C10.9765 5.71719 10.9691 5.76019 10.9617 5.80363V5.80364C10.9528 5.85525 10.9438 5.90748 10.9112 5.94006C10.8838 5.96443 10.8522 5.9331 10.817 5.89826C10.7753 5.85687 10.7285 5.81053 10.6779 5.84673H10.6712ZM10.8117 6.71371C10.8183 6.70038 11.2917 6.36038 11.2917 6.36038V6.36704C11.345 6.32704 11.365 6.45371 11.365 6.48704C11.365 6.52038 11.3317 6.56704 11.3317 6.56704C11.3317 6.56704 10.8983 6.87371 10.865 6.92038C10.8317 6.97371 10.7583 6.90704 10.7583 6.84704C10.7537 6.80527 10.7814 6.76349 10.7986 6.73747C10.8061 6.72612 10.8117 6.71776 10.8117 6.71371ZM11.2241 6.73335L11.2237 6.7336L11.2193 6.73335H11.2241ZM11.2237 6.7336C11.2541 6.73615 11.3841 6.76324 11.3841 7.04002C11.3841 7.35335 11.2708 7.35335 11.2575 7.35335C11.248 7.34864 11.252 7.27054 11.2551 7.20872V7.20869L11.2551 7.20866C11.2563 7.1831 11.2575 7.16033 11.2575 7.14669C11.2616 7.11792 11.2429 7.07648 11.2248 7.03643C11.2136 7.01151 11.2026 6.98714 11.1975 6.96669C11.1842 6.91348 11.1709 6.7674 11.2237 6.7336ZM12.2246 5.38673C12.1512 5.25339 12.1712 5.12673 12.2246 5.12006V5.12673C12.2846 5.12006 12.3779 5.18673 12.4046 5.46006C12.4312 5.73339 12.2979 5.79339 12.2979 5.79339C12.2979 5.79339 12.2779 5.74006 12.3046 5.64673C12.3284 5.56341 12.3043 5.52259 12.2467 5.42468L12.2246 5.38673ZM10.2048 7.35392C10.2048 7.35392 10.0781 8.01392 10.4181 8.01392C10.5448 8.01392 10.6848 7.68059 10.7114 7.61392L10.7194 7.5935C10.7536 7.50575 10.8386 7.28726 10.9181 7.28726C10.9544 7.28726 11.0082 7.34681 11.0711 7.41655C11.1587 7.51346 11.264 7.63005 11.3648 7.63392C11.5111 7.63392 11.5076 7.46204 11.5048 7.32253C11.5041 7.29045 11.5035 7.26009 11.5048 7.23392C11.5048 7.09392 11.4314 5.90726 11.4314 5.90726C11.4314 5.90726 10.9714 5.40059 10.8914 5.18726C10.8581 5.08726 10.8714 4.78726 10.8981 4.78059C10.9314 4.76726 11.2848 5.11392 11.2781 5.12059C11.2781 5.12059 11.2981 5.15392 11.2381 5.16726C11.192 5.18262 11.2049 5.20191 11.2164 5.21909C11.2199 5.22428 11.2232 5.22928 11.2248 5.23392C11.2314 5.25392 11.3248 5.32059 11.3248 5.32059L11.3048 4.88059C11.3048 4.88059 11.3048 4.78059 11.3581 4.78059C11.4181 4.78059 11.7114 5.30726 11.7114 5.30726C11.7114 5.30726 11.7048 5.39392 11.6648 5.38059L11.6497 5.37296C11.6165 5.356 11.5897 5.3423 11.5781 5.35392C11.5714 5.36726 11.6114 5.74059 11.6114 5.74059L11.9248 6.18059L11.7314 4.92059C11.7314 4.92059 11.7448 4.79392 11.8581 4.78726C11.965 4.78097 12.0304 4.98831 12.0767 5.13494L12.0848 5.16059C12.0978 5.20164 12.1104 5.23642 12.1211 5.2661C12.1486 5.34248 12.164 5.38512 12.1448 5.41392C12.1277 5.43439 12.1089 5.43042 12.0928 5.42702C12.0775 5.42378 12.0646 5.42106 12.0581 5.44059C12.0514 5.48059 12.2114 6.63392 12.2114 6.63392C12.2114 6.63392 12.5581 7.04059 12.6048 7.20059C12.6314 7.30059 12.5781 7.62726 12.5781 7.62726L12.2714 7.15392V7.47392C12.2714 7.47392 12.1114 7.72059 12.0514 7.76059C11.9914 7.80059 11.9914 6.71392 11.9914 6.69392C11.9914 6.67392 11.7648 6.35392 11.7448 6.35392C11.7248 6.35392 11.7448 7.35392 11.7448 7.35392V7.58059C11.7448 7.58059 11.6381 7.97392 11.4048 7.97392C11.2757 7.97392 11.1895 7.88009 11.1145 7.79848C11.0539 7.73257 11.0007 7.67463 10.9381 7.68059C10.8769 7.68933 10.8336 7.82537 10.7863 7.97356C10.7255 8.1645 10.6582 8.3756 10.5381 8.36059C10.3248 8.33392 10.1514 8.11392 10.1181 7.98059C10.0848 7.84726 10.0714 7.34726 10.2048 7.35392ZM11.7312 7.95372C11.7312 7.90705 11.8846 7.89372 11.8846 7.89372C11.8846 7.89372 11.9979 7.89372 11.9979 7.92705C11.9979 7.93904 11.9858 7.96045 11.9724 7.98402L11.9724 7.98403C11.9561 8.01291 11.9379 8.04503 11.9379 8.06705C11.9379 8.08647 11.9693 8.09489 12.0025 8.10376C12.0375 8.11315 12.0745 8.12305 12.0779 8.14705C12.0863 8.17654 12.0468 8.19006 12.0048 8.20443C11.9804 8.2128 11.9551 8.22145 11.9379 8.23372C11.8846 8.27372 11.7646 8.34038 11.7312 8.29372C11.7063 8.2688 11.7564 8.2051 11.7977 8.15254C11.8228 8.12071 11.8446 8.09296 11.8446 8.08038C11.8446 8.06512 11.8208 8.04705 11.795 8.02747C11.7645 8.0043 11.7312 7.97901 11.7312 7.95372ZM12.4045 8.04742L12.4018 8.04847C12.3001 8.08915 12.0518 8.18846 12.1245 8.30742C12.1578 8.36742 12.4311 8.38742 12.6311 8.24742C12.8311 8.10742 12.8911 7.87408 12.9045 7.72742C12.9311 7.46742 12.9178 6.88742 12.9045 6.69408C12.8911 6.50075 12.7978 5.60075 12.7645 5.47408C12.7334 5.35603 12.7776 5.33642 12.7946 5.3289L12.7978 5.32742C12.8027 5.32579 12.8123 5.32496 12.8241 5.32395C12.8603 5.32082 12.9162 5.31601 12.9111 5.28075C12.9111 5.23408 12.6511 4.86742 12.6511 4.86742C12.6511 4.86742 12.5978 4.78075 12.5711 4.78742C12.5445 4.78742 12.4845 4.89408 12.4911 5.06742C12.4978 5.23408 12.6845 6.88742 12.6845 6.88742C12.6845 6.88742 12.8178 7.86742 12.4111 8.04742H12.4045ZM11.2644 11.16C11.2644 11.16 11.4511 11.0866 11.5111 11.16L11.5177 11.1666C11.5229 11.1729 11.5281 11.1791 11.5334 11.1854C11.5898 11.2525 11.6511 11.3255 11.6511 11.5266C11.6511 11.6066 11.6044 11.8866 11.4377 11.8666C11.2644 11.8466 11.2844 11.74 11.2844 11.74H10.5311C10.5311 11.74 10.5711 11.8666 10.4711 11.8666C10.3777 11.8666 10.3044 11.7133 10.3044 11.6533C10.3044 11.5933 10.3311 11.46 10.3311 11.46H4.86437C4.86437 11.46 4.5777 11.5266 4.1377 11.14L10.3711 11.1666C10.3711 11.1666 10.2644 11.04 10.2711 10.9866C10.2844 10.9333 10.3111 10.8466 10.3711 10.8466C10.4003 10.8466 10.4042 10.8609 10.409 10.8786C10.4141 10.8972 10.4202 10.9196 10.4577 10.9333C10.5311 10.96 10.5644 10.9866 10.5377 11.0466C10.5111 11.1066 10.4911 11.16 10.4911 11.16H11.2644ZM11.0311 11.62H11.1644H11.1711C11.1977 11.6266 11.2911 11.6 11.2911 11.5533C11.2911 11.5066 11.2044 11.48 11.2044 11.48H10.4844C10.4311 11.48 10.4644 11.62 10.5844 11.62H10.8111C10.8111 11.62 10.8177 11.5466 10.9111 11.5533C10.9688 11.5574 10.9883 11.582 11.0026 11.6001C11.0115 11.6112 11.0184 11.62 11.0311 11.62Z" fill="#FBFBFB"/>
</svg>
