<svg width="16" height="16" viewBox="0 0 16 16" fill="none" xmlns="http://www.w3.org/2000/svg">
<rect width="16.0001" height="16" rx="8" fill="white"/>
<path fill-rule="evenodd" clip-rule="evenodd" d="M11.7333 7.99941C11.7333 10.0613 10.0618 11.7327 7.99995 11.7327C5.93808 11.7327 4.2666 10.0613 4.2666 7.99941C4.2666 6.80475 6.77328 6.30341 8.88316 6.49221C9.10716 6.43248 9.34823 6.39941 9.59996 6.39941C10.7786 6.39941 11.7333 7.11621 11.7333 7.99941Z" fill="#232C80"/>
<path fill-rule="evenodd" clip-rule="evenodd" d="M7.46643 7.4666C7.46643 7.4666 8.4211 6.39993 9.59978 6.39993C10.7784 6.39993 11.7331 7.11673 11.7331 7.99993C11.7331 5.93807 10.0616 4.2666 7.99977 4.2666C6.50963 4.2666 5.22322 5.13913 4.62482 6.40207C4.26642 7.4666 4.26642 7.77807 4.26642 7.99993C4.79975 8.53327 5.39282 8.53327 5.86643 8.53327C6.34003 8.53327 6.76563 8.3274 7.05896 7.99993L7.46643 7.4666Z" fill="#F93939"/>
<path fill-rule="evenodd" clip-rule="evenodd" d="M12.7998 5.33353H14.9331L12.7998 3.2002H11.7331L12.7998 5.33353ZM3.19975 5.33353H1.06641L3.19975 3.2002H4.26642L3.19975 5.33353ZM12.7998 10.6669H14.9331L12.7998 12.8002H11.7331L12.7998 10.6669ZM3.19975 10.6669H1.06641L3.19975 12.8002H4.26642L3.19975 10.6669Z" fill="#151515"/>
</svg>
