<svg width="16" height="16" viewBox="0 0 16 16" fill="none" xmlns="http://www.w3.org/2000/svg">
<g clip-path="url(#clip0_1_483302)">
<rect width="16" height="16" rx="8" fill="#FFDA2C"/>
<path fill-rule="evenodd" clip-rule="evenodd" d="M-3.2 11.7333V16H19.2V11.7333H-3.2ZM-3.2 0V4.26667H19.2V0H-3.2Z" fill="#00B731"/>
<path fill-rule="evenodd" clip-rule="evenodd" d="M-3.2 0V16.0352L4.26667 8L-3.2 0Z" fill="#F93939"/>
<path fill-rule="evenodd" clip-rule="evenodd" d="M6.93328 8.98137L5.71194 9.62457L5.94661 8.26457L4.95781 7.30137L6.32314 7.10403L6.93328 5.8667L7.54341 7.10403L8.90874 7.30137L7.92101 8.26457L8.15568 9.62457L6.93328 8.98137ZM13.3333 8.98137L12.1119 9.62457L12.3466 8.26457L11.3578 7.30137L12.7231 7.10403L13.3333 5.8667L13.9434 7.10403L15.3087 7.30137L14.321 8.26457L14.5557 9.62457" fill="#151515"/>
</g>
<defs>
<clipPath id="clip0_1_483302">
<rect width="16" height="16" rx="8" fill="white"/>
</clipPath>
</defs>
</svg>
