<svg width="16" height="16" viewBox="0 0 16 16" fill="none" xmlns="http://www.w3.org/2000/svg">
<g clip-path="url(#clip0_1_483234)">
<rect width="16" height="16" rx="8" fill="#1A47B8"/>
<path fill-rule="evenodd" clip-rule="evenodd" d="M0 10.6665H22.4V15.9998H0V10.6665Z" fill="white"/>
<path fill-rule="evenodd" clip-rule="evenodd" d="M0 0H22.4V5.33333H0V0ZM8.53333 10.6667V5.33333H4.26667V10.6667C4.26667 11.8453 5.22133 12.8 6.4 12.8C7.57867 12.8 8.53333 11.8453 8.53333 10.6667Z" fill="#F93939"/>
<path fill-rule="evenodd" clip-rule="evenodd" d="M5.33333 5.33353L4.26666 4.26686C4.26666 4.26686 5.33333 3.2002 6.4 3.2002C7.46666 3.2002 8.53333 4.26686 8.53333 4.26686L7.46666 5.33353H5.33333Z" fill="#FFDA2C"/>
<path fill-rule="evenodd" clip-rule="evenodd" d="M5.33333 6.3999L4.26666 7.46657L6.4 8.53324L5.33333 10.6666L6.4 12.7999L7.46666 10.6666L6.4 8.53324L8.53333 7.46657L7.46666 6.3999L6.4 7.46657L5.33333 6.3999Z" fill="white"/>
<path fill-rule="evenodd" clip-rule="evenodd" d="M5.33333 6.3999H4.26666V7.46657L5.33333 6.3999ZM7.46666 6.3999H8.53333V7.46657L7.46666 6.3999Z" fill="#FFDA2C"/>
<path fill-rule="evenodd" clip-rule="evenodd" d="M6.39967 3.2002L5.33301 4.26686L6.39967 5.33353L7.46634 4.26686L6.39967 3.2002Z" fill="#A75835"/>
<path fill-rule="evenodd" clip-rule="evenodd" d="M6.4 8.5332L4.26666 9.59987H8.53333L6.4 8.5332Z" fill="#88605F"/>
</g>
<defs>
<clipPath id="clip0_1_483234">
<rect width="16" height="16" rx="8" fill="white"/>
</clipPath>
</defs>
</svg>
