<svg width="16" height="16" viewBox="0 0 16 16" fill="none" xmlns="http://www.w3.org/2000/svg">
<g clip-path="url(#clip0_1_483077)">
<rect width="16" height="16" rx="8" fill="#1A47B8"/>
<path fill-rule="evenodd" clip-rule="evenodd" d="M0 10.6665H22.4V15.9998H0V10.6665Z" fill="#F93939"/>
<path fill-rule="evenodd" clip-rule="evenodd" d="M0 0H22.4V5.33333H0V0Z" fill="white"/>
<path d="M6.93334 3.2002H4.8C4.2109 3.2002 3.73334 3.67776 3.73334 4.26686V6.93353C3.73334 7.52263 4.2109 8.0002 4.8 8.0002H6.93334C7.52244 8.0002 8 7.52263 8 6.93353V4.26686C8 3.67776 7.52244 3.2002 6.93334 3.2002Z" fill="#F93939"/>
<path d="M6.4 3.2002H5.33333C4.74423 3.2002 4.26666 3.67776 4.26666 4.26686V6.4002C4.26666 6.9893 4.74423 7.46686 5.33333 7.46686H6.4C6.9891 7.46686 7.46666 6.9893 7.46666 6.4002V4.26686C7.46666 3.67776 6.9891 3.2002 6.4 3.2002Z" fill="#1A47B8"/>
<path fill-rule="evenodd" clip-rule="evenodd" d="M5.33301 4.2666H6.39967V5.33327H5.33301V4.2666Z" fill="#FFDA2C"/>
<path fill-rule="evenodd" clip-rule="evenodd" d="M4.26666 6.40003L5.86666 5.8667L7.46666 6.40003L6.4 7.4667H5.33333L4.26666 6.40003Z" fill="white"/>
</g>
<defs>
<clipPath id="clip0_1_483077">
<rect width="16" height="16" rx="8" fill="white"/>
</clipPath>
</defs>
</svg>
