<svg width="16" height="16" viewBox="0 0 16 16" fill="none" xmlns="http://www.w3.org/2000/svg">
<g clip-path="url(#clip0_1_483522)">
<rect width="16.0001" height="16" rx="8" fill="#005430"/>
<path fill-rule="evenodd" clip-rule="evenodd" d="M6.17809 5.26602C6.15809 5.08602 6.06475 5.01268 6.05142 5.05268H6.07809C6.06475 5.10602 6.02475 5.45268 6.04475 5.61268C6.06475 5.76602 6.22475 6.01268 6.40475 6.01268C6.51711 6.01684 6.58271 5.79764 6.63074 5.63715C6.65966 5.54052 6.68221 5.46517 6.70476 5.47268C6.74555 5.48628 6.73704 5.62625 6.7295 5.75008V5.75008V5.75009V5.7501V5.75011L6.7295 5.75012L6.72949 5.75019C6.72595 5.80844 6.72262 5.8631 6.72476 5.89935C6.73142 6.00602 6.89142 6.12602 7.04476 6.11935C7.12554 6.11232 7.20447 6.04424 7.2796 5.97943C7.34708 5.92122 7.41149 5.86566 7.47143 5.85935C7.52757 5.85344 7.5549 5.89599 7.58651 5.94521C7.62621 6.00703 7.67266 6.07935 7.79143 6.07935C7.96892 6.07935 8.03104 5.95936 8.07379 5.87681C8.08242 5.86014 8.09026 5.845 8.0981 5.83268C8.14476 5.75935 8.2381 5.74602 8.20476 5.80602C8.17143 5.85935 8.18476 5.96602 8.2781 5.94602C8.35079 5.93563 8.39517 5.79989 8.427 5.70256C8.43603 5.67492 8.44406 5.65038 8.45143 5.63268C8.4781 5.55268 8.3781 5.59268 8.3381 5.63268C8.2981 5.67268 8.20476 5.63935 8.1381 5.60602C8.0903 5.58212 8.07677 5.52052 8.0582 5.43598L8.0582 5.43596C8.05087 5.40258 8.04275 5.36564 8.03143 5.32602L8.02317 5.30133C7.98264 5.18047 7.96885 5.13935 8.03143 5.13935C8.05147 5.13935 8.07212 5.14899 8.08975 5.15722C8.13074 5.17637 8.15539 5.18788 8.1181 5.05268C8.07143 4.86602 7.87143 4.74602 7.82476 4.75268C7.77809 4.76602 7.57143 4.87268 7.67143 5.10602C7.68728 5.14566 7.70718 5.1901 7.72804 5.23672C7.83 5.46448 7.95506 5.74388 7.74476 5.76602C7.50018 5.79176 7.53523 5.29553 7.54994 5.08723L7.55143 5.06602C7.56476 4.87268 7.45143 4.66602 7.37809 4.66602C7.32021 4.67128 7.2914 4.75961 7.26544 4.83922L7.26543 4.83924L7.26542 4.83926L7.26542 4.83927L7.26542 4.83929L7.26541 4.8393L7.26541 4.83931L7.26541 4.83931C7.25849 4.86053 7.25177 4.88112 7.24476 4.89935C7.2253 4.94994 7.249 5.04142 7.27609 5.14595C7.2954 5.22048 7.31643 5.30165 7.32476 5.37935C7.34476 5.56602 7.20476 5.79935 7.10476 5.79935C7.01142 5.79935 6.87809 5.68602 6.88476 5.50602C6.89142 5.33268 6.83809 4.95935 6.76476 4.95935C6.69142 4.95935 6.59809 5.06602 6.55142 5.15268C6.53229 5.18377 6.51144 5.26375 6.48796 5.35386C6.44597 5.51496 6.39555 5.70841 6.33142 5.71268C6.23142 5.71935 6.19809 5.44602 6.17809 5.26602ZM3.00503 4.75977C2.94107 4.7714 2.97854 4.85403 3.02013 4.94574C3.02622 4.95917 3.0324 4.9728 3.03836 4.98643C3.08503 5.0931 3.10503 5.18643 3.07836 5.24643C3.0517 5.30643 3.15836 5.24643 3.18503 5.1531C3.2117 5.0531 3.18503 4.7331 3.00503 4.76643V4.75977ZM2.76465 5.31974C2.76465 5.31974 2.76705 5.31795 2.77112 5.31722C2.74517 5.88153 2.85172 6.24647 3.01798 6.27308C3.15839 6.29554 3.18997 6.03414 3.21637 5.81568L3.21637 5.81568C3.22131 5.77482 3.22606 5.73546 3.23132 5.69974C3.26465 5.47308 3.33798 5.65308 3.33798 5.65308C3.33798 5.65308 3.32465 5.97308 3.32465 6.14641C3.32465 6.31974 3.44465 6.34641 3.57132 6.36641C3.69799 6.38641 3.69799 6.47974 3.69799 6.47974L3.72465 7.31308C3.98465 7.23308 3.91799 6.73974 3.91799 6.73974C3.91799 6.73974 3.86465 6.16641 3.94465 6.10641C4.02465 6.05308 4.21799 6.23974 4.21799 6.23974C4.21799 6.23974 4.37799 6.33308 4.55799 6.09974C4.68124 5.94569 4.60977 5.6812 4.56809 5.52693C4.54664 5.44755 4.53307 5.39735 4.55799 5.40641C4.62466 5.43308 4.62466 5.37974 4.58466 5.29308C4.54466 5.20641 4.41132 4.97974 4.27799 5.07974C4.15823 5.17429 4.28876 5.45357 4.3766 5.64151L4.39132 5.67308C4.47799 5.85974 4.36466 5.92641 4.29799 5.88641C4.23799 5.84641 4.11132 5.70641 4.11132 5.70641C4.11132 5.70641 4.19132 5.68641 4.11132 5.35974C4.03132 5.03308 3.89132 5.07974 3.89132 5.07974C3.89132 5.07974 3.83132 5.07974 3.81799 5.31974C3.81138 5.44192 3.86366 5.56737 3.90515 5.66693C3.94742 5.76836 3.97849 5.84292 3.92465 5.85974C3.81799 5.89974 3.79132 5.63308 3.77799 5.26641C3.76465 4.89974 3.69132 4.81308 3.56465 4.84641C3.43132 4.88641 3.57799 5.45974 3.59132 5.47974C3.60465 5.49308 3.71799 5.95974 3.59132 5.97974C3.46465 5.99308 3.49132 5.81308 3.49132 5.81308C3.53132 5.37974 3.41132 5.19974 3.41132 5.19974C3.41132 5.19974 3.21798 5.10641 3.13132 5.55308C3.04465 5.99974 3.02465 5.94641 3.02465 5.94641C2.94501 5.96632 2.88395 5.67032 2.84702 5.49131C2.83449 5.43057 2.82474 5.3833 2.81798 5.36641C2.79931 5.31973 2.78064 5.31554 2.77112 5.31722L2.77132 5.31308L2.76465 5.31974ZM4.01408 4.86637C3.9988 4.83515 3.98149 4.7998 3.9517 4.7998V4.80647C3.8917 4.80647 3.88503 5.0798 4.1117 5.09314C4.34504 5.10647 4.31837 4.7998 4.26504 4.7998C4.23837 4.7998 4.2317 4.82647 4.22504 4.85314C4.21837 4.8798 4.2117 4.90647 4.18504 4.90647C4.15748 4.90647 4.15306 4.878 4.14879 4.85047C4.14479 4.82472 4.14092 4.7998 4.11837 4.7998C4.09308 4.7998 4.08541 4.83309 4.07838 4.86359C4.07245 4.88936 4.06697 4.91314 4.0517 4.91314C4.03698 4.91314 4.02617 4.89104 4.01408 4.86637ZM7.25834 6.19238C7.28813 6.19238 7.30544 6.22773 7.32072 6.25895C7.33281 6.28362 7.34362 6.30572 7.35834 6.30572C7.37361 6.30572 7.37909 6.28194 7.38502 6.25617C7.39205 6.22567 7.39972 6.19238 7.42501 6.19238C7.44756 6.19238 7.45143 6.2173 7.45543 6.24305C7.4597 6.27057 7.46412 6.29905 7.49168 6.29905C7.51834 6.29905 7.52501 6.27238 7.53168 6.24572C7.53834 6.21905 7.54501 6.19238 7.57168 6.19238C7.62501 6.19238 7.65168 6.49905 7.41834 6.48572C7.19167 6.47238 7.19834 6.19905 7.25834 6.19905V6.19238ZM9.24748 5.71305C9.23219 5.68183 9.21489 5.64648 9.1851 5.64648V5.65315C9.1251 5.65315 9.11843 5.92648 9.3451 5.93982C9.57843 5.95315 9.55177 5.64648 9.49843 5.64648C9.47177 5.64648 9.4651 5.67315 9.45843 5.69982C9.45177 5.72648 9.4451 5.75315 9.41843 5.75315C9.39088 5.75315 9.38646 5.72468 9.38218 5.69715C9.37819 5.6714 9.37432 5.64648 9.35177 5.64648C9.32648 5.64648 9.31881 5.67977 9.31178 5.71027C9.30584 5.73604 9.30037 5.75982 9.2851 5.75982C9.27038 5.75982 9.25956 5.73772 9.24748 5.71305ZM5.89123 6.25318C5.89123 6.25318 5.81789 6.22651 5.78456 6.27318C5.76739 6.2932 5.76496 6.3341 5.76251 6.37532C5.75925 6.43016 5.75595 6.48557 5.71789 6.49318C5.68798 6.49983 5.66303 6.46007 5.63645 6.41771C5.60972 6.3751 5.58133 6.32985 5.54456 6.32651C5.5097 6.32334 5.46731 6.3759 5.42098 6.43336L5.42097 6.43336C5.36982 6.49679 5.31386 6.56618 5.25789 6.57318C5.20751 6.5799 5.20112 6.524 5.1944 6.46518C5.18778 6.40724 5.18084 6.34646 5.13122 6.33984C5.115 6.33984 5.09549 6.35957 5.07625 6.37903C5.04804 6.40757 5.02041 6.43552 5.00455 6.39984C4.98455 6.33984 4.87122 5.41318 4.87122 5.41318C4.87122 5.41318 5.01789 5.44651 5.04455 5.41318C5.07789 5.37318 4.85789 4.95318 4.85789 4.95318C4.85789 4.95318 4.79789 4.78651 4.69122 4.82651C4.58455 4.86651 4.58455 5.08651 4.59789 5.11984C4.61122 5.15984 4.77122 6.25318 4.77122 6.25318C4.77122 6.25318 4.83122 6.51318 4.76455 6.53984C4.73318 6.55553 4.69886 6.51659 4.65741 6.46958C4.61078 6.41669 4.55514 6.35357 4.48455 6.34651C4.35122 6.33318 4.04455 6.43318 4.05122 6.69984C4.05122 6.96651 4.17788 7.04651 4.26455 7.05984C4.3099 7.06333 4.38446 7.01753 4.44907 6.97785C4.50792 6.9417 4.55851 6.91062 4.57122 6.92651C4.59789 6.95984 4.41122 7.45984 4.03788 7.49984C3.66455 7.53984 3.62455 7.26651 3.61788 7.10651C3.61645 7.0721 3.61594 7.04078 3.61549 7.01333C3.61387 6.91315 3.61308 6.86465 3.57121 6.90651C3.55121 6.92651 3.39121 7.18651 3.43788 7.50651C3.49788 7.92651 4.05788 7.81318 4.05788 7.81318C4.05788 7.81318 4.41789 7.79318 4.61789 7.38651C4.72436 7.17002 4.74014 7.05177 4.74872 6.98752C4.75625 6.93108 4.75822 6.9163 4.81122 6.91318C4.92455 6.90651 4.77122 7.39318 4.75122 7.42651C4.73789 7.45984 4.46455 7.99984 4.02455 8.05318C3.55224 8.10768 3.49792 7.94218 3.43698 7.7565L3.43698 7.7565C3.43083 7.73775 3.42461 7.7188 3.41788 7.69984C3.37996 7.59298 3.37769 7.48613 3.37605 7.40876C3.37451 7.33649 3.37352 7.28996 3.34455 7.29318C3.28455 7.29318 3.21788 7.61984 3.23121 7.75984C3.25121 7.89318 3.32455 8.36651 3.88455 8.32651C4.44455 8.28651 4.87122 7.91318 4.98455 7.56651C5.09122 7.21984 5.01122 6.85984 5.01122 6.85984C5.01122 6.85984 4.99789 6.80651 5.12456 6.87984C5.19759 6.92213 5.24403 6.88684 5.29837 6.84554C5.33828 6.81521 5.38246 6.78165 5.44456 6.77318C5.53062 6.76195 5.55368 6.78223 5.57502 6.801C5.59171 6.81568 5.60735 6.82944 5.65122 6.82651C5.75122 6.81318 5.89789 6.75318 5.89789 6.55318V6.25984L5.89123 6.25318ZM4.33122 6.63318C4.39788 6.58651 4.46455 6.67984 4.46455 6.67984C4.33122 6.82651 4.26455 6.67984 4.33122 6.63318ZM5.39116 5.66647C5.10449 5.81314 5.10449 5.71314 5.10449 5.71314L5.7056 5.17808C5.69576 5.16548 5.68059 5.14501 5.65783 5.11314C5.65116 5.10647 5.64449 5.0998 5.64449 5.09314C5.56449 4.9598 5.59116 4.83314 5.75116 4.82647C5.9245 4.8198 5.9445 4.92647 5.9245 5.01314C5.91116 5.0998 5.83783 5.06647 5.83783 5.06647C5.83783 5.06647 5.75783 4.9398 5.71116 4.9798C5.66449 5.0198 5.77783 5.09314 5.77783 5.09314C5.77783 5.09314 5.93783 5.16647 5.93783 5.21314C5.93783 5.28647 5.55116 5.58647 5.39116 5.66647ZM5.69156 5.64598C5.71527 5.63582 5.70629 5.68072 5.69608 5.73173C5.6862 5.78113 5.67517 5.83625 5.69156 5.85265C5.70893 5.87001 5.75526 5.85661 5.80037 5.84356C5.84183 5.83157 5.88227 5.81987 5.89823 5.83265C5.9249 5.85931 5.77156 6.06598 5.6849 6.04598C5.59156 6.02598 5.51156 5.93931 5.5249 5.84598C5.5449 5.75265 5.57156 5.70598 5.69156 5.64598ZM6.4449 4.67309C6.48567 4.668 6.42906 4.74469 6.39119 4.79601L6.39119 4.79601C6.37951 4.81183 6.36962 4.82524 6.3649 4.83309C6.3606 4.84027 6.35567 4.84684 6.35086 4.85324C6.33333 4.87659 6.31732 4.89791 6.33824 4.93976C6.35253 4.96834 6.37831 4.96629 6.40223 4.96438C6.42296 4.96273 6.44229 4.9612 6.45157 4.97976C6.47824 5.01976 6.4049 5.11309 6.33157 5.09309C6.25824 5.07309 6.1849 4.96643 6.21824 4.88643C6.25157 4.80643 6.3649 4.69309 6.4449 4.67976V4.67309ZM6.9645 5.15298C6.9245 5.12631 6.9445 4.95965 6.9645 4.88631V4.87965C6.9645 4.87965 7.01783 4.67965 7.1045 4.69965C7.18087 4.71727 7.14854 4.82806 7.11697 4.93624L7.11697 4.93624C7.11271 4.95084 7.10846 4.96538 7.1045 4.97965C7.07783 5.09965 7.0045 5.18631 6.9645 5.15298ZM5.36456 6.99316C5.31123 6.99316 5.38456 7.13316 5.41789 7.19316C5.43652 7.2267 5.43849 7.30605 5.4401 7.37069C5.44136 7.4217 5.4424 7.46356 5.45123 7.4665C5.47123 7.4665 5.56456 7.3865 5.56456 7.2865C5.56456 7.1865 5.52456 6.99983 5.36456 6.99983V6.99316ZM7.85794 7.03296H8.83128L8.82461 7.04629C8.84461 7.06629 8.77794 7.15963 8.72461 7.22629C8.70041 7.25655 8.68582 7.29915 8.67211 7.33916C8.65562 7.38732 8.64041 7.43173 8.61127 7.44629C8.55794 7.47296 8.37127 7.54629 8.07794 7.55296C7.7846 7.55963 7.63794 7.68629 7.61127 7.75963C7.59295 7.81001 7.64701 7.83522 7.69345 7.85688C7.7146 7.86674 7.73417 7.87586 7.7446 7.88629C7.75033 7.89088 7.76333 7.8986 7.78044 7.90877C7.86292 7.95778 8.04076 8.06347 7.95794 8.14629C7.69912 8.40511 7.17428 7.95744 6.95835 7.77326C6.90731 7.72972 6.87352 7.7009 6.8646 7.69963C6.8246 7.68629 6.7646 7.76629 6.6846 7.87963C6.43793 8.22629 6.19126 8.32629 5.95126 8.33963C5.75939 8.35029 5.63995 8.13511 5.58614 8.03817C5.57264 8.01385 5.56327 7.99697 5.55793 7.99296C5.54592 7.98095 5.3649 8.04466 5.1677 8.11406L5.1677 8.11406C4.92702 8.19876 4.66225 8.29194 4.65126 8.26629C4.63126 8.21963 4.96459 7.99296 4.96459 7.99296C4.96459 7.99296 5.57793 7.62629 5.59793 7.55296C5.61793 7.47963 5.75793 7.21963 5.77126 7.21963C5.84459 7.21963 5.77126 7.47963 5.77126 7.47963C5.77126 7.47963 5.73126 7.50629 5.93126 7.36629C6.1246 7.21963 6.2446 7.04629 6.25126 6.89963C6.25941 6.81 6.19288 6.7403 6.13229 6.67681C6.09372 6.63641 6.05756 6.59852 6.0446 6.55963C6.0046 6.45963 6.0046 6.29296 6.1446 6.21963C6.2846 6.14629 6.41126 6.37963 6.45126 6.47963C6.49126 6.57963 6.4646 6.59963 6.4046 6.56629C6.3446 6.53296 6.31793 6.57296 6.3446 6.59296C6.37126 6.61296 6.45793 6.81963 6.45793 7.00629C6.45793 7.18355 6.33169 7.3548 6.25617 7.45724L6.25616 7.45724L6.2446 7.47296C6.2141 7.51732 6.1444 7.56976 6.07097 7.62498L6.07097 7.62499C5.96785 7.70256 5.8574 7.78564 5.83793 7.85963C5.81126 7.98629 6.03126 8.15963 6.49126 7.71296C6.6046 7.59963 6.71127 7.41963 6.7446 7.27296C6.77793 7.12629 6.69793 6.80629 6.6046 6.56629C6.51126 6.32629 6.5246 6.14629 6.61793 6.08629C6.69834 6.03461 6.754 6.17588 6.78493 6.25437C6.78991 6.26699 6.79424 6.27798 6.79793 6.28629C6.8246 6.33963 6.89127 6.51296 6.91127 6.61296C6.93793 6.70629 6.9846 7.09296 6.9846 7.09296C6.9846 7.09296 7.0246 7.13963 7.0446 7.03963C7.05395 6.9742 7.15175 6.90877 7.23926 6.85023C7.27658 6.82527 7.31202 6.80155 7.33794 6.77963C7.4246 6.70629 7.81794 6.62629 7.81794 6.62629C7.8046 6.27963 7.9446 6.07963 8.16461 6.07963C8.38461 6.07963 8.46461 6.35296 8.46461 6.49296C8.46461 6.63296 8.30461 6.77296 8.19127 6.84629C8.12803 6.88722 8.00042 6.92191 7.89998 6.94922C7.82044 6.97085 7.75794 6.98784 7.75794 6.99963C7.75794 7.02629 7.85794 7.03296 7.85794 7.03296ZM8.18461 6.55963C8.21127 6.51963 8.13127 6.40629 8.04461 6.40629C7.99794 6.40629 8.01127 6.45963 8.04461 6.49296C8.07127 6.52629 8.16461 6.59963 8.18461 6.55963ZM7.55158 7.45209C7.58629 7.43517 7.62497 7.41632 7.67794 7.36629H7.67127C7.7246 7.31963 7.53127 7.28629 7.35127 7.25963C7.29811 7.25325 7.25376 7.2428 7.21694 7.23412C7.13831 7.2156 7.09397 7.20515 7.07127 7.25963C7.03793 7.33296 7.07127 7.51296 7.15127 7.60629C7.16937 7.62741 7.18577 7.64853 7.20138 7.66865L7.20139 7.66866C7.25478 7.73744 7.29906 7.79447 7.37127 7.79963C7.41904 7.80645 7.41267 7.76961 7.40401 7.71951C7.39574 7.67172 7.38539 7.61186 7.41794 7.56629C7.47007 7.49181 7.50765 7.4735 7.55158 7.45209ZM3.15772 6.60567C3.08439 6.65233 2.87105 6.88567 2.85772 6.94567C2.84543 7.00098 2.92379 6.9713 3.01968 6.93499L3.01968 6.93499L3.04439 6.92567C3.15105 6.88567 3.49772 6.719 3.49772 6.719C3.49772 6.719 3.65772 6.67233 3.64439 6.60567C3.63106 6.539 3.45106 6.41233 3.15772 6.60567ZM2.83824 7.68642V7.41309H2.83158C2.77232 7.4279 2.73867 7.61094 2.70895 7.7726C2.69854 7.82921 2.68862 7.88319 2.67824 7.92642C2.63824 8.09309 2.70491 8.27309 2.87824 8.29309C3.05158 8.30642 3.07158 7.95975 3.03824 7.91309C3.02106 7.89246 2.97906 7.92678 2.93692 7.96121C2.89733 7.99356 2.85762 8.026 2.83824 8.01309C2.81148 7.99525 2.82053 7.90283 2.82945 7.81166C2.83386 7.76654 2.83824 7.72173 2.83824 7.68642ZM8.13131 7.92601C8.13098 7.92863 8.13099 7.93098 8.13131 7.93311V7.92601ZM8.13192 7.93581L8.13131 7.93311V7.93935L8.13192 7.93581ZM8.13192 7.93581C8.13722 7.95322 8.16671 7.95254 8.19946 7.95177C8.23533 7.95094 8.27512 7.95001 8.29131 7.97268C8.30678 7.99124 8.29784 8.01842 8.28848 8.04688C8.27767 8.07975 8.2663 8.11433 8.29131 8.13935C8.32714 8.17517 8.43763 8.14027 8.51417 8.11609C8.53733 8.10878 8.55738 8.10244 8.57131 8.09935C8.63798 8.08601 8.77798 8.04601 8.75798 7.99268C8.73888 7.94175 8.67116 7.95161 8.62446 7.95841L8.61798 7.95935C8.59647 7.95935 8.57638 7.97209 8.55574 7.98518C8.53161 8.00049 8.50673 8.01627 8.47798 8.01268C8.42465 8.00601 8.37798 7.98601 8.40465 7.93268C8.43131 7.87268 8.43798 7.79935 8.40465 7.77268C8.37173 7.73977 8.15033 7.84335 8.13192 7.93581ZM8.3646 4.83268L8.61127 5.06601V5.07268C8.64907 5.10704 8.65499 5.03338 8.66189 4.94753C8.66838 4.8668 8.67573 4.77529 8.71127 4.75268C8.77794 4.71268 8.83794 4.86601 8.83794 4.86601C8.83794 4.86601 9.09794 5.35268 9.09794 5.41268C9.09794 5.44906 9.08568 5.44132 9.06711 5.42959C9.05506 5.42197 9.04035 5.41268 9.02461 5.41268C8.99127 5.41268 8.99127 5.47935 8.99127 5.47935L9.07127 5.95935L9.72461 7.07268C9.72461 7.07268 9.74461 7.55268 9.69128 7.53268C9.60461 7.49935 9.11794 6.48601 9.11794 6.48601C9.11794 6.48601 9.19127 7.43268 9.11794 7.67268C9.05127 7.91268 8.85794 7.93268 8.85794 7.93268V6.06601C8.85794 6.06601 8.3246 5.35268 8.2246 5.21268C8.1246 5.07268 8.09794 4.85268 8.15794 4.74601C8.21794 4.63935 8.3646 4.83268 8.3646 4.83268ZM9.18469 4.99985C9.13802 4.95985 9.12469 4.85318 9.18469 4.83318C9.25802 4.80652 9.32469 4.85985 9.37802 4.92652C9.43135 4.99318 9.43135 5.15318 9.41802 5.22652C9.40469 5.29985 9.33135 5.42652 9.29135 5.39985C9.26698 5.3836 9.27726 5.35745 9.29203 5.31989C9.3015 5.29581 9.31281 5.26704 9.31802 5.23318C9.33135 5.14652 9.23135 5.03985 9.18469 4.99985ZM9.69151 4.79263C9.71818 4.7593 9.95152 5.20596 9.95152 5.23263C9.95152 5.24039 9.9566 5.25041 9.96232 5.2617C9.97627 5.28921 9.99406 5.32427 9.95152 5.35263C9.89152 5.39263 9.85818 5.43263 9.85818 5.49263C9.85818 5.52405 9.88926 5.76568 9.92078 6.01077L9.92078 6.01083L9.92079 6.01085C9.94946 6.2338 9.9785 6.45959 9.98485 6.53263C9.99818 6.68596 10.0048 7.40596 9.98485 7.53263C9.94485 7.7993 9.80485 7.99263 9.65151 8.14596C9.49818 8.30596 9.13818 8.4793 9.01151 8.23263C9.01151 8.23263 8.95818 8.21263 9.15151 8.1193C9.34485 8.02596 9.69818 7.80596 9.77151 7.61263C9.86485 7.37263 9.74485 6.56596 9.74485 6.56596C9.74485 6.56596 9.61818 5.47263 9.61818 5.40596C9.61818 5.3393 9.62485 4.89263 9.69151 4.79263ZM10.3833 5.3973C10.3466 5.37999 10.3194 5.36714 10.3315 5.47248H10.3249L10.3649 5.74581C10.3649 5.74581 10.5582 7.29914 10.5315 7.51914C10.5049 7.73248 10.3382 7.79248 10.3382 7.79248C10.3382 7.79248 10.3115 7.11914 10.2449 6.47914C10.206 6.08604 10.1389 5.70706 10.1053 5.51711L10.1053 5.51708C10.0927 5.44612 10.0848 5.40154 10.0848 5.39248C10.0782 5.32581 10.0782 4.87915 10.1449 4.77915C10.1715 4.74581 10.4182 5.18581 10.4182 5.21248C10.4182 5.2203 10.4268 5.23674 10.4375 5.25708L10.4375 5.25708C10.4631 5.30603 10.5006 5.37755 10.4582 5.40581C10.4346 5.4215 10.407 5.40847 10.3833 5.3973ZM10.6714 5.84597C10.6181 5.88597 10.6514 5.9993 10.7381 6.13264C10.8247 6.26597 10.9981 6.36597 11.0181 6.36597C11.0381 6.36597 11.0381 6.16597 11.0381 6.06597C11.0381 5.96597 11.0714 5.9193 11.0848 5.9393C11.0981 5.95264 11.1848 5.96597 11.1981 5.9393C11.2048 5.91264 11.1447 5.75264 11.1381 5.7393C11.1314 5.72597 11.0381 5.6193 10.9981 5.68597C10.9768 5.71644 10.9694 5.75944 10.9619 5.80288V5.80289C10.953 5.85449 10.944 5.90673 10.9114 5.9393C10.884 5.96368 10.8524 5.93235 10.8172 5.89751C10.7755 5.85612 10.7288 5.80977 10.6781 5.84597H10.6714ZM10.8117 6.71279C10.8183 6.69946 11.2917 6.35946 11.2917 6.35946V6.36613C11.345 6.32613 11.365 6.45279 11.365 6.48613C11.365 6.51946 11.3317 6.56613 11.3317 6.56613C11.3317 6.56613 10.8983 6.87279 10.865 6.91946C10.8317 6.97279 10.7583 6.90613 10.7583 6.84613C10.7537 6.80435 10.7814 6.76257 10.7986 6.73655C10.8061 6.7252 10.8117 6.71684 10.8117 6.71279ZM11.2251 6.73243L11.2247 6.73268L11.2202 6.73243H11.2251ZM11.2247 6.73268C11.2551 6.73523 11.3851 6.76232 11.3851 7.0391C11.3851 7.35243 11.2718 7.35243 11.2584 7.35243C11.249 7.34772 11.2529 7.26962 11.256 7.2078V7.20777L11.256 7.20774C11.2573 7.18218 11.2584 7.15941 11.2584 7.14577C11.2626 7.117 11.2439 7.07556 11.2258 7.03551C11.2146 7.0106 11.2036 6.98622 11.1984 6.96577C11.1851 6.91256 11.1718 6.76648 11.2247 6.73268ZM12.2248 5.38605C12.1514 5.25271 12.1714 5.12605 12.2248 5.11938V5.12605C12.2848 5.11938 12.3781 5.18605 12.4048 5.45938C12.4314 5.73271 12.2981 5.79271 12.2981 5.79271C12.2981 5.79271 12.2781 5.73938 12.3048 5.64605C12.3286 5.56273 12.3046 5.52191 12.247 5.424L12.2248 5.38605ZM10.2048 7.353C10.2048 7.353 10.0781 8.01301 10.4181 8.01301C10.5448 8.01301 10.6848 7.67967 10.7114 7.613L10.7194 7.59258C10.7536 7.50483 10.8386 7.28634 10.9181 7.28634C10.9544 7.28634 11.0082 7.34589 11.0711 7.41563C11.1587 7.51254 11.264 7.62913 11.3648 7.633C11.5111 7.633 11.5076 7.46112 11.5048 7.32161C11.5041 7.28953 11.5035 7.25917 11.5048 7.233C11.5048 7.093 11.4314 5.90634 11.4314 5.90634C11.4314 5.90634 10.9714 5.39967 10.8914 5.18634C10.8581 5.08634 10.8714 4.78634 10.8981 4.77967C10.9314 4.76634 11.2848 5.11301 11.2781 5.11967C11.2781 5.11967 11.2981 5.15301 11.2381 5.16634C11.192 5.1817 11.2049 5.20099 11.2164 5.21817C11.2199 5.22336 11.2232 5.22836 11.2248 5.23301C11.2314 5.25301 11.3248 5.31967 11.3248 5.31967L11.3048 4.87967C11.3048 4.87967 11.3048 4.77967 11.3581 4.77967C11.4181 4.77967 11.7114 5.30634 11.7114 5.30634C11.7114 5.30634 11.7048 5.39301 11.6648 5.37967L11.6497 5.37204C11.6165 5.35508 11.5897 5.34138 11.5781 5.35301C11.5714 5.36634 11.6114 5.73967 11.6114 5.73967L11.9248 6.17967L11.7314 4.91967C11.7314 4.91967 11.7448 4.79301 11.8581 4.78634C11.965 4.78005 12.0304 4.98739 12.0767 5.13402L12.0848 5.15967C12.0978 5.20072 12.1104 5.2355 12.1211 5.26518C12.1486 5.34156 12.164 5.3842 12.1448 5.41301C12.1277 5.43348 12.1089 5.4295 12.0928 5.4261C12.0775 5.42286 12.0646 5.42014 12.0581 5.43967C12.0514 5.47967 12.2114 6.63301 12.2114 6.63301C12.2114 6.63301 12.5581 7.03967 12.6048 7.19967C12.6314 7.29967 12.5781 7.62634 12.5781 7.62634L12.2714 7.153V7.473C12.2714 7.473 12.1114 7.71967 12.0514 7.75967C11.9914 7.79967 11.9914 6.71301 11.9914 6.69301C11.9914 6.673 11.7648 6.35301 11.7448 6.35301C11.7248 6.35301 11.7448 7.353 11.7448 7.353V7.57967C11.7448 7.57967 11.6381 7.973 11.4048 7.973C11.2757 7.973 11.1895 7.87917 11.1145 7.79757C11.0539 7.73165 11.0007 7.67371 10.9381 7.67967C10.8769 7.68841 10.8336 7.82445 10.7863 7.97264C10.7255 8.16358 10.6582 8.37469 10.5381 8.35967C10.3248 8.333 10.1514 8.113 10.1181 7.97967C10.0848 7.84634 10.0714 7.34634 10.2048 7.353ZM11.7313 7.95282C11.7313 7.90615 11.8846 7.89282 11.8846 7.89282C11.8846 7.89282 11.998 7.89282 11.998 7.92615C11.998 7.93814 11.9858 7.95955 11.9725 7.98312L11.9725 7.98313C11.9562 8.01201 11.938 8.04413 11.938 8.06615C11.938 8.08557 11.9694 8.09399 12.0025 8.10286C12.0376 8.11225 12.0745 8.12215 12.078 8.14615C12.0864 8.17564 12.0469 8.18916 12.0049 8.20353C11.9804 8.2119 11.9551 8.22055 11.938 8.23282C11.8846 8.27282 11.7646 8.33948 11.7313 8.29282C11.7064 8.2679 11.7565 8.2042 11.7978 8.15164C11.8228 8.11981 11.8446 8.09206 11.8446 8.07948C11.8446 8.06422 11.8209 8.04615 11.7951 8.02657C11.7646 8.0034 11.7313 7.97811 11.7313 7.95282ZM12.4045 8.0465L12.4018 8.04755C12.3001 8.08823 12.0518 8.18754 12.1245 8.3065C12.1578 8.3665 12.4311 8.3865 12.6311 8.2465C12.8311 8.1065 12.8911 7.87316 12.9045 7.7265C12.9311 7.4665 12.9178 6.8865 12.9045 6.69317C12.8911 6.49983 12.7978 5.59983 12.7645 5.47317C12.7334 5.35511 12.7776 5.3355 12.7946 5.32798L12.7978 5.3265C12.8027 5.32487 12.8123 5.32404 12.8241 5.32303C12.8603 5.3199 12.9162 5.31509 12.9111 5.27983C12.9111 5.23317 12.6511 4.8665 12.6511 4.8665C12.6511 4.8665 12.5978 4.77983 12.5711 4.7865C12.5445 4.7865 12.4845 4.89317 12.4911 5.0665C12.4978 5.23317 12.6845 6.8865 12.6845 6.8865C12.6845 6.8865 12.8178 7.8665 12.4111 8.0465H12.4045ZM11.2644 11.159C11.2644 11.159 11.4511 11.0857 11.5111 11.159L11.5177 11.1657C11.5229 11.172 11.5281 11.1782 11.5334 11.1845C11.5898 11.2516 11.6511 11.3245 11.6511 11.5257C11.6511 11.6057 11.6044 11.8857 11.4377 11.8657C11.2644 11.8457 11.2844 11.739 11.2844 11.739H10.5311C10.5311 11.739 10.5711 11.8657 10.4711 11.8657C10.3777 11.8657 10.3044 11.7124 10.3044 11.6524C10.3044 11.5924 10.3311 11.459 10.3311 11.459H4.86437C4.86437 11.459 4.5777 11.5257 4.1377 11.139L10.3711 11.1657C10.3711 11.1657 10.2644 11.039 10.2711 10.9857C10.2844 10.9324 10.3111 10.8457 10.3711 10.8457C10.4003 10.8457 10.4042 10.86 10.409 10.8777C10.4141 10.8963 10.4202 10.9187 10.4577 10.9324C10.5311 10.959 10.5644 10.9857 10.5377 11.0457C10.5111 11.1057 10.4911 11.159 10.4911 11.159H11.2644ZM11.0311 11.619H11.1644H11.1711C11.1977 11.6257 11.2911 11.599 11.2911 11.5524C11.2911 11.5057 11.2044 11.479 11.2044 11.479H10.4844C10.4311 11.479 10.4644 11.619 10.5844 11.619H10.8111C10.8111 11.619 10.8177 11.5457 10.9111 11.5524C10.9688 11.5565 10.9883 11.5811 11.0026 11.5992C11.0115 11.6103 11.0184 11.619 11.0311 11.619Z" fill="#FBFBFB"/>
<g clip-path="url(#clip1_1_483522)">
<mask id="mask0_1_483522" style="mask-type:luminance" maskUnits="userSpaceOnUse" x="-6" y="0" width="28" height="16">
<path d="M21.6024 0H-5.59775V16H21.6024V0Z" fill="white"/>
</mask>
<g mask="url(#mask0_1_483522)">
<path d="M22.9364 0H-4.26376V16H22.9364V0Z" fill="#DB201B"/>
<path d="M8.00127 -0.666992H-5.33212V8.66634H8.00127V-0.666992Z" fill="#1A47B8"/>
<path d="M4.9568 5.01385L4.33423 7.36657L3.71166 5.01385L4.33423 2.66113M4.33423 5.64029L6.66757 5.01385L4.33423 4.38611L2.00089 5.01385" fill="white"/>
<path d="M4.87312 5.32603L3.16749 7.04972L3.7952 4.69829L5.50083 2.97461M4.02287 5.5556L6.35493 6.18852L4.64544 4.46873L2.31339 3.8358" fill="white"/>
<path d="M4.64544 5.55689L2.31339 6.18982L4.02287 4.47003L6.35493 3.8371M3.7952 5.32603L5.50083 7.04972L4.87312 4.69829L3.16749 2.97461" fill="white"/>
<path d="M4.33394 3.67969C5.06456 3.67969 5.65626 4.27759 5.65626 5.01428C5.65626 5.75096 5.06456 6.34757 4.33394 6.34757C3.60332 6.34757 3.01163 5.74967 3.01163 5.01428C3.01163 4.27889 3.60332 3.67969 4.33394 3.67969Z" fill="#1C2666"/>
<path d="M4.33455 3.83789C4.97898 3.83789 5.50122 4.36446 5.50122 5.01425C5.50122 5.66404 4.9777 6.19061 4.33455 6.19061C3.6914 6.19061 3.16788 5.66404 3.16788 5.01425C3.16788 4.36446 3.69011 3.83789 4.33455 3.83789Z" fill="white"/>
</g>
</g>
</g>
<defs>
<clipPath id="clip0_1_483522">
<rect width="16.0001" height="16" rx="8" fill="white"/>
</clipPath>
<clipPath id="clip1_1_483522">
<rect width="27.2001" height="16" fill="white" transform="translate(-5.5997)"/>
</clipPath>
</defs>
</svg>
