<svg width="16" height="16" viewBox="0 0 16 16" fill="none" xmlns="http://www.w3.org/2000/svg">
<rect width="16" height="16" rx="8" fill="#F93939"/>
<path fill-rule="evenodd" clip-rule="evenodd" d="M11.7358 9.22868L10.4963 9.87934L10.7331 8.50014L9.73047 7.52201L11.1171 7.31934L11.7358 6.06494L12.3545 7.32041L13.7411 7.52307L12.7385 8.49907L12.9753 9.87827" fill="white"/>
<path fill-rule="evenodd" clip-rule="evenodd" d="M6.93335 11.7333C8.99521 11.7333 10.6667 10.0618 10.6667 7.99994C10.6667 5.93807 8.99521 4.2666 6.93335 4.2666C4.87148 4.2666 3.20001 5.93807 3.20001 7.99994C3.20001 10.0618 4.87148 11.7333 6.93335 11.7333ZM8.00001 10.6666C9.47201 10.6666 10.6667 9.47194 10.6667 7.99994C10.6667 6.52794 9.47201 5.33327 8.00001 5.33327C6.52801 5.33327 5.33335 6.52794 5.33335 7.99994C5.33335 9.47194 6.52801 10.6666 8.00001 10.6666Z" fill="white"/>
</svg>
