<svg width="16" height="16" viewBox="0 0 16 16" fill="none" xmlns="http://www.w3.org/2000/svg">
<rect width="16" height="16" rx="8" fill="#F93939"/>
<path d="M8 11.7333C10.0619 11.7333 11.7333 10.0618 11.7333 7.99994C11.7333 5.93807 10.0619 4.2666 8 4.2666C5.93813 4.2666 4.26666 5.93807 4.26666 7.99994C4.26666 10.0618 5.93813 11.7333 8 11.7333Z" fill="white"/>
<path fill-rule="evenodd" clip-rule="evenodd" d="M9.59961 7.4668H10.6663V8.53346H9.59961V7.4668Z" fill="#F93939"/>
<path fill-rule="evenodd" clip-rule="evenodd" d="M10.133 9.60016C9.64661 10.2476 8.87221 10.6668 7.99967 10.6668C6.52767 10.6668 5.33301 9.47216 5.33301 8.00016C5.33301 6.52816 6.52767 5.3335 7.99967 5.3335C8.87221 5.3335 9.64661 5.7527 10.133 6.40016H8.53301C7.64981 6.40016 6.93301 7.11696 6.93301 8.00016C6.93301 8.88336 7.64981 9.60016 8.53301 9.60016H10.133Z" fill="#F93939"/>
</svg>
