<svg width="16" height="16" viewBox="0 0 16 16" fill="none" xmlns="http://www.w3.org/2000/svg">
<g clip-path="url(#clip0_1_483593)">
<rect width="16.0001" height="16" rx="8" fill="#1A47B8"/>
<path fill-rule="evenodd" clip-rule="evenodd" d="M-0.817281 0H-3.2002V2.66667L16.8041 16L19.1999 16V13.3333L-0.817281 0Z" fill="white"/>
<path d="M-2.40542 0L19.1999 14.4378V16H18.4238L-3.2002 1.54726V0H-2.40542Z" fill="#F93939"/>
<path fill-rule="evenodd" clip-rule="evenodd" d="M17.0666 0H19.1999V2.66667C19.1999 2.66667 5.34364 11.5499 -1.06685 16H-3.2002V13.3333L17.0666 0Z" fill="white"/>
<path d="M19.1999 0H18.4764L-3.2002 14.4502V16H-2.40542L19.1999 1.55895V0Z" fill="#F93939"/>
<path fill-rule="evenodd" clip-rule="evenodd" d="M4.94606 0H11.0723V4.93527H19.1999V11.0615H11.0723V16H4.94606V11.0615H-3.2002V4.93527H4.94606V0Z" fill="white"/>
<path fill-rule="evenodd" clip-rule="evenodd" d="M6.23143 0H9.76828V6.15385H19.1999V9.84615H9.76828V16H6.23143V9.84615H-3.2002V6.15385H6.23143V0Z" fill="#F93939"/>
</g>
<defs>
<clipPath id="clip0_1_483593">
<rect width="16.0001" height="16" rx="8" fill="white"/>
</clipPath>
</defs>
</svg>
