<svg width="16" height="16" viewBox="0 0 16 16" fill="none" xmlns="http://www.w3.org/2000/svg">
<g clip-path="url(#clip0_1_483354)">
<rect width="16" height="16" rx="8" fill="white"/>
<path fill-rule="evenodd" clip-rule="evenodd" d="M9.60026 3.2002H21.3336V5.33353H9.60026V3.2002ZM9.60026 7.46686H21.3336V9.6002H9.60026V7.46686ZM-1.06641 11.7335H21.3336V13.8669H-1.06641V11.7335Z" fill="#3A99FF"/>
<path fill-rule="evenodd" clip-rule="evenodd" d="M6.27174 7.33863C6.02641 8.66663 5.46107 9.59997 4.79974 9.59997C4.13841 9.59997 3.57307 8.6677 3.32774 7.33863C1.99974 7.0933 1.06641 6.52797 1.06641 5.86663C1.06641 5.2053 1.99867 4.63997 3.32774 4.39463C3.57307 3.06663 4.13841 2.1333 4.79974 2.1333C5.46107 2.1333 6.02641 3.06557 6.27174 4.39463C7.59974 4.63997 8.53307 5.2053 8.53307 5.86663C8.53307 6.52797 7.60081 7.0933 6.27174 7.33863Z" fill="#D4AF2C"/>
<path fill-rule="evenodd" clip-rule="evenodd" d="M5.53254 6.59943C5.46427 8.3093 5.16241 9.59997 4.79974 9.59997C4.43707 9.59997 4.13521 8.3093 4.06694 6.59943C2.35707 6.53117 1.06641 6.2293 1.06641 5.86663C1.06641 5.50397 2.35707 5.2021 4.06694 5.13383C4.13521 3.42397 4.43707 2.1333 4.79974 2.1333C5.16241 2.1333 5.46427 3.42397 5.53254 5.13383C7.24241 5.2021 8.53307 5.50397 8.53307 5.86663C8.53307 6.2293 7.24241 6.53117 5.53254 6.59943Z" fill="#FFDA2C"/>
<path d="M4.8 7.4666C5.68365 7.4666 6.4 6.75026 6.4 5.8666C6.4 4.98295 5.68365 4.2666 4.8 4.2666C3.91634 4.2666 3.2 4.98295 3.2 5.8666C3.2 6.75026 3.91634 7.4666 4.8 7.4666Z" fill="#FFDA2C"/>
</g>
<defs>
<clipPath id="clip0_1_483354">
<rect width="16" height="16" rx="8" fill="white"/>
</clipPath>
</defs>
</svg>
