<svg width="16" height="16" viewBox="0 0 16 16" fill="none" xmlns="http://www.w3.org/2000/svg">
<g clip-path="url(#clip0_1_483422)">
<rect width="16" height="16" rx="8" fill="#FFDA2C"/>
<path fill-rule="evenodd" clip-rule="evenodd" d="M-3.20001 0H19.2V2.13333H-3.20001V0Z" fill="#151515"/>
<path fill-rule="evenodd" clip-rule="evenodd" d="M-3.20001 4.2666H19.2V7.4666H-3.20001V4.2666Z" fill="#F93939"/>
<path fill-rule="evenodd" clip-rule="evenodd" d="M-3.20001 7.4668H19.2V10.6668H-3.20001V7.4668Z" fill="#151515"/>
<path d="M7.46666 10.6666C9.23397 10.6666 10.6667 9.23391 10.6667 7.4666C10.6667 5.69929 9.23397 4.2666 7.46666 4.2666C5.69935 4.2666 4.26666 5.69929 4.26666 7.4666C4.26666 9.23391 5.69935 10.6666 7.46666 10.6666Z" fill="white"/>
<path fill-rule="evenodd" clip-rule="evenodd" d="M7.68048 4.2666L6.82715 7.4666L7.68048 9.59994L8.53382 7.4666V10.6666L9.38715 7.4666L8.53382 6.39994L7.68048 7.4666V4.2666Z" fill="#151515"/>
<rect x="-3.20001" y="12.7998" width="22.4" height="3.2" fill="#F93939"/>
</g>
<defs>
<clipPath id="clip0_1_483422">
<rect width="16" height="16" rx="8" fill="white"/>
</clipPath>
</defs>
</svg>
