<svg width="16" height="16" viewBox="0 0 16 16" fill="none" xmlns="http://www.w3.org/2000/svg">
<g clip-path="url(#clip0_1_483621)">
<rect width="16.0001" height="16" rx="8" fill="white"/>
<path fill-rule="evenodd" clip-rule="evenodd" d="M0 0H9.60004V7.46667H0V0Z" fill="#1A47B8"/>
<path fill-rule="evenodd" clip-rule="evenodd" d="M9.60004 0V1.06667H22.4001V0H9.60004ZM9.60004 2.13333V3.2H22.4001V2.13333H9.60004ZM9.60004 4.26667V5.33333H22.4001V4.26667H9.60004ZM9.60004 6.4V7.46667H22.4001V6.4H9.60004ZM0 8.53333V9.6H22.4001V8.53333H0ZM0 10.6667V11.7333H22.4001V10.6667H0ZM0 12.8V13.8667H22.4001V12.8H0ZM0 14.9333V16H22.4001V14.9333H0Z" fill="#F93939"/>
<path fill-rule="evenodd" clip-rule="evenodd" d="M1.06738 1.06641V2.13307H2.13405V1.06641H1.06738ZM3.20073 1.06641V2.13307H4.2674V1.06641H3.20073ZM5.33407 1.06641V2.13307H6.40074V1.06641H5.33407ZM7.46741 1.06641V2.13307H8.53408V1.06641H7.46741ZM6.40074 2.13307V3.19974H7.46741V2.13307H6.40074ZM4.2674 2.13307V3.19974H5.33407V2.13307H4.2674ZM2.13405 2.13307V3.19974H3.20073V2.13307H2.13405ZM1.06738 3.19974V4.26641H2.13405V3.19974H1.06738ZM3.20073 3.19974V4.26641H4.2674V3.19974H3.20073ZM5.33407 3.19974V4.26641H6.40074V3.19974H5.33407ZM7.46741 3.19974V4.26641H8.53408V3.19974H7.46741ZM1.06738 5.33307V6.39974H2.13405V5.33307H1.06738ZM3.20073 5.33307V6.39974H4.2674V5.33307H3.20073ZM5.33407 5.33307V6.39974H6.40074V5.33307H5.33407ZM7.46741 5.33307V6.39974H8.53408V5.33307H7.46741ZM6.40074 4.26641V5.33307H7.46741V4.26641H6.40074ZM4.2674 4.26641V5.33307H5.33407V4.26641H4.2674ZM2.13405 4.26641V5.33307H3.20073V4.26641H2.13405Z" fill="white"/>
</g>
<defs>
<clipPath id="clip0_1_483621">
<rect width="16.0001" height="16" rx="8" fill="white"/>
</clipPath>
</defs>
</svg>
