<svg width="16" height="16" viewBox="0 0 16 16" fill="none" xmlns="http://www.w3.org/2000/svg">
<rect width="16.0001" height="16" rx="8" fill="#DB201B"/>
<path d="M9.56998 8.41265C9.54521 8.33254 9.57305 8.24548 9.63971 8.1946L11.5297 6.75194C11.6818 6.63584 11.5997 6.39296 11.4084 6.39296H9.09306C9.00535 6.39296 8.92787 6.33581 8.90198 6.25201L8.19106 3.95126C8.13299 3.76333 7.86699 3.76331 7.80889 3.95123L7.09758 6.25204C7.07168 6.33583 6.99421 6.39296 6.9065 6.39296H4.59165C4.4003 6.39296 4.3182 6.63584 4.4703 6.75194L6.36033 8.1946C6.42698 8.24548 6.45482 8.33254 6.43006 8.41265L5.71196 10.7355C5.65446 10.9215 5.86963 11.0717 6.02439 10.9536L7.87867 9.53825C7.95033 9.48356 8.04971 9.48356 8.12137 9.53826L9.97565 10.9536C10.1304 11.0717 10.3456 10.9215 10.2881 10.7355L9.56998 8.41265Z" fill="#F4E600"/>
</svg>
