<svg width="16" height="16" viewBox="0 0 16 16" fill="none" xmlns="http://www.w3.org/2000/svg">
<g clip-path="url(#clip0_1_482653)">
<rect width="16" height="16" rx="8" fill="white"/>
<path fill-rule="evenodd" clip-rule="evenodd" d="M-3 8H19.4V16H-3V8Z" fill="#00B140"/>
<path d="M13.9899 6.74027C13.975 6.6977 13.9573 6.6561 13.9447 6.61273C13.8821 6.39869 13.8545 6.17765 13.8303 5.95588C13.8356 5.89143 13.823 5.82802 13.8202 5.76397C13.8161 5.66805 13.8134 5.57222 13.8129 5.47638C13.8131 5.45079 13.8131 5.42513 13.8129 5.39946C13.8134 5.31376 13.8158 5.22798 13.8205 5.14221C13.8206 5.14028 13.8208 5.13826 13.821 5.13633C13.821 5.13513 13.8212 5.13392 13.8213 5.13271C13.8249 5.08805 13.8356 5.04396 13.8307 4.99865C13.8339 4.98031 13.8383 4.96204 13.84 4.94354C13.8411 4.93243 13.8516 4.91714 13.8392 4.91046C13.8242 4.90242 13.8182 4.92149 13.8113 4.9309C13.7464 5.01797 13.6769 5.10069 13.6054 5.18139C13.3409 5.48041 13.0636 5.76566 12.785 6.04938C12.6942 6.14176 12.6029 6.23349 12.512 6.3257C12.505 6.33279 12.4942 6.33842 12.4969 6.35129C12.4989 6.36135 12.5081 6.36063 12.5154 6.36095C12.6494 6.36642 12.7832 6.36739 12.9172 6.3558C12.9894 6.34952 13.0597 6.33198 13.1317 6.32562C13.1529 6.33528 13.1444 6.35049 13.1385 6.36562C13.0959 6.47561 13.0527 6.58529 13.0113 6.69585C13.0009 6.72385 12.9879 6.7253 12.9658 6.71267C12.8296 6.6347 12.6841 6.58915 12.5312 6.56783C12.404 6.55005 12.2767 6.53902 12.1499 6.56557C11.9508 6.60718 11.7777 6.69722 11.6562 6.87915C11.5865 6.99108 11.5572 7.11178 11.5725 7.24745C11.5914 7.4157 11.672 7.53576 11.8069 7.61703C11.951 7.70385 12.1101 7.72445 12.2714 7.72526C12.4234 7.72598 12.5689 7.688 12.7075 7.62057C12.7201 7.61437 12.7357 7.59957 12.7489 7.61075C12.7614 7.62129 12.7459 7.63779 12.7468 7.65203C12.744 7.65718 12.741 7.66233 12.7382 7.66748C12.7238 7.6921 12.7094 7.71681 12.6951 7.74143C12.6299 7.80637 12.5614 7.86446 12.4773 7.9018C12.4005 7.93584 12.3202 7.95539 12.2415 7.98146C12.118 7.99289 11.9946 8.00761 11.8705 7.99964C11.8045 7.99538 11.7373 7.99441 11.6736 7.97349C11.5516 7.93334 11.4263 7.90856 11.3015 7.882C11.1333 7.8462 10.9631 7.82415 10.7927 7.8058C10.7056 7.79639 10.6183 7.78456 10.5303 7.78858C10.4796 7.7807 10.4287 7.77893 10.3776 7.78279C10.3175 7.78198 10.2575 7.7811 10.1975 7.78029C10.2014 7.75656 10.2169 7.73998 10.2303 7.72276C10.304 7.62813 10.3915 7.55064 10.4909 7.48893C10.6288 7.40331 10.7746 7.34417 10.9363 7.33596C11.0094 7.33226 11.081 7.33507 11.1517 7.35624C11.1613 7.35913 11.1744 7.36959 11.1822 7.35527C11.189 7.34304 11.1757 7.33709 11.1694 7.3296C11.152 7.30852 11.1335 7.28848 11.117 7.2666C10.9807 7.08498 10.9447 6.87722 11.0052 6.65892C11.0633 6.44882 11.1894 6.28097 11.3456 6.14039C11.5389 5.96634 11.7588 5.845 12.0008 5.76864C12.0104 5.76558 12.0236 5.76445 12.0248 5.75295C12.0263 5.73838 12.0111 5.74031 12.0027 5.73709C11.9389 5.71239 11.8772 5.68366 11.8202 5.64391C11.7571 5.59982 11.7018 5.54478 11.6764 5.46946C11.6512 5.39455 11.6552 5.3144 11.6816 5.23764C11.7228 5.11726 11.7913 5.01547 11.8715 4.92221C12.0519 4.7126 12.2651 4.54611 12.486 4.38985C12.4978 4.38156 12.5132 4.37673 12.5157 4.3575C12.4962 4.35259 12.4809 4.36305 12.465 4.36989C12.2168 4.47723 11.9693 4.58651 11.7203 4.69176C11.4236 4.81728 11.1277 4.94506 10.8256 5.05571C10.72 5.09441 10.6123 5.12483 10.4989 5.1167C10.3782 5.10801 10.2808 5.04677 10.2548 4.90073C10.2379 4.8057 10.2448 4.71139 10.2622 4.61797C10.2871 4.48391 10.329 4.35517 10.3766 4.22851C10.383 4.21145 10.3943 4.19439 10.3895 4.16921C10.3252 4.20751 10.2639 4.24364 10.203 4.28033C10.0426 4.37689 9.88242 4.47369 9.72214 4.57041C9.70761 4.57806 9.69271 4.58514 9.67857 4.59351C9.38185 4.76973 9.08642 4.94828 8.79505 5.1344C8.60151 5.25808 8.40886 5.38336 8.22367 5.52112C8.01779 5.67433 7.81627 5.83357 7.65056 6.03764C7.53573 6.1791 7.46402 6.3348 7.47034 6.53218C7.47696 6.73914 7.49517 6.9469 7.47245 7.15427C7.4653 7.16296 7.46582 7.17414 7.46357 7.18444C7.44144 7.28631 7.39276 7.36839 7.30178 7.41288C7.22502 7.45046 7.14187 7.4668 7.05864 7.47855C6.91853 7.49834 6.77796 7.51564 6.641 7.55426C6.56959 7.57438 6.4972 7.59039 6.42699 7.61574C6.40931 7.6221 6.38462 7.63714 6.37146 7.606C6.33473 7.5187 6.30591 7.42906 6.31404 7.33113C6.31923 7.26869 6.34384 7.24205 6.40118 7.2365C6.48373 7.22854 6.56605 7.22516 6.64612 7.25525C6.67238 7.26515 6.67863 7.25292 6.67178 7.22846C6.65839 7.18066 6.64018 7.13536 6.60691 7.09882C6.58065 7.06503 6.55108 7.0359 6.51616 7.01168C6.45581 6.96984 6.38809 6.94795 6.32179 6.92188C6.30885 6.89935 6.2883 6.88012 6.28845 6.85155C6.2886 6.8048 6.28635 6.75829 6.2938 6.71138C6.30584 6.6355 6.29824 6.61571 6.39787 6.63486C6.51857 6.65803 6.63769 6.69167 6.74199 6.76626C6.75915 6.77849 6.76961 6.78155 6.76825 6.7537C6.76163 6.61361 6.72122 6.49219 6.60669 6.40939C6.56139 6.37664 6.50946 6.36578 6.45837 6.35636C6.40833 6.34719 6.38252 6.32096 6.3759 6.26938C6.37808 6.23196 6.38026 6.19463 6.38252 6.15721C6.38974 6.13588 6.39644 6.1144 6.40434 6.0934C6.41593 6.0625 6.4364 6.04174 6.46853 6.03941C6.50856 6.03651 6.54852 6.03587 6.5884 6.04407C6.6705 6.06105 6.74628 6.09549 6.81965 6.13693C6.83643 6.14643 6.85276 6.15343 6.8493 6.12172C6.83914 6.02878 6.81859 5.93987 6.75749 5.86785C6.72242 5.82891 6.69089 5.78505 6.63829 5.77073C6.61007 5.75134 6.57727 5.7478 6.54574 5.73951C6.52166 5.73315 6.49584 5.72929 6.48087 5.70394C6.43911 5.63313 6.48531 5.5377 6.56319 5.53174C6.62829 5.52684 6.68961 5.54663 6.75215 5.55958C6.77292 5.56385 6.80136 5.58896 6.8125 5.56844C6.82311 5.54896 6.79451 5.52531 6.78007 5.50591C6.69812 5.39576 6.59104 5.32132 6.46875 5.27562C6.38666 5.24496 6.35588 5.18461 6.34166 5.10036C6.33624 5.0685 6.34738 5.02827 6.3087 5.00413C6.24037 4.96156 6.24075 4.91714 6.30636 4.87184C6.43271 4.78469 6.56033 4.6998 6.69097 4.62006C6.7158 4.60493 6.74462 4.59479 6.76675 4.56663C6.71317 4.56003 6.66501 4.56365 6.61685 4.57307C6.59886 4.57661 6.58554 4.57387 6.59788 4.54877C6.61436 4.51529 6.62234 4.47852 6.63145 4.44247C6.65319 4.35653 6.66019 4.26883 6.65372 4.17999C6.65304 4.17074 6.65349 4.15971 6.64356 4.15601C6.63694 4.15352 6.6328 4.16076 6.62926 4.16639C6.55981 4.27446 6.44768 4.30254 6.3412 4.3402C6.32111 4.34728 6.31524 4.33746 6.32239 4.31437C6.33601 4.27003 6.34775 4.22489 6.35768 4.17943C6.36777 4.1334 6.36807 4.08625 6.36175 4.03958C6.35942 4.02244 6.35212 4.00321 6.33421 4.00023C6.31855 3.99765 6.31818 4.01745 6.31223 4.02839C6.29696 4.05656 6.27709 4.08021 6.25241 4.0996C6.1974 4.1429 6.13592 4.17283 6.07361 4.20115C5.95269 4.25619 5.82747 4.30125 5.71369 4.37311C5.64822 4.41447 5.58923 4.46339 5.55401 4.53855C5.54769 4.55207 5.53836 4.56301 5.52225 4.56285C5.40328 4.56124 5.28424 4.56848 5.16526 4.55794C5.0557 4.54828 4.94817 4.52109 4.83725 4.5227C4.67027 4.52503 4.54987 4.60896 4.46272 4.75581C4.43932 4.81028 4.39831 4.81801 4.34624 4.81535C4.24006 4.80996 4.13433 4.81833 4.02853 4.8337C3.82738 4.86299 3.63444 4.91915 3.45294 5.01684C3.34721 5.07373 3.24991 5.1439 3.17112 5.23997C3.16375 5.24899 3.14742 5.25832 3.15585 5.27248C3.16194 5.2827 3.17699 5.27618 3.18775 5.27393C3.34646 5.24158 3.50637 5.2234 3.66808 5.22348C3.7884 5.22348 3.90813 5.22742 4.02665 5.25309C4.04937 5.258 4.05743 5.26838 4.0587 5.29284C4.06269 5.36928 4.09204 5.43172 4.1536 5.47437C4.1618 5.47896 4.16993 5.48362 4.17813 5.48821C4.19423 5.50318 4.21508 5.5031 4.23426 5.50889C4.2521 5.51428 4.26211 5.53078 4.2609 5.5484C4.25955 5.56739 4.24164 5.55983 4.23028 5.56063C4.1329 5.56739 4.03508 5.56988 3.93823 5.58155C3.87434 5.58928 3.8106 5.58694 3.74687 5.59129C3.55799 5.60432 3.36881 5.60923 3.17955 5.60054C3.17045 5.60014 3.15893 5.60473 3.15133 5.58775C3.21891 5.53891 3.29137 5.49602 3.35391 5.44001C2.97713 5.40686 2.64377 5.25156 2.31771 5.05241C2.3296 5.09634 2.33765 5.13352 2.3539 5.16836C2.44654 5.36743 2.57506 5.53794 2.7218 5.69332C2.85944 5.83904 3.00625 5.97197 3.18828 6.05228C3.20077 6.05783 3.21214 6.06427 3.22794 6.05823C3.20017 5.98742 3.15622 5.93005 3.12131 5.86689C3.11536 5.8561 3.09663 5.84918 3.10438 5.83446C3.11213 5.81973 3.12996 5.82126 3.14486 5.81973C3.1782 5.81627 3.21251 5.82657 3.2451 5.81193C3.28468 5.81193 3.32433 5.81193 3.36392 5.81201H3.36422C3.40929 5.82174 3.45489 5.81861 3.50035 5.81812C3.65657 5.82866 3.81279 5.83912 3.96901 5.84975C4.02025 5.85321 4.07142 5.85723 4.12267 5.86109C4.13817 5.8623 4.15442 5.86367 4.15412 5.88636C4.15322 5.96345 4.19084 6.02371 4.22855 6.08406C4.24751 6.1144 4.26587 6.14538 4.26557 6.1832C4.26519 6.2289 4.26737 6.27421 4.27633 6.3187C4.29258 6.39933 4.31982 6.47505 4.37077 6.53878C4.37671 6.54626 4.38326 6.55857 4.39462 6.55391C4.40373 6.55013 4.40102 6.53765 4.4029 6.52872C4.40832 6.50394 4.40636 6.47851 4.41118 6.45324C4.43353 6.33536 4.50757 6.24073 4.53436 6.11561C4.57206 6.17958 4.57048 6.24612 4.5899 6.30671C4.6118 6.29416 4.61676 6.27348 4.62617 6.25691C4.72106 6.08865 4.84891 5.96594 5.03057 5.91412C5.05751 5.90648 5.06834 5.91259 5.07158 5.93979C5.07504 5.96956 5.08362 5.99772 5.09912 6.02227C5.11394 6.04584 5.11266 6.05928 5.08858 6.07666C5.02718 6.121 4.98948 6.1836 4.97059 6.26117C4.95727 6.31581 4.96088 6.3702 4.96276 6.42468C4.96367 6.45083 4.9593 6.46644 4.93462 6.47658C4.90497 6.48873 4.88195 6.51215 4.86261 6.53934C4.81023 6.61313 4.78066 6.69521 4.78495 6.78879C4.78645 6.82162 4.77938 6.84423 4.75206 6.86628C4.64837 6.94988 4.58523 7.05988 4.57598 7.20158C4.57244 7.25549 4.56296 7.30659 4.51533 7.33958C4.50223 7.34867 4.4932 7.36493 4.48357 7.37893C4.39876 7.50188 4.37664 7.63811 4.40719 7.78601C4.41035 7.80113 4.42472 7.81996 4.40621 7.83413C4.35105 7.87645 4.32118 7.93817 4.29145 8.00029C4.23615 8.17699 4.2755 8.33607 4.37378 8.48196C4.39334 8.51101 4.39477 8.53056 4.37649 8.55929C4.34947 8.60177 4.33247 8.65005 4.32757 8.70147C4.32419 8.7372 4.30741 8.74396 4.2761 8.7483C4.20033 8.75868 4.13554 8.75361 4.07044 8.69672C4.01732 8.65038 3.94109 8.65021 3.87156 8.65126C3.84213 8.65174 3.82475 8.64169 3.80767 8.61457C3.75793 8.53563 3.68034 8.4991 3.5981 8.47601C3.55949 8.46522 3.53744 8.45042 3.52525 8.40576C3.49816 8.30678 3.43127 8.23541 3.35782 8.17385C3.32012 8.14231 3.30221 8.10836 3.30462 8.05847C3.3056 8.03875 3.30003 8.01872 3.29747 7.99884C3.29476 7.98725 3.29092 7.97591 3.28949 7.96416C3.27038 7.80339 3.22689 7.6509 3.15532 7.50775C3.1101 7.41723 3.11702 7.3675 3.18979 7.29903C3.232 7.25927 3.27775 7.22371 3.3229 7.18758C3.40244 7.12385 3.43428 7.03928 3.42043 6.935C3.41749 6.91311 3.42344 6.89653 3.43315 6.87851C3.48417 6.78372 3.47521 6.66511 3.40959 6.58207C3.38356 6.54908 3.35474 6.51794 3.30379 6.50812C3.33209 6.5626 3.33916 6.61337 3.33532 6.6664C3.33171 6.71556 3.30116 6.77125 3.27219 6.77511C3.23035 6.78066 3.19739 6.80303 3.16638 6.83127C3.14531 6.85051 3.1268 6.87368 3.10099 6.88841C3.09633 6.87457 3.10016 6.86443 3.10219 6.85413C3.11551 6.78742 3.13192 6.72079 3.12673 6.652C3.12078 6.57362 3.10949 6.49629 3.03605 6.45212C3.0222 6.44375 3.0204 6.42774 3.01754 6.41406C2.99632 6.31436 2.93529 6.25361 2.84898 6.22013C2.79111 6.19768 2.73166 6.19092 2.67161 6.22206C2.68297 6.23767 2.69735 6.23969 2.70969 6.2454C2.77192 6.27413 2.81617 6.32112 2.83257 6.39241C2.83987 6.4242 2.84868 6.46105 2.8252 6.48849C2.77531 6.54691 2.76974 6.6116 2.79367 6.68225C2.79871 6.69714 2.80089 6.71009 2.79344 6.72433C2.76801 6.77294 2.75664 6.82637 2.74746 6.88044C2.73723 6.89854 2.74265 6.91874 2.74092 6.93797C2.73979 6.9502 2.7443 6.96573 2.72579 6.96791C2.6829 6.90442 2.65686 6.83144 2.6239 6.76231C2.59696 6.70583 2.56122 6.65875 2.49959 6.64298C2.48672 6.63968 2.47754 6.63035 2.47047 6.619C2.42396 6.54457 2.35466 6.50852 2.27557 6.49678C2.20867 6.4868 2.14659 6.50764 2.0903 6.55117C2.10196 6.56622 2.11257 6.56236 2.12221 6.56292C2.194 6.56735 2.25224 6.598 2.29333 6.6627C2.31161 6.69142 2.3153 6.71878 2.29957 6.75226C2.26541 6.825 2.2767 6.89299 2.32952 6.95061C2.34548 6.96799 2.34901 6.984 2.34344 7.00806C2.33268 7.05417 2.33291 7.10116 2.3518 7.14566C2.37708 7.2052 2.42328 7.2398 2.47679 7.26708C2.55068 7.30482 2.59636 7.3667 2.60765 7.45489C2.61487 7.51121 2.58756 7.55861 2.57078 7.60834C2.53992 7.69943 2.52292 7.79084 2.55287 7.88611C2.57175 7.92143 2.56731 7.96054 2.56882 7.99868C2.56415 8.00246 2.55956 8.00624 2.5549 8.01003C2.54828 8.04398 2.53006 8.06933 2.50034 8.0818C2.46189 8.09789 2.44067 8.12847 2.4275 8.16806C2.41741 8.19832 2.40553 8.22793 2.39597 8.25842C2.37678 8.31934 2.34224 8.36343 2.28309 8.38274C2.23839 8.39739 2.21657 8.43416 2.20844 8.48003C2.2019 8.51704 2.19859 8.55736 2.21635 8.59043C2.24381 8.64144 2.22214 8.67669 2.19264 8.71242C2.16608 8.7446 2.13184 8.76247 2.09414 8.77566C2.06344 8.78636 2.03055 8.78306 2 8.79232C2.00105 8.8064 2.00993 8.81018 2.01686 8.81525C2.12394 8.89475 2.27354 8.88011 2.36579 8.78162C2.37964 8.76681 2.39025 8.74734 2.41305 8.7446C2.49831 8.7343 2.54369 8.67355 2.55716 8.59228C2.58086 8.44961 2.67598 8.3471 2.72331 8.21497C2.73776 8.23131 2.73798 8.24644 2.74144 8.26011C2.77282 8.38387 2.82121 8.49942 2.88495 8.60797C2.97705 8.76464 3.09429 8.89837 3.21748 9.02664C3.36279 9.17799 3.51397 9.32307 3.64739 9.48731C3.87479 9.76701 4.00294 10.0896 4.02033 10.4611C4.02093 10.4738 4.01513 10.4922 4.02838 10.4976C4.04388 10.5041 4.05208 10.4855 4.05976 10.4748C4.18174 10.3056 4.28024 10.1234 4.3275 9.91362C4.33292 9.88964 4.3427 9.88054 4.36543 9.8799C4.51525 9.87564 4.66191 9.84836 4.80662 9.80796C4.82295 9.80338 4.8386 9.80121 4.85433 9.80869C4.88804 9.82462 4.92454 9.82655 4.96013 9.83307C4.96374 9.88207 4.95035 9.93293 4.9745 9.9796C4.97277 9.99175 4.96931 10.002 4.9593 10.0103C4.8696 10.0854 4.83303 10.1869 4.83318 10.3059C4.83318 10.3198 4.83386 10.3337 4.81828 10.3387C4.75011 10.3605 4.73047 10.4194 4.7176 10.4852C4.70225 10.5637 4.68983 10.6427 4.65951 10.7176C4.55122 10.9841 4.26918 11.235 3.90151 11.1238C3.78314 11.088 3.67568 11.0286 3.56995 10.9642C3.52676 10.9379 3.48161 10.9176 3.43059 10.9268C3.40222 10.9319 3.37701 10.926 3.35037 10.9157C3.21823 10.8646 3.0654 10.9321 3.01528 11.0624C3.01167 11.0719 3.00174 11.0832 3.00919 11.092C3.01972 11.1047 3.0295 11.0897 3.03868 11.085C3.10317 11.0512 3.16857 11.0359 3.23765 11.0696C3.2536 11.0774 3.2676 11.0849 3.26097 11.1078C3.24683 11.157 3.24306 11.2074 3.24336 11.2587C3.24352 11.2879 3.22794 11.3025 3.19859 11.2959C3.13275 11.2811 3.06863 11.289 3.007 11.3165C2.91618 11.3569 2.84476 11.4179 2.82121 11.5265C2.81843 11.5393 2.81225 11.5568 2.82264 11.5645C2.83679 11.5751 2.84288 11.5548 2.85131 11.5468C2.91535 11.4866 2.9912 11.4653 3.07443 11.4701C3.14193 11.4739 3.19551 11.4996 3.22997 11.5692C3.25255 11.6148 3.25405 11.6316 3.20867 11.6553C3.104 11.7099 3.04719 11.8342 3.07225 11.9537C3.07518 11.9676 3.07526 11.9869 3.09158 11.9889C3.10633 11.9908 3.10919 11.9723 3.11424 11.9608C3.14953 11.8797 3.20905 11.8349 3.29153 11.8237C3.30921 11.8213 3.32644 11.8205 3.34179 11.8333C3.42111 11.8996 3.51269 11.9126 3.60901 11.9014C3.72662 11.8877 3.84176 11.8585 3.93085 11.7716C4.01679 11.6877 4.11326 11.6585 4.22463 11.6718C4.27941 11.6783 4.33375 11.6888 4.38845 11.6965C4.43052 11.7025 4.47183 11.701 4.50471 11.6667C4.54648 11.623 4.59712 11.5991 4.65333 11.5855C4.72761 11.5676 4.79947 11.596 4.83823 11.6659C4.86908 11.7215 4.91235 11.7515 4.9718 11.7562C4.99926 11.7584 5.0268 11.7606 5.05434 11.7606C5.08836 11.7607 5.11846 11.7695 5.14374 11.7953C5.16143 11.8133 5.18347 11.8236 5.20748 11.8276C5.29913 11.8428 5.37898 11.8161 5.44444 11.746C5.46002 11.7293 5.47522 11.7221 5.49674 11.7209C5.57553 11.7163 5.63392 11.7537 5.68088 11.8178C5.68856 11.8283 5.69149 11.8456 5.70865 11.8463C5.73965 11.6976 5.63242 11.547 5.48425 11.5317C5.46311 11.5295 5.4467 11.5237 5.43218 11.5058C5.38876 11.4521 5.33051 11.4278 5.267 11.4376C5.15834 11.4542 5.05788 11.4271 4.95817 11.3883C4.90475 11.3676 4.90362 11.3622 4.92205 11.3029C4.96322 11.1706 5.02598 11.0507 5.10281 10.9387C5.24894 10.7255 5.4312 10.5487 5.60714 10.3654C5.69149 10.2776 5.77713 10.1907 5.8453 10.0869C5.84967 10.0803 5.85065 10.0679 5.86502 10.0713C5.86622 10.0786 5.86825 10.0862 5.86871 10.0939C5.87307 10.1803 5.89948 10.2594 5.94072 10.3326C5.96789 10.3808 5.99942 10.426 6.02771 10.4735C6.06631 10.5382 6.09401 10.6062 6.07647 10.6859C6.07534 10.691 6.077 10.6966 6.08656 10.6984C6.13682 10.6502 6.17919 10.5926 6.21509 10.5295C6.24789 10.4718 6.27227 10.4104 6.27762 10.3419C6.29109 10.3016 6.28785 10.2601 6.28507 10.2187C6.32653 10.1948 6.37364 10.1838 6.41254 10.1543C6.46951 10.128 6.51278 10.0827 6.54942 10.0318C6.57185 10.0008 6.5942 9.99778 6.62678 10.0039C6.8663 10.049 7.067 9.97091 7.22961 9.77988C7.24978 9.75622 7.26686 9.75067 7.29448 9.7584C7.38568 9.78415 7.47576 9.77932 7.56365 9.74102C7.57268 9.73707 7.58322 9.72734 7.59157 9.7345C7.6021 9.74351 7.59307 9.75695 7.59082 9.76821C7.54356 9.9973 7.67224 10.1986 7.88956 10.2343C7.91055 10.2377 7.92327 10.2462 7.92989 10.2689C7.93998 10.3036 7.95586 10.3356 7.97798 10.3637C8.07468 10.487 8.2032 10.5318 8.34731 10.5207C8.40623 10.5161 8.45281 10.5207 8.49698 10.5647C8.53175 10.5993 8.58096 10.6091 8.62528 10.6307C8.62032 10.6364 8.61844 10.6406 8.61543 10.642C8.54003 10.6762 8.49871 10.7369 8.4939 10.8242C8.49209 10.857 8.47441 10.8652 8.44852 10.8711C8.38366 10.886 8.32406 10.9122 8.28417 10.9737C8.27695 10.9799 8.27138 10.9871 8.27063 10.9975C8.26077 11.0172 8.24482 11.0125 8.22834 11.0112C8.17641 11.0068 8.12434 11.001 8.07272 11.0147C8.04352 11.0136 8.01545 11.0202 7.98754 11.0282C7.94728 11.0397 7.91244 11.0681 7.87278 11.0774C7.69933 11.118 7.54123 11.1027 7.41623 10.9318C7.35852 10.8527 7.28853 10.7873 7.20501 10.7413C7.1433 10.7073 7.07813 10.6793 7.00687 10.7039C6.97888 10.7135 6.95201 10.7186 6.92259 10.7182C6.78014 10.7164 6.65357 10.8243 6.63581 10.961C6.63431 10.9723 6.62693 10.9876 6.63875 10.9941C6.65124 11.001 6.65748 10.9845 6.66516 10.9768C6.71821 10.9239 6.77894 10.8946 6.85313 10.9056C6.87405 10.9087 6.89264 10.9148 6.89753 10.941C6.91446 11.0319 6.97421 11.0677 7.053 11.078C7.12208 11.0872 7.18762 11.1085 7.25053 11.1401C7.31833 11.174 7.37771 11.2204 7.42925 11.2782C7.4367 11.2865 7.44934 11.294 7.44408 11.3079C7.43919 11.3207 7.42534 11.3192 7.4145 11.3215C7.38719 11.3272 7.3598 11.3275 7.33218 11.3236C7.25813 11.3133 7.1886 11.287 7.12005 11.2568C7.03554 11.2197 6.95322 11.1764 6.86216 11.1584C6.81995 11.1501 6.77901 11.1538 6.74101 11.1734C6.71859 11.1851 6.69691 11.1884 6.67261 11.1886C6.52128 11.1898 6.38989 11.3312 6.39779 11.4834C6.39847 11.496 6.39433 11.5143 6.40878 11.5184C6.42172 11.5222 6.42451 11.5041 6.43098 11.4951C6.46966 11.4413 6.51646 11.4018 6.58148 11.3907C6.61113 11.3857 6.63288 11.3903 6.64288 11.425C6.64883 11.4457 6.662 11.4624 6.67577 11.4783C6.71543 11.5244 6.76359 11.553 6.82191 11.5616C6.83033 11.5629 6.84102 11.5622 6.84313 11.574C6.84501 11.5844 6.83748 11.5911 6.83011 11.5966C6.82394 11.6012 6.81747 11.6053 6.81122 11.6098C6.72927 11.6691 6.68487 11.7493 6.69225 11.8575C6.69338 11.8739 6.68766 11.8978 6.70624 11.9027C6.71956 11.9061 6.72288 11.8825 6.731 11.8714C6.74026 11.8587 6.74831 11.845 6.75847 11.8332C6.81716 11.7648 6.87631 11.7507 6.956 11.7854C7.04909 11.826 7.13547 11.8229 7.21577 11.7491C7.31848 11.6547 7.4367 11.6236 7.5702 11.6554C7.62814 11.6692 7.68097 11.6641 7.72755 11.6102C7.77939 11.5502 7.83907 11.5532 7.89851 11.6046C7.91214 11.6164 7.9253 11.6289 7.93945 11.6399C7.99559 11.6836 8.05308 11.684 8.11125 11.6444C8.12607 11.6344 8.14022 11.6232 8.15519 11.6135C8.21833 11.572 8.28417 11.5659 8.3531 11.5958C8.39795 11.6152 8.43543 11.6464 8.47253 11.6784C8.5392 11.7359 8.60873 11.7886 8.69188 11.8152C8.74102 11.8309 8.79106 11.8467 8.84231 11.8228C8.87865 11.8166 8.90642 11.7964 8.92674 11.764C9.04819 11.7035 9.13255 11.7685 9.21111 11.8693C9.21645 11.814 9.21593 11.7692 9.19749 11.7267C9.14534 11.6064 9.05429 11.5539 8.93306 11.5547C8.89416 11.5138 8.84652 11.4968 8.79294 11.4981C8.71378 11.4999 8.63492 11.4982 8.55711 11.4809C8.53355 11.4757 8.50842 11.4721 8.48411 11.4485C8.52558 11.4344 8.56207 11.4223 8.5985 11.4096C8.91914 11.2974 9.20291 11.1186 9.44928 10.8718C9.57412 10.7468 9.68692 10.6106 9.78813 10.4633C9.79754 10.4495 9.80574 10.4311 9.82636 10.4477C9.88423 10.4941 9.95285 10.5104 10.0214 10.5277C10.1091 10.5497 10.1988 10.5656 10.2772 10.6182C10.2871 10.6249 10.2967 10.6393 10.3103 10.6294C10.3225 10.6207 10.3183 10.605 10.3177 10.592C10.3092 10.403 10.2332 10.2622 10.0662 10.1841C9.96279 10.1359 9.85247 10.1168 9.74366 10.0914C9.63206 10.0655 9.52024 10.0406 9.42031 9.97726C9.25784 9.87435 9.21894 9.71631 9.31338 9.5417C9.37937 9.41963 9.47584 9.32855 9.57893 9.24414C9.59368 9.23207 9.607 9.23175 9.62386 9.24044C9.6818 9.27029 9.74253 9.29105 9.80649 9.30014C9.82169 9.30231 9.83449 9.30674 9.84464 9.32171C9.93923 9.45995 10.074 9.52191 10.2272 9.54057C10.277 9.54661 10.3252 9.5413 10.3622 9.58733C10.372 9.59948 10.3901 9.60495 10.4052 9.6113C10.5413 9.66803 10.6799 9.66329 10.8192 9.62804C10.8352 9.62402 10.849 9.61831 10.8653 9.63054C11.0119 9.74134 11.1711 9.74263 11.3354 9.68831C11.3524 9.68268 11.3637 9.68606 11.3769 9.69571C11.4555 9.75325 11.5393 9.77055 11.6298 9.73168C11.6499 9.72307 11.659 9.7287 11.6638 9.75172C11.6814 9.83556 11.7255 9.89712 11.8009 9.93068C11.8185 9.93848 11.8208 9.94862 11.8139 9.96833C11.7761 10.0768 11.7975 10.1761 11.8589 10.2679C11.866 10.2786 11.8775 10.2862 11.879 10.3009C11.8532 10.3795 11.8234 10.4598 11.8471 10.5432C11.862 10.596 11.8487 10.6253 11.8129 10.659C11.7477 10.7205 11.7218 10.7989 11.7481 10.8911C11.7543 10.9128 11.7504 10.929 11.7384 10.9468C11.6957 11.0099 11.6501 11.0702 11.5978 11.1246C11.4752 11.2517 11.3315 11.2725 11.181 11.1867C11.0789 11.1285 10.9933 11.0488 10.9143 10.9602C10.8632 10.903 10.8148 10.8427 10.7491 10.8033C10.6928 10.7697 10.633 10.7568 10.5728 10.7873C10.5479 10.8 10.5246 10.8053 10.4977 10.8052C10.3594 10.8046 10.244 10.9093 10.2305 11.0465C10.2292 11.059 10.2228 11.0765 10.2366 11.0829C10.2485 11.0884 10.2545 11.0714 10.2619 11.0634C10.305 11.0169 10.3554 10.988 10.4176 10.9841C10.4479 10.9822 10.4704 10.9899 10.483 11.0237C10.4969 11.0611 10.5264 11.0854 10.557 11.107C10.5778 11.1218 10.5998 11.1349 10.6206 11.1498C10.6302 11.1567 10.6494 11.1596 10.6444 11.1752C10.6398 11.1897 10.6221 11.1818 10.6102 11.1822C10.5223 11.1843 10.4336 11.1822 10.3636 11.2553C10.3564 11.2628 10.3428 11.2635 10.332 11.2668C10.2775 11.2832 10.2302 11.3125 10.1937 11.359C10.1426 11.4241 10.1243 11.4982 10.1436 11.5919C10.1604 11.5683 10.1719 11.5515 10.184 11.5353C10.223 11.4834 10.2745 11.456 10.336 11.4497C10.3508 11.4482 10.3668 11.4468 10.3784 11.4603C10.4255 11.5151 10.487 11.5231 10.5511 11.5203C10.6087 11.5177 10.6661 11.5115 10.7236 11.5093C10.7502 11.5082 10.778 11.5081 10.806 11.5257C10.7857 11.5421 10.7638 11.5441 10.7445 11.5518C10.6989 11.5701 10.6555 11.5937 10.6315 11.6401C10.6161 11.6701 10.5956 11.6887 10.57 11.7068C10.4805 11.7703 10.4397 11.8595 10.4542 11.9751C10.4553 11.984 10.4532 11.9962 10.4635 11.9994C10.4748 12.0029 10.477 11.9904 10.4815 11.983C10.4842 11.9785 10.486 11.9734 10.4886 11.9689C10.536 11.8875 10.6274 11.8378 10.6981 11.8609C10.8124 11.8983 10.9127 11.8664 11.0002 11.7891C11.1233 11.6805 11.2643 11.6475 11.4185 11.6607C11.4576 11.6641 11.4946 11.6777 11.5253 11.7059C11.561 11.7388 11.6027 11.7538 11.6495 11.7557C11.7459 11.7594 11.834 11.7279 11.912 11.672C11.9939 11.6133 12.081 11.6094 12.1717 11.6251C12.2679 11.6418 12.3519 11.6854 12.4233 11.7592C12.5023 11.8409 12.6002 11.8465 12.6921 11.7804C12.7033 11.7723 12.7151 11.7705 12.7276 11.7697C12.8122 11.7637 12.8748 11.8027 12.9218 11.8758C12.9301 11.8888 12.9317 11.9174 12.9505 11.9107C12.9662 11.9051 12.9631 11.8783 12.9648 11.86C12.9658 11.8481 12.9652 11.8359 12.9641 11.8239C12.953 11.7029 12.873 11.6089 12.7564 11.5789C12.7385 11.5743 12.7189 11.5745 12.7054 11.5569C12.675 11.5176 12.6332 11.5008 12.5881 11.4908C12.5525 11.4828 12.5169 11.4749 12.4817 11.4652C12.3439 11.427 12.289 11.3462 12.2948 11.1934C12.2977 11.1151 12.3149 11.0395 12.3324 10.9641C12.3889 10.7197 12.4591 10.4787 12.4811 10.2264C12.4978 10.0343 12.491 9.84594 12.4055 9.66972C12.4028 9.66409 12.3989 9.65781 12.4049 9.65097C12.4182 9.65202 12.4266 9.6628 12.4369 9.66996C12.5809 9.77087 12.7341 9.84812 12.9063 9.87548C12.9265 9.87869 12.9527 9.89117 12.9657 9.86984C12.977 9.85134 12.9583 9.82993 12.949 9.81158C12.8706 9.65556 12.7537 9.53719 12.6209 9.43573C12.4382 9.29612 12.2368 9.19352 12.0286 9.1063C11.8638 9.03718 11.6992 8.9687 11.5583 8.84985C11.5485 8.84156 11.5335 8.8373 11.531 8.81525C11.6065 8.81187 11.6799 8.80608 11.7528 8.79626C12.1283 8.74581 12.4828 8.62825 12.8051 8.41324C12.9719 8.30196 13.1224 8.16967 13.2228 7.98331C13.23 7.96899 13.2373 7.95475 13.2445 7.94042C13.2476 7.93624 13.2514 7.93246 13.2536 7.92779C13.3968 7.63827 13.4114 7.34376 13.2818 7.04467C13.2696 7.01651 13.2668 6.99422 13.2789 6.96557C13.2974 6.9218 13.3119 6.87601 13.327 6.83063C13.374 6.68957 13.4185 6.54763 13.4574 6.40376C13.4601 6.39394 13.4607 6.38123 13.4714 6.3768C13.482 6.37246 13.4866 6.38292 13.4922 6.38984C13.5582 6.47304 13.6339 6.54481 13.7162 6.60903C13.7954 6.67082 13.8806 6.7216 13.9696 6.76513C13.9781 6.76932 13.9882 6.77905 13.9969 6.76851C14.0056 6.75789 13.9935 6.74912 13.9903 6.73978L13.9899 6.74027ZM12.484 7.35479C12.4637 7.35672 12.443 7.35398 12.4236 7.36324C12.406 7.36452 12.3884 7.36509 12.3708 7.36517C12.3096 7.36565 12.2484 7.36042 12.1872 7.35777C12.1602 7.35656 12.1326 7.34835 12.1071 7.33845C12.0647 7.32204 12.0341 7.29122 12.0268 7.24109C12.0193 7.1904 12.0419 7.15346 12.0776 7.12369C12.1356 7.07549 12.2047 7.0635 12.2746 7.05578C12.3241 7.0503 12.3731 7.05392 12.4216 7.06181C12.4446 7.06559 12.4675 7.07034 12.4904 7.07549C12.5394 7.10285 12.5939 7.11878 12.6369 7.15893C12.6597 7.18026 12.6807 7.20174 12.6875 7.23473C12.6875 7.23473 12.6874 7.23481 12.6873 7.23489C12.6502 7.27617 12.6018 7.29983 12.5575 7.32984C12.533 7.33813 12.5085 7.3465 12.484 7.35479ZM4.8 4.89493C4.807 4.94909 4.82618 4.99825 4.8766 5.01732C4.93033 5.03768 4.97195 5.00324 5.00867 4.9651C5.0192 4.95416 5.0268 4.94008 5.03576 4.92744C5.05051 4.92197 5.06533 4.92318 5.08023 4.9268C5.08249 4.92945 5.08475 4.93211 5.087 4.93476C5.08482 4.94804 5.08264 4.96132 5.08046 4.9746C5.06894 5.00453 5.04832 5.02658 5.02214 5.04026C4.95291 5.07663 4.8821 5.08918 4.81038 5.04645C4.76207 5.00549 4.73363 4.95512 4.74341 4.8864C4.76373 4.87836 4.78322 4.87699 4.80007 4.89501L4.8 4.89493Z" fill="#F93939"/>
</g>
<defs>
<clipPath id="clip0_1_482653">
<rect width="16" height="16" rx="8" fill="white"/>
</clipPath>
</defs>
</svg>
