<svg width="16" height="16" viewBox="0 0 16 16" fill="none" xmlns="http://www.w3.org/2000/svg">
<g clip-path="url(#clip0_1_483288)">
<rect width="16" height="16" rx="8" fill="#249F58"/>
<path fill-rule="evenodd" clip-rule="evenodd" d="M0 2.1333H16V13.8666H0V2.1333Z" fill="#FFDA2C"/>
<path fill-rule="evenodd" clip-rule="evenodd" d="M0 4.2666H16V11.7333H0V4.2666Z" fill="#F93939"/>
<path fill-rule="evenodd" clip-rule="evenodd" d="M0 6.3999H16V9.5999H0V6.3999Z" fill="#151515"/>
<path fill-rule="evenodd" clip-rule="evenodd" d="M0.761905 0L9.14286 8L0.761905 16H0V0" fill="#151515"/>
<path fill-rule="evenodd" clip-rule="evenodd" d="M0 0L8.38095 8L0 16V0Z" fill="white"/>
<path fill-rule="evenodd" clip-rule="evenodd" d="M3.19974 8.87097L1.88098 9.60016L2.13218 8.05594L1.06641 6.96168L2.54036 6.73811L3.19974 5.3335L3.85912 6.73905L5.33307 6.96262L4.26551 8.05688L4.5167 9.60016" fill="#F93939"/>
<path fill-rule="evenodd" clip-rule="evenodd" d="M2.13379 8.53324H4.26712V7.82212L3.55601 7.11101C3.55601 7.11101 3.55601 6.3999 2.8449 6.3999H2.13379L2.8449 7.11101L2.13379 8.53324Z" fill="#FFDA2C"/>
</g>
<defs>
<clipPath id="clip0_1_483288">
<rect width="16" height="16" rx="8" fill="white"/>
</clipPath>
</defs>
</svg>
