<svg width="12" height="12" viewBox="0 0 12 12" fill="none" xmlns="http://www.w3.org/2000/svg">
<path d="M0.712257 5.84428C0.662865 5.96434 0.61346 6.08442 0.564067 6.20448C0.530189 6.32925 0.553136 6.44492 0.621375 6.55262C0.691811 6.6641 0.800509 6.72419 0.915515 6.77434C1.01171 6.81624 1.05762 6.83242 1.06944 6.86283C1.0812 6.89313 1.05913 6.93755 1.01926 7.03554C0.967095 7.164 0.931951 7.29678 0.972276 7.43513C1.0382 7.66077 1.17354 7.76446 1.38765 7.79229C1.5995 7.81969 1.75524 7.70365 1.85614 7.5156C1.88623 7.45963 1.90897 7.3999 1.93161 7.34041L1.93842 7.32254C1.96371 7.25626 2.00258 7.2423 2.06619 7.2706C2.21985 7.33892 2.374 7.40561 2.52902 7.47042C2.59772 7.49902 2.61528 7.54009 2.5848 7.60899C2.54295 7.70324 2.50478 7.79885 2.48894 7.90265C2.4357 8.25244 2.77707 8.54119 3.10393 8.42608C3.29613 8.35832 3.38291 8.20403 3.45096 8.02679C3.50041 7.89773 3.51068 7.89519 3.63465 7.94856C3.94473 8.08203 4.25456 8.21584 4.56441 8.34968C4.70054 8.40847 4.83668 8.46727 4.97284 8.52604C5.02742 8.54962 5.08194 8.57334 5.13647 8.59708C5.27624 8.6579 5.41603 8.71871 5.55676 8.77709C5.63357 8.80902 5.65868 8.85078 5.62038 8.93002C5.59006 8.99283 5.56331 9.05794 5.54181 9.12467C5.47428 9.33464 5.56644 9.59855 5.73787 9.68884C5.98973 9.82161 6.22323 9.77217 6.37442 9.55671C6.43198 9.47455 6.47185 9.38412 6.5086 9.29158C6.53242 9.23155 6.57068 9.21607 6.62955 9.24155C6.71837 9.28005 6.80731 9.31833 6.8962 9.35667C6.96831 9.38777 7.04039 9.41892 7.11236 9.45027C7.16661 9.47382 7.18077 9.51034 7.15859 9.56548C7.14996 9.58677 7.14104 9.60795 7.13212 9.62913C7.11241 9.6759 7.09271 9.72267 7.07618 9.77068C7.0015 9.98733 7.08796 10.2532 7.26264 10.347C7.51645 10.4831 7.75393 10.4321 7.90757 10.2112C7.96281 10.1317 8.00201 10.045 8.03625 9.95544C8.0614 9.88985 8.10037 9.87476 8.16422 9.90325C8.28716 9.95806 8.4107 10.011 8.53432 10.064C8.5685 10.0786 8.60269 10.0933 8.63686 10.108C8.69596 10.1334 8.71096 10.1714 8.68647 10.2313C8.67845 10.2507 8.67015 10.27 8.66185 10.2894C8.63817 10.3445 8.61445 10.3998 8.59703 10.4573C8.5172 10.7224 8.64401 10.9569 8.91602 11.0622C9.08495 11.1274 9.38599 11.0456 9.46889 10.7957C9.48635 10.7433 9.51022 10.6931 9.53156 10.6422C9.58534 10.5144 9.58846 10.5109 9.71698 10.5446C10.2685 10.6899 10.9437 10.417 11.1894 9.89046C11.2856 9.68478 11.3822 9.47816 11.3829 9.23913C11.3841 8.90372 11.2799 8.60865 11.0861 8.33909C10.8387 7.99511 10.5903 7.6519 10.3419 7.30869C10.1037 6.97957 9.8655 6.65043 9.62816 6.32061C9.53548 6.19195 9.52505 6.18935 9.37443 6.25114C9.00095 6.40448 8.62774 6.55823 8.25461 6.71265C8.17358 6.74636 8.09098 6.77416 8.00409 6.78609C7.81301 6.81219 7.64441 6.71213 7.57561 6.53353C7.50901 6.36052 7.56822 6.16027 7.71849 6.05025C7.76899 6.01337 7.8253 5.98839 7.88264 5.96487C7.98134 5.92418 8.08005 5.88356 8.17877 5.84294C8.40293 5.7507 8.62711 5.65845 8.851 5.56547C9.00805 5.50023 9.0154 5.47265 8.91839 5.33529C8.86092 5.25397 8.80243 5.17319 8.74397 5.09266C8.64123 4.95148 8.62549 4.9468 8.46226 5.01365C8.16291 5.13634 7.86369 5.26015 7.56438 5.38328C7.41925 5.44308 7.2792 5.43875 7.15225 5.33722C6.91002 5.14358 6.95742 4.76461 7.2438 4.63444C7.39416 4.56609 7.54729 4.5043 7.70039 4.44252C7.79015 4.4063 7.8799 4.37007 7.96908 4.33254C8.11406 4.2714 8.1249 4.23421 8.03252 4.10439C7.96741 4.01291 7.90161 3.92194 7.83582 3.83099C7.73728 3.69474 7.63875 3.55852 7.54256 3.42065C7.46145 3.30458 7.36479 3.21546 7.23132 3.17129C7.07682 3.10466 6.92225 3.03792 6.76764 2.97115C6.59779 2.89782 6.42788 2.82445 6.25791 2.75116C5.9865 2.6339 5.79311 2.69506 5.63998 2.95253C5.59438 3.02948 5.53423 3.08185 5.45297 3.11174C5.07749 3.24983 4.52102 3.0077 4.36035 2.63568C4.32713 2.55848 4.32117 2.48081 4.34207 2.39775C4.41808 2.09427 4.3315 1.91976 4.04989 1.79809C3.71985 1.65555 3.38936 1.51306 3.05886 1.37035C2.79903 1.25803 2.65015 1.29313 2.49902 1.50162C1.98809 2.74313 1.47733 3.98464 0.966573 5.22612C1.61562 5.51101 2.26468 5.79593 2.91377 6.08091L3.20446 6.20855C5.52996 7.22954 7.85547 8.25053 10.1809 9.27117C10.3799 9.35838 10.3881 9.38836 10.2259 9.52387C9.98585 9.72437 9.71531 9.77808 9.41709 9.663C9.37938 9.6483 9.34232 9.632 9.30519 9.61569C9.29035 9.60916 9.2755 9.60263 9.26059 9.59619L6.97926 8.59475C4.89037 7.67774 2.80144 6.76072 0.712257 5.84428Z" fill="#FAFAFA"/>
<path d="M0.712257 5.84428C0.662865 5.96434 0.61346 6.08442 0.564067 6.20448C0.530189 6.32925 0.553136 6.44492 0.621375 6.55262C0.691811 6.6641 0.800509 6.72419 0.915515 6.77434C1.01171 6.81624 1.05762 6.83242 1.06944 6.86283C1.0812 6.89313 1.05913 6.93755 1.01926 7.03554C0.967095 7.164 0.931951 7.29678 0.972276 7.43513C1.0382 7.66077 1.17354 7.76446 1.38765 7.79229C1.5995 7.81969 1.75524 7.70365 1.85614 7.5156C1.88623 7.45963 1.90897 7.3999 1.93161 7.34041L1.93842 7.32254C1.96371 7.25626 2.00258 7.2423 2.06619 7.2706C2.21985 7.33892 2.374 7.40561 2.52902 7.47042C2.59772 7.49902 2.61528 7.54009 2.5848 7.60899C2.54295 7.70324 2.50478 7.79885 2.48894 7.90265C2.4357 8.25244 2.77707 8.54119 3.10393 8.42608C3.29613 8.35832 3.38291 8.20403 3.45096 8.02679C3.50041 7.89773 3.51068 7.89519 3.63465 7.94856C3.94473 8.08203 4.25456 8.21584 4.56441 8.34968C4.70054 8.40847 4.83668 8.46727 4.97284 8.52604C5.02742 8.54962 5.08194 8.57334 5.13647 8.59708C5.27624 8.6579 5.41603 8.71871 5.55676 8.77709C5.63357 8.80902 5.65868 8.85078 5.62038 8.93002C5.59006 8.99283 5.56331 9.05794 5.54181 9.12467C5.47428 9.33464 5.56644 9.59855 5.73787 9.68884C5.98973 9.82161 6.22323 9.77217 6.37442 9.55671C6.43198 9.47455 6.47185 9.38412 6.5086 9.29158C6.53242 9.23155 6.57068 9.21607 6.62955 9.24155C6.71837 9.28005 6.80731 9.31833 6.8962 9.35667C6.96831 9.38777 7.04039 9.41892 7.11236 9.45027C7.16661 9.47382 7.18077 9.51034 7.15859 9.56548C7.14996 9.58677 7.14104 9.60795 7.13212 9.62913C7.11241 9.6759 7.09271 9.72267 7.07618 9.77068C7.0015 9.98733 7.08796 10.2532 7.26264 10.347C7.51645 10.4831 7.75393 10.4321 7.90757 10.2112C7.96281 10.1317 8.00201 10.045 8.03625 9.95544C8.0614 9.88985 8.10037 9.87476 8.16422 9.90325C8.28716 9.95806 8.4107 10.011 8.53432 10.064C8.5685 10.0786 8.60269 10.0933 8.63686 10.108C8.69596 10.1334 8.71096 10.1714 8.68647 10.2313C8.67845 10.2507 8.67015 10.27 8.66185 10.2894C8.63817 10.3445 8.61445 10.3998 8.59703 10.4573C8.5172 10.7224 8.64401 10.9569 8.91602 11.0622C9.08495 11.1274 9.38599 11.0456 9.46889 10.7957C9.48635 10.7433 9.51022 10.6931 9.53156 10.6422C9.58534 10.5144 9.58846 10.5109 9.71698 10.5446C10.2685 10.6899 10.9437 10.417 11.1894 9.89046C11.2856 9.68478 11.3822 9.47816 11.3829 9.23913C11.3841 8.90372 11.2799 8.60865 11.0861 8.33909C10.8387 7.99511 10.5903 7.6519 10.3419 7.30869C10.1037 6.97957 9.8655 6.65043 9.62816 6.32061C9.53548 6.19195 9.52505 6.18935 9.37443 6.25114C9.00095 6.40448 8.62774 6.55823 8.25461 6.71265C8.17358 6.74636 8.09098 6.77416 8.00409 6.78609C7.81301 6.81219 7.64441 6.71213 7.57561 6.53353C7.50901 6.36052 7.56822 6.16027 7.71849 6.05025C7.76899 6.01337 7.8253 5.98839 7.88264 5.96487C7.98134 5.92418 8.08005 5.88356 8.17877 5.84294C8.40293 5.7507 8.62711 5.65845 8.851 5.56547C9.00805 5.50023 9.0154 5.47265 8.91839 5.33529C8.86092 5.25397 8.80243 5.17319 8.74397 5.09266C8.64123 4.95148 8.62549 4.9468 8.46226 5.01365C8.16291 5.13634 7.86369 5.26015 7.56438 5.38328C7.41925 5.44308 7.2792 5.43875 7.15225 5.33722C6.91002 5.14358 6.95742 4.76461 7.2438 4.63444C7.39416 4.56609 7.54729 4.5043 7.70039 4.44252C7.79015 4.4063 7.8799 4.37007 7.96908 4.33254C8.11406 4.2714 8.1249 4.23421 8.03252 4.10439C7.96741 4.01291 7.90161 3.92194 7.83582 3.83099C7.73728 3.69474 7.63875 3.55852 7.54256 3.42065C7.46145 3.30458 7.36479 3.21546 7.23132 3.17129C7.07682 3.10466 6.92225 3.03792 6.76764 2.97115C6.59779 2.89782 6.42788 2.82445 6.25791 2.75116C5.9865 2.6339 5.79311 2.69506 5.63998 2.95253C5.59438 3.02948 5.53423 3.08185 5.45297 3.11174C5.07749 3.24983 4.52102 3.0077 4.36035 2.63568C4.32713 2.55848 4.32117 2.48081 4.34207 2.39775C4.41808 2.09427 4.3315 1.91976 4.04989 1.79809C3.71985 1.65555 3.38936 1.51306 3.05886 1.37035C2.79903 1.25803 2.65015 1.29313 2.49902 1.50162C1.98809 2.74313 1.47733 3.98464 0.966573 5.22612C1.61562 5.51101 2.26468 5.79593 2.91377 6.08091L3.20446 6.20855C5.52996 7.22954 7.85547 8.25053 10.1809 9.27117C10.3799 9.35838 10.3881 9.38836 10.2259 9.52387C9.98585 9.72437 9.71531 9.77808 9.41709 9.663C9.37938 9.6483 9.34232 9.632 9.30519 9.61569C9.29035 9.60916 9.2755 9.60263 9.26059 9.59619L6.97926 8.59475C4.89037 7.67774 2.80144 6.76072 0.712257 5.84428Z" fill="url(#paint0_linear_1_478708)" fill-opacity="0.4" style="mix-blend-mode:multiply"/>
<path d="M0.564453 6.20485L0.712617 5.84466C2.80182 6.76108 4.89075 7.67812 6.97962 8.59514L9.26096 9.59658C9.27366 9.60203 9.28634 9.60761 9.29899 9.61316L9.30556 9.61606C9.3427 9.63238 9.37975 9.64867 9.41747 9.66336C9.6181 9.74079 9.80622 9.74181 9.98094 9.67313L11.042 10.1224C10.7322 10.4936 10.1811 10.6671 9.71735 10.545C9.58882 10.5113 9.58571 10.5148 9.53195 10.6425C9.51897 10.6735 9.50508 10.7042 9.49226 10.7351C9.48397 10.7552 9.47613 10.7755 9.46927 10.796C9.38635 11.046 9.08532 11.1278 8.91639 11.0626C8.64437 10.9573 8.51758 10.7228 8.59739 10.4577C8.61481 10.4001 8.63855 10.3449 8.66223 10.2897C8.67051 10.2704 8.67883 10.2511 8.68683 10.2317C8.71134 10.1718 8.69634 10.1338 8.63724 10.1084L8.53469 10.0644L8.53335 10.0638C8.41016 10.011 8.28708 9.95824 8.1646 9.90362C8.10075 9.87514 8.06177 9.89022 8.03661 9.95582C8.00237 10.0454 7.96319 10.1321 7.90794 10.2115C7.7543 10.4325 7.51681 10.4835 7.26301 10.3473C7.08833 10.2536 7.00188 9.98769 7.07653 9.77105C7.09308 9.72303 7.11276 9.67627 7.13248 9.62951L7.1337 9.62662C7.14221 9.60639 7.15073 9.58619 7.15896 9.56586C7.18115 9.51072 7.16697 9.4742 7.11273 9.45065C7.04076 9.4193 6.96869 9.38815 6.89657 9.35704C6.80769 9.31872 6.71875 9.28043 6.62991 9.24192C6.57106 9.21644 6.53279 9.23192 6.50897 9.29196C6.47221 9.38451 6.43235 9.47491 6.3748 9.55708C6.22361 9.77254 5.99009 9.82198 5.73824 9.6892C5.5668 9.59893 5.47466 9.33502 5.54218 9.12504C5.56369 9.05831 5.59043 8.9932 5.62076 8.93038C5.65905 8.85116 5.63394 8.80941 5.55713 8.77747C5.48522 8.74764 5.41356 8.71718 5.34202 8.68639C5.27354 8.65693 5.20518 8.62721 5.13685 8.59746C5.08231 8.5737 5.02778 8.54997 4.97321 8.52641L4.56477 8.35006C4.35558 8.2597 4.14642 8.16933 3.93715 8.07911L3.63503 7.94894C3.51105 7.89556 3.50078 7.8981 3.45132 8.02716C3.38328 8.2044 3.29648 8.35869 3.10431 8.42644C2.77742 8.54156 2.43608 8.25282 2.48932 7.90301C2.50517 7.79922 2.54332 7.70362 2.58517 7.60935C2.61565 7.54047 2.5981 7.49939 2.52941 7.47078C2.37438 7.40599 2.22023 7.3393 2.06656 7.27097C2.00295 7.24268 1.96408 7.25665 1.93879 7.3229L1.93198 7.34077C1.90936 7.40027 1.8866 7.46 1.85651 7.51597C1.75562 7.70401 1.59986 7.82007 1.38802 7.79266C1.1739 7.76484 1.03856 7.66114 0.972652 7.4355C0.932311 7.29715 0.967474 7.16439 1.01963 7.03591L1.03457 6.99956C1.0648 6.92638 1.08001 6.88948 1.0698 6.86322C1.05943 6.83658 1.0229 6.82083 0.949276 6.78916L0.915894 6.77472C0.80087 6.72458 0.692167 6.66447 0.62173 6.55299C0.553505 6.44529 0.530557 6.32962 0.564453 6.20485Z" fill="url(#paint1_linear_1_478708)"/>
<path d="M0.564453 6.20485L0.712617 5.84466C2.80182 6.76108 4.89075 7.67812 6.97962 8.59514L9.26096 9.59658C9.27366 9.60203 9.28634 9.60761 9.29899 9.61316L9.30556 9.61606C9.3427 9.63238 9.37975 9.64867 9.41747 9.66336C9.6181 9.74079 9.80622 9.74181 9.98094 9.67313L11.042 10.1224C10.7322 10.4936 10.1811 10.6671 9.71735 10.545C9.58882 10.5113 9.58571 10.5148 9.53195 10.6425C9.51897 10.6735 9.50508 10.7042 9.49226 10.7351C9.48397 10.7552 9.47613 10.7755 9.46927 10.796C9.38635 11.046 9.08532 11.1278 8.91639 11.0626C8.64437 10.9573 8.51758 10.7228 8.59739 10.4577C8.61481 10.4001 8.63855 10.3449 8.66223 10.2897C8.67051 10.2704 8.67883 10.2511 8.68683 10.2317C8.71134 10.1718 8.69634 10.1338 8.63724 10.1084L8.53469 10.0644L8.53335 10.0638C8.41016 10.011 8.28708 9.95824 8.1646 9.90362C8.10075 9.87514 8.06177 9.89022 8.03661 9.95582C8.00237 10.0454 7.96319 10.1321 7.90794 10.2115C7.7543 10.4325 7.51681 10.4835 7.26301 10.3473C7.08833 10.2536 7.00188 9.98769 7.07653 9.77105C7.09308 9.72303 7.11276 9.67627 7.13248 9.62951L7.1337 9.62662C7.14221 9.60639 7.15073 9.58619 7.15896 9.56586C7.18115 9.51072 7.16697 9.4742 7.11273 9.45065C7.04076 9.4193 6.96869 9.38815 6.89657 9.35704C6.80769 9.31872 6.71875 9.28043 6.62991 9.24192C6.57106 9.21644 6.53279 9.23192 6.50897 9.29196C6.47221 9.38451 6.43235 9.47491 6.3748 9.55708C6.22361 9.77254 5.99009 9.82198 5.73824 9.6892C5.5668 9.59893 5.47466 9.33502 5.54218 9.12504C5.56369 9.05831 5.59043 8.9932 5.62076 8.93038C5.65905 8.85116 5.63394 8.80941 5.55713 8.77747C5.48522 8.74764 5.41356 8.71718 5.34202 8.68639C5.27354 8.65693 5.20518 8.62721 5.13685 8.59746C5.08231 8.5737 5.02778 8.54997 4.97321 8.52641L4.56477 8.35006C4.35558 8.2597 4.14642 8.16933 3.93715 8.07911L3.63503 7.94894C3.51105 7.89556 3.50078 7.8981 3.45132 8.02716C3.38328 8.2044 3.29648 8.35869 3.10431 8.42644C2.77742 8.54156 2.43608 8.25282 2.48932 7.90301C2.50517 7.79922 2.54332 7.70362 2.58517 7.60935C2.61565 7.54047 2.5981 7.49939 2.52941 7.47078C2.37438 7.40599 2.22023 7.3393 2.06656 7.27097C2.00295 7.24268 1.96408 7.25665 1.93879 7.3229L1.93198 7.34077C1.90936 7.40027 1.8866 7.46 1.85651 7.51597C1.75562 7.70401 1.59986 7.82007 1.38802 7.79266C1.1739 7.76484 1.03856 7.66114 0.972652 7.4355C0.932311 7.29715 0.967474 7.16439 1.01963 7.03591L1.03457 6.99956C1.0648 6.92638 1.08001 6.88948 1.0698 6.86322C1.05943 6.83658 1.0229 6.82083 0.949276 6.78916L0.915894 6.77472C0.80087 6.72458 0.692167 6.66447 0.62173 6.55299C0.553505 6.44529 0.530557 6.32962 0.564453 6.20485Z" fill="black" fill-opacity="0.2"/>
<defs>
<linearGradient id="paint0_linear_1_478708" x1="10.5273" y1="10.3882" x2="1.73115" y2="2.86556" gradientUnits="userSpaceOnUse">
<stop stop-color="#333333"/>
<stop offset="1" stop-color="white"/>
</linearGradient>
<linearGradient id="paint1_linear_1_478708" x1="3.52093" y1="8.228" x2="10.9666" y2="9.8621" gradientUnits="userSpaceOnUse">
<stop stop-color="#9E9E9E"/>
<stop offset="1" stop-color="#F4F4F4" stop-opacity="0.62"/>
</linearGradient>
</defs>
</svg>
