<svg width="12" height="12" viewBox="0 0 12 12" fill="none" xmlns="http://www.w3.org/2000/svg">
<circle cx="5.99988" cy="6.21484" r="5.5" fill="#333333"/>
<path fill-rule="evenodd" clip-rule="evenodd" d="M5.70517 2.33411C5.88042 2.46143 6.11771 2.46143 6.29296 2.33411L8.00352 1.09131C8.64461 1.34232 9.22709 1.71019 9.72476 2.1687L9.4725 4.56881C9.44986 4.78423 9.56851 4.98974 9.76639 5.07784L11.4868 5.8438C11.4949 5.96635 11.4991 6.09 11.4991 6.21462C11.4991 7.11037 11.2849 7.9561 10.9051 8.70343L8.46905 8.87377C8.25296 8.88888 8.07118 9.04141 8.01878 9.25159L7.45311 11.5204C6.98994 11.647 6.5024 11.7146 5.99906 11.7146C5.4781 11.7146 4.97405 11.6422 4.49644 11.5068L3.93787 9.26656C3.88547 9.05638 3.70369 8.90385 3.4876 8.88874L1.10253 8.72196C0.741365 8.01806 0.527522 7.22612 0.501709 6.38683L2.32473 5.15719C2.50431 5.03606 2.58547 4.81308 2.52576 4.60485L1.92717 2.51731C2.49242 1.89516 3.1983 1.40309 3.99461 1.09131L5.70517 2.33411Z" fill="url(#paint0_linear_1_478678)"/>
<path d="M11.2712 7.81836C10.8128 9.42253 9.03789 11.7142 6.00032 11.7142C2.96276 11.7142 1.18783 9.42253 0.729492 7.81836C1.41699 9.25333 2.96277 10.5684 6.00033 10.5684C9.0379 10.5684 10.4392 9.45744 11.2712 7.81836Z" fill="black" fill-opacity="0.25"/>
<path opacity="0.2" fill-rule="evenodd" clip-rule="evenodd" d="M5.99936 1.63086C5.74623 1.63086 5.54103 1.83606 5.54103 2.08919V3.79746L4.01658 4.90504L2.09599 4.39042C1.85149 4.32491 1.60017 4.47001 1.53465 4.71451C1.46914 4.95902 1.61424 5.21034 1.85874 5.27585L3.49891 5.71533L4.18017 7.81203L3.11552 8.87668C2.93653 9.05567 2.93653 9.34587 3.11552 9.52486C3.29451 9.70385 3.58471 9.70385 3.7637 9.52486L4.8499 8.43866H6.91133L7.91868 9.44601C8.09767 9.625 8.38787 9.625 8.56686 9.44601C8.74585 9.26702 8.74585 8.97682 8.56686 8.79783L7.76155 7.99252L8.49698 5.72909L10.0084 5.18291C10.2465 5.09688 10.3697 4.83415 10.2837 4.59609C10.1977 4.35803 9.93495 4.23478 9.69689 4.32081L8.01579 4.92829L6.45769 3.79627V2.08919C6.45769 1.83606 6.25249 1.63086 5.99936 1.63086Z" fill="#222222"/>
<path d="M5.70628 3.67837C5.88152 3.55105 6.11882 3.55105 6.29406 3.67837L8.32168 5.15152C8.49693 5.27884 8.57025 5.50453 8.50332 5.71054L7.72884 8.09415C7.6619 8.30016 7.46992 8.43964 7.25331 8.43964H4.74703C4.53042 8.43964 4.33844 8.30016 4.2715 8.09415L3.49702 5.71054C3.43009 5.50453 3.50341 5.27884 3.67866 5.15152L5.70628 3.67837Z" fill="#333333"/>
<defs>
<linearGradient id="paint0_linear_1_478678" x1="1.87411" y1="1.17283" x2="9.89493" y2="11.027" gradientUnits="userSpaceOnUse">
<stop stop-color="white"/>
<stop offset="1" stop-color="#E8E8E8"/>
</linearGradient>
</defs>
</svg>
