<svg width="12" height="13" viewBox="0 0 12 13" fill="none" xmlns="http://www.w3.org/2000/svg">
<path d="M0 3.2168C0 2.38837 0.671573 1.7168 1.5 1.7168H10.5C11.3284 1.7168 12 2.38837 12 3.2168V4.7168H0V3.2168Z" fill="url(#paint0_linear_1_478768)"/>
<g filter="url(#filter0_d_1_478768)">
<path d="M12 10.7168C12 11.5452 11.3284 12.2168 10.5 12.2168L1.5 12.2168C0.671573 12.2168 5.87108e-08 11.5452 1.31134e-07 10.7168L6.55671e-07 4.7168L12 4.7168L12 10.7168Z" fill="url(#paint1_linear_1_478768)"/>
</g>
<path d="M6.81737 8.09066C6.44137 7.89066 6.25337 7.57666 6.25337 7.14866C6.25337 6.93266 6.30937 6.73666 6.42137 6.56066C6.53337 6.38066 6.70337 6.23866 6.93137 6.13466C7.15937 6.02666 7.43937 5.97266 7.77137 5.97266C8.10337 5.97266 8.38137 6.02666 8.60537 6.13466C8.83337 6.23866 9.00337 6.38066 9.11537 6.56066C9.22737 6.73666 9.28337 6.93266 9.28337 7.14866C9.28337 7.36466 9.23137 7.55266 9.12737 7.71266C9.02737 7.87266 8.89137 7.99866 8.71937 8.09066C8.93537 8.19466 9.10137 8.33866 9.21737 8.52266C9.33337 8.70266 9.39137 8.91466 9.39137 9.15866C9.39137 9.44266 9.31937 9.68866 9.17537 9.89666C9.03137 10.1007 8.83537 10.2567 8.58737 10.3647C8.34337 10.4727 8.07137 10.5267 7.77137 10.5267C7.47137 10.5267 7.19737 10.4727 6.94937 10.3647C6.70537 10.2567 6.51137 10.1007 6.36737 9.89666C6.22337 9.68866 6.15137 9.44266 6.15137 9.15866C6.15137 8.91066 6.20937 8.69666 6.32537 8.51666C6.44137 8.33266 6.60537 8.19066 6.81737 8.09066ZM8.28737 7.30466C8.28737 7.14066 8.23937 7.01466 8.14337 6.92666C8.05137 6.83466 7.92737 6.78866 7.77137 6.78866C7.61537 6.78866 7.48937 6.83466 7.39337 6.92666C7.30137 7.01866 7.25537 7.14666 7.25537 7.31066C7.25537 7.46666 7.30337 7.59066 7.39937 7.68266C7.49537 7.77066 7.61937 7.81466 7.77137 7.81466C7.92337 7.81466 8.04737 7.76866 8.14337 7.67666C8.23937 7.58466 8.28737 7.46066 8.28737 7.30466ZM7.77137 8.53466C7.58337 8.53466 7.43137 8.58666 7.31537 8.69066C7.19937 8.79066 7.14137 8.93066 7.14137 9.11066C7.14137 9.27866 7.19737 9.41666 7.30937 9.52466C7.42537 9.63266 7.57937 9.68666 7.77137 9.68666C7.96337 9.68666 8.11337 9.63266 8.22137 9.52466C8.33337 9.41666 8.38937 9.27866 8.38937 9.11066C8.38937 8.93466 8.33137 8.79466 8.21537 8.69066C8.10337 8.58666 7.95537 8.53466 7.77137 8.53466Z" fill="#222222"/>
<path d="M2.63309 9.6208C2.76909 9.5128 2.83109 9.4628 2.81909 9.4708C3.21109 9.1468 3.51909 8.8808 3.74309 8.6728C3.97109 8.4648 4.16309 8.2468 4.31909 8.0188C4.47509 7.7908 4.55309 7.5688 4.55309 7.3528C4.55309 7.1888 4.51509 7.0608 4.43909 6.9688C4.36309 6.8768 4.24909 6.8308 4.09709 6.8308C3.94509 6.8308 3.82509 6.8888 3.73709 7.0048C3.65309 7.1168 3.61109 7.2768 3.61109 7.4848H2.62109C2.62909 7.1448 2.70109 6.8608 2.83709 6.6328C2.97709 6.4048 3.15909 6.2368 3.38309 6.1288C3.61109 6.0208 3.86309 5.9668 4.13909 5.9668C4.61509 5.9668 4.97309 6.0888 5.21309 6.3328C5.45709 6.5768 5.57909 6.8948 5.57909 7.2868C5.57909 7.7148 5.43309 8.1128 5.14109 8.4808C4.84909 8.8448 4.47709 9.2008 4.02509 9.5488H5.64509V10.3828H2.63309V9.6208Z" fill="#222222"/>
<path d="M3.375 1.3418L3.375 3.2168" stroke="url(#paint2_linear_1_478768)" stroke-width="0.75" stroke-linecap="round"/>
<path d="M8.625 1.3418L8.625 3.2168" stroke="url(#paint3_linear_1_478768)" stroke-width="0.75" stroke-linecap="round"/>
<defs>
<filter id="filter0_d_1_478768" x="0" y="4.7168" width="12" height="8.25" filterUnits="userSpaceOnUse" color-interpolation-filters="sRGB">
<feFlood flood-opacity="0" result="BackgroundImageFix"/>
<feColorMatrix in="SourceAlpha" type="matrix" values="0 0 0 0 0 0 0 0 0 0 0 0 0 0 0 0 0 0 127 0" result="hardAlpha"/>
<feOffset dy="0.75"/>
<feComposite in2="hardAlpha" operator="out"/>
<feColorMatrix type="matrix" values="0 0 0 0 0.688477 0 0 0 0 0.688477 0 0 0 0 0.688477 0 0 0 1 0"/>
<feBlend mode="normal" in2="BackgroundImageFix" result="effect1_dropShadow_1_478768"/>
<feBlend mode="normal" in="SourceGraphic" in2="effect1_dropShadow_1_478768" result="shape"/>
</filter>
<linearGradient id="paint0_linear_1_478768" x1="5.625" y1="1.7168" x2="11.1946" y2="5.81211" gradientUnits="userSpaceOnUse">
<stop stop-color="#FF4A4A"/>
<stop offset="1" stop-color="#F97967"/>
</linearGradient>
<linearGradient id="paint1_linear_1_478768" x1="6" y1="12.2168" x2="6" y2="4.7168" gradientUnits="userSpaceOnUse">
<stop stop-color="white"/>
<stop offset="1" stop-color="#EEEEEE"/>
</linearGradient>
<linearGradient id="paint2_linear_1_478768" x1="3.375" y1="0.966797" x2="3.375" y2="3.5918" gradientUnits="userSpaceOnUse">
<stop stop-color="white"/>
<stop offset="1" stop-color="#E5E5E5"/>
</linearGradient>
<linearGradient id="paint3_linear_1_478768" x1="8.625" y1="0.966797" x2="8.625" y2="3.5918" gradientUnits="userSpaceOnUse">
<stop stop-color="white"/>
<stop offset="1" stop-color="#E5E5E5"/>
</linearGradient>
</defs>
</svg>
