<svg width="12" height="12" viewBox="0 0 12 12" fill="none" xmlns="http://www.w3.org/2000/svg">
<path d="M5.43613 1.71595C5.78661 1.52203 6.21219 1.52203 6.56267 1.71595L10.1957 3.72606C10.566 3.93097 10.7958 4.32083 10.7958 4.74408V8.67989C10.7958 9.10315 10.566 9.49301 10.1957 9.69792L6.56267 11.708C6.21219 11.9019 5.78661 11.9019 5.43613 11.708L1.80315 9.69792C1.4328 9.49301 1.20295 9.10315 1.20295 8.6799V4.74408C1.20295 4.32083 1.4328 3.93097 1.80315 3.72606L5.43613 1.71595Z" fill="#A64D48"/>
<path d="M5.43613 1.25404C5.78661 1.06012 6.21219 1.06012 6.56267 1.25403L10.1957 3.26414C10.566 3.46905 10.7958 3.85892 10.7958 4.28217V8.21798C10.7958 8.64123 10.566 9.0311 10.1957 9.236L6.56267 11.2461C6.21219 11.44 5.78661 11.44 5.43613 11.2461L1.80315 9.23601C1.4328 9.0311 1.20295 8.64123 1.20295 8.21798V4.28217C1.20295 3.85892 1.4328 3.46905 1.80315 3.26414L5.43613 1.25404Z" fill="url(#paint0_linear_1_478719)"/>
<path d="M2.53401 2.85971C2.59796 2.61199 2.61663 2.33302 2.59452 2.09492C2.30364 2.26904 1.88956 2.61663 1.72846 2.91428C1.64561 3.06721 1.58874 3.28055 1.53397 3.48999C1.62598 3.38886 1.73499 3.30181 1.85832 3.23359L2.53401 2.85971Z" fill="#FFE3D0"/>
<path d="M2.53401 2.85971C2.59796 2.61199 2.61663 2.33302 2.59452 2.09492C2.30364 2.26904 1.88956 2.61663 1.72846 2.91428C1.64561 3.06721 1.58874 3.28055 1.53397 3.48999C1.62598 3.38886 1.73499 3.30181 1.85832 3.23359L2.53401 2.85971Z" fill="url(#paint1_linear_1_478719)" fill-opacity="0.8"/>
<path d="M1.48515 3.54692C1.55327 3.0662 1.66282 2.58889 1.81522 2.12326C2.10098 1.99638 2.33936 1.77567 2.46694 1.48208C2.60108 1.17295 2.57846 0.830764 2.49173 0.480469C2.20011 0.65594 1.89832 0.911076 1.76345 1.21951C1.63586 1.5138 1.64099 1.82629 1.75325 2.10098C1.66649 2.31023 1.59431 2.52418 1.5309 2.74084C1.48569 2.89402 1.44707 3.04927 1.41355 3.20519C1.41848 3.14062 1.42484 3.07381 1.43129 3.00639C1.45236 2.7856 1.47406 2.55857 1.4478 2.38378C1.39822 2.05442 1.12556 1.6022 0.909781 1.35115C0.756705 1.67578 0.657546 2.1118 0.707858 2.44184C0.740732 2.66078 0.950458 2.92887 1.14666 3.1797C1.22444 3.27914 1.30011 3.37584 1.36177 3.46571C1.36033 3.47424 1.35878 3.48278 1.35718 3.49134C1.35309 3.51317 1.34867 3.53501 1.34501 3.55684C1.32895 3.65459 1.31498 3.75273 1.3032 3.85113C1.34932 3.74177 1.41059 3.63932 1.48515 3.54692Z" fill="#FFE3D0"/>
<path d="M1.48515 3.54692C1.55327 3.0662 1.66282 2.58889 1.81522 2.12326C2.10098 1.99638 2.33936 1.77567 2.46694 1.48208C2.60108 1.17295 2.57846 0.830764 2.49173 0.480469C2.20011 0.65594 1.89832 0.911076 1.76345 1.21951C1.63586 1.5138 1.64099 1.82629 1.75325 2.10098C1.66649 2.31023 1.59431 2.52418 1.5309 2.74084C1.48569 2.89402 1.44707 3.04927 1.41355 3.20519C1.41848 3.14062 1.42484 3.07381 1.43129 3.00639C1.45236 2.7856 1.47406 2.55857 1.4478 2.38378C1.39822 2.05442 1.12556 1.6022 0.909781 1.35115C0.756705 1.67578 0.657546 2.1118 0.707858 2.44184C0.740732 2.66078 0.950458 2.92887 1.14666 3.1797C1.22444 3.27914 1.30011 3.37584 1.36177 3.46571C1.36033 3.47424 1.35878 3.48278 1.35718 3.49134C1.35309 3.51317 1.34867 3.53501 1.34501 3.55684C1.32895 3.65459 1.31498 3.75273 1.3032 3.85113C1.34932 3.74177 1.41059 3.63932 1.48515 3.54692Z" fill="url(#paint2_linear_1_478719)" fill-opacity="0.8"/>
<path d="M1.20354 4.4727C1.2032 4.47025 1.20283 4.46783 1.2025 4.46538C1.16999 4.23678 1.13658 4.00201 1.06725 3.83017C0.935303 3.50419 0.547485 3.10124 0.266095 2.89C0.189528 3.25311 0.196092 3.71882 0.327308 4.0448C0.41472 4.26165 0.695097 4.49161 0.957191 4.7066C1.04384 4.77767 1.12852 4.84711 1.20354 4.9139V4.4727Z" fill="#FFE3D0"/>
<path d="M1.20354 4.4727C1.2032 4.47025 1.20283 4.46783 1.2025 4.46538C1.16999 4.23678 1.13658 4.00201 1.06725 3.83017C0.935303 3.50419 0.547485 3.10124 0.266095 2.89C0.189528 3.25311 0.196092 3.71882 0.327308 4.0448C0.41472 4.26165 0.695097 4.49161 0.957191 4.7066C1.04384 4.77767 1.12852 4.84711 1.20354 4.9139V4.4727Z" fill="url(#paint3_linear_1_478719)" fill-opacity="0.8"/>
<path d="M1.20354 5.54232C1.17393 5.4988 1.14362 5.45846 1.11246 5.42234C0.870427 5.14157 0.349196 4.86148 0 4.73728C0.0503118 5.11659 0.21798 5.5715 0.459989 5.85228C0.604445 6.01944 0.904288 6.15116 1.20354 6.27235V5.54232Z" fill="#FFE3D0"/>
<path d="M1.20354 5.54232C1.17393 5.4988 1.14362 5.45846 1.11246 5.42234C0.870427 5.14157 0.349196 4.86148 0 4.73728C0.0503118 5.11659 0.21798 5.5715 0.459989 5.85228C0.604445 6.01944 0.904288 6.15116 1.20354 6.27235V5.54232Z" fill="url(#paint4_linear_1_478719)" fill-opacity="0.8"/>
<path d="M1.20354 6.73217C0.901752 6.63098 0.5545 6.56743 0.301814 6.55016C0.473116 6.91057 0.784396 7.31419 1.1139 7.52476C1.14117 7.5422 1.17117 7.55811 1.20354 7.57273V6.73217Z" fill="#FFE3D0"/>
<path d="M1.20354 6.73217C0.901752 6.63098 0.5545 6.56743 0.301814 6.55016C0.473116 6.91057 0.784396 7.31419 1.1139 7.52476C1.14117 7.5422 1.17117 7.55811 1.20354 7.57273V6.73217Z" fill="url(#paint5_linear_1_478719)" fill-opacity="0.8"/>
<path d="M9.46599 2.85971C9.40204 2.61199 9.38337 2.33302 9.40548 2.09492C9.69636 2.26904 10.1104 2.61663 10.2715 2.91428C10.3544 3.06721 10.4113 3.28055 10.466 3.48999C10.374 3.38886 10.265 3.30181 10.1417 3.23359L9.46599 2.85971Z" fill="#FFE3D0"/>
<path d="M9.46599 2.85971C9.40204 2.61199 9.38337 2.33302 9.40548 2.09492C9.69636 2.26904 10.1104 2.61663 10.2715 2.91428C10.3544 3.06721 10.4113 3.28055 10.466 3.48999C10.374 3.38886 10.265 3.30181 10.1417 3.23359L9.46599 2.85971Z" fill="url(#paint6_linear_1_478719)" fill-opacity="0.8"/>
<path d="M10.5148 3.54692C10.4467 3.0662 10.3372 2.58889 10.1848 2.12326C9.89902 1.99638 9.66064 1.77567 9.53306 1.48208C9.39892 1.17295 9.42154 0.830764 9.50827 0.480469C9.79989 0.65594 10.1017 0.911076 10.2366 1.21951C10.3641 1.5138 10.359 1.82629 10.2468 2.10098C10.3335 2.31023 10.4057 2.52418 10.4691 2.74084C10.5143 2.89402 10.5529 3.04927 10.5865 3.20519C10.5815 3.14062 10.5752 3.07381 10.5687 3.00639C10.5476 2.7856 10.5259 2.55857 10.5522 2.38378C10.6018 2.05442 10.8744 1.6022 11.0902 1.35115C11.2433 1.67578 11.3425 2.1118 11.2921 2.44184C11.2593 2.66078 11.0495 2.92887 10.8533 3.1797C10.7756 3.27914 10.6999 3.37584 10.6382 3.46571C10.6397 3.47424 10.6412 3.48278 10.6428 3.49134C10.6469 3.51317 10.6513 3.53501 10.655 3.55684C10.671 3.65459 10.685 3.75273 10.6968 3.85113C10.6507 3.74177 10.5894 3.63932 10.5148 3.54692Z" fill="#FFE3D0"/>
<path d="M10.5148 3.54692C10.4467 3.0662 10.3372 2.58889 10.1848 2.12326C9.89902 1.99638 9.66064 1.77567 9.53306 1.48208C9.39892 1.17295 9.42154 0.830764 9.50827 0.480469C9.79989 0.65594 10.1017 0.911076 10.2366 1.21951C10.3641 1.5138 10.359 1.82629 10.2468 2.10098C10.3335 2.31023 10.4057 2.52418 10.4691 2.74084C10.5143 2.89402 10.5529 3.04927 10.5865 3.20519C10.5815 3.14062 10.5752 3.07381 10.5687 3.00639C10.5476 2.7856 10.5259 2.55857 10.5522 2.38378C10.6018 2.05442 10.8744 1.6022 11.0902 1.35115C11.2433 1.67578 11.3425 2.1118 11.2921 2.44184C11.2593 2.66078 11.0495 2.92887 10.8533 3.1797C10.7756 3.27914 10.6999 3.37584 10.6382 3.46571C10.6397 3.47424 10.6412 3.48278 10.6428 3.49134C10.6469 3.51317 10.6513 3.53501 10.655 3.55684C10.671 3.65459 10.685 3.75273 10.6968 3.85113C10.6507 3.74177 10.5894 3.63932 10.5148 3.54692Z" fill="url(#paint7_linear_1_478719)" fill-opacity="0.8"/>
<path d="M10.7965 4.4727C10.7968 4.47025 10.7972 4.46783 10.7975 4.46538C10.83 4.23678 10.8634 4.00201 10.9327 3.83017C11.0647 3.50419 11.4525 3.10124 11.7339 2.89C11.8105 3.25311 11.8039 3.71882 11.6727 4.0448C11.5853 4.26165 11.3049 4.49161 11.0428 4.7066C10.9562 4.77767 10.8715 4.84711 10.7965 4.9139V4.4727Z" fill="#FFE3D0"/>
<path d="M10.7965 4.4727C10.7968 4.47025 10.7972 4.46783 10.7975 4.46538C10.83 4.23678 10.8634 4.00201 10.9327 3.83017C11.0647 3.50419 11.4525 3.10124 11.7339 2.89C11.8105 3.25311 11.8039 3.71882 11.6727 4.0448C11.5853 4.26165 11.3049 4.49161 11.0428 4.7066C10.9562 4.77767 10.8715 4.84711 10.7965 4.9139V4.4727Z" fill="url(#paint8_linear_1_478719)" fill-opacity="0.8"/>
<path d="M10.7965 5.54232C10.8261 5.4988 10.8564 5.45846 10.8875 5.42234C11.1296 5.14157 11.6508 4.86148 12 4.73728C11.9497 5.11659 11.782 5.5715 11.54 5.85228C11.3956 6.01944 11.0957 6.15116 10.7965 6.27235V5.54232Z" fill="#FFE3D0"/>
<path d="M10.7965 5.54232C10.8261 5.4988 10.8564 5.45846 10.8875 5.42234C11.1296 5.14157 11.6508 4.86148 12 4.73728C11.9497 5.11659 11.782 5.5715 11.54 5.85228C11.3956 6.01944 11.0957 6.15116 10.7965 6.27235V5.54232Z" fill="url(#paint9_linear_1_478719)" fill-opacity="0.8"/>
<path d="M10.7965 6.73217C11.0982 6.63098 11.4455 6.56743 11.6982 6.55016C11.5269 6.91057 11.2156 7.31419 10.8861 7.52476C10.8588 7.5422 10.8288 7.55811 10.7965 7.57273V6.73217Z" fill="#FFE3D0"/>
<path d="M10.7965 6.73217C11.0982 6.63098 11.4455 6.56743 11.6982 6.55016C11.5269 6.91057 11.2156 7.31419 10.8861 7.52476C10.8588 7.5422 10.8288 7.55811 10.7965 7.57273V6.73217Z" fill="url(#paint10_linear_1_478719)" fill-opacity="0.8"/>
<path d="M5.44256 2.62988C5.78976 2.44057 6.20934 2.44057 6.55653 2.62988L8.99041 3.95701C9.36426 4.16087 9.59689 4.55267 9.59689 4.97849V7.52001C9.59689 7.94583 9.36426 8.33763 8.99041 8.54148L6.55653 9.86862C6.20934 10.0579 5.78976 10.0579 5.44256 9.86862L3.00869 8.54148C2.63484 8.33763 2.40221 7.94583 2.40221 7.52001V4.97849C2.40221 4.55267 2.63484 4.16087 3.00869 3.95701L5.44256 2.62988Z" fill="#F99B64"/>
<path d="M5.44256 2.62988C5.78976 2.44057 6.20934 2.44057 6.55653 2.62988L8.99041 3.95701C9.36426 4.16087 9.59689 4.55267 9.59689 4.97849V7.52001C9.59689 7.94583 9.36426 8.33763 8.99041 8.54148L6.55653 9.86862C6.20934 10.0579 5.78976 10.0579 5.44256 9.86862L3.00869 8.54148C2.63484 8.33763 2.40221 7.94583 2.40221 7.52001V4.97849C2.40221 4.55267 2.63484 4.16087 3.00869 3.95701L5.44256 2.62988Z" fill="url(#paint11_linear_1_478719)"/>
<path d="M5.70548 4.33852C5.82261 4.08898 6.17754 4.08898 6.29467 4.33852L6.63944 5.07296C6.68551 5.17111 6.77744 5.23987 6.8846 5.25634L7.68217 5.37892C7.94391 5.41915 8.05059 5.73847 7.86559 5.92795L7.26872 6.53925C7.19653 6.61319 7.16374 6.71702 7.18037 6.819L7.31832 7.66475C7.36206 7.9329 7.07738 8.13341 6.83962 8.00194C6.62074 7.8809 6.4136 7.76635 6.15763 7.62481C6.05963 7.57061 5.94059 7.57058 5.84259 7.62477L5.16052 8.00194C4.92276 8.13342 4.63809 7.9329 4.68183 7.66475L4.81978 6.819C4.83641 6.71702 4.80362 6.61319 4.73143 6.53925L4.13456 5.92795C3.94956 5.73847 4.05624 5.41915 4.31798 5.37892L5.11555 5.25634C5.22271 5.23987 5.31464 5.17111 5.36071 5.07296L5.70548 4.33852Z" fill="white"/>
<defs>
<linearGradient id="paint0_linear_1_478719" x1="2.71094" y1="1.93758" x2="9.62025" y2="10.5206" gradientUnits="userSpaceOnUse">
<stop stop-color="#FFCFA5"/>
<stop offset="1" stop-color="#FF8D69"/>
</linearGradient>
<linearGradient id="paint1_linear_1_478719" x1="4.15385" y1="0.480469" x2="4.15385" y2="11.0959" gradientUnits="userSpaceOnUse">
<stop stop-color="#DFDECE" stop-opacity="0"/>
<stop offset="0.338542" stop-color="#EA7D7D"/>
</linearGradient>
<linearGradient id="paint2_linear_1_478719" x1="4.15385" y1="0.480469" x2="4.15385" y2="11.0959" gradientUnits="userSpaceOnUse">
<stop stop-color="#DFDECE" stop-opacity="0"/>
<stop offset="0.338542" stop-color="#EA7D7D"/>
</linearGradient>
<linearGradient id="paint3_linear_1_478719" x1="4.15385" y1="0.480469" x2="4.15385" y2="11.0959" gradientUnits="userSpaceOnUse">
<stop stop-color="#DFDECE" stop-opacity="0"/>
<stop offset="0.338542" stop-color="#EA7D7D"/>
</linearGradient>
<linearGradient id="paint4_linear_1_478719" x1="4.15385" y1="0.480469" x2="4.15385" y2="11.0959" gradientUnits="userSpaceOnUse">
<stop stop-color="#DFDECE" stop-opacity="0"/>
<stop offset="0.338542" stop-color="#EA7D7D"/>
</linearGradient>
<linearGradient id="paint5_linear_1_478719" x1="4.15385" y1="0.480469" x2="4.15385" y2="11.0959" gradientUnits="userSpaceOnUse">
<stop stop-color="#DFDECE" stop-opacity="0"/>
<stop offset="0.338542" stop-color="#EA7D7D"/>
</linearGradient>
<linearGradient id="paint6_linear_1_478719" x1="7.84615" y1="0.480469" x2="7.84615" y2="11.0959" gradientUnits="userSpaceOnUse">
<stop stop-color="#DFDECE" stop-opacity="0"/>
<stop offset="0.338542" stop-color="#EA7D7D"/>
</linearGradient>
<linearGradient id="paint7_linear_1_478719" x1="7.84615" y1="0.480469" x2="7.84615" y2="11.0959" gradientUnits="userSpaceOnUse">
<stop stop-color="#DFDECE" stop-opacity="0"/>
<stop offset="0.338542" stop-color="#EA7D7D"/>
</linearGradient>
<linearGradient id="paint8_linear_1_478719" x1="7.84615" y1="0.480469" x2="7.84615" y2="11.0959" gradientUnits="userSpaceOnUse">
<stop stop-color="#DFDECE" stop-opacity="0"/>
<stop offset="0.338542" stop-color="#EA7D7D"/>
</linearGradient>
<linearGradient id="paint9_linear_1_478719" x1="7.84615" y1="0.480469" x2="7.84615" y2="11.0959" gradientUnits="userSpaceOnUse">
<stop stop-color="#DFDECE" stop-opacity="0"/>
<stop offset="0.338542" stop-color="#EA7D7D"/>
</linearGradient>
<linearGradient id="paint10_linear_1_478719" x1="7.84615" y1="0.480469" x2="7.84615" y2="11.0959" gradientUnits="userSpaceOnUse">
<stop stop-color="#DFDECE" stop-opacity="0"/>
<stop offset="0.338542" stop-color="#EA7D7D"/>
</linearGradient>
<linearGradient id="paint11_linear_1_478719" x1="3.92263" y1="3.38238" x2="8.53957" y2="9.37477" gradientUnits="userSpaceOnUse">
<stop stop-color="#FBA862"/>
<stop offset="1" stop-color="#F76869"/>
</linearGradient>
</defs>
</svg>
