<svg width="12" height="12" viewBox="0 0 12 12" fill="none" xmlns="http://www.w3.org/2000/svg">
<circle cx="5.75" cy="6.25" r="5.75" fill="#937200"/>
<circle cx="5.75" cy="5.75" r="5.75" fill="url(#paint0_linear_1_478602)"/>
<circle cx="5.75" cy="5.75" r="4.25" fill="url(#paint1_linear_1_478602)"/>
<path d="M5.29751 2.96419C5.47748 2.58081 6.02277 2.58081 6.20273 2.96419L6.64113 3.89808C6.71191 4.04887 6.85314 4.15451 7.01778 4.17981L8.03898 4.33677C8.4411 4.39857 8.605 4.88917 8.32078 5.18027L7.55149 5.96816C7.44058 6.08175 7.39021 6.24127 7.41576 6.39795L7.59284 7.48359C7.66003 7.89556 7.22266 8.20362 6.85738 8.00163C6.58196 7.84932 6.31431 7.70131 5.99228 7.52324C5.84171 7.43998 5.65872 7.43987 5.50816 7.52313L4.64285 8.00164C4.27756 8.20363 3.84021 7.89556 3.90741 7.48359L4.08448 6.39795C4.11004 6.24127 4.05967 6.08175 3.94876 5.96816L3.17947 5.18027C2.89524 4.88917 3.05914 4.39857 3.46127 4.33677L4.48246 4.17981C4.6471 4.15451 4.78833 4.04887 4.85912 3.89808L5.29751 2.96419Z" fill="white"/>
<defs>
<linearGradient id="paint0_linear_1_478602" x1="-2.87738e-07" y1="1" x2="10.25" y2="11.5" gradientUnits="userSpaceOnUse">
<stop stop-color="#FFF7B0"/>
<stop offset="1" stop-color="#FFD600"/>
</linearGradient>
<linearGradient id="paint1_linear_1_478602" x1="0.828947" y1="2.17105" x2="10.8947" y2="10.8947" gradientUnits="userSpaceOnUse">
<stop stop-color="#FFD80E"/>
<stop offset="1" stop-color="#CB9E00"/>
</linearGradient>
</defs>
</svg>
