<svg width="12" height="12" viewBox="0 0 12 12" fill="none" xmlns="http://www.w3.org/2000/svg">
<path fill-rule="evenodd" clip-rule="evenodd" d="M1.5 1.90909C1.5 1.40701 2.00368 1 2.625 1H7L10.5 3.72725V10.0909C10.5 10.593 9.99632 11 9.375 11H2.625C2.00368 11 1.5 10.593 1.5 10.0909V1.90909ZM3.0752 6.34091C3.0752 6.15263 3.22783 6 3.4161 6H5.88429C6.07257 6 6.2252 6.15263 6.2252 6.34091C6.2252 6.52919 6.07257 6.68182 5.88429 6.68182H3.4161C3.22783 6.68182 3.0752 6.52919 3.0752 6.34091ZM3.4161 7.81836C3.22783 7.81836 3.0752 7.97099 3.0752 8.15927C3.0752 8.34755 3.22783 8.50018 3.4161 8.50018H7.23429C7.42256 8.50018 7.5752 8.34755 7.5752 8.15927C7.5752 7.97099 7.42256 7.81836 7.23429 7.81836H3.4161Z" fill="url(#paint0_linear_1_478813)"/>
<g filter="url(#filter0_d_1_478813)">
<path d="M7.00012 1V2.75C7.00012 3.30228 7.44784 3.75 8.00012 3.75H10.5001L7.00012 1Z" fill="url(#paint1_linear_1_478813)"/>
</g>
<defs>
<filter id="filter0_d_1_478813" x="6.00012" y="0.5" width="5.5" height="4.75" filterUnits="userSpaceOnUse" color-interpolation-filters="sRGB">
<feFlood flood-opacity="0" result="BackgroundImageFix"/>
<feColorMatrix in="SourceAlpha" type="matrix" values="0 0 0 0 0 0 0 0 0 0 0 0 0 0 0 0 0 0 127 0" result="hardAlpha"/>
<feOffset dy="0.5"/>
<feGaussianBlur stdDeviation="0.5"/>
<feComposite in2="hardAlpha" operator="out"/>
<feColorMatrix type="matrix" values="0 0 0 0 0 0 0 0 0 0 0 0 0 0 0 0 0 0 0.6 0"/>
<feBlend mode="normal" in2="BackgroundImageFix" result="effect1_dropShadow_1_478813"/>
<feBlend mode="normal" in="SourceGraphic" in2="effect1_dropShadow_1_478813" result="shape"/>
</filter>
<linearGradient id="paint0_linear_1_478813" x1="1.5" y1="6" x2="10.5" y2="6" gradientUnits="userSpaceOnUse">
<stop stop-color="#BBBBBB"/>
<stop offset="1" stop-color="#828282"/>
</linearGradient>
<linearGradient id="paint1_linear_1_478813" x1="7.00012" y1="2.375" x2="10.5001" y2="2.375" gradientUnits="userSpaceOnUse">
<stop stop-color="#BBBBBB"/>
<stop offset="1" stop-color="#828282"/>
</linearGradient>
</defs>
</svg>
