<svg width="12" height="12" viewBox="0 0 12 12" fill="none" xmlns="http://www.w3.org/2000/svg">
<circle cx="5.75" cy="6.25" r="5.75" fill="#6228B8"/>
<circle cx="5.75" cy="5.75" r="5.75" fill="url(#paint0_linear_1_478612)"/>
<g opacity="0.44">
<circle cx="5.75" cy="5.75" r="4.25" fill="#5C05DC"/>
<circle cx="5.75" cy="5.75" r="4.25" fill="url(#paint1_linear_1_478612)" style="mix-blend-mode:multiply"/>
</g>
<path d="M6.03786 6.53949H5.14649C4.9024 6.53949 4.70452 6.34162 4.70452 6.09753C4.70452 5.85344 4.9024 5.65556 5.14649 5.65556H6.03786C6.24391 5.65556 6.41162 5.62031 6.541 5.54979C6.67038 5.47676 6.76502 5.37603 6.82492 5.2476C6.88482 5.11916 6.91477 4.97436 6.91477 4.81319C6.91477 4.6495 6.88482 4.49714 6.82492 4.35611C6.76502 4.21509 6.67038 4.10176 6.541 4.01614C6.41162 3.93052 6.24391 3.88771 6.03786 3.88771H5.74496C5.37677 3.88771 5.07829 4.18618 5.07829 4.55437V7.96092C5.07829 8.25864 4.83693 8.5 4.53921 8.5C4.24148 8.5 4.00012 8.25864 4.00012 7.96092V3.66667C4.00012 3.29848 4.2986 3 4.66679 3H6.03786C6.44756 3 6.79856 3.07807 7.09087 3.2342C7.38557 3.38782 7.61078 3.60062 7.76652 3.8726C7.92225 4.14457 8.00012 4.45559 8.00012 4.80563C8.00012 5.16071 7.92225 5.46795 7.76652 5.72734C7.61078 5.98672 7.38557 6.18693 7.09087 6.32795C6.79856 6.46898 6.44756 6.53949 6.03786 6.53949Z" fill="white" stroke="white" stroke-width="0.333333"/>
<defs>
<linearGradient id="paint0_linear_1_478612" x1="0" y1="0" x2="7.44044" y2="13.7041" gradientUnits="userSpaceOnUse">
<stop stop-color="#C48CFC"/>
<stop offset="1" stop-color="#9052F4"/>
</linearGradient>
<linearGradient id="paint1_linear_1_478612" x1="5.75" y1="1.5" x2="5.75" y2="10" gradientUnits="userSpaceOnUse">
<stop stop-color="#EBF6FF"/>
<stop offset="1" stop-color="#01BC84"/>
</linearGradient>
</defs>
</svg>
