<svg width="12" height="13" viewBox="0 0 12 13" fill="none" xmlns="http://www.w3.org/2000/svg">
<path d="M11.5 6.27441C11.5 9.45005 8.92564 12.0244 5.75 12.0244C2.57436 12.0244 0 9.45005 0 6.27441C0 3.09878 2.57436 0.524414 5.75 0.524414C8.92564 0.524414 11.5 3.09878 11.5 6.27441Z" fill="#B16200"/>
<path d="M11.5 5.75C11.5 8.92564 8.92564 11.5 5.75 11.5C2.57436 11.5 0 8.92564 0 5.75C0 2.57436 2.57436 0 5.75 0C8.92564 0 11.5 2.57436 11.5 5.75Z" fill="url(#paint0_linear_1_478622)"/>
<path d="M10 5.75059C10 8.09813 8.09721 10.0012 5.75 10.0012C3.40279 10.0012 1.5 8.09813 1.5 5.75059C1.5 3.40306 3.40279 1.5 5.75 1.5C8.09721 1.5 10 3.40306 10 5.75059Z" fill="url(#paint1_linear_1_478622)"/>
<path d="M7.74988 5.56814C7.88795 5.56814 7.99988 5.68007 7.99988 5.81814V7.66879C7.99988 7.73083 7.97747 7.7914 7.93178 7.83338C7.84403 7.91398 7.72657 7.99903 7.57939 8.08851C7.3925 8.20118 7.15644 8.29793 6.87119 8.37876C6.58594 8.45959 6.25029 8.5 5.86422 8.5C5.50766 8.5 5.1843 8.44367 4.89414 8.331C4.60398 8.21588 4.35439 8.0481 4.14537 7.82766C3.93881 7.60476 3.77898 7.33289 3.66586 7.01202C3.55521 6.68871 3.49988 6.31886 3.49988 5.90247V5.60488C3.49988 5.18849 3.55644 4.81864 3.66955 4.49532C3.78266 4.17201 3.94127 3.90013 4.14537 3.67969C4.35193 3.4568 4.59414 3.2878 4.87201 3.17268C5.15234 3.05756 5.45971 3 5.79414 3C6.2884 3 6.69045 3.07838 7.00029 3.23514C7.31012 3.38945 7.54496 3.60376 7.7048 3.87809C7.82276 4.07875 7.90657 4.30275 7.95623 4.5501C7.98526 4.69475 7.8685 4.82231 7.72097 4.82231H6.97072C6.84598 4.82231 6.74326 4.72939 6.70907 4.60943C6.68421 4.52225 6.65219 4.4438 6.61299 4.37408C6.5466 4.24916 6.4507 4.15487 6.32529 4.09118C6.19988 4.02505 6.03758 3.99198 5.8384 3.99198C5.68348 3.99198 5.54209 4.02505 5.41422 4.09118C5.28881 4.15731 5.18185 4.25774 5.09332 4.39245C5.0048 4.52472 4.93594 4.69127 4.88676 4.89212C4.84004 5.09296 4.81668 5.3281 4.81668 5.59753V5.90247C4.81668 6.16945 4.83881 6.40336 4.88307 6.60421C4.9298 6.80505 4.99865 6.97283 5.08963 7.10755C5.18307 7.23981 5.30111 7.34024 5.44373 7.40882C5.58881 7.47495 5.75971 7.50802 5.95644 7.50802C6.09414 7.50802 6.21217 7.49699 6.31053 7.47495C6.40889 7.45046 6.49004 7.42106 6.55398 7.38677C6.58519 7.3695 6.62348 7.35195 6.65886 7.3349C6.72164 7.30464 6.75316 7.24061 6.75316 7.17092V6.70357C6.75316 6.5655 6.64123 6.45357 6.50316 6.45357H6.05521C5.91713 6.45357 5.80521 6.34164 5.80521 6.20357V5.81814C5.80521 5.68007 5.91713 5.56814 6.05521 5.56814H7.74988Z" fill="white"/>
<defs>
<linearGradient id="paint0_linear_1_478622" x1="-2.87738e-07" y1="1" x2="10.25" y2="11.5" gradientUnits="userSpaceOnUse">
<stop stop-color="#FFE0B0"/>
<stop offset="1" stop-color="#FF9900"/>
</linearGradient>
<linearGradient id="paint1_linear_1_478622" x1="0.828947" y1="2.17115" x2="10.8959" y2="10.8947" gradientUnits="userSpaceOnUse">
<stop stop-color="#FD9F48" stop-opacity="0.89"/>
<stop offset="1" stop-color="#CB7A00"/>
</linearGradient>
</defs>
</svg>
