<svg width="12" height="12" viewBox="0 0 12 12" fill="none" xmlns="http://www.w3.org/2000/svg">
<path d="M11 1.75H1C0.447715 1.75 0 2.19772 0 2.75V9.75C0 10.3023 0.447715 10.75 1 10.75H11C11.5523 10.75 12 10.3023 12 9.75V2.75C12 2.19772 11.5523 1.75 11 1.75Z" fill="url(#paint0_linear_1_478787)"/>
<path d="M11 1.25H1C0.447715 1.25 0 1.69772 0 2.25V9.25C0 9.80229 0.447715 10.25 1 10.25H11C11.5523 10.25 12 9.80229 12 9.25V2.25C12 1.69772 11.5523 1.25 11 1.25Z" fill="url(#paint1_linear_1_478787)"/>
<path opacity="0.5" d="M6 1.75V3.75" stroke="white" stroke-linecap="square" stroke-linejoin="round"/>
<path opacity="0.5" d="M6 7.75V9.75" stroke="white" stroke-linecap="square" stroke-linejoin="round"/>
<mask id="path-5-inside-1_1_478787" fill="white">
<path d="M0 3.25H1C1.55228 3.25 2 3.69772 2 4.25V7.25C2 7.80228 1.55228 8.25 1 8.25H0"/>
</mask>
<path d="M0 2.5H-0.75V4H0V2.5ZM0 7.5H-0.75V9H0V7.5ZM0 4H1V2.5H0V4ZM1.25 4.25V7.25H2.75V4.25H1.25ZM1 7.5H0V9H1V7.5ZM1.25 7.25C1.25 7.38807 1.13807 7.5 1 7.5V9C1.9665 9 2.75 8.2165 2.75 7.25H1.25ZM1 4C1.13807 4 1.25 4.11193 1.25 4.25H2.75C2.75 3.2835 1.9665 2.5 1 2.5V4Z" fill="white" mask="url(#path-5-inside-1_1_478787)"/>
<mask id="path-7-inside-2_1_478787" fill="white">
<path d="M12 3.25H11C10.4477 3.25 10 3.69772 10 4.25V7.25C10 7.80228 10.4477 8.25 11 8.25H12"/>
</mask>
<path d="M12 4H12.75V2.5H12V4ZM12 9H12.75V7.5H12V9ZM12 2.5H11V4H12V2.5ZM9.25 4.25V7.25H10.75V4.25H9.25ZM11 9H12V7.5H11V9ZM9.25 7.25C9.25 8.2165 10.0335 9 11 9V7.5C10.8619 7.5 10.75 7.38807 10.75 7.25H9.25ZM11 2.5C10.0335 2.5 9.25 3.2835 9.25 4.25H10.75C10.75 4.11193 10.8619 4 11 4V2.5Z" fill="white" mask="url(#path-7-inside-2_1_478787)"/>
<path d="M6 4.125C6.8972 4.125 7.625 4.8528 7.625 5.75C7.625 6.6472 6.8972 7.375 6 7.375C5.1028 7.375 4.375 6.6472 4.375 5.75C4.375 4.8528 5.1028 4.125 6 4.125Z" stroke="white" stroke-width="0.75" stroke-linecap="round" stroke-linejoin="round"/>
<defs>
<linearGradient id="paint0_linear_1_478787" x1="-7.74493e-08" y1="8.25" x2="12" y2="8.25" gradientUnits="userSpaceOnUse">
<stop stop-color="#325F2B"/>
<stop offset="1" stop-color="#1A7655"/>
</linearGradient>
<linearGradient id="paint1_linear_1_478787" x1="0" y1="5.75" x2="12" y2="5.75" gradientUnits="userSpaceOnUse">
<stop stop-color="#66B758"/>
<stop offset="1" stop-color="#2BAB7E"/>
</linearGradient>
</defs>
</svg>
