<svg width="12" height="12" viewBox="0 0 12 12" fill="none" xmlns="http://www.w3.org/2000/svg">
<path fill-rule="evenodd" clip-rule="evenodd" d="M6.34493 3.60022C6.20832 3.54816 6.09353 3.4738 6.00049 3.38423C5.90745 3.47381 5.79266 3.54817 5.65604 3.60023L3.9105 4.26537C3.29697 4.49916 2.62844 4.08829 2.55989 3.43531L2.42025 2.10503C2.34354 1.37432 3.05464 0.81315 3.74751 1.05761L5.33395 1.61735C5.41484 1.56108 5.51314 1.52809 5.61914 1.52809H6.38154C6.48758 1.52809 6.58591 1.5611 6.66681 1.61741L8.25347 1.05759C8.94633 0.813135 9.65743 1.37431 9.58072 2.10502L9.44108 3.4353C9.37253 4.08827 8.704 4.49914 8.09047 4.26536L6.34493 3.60022Z" fill="url(#paint0_linear_1_478649)"/>
<rect x="0.5" y="2.44434" width="11" height="2.5" rx="1" fill="white"/>
<path d="M1.5 4.94434H10.5V9.44434C10.5 10.2728 9.82843 10.9443 9 10.9443H3C2.17157 10.9443 1.5 10.2728 1.5 9.44434V4.94434Z" fill="url(#paint1_linear_1_478649)"/>
<rect x="5" y="2.44434" width="2" height="8.5" fill="url(#paint2_linear_1_478649)"/>
<path d="M1.5 4.94434H10.5V9.44434C10.5 10.2728 9.82843 10.9443 9 10.9443H3C2.17157 10.9443 1.5 10.2728 1.5 9.44434V4.94434Z" fill="black" fill-opacity="0.08"/>
<defs>
<linearGradient id="paint0_linear_1_478649" x1="2.41455" y1="0.973434" x2="10.0555" y2="2.67793" gradientUnits="userSpaceOnUse">
<stop stop-color="#FAB83C"/>
<stop offset="1" stop-color="#FF7377"/>
</linearGradient>
<linearGradient id="paint1_linear_1_478649" x1="1.05" y1="4.51576" x2="10.8246" y2="12.0422" gradientUnits="userSpaceOnUse">
<stop stop-color="white"/>
<stop offset="1" stop-color="#DEDEDE"/>
</linearGradient>
<linearGradient id="paint2_linear_1_478649" x1="5.5" y1="2.22065" x2="9.00494" y2="3.48072" gradientUnits="userSpaceOnUse">
<stop stop-color="#FFC559"/>
<stop offset="1" stop-color="#FF7377"/>
</linearGradient>
</defs>
</svg>
