<svg width="12" height="12" viewBox="0 0 12 12" fill="none" xmlns="http://www.w3.org/2000/svg">
<path d="M11.5 6.25C11.5 9.42564 8.92564 12 5.75 12C2.57436 12 0 9.42564 0 6.25C0 3.07436 2.57436 0.5 5.75 0.5C8.92564 0.5 11.5 3.07436 11.5 6.25Z" fill="#A64D48"/>
<path d="M11.5 5.75C11.5 8.92564 8.92564 11.5 5.75 11.5C2.57436 11.5 0 8.92564 0 5.75C0 2.57436 2.57436 0 5.75 0C8.92564 0 11.5 2.57436 11.5 5.75Z" fill="url(#paint0_linear_1_478633)"/>
<path d="M8.7552 8.75585C7.09548 10.4156 4.40452 10.4156 2.7448 8.75585C1.08507 7.09612 1.08507 4.40517 2.7448 2.74544C4.40452 1.08571 7.09548 1.08571 8.7552 2.74544C10.4149 4.40517 10.4149 7.09612 8.7552 8.75585Z" fill="url(#paint1_linear_1_478633)"/>
<path d="M4.91861 4.0827C4.90076 4.08574 4.88306 4.0882 4.86494 4.08992C4.7943 4.09591 4.73078 4.07908 4.66691 4.06216C4.61383 4.04809 4.56051 4.03397 4.50267 4.03282C4.35994 4.03032 4.21606 4.09894 4.10634 4.18569C4.08354 4.20355 4.06013 4.22622 4.05748 4.25605C4.05368 4.29896 4.09428 4.33265 4.13331 4.34842C4.14278 4.35222 4.1523 4.3557 4.16178 4.35916C4.19498 4.37128 4.22762 4.38319 4.25551 4.40811C4.26677 4.41786 4.3282 4.52018 4.32335 4.52005C4.28393 4.51867 4.24584 4.5142 4.20832 4.50979C4.1624 4.50439 4.11731 4.4991 4.07167 4.49969C3.96272 4.50118 3.8573 4.51645 3.75689 4.54813C3.69586 4.56761 3.63635 4.59312 3.579 4.62581C3.41268 4.7205 3.22597 4.76665 3.03446 4.75809C3.00713 4.75684 2.97009 4.7477 2.92931 4.73763C2.82382 4.71159 2.69331 4.67937 2.64129 4.76178C2.62412 4.78873 2.6218 4.82333 2.62842 4.85516C2.64536 4.93548 2.68811 4.99858 2.73116 5.0621C2.75481 5.09702 2.77856 5.13206 2.79815 5.17016C2.88547 5.33912 3.03015 5.4729 3.21466 5.51286C3.29636 5.5306 3.37614 5.51448 3.45463 5.49863C3.53255 5.48289 3.60919 5.46741 3.68515 5.48558C3.7139 5.49251 3.74125 5.50621 3.76637 5.52271C3.84755 5.57573 3.92441 5.63376 3.99961 5.69476C3.94971 5.68511 3.90179 5.663 3.85325 5.64061C3.78806 5.61053 3.72175 5.57994 3.64803 5.57831C3.48158 5.57437 3.33416 5.65945 3.2304 5.78784C3.20714 5.81654 3.18088 5.84176 3.15475 5.86686C3.10677 5.91294 3.05919 5.95864 3.03124 6.02482C3.02036 6.05106 3.01643 6.08114 3.02664 6.10838C3.05781 6.19059 3.17602 6.18996 3.27135 6.18945C3.30821 6.18925 3.34166 6.18908 3.36532 6.19372C3.53242 6.22654 3.68642 6.30525 3.81469 6.42189C3.85888 6.46191 3.90626 6.49659 3.95588 6.52598C4.03751 6.57476 4.12603 6.60959 4.21996 6.63379C4.25893 6.64385 4.29841 6.6486 4.33864 6.65344C4.37232 6.65749 4.40653 6.66161 4.44137 6.66895C4.44571 6.66987 4.37543 6.74537 4.36412 6.75151C4.33627 6.76711 4.30661 6.77057 4.27621 6.77411C4.26708 6.77518 4.25788 6.77625 4.24864 6.77766C4.21217 6.78321 4.17152 6.8041 4.16753 6.84166C4.16484 6.86804 4.18121 6.89266 4.19803 6.91304C4.30063 7.03829 4.4507 7.12775 4.60878 7.14553C4.63222 7.14813 4.65617 7.14995 4.68055 7.15001C4.6982 7.15001 4.71616 7.14931 4.73422 7.14784C5.33106 7.95777 6.44245 8.20454 7.32584 7.6858C7.78635 7.41537 8.10071 6.98635 8.24073 6.50572C7.91993 6.72968 7.51665 6.86688 7.03349 6.80013C6.91655 6.78397 6.83464 6.67446 6.85052 6.55552C6.8664 6.43659 6.97408 6.35327 7.09101 6.36942C7.56759 6.43527 7.94236 6.24103 8.22858 5.95305C8.261 5.92043 8.29213 5.88674 8.32196 5.85227C8.31031 5.53266 8.22397 5.21119 8.0558 4.91494C7.62941 4.16377 6.80199 3.79493 6.00741 3.92667C5.7557 3.88148 5.48838 3.89625 5.22033 3.98687C5.19284 3.99611 5.16522 4.00618 5.13745 4.01631C5.06561 4.04252 4.9927 4.06911 4.91804 4.08254L4.91861 4.0827Z" fill="white"/>
<defs>
<linearGradient id="paint0_linear_1_478633" x1="-0.750033" y1="0.750037" x2="11.5" y2="11.5" gradientUnits="userSpaceOnUse">
<stop stop-color="#FFE9BC"/>
<stop offset="1" stop-color="#FF8D69"/>
</linearGradient>
<linearGradient id="paint1_linear_1_478633" x1="-0.26041" y1="5.75064" x2="5.75" y2="11.7611" gradientUnits="userSpaceOnUse">
<stop offset="0.119792" stop-color="#FFB26A"/>
<stop offset="1" stop-color="#FC6A74"/>
</linearGradient>
</defs>
</svg>
