<svg width="12" height="13" viewBox="0 0 12 13" fill="none" xmlns="http://www.w3.org/2000/svg">
<g clip-path="url(#clip0_1_478866)">
<path d="M6.00004 3.1946L10.059 3.19441C10.9688 3.19437 11.7063 3.93189 11.7063 4.84169V8.5377C11.7063 9.13696 11.3809 9.68894 10.8566 9.97906L6.79752 12.2249C6.3013 12.4995 5.69875 12.4995 5.20253 12.2249L1.14348 9.97906C0.619133 9.68894 0.293701 9.13696 0.293701 8.5377V4.84169C0.293701 3.93189 1.03126 3.19437 1.94105 3.19441L6.00004 3.1946Z" fill="#BB4333"/>
<path d="M6.00004 0.666016L10.0592 0.666317C10.9689 0.666385 11.7063 1.40387 11.7063 2.31359V7.98812C11.7063 8.58737 11.3809 9.13936 10.8566 9.42947L6.79752 11.6753C6.3013 11.9499 5.69875 11.9499 5.20253 11.6753L1.14348 9.42947C0.619133 9.13936 0.293701 8.58737 0.293701 7.98812V2.31359C0.293701 1.40387 1.03114 0.666385 1.94085 0.666317L6.00004 0.666016Z" fill="url(#paint0_linear_1_478866)"/>
<path d="M6.00047 1.58984L10.3254 1.59007C10.7193 1.59009 11.0386 1.90944 11.0386 2.30336V8.02047C11.0386 8.28153 10.896 8.52173 10.6668 8.64671L6.34181 11.005C6.12896 11.1211 5.87172 11.1211 5.65887 11.005L1.33385 8.64671C1.10465 8.52173 0.962036 8.28153 0.962036 8.02047V2.30336C0.962036 1.90944 1.28136 1.59009 1.67529 1.59007L6.00047 1.58984Z" fill="#F99B64"/>
<path d="M6.00047 1.58984L10.3254 1.59007C10.7193 1.59009 11.0386 1.90944 11.0386 2.30336V8.02047C11.0386 8.28153 10.896 8.52173 10.6668 8.64671L6.34181 11.005C6.12896 11.1211 5.87172 11.1211 5.65887 11.005L1.33385 8.64671C1.10465 8.52173 0.962036 8.28153 0.962036 8.02047V2.30336C0.962036 1.90944 1.28136 1.59009 1.67529 1.59007L6.00047 1.58984Z" fill="url(#paint1_linear_1_478866)"/>
<path d="M6.63197 3.54883L7.52088 6.56643H7.55597L8.44487 3.54883H9.70221L8.29867 7.78283H6.78402L5.37463 3.54883H6.63197Z" fill="white"/>
<path d="M2.70776 7.78283V3.54883H3.8189V6.88223H5.54408V7.78283H2.70776Z" fill="white"/>
</g>
<defs>
<linearGradient id="paint0_linear_1_478866" x1="2.08776" y1="0.671703" x2="10.3078" y2="10.8829" gradientUnits="userSpaceOnUse">
<stop stop-color="#FFC089"/>
<stop offset="1" stop-color="#FF784E"/>
</linearGradient>
<linearGradient id="paint1_linear_1_478866" x1="3.09161" y1="1.68153" x2="9.55794" y2="10.0743" gradientUnits="userSpaceOnUse">
<stop stop-color="#FF9F4E"/>
<stop offset="1" stop-color="#FF5A5C"/>
</linearGradient>
<clipPath id="clip0_1_478866">
<rect width="12" height="12" fill="white" transform="translate(0 0.666016)"/>
</clipPath>
</defs>
</svg>
