<svg width="12" height="12" viewBox="0 0 12 12" fill="none" xmlns="http://www.w3.org/2000/svg">
<mask id="path-1-inside-1_1_478802" fill="white">
<path d="M9 4.5V3.3C9 2.55739 8.68393 1.8452 8.12132 1.3201C7.55871 0.794999 6.79565 0.5 6 0.5C5.20435 0.5 4.44129 0.794999 3.87868 1.3201C3.31607 1.8452 3 2.55739 3 3.3V4.5"/>
</mask>
<path d="M7.5 4.5C7.5 5.32843 8.17157 6 9 6C9.82843 6 10.5 5.32843 10.5 4.5H7.5ZM9 3.3H7.5H9ZM3 3.3H1.5H3ZM1.5 4.5C1.5 5.32843 2.17157 6 3 6C3.82843 6 4.5 5.32843 4.5 4.5H1.5ZM10.5 4.5V3.3H7.5V4.5H10.5ZM10.5 3.3C10.5 2.12487 9.99889 1.02067 9.1448 0.223518L7.09784 2.41668C7.36897 2.66973 7.5 2.98992 7.5 3.3H10.5ZM9.1448 0.223518C8.2942 -0.57037 7.16136 -1 6 -1V2C6.42994 2 6.82322 2.16037 7.09784 2.41668L9.1448 0.223518ZM6 -1C4.83864 -1 3.7058 -0.57037 2.8552 0.223518L4.90216 2.41668C5.17678 2.16037 5.57006 2 6 2V-1ZM2.8552 0.223518C2.00111 1.02067 1.5 2.12487 1.5 3.3H4.5C4.5 2.98992 4.63103 2.66973 4.90216 2.41668L2.8552 0.223518ZM1.5 3.3V4.5H4.5V3.3H1.5Z" fill="#C8C8C8" mask="url(#path-1-inside-1_1_478802)"/>
<path fill-rule="evenodd" clip-rule="evenodd" d="M2.4 3.5H9.6C10.0971 3.5 10.5 3.91973 10.5 4.4375V10.0625C10.5 10.5803 10.0971 11 9.6 11H2.4C1.90294 11 1.5 10.5803 1.5 10.0625V4.4375C1.5 3.91973 1.90294 3.5 2.4 3.5ZM7 6.4697C7 6.92154 6.68131 7.3012 6.25 7.40884V8.83301H5.75V7.40884C5.31869 7.3012 5 6.92154 5 6.4697C5 5.93415 5.44772 5.5 6 5.5C6.55228 5.5 7 5.93415 7 6.4697Z" fill="url(#paint0_linear_1_478802)"/>
<defs>
<linearGradient id="paint0_linear_1_478802" x1="1.5" y1="7.25" x2="10.5" y2="7.25" gradientUnits="userSpaceOnUse">
<stop stop-color="#BBBBBB"/>
<stop offset="1" stop-color="#828282"/>
</linearGradient>
</defs>
</svg>
