<svg width="12" height="12" viewBox="0 0 12 12" fill="none" xmlns="http://www.w3.org/2000/svg">
<path fill-rule="evenodd" clip-rule="evenodd" d="M5.90626 0C6.37225 0 6.75 0.366306 6.75 0.818168C6.75 1.27003 6.37225 1.63634 5.90626 1.63634C3.78409 1.63634 1.97909 3.19216 1.67964 5.29372C1.61586 5.74133 1.18995 6.05405 0.728356 5.9922C0.266759 5.93035 -0.0557367 5.51736 0.00804316 5.06975C0.421874 2.16547 2.93416 0 5.90626 0Z" fill="#BDBDBD"/>
<path fill-rule="evenodd" clip-rule="evenodd" d="M6.21249 0L6.26287 0.000743195C8.66531 0.105638 10.7769 1.63822 11.6203 3.89667C12.4964 6.2428 11.8244 8.88662 9.9344 10.529C9.37081 11.0188 8.72611 11.3956 8.03152 11.6455C6.42793 12.2225 4.64631 12.0935 3.13361 11.2705C0.934266 10.0739 -0.291177 7.63694 0.0593197 5.15705C0.125568 4.68832 0.55925 4.36205 1.02798 4.4283C1.4967 4.49455 1.82297 4.92823 1.75673 5.39696C1.5063 7.16882 2.38181 8.90993 3.95288 9.76469C5.03339 10.3526 6.30558 10.4446 7.45117 10.0325C7.94702 9.85405 8.40708 9.58516 8.80996 9.23506C10.1602 8.06172 10.6403 6.17271 10.0143 4.49641C9.41182 2.88305 7.90349 1.78829 6.18809 1.71339C5.71516 1.69274 5.34851 1.29262 5.36916 0.81968C5.38907 0.363635 5.76184 0.00641895 6.21249 0Z" fill="url(#paint0_linear_1_478594)"/>
<defs>
<linearGradient id="paint0_linear_1_478594" x1="0" y1="12" x2="12" y2="12" gradientUnits="userSpaceOnUse">
<stop stop-color="#FFB929"/>
<stop offset="1" stop-color="#FF8E96"/>
</linearGradient>
</defs>
</svg>
