<svg width="12" height="12" viewBox="0 0 12 12" fill="none" xmlns="http://www.w3.org/2000/svg">
<path d="M4.07785 6.85444L2.35424 10.9708C2.30657 11.0846 2.40466 11.2057 2.52591 11.1828L3.8654 10.9292C3.91588 10.9196 3.96781 10.9357 4.00403 10.9722L4.8532 11.826C4.93346 11.9067 5.07043 11.8762 5.10883 11.7691L6.57159 7.68713C6.60102 7.60499 6.55683 7.51477 6.47389 7.48766L4.26883 6.76704C4.19213 6.74197 4.10902 6.78 4.07785 6.85444Z" fill="#FF6868"/>
<path d="M4.07785 6.85444L2.35424 10.9708C2.30657 11.0846 2.40466 11.2057 2.52591 11.1828L3.8654 10.9292C3.91588 10.9196 3.96781 10.9357 4.00403 10.9722L4.8532 11.826C4.93346 11.9067 5.07043 11.8762 5.10883 11.7691L6.57159 7.68713C6.60102 7.60499 6.55683 7.51477 6.47389 7.48766L4.26883 6.76704C4.19213 6.74197 4.10902 6.78 4.07785 6.85444Z" fill="url(#paint0_linear_1_478736)" fill-opacity="0.8"/>
<path d="M7.89175 6.85444L9.61537 10.9708C9.66303 11.0846 9.56494 11.2057 9.44369 11.1828L8.1042 10.9292C8.05373 10.9196 8.0018 10.9357 7.96557 10.9722L7.1164 11.826C7.03615 11.9067 6.89917 11.8762 6.86078 11.7691L5.39802 7.68713C5.36858 7.60499 5.41277 7.51477 5.49571 7.48766L7.70077 6.76704C7.77748 6.74197 7.86058 6.78 7.89175 6.85444Z" fill="#FF6868"/>
<path d="M7.89175 6.85444L9.61537 10.9708C9.66303 11.0846 9.56494 11.2057 9.44369 11.1828L8.1042 10.9292C8.05373 10.9196 8.0018 10.9357 7.96557 10.9722L7.1164 11.826C7.03615 11.9067 6.89917 11.8762 6.86078 11.7691L5.39802 7.68713C5.36858 7.60499 5.41277 7.51477 5.49571 7.48766L7.70077 6.76704C7.77748 6.74197 7.86058 6.78 7.89175 6.85444Z" fill="url(#paint1_linear_1_478736)" fill-opacity="0.8"/>
<path d="M5.51449 0.774543C5.86497 0.580626 6.29055 0.580626 6.64103 0.774543L10.2945 2.796C10.6649 3.00091 10.8947 3.39077 10.8947 3.81402V7.77252C10.8947 8.19577 10.6649 8.58564 10.2945 8.79055L6.64103 10.812C6.29055 11.0059 5.86497 11.0059 5.51449 10.812L1.861 8.79055C1.49066 8.58564 1.26081 8.19577 1.26081 7.77252V3.81402C1.26081 3.39077 1.49066 3.00091 1.861 2.796L5.51449 0.774543Z" fill="#BA9328"/>
<path d="M5.51449 0.311652C5.86497 0.117736 6.29055 0.117736 6.64103 0.311652L10.2945 2.33311C10.6649 2.53802 10.8947 2.92788 10.8947 3.35113V7.30963C10.8947 7.73288 10.6649 8.12275 10.2945 8.32765L6.64103 10.3491C6.29055 10.543 5.86497 10.543 5.51449 10.3491L1.861 8.32765C1.49066 8.12275 1.26081 7.73288 1.26081 7.30963V3.35113C1.26081 2.92788 1.49066 2.53802 1.861 2.33311L5.51449 0.311652Z" fill="url(#paint2_linear_1_478736)"/>
<g opacity="0.8">
<path d="M5.52075 1.69433C5.86794 1.50502 6.28752 1.50502 6.63472 1.69433L9.08397 3.02985C9.45782 3.2337 9.69044 3.62551 9.69044 4.05133V6.60962C9.69044 7.03544 9.45782 7.42724 9.08397 7.63109L6.63472 8.96661C6.28752 9.15592 5.86794 9.15592 5.52075 8.96661L3.07149 7.63109C2.69764 7.42724 2.46502 7.03544 2.46502 6.60962V4.05133C2.46502 3.62551 2.69764 3.2337 3.07149 3.02985L5.52075 1.69433Z" fill="#D3E36B"/>
<path d="M5.52075 1.69433C5.86794 1.50502 6.28752 1.50502 6.63472 1.69433L9.08397 3.02985C9.45782 3.2337 9.69044 3.62551 9.69044 4.05133V6.60962C9.69044 7.03544 9.45782 7.42724 9.08397 7.63109L6.63472 8.96661C6.28752 9.15592 5.86794 9.15592 5.52075 8.96661L3.07149 7.63109C2.69764 7.42724 2.46502 7.03544 2.46502 6.60962V4.05133C2.46502 3.62551 2.69764 3.2337 3.07149 3.02985L5.52075 1.69433Z" fill="url(#paint3_linear_1_478736)"/>
</g>
<path d="M5.78272 3.40883C5.89986 3.15929 6.25478 3.15929 6.37192 3.40883L6.71974 4.14977C6.76581 4.24792 6.85773 4.31667 6.9649 4.33314L7.76928 4.45677C8.03102 4.497 8.1377 4.81633 7.9527 5.0058L7.3509 5.62216C7.27871 5.69609 7.24592 5.79992 7.26255 5.90191L7.40167 6.7548C7.4454 7.02294 7.16071 7.22345 6.92296 7.09197C6.70202 6.9698 6.49323 6.85434 6.23488 6.71147C6.13688 6.65728 6.01783 6.65725 5.91983 6.71144L5.23167 7.09198C4.99391 7.22346 4.70924 7.02294 4.75298 6.75479L4.89209 5.90191C4.90873 5.79992 4.87594 5.69609 4.80375 5.62216L4.20194 5.0058C4.01695 4.81633 4.12362 4.497 4.38536 4.45677L5.18975 4.33314C5.29691 4.31667 5.38884 4.24792 5.43491 4.14977L5.78272 3.40883Z" fill="white"/>
<defs>
<linearGradient id="paint0_linear_1_478736" x1="5.00063" y1="9.24994" x2="3.75063" y2="11.7499" gradientUnits="userSpaceOnUse">
<stop stop-color="#200505"/>
<stop offset="1" stop-color="#C28765" stop-opacity="0"/>
</linearGradient>
<linearGradient id="paint1_linear_1_478736" x1="7.50097" y1="9.74994" x2="8.25097" y2="11.7499" gradientUnits="userSpaceOnUse">
<stop stop-color="#772121"/>
<stop offset="1" stop-color="#C28765" stop-opacity="0"/>
</linearGradient>
<linearGradient id="paint2_linear_1_478736" x1="2.77524" y1="0.999446" x2="9.71409" y2="9.61914" gradientUnits="userSpaceOnUse">
<stop stop-color="#FFFFBA"/>
<stop offset="1" stop-color="#EFC12D"/>
</linearGradient>
<linearGradient id="paint3_linear_1_478736" x1="3.99193" y1="2.45135" x2="8.62861" y2="8.46936" gradientUnits="userSpaceOnUse">
<stop stop-color="#FFCA10"/>
<stop offset="1" stop-color="#FFB774"/>
</linearGradient>
</defs>
</svg>
