<svg width="12" height="12" viewBox="0 0 12 12" fill="none" xmlns="http://www.w3.org/2000/svg">
<path d="M1 3.39658C1 3.13169 1.19284 2.90418 1.45351 2.85709C3.10306 2.55907 4.64788 1.7825 5.86406 0.628937L6 0.5L6.13594 0.628937C7.35212 1.7825 8.89694 2.55907 10.5465 2.85709C10.8072 2.90418 11 3.13169 11 3.39658V6.61111C11 9.37253 8.76142 11.6111 6 11.6111C3.23858 11.6111 1 9.37254 1 6.61111V3.39658Z" fill="#B9E4FA"/>
<path d="M1 3.39658C1 3.13169 1.19284 2.90418 1.45351 2.85709C3.10306 2.55907 4.64788 1.7825 5.86406 0.628937L6 0.5L6.13594 0.628937C7.35212 1.7825 8.89694 2.55907 10.5465 2.85709C10.8072 2.90418 11 3.13169 11 3.39658V6.61111C11 9.37253 8.76142 11.6111 6 11.6111C3.23858 11.6111 1 9.37254 1 6.61111V3.39658Z" fill="url(#paint0_linear_1_478701)" fill-opacity="0.4"/>
<path opacity="0.8" d="M6 11.6111V0.5L6.13594 0.628937C7.35212 1.7825 8.89694 2.55907 10.5465 2.85709C10.8072 2.90418 11 3.13169 11 3.39658V6.61111C11 9.37253 8.76142 11.6111 6 11.6111Z" fill="url(#paint1_linear_1_478701)"/>
<path d="M4.49601 6.70101L5.30882 4.56444C5.32358 4.52565 5.36077 4.5 5.40228 4.5H7.77376C7.8606 4.5 7.90617 4.60309 7.84771 4.66731L6.81895 5.79758C6.7605 5.8618 6.80606 5.96489 6.89291 5.96489H7.73584C7.82793 5.96489 7.87107 6.07884 7.80206 6.13982L4.57661 8.99041C4.48884 9.06797 4.36218 8.95738 4.42721 8.85996L5.67397 6.99208C5.71833 6.92563 5.6707 6.83656 5.5908 6.83656H4.58948C4.51946 6.83656 4.47112 6.76645 4.49601 6.70101Z" fill="white"/>
<defs>
<linearGradient id="paint0_linear_1_478701" x1="6" y1="0.5" x2="6" y2="11.6111" gradientUnits="userSpaceOnUse">
<stop stop-color="#19529F"/>
<stop offset="1" stop-color="#B9E4FA" stop-opacity="0"/>
</linearGradient>
<linearGradient id="paint1_linear_1_478701" x1="6" y1="5.7657" x2="12.9444" y2="5.7657" gradientUnits="userSpaceOnUse">
<stop stop-color="#4285B9"/>
<stop offset="1" stop-color="#4286B9" stop-opacity="0"/>
</linearGradient>
</defs>
</svg>
