<svg width="12" height="12" viewBox="0 0 12 12" fill="none" xmlns="http://www.w3.org/2000/svg">
<path fill-rule="evenodd" clip-rule="evenodd" d="M5.03984 0C4.3771 0 3.83984 0.537258 3.83984 1.2H8.15984C8.15984 0.537258 7.62259 0 6.95984 0H5.03984ZM1.49961 1.20007C1.00255 1.20007 0.599609 1.60302 0.599609 2.10007C0.599609 2.59713 1.00255 3.00007 1.49961 3.00007H10.4996C10.9967 3.00007 11.3996 2.59713 11.3996 2.10007C11.3996 1.60302 10.9967 1.20007 10.4996 1.20007H1.49961Z" fill="url(#paint0_linear_1_478829)"/>
<path fill-rule="evenodd" clip-rule="evenodd" d="M1.2002 4.2002H10.8002L10.0347 10.4201C9.92362 11.3223 9.15723 12.0002 8.24815 12.0002H3.75224C2.84316 12.0002 2.07677 11.3223 1.96572 10.4201L1.2002 4.2002ZM3.59961 6.6C3.59961 6.26863 3.86824 6 4.19961 6C4.53098 6 4.79961 6.26863 4.79961 6.6V9.6C4.79961 9.93137 4.53098 10.2 4.19961 10.2C3.86824 10.2 3.59961 9.93137 3.59961 9.6V6.6ZM7.8002 6C7.46882 6 7.2002 6.26863 7.2002 6.6V9.6C7.2002 9.93137 7.46882 10.2 7.8002 10.2C8.13157 10.2 8.4002 9.93137 8.4002 9.6V6.6C8.4002 6.26863 8.13157 6 7.8002 6Z" fill="url(#paint1_linear_1_478829)"/>
<defs>
<linearGradient id="paint0_linear_1_478829" x1="0.599609" y1="2" x2="8.88544" y2="7.90366" gradientUnits="userSpaceOnUse">
<stop stop-color="#9D9D9D"/>
<stop offset="1" stop-color="#6D6D6D"/>
</linearGradient>
<linearGradient id="paint1_linear_1_478829" x1="1.2002" y1="4.2002" x2="10.1978" y2="11.8621" gradientUnits="userSpaceOnUse">
<stop stop-color="#C2C2C2"/>
<stop offset="1" stop-color="#797979"/>
</linearGradient>
</defs>
</svg>
