<svg width="12" height="12" viewBox="0 0 12 12" fill="none" xmlns="http://www.w3.org/2000/svg">
<circle cx="6" cy="6.5" r="5.5" fill="#508BB4"/>
<circle cx="6" cy="6" r="5.5" fill="#6DA5CB"/>
<circle cx="6" cy="6" r="5.5" fill="url(#paint0_linear_1_478752)"/>
<g opacity="0.44">
<circle cx="6.07129" cy="6.07129" r="4" fill="#6DA5CB"/>
<circle cx="6.07129" cy="6.07129" r="4" fill="url(#paint1_linear_1_478752)" style="mix-blend-mode:multiply"/>
</g>
<g filter="url(#filter0_d_1_478752)">
<path d="M5.72602 3.11914C5.41782 3.11914 5.16797 3.36024 5.16797 3.65764V6.34936C5.16797 6.49237 5.2261 6.62925 5.32901 6.72855L5.33384 6.73322L6.31055 7.6757C6.52849 7.886 6.88183 7.886 7.09976 7.6757C7.31769 7.46542 7.31769 7.12445 7.09976 6.91417L6.28407 6.12706V3.65764C6.28407 3.36024 6.03422 3.11914 5.72602 3.11914Z" fill="white"/>
</g>
<defs>
<filter id="filter0_d_1_478752" x="3.16797" y="1.11914" width="6.09521" height="8.71436" filterUnits="userSpaceOnUse" color-interpolation-filters="sRGB">
<feFlood flood-opacity="0" result="BackgroundImageFix"/>
<feColorMatrix in="SourceAlpha" type="matrix" values="0 0 0 0 0 0 0 0 0 0 0 0 0 0 0 0 0 0 127 0" result="hardAlpha"/>
<feOffset/>
<feGaussianBlur stdDeviation="1"/>
<feComposite in2="hardAlpha" operator="out"/>
<feColorMatrix type="matrix" values="0 0 0 0 0.203837 0 0 0 0 0.551993 0 0 0 0 0.829167 0 0 0 1 0"/>
<feBlend mode="normal" in2="BackgroundImageFix" result="effect1_dropShadow_1_478752"/>
<feBlend mode="normal" in="SourceGraphic" in2="effect1_dropShadow_1_478752" result="shape"/>
</filter>
<linearGradient id="paint0_linear_1_478752" x1="6" y1="0.5" x2="6" y2="11.5" gradientUnits="userSpaceOnUse">
<stop stop-color="#99C6E7"/>
<stop offset="1" stop-color="#7FB4D8"/>
</linearGradient>
<linearGradient id="paint1_linear_1_478752" x1="6.07129" y1="2.07129" x2="6.07129" y2="10.0713" gradientUnits="userSpaceOnUse">
<stop stop-color="#EBF6FF"/>
<stop offset="1" stop-color="#016FBC"/>
</linearGradient>
</defs>
</svg>
