<svg width="12" height="12" viewBox="0 0 12 12" fill="none" xmlns="http://www.w3.org/2000/svg">
<path d="M8.59227 3.2057C8.59227 4.60833 7.43152 5.74538 5.99967 5.74538C4.56783 5.74538 3.40708 4.60833 3.40708 3.2057C3.40708 1.80307 4.56783 0.666016 5.99967 0.666016C7.43152 0.666016 8.59227 1.80307 8.59227 3.2057Z" fill="url(#paint0_linear_1_478845)"/>
<path d="M1.33301 10.8247C1.33301 8.30002 3.42235 6.25332 5.99967 6.25332C8.577 6.25332 10.6663 8.30002 10.6663 10.8247V10.8327C10.6663 11.1088 10.4425 11.3327 10.1663 11.3327H1.83301C1.55686 11.3327 1.33301 11.1088 1.33301 10.8327V10.8247Z" fill="url(#paint1_linear_1_478845)"/>
<defs>
<linearGradient id="paint0_linear_1_478845" x1="5.99968" y1="1.00464" x2="5.99968" y2="11.1634" gradientUnits="userSpaceOnUse">
<stop stop-color="#E0E0E0"/>
<stop offset="1" stop-color="#999999"/>
</linearGradient>
<linearGradient id="paint1_linear_1_478845" x1="5.99968" y1="1.00464" x2="5.99968" y2="11.1634" gradientUnits="userSpaceOnUse">
<stop stop-color="#E0E0E0"/>
<stop offset="1" stop-color="#999999"/>
</linearGradient>
</defs>
</svg>
