<svg width="12" height="12" viewBox="0 0 12 12" fill="none" xmlns="http://www.w3.org/2000/svg">
<path fill-rule="evenodd" clip-rule="evenodd" d="M4.50012 5.5C5.60469 5.5 6.50012 4.60457 6.50012 3.5C6.50012 2.39543 5.60469 1.5 4.50012 1.5C3.39555 1.5 2.50012 2.39543 2.50012 3.5C2.50012 4.60457 3.39555 5.5 4.50012 5.5ZM4.5 6C2.01472 6 0 8.056 0 10.5413C0 10.7923 0.203506 11 0.454545 11H8.54545C8.79649 11 9 10.7923 9 10.5413C9 8.056 6.98528 6 4.5 6Z" fill="url(#paint0_linear_1_478874)"/>
<path fill-rule="evenodd" clip-rule="evenodd" d="M6.89136 4.9211C7.0889 4.49812 7.201 4.01417 7.201 3.5C7.201 2.98583 7.0889 2.50188 6.89136 2.07889C7.02356 2.02774 7.16521 2 7.31253 2C8.0374 2 8.62503 2.67157 8.62503 3.5C8.62503 4.32843 8.0374 5 7.31253 5C7.16521 5 7.02356 4.97226 6.89136 4.9211ZM10 11H10.6364C10.8372 11 11 10.8372 11 10.6364C11 9.04774 9.98132 7.69706 8.56153 7.20191C9.44638 8.02367 10 9.19718 10 10.5V11Z" fill="url(#paint1_linear_1_478874)"/>
<defs>
<linearGradient id="paint0_linear_1_478874" x1="0" y1="5.75" x2="9" y2="5.75" gradientUnits="userSpaceOnUse">
<stop stop-color="#E0E0E0"/>
<stop offset="1" stop-color="#999999"/>
</linearGradient>
<linearGradient id="paint1_linear_1_478874" x1="7.13989" y1="6.00006" x2="11.5001" y2="6.00006" gradientUnits="userSpaceOnUse">
<stop stop-color="#BBBBBB"/>
<stop offset="1" stop-color="#828282"/>
</linearGradient>
</defs>
</svg>
