<svg width="16" height="16" viewBox="0 0 16 16" fill="none" xmlns="http://www.w3.org/2000/svg">
<path d="M0.949798 7.79303C0.883942 7.95311 0.818068 8.11321 0.752212 8.27329C0.707041 8.43965 0.737637 8.59388 0.828622 8.73747C0.922536 8.88612 1.06747 8.96624 1.22081 9.03311C1.34907 9.08897 1.41028 9.11054 1.42604 9.1511C1.44172 9.19149 1.4123 9.25072 1.35914 9.38137C1.28958 9.55266 1.24272 9.7297 1.29649 9.91416C1.38438 10.215 1.56484 10.3533 1.85032 10.3904C2.13279 10.4269 2.34044 10.2722 2.47497 10.0215C2.5151 9.94683 2.54542 9.86719 2.57561 9.78786L2.58468 9.76404C2.6184 9.67567 2.67022 9.65706 2.75504 9.69478C2.95992 9.78587 3.16545 9.8748 3.37215 9.96121C3.46375 9.99934 3.48716 10.0541 3.44652 10.146C3.39072 10.2716 3.33984 10.3991 3.31871 10.5375C3.24773 11.0039 3.70288 11.3889 4.1387 11.2354C4.39496 11.1451 4.51067 10.9394 4.6014 10.703C4.66734 10.531 4.68103 10.5276 4.84632 10.5987C5.25977 10.7767 5.67287 10.9551 6.08601 11.1336C6.2675 11.2119 6.44902 11.2904 6.63058 11.3687C6.70334 11.4001 6.77605 11.4318 6.84875 11.4634C7.03511 11.5445 7.2215 11.6256 7.40914 11.7034C7.51154 11.746 7.54503 11.8017 7.49396 11.9074C7.45354 11.9911 7.41787 12.0779 7.38921 12.1669C7.29917 12.4468 7.42204 12.7987 7.65062 12.9191C7.98643 13.0961 8.29776 13.0302 8.49935 12.7429C8.5761 12.6334 8.62926 12.5128 8.67826 12.3894C8.71001 12.3094 8.76103 12.2887 8.83953 12.3227C8.95795 12.3741 9.07653 12.4251 9.19505 12.4762C9.2912 12.5177 9.38731 12.5592 9.48327 12.601C9.5556 12.6324 9.57449 12.6811 9.5449 12.7546C9.53341 12.783 9.52151 12.8112 9.50961 12.8395C9.48333 12.9019 9.45707 12.9642 9.43503 13.0282C9.33546 13.3171 9.45074 13.6716 9.68364 13.7966C10.0221 13.9781 10.3387 13.9101 10.5435 13.6155C10.6172 13.5096 10.6695 13.394 10.7151 13.2746C10.7487 13.1871 10.8006 13.167 10.8857 13.205C11.0497 13.2781 11.2144 13.3487 11.3792 13.4193C11.4248 13.4388 11.4704 13.4584 11.5159 13.478C11.5947 13.5119 11.6147 13.5626 11.5821 13.6424C11.5714 13.6683 11.5603 13.694 11.5493 13.7198C11.5177 13.7933 11.4861 13.867 11.4628 13.9438C11.3564 14.2972 11.5255 14.6099 11.8881 14.7503C12.1134 14.8372 12.5148 14.7281 12.6253 14.3949C12.6486 14.3251 12.6804 14.2582 12.7089 14.1902C12.7806 14.0199 12.7847 14.0152 12.9561 14.0602C13.6915 14.2538 14.5917 13.8899 14.9193 13.1879C15.0476 12.9137 15.1763 12.6382 15.1773 12.3195C15.1789 11.8723 15.04 11.4789 14.7816 11.1194C14.4517 10.6608 14.1205 10.2032 13.7893 9.74557C13.4717 9.30675 13.1541 8.86789 12.8377 8.42813C12.7141 8.25659 12.7002 8.25312 12.4994 8.33551C12.0014 8.53996 11.5038 8.74496 11.0063 8.95086C10.8982 8.99579 10.7881 9.03287 10.6722 9.04877C10.4175 9.08357 10.1927 8.95016 10.1009 8.71203C10.0121 8.48134 10.0911 8.21435 10.2914 8.06765C10.3588 8.01848 10.4339 7.98516 10.5103 7.95381C10.6419 7.89956 10.7735 7.8454 10.9052 7.79124C11.204 7.66825 11.5029 7.54525 11.8015 7.42127C12.0109 7.3343 12.0207 7.29752 11.8913 7.11438C11.8147 7.00594 11.7367 6.89824 11.6587 6.79086C11.5218 6.60262 11.5008 6.59639 11.2831 6.68552C10.884 6.8491 10.485 7.01418 10.086 7.17835C9.89246 7.25809 9.70572 7.25232 9.53646 7.11695C9.21348 6.85876 9.27669 6.35346 9.65852 6.1799C9.859 6.08877 10.0632 6.00638 10.2673 5.92402C10.387 5.87571 10.5067 5.82742 10.6256 5.77736C10.8189 5.69586 10.8333 5.64626 10.7102 5.47318C10.6233 5.3512 10.5356 5.22991 10.4479 5.10863C10.3165 4.92697 10.1851 4.74535 10.0569 4.56152C9.94873 4.40676 9.81985 4.28793 9.64188 4.22904C9.43588 4.14019 9.22979 4.05121 9.02364 3.96219C8.79717 3.86442 8.57063 3.76659 8.344 3.66886C7.98212 3.51252 7.72426 3.59407 7.5201 3.93735C7.45929 4.03996 7.37909 4.10978 7.27074 4.14964C6.7701 4.33375 6.02815 4.01092 5.81392 3.51489C5.76964 3.41196 5.76168 3.30839 5.78955 3.19766C5.8909 2.79301 5.77546 2.56034 5.39998 2.3981C4.95992 2.20805 4.51927 2.01807 4.07861 1.82779C3.73217 1.67803 3.53366 1.72483 3.33215 2.00281C2.65091 3.65816 1.9699 5.3135 1.28889 6.96882C2.15429 7.34867 3.01969 7.72856 3.88515 8.10853L4.27273 8.27872C7.37341 9.64004 10.4741 11.0014 13.5747 12.3622C13.84 12.4785 13.8509 12.5185 13.6346 12.6991C13.3146 12.9665 12.9539 13.0381 12.5562 12.8846C12.506 12.865 12.4565 12.8433 12.407 12.8216C12.3873 12.8129 12.3675 12.8042 12.3476 12.7956L9.30581 11.4603C6.52061 10.2376 3.73537 9.01494 0.949798 7.79303Z" fill="#FAFAFA"/>
<path d="M0.949798 7.79303C0.883942 7.95311 0.818068 8.11321 0.752212 8.27329C0.707041 8.43965 0.737637 8.59388 0.828622 8.73747C0.922536 8.88612 1.06747 8.96624 1.22081 9.03311C1.34907 9.08897 1.41028 9.11054 1.42604 9.1511C1.44172 9.19149 1.4123 9.25072 1.35914 9.38137C1.28958 9.55266 1.24272 9.7297 1.29649 9.91416C1.38438 10.215 1.56484 10.3533 1.85032 10.3904C2.13279 10.4269 2.34044 10.2722 2.47497 10.0215C2.5151 9.94683 2.54542 9.86719 2.57561 9.78786L2.58468 9.76404C2.6184 9.67567 2.67022 9.65706 2.75504 9.69478C2.95992 9.78587 3.16545 9.8748 3.37215 9.96121C3.46375 9.99934 3.48716 10.0541 3.44652 10.146C3.39072 10.2716 3.33984 10.3991 3.31871 10.5375C3.24773 11.0039 3.70288 11.3889 4.1387 11.2354C4.39496 11.1451 4.51067 10.9394 4.6014 10.703C4.66734 10.531 4.68103 10.5276 4.84632 10.5987C5.25977 10.7767 5.67287 10.9551 6.08601 11.1336C6.2675 11.2119 6.44902 11.2904 6.63058 11.3687C6.70334 11.4001 6.77605 11.4318 6.84875 11.4634C7.03511 11.5445 7.2215 11.6256 7.40914 11.7034C7.51154 11.746 7.54503 11.8017 7.49396 11.9074C7.45354 11.9911 7.41787 12.0779 7.38921 12.1669C7.29917 12.4468 7.42204 12.7987 7.65062 12.9191C7.98643 13.0961 8.29776 13.0302 8.49935 12.7429C8.5761 12.6334 8.62926 12.5128 8.67826 12.3894C8.71001 12.3094 8.76103 12.2887 8.83953 12.3227C8.95795 12.3741 9.07653 12.4251 9.19505 12.4762C9.2912 12.5177 9.38731 12.5592 9.48327 12.601C9.5556 12.6324 9.57449 12.6811 9.5449 12.7546C9.53341 12.783 9.52151 12.8112 9.50961 12.8395C9.48333 12.9019 9.45707 12.9642 9.43503 13.0282C9.33546 13.3171 9.45074 13.6716 9.68364 13.7966C10.0221 13.9781 10.3387 13.9101 10.5435 13.6155C10.6172 13.5096 10.6695 13.394 10.7151 13.2746C10.7487 13.1871 10.8006 13.167 10.8857 13.205C11.0497 13.2781 11.2144 13.3487 11.3792 13.4193C11.4248 13.4388 11.4704 13.4584 11.5159 13.478C11.5947 13.5119 11.6147 13.5626 11.5821 13.6424C11.5714 13.6683 11.5603 13.694 11.5493 13.7198C11.5177 13.7933 11.4861 13.867 11.4628 13.9438C11.3564 14.2972 11.5255 14.6099 11.8881 14.7503C12.1134 14.8372 12.5148 14.7281 12.6253 14.3949C12.6486 14.3251 12.6804 14.2582 12.7089 14.1902C12.7806 14.0199 12.7847 14.0152 12.9561 14.0602C13.6915 14.2538 14.5917 13.8899 14.9193 13.1879C15.0476 12.9137 15.1763 12.6382 15.1773 12.3195C15.1789 11.8723 15.04 11.4789 14.7816 11.1194C14.4517 10.6608 14.1205 10.2032 13.7893 9.74557C13.4717 9.30675 13.1541 8.86789 12.8377 8.42813C12.7141 8.25659 12.7002 8.25312 12.4994 8.33551C12.0014 8.53996 11.5038 8.74496 11.0063 8.95086C10.8982 8.99579 10.7881 9.03287 10.6722 9.04877C10.4175 9.08357 10.1927 8.95016 10.1009 8.71203C10.0121 8.48134 10.0911 8.21435 10.2914 8.06765C10.3588 8.01848 10.4339 7.98516 10.5103 7.95381C10.6419 7.89956 10.7735 7.8454 10.9052 7.79124C11.204 7.66825 11.5029 7.54525 11.8015 7.42127C12.0109 7.3343 12.0207 7.29752 11.8913 7.11438C11.8147 7.00594 11.7367 6.89824 11.6587 6.79086C11.5218 6.60262 11.5008 6.59639 11.2831 6.68552C10.884 6.8491 10.485 7.01418 10.086 7.17835C9.89246 7.25809 9.70572 7.25232 9.53646 7.11695C9.21348 6.85876 9.27669 6.35346 9.65852 6.1799C9.859 6.08877 10.0632 6.00638 10.2673 5.92402C10.387 5.87571 10.5067 5.82742 10.6256 5.77736C10.8189 5.69586 10.8333 5.64626 10.7102 5.47318C10.6233 5.3512 10.5356 5.22991 10.4479 5.10863C10.3165 4.92697 10.1851 4.74535 10.0569 4.56152C9.94873 4.40676 9.81985 4.28793 9.64188 4.22904C9.43588 4.14019 9.22979 4.05121 9.02364 3.96219C8.79717 3.86442 8.57063 3.76659 8.344 3.66886C7.98212 3.51252 7.72426 3.59407 7.5201 3.93735C7.45929 4.03996 7.37909 4.10978 7.27074 4.14964C6.7701 4.33375 6.02815 4.01092 5.81392 3.51489C5.76964 3.41196 5.76168 3.30839 5.78955 3.19766C5.8909 2.79301 5.77546 2.56034 5.39998 2.3981C4.95992 2.20805 4.51927 2.01807 4.07861 1.82779C3.73217 1.67803 3.53366 1.72483 3.33215 2.00281C2.65091 3.65816 1.9699 5.3135 1.28889 6.96882C2.15429 7.34867 3.01969 7.72856 3.88515 8.10853L4.27273 8.27872C7.37341 9.64004 10.4741 11.0014 13.5747 12.3622C13.84 12.4785 13.8509 12.5185 13.6346 12.6991C13.3146 12.9665 12.9539 13.0381 12.5562 12.8846C12.506 12.865 12.4565 12.8433 12.407 12.8216C12.3873 12.8129 12.3675 12.8042 12.3476 12.7956L9.30581 11.4603C6.52061 10.2376 3.73537 9.01494 0.949798 7.79303Z" fill="url(#paint0_linear_1_478705)" fill-opacity="0.4" style="mix-blend-mode:multiply"/>
<path d="M0.751953 8.27346L0.949505 7.7932C3.7351 9.0151 6.52035 10.2378 9.30551 11.4605L12.3473 12.7958C12.3642 12.803 12.3811 12.8105 12.398 12.8179L12.4068 12.8217C12.4563 12.8435 12.5057 12.8652 12.556 12.8848C12.8235 12.9881 13.0743 12.9894 13.3073 12.8978L14.722 13.4968C14.309 13.9919 13.5741 14.2232 12.9558 14.0603C12.7844 14.0154 12.7803 14.02 12.7086 14.1904C12.6913 14.2316 12.6728 14.2725 12.6557 14.3139C12.6446 14.3406 12.6342 14.3676 12.625 14.395C12.5145 14.7283 12.1131 14.8373 11.8879 14.7504C11.5252 14.61 11.3561 14.2974 11.4625 13.9439C11.4858 13.8672 11.5174 13.7935 11.549 13.72C11.56 13.6942 11.5711 13.6684 11.5818 13.6426C11.6145 13.5627 11.5945 13.5121 11.5157 13.4782L11.3789 13.4195L11.3771 13.4187C11.2129 13.3483 11.0488 13.278 10.8855 13.2051C10.8004 13.1672 10.7484 13.1873 10.7148 13.2748C10.6692 13.3941 10.6169 13.5098 10.5433 13.6157C10.3384 13.9103 10.0218 13.9783 9.68337 13.7968C9.45046 13.6718 9.33519 13.3172 9.43472 13.0284C9.45679 12.9644 9.48303 12.902 9.50932 12.8397L9.51095 12.8358C9.5223 12.8088 9.53366 12.7819 9.54463 12.7548C9.57421 12.6813 9.55531 12.6326 9.48299 12.6012C9.38703 12.5594 9.29094 12.5179 9.19477 12.4764C9.07627 12.4253 8.95769 12.3742 8.83923 12.3229C8.76076 12.2889 8.70974 12.3096 8.67798 12.3896C8.62896 12.513 8.57582 12.6335 8.49909 12.7431C8.29749 13.0304 7.98614 13.0963 7.65033 12.9193C7.42175 12.7989 7.2989 12.447 7.38892 12.167C7.4176 12.0781 7.45325 11.9913 7.4937 11.9075C7.54475 11.8019 7.51126 11.7462 7.40886 11.7036C7.31297 11.6638 7.21743 11.6232 7.12205 11.5822C7.03074 11.5429 6.93959 11.5033 6.84848 11.4636C6.77577 11.4319 6.70306 11.4003 6.63029 11.3689L6.08571 11.1337C5.80679 11.0133 5.52791 10.8928 5.24888 10.7725L4.84605 10.5989C4.68074 10.5277 4.66705 10.5311 4.6011 10.7032C4.51039 10.9395 4.39466 11.1452 4.13843 11.2356C3.70258 11.3891 3.24746 11.0041 3.31844 10.5377C3.33957 10.3993 3.39044 10.2718 3.44624 10.1461C3.48688 10.0543 3.46348 9.99952 3.37189 9.96137C3.16519 9.87499 2.95966 9.78606 2.75476 9.69495C2.66995 9.65723 2.61812 9.67585 2.5844 9.7642L2.57533 9.78802C2.54516 9.86735 2.51482 9.94699 2.47469 10.0216C2.34018 10.2723 2.1325 10.4271 1.85004 10.3905C1.56455 10.3534 1.38409 10.2152 1.29622 9.91432C1.24243 9.72986 1.28931 9.55284 1.35885 9.38153L1.37878 9.33307C1.41908 9.2355 1.43937 9.1863 1.42576 9.15128C1.41192 9.11576 1.36322 9.09476 1.26505 9.05254L1.22054 9.03329C1.06717 8.96643 0.922238 8.88628 0.828323 8.73765C0.737355 8.59404 0.706759 8.43982 0.751953 8.27346Z" fill="url(#paint1_linear_1_478705)"/>
<path d="M0.751953 8.27346L0.949505 7.7932C3.7351 9.0151 6.52035 10.2378 9.30551 11.4605L12.3473 12.7958C12.3642 12.803 12.3811 12.8105 12.398 12.8179L12.4068 12.8217C12.4563 12.8435 12.5057 12.8652 12.556 12.8848C12.8235 12.9881 13.0743 12.9894 13.3073 12.8978L14.722 13.4968C14.309 13.9919 13.5741 14.2232 12.9558 14.0603C12.7844 14.0154 12.7803 14.02 12.7086 14.1904C12.6913 14.2316 12.6728 14.2725 12.6557 14.3139C12.6446 14.3406 12.6342 14.3676 12.625 14.395C12.5145 14.7283 12.1131 14.8373 11.8879 14.7504C11.5252 14.61 11.3561 14.2974 11.4625 13.9439C11.4858 13.8672 11.5174 13.7935 11.549 13.72C11.56 13.6942 11.5711 13.6684 11.5818 13.6426C11.6145 13.5627 11.5945 13.5121 11.5157 13.4782L11.3789 13.4195L11.3771 13.4187C11.2129 13.3483 11.0488 13.278 10.8855 13.2051C10.8004 13.1672 10.7484 13.1873 10.7148 13.2748C10.6692 13.3941 10.6169 13.5098 10.5433 13.6157C10.3384 13.9103 10.0218 13.9783 9.68337 13.7968C9.45046 13.6718 9.33519 13.3172 9.43472 13.0284C9.45679 12.9644 9.48303 12.902 9.50932 12.8397L9.51095 12.8358C9.5223 12.8088 9.53366 12.7819 9.54463 12.7548C9.57421 12.6813 9.55531 12.6326 9.48299 12.6012C9.38703 12.5594 9.29094 12.5179 9.19477 12.4764C9.07627 12.4253 8.95769 12.3742 8.83923 12.3229C8.76076 12.2889 8.70974 12.3096 8.67798 12.3896C8.62896 12.513 8.57582 12.6335 8.49909 12.7431C8.29749 13.0304 7.98614 13.0963 7.65033 12.9193C7.42175 12.7989 7.2989 12.447 7.38892 12.167C7.4176 12.0781 7.45325 11.9913 7.4937 11.9075C7.54475 11.8019 7.51126 11.7462 7.40886 11.7036C7.31297 11.6638 7.21743 11.6232 7.12205 11.5822C7.03074 11.5429 6.93959 11.5033 6.84848 11.4636C6.77577 11.4319 6.70306 11.4003 6.63029 11.3689L6.08571 11.1337C5.80679 11.0133 5.52791 10.8928 5.24888 10.7725L4.84605 10.5989C4.68074 10.5277 4.66705 10.5311 4.6011 10.7032C4.51039 10.9395 4.39466 11.1452 4.13843 11.2356C3.70258 11.3891 3.24746 11.0041 3.31844 10.5377C3.33957 10.3993 3.39044 10.2718 3.44624 10.1461C3.48688 10.0543 3.46348 9.99952 3.37189 9.96137C3.16519 9.87499 2.95966 9.78606 2.75476 9.69495C2.66995 9.65723 2.61812 9.67585 2.5844 9.7642L2.57533 9.78802C2.54516 9.86735 2.51482 9.94699 2.47469 10.0216C2.34018 10.2723 2.1325 10.4271 1.85004 10.3905C1.56455 10.3534 1.38409 10.2152 1.29622 9.91432C1.24243 9.72986 1.28931 9.55284 1.35885 9.38153L1.37878 9.33307C1.41908 9.2355 1.43937 9.1863 1.42576 9.15128C1.41192 9.11576 1.36322 9.09476 1.26505 9.05254L1.22054 9.03329C1.06717 8.96643 0.922238 8.88628 0.828323 8.73765C0.737355 8.59404 0.706759 8.43982 0.751953 8.27346Z" fill="black" fill-opacity="0.2"/>
<defs>
<linearGradient id="paint0_linear_1_478705" x1="14.0365" y1="13.8516" x2="2.30832" y2="3.8214" gradientUnits="userSpaceOnUse">
<stop stop-color="#333333"/>
<stop offset="1" stop-color="white"/>
</linearGradient>
<linearGradient id="paint1_linear_1_478705" x1="4.69392" y1="10.971" x2="14.6215" y2="13.1498" gradientUnits="userSpaceOnUse">
<stop stop-color="#9E9E9E"/>
<stop offset="1" stop-color="#F4F4F4" stop-opacity="0.62"/>
</linearGradient>
</defs>
</svg>
