<svg width="16" height="16" viewBox="0 0 16 16" fill="none" xmlns="http://www.w3.org/2000/svg">
<circle cx="8.0002" cy="8.28548" r="7.33333" fill="#333333"/>
<path fill-rule="evenodd" clip-rule="evenodd" d="M7.60841 3.11187C7.84207 3.28163 8.15847 3.28163 8.39212 3.11187L10.6732 1.45459C11.5277 1.7892 12.3041 2.27952 12.9675 2.89064L12.6312 6.09016C12.601 6.3774 12.7592 6.65141 13.023 6.76888L15.3171 7.79027C15.328 7.95396 15.3336 8.11911 15.3336 8.28556C15.3336 9.47947 15.0483 10.6067 14.5421 11.6029L11.2929 11.8301C11.0048 11.8503 10.7624 12.0536 10.6926 12.3339L9.93803 15.3602C9.32076 15.5288 8.67103 15.6189 8.00026 15.6189C7.30535 15.6189 6.63302 15.5222 5.99597 15.3416L5.25114 12.3543C5.18127 12.0741 4.9389 11.8707 4.65078 11.8505L1.47131 11.6282C0.989674 10.6893 0.704599 9.63302 0.67041 8.51357L3.10017 6.87468C3.33961 6.71317 3.44783 6.41586 3.36822 6.13823L2.57054 3.3564C3.32423 2.52667 4.2655 1.8704 5.32736 1.45459L7.60841 3.11187Z" fill="url(#paint0_linear_1_478659)"/>
<path d="M15.0282 10.4238C14.4171 12.5627 12.0505 15.6183 8.00043 15.6183C3.95034 15.6183 1.58377 12.5627 0.972656 10.4238C1.88932 12.3371 3.95035 14.0905 8.00044 14.0905C12.0505 14.0905 13.919 12.6093 15.0282 10.4238Z" fill="black" fill-opacity="0.25"/>
<path opacity="0.2" fill-rule="evenodd" clip-rule="evenodd" d="M8.00077 2.17383C7.66327 2.17383 7.38966 2.44743 7.38966 2.78494V5.06225L5.35635 6.53954L2.79629 5.85357C2.47028 5.76621 2.13518 5.95968 2.04783 6.28569C1.96048 6.6117 2.15394 6.94679 2.47995 7.03414L4.66577 7.61983L5.57405 10.4152L4.15468 11.8346C3.91602 12.0732 3.91602 12.4602 4.15468 12.6988C4.39333 12.9375 4.78027 12.9375 5.01892 12.6988L6.46653 11.2512H9.21706L10.5592 12.5934C10.7979 12.832 11.1848 12.832 11.4235 12.5934C11.6621 12.3547 11.6621 11.9678 11.4235 11.7291L10.3497 10.6554L11.33 7.63822L13.3455 6.9099C13.663 6.79519 13.8273 6.44489 13.7126 6.12747C13.5979 5.81005 13.2476 5.64572 12.9302 5.76042L10.6882 6.57059L8.61189 5.06208V2.78494C8.61189 2.44743 8.33828 2.17383 8.00077 2.17383Z" fill="#222222"/>
<path d="M7.60902 4.90384C7.84268 4.73408 8.15908 4.73408 8.39274 4.90384L11.0962 6.86804C11.3299 7.03781 11.4277 7.33872 11.3384 7.6134L10.3058 10.7915C10.2165 11.0662 9.96055 11.2522 9.67173 11.2522H6.33003C6.04121 11.2522 5.78524 11.0662 5.69599 10.7915L4.66335 7.6134C4.5741 7.33872 4.67187 7.03781 4.90553 6.86804L7.60902 4.90384Z" fill="#333333"/>
<defs>
<linearGradient id="paint0_linear_1_478659" x1="2.50027" y1="1.56328" x2="13.1947" y2="14.7022" gradientUnits="userSpaceOnUse">
<stop stop-color="white"/>
<stop offset="1" stop-color="#E8E8E8"/>
</linearGradient>
</defs>
</svg>
