<svg width="16" height="16" viewBox="0 0 16 16" fill="none" xmlns="http://www.w3.org/2000/svg">
<path d="M7.24883 2.28663C7.71613 2.02808 8.28357 2.02807 8.75087 2.28663L13.5949 4.96678C14.0886 5.23999 14.3951 5.75981 14.3951 6.32414V11.5719C14.3951 12.1362 14.0886 12.656 13.5949 12.9293L8.75087 15.6094C8.28357 15.868 7.71613 15.868 7.24883 15.6094L2.40485 12.9293C1.91105 12.656 1.60459 12.1362 1.60459 11.5719V6.32414C1.60459 5.75981 1.91105 5.23999 2.40484 4.96678L7.24883 2.28663Z" fill="#A64D48"/>
<path d="M7.24883 1.6714C7.71613 1.41284 8.28357 1.41284 8.75087 1.6714L13.5949 4.35154C14.0886 4.62475 14.3951 5.14457 14.3951 5.70891V10.9567C14.3951 11.521 14.0886 12.0408 13.5949 12.314L8.75087 14.9942C8.28357 15.2527 7.71613 15.2527 7.24883 14.9942L2.40485 12.314C1.91105 12.0408 1.60459 11.521 1.60459 10.9567V5.70891C1.60459 5.14457 1.91105 4.62475 2.40484 4.35154L7.24883 1.6714Z" fill="url(#paint0_linear_1_478711)"/>
<path d="M3.37868 3.81295C3.46394 3.48265 3.48884 3.11069 3.45936 2.79323C3.07151 3.02539 2.51942 3.48884 2.30461 3.8857C2.19415 4.08962 2.11831 4.37406 2.0453 4.65332C2.16797 4.51848 2.31333 4.40242 2.47776 4.31145L3.37868 3.81295Z" fill="#FFE3D0"/>
<path d="M3.37868 3.81295C3.46394 3.48265 3.48884 3.11069 3.45936 2.79323C3.07151 3.02539 2.51942 3.48884 2.30461 3.8857C2.19415 4.08962 2.11831 4.37406 2.0453 4.65332C2.16797 4.51848 2.31333 4.40242 2.47776 4.31145L3.37868 3.81295Z" fill="url(#paint1_linear_1_478711)" fill-opacity="0.8"/>
<path d="M1.98021 4.72923C2.07103 4.08827 2.2171 3.45185 2.4203 2.83102C2.80131 2.66185 3.11914 2.36756 3.28925 1.97611C3.46811 1.56393 3.43795 1.10768 3.3223 0.640625C2.93348 0.874587 2.5311 1.21477 2.35126 1.62601C2.18115 2.0184 2.18799 2.43506 2.33767 2.80131C2.22198 3.0803 2.12575 3.36557 2.0412 3.65445C1.98092 3.8587 1.92942 4.06569 1.88473 4.27359C1.8913 4.1875 1.89979 4.09841 1.90839 4.00853C1.93649 3.71413 1.96541 3.41143 1.9304 3.17837C1.8643 2.73922 1.50075 2.13627 1.21304 1.80153C1.00894 2.23438 0.876728 2.81573 0.94381 3.25578C0.987643 3.5477 1.26728 3.90516 1.52888 4.2396C1.63259 4.37218 1.73347 4.50113 1.81569 4.62094C1.81378 4.63232 1.81171 4.6437 1.80957 4.65512C1.80412 4.68423 1.79823 4.71334 1.79334 4.74245C1.77194 4.87278 1.75331 5.00364 1.73761 5.13484C1.79909 4.98903 1.88078 4.85243 1.98021 4.72923Z" fill="#FFE3D0"/>
<path d="M1.98021 4.72923C2.07103 4.08827 2.2171 3.45185 2.4203 2.83102C2.80131 2.66185 3.11914 2.36756 3.28925 1.97611C3.46811 1.56393 3.43795 1.10768 3.3223 0.640625C2.93348 0.874587 2.5311 1.21477 2.35126 1.62601C2.18115 2.0184 2.18799 2.43506 2.33767 2.80131C2.22198 3.0803 2.12575 3.36557 2.0412 3.65445C1.98092 3.8587 1.92942 4.06569 1.88473 4.27359C1.8913 4.1875 1.89979 4.09841 1.90839 4.00853C1.93649 3.71413 1.96541 3.41143 1.9304 3.17837C1.8643 2.73922 1.50075 2.13627 1.21304 1.80153C1.00894 2.23438 0.876728 2.81573 0.94381 3.25578C0.987643 3.5477 1.26728 3.90516 1.52888 4.2396C1.63259 4.37218 1.73347 4.50113 1.81569 4.62094C1.81378 4.63232 1.81171 4.6437 1.80957 4.65512C1.80412 4.68423 1.79823 4.71334 1.79334 4.74245C1.77194 4.87278 1.75331 5.00364 1.73761 5.13484C1.79909 4.98903 1.88078 4.85243 1.98021 4.72923Z" fill="url(#paint2_linear_1_478711)" fill-opacity="0.8"/>
<path d="M1.60472 5.9636C1.60427 5.96034 1.60378 5.95711 1.60333 5.95384C1.55998 5.64904 1.51544 5.33601 1.423 5.1069C1.24707 4.67225 0.72998 4.13499 0.354793 3.85333C0.252704 4.33748 0.261456 4.95842 0.436411 5.39307C0.55296 5.6822 0.926795 5.98881 1.27625 6.27547C1.39179 6.37023 1.5047 6.46282 1.60472 6.55187V5.9636Z" fill="#FFE3D0"/>
<path d="M1.60472 5.9636C1.60427 5.96034 1.60378 5.95711 1.60333 5.95384C1.55998 5.64904 1.51544 5.33601 1.423 5.1069C1.24707 4.67225 0.72998 4.13499 0.354793 3.85333C0.252704 4.33748 0.261456 4.95842 0.436411 5.39307C0.55296 5.6822 0.926795 5.98881 1.27625 6.27547C1.39179 6.37023 1.5047 6.46282 1.60472 6.55187V5.9636Z" fill="url(#paint3_linear_1_478711)" fill-opacity="0.8"/>
<path d="M1.60472 7.38976C1.56524 7.33173 1.52483 7.27795 1.48329 7.22979C1.16057 6.85543 0.465595 6.48197 0 6.31637C0.0670823 6.82212 0.29064 7.42867 0.613319 7.80304C0.805927 8.02592 1.20572 8.20155 1.60472 8.36313V7.38976Z" fill="#FFE3D0"/>
<path d="M1.60472 7.38976C1.56524 7.33173 1.52483 7.27795 1.48329 7.22979C1.16057 6.85543 0.465595 6.48197 0 6.31637C0.0670823 6.82212 0.29064 7.42867 0.613319 7.80304C0.805927 8.02592 1.20572 8.20155 1.60472 8.36313V7.38976Z" fill="url(#paint4_linear_1_478711)" fill-opacity="0.8"/>
<path d="M1.60472 8.97622C1.20234 8.84131 0.739333 8.75657 0.402419 8.73355C0.630822 9.21409 1.04586 9.75225 1.4852 10.033C1.52156 10.0563 1.56156 10.0775 1.60472 10.097V8.97622Z" fill="#FFE3D0"/>
<path d="M1.60472 8.97622C1.20234 8.84131 0.739333 8.75657 0.402419 8.73355C0.630822 9.21409 1.04586 9.75225 1.4852 10.033C1.52156 10.0563 1.56156 10.0775 1.60472 10.097V8.97622Z" fill="url(#paint5_linear_1_478711)" fill-opacity="0.8"/>
<path d="M12.6213 3.81295C12.5361 3.48265 12.5112 3.11069 12.5406 2.79323C12.9285 3.02539 13.4806 3.48884 13.6954 3.8857C13.8059 4.08962 13.8817 4.37406 13.9547 4.65332C13.832 4.51848 13.6867 4.40242 13.5222 4.31145L12.6213 3.81295Z" fill="#FFE3D0"/>
<path d="M12.6213 3.81295C12.5361 3.48265 12.5112 3.11069 12.5406 2.79323C12.9285 3.02539 13.4806 3.48884 13.6954 3.8857C13.8059 4.08962 13.8817 4.37406 13.9547 4.65332C13.832 4.51848 13.6867 4.40242 13.5222 4.31145L12.6213 3.81295Z" fill="url(#paint6_linear_1_478711)" fill-opacity="0.8"/>
<path d="M14.0198 4.72923C13.929 4.08827 13.7829 3.45185 13.5797 2.83102C13.1987 2.66185 12.8809 2.36756 12.7107 1.97611C12.5319 1.56393 12.562 1.10768 12.6777 0.640625C13.0665 0.874587 13.4689 1.21477 13.6487 1.62601C13.8188 2.0184 13.812 2.43506 13.6623 2.80131C13.778 3.0803 13.8742 3.36557 13.9588 3.65445C14.0191 3.8587 14.0706 4.06569 14.1153 4.27359C14.1087 4.1875 14.1002 4.09841 14.0916 4.00853C14.0635 3.71413 14.0346 3.41143 14.0696 3.17837C14.1357 2.73922 14.4992 2.13627 14.787 1.80153C14.9911 2.23438 15.1233 2.81573 15.0562 3.25578C15.0124 3.5477 14.7327 3.90516 14.4711 4.2396C14.3674 4.37218 14.2665 4.50113 14.1843 4.62094C14.1862 4.63232 14.1883 4.6437 14.1904 4.65512C14.1959 4.68423 14.2018 4.71334 14.2067 4.74245C14.2281 4.87278 14.2467 5.00364 14.2624 5.13484C14.2009 4.98903 14.1192 4.85243 14.0198 4.72923Z" fill="#FFE3D0"/>
<path d="M14.0198 4.72923C13.929 4.08827 13.7829 3.45185 13.5797 2.83102C13.1987 2.66185 12.8809 2.36756 12.7107 1.97611C12.5319 1.56393 12.562 1.10768 12.6777 0.640625C13.0665 0.874587 13.4689 1.21477 13.6487 1.62601C13.8188 2.0184 13.812 2.43506 13.6623 2.80131C13.778 3.0803 13.8742 3.36557 13.9588 3.65445C14.0191 3.8587 14.0706 4.06569 14.1153 4.27359C14.1087 4.1875 14.1002 4.09841 14.0916 4.00853C14.0635 3.71413 14.0346 3.41143 14.0696 3.17837C14.1357 2.73922 14.4992 2.13627 14.787 1.80153C14.9911 2.23438 15.1233 2.81573 15.0562 3.25578C15.0124 3.5477 14.7327 3.90516 14.4711 4.2396C14.3674 4.37218 14.2665 4.50113 14.1843 4.62094C14.1862 4.63232 14.1883 4.6437 14.1904 4.65512C14.1959 4.68423 14.2018 4.71334 14.2067 4.74245C14.2281 4.87278 14.2467 5.00364 14.2624 5.13484C14.2009 4.98903 14.1192 4.85243 14.0198 4.72923Z" fill="url(#paint7_linear_1_478711)" fill-opacity="0.8"/>
<path d="M14.3953 5.9636C14.3957 5.96034 14.3962 5.95711 14.3967 5.95384C14.44 5.64904 14.4846 5.33601 14.577 5.1069C14.7529 4.67225 15.27 4.13499 15.6452 3.85333C15.7473 4.33748 15.7385 4.95842 15.5636 5.39307C15.447 5.6822 15.0732 5.98881 14.7237 6.27547C14.6082 6.37023 14.4953 6.46282 14.3953 6.55187V5.9636Z" fill="#FFE3D0"/>
<path d="M14.3953 5.9636C14.3957 5.96034 14.3962 5.95711 14.3967 5.95384C14.44 5.64904 14.4846 5.33601 14.577 5.1069C14.7529 4.67225 15.27 4.13499 15.6452 3.85333C15.7473 4.33748 15.7385 4.95842 15.5636 5.39307C15.447 5.6822 15.0732 5.98881 14.7237 6.27547C14.6082 6.37023 14.4953 6.46282 14.3953 6.55187V5.9636Z" fill="url(#paint8_linear_1_478711)" fill-opacity="0.8"/>
<path d="M14.3953 7.38976C14.4348 7.33173 14.4752 7.27795 14.5167 7.22979C14.8394 6.85543 15.5344 6.48197 16 6.31637C15.9329 6.82212 15.7094 7.42867 15.3867 7.80304C15.1941 8.02592 14.7943 8.20155 14.3953 8.36313V7.38976Z" fill="#FFE3D0"/>
<path d="M14.3953 7.38976C14.4348 7.33173 14.4752 7.27795 14.5167 7.22979C14.8394 6.85543 15.5344 6.48197 16 6.31637C15.9329 6.82212 15.7094 7.42867 15.3867 7.80304C15.1941 8.02592 14.7943 8.20155 14.3953 8.36313V7.38976Z" fill="url(#paint9_linear_1_478711)" fill-opacity="0.8"/>
<path d="M14.3953 8.97622C14.7977 8.84131 15.2607 8.75657 15.5976 8.73355C15.3692 9.21409 14.9541 9.75225 14.5148 10.033C14.4784 10.0563 14.4384 10.0775 14.3953 10.097V8.97622Z" fill="#FFE3D0"/>
<path d="M14.3953 8.97622C14.7977 8.84131 15.2607 8.75657 15.5976 8.73355C15.3692 9.21409 14.9541 9.75225 14.5148 10.033C14.4784 10.0563 14.4384 10.0775 14.3953 10.097V8.97622Z" fill="url(#paint10_linear_1_478711)" fill-opacity="0.8"/>
<path d="M7.25675 3.50651C7.71968 3.25409 8.27912 3.25409 8.74205 3.50651L11.9872 5.27602C12.4857 5.54782 12.7958 6.07023 12.7958 6.63798V10.0267C12.7958 10.5944 12.4857 11.1168 11.9872 11.3886L8.74205 13.1582C8.27912 13.4106 7.71968 13.4106 7.25675 13.1582L4.01159 11.3886C3.51311 11.1168 3.20295 10.5944 3.20295 10.0267V6.63798C3.20295 6.07022 3.51311 5.54782 4.01159 5.27602L7.25675 3.50651Z" fill="#F99B64"/>
<path d="M7.25675 3.50651C7.71968 3.25409 8.27912 3.25409 8.74205 3.50651L11.9872 5.27602C12.4857 5.54782 12.7958 6.07023 12.7958 6.63798V10.0267C12.7958 10.5944 12.4857 11.1168 11.9872 11.3886L8.74205 13.1582C8.27912 13.4106 7.71968 13.4106 7.25675 13.1582L4.01159 11.3886C3.51311 11.1168 3.20295 10.5944 3.20295 10.0267V6.63798C3.20295 6.07022 3.51311 5.54782 4.01159 5.27602L7.25675 3.50651Z" fill="url(#paint11_linear_1_478711)"/>
<path d="M7.60698 5.78501C7.76316 5.4523 8.23639 5.4523 8.39257 5.78501L8.85226 6.76428C8.91369 6.89514 9.03626 6.98681 9.17914 7.00878L10.2426 7.17222C10.5916 7.22586 10.7338 7.65162 10.4871 7.90425L9.6913 8.71933C9.59504 8.81791 9.55133 8.95635 9.57351 9.09233L9.75744 10.22C9.81575 10.5775 9.43618 10.8449 9.11917 10.6696C8.82732 10.5082 8.55115 10.3555 8.20985 10.1667C8.07919 10.0945 7.92046 10.0944 7.78979 10.1667L6.88036 10.6696C6.56335 10.8449 6.1838 10.5775 6.24211 10.22L6.42604 9.09233C6.44822 8.95635 6.40451 8.81791 6.30825 8.71933L5.51242 7.90425C5.26576 7.65162 5.408 7.22586 5.75698 7.17222L6.82041 7.00878C6.96329 6.98681 7.08586 6.89514 7.14729 6.76428L7.60698 5.78501Z" fill="white"/>
<defs>
<linearGradient id="paint0_linear_1_478711" x1="3.61523" y1="2.58278" x2="12.8277" y2="14.0268" gradientUnits="userSpaceOnUse">
<stop stop-color="#FFCFA5"/>
<stop offset="1" stop-color="#FF8D69"/>
</linearGradient>
<linearGradient id="paint1_linear_1_478711" x1="5.53846" y1="0.640625" x2="5.53846" y2="14.7945" gradientUnits="userSpaceOnUse">
<stop stop-color="#DFDECE" stop-opacity="0"/>
<stop offset="0.338542" stop-color="#EA7D7D"/>
</linearGradient>
<linearGradient id="paint2_linear_1_478711" x1="5.53846" y1="0.640625" x2="5.53846" y2="14.7945" gradientUnits="userSpaceOnUse">
<stop stop-color="#DFDECE" stop-opacity="0"/>
<stop offset="0.338542" stop-color="#EA7D7D"/>
</linearGradient>
<linearGradient id="paint3_linear_1_478711" x1="5.53846" y1="0.640625" x2="5.53846" y2="14.7945" gradientUnits="userSpaceOnUse">
<stop stop-color="#DFDECE" stop-opacity="0"/>
<stop offset="0.338542" stop-color="#EA7D7D"/>
</linearGradient>
<linearGradient id="paint4_linear_1_478711" x1="5.53846" y1="0.640625" x2="5.53846" y2="14.7945" gradientUnits="userSpaceOnUse">
<stop stop-color="#DFDECE" stop-opacity="0"/>
<stop offset="0.338542" stop-color="#EA7D7D"/>
</linearGradient>
<linearGradient id="paint5_linear_1_478711" x1="5.53846" y1="0.640625" x2="5.53846" y2="14.7945" gradientUnits="userSpaceOnUse">
<stop stop-color="#DFDECE" stop-opacity="0"/>
<stop offset="0.338542" stop-color="#EA7D7D"/>
</linearGradient>
<linearGradient id="paint6_linear_1_478711" x1="10.4615" y1="0.640625" x2="10.4615" y2="14.7945" gradientUnits="userSpaceOnUse">
<stop stop-color="#DFDECE" stop-opacity="0"/>
<stop offset="0.338542" stop-color="#EA7D7D"/>
</linearGradient>
<linearGradient id="paint7_linear_1_478711" x1="10.4615" y1="0.640625" x2="10.4615" y2="14.7945" gradientUnits="userSpaceOnUse">
<stop stop-color="#DFDECE" stop-opacity="0"/>
<stop offset="0.338542" stop-color="#EA7D7D"/>
</linearGradient>
<linearGradient id="paint8_linear_1_478711" x1="10.4615" y1="0.640625" x2="10.4615" y2="14.7945" gradientUnits="userSpaceOnUse">
<stop stop-color="#DFDECE" stop-opacity="0"/>
<stop offset="0.338542" stop-color="#EA7D7D"/>
</linearGradient>
<linearGradient id="paint9_linear_1_478711" x1="10.4615" y1="0.640625" x2="10.4615" y2="14.7945" gradientUnits="userSpaceOnUse">
<stop stop-color="#DFDECE" stop-opacity="0"/>
<stop offset="0.338542" stop-color="#EA7D7D"/>
</linearGradient>
<linearGradient id="paint10_linear_1_478711" x1="10.4615" y1="0.640625" x2="10.4615" y2="14.7945" gradientUnits="userSpaceOnUse">
<stop stop-color="#DFDECE" stop-opacity="0"/>
<stop offset="0.338542" stop-color="#EA7D7D"/>
</linearGradient>
<linearGradient id="paint11_linear_1_478711" x1="5.23017" y1="4.50985" x2="11.3861" y2="12.4997" gradientUnits="userSpaceOnUse">
<stop stop-color="#FBA862"/>
<stop offset="1" stop-color="#F76869"/>
</linearGradient>
</defs>
</svg>
