<svg width="16" height="16" viewBox="0 0 16 16" fill="none" xmlns="http://www.w3.org/2000/svg">
<path fill-rule="evenodd" clip-rule="evenodd" d="M2 2.54513C2 1.87569 2.67157 1.33301 3.5 1.33301H9.33333L14 4.96933V13.4542C14 14.1237 13.3284 14.6663 12.5 14.6663H3.5C2.67157 14.6663 2 14.1237 2 13.4542V2.54513ZM4.09961 8.45455C4.09961 8.20351 4.30312 8 4.55415 8H7.84506C8.0961 8 8.29961 8.20351 8.29961 8.45455C8.29961 8.70558 8.0961 8.90909 7.84506 8.90909H4.55415C4.30312 8.90909 4.09961 8.70558 4.09961 8.45455ZM4.55415 10.4238C4.30312 10.4238 4.09961 10.6273 4.09961 10.8784C4.09961 11.1294 4.30312 11.3329 4.55415 11.3329H9.64506C9.8961 11.3329 10.0996 11.1294 10.0996 10.8784C10.0996 10.6273 9.8961 10.4238 9.64506 10.4238H4.55415Z" fill="url(#paint0_linear_1_478807)"/>
<g filter="url(#filter0_d_1_478807)">
<path d="M9.33301 1.33301V3.66634C9.33301 4.40272 9.92996 4.99967 10.6663 4.99967H13.9997L9.33301 1.33301Z" fill="url(#paint1_linear_1_478807)"/>
</g>
<defs>
<filter id="filter0_d_1_478807" x="7.99967" y="0.666341" width="7.33329" height="6.33317" filterUnits="userSpaceOnUse" color-interpolation-filters="sRGB">
<feFlood flood-opacity="0" result="BackgroundImageFix"/>
<feColorMatrix in="SourceAlpha" type="matrix" values="0 0 0 0 0 0 0 0 0 0 0 0 0 0 0 0 0 0 127 0" result="hardAlpha"/>
<feOffset dy="0.666667"/>
<feGaussianBlur stdDeviation="0.666667"/>
<feComposite in2="hardAlpha" operator="out"/>
<feColorMatrix type="matrix" values="0 0 0 0 0 0 0 0 0 0 0 0 0 0 0 0 0 0 0.6 0"/>
<feBlend mode="normal" in2="BackgroundImageFix" result="effect1_dropShadow_1_478807"/>
<feBlend mode="normal" in="SourceGraphic" in2="effect1_dropShadow_1_478807" result="shape"/>
</filter>
<linearGradient id="paint0_linear_1_478807" x1="2" y1="7.99967" x2="14" y2="7.99967" gradientUnits="userSpaceOnUse">
<stop stop-color="#BBBBBB"/>
<stop offset="1" stop-color="#828282"/>
</linearGradient>
<linearGradient id="paint1_linear_1_478807" x1="9.33301" y1="3.16634" x2="13.9997" y2="3.16634" gradientUnits="userSpaceOnUse">
<stop stop-color="#BBBBBB"/>
<stop offset="1" stop-color="#828282"/>
</linearGradient>
</defs>
</svg>
