<svg width="16" height="17" viewBox="0 0 16 17" fill="none" xmlns="http://www.w3.org/2000/svg">
<path d="M15.3331 8.36589C15.3331 12.6001 11.9007 16.0326 7.66648 16.0326C3.4323 16.0326 -0.000183105 12.6001 -0.000183105 8.36589C-0.000183105 4.1317 3.4323 0.699219 7.66648 0.699219C11.9007 0.699219 15.3331 4.1317 15.3331 8.36589Z" fill="#B16200"/>
<path d="M15.3333 7.66667C15.3333 11.9008 11.9008 15.3333 7.66667 15.3333C3.43248 15.3333 0 11.9008 0 7.66667C0 3.43248 3.43248 0 7.66667 0C11.9008 0 15.3333 3.43248 15.3333 7.66667Z" fill="url(#paint0_linear_1_478617)"/>
<path d="M13.3333 7.66746C13.3333 10.7975 10.7963 13.3349 7.66667 13.3349C4.53705 13.3349 2 10.7975 2 7.66746C2 4.53741 4.53705 2 7.66667 2C10.7963 2 13.3333 4.53741 13.3333 7.66746Z" fill="url(#paint1_linear_1_478617)"/>
<path d="M10.3327 7.42418C10.5168 7.42418 10.666 7.57342 10.666 7.75751V10.2251C10.666 10.3078 10.6361 10.3885 10.5752 10.4445C10.4582 10.552 10.3016 10.6654 10.1054 10.7847C9.85618 10.9349 9.54143 11.0639 9.1611 11.1717C8.78077 11.2794 8.33323 11.3333 7.81847 11.3333C7.34306 11.3333 6.91192 11.2582 6.52503 11.108C6.13815 10.9545 5.80536 10.7308 5.52667 10.4369C5.25126 10.1397 5.03815 9.77718 4.88733 9.34937C4.73979 8.91828 4.66602 8.42515 4.66602 7.86996V7.47317C4.66602 6.91798 4.74143 6.42485 4.89225 5.99377C5.04306 5.56268 5.25454 5.20018 5.52667 4.90626C5.80208 4.60907 6.12503 4.38373 6.49552 4.23024C6.86929 4.07675 7.27913 4 7.72503 4C8.38405 4 8.92011 4.10451 9.33323 4.31352C9.74634 4.51926 10.0595 4.80502 10.2726 5.17079C10.4299 5.43833 10.5416 5.737 10.6078 6.0668C10.6465 6.25967 10.4908 6.42975 10.2941 6.42975H9.2938C9.12749 6.42975 8.99052 6.30585 8.94493 6.14591C8.9118 6.02967 8.8691 5.92507 8.81684 5.83211C8.72831 5.66555 8.60044 5.53982 8.43323 5.45491C8.26602 5.36673 8.04962 5.32265 7.78405 5.32265C7.57749 5.32265 7.38897 5.36673 7.21847 5.45491C7.05126 5.54309 6.90864 5.67698 6.79061 5.8566C6.67257 6.03295 6.58077 6.25503 6.5152 6.52282C6.4529 6.79062 6.42175 7.10413 6.42175 7.46337V7.86996C6.42175 8.22593 6.45126 8.53782 6.51028 8.80561C6.57257 9.07341 6.66438 9.29711 6.78569 9.47673C6.91028 9.65308 7.06766 9.78698 7.25782 9.87842C7.45126 9.9666 7.67913 10.0107 7.94143 10.0107C8.12503 10.0107 8.28241 9.99599 8.41356 9.9666C8.5447 9.93394 8.6529 9.89475 8.73815 9.84903C8.77977 9.826 8.83082 9.8026 8.878 9.77987C8.9617 9.73953 9.00372 9.65414 9.00372 9.56122V8.9381C9.00372 8.754 8.85448 8.60476 8.67039 8.60476H8.07312C7.88902 8.60476 7.73979 8.45553 7.73979 8.27143V7.75752C7.73979 7.57342 7.88902 7.42418 8.07312 7.42418H10.3327Z" fill="white"/>
<defs>
<linearGradient id="paint0_linear_1_478617" x1="-3.83651e-07" y1="1.33333" x2="13.6667" y2="15.3333" gradientUnits="userSpaceOnUse">
<stop stop-color="#FFE0B0"/>
<stop offset="1" stop-color="#FF9900"/>
</linearGradient>
<linearGradient id="paint1_linear_1_478617" x1="1.10526" y1="2.89486" x2="14.5279" y2="14.5262" gradientUnits="userSpaceOnUse">
<stop stop-color="#FD9F48" stop-opacity="0.89"/>
<stop offset="1" stop-color="#CB7A00"/>
</linearGradient>
</defs>
</svg>
