<svg width="16" height="16" viewBox="0 0 16 16" fill="none" xmlns="http://www.w3.org/2000/svg">
<path d="M14.6667 2.33398H1.33333C0.596954 2.33398 0 2.93094 0 3.66732V13.0007C0 13.737 0.596953 14.334 1.33333 14.334H14.6667C15.403 14.334 16 13.737 16 13.0007V3.66732C16 2.93094 15.403 2.33398 14.6667 2.33398Z" fill="url(#paint0_linear_1_478777)"/>
<path d="M14.6667 1.66699H1.33333C0.596954 1.66699 0 2.26395 0 3.00033V12.3337C0 13.07 0.596953 13.667 1.33333 13.667H14.6667C15.403 13.667 16 13.07 16 12.3337V3.00033C16 2.26395 15.403 1.66699 14.6667 1.66699Z" fill="url(#paint1_linear_1_478777)"/>
<path opacity="0.5" d="M8 2.33398V5.00065" stroke="white" stroke-width="1.33333" stroke-linecap="square" stroke-linejoin="round"/>
<path opacity="0.5" d="M8 10.334V13.0007" stroke="white" stroke-width="1.33333" stroke-linecap="square" stroke-linejoin="round"/>
<mask id="path-5-inside-1_1_478777" fill="white">
<path d="M0 4.33398H1.33333C2.06971 4.33398 2.66667 4.93094 2.66667 5.66732V9.66732C2.66667 10.4037 2.06971 11.0007 1.33333 11.0007H0"/>
</mask>
<path d="M0 3.33398H-1V5.33398H0V3.33398ZM0 10.0007H-1V12.0007H0V10.0007ZM0 5.33398H1.33333V3.33398H0V5.33398ZM1.66667 5.66732V9.66732H3.66667V5.66732H1.66667ZM1.33333 10.0007H0V12.0007H1.33333V10.0007ZM1.66667 9.66732C1.66667 9.85141 1.51743 10.0007 1.33333 10.0007V12.0007C2.622 12.0007 3.66667 10.956 3.66667 9.66732H1.66667ZM1.33333 5.33398C1.51743 5.33398 1.66667 5.48322 1.66667 5.66732H3.66667C3.66667 4.37865 2.622 3.33398 1.33333 3.33398V5.33398Z" fill="white" mask="url(#path-5-inside-1_1_478777)"/>
<mask id="path-7-inside-2_1_478777" fill="white">
<path d="M15.9997 4.33398H14.6663C13.93 4.33398 13.333 4.93094 13.333 5.66732V9.66732C13.333 10.4037 13.93 11.0007 14.6663 11.0007H15.9997"/>
</mask>
<path d="M15.9997 5.33398H16.9997V3.33398H15.9997V5.33398ZM15.9997 12.0007H16.9997V10.0007H15.9997V12.0007ZM15.9997 3.33398H14.6663V5.33398H15.9997V3.33398ZM12.333 5.66732V9.66732H14.333V5.66732H12.333ZM14.6663 12.0007H15.9997V10.0007H14.6663V12.0007ZM12.333 9.66732C12.333 10.956 13.3777 12.0007 14.6663 12.0007V10.0007C14.4822 10.0007 14.333 9.85141 14.333 9.66732H12.333ZM14.6663 3.33398C13.3777 3.33398 12.333 4.37865 12.333 5.66732H14.333C14.333 5.48322 14.4822 5.33398 14.6663 5.33398V3.33398Z" fill="white" mask="url(#path-7-inside-2_1_478777)"/>
<path d="M8 5.5C9.19612 5.50018 10.166 6.47083 10.166 7.66699C10.1658 8.863 9.19601 9.83283 8 9.83301C6.80384 9.83301 5.83318 8.86311 5.83301 7.66699C5.83301 6.47073 6.80373 5.5 8 5.5Z" stroke="white" stroke-linecap="round" stroke-linejoin="round"/>
<defs>
<linearGradient id="paint0_linear_1_478777" x1="-1.03266e-07" y1="11.0007" x2="16" y2="11.0007" gradientUnits="userSpaceOnUse">
<stop stop-color="#325F2B"/>
<stop offset="1" stop-color="#1A7655"/>
</linearGradient>
<linearGradient id="paint1_linear_1_478777" x1="0" y1="7.66699" x2="16" y2="7.66699" gradientUnits="userSpaceOnUse">
<stop stop-color="#66B758"/>
<stop offset="1" stop-color="#2BAB7E"/>
</linearGradient>
</defs>
</svg>
