<svg width="16" height="16" viewBox="0 0 16 16" fill="none" xmlns="http://www.w3.org/2000/svg">
<path d="M15.3333 8.33366C15.3333 12.5678 11.9008 16.0003 7.66667 16.0003C3.43248 16.0003 0 12.5678 0 8.33366C0 4.09948 3.43248 0.666992 7.66667 0.666992C11.9008 0.666992 15.3333 4.09948 15.3333 8.33366Z" fill="#A64D48"/>
<path d="M15.3333 7.66667C15.3333 11.9008 11.9008 15.3333 7.66667 15.3333C3.43248 15.3333 0 11.9008 0 7.66667C0 3.43248 3.43248 0 7.66667 0C11.9008 0 15.3333 3.43248 15.3333 7.66667Z" fill="url(#paint0_linear_1_478627)"/>
<path d="M11.6739 11.6732C9.46096 13.8861 5.87302 13.8861 3.66005 11.6732C1.44708 9.46019 1.44708 5.87225 3.66005 3.65928C5.87302 1.44631 9.46096 1.44631 11.6739 3.65928C13.8869 5.87225 13.8869 9.46019 11.6739 11.6732Z" fill="url(#paint1_linear_1_478627)"/>
<path d="M6.55815 5.44328C6.53435 5.44733 6.51075 5.45061 6.48659 5.4529C6.3924 5.46089 6.3077 5.43845 6.22254 5.41588C6.15177 5.39713 6.08068 5.3783 6.00355 5.37677C5.81326 5.37343 5.62141 5.46493 5.47512 5.5806C5.44471 5.6044 5.4135 5.63464 5.40998 5.6744C5.4049 5.73162 5.45905 5.77654 5.51108 5.79757C5.52371 5.80263 5.5364 5.80727 5.54904 5.81188C5.59331 5.82804 5.63683 5.84393 5.67401 5.87715C5.68903 5.89016 5.77093 6.02659 5.76446 6.02641C5.7119 6.02457 5.66112 6.0186 5.6111 6.01273C5.54986 6.00553 5.48975 5.99847 5.42889 5.99927C5.28362 6.00124 5.14306 6.02161 5.00919 6.06385C4.92781 6.08981 4.84847 6.12384 4.772 6.16742C4.55025 6.29367 4.3013 6.35521 4.04594 6.34379C4.00951 6.34213 3.96012 6.32994 3.90574 6.31651C3.76509 6.28179 3.59108 6.23883 3.52172 6.34872C3.49883 6.38465 3.49574 6.43078 3.50455 6.47322C3.52714 6.58031 3.58415 6.66444 3.64154 6.74915C3.67308 6.79569 3.70474 6.84242 3.73087 6.89322C3.84729 7.1185 4.0402 7.29687 4.28622 7.35015C4.39514 7.3738 4.50152 7.35232 4.60617 7.33118C4.71007 7.3102 4.81226 7.28956 4.91353 7.31378C4.95187 7.32301 4.98833 7.34128 5.02182 7.36328C5.13006 7.43398 5.23254 7.51136 5.33281 7.59269C5.26628 7.57982 5.20239 7.55034 5.13766 7.52048C5.05074 7.48038 4.96233 7.4396 4.86405 7.43742C4.64211 7.43216 4.44554 7.54561 4.3072 7.71679C4.27618 7.75506 4.24118 7.78868 4.20633 7.82215C4.14236 7.8836 4.07892 7.94453 4.04166 8.03277C4.02714 8.06775 4.0219 8.10786 4.03552 8.14418C4.07708 8.25379 4.23469 8.25295 4.3618 8.25228C4.41095 8.25201 4.45554 8.25178 4.4871 8.25796C4.70989 8.30173 4.91522 8.40668 5.08625 8.56219C5.14518 8.61555 5.20834 8.66179 5.2745 8.70098C5.38335 8.76603 5.50137 8.81246 5.62662 8.84473C5.67857 8.85814 5.73122 8.86447 5.78485 8.87093C5.82977 8.87633 5.87537 8.88182 5.92183 8.89161C5.92762 8.89284 5.83391 8.9935 5.81883 9.00169C5.78169 9.02249 5.74214 9.0271 5.70162 9.03182C5.68944 9.03324 5.67717 9.03467 5.66485 9.03656C5.61622 9.04395 5.56202 9.07181 5.55671 9.12189C5.55313 9.15706 5.57494 9.18988 5.59737 9.21706C5.73418 9.38407 5.93427 9.50333 6.14505 9.52705C6.1763 9.53052 6.20822 9.53294 6.24073 9.53302C6.26426 9.53302 6.28821 9.53208 6.31229 9.53013C7.10808 10.61 8.58994 10.9391 9.76778 10.2474C10.3818 9.88684 10.8009 9.31481 10.9876 8.67397C10.5599 8.97258 10.0222 9.15552 9.37799 9.06651C9.22207 9.04497 9.11285 8.89895 9.13403 8.74037C9.15521 8.58179 9.34409 8.47846 9.5 8.5C10.1354 8.58779 10.5898 8.32105 10.9714 7.93708C11.0147 7.89359 11.0562 7.84866 11.0959 7.8027C11.0804 7.37655 10.9653 6.94793 10.7411 6.55292C10.1726 5.55137 9.06931 5.05959 8.00988 5.23523C7.67427 5.17498 7.31783 5.19467 6.96044 5.31551C6.92378 5.32782 6.88696 5.34125 6.84994 5.35475C6.75414 5.38969 6.65769 5.42537 6.55815 5.44328Z" fill="white"/>
<defs>
<linearGradient id="paint0_linear_1_478627" x1="-1.00004" y1="1.00005" x2="15.3333" y2="15.3334" gradientUnits="userSpaceOnUse">
<stop stop-color="#FFE9BC"/>
<stop offset="1" stop-color="#FF8D69"/>
</linearGradient>
<linearGradient id="paint1_linear_1_478627" x1="-0.346887" y1="7.66622" x2="7.66699" y2="15.6801" gradientUnits="userSpaceOnUse">
<stop offset="0.119792" stop-color="#FFB26A"/>
<stop offset="1" stop-color="#FC6A74"/>
</linearGradient>
</defs>
</svg>
