<svg width="16" height="16" viewBox="0 0 16 16" fill="none" xmlns="http://www.w3.org/2000/svg">
<path fill-rule="evenodd" clip-rule="evenodd" d="M7.87502 0C8.49633 0 9 0.488409 9 1.09089C9 1.69337 8.49633 2.18178 7.87502 2.18178C5.04546 2.18178 2.63878 4.25622 2.23952 7.05829C2.15448 7.6551 1.58661 8.07206 0.971142 7.9896C0.355678 7.90714 -0.0743155 7.35648 0.0107242 6.75967C0.562498 2.88729 3.91221 0 7.87502 0Z" fill="#BDBDBD"/>
<path fill-rule="evenodd" clip-rule="evenodd" d="M8.28332 0L8.35049 0.000990927C11.5537 0.140851 14.3691 2.18429 15.4937 5.19556C16.6619 8.32373 15.7659 11.8488 13.2459 14.0387C12.4944 14.6917 11.6348 15.1941 10.7087 15.5273C8.57057 16.2966 6.19508 16.1247 4.17815 15.0274C1.24569 13.4319 -0.388237 10.1826 0.0790929 6.87607C0.167424 6.2511 0.745666 5.81607 1.37063 5.9044C1.9956 5.99273 2.43063 6.57097 2.3423 7.19594C2.0084 9.55842 3.17575 11.8799 5.27051 13.0196C6.71119 13.8034 8.40744 13.9262 9.9349 13.3766C10.596 13.1387 11.2094 12.7802 11.7466 12.3134C13.5469 10.749 14.1871 8.23028 13.3524 5.99521C12.5491 3.84407 10.538 2.38439 8.25078 2.28453C7.62021 2.25699 7.13134 1.72349 7.15887 1.09291C7.18542 0.484847 7.68245 0.0085586 8.28332 0Z" fill="url(#paint0_linear_1_478591)"/>
<defs>
<linearGradient id="paint0_linear_1_478591" x1="0" y1="16" x2="16" y2="16" gradientUnits="userSpaceOnUse">
<stop stop-color="#FFB929"/>
<stop offset="1" stop-color="#FF8E96"/>
</linearGradient>
</defs>
</svg>
