<svg width="16" height="16" viewBox="0 0 16 16" fill="none" xmlns="http://www.w3.org/2000/svg">
<path d="M1.33301 4.52813C1.33301 4.17494 1.59013 3.87159 1.93769 3.8088C4.13709 3.41144 6.19684 2.37602 7.81842 0.837933L7.99967 0.666016L8.18092 0.837933C9.80251 2.37602 11.8623 3.41144 14.0617 3.8088C14.4092 3.87159 14.6663 4.17494 14.6663 4.52813V8.81416C14.6663 12.4961 11.6816 15.4808 7.99967 15.4808C4.31778 15.4808 1.33301 12.4961 1.33301 8.81416V4.52813Z" fill="#B9E4FA"/>
<path d="M1.33301 4.52813C1.33301 4.17494 1.59013 3.87159 1.93769 3.8088C4.13709 3.41144 6.19684 2.37602 7.81842 0.837933L7.99967 0.666016L8.18092 0.837933C9.80251 2.37602 11.8623 3.41144 14.0617 3.8088C14.4092 3.87159 14.6663 4.17494 14.6663 4.52813V8.81416C14.6663 12.4961 11.6816 15.4808 7.99967 15.4808C4.31778 15.4808 1.33301 12.4961 1.33301 8.81416V4.52813Z" fill="url(#paint0_linear_1_478697)" fill-opacity="0.4"/>
<path opacity="0.8" d="M8 15.4818V0.666992L8.18125 0.838908C9.80283 2.377 11.8626 3.41242 14.062 3.80978C14.4095 3.87257 14.6667 4.17591 14.6667 4.52911V8.81514C14.6667 12.497 11.6819 15.4818 8 15.4818Z" fill="url(#paint1_linear_1_478697)"/>
<path d="M5.99436 8.93467L7.0781 6.08592C7.09778 6.03419 7.14737 6 7.20272 6H10.3647C10.4805 6 10.5412 6.13745 10.4633 6.22308L9.09161 7.73011C9.01367 7.81574 9.07443 7.95319 9.19022 7.95319H10.3141C10.4369 7.95319 10.4944 8.10511 10.4024 8.18643L6.10181 11.9872C5.9848 12.0906 5.81592 11.9432 5.90262 11.8133L7.56497 9.32277C7.62411 9.23417 7.5606 9.11542 7.45408 9.11542H6.11898C6.02562 9.11542 5.96116 9.02194 5.99436 8.93467Z" fill="white"/>
<defs>
<linearGradient id="paint0_linear_1_478697" x1="7.99967" y1="0.666016" x2="7.99967" y2="15.4808" gradientUnits="userSpaceOnUse">
<stop stop-color="#19529F"/>
<stop offset="1" stop-color="#B9E4FA" stop-opacity="0"/>
</linearGradient>
<linearGradient id="paint1_linear_1_478697" x1="8" y1="7.68793" x2="17.2593" y2="7.68793" gradientUnits="userSpaceOnUse">
<stop stop-color="#4285B9"/>
<stop offset="1" stop-color="#4286B9" stop-opacity="0"/>
</linearGradient>
</defs>
</svg>
