<svg width="16" height="16" viewBox="0 0 16 16" fill="none" xmlns="http://www.w3.org/2000/svg">
<path fill-rule="evenodd" clip-rule="evenodd" d="M10.8802 1.59956H14C14.6628 1.59956 15.2 2.13682 15.2 2.79956C15.2 3.4623 14.6628 3.99956 14 3.99956H2.00005C1.33731 3.99956 0.800049 3.4623 0.800049 2.79956C0.800049 2.13682 1.33731 1.59956 2.00005 1.59956H5.12017C5.1204 0.716107 5.83666 0 6.72017 0H9.28016C10.1637 0 10.8799 0.716107 10.8802 1.59956Z" fill="url(#paint0_linear_1_478819)"/>
<path fill-rule="evenodd" clip-rule="evenodd" d="M1.59985 5.59961H14.3999L13.3792 13.8928C13.2311 15.0958 12.2092 15.9996 10.9971 15.9996H5.00258C3.79047 15.9996 2.76862 15.0958 2.62055 13.8928L1.59985 5.59961ZM4.80005 8.8C4.80005 8.35817 5.15822 8 5.60005 8C6.04188 8 6.40005 8.35817 6.40005 8.8V12.8C6.40005 13.2418 6.04188 13.6 5.60005 13.6C5.15822 13.6 4.80005 13.2418 4.80005 12.8V8.8ZM10.3999 8C9.95803 8 9.59985 8.35817 9.59985 8.8V12.8C9.59985 13.2418 9.95803 13.6 10.3999 13.6C10.8417 13.6 11.1999 13.2418 11.1999 12.8V8.8C11.1999 8.35817 10.8417 8 10.3999 8Z" fill="url(#paint1_linear_1_478819)"/>
<defs>
<linearGradient id="paint0_linear_1_478819" x1="0.800049" y1="2.66637" x2="11.847" y2="10.5382" gradientUnits="userSpaceOnUse">
<stop stop-color="#9D9D9D"/>
<stop offset="1" stop-color="#6D6D6D"/>
</linearGradient>
<linearGradient id="paint1_linear_1_478819" x1="1.59985" y1="5.59961" x2="13.5966" y2="15.8155" gradientUnits="userSpaceOnUse">
<stop stop-color="#C2C2C2"/>
<stop offset="1" stop-color="#797979"/>
</linearGradient>
</defs>
</svg>
