<svg width="16" height="16" viewBox="0 0 16 16" fill="none" xmlns="http://www.w3.org/2000/svg">
<path fill-rule="evenodd" clip-rule="evenodd" d="M5.9998 7.33333C7.47256 7.33333 8.66646 6.13943 8.66646 4.66667C8.66646 3.19391 7.47256 2 5.9998 2C4.52704 2 3.33313 3.19391 3.33313 4.66667C3.33313 6.13943 4.52704 7.33333 5.9998 7.33333ZM5.45467 8C2.44221 8 0.00012207 10.4421 0.00012207 13.4545C0.00012207 13.7558 0.244331 14 0.545577 14H11.4547C11.7559 14 12.0001 13.7558 12.0001 13.4545C12.0001 10.4421 9.55804 8 6.54558 8H5.45467Z" fill="url(#paint0_linear_1_478847)"/>
<path fill-rule="evenodd" clip-rule="evenodd" d="M13.493 14C13.4976 13.9704 13.5 13.94 13.5 13.9091V13.75C13.5 11.7972 12.5265 10.0718 11.0384 9.03251C13.2698 9.30376 15 11.2382 15 13.5413C15 13.7923 14.7965 14 14.5454 14H13.493ZM9.46599 4.46699C9.46599 5.19562 9.2825 5.87635 8.96436 6.45462C9.20059 6.59049 9.46746 6.66699 9.74997 6.66699C10.7165 6.66699 11.5 5.77156 11.5 4.66699C11.5 3.56242 10.7165 2.66699 9.74997 2.66699C9.52867 2.66699 9.31695 2.71394 9.12205 2.7996C9.34234 3.30299 9.46599 3.86885 9.46599 4.46699Z" fill="url(#paint1_linear_1_478847)"/>
<defs>
<linearGradient id="paint0_linear_1_478847" x1="0.00012207" y1="7.66683" x2="12.0001" y2="7.66683" gradientUnits="userSpaceOnUse">
<stop stop-color="#E0E0E0"/>
<stop offset="1" stop-color="#999999"/>
</linearGradient>
<linearGradient id="paint1_linear_1_478847" x1="9.51807" y1="8.00028" x2="15.3334" y2="8.00028" gradientUnits="userSpaceOnUse">
<stop stop-color="#BBBBBB"/>
<stop offset="1" stop-color="#828282"/>
</linearGradient>
</defs>
</svg>
