<svg width="16" height="16" viewBox="0 0 16 16" fill="none" xmlns="http://www.w3.org/2000/svg">
<path d="M11.4564 4.27492C11.4564 6.14509 9.9087 7.66116 7.99957 7.66116C6.09043 7.66116 4.54278 6.14509 4.54278 4.27492C4.54278 2.40474 6.09043 0.888672 7.99957 0.888672C9.9087 0.888672 11.4564 2.40474 11.4564 4.27492Z" fill="url(#paint0_linear_1_478839)"/>
<path d="M1.77734 14.4336C1.77734 11.0673 4.56313 8.33841 7.99957 8.33841C11.436 8.33841 14.2218 11.0673 14.2218 14.4336V14.6109C14.2218 14.887 13.9979 15.1109 13.7218 15.1109H2.27734C2.0012 15.1109 1.77734 14.887 1.77734 14.6109V14.4336Z" fill="url(#paint1_linear_1_478839)"/>
<defs>
<linearGradient id="paint0_linear_1_478839" x1="7.99957" y1="1.34017" x2="7.99957" y2="14.8851" gradientUnits="userSpaceOnUse">
<stop stop-color="#8BAEC8"/>
<stop offset="1" stop-color="#384A57"/>
</linearGradient>
<linearGradient id="paint1_linear_1_478839" x1="7.99957" y1="1.34017" x2="7.99957" y2="14.8851" gradientUnits="userSpaceOnUse">
<stop stop-color="#8BAEC8"/>
<stop offset="1" stop-color="#384A57"/>
</linearGradient>
</defs>
</svg>
