<svg width="60" height="60" viewBox="0 0 60 60" fill="none" xmlns="http://www.w3.org/2000/svg">
<g clip-path="url(#clip0_1_477910)">
<path d="M11.2751 19.8929L22.5442 25.0977L20.6428 31.4324L13.9716 29.0829C9.55396 27.4941 10.3332 22.2942 11.2751 19.8929Z" fill="#C69416"/>
<path d="M11.3874 18.8324L22.6565 24.0372L20.7551 30.3719L14.0839 28.0224C9.66626 26.4336 10.4456 21.2337 11.3874 18.8324Z" fill="url(#paint0_linear_1_477910)"/>
<path d="M22.2504 24.2197L20.534 29.9374L14.1971 27.7058L14.1981 27.706C12.1355 26.9642 11.286 25.3947 11.0585 23.6879C10.8496 22.1194 11.1744 20.4557 11.5782 19.2905L22.2504 24.2197Z" stroke="white" stroke-opacity="0.3" stroke-width="0.671997"/>
<path d="M9.81526 15.2074L21.0843 20.4122L19.183 26.7469L12.5117 24.3974C8.09412 22.8086 8.87341 17.6087 9.81526 15.2074Z" fill="#E3AD25"/>
<path d="M9.92659 14.0853L21.1957 19.2901L19.2943 25.6248L12.6231 23.2753C8.20545 21.6865 8.98474 16.4866 9.92659 14.0853Z" fill="url(#paint1_linear_1_477910)"/>
<path d="M20.7896 19.4726L19.0732 25.1903L12.7363 22.9587L12.7373 22.9589C10.6747 22.2171 9.82517 20.6476 9.59773 18.9409C9.38875 17.3723 9.71359 15.7087 10.1174 14.5435L20.7896 19.4726Z" stroke="white" stroke-opacity="0.3" stroke-width="0.671997"/>
<path d="M9.64436 9.86458L20.9134 15.0694L19.0121 21.4041L12.3408 19.0546C7.92322 17.4658 8.70251 12.2659 9.64436 9.86458Z" fill="#ECB62D"/>
<path d="M10.5646 9.09365L20.3628 13.6192C20.7426 13.7945 20.9354 14.2226 20.8152 14.6232L19.3765 19.4163C19.2387 19.8754 18.7452 20.1263 18.293 19.9671L12.4522 17.91C8.49879 16.4882 8.70744 12.1744 9.46998 9.5624C9.60544 9.09841 10.1258 8.89097 10.5646 9.09365Z" fill="url(#paint2_linear_1_477910)"/>
<path d="M10.424 9.39901L20.2216 13.9237C20.4211 14.0158 20.535 14.2247 20.5117 14.4364L20.493 14.5265L19.055 19.32C18.9825 19.5608 18.7467 19.7064 18.5073 19.6752L18.4044 19.6497L12.5654 17.5935L12.5664 17.5937C10.7161 16.9282 9.84669 15.6002 9.52042 14.1107C9.23136 12.7911 9.37122 11.347 9.66 10.1525L9.79266 9.65645C9.85582 9.44039 10.0836 9.30914 10.3216 9.36372L10.424 9.39901Z" stroke="white" stroke-opacity="0.3" stroke-width="0.671997"/>
<path d="M48.7239 19.8929L37.4548 25.0977L39.3562 31.4324L46.0274 29.0829C50.4451 27.4941 49.6658 22.2942 48.7239 19.8929Z" fill="#C69416"/>
<path d="M48.6116 18.8324L37.3425 24.0372L39.2439 30.3719L45.9151 28.0224C50.3328 26.4336 49.5535 21.2337 48.6116 18.8324Z" fill="url(#paint3_linear_1_477910)"/>
<path d="M37.7486 24.2197L39.465 29.9374L45.8019 27.7058L45.8009 27.706C47.8635 26.9642 48.713 25.3947 48.9405 23.6879C49.1495 22.1194 48.8246 20.4557 48.4208 19.2905L37.7486 24.2197Z" stroke="white" stroke-opacity="0.3" stroke-width="0.671997"/>
<path d="M50.1839 15.2074L38.9148 20.4122L40.8162 26.7469L47.4874 24.3974C51.905 22.8086 51.1257 17.6087 50.1839 15.2074Z" fill="#E3AD25"/>
<path d="M50.0726 14.0853L38.8035 19.2901L40.7048 25.6248L47.3761 23.2753C51.7937 21.6865 51.0144 16.4866 50.0726 14.0853Z" fill="url(#paint4_linear_1_477910)"/>
<path d="M39.2096 19.4726L40.926 25.1903L47.2628 22.9587L47.2619 22.9589C49.3244 22.2171 50.174 20.6476 50.4014 18.9409C50.6104 17.3723 50.2856 15.7087 49.8818 14.5435L39.2096 19.4726Z" stroke="white" stroke-opacity="0.3" stroke-width="0.671997"/>
<path d="M50.3547 9.86458L39.0856 15.0694L40.9869 21.4041L47.6582 19.0546C52.0758 17.4658 51.2965 12.2659 50.3547 9.86458Z" fill="#ECB62D"/>
<path d="M49.4345 9.09365L39.6362 13.6192C39.2564 13.7945 39.0636 14.2226 39.1839 14.6232L40.6225 19.4163C40.7603 19.8754 41.2539 20.1263 41.7061 19.9671L47.5468 17.91C51.5002 16.4882 51.2916 12.1744 50.529 9.5624C50.3936 9.09841 49.8733 8.89097 49.4345 9.09365Z" fill="url(#paint5_linear_1_477910)"/>
<path d="M49.575 9.39901L39.7774 13.9237C39.5779 14.0158 39.464 14.2247 39.4873 14.4364L39.506 14.5265L40.9441 19.32C41.0165 19.5608 41.2523 19.7064 41.4917 19.6752L41.5946 19.6497L47.4336 17.5935L47.4327 17.5937C49.2829 16.9282 50.1523 15.6002 50.4786 14.1107C50.7677 12.7911 50.6278 11.347 50.339 10.1525L50.2064 9.65645C50.1432 9.44039 49.9154 9.30914 49.6775 9.36372L49.575 9.39901Z" stroke="white" stroke-opacity="0.3" stroke-width="0.671997"/>
<path d="M29.0803 7.32045C29.6691 6.99467 30.384 6.99467 30.9728 7.32045L43.3146 14.1491C43.9367 14.4933 44.3229 15.1483 44.3229 15.8593V29.3747C44.3229 30.0858 43.9367 30.7408 43.3146 31.085L30.9728 37.9136C30.384 38.2394 29.6691 38.2394 29.0803 37.9136L16.7385 31.085C16.1164 30.7408 15.7302 30.0858 15.7302 29.3747V15.8593C15.7302 15.1483 16.1164 14.4933 16.7385 14.1491L29.0803 7.32045Z" fill="#C79516"/>
<path d="M29.0803 5.94447C29.6691 5.61869 30.384 5.61869 30.9728 5.94447L43.3146 12.7731C43.9367 13.1173 44.3229 13.7723 44.3229 14.4834V27.9988C44.3229 28.7098 43.9367 29.3648 43.3146 29.709L30.9728 36.5376C30.384 36.8634 29.6691 36.8634 29.0803 36.5376L16.7385 29.709C16.1164 29.3648 15.7302 28.7098 15.7302 27.9988V14.4834C15.7302 13.7723 16.1164 13.1173 16.7385 12.7731L29.0803 5.94447Z" fill="url(#paint6_linear_1_477910)"/>
<path opacity="0.8" d="M29.0908 10.0581C29.6741 9.74003 30.3789 9.74003 30.9622 10.0581L39.7299 14.8389C40.358 15.1813 40.7488 15.8396 40.7488 16.5549V25.9271C40.7488 26.6425 40.358 27.3007 39.7299 27.6432L30.9622 32.4239C30.3789 32.742 29.6741 32.742 29.0908 32.4239L20.3231 27.6432C19.6951 27.3007 19.3042 26.6425 19.3042 25.9271V16.5549C19.3042 15.8396 19.6951 15.1813 20.3231 14.8389L29.0908 10.0581Z" fill="url(#paint7_linear_1_477910)"/>
<path d="M29.5552 13.7653C29.752 13.346 30.3483 13.346 30.5451 13.7653L32.3477 17.6054C32.4251 17.7703 32.5796 17.8858 32.7596 17.9135L36.8354 18.5399C37.2751 18.6075 37.4544 19.144 37.1436 19.4623L34.1611 22.5168C34.0399 22.641 33.9848 22.8155 34.0127 22.9868L34.7117 27.2721C34.7852 27.7225 34.3069 28.0594 33.9075 27.8385C32.6538 27.1453 31.7046 26.6204 30.3153 25.8521C30.1506 25.761 29.9502 25.7607 29.7856 25.8518L26.1928 27.8385C25.7934 28.0594 25.3151 27.7225 25.3886 27.2721L26.0876 22.9868C26.1155 22.8155 26.0604 22.641 25.9391 22.5168L22.9567 19.4623C22.6459 19.144 22.8251 18.6075 23.2649 18.5399L27.3407 17.9135C27.5207 17.8858 27.6752 17.7703 27.7526 17.6054L29.5552 13.7653Z" fill="url(#paint8_linear_1_477910)"/>
<mask id="mask0_1_477910" style="mask-type:alpha" maskUnits="userSpaceOnUse" x="22" y="13" width="16" height="15">
<path d="M29.5552 13.7653C29.752 13.346 30.3483 13.346 30.5451 13.7653L32.3477 17.6054C32.4251 17.7703 32.5795 17.8858 32.7596 17.9135L36.8354 18.5399C37.2751 18.6075 37.4544 19.144 37.1436 19.4623L34.1611 22.5168C34.0399 22.641 33.9848 22.8155 34.0127 22.9868L34.7117 27.2721C34.7852 27.7225 34.3069 28.0594 33.9075 27.8385C32.6538 27.1453 31.7046 26.6204 30.3153 25.8521C30.1506 25.761 29.9502 25.7607 29.7856 25.8518L26.1928 27.8385C25.7934 28.0594 25.3151 27.7225 25.3886 27.2721L26.0876 22.9868C26.1155 22.8155 26.0604 22.641 25.9391 22.5168L22.9567 19.4623C22.6459 19.144 22.8251 18.6075 23.2649 18.5399L27.3407 17.9135C27.5207 17.8858 27.6752 17.7703 27.7526 17.6054L29.5552 13.7653Z" fill="url(#paint9_linear_1_477910)"/>
</mask>
<g mask="url(#mask0_1_477910)">
<path opacity="0.8" d="M30.1154 20.719V13.2447C29.6883 12.3904 27.624 15.5582 26.9121 17.5157L30.1154 20.719Z" fill="url(#paint10_linear_1_477910)"/>
<path opacity="0.8" d="M30.1065 20.7186L25.4028 27.6055C25.1008 28.5115 28.1122 28.0061 29.9998 27.1252L30.1065 20.7186Z" fill="url(#paint11_linear_1_477910)"/>
<path opacity="0.8" d="M30.2215 20.719L22.2132 19.1173C21.359 19.5444 23.5219 22.1426 25.4795 22.8545L30.2215 20.719Z" fill="url(#paint12_linear_1_477910)"/>
<path opacity="0.8" d="M30.0387 20.7188L34.493 27.6593C35.3991 27.9613 35.3738 24.7419 34.493 22.8544L30.0387 20.7188Z" fill="url(#paint13_linear_1_477910)"/>
<path opacity="0.8" d="M30.0572 20.7196L37.1631 19.118C37.8777 18.4843 34.9672 17.6973 32.8921 17.5163L30.0572 20.7196Z" fill="url(#paint14_linear_1_477910)"/>
</g>
</g>
<rect x="15" y="42" width="30" height="15" rx="4" fill="#C79516"/>
<rect x="15" y="42" width="30" height="14" rx="4" fill="url(#paint15_linear_1_477910)"/>
<rect x="15" y="42" width="30" height="14" rx="4" fill="#C79516" fill-opacity="0.2" style="mix-blend-mode:multiply"/>
<path d="M23.36 46V44.71H25.77V52H24.33V46H23.36ZM29.433 52.09C28.9797 52.09 28.573 52.01 28.213 51.85C27.853 51.6833 27.5664 51.46 27.353 51.18C27.1464 50.9 27.033 50.59 27.013 50.25H28.423C28.4497 50.4633 28.553 50.64 28.733 50.78C28.9197 50.92 29.1497 50.99 29.423 50.99C29.6897 50.99 29.8964 50.9367 30.043 50.83C30.1964 50.7233 30.273 50.5867 30.273 50.42C30.273 50.24 30.1797 50.1067 29.993 50.02C29.813 49.9267 29.523 49.8267 29.123 49.72C28.7097 49.62 28.3697 49.5167 28.103 49.41C27.843 49.3033 27.6164 49.14 27.423 48.92C27.2364 48.7 27.143 48.4033 27.143 48.03C27.143 47.7233 27.2297 47.4433 27.403 47.19C27.583 46.9367 27.8364 46.7367 28.163 46.59C28.4964 46.4433 28.8864 46.37 29.333 46.37C29.993 46.37 30.5197 46.5367 30.913 46.87C31.3064 47.1967 31.523 47.64 31.563 48.2H30.223C30.203 47.98 30.1097 47.8067 29.943 47.68C29.783 47.5467 29.5664 47.48 29.293 47.48C29.0397 47.48 28.843 47.5267 28.703 47.62C28.5697 47.7133 28.503 47.8433 28.503 48.01C28.503 48.1967 28.5964 48.34 28.783 48.44C28.9697 48.5333 29.2597 48.63 29.653 48.73C30.053 48.83 30.383 48.9333 30.643 49.04C30.903 49.1467 31.1264 49.3133 31.313 49.54C31.5064 49.76 31.6064 50.0533 31.613 50.42C31.613 50.74 31.523 51.0267 31.343 51.28C31.1697 51.5333 30.9164 51.7333 30.583 51.88C30.2564 52.02 29.873 52.09 29.433 52.09ZM34.3923 47.61V50.29C34.3923 50.4767 34.4356 50.6133 34.5223 50.7C34.6156 50.78 34.7689 50.82 34.9823 50.82H35.6323V52H34.7523C33.5723 52 32.9823 51.4267 32.9823 50.28V47.61H32.3223V46.46H32.9823V45.09H34.3923V46.46H35.6323V47.61H34.3923Z" fill="#FFFBE1"/>
<rect x="16" y="42" width="28" height="13" rx="3" stroke="url(#paint16_linear_1_477910)" stroke-width="2"/>
<defs>
<linearGradient id="paint0_linear_1_477910" x1="17.1344" y1="19.6494" x2="15.712" y2="29.6549" gradientUnits="userSpaceOnUse">
<stop stop-color="#FAF2A4"/>
<stop offset="1" stop-color="#ECB300"/>
</linearGradient>
<linearGradient id="paint1_linear_1_477910" x1="15.6736" y1="14.9023" x2="14.2512" y2="24.9078" gradientUnits="userSpaceOnUse">
<stop stop-color="#FAF2A4"/>
<stop offset="1" stop-color="#ECB300"/>
</linearGradient>
<linearGradient id="paint2_linear_1_477910" x1="15.5027" y1="9.5371" x2="14.0803" y2="19.5426" gradientUnits="userSpaceOnUse">
<stop stop-color="#FFFBC0"/>
<stop offset="1" stop-color="#FFD141"/>
</linearGradient>
<linearGradient id="paint3_linear_1_477910" x1="42.8646" y1="19.6494" x2="44.287" y2="29.6549" gradientUnits="userSpaceOnUse">
<stop stop-color="#FAF2A4"/>
<stop offset="1" stop-color="#ECB300"/>
</linearGradient>
<linearGradient id="paint4_linear_1_477910" x1="44.3255" y1="14.9023" x2="45.748" y2="24.9078" gradientUnits="userSpaceOnUse">
<stop stop-color="#FAF2A4"/>
<stop offset="1" stop-color="#ECB300"/>
</linearGradient>
<linearGradient id="paint5_linear_1_477910" x1="44.4963" y1="9.5371" x2="45.9188" y2="19.5426" gradientUnits="userSpaceOnUse">
<stop stop-color="#FFFBC0"/>
<stop offset="1" stop-color="#FFD141"/>
</linearGradient>
<linearGradient id="paint6_linear_1_477910" x1="20.2249" y1="8.38718" x2="40.8189" y2="33.9698" gradientUnits="userSpaceOnUse">
<stop stop-color="#FFFFCC"/>
<stop offset="1" stop-color="#EFC12D"/>
</linearGradient>
<linearGradient id="paint7_linear_1_477910" x1="23.836" y1="12.696" x2="37.5973" y2="30.557" gradientUnits="userSpaceOnUse">
<stop stop-color="#FFD130"/>
<stop offset="1" stop-color="#FFA44F"/>
</linearGradient>
<linearGradient id="paint8_linear_1_477910" x1="24.2965" y1="14.7936" x2="35.5433" y2="27.4463" gradientUnits="userSpaceOnUse">
<stop stop-color="#FFFFFD"/>
<stop offset="1" stop-color="#F4E678"/>
</linearGradient>
<linearGradient id="paint9_linear_1_477910" x1="30.0501" y1="12.7109" x2="30.0501" y2="28.3835" gradientUnits="userSpaceOnUse">
<stop stop-color="white"/>
<stop offset="1" stop-color="#E7E1B4"/>
</linearGradient>
<linearGradient id="paint10_linear_1_477910" x1="28.5138" y1="13.1016" x2="28.5138" y2="20.719" gradientUnits="userSpaceOnUse">
<stop stop-color="#F4E186"/>
<stop offset="1" stop-color="#F5CA46"/>
</linearGradient>
<linearGradient id="paint11_linear_1_477910" x1="25.7639" y1="28.2112" x2="31.6815" y2="22.2936" gradientUnits="userSpaceOnUse">
<stop stop-color="#F4E186"/>
<stop offset="1" stop-color="#F5CA46"/>
</linearGradient>
<linearGradient id="paint12_linear_1_477910" x1="22.0215" y1="20.9859" x2="30.2215" y2="20.9859" gradientUnits="userSpaceOnUse">
<stop stop-color="#F4E186"/>
<stop offset="1" stop-color="#F5CA46"/>
</linearGradient>
<linearGradient id="paint13_linear_1_477910" x1="35.8242" y1="26.588" x2="29.9969" y2="20.7607" gradientUnits="userSpaceOnUse">
<stop stop-color="#F4E186"/>
<stop offset="1" stop-color="#F5CA46"/>
</linearGradient>
<linearGradient id="paint14_linear_1_477910" x1="36.981" y1="17.7938" x2="29.7895" y2="19.7207" gradientUnits="userSpaceOnUse">
<stop stop-color="#F4E186"/>
<stop offset="1" stop-color="#F5CA46"/>
</linearGradient>
<linearGradient id="paint15_linear_1_477910" x1="22.5" y1="43.8846" x2="28.1658" y2="58.7671" gradientUnits="userSpaceOnUse">
<stop stop-color="#FFD130"/>
<stop offset="1" stop-color="#FFA44F"/>
</linearGradient>
<linearGradient id="paint16_linear_1_477910" x1="26" y1="42" x2="30" y2="56" gradientUnits="userSpaceOnUse">
<stop stop-color="#FFFFCC"/>
<stop offset="1" stop-color="#EFC12D"/>
</linearGradient>
<clipPath id="clip0_1_477910">
<rect width="41.9998" height="41.9998" fill="white" transform="translate(9 1)"/>
</clipPath>
</defs>
</svg>
