<svg width="48" height="48" viewBox="0 0 48 48" fill="none" xmlns="http://www.w3.org/2000/svg">
<circle cx="24" cy="24" r="24" fill="#E24939"/>
<path fill-rule="evenodd" clip-rule="evenodd" d="M27.5416 19.807C26.5885 18.898 25.3166 18.4028 24.0006 18.4231C21.5924 18.4231 19.5472 20.0478 18.8179 22.2355L18.8176 22.2352C18.431 23.3816 18.431 24.623 18.8176 25.7693L18.8174 25.7695H18.8215C19.5542 27.9539 21.596 29.5785 24.0042 29.5785C25.2469 29.5785 26.3138 29.2608 27.1408 28.6995V28.6965C28.1143 28.0521 28.779 27.038 28.9859 25.8915H24V22.3369H32.7068C32.8153 22.9542 32.8662 23.5851 32.8662 24.2126C32.8662 27.02 31.8629 29.3936 30.1173 31.0013L30.1196 31.0031C28.5899 32.4141 26.4904 33.2315 24.0008 33.2315C20.5106 33.2315 17.319 31.2642 15.752 28.1472V28.1466L15.7515 28.147C14.4422 25.5387 14.4422 22.4657 15.7515 19.8574H15.7519C17.319 16.7372 20.5106 14.7702 24.0006 14.7702C26.2934 14.743 28.5083 15.6045 30.177 17.1715L27.5416 19.807Z" fill="white"/>
</svg>
