<svg width="18" height="18" viewBox="0 0 18 18" fill="none" xmlns="http://www.w3.org/2000/svg">
<g clip-path="url(#clip0_1_478394)">
<path fill-rule="evenodd" clip-rule="evenodd" d="M5.96252 0.899902H12.0375C14.833 0.899902 17.1 3.16689 17.1 5.9624V12.0374C17.1 14.8329 14.833 17.0999 12.0375 17.0999H5.96252C3.16701 17.0999 0.900024 14.8329 0.900024 12.0374V5.9624C0.900024 3.16689 3.16701 0.899902 5.96252 0.899902ZM12.0374 15.5812C13.9916 15.5812 15.5812 13.9915 15.5812 12.0374V5.9624C15.5812 4.00828 13.9916 2.41865 12.0374 2.41865H5.96243C4.00831 2.41865 2.41868 4.00828 2.41868 5.9624V12.0374C2.41868 13.9915 4.00831 15.5812 5.96243 15.5812H12.0374Z" fill="white"/>
<path fill-rule="evenodd" clip-rule="evenodd" d="M4.9491 9.0002C4.9491 6.76358 6.76248 4.9502 8.9991 4.9502C11.2357 4.9502 13.0491 6.76358 13.0491 9.0002C13.0491 11.2368 11.2357 13.0502 8.9991 13.0502C6.76248 13.0502 4.9491 11.2368 4.9491 9.0002ZM6.46766 9.0002C6.46766 10.3954 7.60368 11.5314 8.99891 11.5314C10.3941 11.5314 11.5302 10.3954 11.5302 9.0002C11.5302 7.60396 10.3941 6.46895 8.99891 6.46895C7.60368 6.46895 6.46766 7.60396 6.46766 9.0002Z" fill="white"/>
<ellipse cx="13.3541" cy="4.64611" rx="0.539662" ry="0.539662" fill="white"/>
</g>
<defs>
<clipPath id="clip0_1_478394">
<rect width="18" height="18" fill="white"/>
</clipPath>
</defs>
</svg>
