<svg width="18" height="18" viewBox="0 0 18 18" fill="none" xmlns="http://www.w3.org/2000/svg">
<path d="M16.9999 16.9974C15.834 16.9974 14.7005 16.9974 13.5672 16.9974C13.1892 16.9974 12.8113 16.9931 12.4336 16.9999C12.3118 17.0021 12.2372 16.9674 12.1659 16.8657C10.7765 14.8869 9.38268 12.9108 7.98939 10.9345C7.9558 10.8868 7.91888 10.841 7.86939 10.7756C7.66453 11.0058 7.4694 11.2225 7.27684 11.4412C5.67664 13.2562 4.07771 15.0726 2.47341 16.8842C2.41931 16.9452 2.31239 16.9899 2.22855 16.9924C1.83548 17.0036 1.4419 16.9974 1.00012 16.9974C1.23422 16.7302 1.43703 16.4975 1.64138 16.2661C2.94032 14.7936 4.23951 13.3215 5.53869 11.8493C6.07509 11.2415 6.60841 10.6313 7.14993 10.0282C7.24069 9.92725 7.23916 9.86226 7.16377 9.75529C5.32947 7.15963 3.49876 4.56172 1.66779 1.9638C1.45113 1.65637 1.23678 1.34769 1.00499 1.01577C1.08037 1.00927 1.13115 1.00102 1.18191 1.00077C2.65058 1.00002 4.11951 0.998273 5.58818 1.00502C5.66818 1.00527 5.77818 1.05851 5.82279 1.12149C6.9725 2.74238 8.11528 4.36801 9.2596 5.99264C9.46626 6.28582 9.67369 6.57851 9.94804 6.92268C9.97445 6.86894 9.99035 6.80646 10.0288 6.76272C11.4252 5.17633 12.8236 3.59144 14.2215 2.00654C14.4835 1.70936 14.7443 1.41068 15.0092 1.11575C15.0507 1.06951 15.1104 1.00802 15.163 1.00702C15.5868 0.998273 16.0109 1.00202 16.4819 1.00202C16.2827 1.23022 16.1125 1.42668 15.9404 1.62163C14.1648 3.63443 12.3898 5.64747 10.6111 7.65776C10.5316 7.74774 10.5344 7.80523 10.6011 7.89971C12.0008 9.87901 13.3969 11.8606 14.7933 13.8421C15.5104 14.8599 16.2268 15.8782 16.9429 16.8964C16.9591 16.9194 16.9709 16.9452 17.0001 16.9966L16.9999 16.9974ZM2.90109 2.03679C2.93827 2.09977 2.96109 2.14601 2.99057 2.1875C3.22364 2.51418 3.45825 2.83961 3.69209 3.16578C5.27306 5.37028 6.85455 7.57453 8.43527 9.77928C9.89727 11.8186 11.3593 13.8579 12.8174 15.8994C12.8887 15.9991 12.9623 16.0379 13.0864 16.0366C13.7018 16.0306 14.3174 16.0341 14.933 16.0334C14.9838 16.0334 15.0343 16.0261 15.1081 16.0204C15.0602 15.9476 15.0297 15.8976 14.9956 15.8499C13.9833 14.4387 12.97 13.028 11.9582 11.6164C9.69754 8.46233 7.43735 5.30805 5.17948 2.15201C5.11358 2.05978 5.04512 2.02054 4.92641 2.02154C4.31104 2.02779 3.69542 2.02404 3.0798 2.02479C3.02801 2.02479 2.97596 2.03129 2.90109 2.03629V2.03679Z" fill="#F5F5F5"/>
</svg>
