<svg width="16" height="16" viewBox="0 0 16 16" fill="none" xmlns="http://www.w3.org/2000/svg">
<path d="M10.3866 8.26655C10.3866 9.58655 9.31995 10.6532 7.99995 10.6532C6.67995 10.6532 5.61328 9.58655 5.61328 8.26655C5.61328 6.94655 6.67995 5.87988 7.99995 5.87988C9.31995 5.87988 10.3866 6.94655 10.3866 8.26655Z" stroke="white" stroke-width="1.2" stroke-linecap="round" stroke-linejoin="round"/>
<path d="M7.9999 13.7804C10.3532 13.7804 12.5466 12.3937 14.0732 9.99374C14.6732 9.05374 14.6732 7.47374 14.0732 6.53374C12.5466 4.13374 10.3532 2.74707 7.9999 2.74707C5.64656 2.74707 3.45323 4.13374 1.92656 6.53374C1.32656 7.47374 1.32656 9.05374 1.92656 9.99374C3.45323 12.3937 5.64656 13.7804 7.9999 13.7804Z" stroke="white" stroke-width="1.2" stroke-linecap="round" stroke-linejoin="round"/>
</svg>
