<svg width="16" height="16" viewBox="0 0 16 16" fill="none" xmlns="http://www.w3.org/2000/svg">
<path d="M9.68671 6.5801L6.31337 9.95343M9.68671 6.5801C9.25337 6.14676 8.66004 5.8801 8.00004 5.8801C6.68004 5.8801 5.61337 6.94676 5.61337 8.26676C5.61337 8.92676 5.88004 9.5201 6.31337 9.95343M9.68671 6.5801L14.6667 1.6001M6.31337 9.95343L1.33337 14.9334M11.88 4.11343C10.7134 3.23343 9.38004 2.75343 8.00004 2.75343C5.64671 2.75343 3.45337 4.1401 1.92671 6.5401C1.32671 7.4801 1.32671 9.0601 1.92671 10.0001C2.45337 10.8268 3.06671 11.5401 3.73337 12.1134M5.61337 13.2868C6.37337 13.6068 7.18004 13.7801 8.00004 13.7801C10.3534 13.7801 12.5467 12.3934 14.0734 9.99343C14.6734 9.05343 14.6734 7.47343 14.0734 6.53343C13.8534 6.18676 13.6134 5.8601 13.3667 5.55343M10.34 8.73343C10.1667 9.67343 9.40004 10.4401 8.46004 10.6134" stroke="white" stroke-width="1.2" stroke-linecap="round" stroke-linejoin="round"/>
</svg>
