<svg width="16" height="16" viewBox="0 0 16 16" fill="none" xmlns="http://www.w3.org/2000/svg">
<path d="M2.73034 11.2497C2.12148 10.3679 1.7282 8.72584 1.62669 7.59961C1.60941 7.79128 1.60059 8.5854 1.60059 8.78157C1.60059 12.3162 4.46596 15.1816 8.00059 15.1816C11.5352 15.1816 14.4006 12.3162 14.4006 8.78157C14.4006 8.5854 14.3918 7.79128 14.3745 7.59961C14.273 8.72584 13.8797 10.3679 13.2708 11.2497C12.3423 13.2291 10.3315 13.9996 8.00059 13.9996C5.66967 13.9996 3.65891 13.2291 2.73034 11.2497Z" fill="white"/>
<path fill-rule="evenodd" clip-rule="evenodd" d="M8.00059 13.8178C11.2139 13.8178 13.8188 11.2129 13.8188 7.99961C13.8188 4.78632 11.2139 2.18143 8.00059 2.18143C4.78729 2.18143 2.1824 4.78632 2.1824 7.99961C2.1824 11.2129 4.78729 13.8178 8.00059 13.8178ZM8.00059 14.3996C11.5352 14.3996 14.4006 11.5342 14.4006 7.99961C14.4006 4.46499 11.5352 1.59961 8.00059 1.59961C4.46596 1.59961 1.60059 4.46499 1.60059 7.99961C1.60059 11.5342 4.46596 14.3996 8.00059 14.3996Z" fill="white"/>
<path d="M10.8442 7.36192C11.0406 7.36192 11.1998 7.50845 11.1998 7.6892V10.1119C11.1998 10.1931 11.1679 10.2724 11.103 10.3273C10.9782 10.4328 10.8111 10.5442 10.6018 10.6613C10.336 10.8088 10.0002 10.9355 9.59456 11.0413C9.18888 11.1471 8.7115 11.2 8.16243 11.2C7.65532 11.2 7.19543 11.1263 6.78276 10.9788C6.37008 10.8281 6.01511 10.6084 5.71784 10.3198C5.42407 10.0281 5.19674 9.67214 5.03587 9.2521C4.87849 8.82886 4.7998 8.34469 4.7998 7.7996V7.41002C4.7998 6.86493 4.88024 6.38076 5.04112 5.95752C5.20199 5.53427 5.42756 5.17836 5.71784 4.88978C6.01161 4.598 6.35609 4.37675 6.75128 4.22605C7.14997 4.07535 7.58713 4 8.06276 4C8.76571 4 9.33751 4.10261 9.77817 4.30782C10.2188 4.50982 10.5528 4.79038 10.7801 5.1495C10.9479 5.41218 11.0671 5.70542 11.1377 6.02923C11.179 6.21859 11.013 6.38557 10.8031 6.38557H9.73611C9.55871 6.38557 9.41261 6.26392 9.36398 6.1069C9.32864 5.99277 9.28309 5.89007 9.22735 5.7988C9.13292 5.63527 8.99653 5.51182 8.81817 5.42846C8.6398 5.34188 8.40899 5.2986 8.12571 5.2986C7.90538 5.2986 7.70429 5.34188 7.52243 5.42846C7.34407 5.51503 7.19194 5.64649 7.06603 5.82285C6.94013 5.99599 6.84221 6.21403 6.77226 6.47695C6.70582 6.73988 6.67259 7.0477 6.67259 7.4004V7.7996C6.67259 8.1491 6.70407 8.45531 6.76702 8.71824C6.83347 8.98116 6.93139 9.2008 7.06079 9.37715C7.19368 9.5503 7.36155 9.68176 7.56439 9.77154C7.77073 9.85812 8.01379 9.9014 8.29358 9.9014C8.48942 9.9014 8.65729 9.88697 8.79718 9.85812C8.93707 9.82605 9.05248 9.78758 9.14341 9.74269C9.18781 9.72007 9.24226 9.6971 9.29258 9.67478C9.38187 9.63517 9.42669 9.55134 9.42669 9.46011V8.84831C9.42669 8.66757 9.2675 8.52104 9.07113 8.52104H8.43405C8.23768 8.52104 8.07849 8.37452 8.07849 8.19377V7.6892C8.07849 7.50845 8.23768 7.36192 8.43405 7.36192H10.8442Z" fill="white"/>
</svg>
