<svg width="16" height="16" viewBox="0 0 16 16" fill="none" xmlns="http://www.w3.org/2000/svg">
<path d="M5.01172 2.03857L5.21875 2.04443C6.25254 2.09955 7.23393 2.52842 7.97754 3.25537L8 3.27588L8.02246 3.25537C8.81556 2.48004 9.8791 2.0439 10.9883 2.03857H10.9893L11.1924 2.04346C12.2074 2.0937 13.1709 2.51837 13.8936 3.23975L14.0342 3.38721C14.7169 4.13983 15.0978 5.12116 15.0996 6.14209L15.0898 6.54053C15.0422 7.44262 14.8159 8.16736 14.2432 8.95166C13.5943 9.84 12.5024 10.8033 10.7363 12.1987L10.7354 12.1997L8.91992 13.6089C8.41261 14.0026 7.71561 14.0266 7.18457 13.6821L7.08008 13.6089L5.26465 12.1997L5.26367 12.1987C3.49759 10.8033 2.40566 9.84 1.75684 8.95166C1.10224 8.05528 0.900391 7.23669 0.900391 6.14209L0.905273 5.93799C0.957429 4.92333 1.38402 3.96097 2.10645 3.23975L2.25391 3.09912C3.00768 2.4177 3.98981 2.03864 5.01074 2.03857H5.01172ZM10.9902 2.90479C10.2126 2.90902 9.46344 3.17961 8.86426 3.66553L8.30762 4.18604C8.15629 4.32745 7.93134 4.34485 7.76172 4.23877L7.69238 4.18604L7.13086 3.66064C6.53233 3.17726 5.78445 2.90882 5.00879 2.90479C4.20364 2.90534 3.42938 3.20514 2.83496 3.74268L2.71875 3.85303C2.11064 4.4601 1.76824 5.28381 1.7666 6.14307L1.77441 6.48486C1.81321 7.2516 1.9971 7.81137 2.45605 8.43994L2.69043 8.73877C3.28691 9.45105 4.24582 10.2897 5.79785 11.5161H5.79883L7.61133 12.9233L7.70117 12.9819C7.91858 13.0984 8.18869 13.0786 8.38867 12.9233L10.2012 11.5161C11.9753 10.1142 12.9742 9.21891 13.543 8.43994L13.7236 8.17432C14.1068 7.5597 14.2333 6.97466 14.2334 6.14307L14.2295 5.98193C14.1909 5.2346 13.8945 4.52343 13.3916 3.96924L13.2812 3.85303C12.6733 3.24618 11.8492 2.90519 10.9902 2.90479Z" fill="white" stroke="white" stroke-width="0.2"/>
</svg>
