<svg width="16" height="16" viewBox="0 0 16 16" fill="none" xmlns="http://www.w3.org/2000/svg">
<path fill-rule="evenodd" clip-rule="evenodd" d="M8 14C11.3137 14 14 11.3137 14 8C14 4.68629 11.3137 2 8 2C4.68629 2 2 4.68629 2 8C2 11.3137 4.68629 14 8 14ZM10.4243 5.57574C10.6586 5.81005 10.6586 6.18995 10.4243 6.42426L8.84853 8L10.4243 9.57574C10.6586 9.81005 10.6586 10.1899 10.4243 10.4243C10.1899 10.6586 9.81005 10.6586 9.57574 10.4243L8 8.84853L6.42426 10.4243C6.18995 10.6586 5.81005 10.6586 5.57574 10.4243C5.34142 10.1899 5.34142 9.81005 5.57574 9.57574L7.15147 8L5.57574 6.42426C5.34142 6.18995 5.34142 5.81005 5.57574 5.57574C5.81005 5.34142 6.18995 5.34142 6.42426 5.57574L8 7.15147L9.57574 5.57574C9.81005 5.34142 10.1899 5.34142 10.4243 5.57574Z" fill="#BDBDBD"/>
</svg>
