<svg width="16" height="16" viewBox="0 0 16 16" fill="none" xmlns="http://www.w3.org/2000/svg">
<path d="M12.0455 6.81135C11.1409 6.81135 10.7711 6.20111 11.2209 5.45261C11.4808 5.01877 11.3258 4.46574 10.8711 4.21783L10.0065 3.74585C9.61169 3.52177 9.10195 3.65527 8.86707 4.0319L8.81209 4.12248C8.36232 4.87098 7.62269 4.87098 7.16792 4.12248L7.11294 4.0319C6.88806 3.65527 6.37831 3.52177 5.98351 3.74585L5.11894 4.21783C4.66417 4.46574 4.50925 5.02354 4.76912 5.45738C5.22389 6.20111 4.85407 6.81135 3.94953 6.81135C3.42979 6.81135 3 7.21659 3 7.71718V8.55626C3 9.05208 3.42479 9.46208 3.94953 9.46208C4.85407 9.46208 5.22389 10.0723 4.76912 10.8208C4.50925 11.2547 4.66417 11.8077 5.11894 12.0556L5.98351 12.5276C6.37831 12.7517 6.88806 12.6182 7.12294 12.2415L7.17791 12.151C7.62769 11.4025 8.36732 11.4025 8.82209 12.151L8.87706 12.2415C9.11194 12.6182 9.62169 12.7517 10.0165 12.5276L10.8811 12.0556C11.3358 11.8077 11.4908 11.2499 11.2309 10.8208C10.7761 10.0723 11.1459 9.46208 12.0505 9.46208C12.5702 9.46208 13 9.05685 13 8.55626V7.71718C12.995 7.22136 12.5702 6.81135 12.0455 6.81135ZM7.9975 9.68616C7.10295 9.68616 6.37331 8.9901 6.37331 8.13672C6.37331 7.28334 7.10295 6.58728 7.9975 6.58728C8.89205 6.58728 9.62169 7.28334 9.62169 8.13672C9.62169 8.9901 8.89205 9.68616 7.9975 9.68616Z" fill="white"/>
</svg>
