<svg width="16" height="16" viewBox="0 0 16 16" fill="none" xmlns="http://www.w3.org/2000/svg">
<path d="M10.1444 4.00021L9.39685 4.74775C9.13652 5.0081 9.13652 5.43021 9.39685 5.69056C9.65718 5.95091 10.0793 5.95091 10.3397 5.69056L12.2253 3.80494C12.3503 3.67992 12.4206 3.51034 12.4206 3.33354C12.4206 3.15672 12.3503 2.98716 12.2253 2.86213L10.3397 0.976512C10.3071 0.943972 10.272 0.915492 10.2351 0.891085C9.97632 0.720232 9.62465 0.748705 9.39685 0.976512C9.13652 1.23687 9.13652 1.65897 9.39685 1.91932L10.1444 2.66687H6.67318C3.72766 2.66687 1.33984 5.05468 1.33984 8.00018C1.33984 8.93218 1.57888 9.80824 1.99898 10.5706C2.19848 10.9326 2.68502 10.9646 2.97728 10.6724C3.21017 10.4395 3.23736 10.0759 3.09053 9.78111C2.82341 9.24478 2.67318 8.64004 2.67318 8.00018C2.67318 5.79106 4.46404 4.00021 6.67318 4.00021H10.1444Z" fill="white"/>
<path d="M6.61616 14.0811L5.86861 13.3335H9.33985C12.2854 13.3335 14.6732 10.9457 14.6732 8.00017C14.6732 7.06824 14.4341 6.19213 14.0141 5.4298C13.9891 5.38455 13.9597 5.34446 13.9267 5.30951C13.6959 5.06485 13.2915 5.07227 13.0357 5.32799C12.8029 5.56088 12.7757 5.92446 12.9225 6.21927C12.9558 6.28631 12.9875 6.35442 13.0171 6.42353C13.2249 6.90731 13.3399 7.44031 13.3399 8.00017C13.3399 10.2093 11.549 12.0002 9.33985 12.0002H5.86861L6.61616 11.2526C6.87652 10.9923 6.87652 10.5702 6.61616 10.3098C6.3558 10.0495 5.9337 10.0495 5.67334 10.3098L3.78773 12.1954C3.6627 12.3205 3.59246 12.49 3.59246 12.6668C3.59246 12.8437 3.6627 13.0132 3.78773 13.1382L5.67334 15.0239C5.9337 15.2842 6.3558 15.2842 6.61616 15.0239C6.87652 14.7635 6.87652 14.3414 6.61616 14.0811Z" fill="white"/>
</svg>
