<svg width="16" height="16" viewBox="0 0 16 16" fill="none" xmlns="http://www.w3.org/2000/svg">
<path d="M14 7.3335C13.8232 7.3335 13.6537 7.40373 13.5286 7.52876C13.4036 7.65378 13.3334 7.82335 13.3334 8.00016C13.3413 9.24885 12.9136 10.4612 12.1238 11.4285C11.3341 12.3957 10.2317 13.0573 9.00668 13.2992C7.78164 13.5412 6.51056 13.3484 5.41238 12.754C4.31419 12.1597 3.45765 11.2009 2.99026 10.043C2.52287 8.88506 2.4739 7.60037 2.85179 6.41021C3.22967 5.22005 4.01076 4.19892 5.06051 3.52268C6.11026 2.84645 7.36297 2.55744 8.60288 2.70544C9.84279 2.85344 10.9923 3.42918 11.8534 4.3335H10.2534C10.0766 4.3335 9.907 4.40373 9.78197 4.52876C9.65695 4.65378 9.58671 4.82335 9.58671 5.00016C9.58671 5.17697 9.65695 5.34654 9.78197 5.47157C9.907 5.59659 10.0766 5.66683 10.2534 5.66683H13.2734C13.4502 5.66683 13.6198 5.59659 13.7448 5.47157C13.8698 5.34654 13.94 5.17697 13.94 5.00016V2.00016C13.94 1.82335 13.8698 1.65378 13.7448 1.52876C13.6198 1.40373 13.4502 1.3335 13.2734 1.3335C13.0966 1.3335 12.927 1.40373 12.802 1.52876C12.6769 1.65378 12.6067 1.82335 12.6067 2.00016V3.18016C11.4965 2.11887 10.0539 1.47346 8.52272 1.35305C6.99157 1.23263 5.4658 1.64459 4.20332 2.51929C2.94085 3.39399 2.01912 4.67777 1.59393 6.15362C1.16874 7.62948 1.26618 9.20688 1.86978 10.6192C2.47338 12.0315 3.54611 13.1921 4.90664 13.9047C6.26717 14.6174 7.83204 14.8384 9.33674 14.5305C10.8414 14.2225 12.1936 13.4045 13.1648 12.2146C14.136 11.0247 14.6665 9.53605 14.6667 8.00016C14.6667 7.82335 14.5965 7.65378 14.4714 7.52876C14.3464 7.40373 14.1769 7.3335 14 7.3335Z" fill="white"/>
</svg>
