<svg width="30" height="34" viewBox="0 0 30 34" fill="none" xmlns="http://www.w3.org/2000/svg">
<path d="M27.9726 26.6472C29.2256 25.9369 30 24.6077 30 23.1674L30 10.8289C30 9.38828 29.2253 8.05894 27.9719 7.34874L16.9738 1.11713C15.7507 0.424117 14.2536 0.424025 13.0304 1.11688L2.02854 7.34883C0.774877 8.05895 -4.0657e-07 9.38843 -4.68965e-07 10.8292L-1.00326e-06 23.1671C-1.06564e-06 24.6076 0.77455 25.9368 2.02779 26.6471L13.0297 32.8821C14.2532 33.5756 15.751 33.5755 16.9745 32.8819L27.9726 26.6472Z" fill="white" fill-opacity="0.1"/>
<path fill-rule="evenodd" clip-rule="evenodd" d="M19.4912 25.1768C22.8089 23.706 25.1249 20.3697 25.1249 16.4895C25.1249 11.2486 20.9 7.00009 15.6883 7.00009C11.8756 7.00009 8.59108 9.27383 7.10242 12.5464L9.36439 10.2718C12.8091 6.80782 18.3941 6.80781 21.8388 10.2718C25.2835 13.7358 25.2835 19.352 21.8388 22.816L19.4912 25.1768Z" fill="white"/>
<path fill-rule="evenodd" clip-rule="evenodd" d="M9.16453 19.8197L8.50149 17.0907L5.64243 19.7907L7.78784 20.1764L4.37539 26.0524L10.6715 22.8976L10.9622 25.9339L14.0128 23.1017L11.3162 22.252L9.16453 19.8197Z" fill="white"/>
<path fill-rule="evenodd" clip-rule="evenodd" d="M15.9907 18.7797L18.1249 17.5731C18.198 17.5365 18.2407 17.4634 18.2407 17.3781V14.9649C18.2407 14.8795 18.198 14.8125 18.1249 14.7698L15.9907 13.5632C15.9176 13.5206 15.8322 13.5206 15.759 13.5632L13.6249 14.7698C13.5517 14.8125 13.509 14.8795 13.509 14.9649V17.3781C13.509 17.4634 13.5517 17.5304 13.6249 17.5731L15.759 18.7797C15.8322 18.8223 15.9176 18.8223 15.9907 18.7797Z" fill="white"/>
<path fill-rule="evenodd" clip-rule="evenodd" d="M17.8913 21.6858V21.2836C17.8913 21.2105 17.8547 21.1495 17.7937 21.113L15.9706 20.0831C15.9096 20.0465 15.8364 20.0465 15.7755 20.0831L13.9523 21.113C13.8913 21.1495 13.8547 21.2105 13.8547 21.2836V21.6858C13.8547 21.7711 13.9096 21.8442 13.995 21.8686C14.6047 22.0636 15.2389 22.155 15.8791 22.155C16.5194 22.155 17.1535 22.0575 17.7632 21.8686C17.8486 21.8442 17.9035 21.7711 17.9035 21.6858H17.8913Z" fill="white"/>
<path fill-rule="evenodd" clip-rule="evenodd" d="M21.7695 17.2197L21.4159 17.0186C21.3549 16.9821 21.2817 16.9821 21.2208 17.0186L19.3976 18.0485C19.3366 18.0851 19.3 18.146 19.3 18.2191V20.2789C19.3 20.3459 19.3366 20.413 19.3976 20.4434L19.7513 20.6445C19.8244 20.6872 19.9159 20.6811 19.983 20.6202C20.9342 19.7792 21.5988 18.6579 21.8671 17.433C21.8854 17.3477 21.8488 17.2685 21.7756 17.2258L21.7695 17.2197Z" fill="white"/>
<path fill-rule="evenodd" clip-rule="evenodd" d="M19.7513 11.6983L19.3976 11.8994C19.3366 11.9359 19.3 11.9969 19.3 12.07V14.1298C19.3 14.2029 19.3366 14.2638 19.3976 14.2943L21.2208 15.3242C21.2817 15.3607 21.3549 15.3607 21.4159 15.3242L21.7695 15.1231C21.8427 15.0804 21.8793 15.0012 21.861 14.9159C21.5927 13.6849 20.9342 12.5697 19.9769 11.7287C19.9098 11.6739 19.8183 11.6617 19.7452 11.7044L19.7513 11.6983Z" fill="white"/>
<path fill-rule="evenodd" clip-rule="evenodd" d="M13.8533 10.6504V11.0526C13.8533 11.1257 13.8898 11.1867 13.9508 11.2171L15.774 12.247C15.835 12.2836 15.9081 12.2836 15.9691 12.247L17.7923 11.2171C17.8532 11.1806 17.8898 11.1196 17.8898 11.0526V10.6504C17.8898 10.5651 17.8349 10.4919 17.7496 10.4676C17.1398 10.2787 16.5057 10.1812 15.8654 10.1812C15.2252 10.1812 14.5911 10.2787 13.9813 10.4676C13.8959 10.4919 13.8411 10.5651 13.8411 10.6504H13.8533Z" fill="white"/>
<path fill-rule="evenodd" clip-rule="evenodd" d="M9.97454 15.1228L10.3282 15.3239C10.3892 15.3605 10.4623 15.3605 10.5233 15.3239L12.3465 14.294C12.4075 14.2575 12.444 14.1965 12.444 14.1295V12.0697C12.444 11.9966 12.4075 11.9357 12.3465 11.8991L11.9928 11.698C11.9196 11.6554 11.8282 11.6675 11.7611 11.7224C10.8099 12.5634 10.1453 13.6785 9.87698 14.9095C9.85868 14.9948 9.89527 15.0741 9.96844 15.1167L9.97454 15.1228Z" fill="white"/>
<path fill-rule="evenodd" clip-rule="evenodd" d="M11.9965 20.6377L12.3501 20.4366C12.4111 20.4 12.4477 20.3391 12.4477 20.2721V18.2123C12.4477 18.1392 12.4111 18.0782 12.3501 18.0417L10.527 17.0118C10.466 16.9752 10.3928 16.9752 10.3319 17.0118L9.9782 17.2129C9.90503 17.2556 9.86845 17.3409 9.88674 17.4201C10.155 18.6511 10.8197 19.7663 11.7709 20.6072C11.8379 20.6621 11.9294 20.6743 12.0026 20.6316L11.9965 20.6377Z" fill="white"/>
</svg>
