<svg width="30" height="34" viewBox="0 0 30 34" fill="none" xmlns="http://www.w3.org/2000/svg">
<path d="M27.9726 26.6472C29.2256 25.9369 30 24.6077 30 23.1674L30 10.8289C30 9.38828 29.2253 8.05894 27.9719 7.34874L16.9738 1.11713C15.7507 0.424117 14.2536 0.424025 13.0304 1.11688L2.02854 7.34883C0.774877 8.05895 -4.0657e-07 9.38843 -4.68965e-07 10.8292L-1.00326e-06 23.1671C-1.06564e-06 24.6076 0.77455 25.9368 2.02779 26.6471L13.0297 32.8821C14.2532 33.5756 15.751 33.5755 16.9745 32.8819L27.9726 26.6472Z" fill="white" fill-opacity="0.1"/>
<path fill-rule="evenodd" clip-rule="evenodd" d="M6.94841 9.0118C9.15092 8.67821 12.4351 7.36659 14.1516 6.26725C14.7003 5.91092 15.633 5.91092 16.1817 6.26725C17.8982 7.37417 21.1824 8.67821 23.3849 9.0118C23.9101 9.08762 24.3333 9.53494 24.3333 10.0808V10.8401C24.2911 10.8504 24.2491 10.8628 24.2075 10.8771L23.3333 11.1796V10.0808C23.3333 10.0731 23.3316 10.0599 23.3145 10.0409C23.295 10.0194 23.2677 10.0052 23.242 10.0015L23.2352 10.0005C20.8838 9.64439 17.4671 8.28601 15.6398 7.10767L15.637 7.10591C15.5645 7.05881 15.3972 7 15.1667 7C14.9362 7 14.7688 7.05881 14.6963 7.1059L14.6909 7.10936C12.8688 8.27635 9.45825 9.64135 7.1053 9.99944C7.07375 10.0051 7.04053 10.0233 7.01822 10.0477C6.99955 10.0681 7 10.0808 7 10.0808V19.0954C7 19.5816 7.29297 20.2782 7.97887 21.1549C8.64086 22.0011 9.56119 22.8796 10.5601 23.7074C12.3635 25.2021 14.3105 26.44 15.1662 26.9252C15.9998 26.4495 17.8374 25.2603 19.5334 23.8145C20.4705 23.0157 21.3305 22.1669 21.9494 21.3446L22.6566 21.5113V21.5491C22.6566 21.7017 22.6799 21.8461 22.7226 21.9801C20.6676 24.6862 16.4835 27.3719 15.3901 27.9431C15.2411 28.019 15.0922 28.019 14.9433 27.9431C13.4776 27.1774 6 22.4161 6 19.0954V10.0808C6 9.53494 6.4311 9.0952 6.94841 9.0118ZM22.6162 20.2688C22.6162 20.2688 22.6162 20.2689 22.6162 20.2689L23.606 20.5023C23.606 20.5023 23.606 20.5023 23.606 20.5023L23.7007 20.5246C23.792 20.5461 23.8565 20.6276 23.8565 20.7214V21.5491C23.8565 21.7054 24.0263 21.8025 24.161 21.7234L26.75 20.2037C26.8404 20.1506 26.8753 20.0373 26.8303 19.9426L25.2514 16.6198C25.1625 16.4326 24.8829 16.4846 24.8672 16.6913L24.7831 17.8002C24.7741 17.9188 24.6651 18.0041 24.5478 17.9843L17.4962 16.7924C17.4408 16.783 17.3983 16.7551 17.3698 16.718V16.718C17.315 16.6465 17.3123 16.541 17.3698 16.4681V16.468C17.389 16.4436 17.415 16.4228 17.448 16.4082L18.2634 16.0472V16.0473L19.2634 15.6045V15.6044L19.3518 15.5652L19.3524 15.565L24.3333 13.3596V13.3595L25.4381 12.8703C25.582 12.8066 25.6011 12.6101 25.4722 12.5198L24.7819 12.0366C24.7288 11.9994 24.6611 11.9899 24.5998 12.0111L15.1361 15.2857C15.0546 15.3139 15 15.3906 15 15.4768V18.3126C15 18.3632 15.0187 18.4101 15.0503 18.4461C15.0773 18.4768 15.1137 18.4995 15.1558 18.5094L15.8667 18.6771L15.8668 18.6771L18.4277 19.281V19.2811L20.182 19.6948C20.182 19.6948 20.182 19.6948 20.182 19.6948L22.6162 20.2688ZM19.5546 12.4871C19.4131 12.3337 19.2629 12.1872 19.1046 12.0481C19.0375 11.9932 18.9461 11.981 18.8729 12.0237L18.879 12.0176L18.5253 12.2187C18.4643 12.2553 18.4277 12.3162 18.4277 12.3894V12.877L19.5546 12.4871ZM15.1196 13.8826L15.2722 13.9689L14.7437 14.1518C14.1789 14.3472 13.8 14.8792 13.8 15.4768V18.3126C13.8 18.3729 13.8039 18.4324 13.8113 18.4909L12.7536 17.8928C12.6804 17.8501 12.6377 17.7831 12.6377 17.6978V15.2843C12.6377 15.199 12.6804 15.132 12.7536 15.0893L14.8879 13.8826C14.961 13.8399 15.0464 13.8399 15.1196 13.8826ZM18.4277 20.5981V20.514L19.3373 20.7285C19.2637 20.8006 19.1882 20.8709 19.1107 20.9394C19.0436 21.0003 18.9522 21.0064 18.879 20.9637L18.5253 20.7626C18.4643 20.7322 18.4277 20.6651 18.4277 20.5981ZM17.0203 22.0053V21.6031C17.0203 21.5299 16.9837 21.469 16.9227 21.4324L15.0994 20.4024C15.0384 20.3659 14.9653 20.3659 14.9043 20.4024L13.081 21.4324C13.02 21.469 12.9834 21.5299 12.9834 21.6031V22.0053C12.9834 22.0906 13.0383 22.1638 13.1237 22.1881C13.7335 22.3832 14.3677 22.4746 15.0079 22.4746C15.6482 22.4746 16.2824 22.3771 16.8922 22.1881C16.9776 22.1638 17.0325 22.0906 17.0325 22.0053H17.0203ZM12.9807 10.9693V11.3715C12.9807 11.4447 13.0173 11.5056 13.0783 11.5361L14.9016 12.5661C14.9626 12.6026 15.0358 12.6026 15.0968 12.5661L16.9201 11.5361C16.9811 11.4995 17.0176 11.4386 17.0176 11.3715V10.9693C17.0176 10.884 16.9628 10.8108 16.8774 10.7864C16.2676 10.5975 15.6334 10.5 14.9931 10.5C14.3528 10.5 13.7186 10.5975 13.1088 10.7864C13.0234 10.8108 12.9685 10.884 12.9685 10.9693H12.9807ZM9.10223 15.4433L9.45592 15.6445C9.5169 15.681 9.59007 15.681 9.65105 15.6445L11.4744 14.6145C11.5353 14.5779 11.5719 14.517 11.5719 14.4499V12.39C11.5719 12.3168 11.5353 12.2559 11.4744 12.2193L11.1207 12.0182C11.0475 11.9755 10.956 11.9877 10.889 12.0426C9.93766 12.8836 9.27298 13.9989 9.00466 15.23C8.98637 15.3153 9.02296 15.3946 9.09613 15.4372L9.10223 15.4433ZM11.1265 20.9578L11.4801 20.7567C11.5411 20.7201 11.5777 20.6592 11.5777 20.5921V18.5322C11.5777 18.459 11.5411 18.3981 11.4801 18.3615L9.65683 17.3315C9.59585 17.295 9.52267 17.295 9.46169 17.3315L9.108 17.5326C9.03483 17.5753 8.99824 17.6606 9.01653 17.7399C9.28485 18.971 9.94953 20.0863 10.9008 20.9273C10.9679 20.9822 11.0594 20.9943 11.1326 20.9517L11.1265 20.9578Z" fill="white"/>
</svg>
