<svg width="30" height="34" viewBox="0 0 30 34" fill="none" xmlns="http://www.w3.org/2000/svg">
<path d="M27.6149 26.85C29.089 26.0143 30 24.4507 30 22.7562L30 11.2403C30 9.54541 29.0886 7.98148 27.614 7.14595L17.3217 1.31427C15.8828 0.498962 14.1215 0.498853 12.6825 1.31398L2.38651 7.14605C0.911621 7.9815 -4.13376e-07 9.54559 -4.86782e-07 11.2407L-9.85448e-07 22.7558C-1.05884e-06 24.4505 0.911235 26.0143 2.38564 26.8499L12.6816 32.6849C14.1211 33.5007 15.8832 33.5005 17.3226 32.6846L27.6149 26.85Z" fill="white" fill-opacity="0.1"/>
<path d="M15.2551 15.9298V16.8498L15.6351 16.6298C15.7251 16.5898 15.7751 16.4998 15.7751 16.3998V13.5798C15.7751 13.4798 15.7251 13.3998 15.6351 13.3498L13.1451 11.9398C13.0551 11.8898 12.9651 11.8898 12.8751 11.9398L10.3851 13.3498C10.2951 13.3998 10.2451 13.4798 10.2451 13.5798V16.3998C10.2451 16.4998 10.2951 16.5798 10.3851 16.6298L12.2851 17.7098V15.9398C12.2851 15.1098 12.9551 14.4398 13.7751 14.4398C14.5951 14.4398 15.2551 15.1098 15.2551 15.9398V15.9298Z" fill="white"/>
<path d="M10.7653 20.7699C10.6953 20.8099 10.6553 20.8799 10.6553 20.9699V21.4399C10.6553 21.5399 10.7153 21.6299 10.8153 21.6499C11.2953 21.7999 11.7853 21.8799 12.2853 21.9299V19.8999L10.7653 20.7599V20.7699Z" fill="white"/>
<path d="M17.1249 12.8003L17.9649 13.2803L18.7949 11.8303C18.8849 11.6703 19.0049 11.5303 19.1449 11.4203C18.7849 10.8203 18.3349 10.2803 17.7949 9.81029C17.7149 9.75029 17.6049 9.73029 17.5249 9.78029L17.1149 10.0103C17.0449 10.0503 17.0049 10.1203 17.0049 10.2103V12.6203C17.0049 12.7103 17.0449 12.7803 17.1149 12.8103L17.1249 12.8003Z" fill="white"/>
<path d="M10.6448 9.01C10.6448 9.1 10.6848 9.17 10.7548 9.2L12.8848 10.4C12.9548 10.44 13.0448 10.44 13.1148 10.4L15.2448 9.2C15.3148 9.16 15.3548 9.09 15.3548 9.01V8.54C15.3548 8.44 15.2948 8.35 15.1948 8.33C14.4848 8.11 13.7448 8 12.9948 8C12.2448 8 11.5048 8.11 10.7948 8.33C10.6948 8.36 10.6348 8.44 10.6348 8.54H10.6448V9.01Z" fill="white"/>
<path d="M6.12505 13.77L6.53505 14.01C6.60505 14.05 6.69505 14.05 6.76505 14.01L8.89505 12.81C8.96505 12.77 9.00505 12.7 9.00505 12.62V10.21C9.00505 10.12 8.96505 10.05 8.89505 10.01L8.48505 9.77002C8.39505 9.72002 8.29505 9.73002 8.21505 9.80002C7.09505 10.78 6.32505 12.08 6.00505 13.52C5.98505 13.62 6.02505 13.71 6.11505 13.76L6.12505 13.77Z" fill="white"/>
<path d="M6.77458 15.9802C6.70458 15.9402 6.61458 15.9402 6.54458 15.9802L6.13458 16.2202C6.04458 16.2702 6.00458 16.3702 6.02458 16.4602C6.33458 17.9002 7.11458 19.2002 8.22458 20.1902C8.30458 20.2502 8.40458 20.2702 8.49458 20.2202L8.90458 19.9902C8.97458 19.9502 9.01458 19.8802 9.01458 19.8002V17.3902C9.01458 17.3002 8.97458 17.2302 8.90458 17.1902L6.77458 15.9902V15.9802Z" fill="white"/>
<path d="M25.4956 16.6099C25.2656 16.4699 24.9656 16.5499 24.8356 16.7899L22.6856 20.5699L22.1856 21.4399L21.9556 21.3099L21.3156 20.9399L21.0856 20.8099L21.5856 19.9399L24.3556 15.0899C24.4856 14.8599 24.4056 14.5599 24.1756 14.4199C23.9456 14.2799 23.6456 14.3599 23.5156 14.5999L20.7456 19.4499L20.2456 20.3199L20.0256 20.1899L19.3856 19.8099L19.1656 19.6799L19.6656 18.8099L23.0456 12.8799C23.1756 12.6499 23.0956 12.3499 22.8656 12.2099C22.6356 12.0699 22.3356 12.1499 22.2056 12.3899L18.8256 18.3199L18.3256 19.1899L18.1056 19.0599L17.4656 18.6799L17.2456 18.5499L17.7456 17.6799L20.5156 12.8199C20.6456 12.5899 20.5656 12.2899 20.3356 12.1499C20.1056 12.0099 19.8056 12.0899 19.6756 12.3299L16.9056 17.1899L16.4056 18.0599L16.1056 18.5899L14.2756 21.8099V15.9399C14.2756 15.6699 14.0556 15.4399 13.7956 15.4399C13.5356 15.4399 13.3056 15.6699 13.3056 15.9399V17.9599V19.6599V23.8899V23.9199C13.2656 24.6799 13.6456 25.3899 14.2856 25.7599L17.4956 27.6399C17.9456 27.8999 18.4756 27.9699 18.9756 27.8399C19.4856 27.6999 19.9156 27.3699 20.1856 26.9099L22.7356 22.4499L23.5356 21.0499L25.6856 17.2699C25.8156 17.0399 25.7356 16.7399 25.5056 16.5999L25.4956 16.6099Z" fill="white"/>
</svg>
