<svg width="30" height="34" viewBox="0 0 30 34" fill="none" xmlns="http://www.w3.org/2000/svg">
<path d="M28.3781 26.4173C29.3805 25.8491 30 24.7858 30 23.6335L30 10.3627C30 9.2102 29.3802 8.14672 28.3775 7.57857L16.5794 0.893701C15.601 0.339293 14.4033 0.33922 13.4248 0.893506L1.62283 7.57864C0.619901 8.14674 -3.98857e-07 9.21032 -4.48773e-07 10.363L-1.02345e-06 23.6332C-1.07335e-06 24.7856 0.619639 25.849 1.62223 26.4172L13.4242 33.1057C14.403 33.6604 15.6013 33.6604 16.58 33.1055L28.3781 26.4173Z" fill="white" fill-opacity="0.1"/>
<path d="M16.21 14.2743C16.21 13.8169 16.3403 13.491 16.5852 13.2772C16.8327 13.0611 17.2143 12.9443 17.748 12.9443H19.334C19.8676 12.9443 20.2492 13.0611 20.4967 13.2772C20.7416 13.491 20.872 13.8169 20.872 14.2743V15.2533H19.213V14.5343C19.213 14.4085 19.1786 14.2964 19.0932 14.2172C19.0091 14.1394 18.8925 14.1093 18.762 14.1093H18.32C18.1894 14.1093 18.0728 14.1394 17.9888 14.2172C17.9033 14.2964 17.869 14.4085 17.869 14.5343V15.9903C17.869 16.1157 17.8973 16.2297 17.976 16.3083L17.9829 16.3142C18.0633 16.3811 18.1852 16.4023 18.32 16.4023H19.438C19.9818 16.4023 20.3481 16.5219 20.5632 16.7371L20.5645 16.7383C20.7811 16.9471 20.898 17.2677 20.898 17.7193V19.6693C20.898 20.1314 20.7674 20.4607 20.5224 20.6766C20.2749 20.8946 19.8934 21.0123 19.36 21.0123H17.787C17.249 21.0123 16.8642 20.8945 16.6145 20.6763C16.3674 20.4603 16.236 20.1312 16.236 19.6693V18.7033H17.895V19.4223C17.895 19.5481 17.9293 19.6603 18.0148 19.7395C18.0988 19.8173 18.2154 19.8473 18.346 19.8473H18.788C18.9185 19.8473 19.0351 19.8173 19.1192 19.7395C19.2046 19.6603 19.239 19.5481 19.239 19.4223V17.9273C19.239 17.8059 19.212 17.6916 19.1285 17.6195C19.0476 17.5411 18.9239 17.5153 18.788 17.5153H17.644C17.1468 17.5153 16.7925 17.3973 16.5623 17.1788C16.3331 16.9613 16.21 16.6279 16.21 16.1593V14.2743Z" fill="white"/>
<path d="M11.5774 21.0123L9.84271 13.1876C9.81503 13.0627 9.91006 12.9443 10.038 12.9443H11.5165L12.5296 18.9968L12.7268 18.997L13.7527 12.9443H15.4678L13.6918 21.0123H11.5774Z" fill="white"/>
<path d="M11.6294 8.46V7.79H11.6094C11.6094 7.65 11.6994 7.53 11.8394 7.48C12.8594 7.16 13.9094 7 14.9794 7C16.0494 7 17.0994 7.16 18.1194 7.48C18.2594 7.52 18.3494 7.64 18.3494 7.79V8.46C18.3494 8.57 18.2894 8.67 18.1894 8.73L15.1494 10.45C15.0494 10.51 14.9294 10.51 14.8194 10.45L11.7794 8.73C11.6794 8.68 11.6194 8.58 11.6194 8.46H11.6294Z" fill="white"/>
<path d="M18.3694 25.5401V26.2101H18.3894C18.3894 26.3501 18.2994 26.4701 18.1594 26.5201C17.1394 26.8401 16.0894 27.0001 15.0194 27.0001C13.9494 27.0001 12.8994 26.8501 11.8794 26.5201C11.7394 26.4801 11.6494 26.3601 11.6494 26.2101V25.5401C11.6494 25.4201 11.7094 25.3201 11.8094 25.2601L14.8494 23.5401C14.9494 23.4801 15.0694 23.4801 15.1794 23.5401L18.2194 25.2601C18.3194 25.3201 18.3794 25.4201 18.3794 25.5401H18.3694Z" fill="white"/>
<path d="M5.16983 15.2601L5.75983 15.6001C5.85983 15.6601 5.97983 15.6601 6.08983 15.6001L9.12983 13.8801C9.22983 13.8201 9.28983 13.7201 9.28983 13.6101V10.1701C9.28983 10.0501 9.22983 9.95014 9.12983 9.88014L8.53983 9.54014C8.41983 9.47014 8.26983 9.49014 8.14983 9.58014C6.55983 10.9801 5.44983 12.8401 4.99983 14.9001C4.96983 15.0401 5.02983 15.1701 5.14983 15.2501H5.15983L5.16983 15.2601Z" fill="white"/>
<path d="M9.13011 24.13L8.54011 24.47H8.55011C8.43011 24.53 8.28011 24.51 8.16011 24.42C6.58011 23.01 5.48011 21.15 5.03011 19.09C5.00011 18.96 5.06011 18.82 5.18011 18.74L5.77011 18.4C5.87011 18.34 5.99011 18.34 6.10011 18.4L9.14011 20.12C9.24011 20.18 9.30011 20.28 9.30011 20.4V23.84C9.30011 23.95 9.24011 24.05 9.14011 24.11L9.13011 24.13Z" fill="white"/>
<path d="M24.8292 18.77L24.2392 18.42C24.1392 18.36 24.0192 18.36 23.9092 18.42L21.6892 19.68C21.6892 20.29 21.5092 20.87 21.0392 21.28C20.9392 21.37 20.8192 21.45 20.6992 21.51V23.87C20.6992 23.98 20.7592 24.09 20.8592 24.14L21.4492 24.48C21.5692 24.55 21.7192 24.54 21.8392 24.44C23.4292 23.04 24.5292 21.16 24.9792 19.12C25.0092 18.98 24.9492 18.85 24.8292 18.77Z" fill="white"/>
<path d="M21.84 9.58991C21.73 9.49991 21.58 9.47991 21.45 9.54991H21.46L20.87 9.87991C20.77 9.93991 20.71 10.0399 20.71 10.1699V12.4799C20.82 12.5399 20.92 12.6099 21.02 12.6899C21.49 13.0999 21.67 13.6799 21.67 14.2899V14.3399L23.91 15.6099C24.01 15.6699 24.13 15.6699 24.24 15.6099L24.83 15.2699C24.95 15.1999 25.01 15.0699 24.98 14.9199C24.53 12.8599 23.44 10.9999 21.84 9.59991V9.58991Z" fill="white"/>
</svg>
