<svg width="30" height="34" viewBox="0 0 30 34" fill="none" xmlns="http://www.w3.org/2000/svg">
<path d="M27.6149 26.85C29.089 26.0143 30 24.4507 30 22.7562L30 11.2403C30 9.54541 29.0886 7.98148 27.614 7.14595L17.3217 1.31427C15.8828 0.498962 14.1215 0.498853 12.6825 1.31398L2.38651 7.14605C0.911621 7.9815 -4.13376e-07 9.54559 -4.86782e-07 11.2407L-9.85448e-07 22.7558C-1.05884e-06 24.4505 0.911235 26.0143 2.38564 26.8499L12.6816 32.6849C14.1211 33.5007 15.8832 33.5005 17.3226 32.6846L27.6149 26.85Z" fill="white" fill-opacity="0.05"/>
<rect x="12" y="16" width="6" height="1" rx="0.5" fill="white" fill-opacity="0.3"/>
</svg>
