<svg width="30" height="34" viewBox="0 0 30 34" fill="none" xmlns="http://www.w3.org/2000/svg">
<path d="M27.9726 26.6472C29.2256 25.9369 30 24.6077 30 23.1674L30 10.8289C30 9.38828 29.2253 8.05894 27.9719 7.34874L16.9738 1.11713C15.7507 0.424117 14.2536 0.424025 13.0304 1.11688L2.02854 7.34883C0.774877 8.05895 -4.0657e-07 9.38843 -4.68965e-07 10.8292L-1.00326e-06 23.1671C-1.06564e-06 24.6076 0.77455 25.9368 2.02779 26.6471L13.0297 32.8821C14.2532 33.5756 15.751 33.5755 16.9745 32.8819L27.9726 26.6472Z" fill="white" fill-opacity="0.1"/>
<g clip-path="url(#clip0_1_479651)">
<path d="M15.0044 25.5367C19.7362 25.5367 23.5721 21.7008 23.5721 16.969C23.5721 12.2372 19.7362 8.40137 15.0044 8.40137C10.2726 8.40137 6.43671 12.2372 6.43671 16.969C6.43671 21.7008 10.2726 25.5367 15.0044 25.5367Z" stroke="white" stroke-linecap="round" stroke-linejoin="round"/>
<path d="M15.0021 27.5596V25.7397" stroke="white" stroke-linecap="round" stroke-linejoin="round"/>
<path d="M15.0021 8.25978V6.43994" stroke="white" stroke-linecap="round" stroke-linejoin="round"/>
<path d="M4.44061 17.001H6.26045" stroke="white" stroke-linecap="round" stroke-linejoin="round"/>
<path d="M23.7396 17.001H25.5595" stroke="white" stroke-linecap="round" stroke-linejoin="round"/>
</g>
<path fill-rule="evenodd" clip-rule="evenodd" d="M15.1189 19.5999L17.2532 18.3931C17.3264 18.3565 17.3691 18.2834 17.3691 18.198L17.3691 15.7844C17.3691 15.6991 17.3264 15.6321 17.2532 15.5894L15.1189 14.3826C15.0457 14.3399 14.9603 14.3399 14.8871 14.3826L12.7528 15.5894C12.6796 15.6321 12.6369 15.6991 12.6369 15.7844L12.6369 18.198C12.6369 18.2834 12.6796 18.3504 12.7528 18.3931L14.8871 19.5999C14.9603 19.6425 15.0457 19.6425 15.1189 19.5999Z" fill="white"/>
<path fill-rule="evenodd" clip-rule="evenodd" d="M17.0204 22.5064L17.0204 22.1041C17.0204 22.031 16.9838 21.97 16.9228 21.9335L15.0995 20.9034C15.0385 20.8668 14.9653 20.8668 14.9043 20.9034L13.081 21.9335C13.02 21.97 12.9834 22.031 12.9834 22.1041L12.9834 22.5064C12.9834 22.5917 13.0383 22.6648 13.1237 22.6892C13.7335 22.8843 14.3677 22.9757 15.008 22.9757C15.6483 22.9757 16.2825 22.8782 16.8923 22.6892C16.9777 22.6648 17.0326 22.5917 17.0326 22.5064L17.0204 22.5064Z" fill="white"/>
<path fill-rule="evenodd" clip-rule="evenodd" d="M20.8996 18.0386L20.5459 17.8375C20.485 17.8009 20.4118 17.8009 20.3508 17.8375L18.5274 18.8675C18.4665 18.9041 18.4299 18.9651 18.4299 19.0382L18.4299 21.0983C18.4299 21.1653 18.4665 21.2324 18.5274 21.2628L18.8811 21.464C18.9543 21.5066 19.0458 21.5006 19.1129 21.4396C20.0642 20.5985 20.7289 19.477 20.9972 18.2519C21.0155 18.1666 20.9789 18.0874 20.9057 18.0447L20.8996 18.0386Z" fill="white"/>
<path fill-rule="evenodd" clip-rule="evenodd" d="M18.8811 12.5186L18.5274 12.7197C18.4665 12.7563 18.4299 12.8172 18.4299 12.8904L18.4299 14.9505C18.4299 15.0236 18.4665 15.0846 18.5274 15.115L20.3508 16.1451C20.4118 16.1817 20.485 16.1817 20.5459 16.1451L20.8996 15.9439C20.9728 15.9013 21.0094 15.8221 20.9911 15.7367C20.7228 14.5055 20.0642 13.3902 19.1068 12.5491C19.0397 12.4942 18.9482 12.482 18.875 12.5247L18.8811 12.5186Z" fill="white"/>
<path fill-rule="evenodd" clip-rule="evenodd" d="M12.9809 11.4693L12.9809 11.8716C12.9809 11.9447 13.0175 12.0057 13.0785 12.0361L14.9019 13.0662C14.9629 13.1028 15.036 13.1028 15.097 13.0662L16.9204 12.0361C16.9813 11.9996 17.0179 11.9386 17.0179 11.8716L17.0179 11.4693C17.0179 11.384 16.9631 11.3108 16.8777 11.2865C16.2679 11.0975 15.6337 11 14.9933 11C14.353 11 13.7188 11.0975 13.109 11.2865C13.0236 11.3108 12.9688 11.384 12.9688 11.4693L12.9809 11.4693Z" fill="white"/>
<path fill-rule="evenodd" clip-rule="evenodd" d="M9.10242 15.9447L9.45611 16.1458C9.51709 16.1824 9.59027 16.1824 9.65125 16.1458L11.4746 15.1158C11.5356 15.0792 11.5722 15.0182 11.5722 14.9512L11.5722 12.8911C11.5722 12.818 11.5356 12.757 11.4746 12.7204L11.1209 12.5193C11.0477 12.4766 10.9563 12.4888 10.8892 12.5437C9.93787 13.3848 9.27316 14.5002 9.00485 15.7313C8.98655 15.8167 9.02314 15.8959 9.09632 15.9386L9.10242 15.9447Z" fill="white"/>
<path fill-rule="evenodd" clip-rule="evenodd" d="M11.1276 21.4586L11.4813 21.2575C11.5422 21.2209 11.5788 21.16 11.5788 21.0929L11.5788 19.0328C11.5788 18.9597 11.5422 18.8987 11.4813 18.8622L9.65791 17.8321C9.59693 17.7955 9.52375 17.7955 9.46277 17.8321L9.10907 18.0332C9.0359 18.0759 8.99931 18.1612 9.0176 18.2405C9.28592 19.4717 9.95062 20.587 10.9019 21.4281C10.969 21.483 11.0605 21.4952 11.1337 21.4525L11.1276 21.4586Z" fill="white"/>
<defs>
<clipPath id="clip0_1_479651">
<rect width="22" height="22" fill="white" transform="translate(4.00018 6)"/>
</clipPath>
</defs>
</svg>
