<svg width="37" height="15" viewBox="0 0 37 15" fill="none" xmlns="http://www.w3.org/2000/svg">
<rect width="37" height="15" rx="7.5" fill="#E8361E"/>
<circle cx="6.5" cy="7.5" r="1.5" transform="rotate(90 6.5 7.5)" fill="white"/>
<path d="M13.33 9.68H15.57V11H11.62L11.62 3.98L13.33 3.98V9.68ZM17.2456 4.84C16.9456 4.84 16.699 4.75333 16.5056 4.58C16.319 4.4 16.2256 4.18 16.2256 3.92C16.2256 3.65333 16.319 3.43333 16.5056 3.26C16.699 3.08 16.9456 2.99 17.2456 2.99C17.539 2.99 17.779 3.08 17.9656 3.26C18.159 3.43333 18.2556 3.65333 18.2556 3.92C18.2556 4.18 18.159 4.4 17.9656 4.58C17.779 4.75333 17.539 4.84 17.2456 4.84ZM18.0956 5.42V11H16.3856V5.42H18.0956ZM21.8448 9.4L23.0548 5.42H24.8748L22.8948 11H20.7848L18.8048 5.42H20.6348L21.8448 9.4ZM30.8546 8.12C30.8546 8.28 30.8446 8.44667 30.8246 8.62H26.9546C26.9813 8.96667 27.0913 9.23333 27.2846 9.42C27.4846 9.6 27.7279 9.69 28.0146 9.69C28.4413 9.69 28.7379 9.51 28.9046 9.15H30.7246C30.6313 9.51667 30.4613 9.84667 30.2146 10.14C29.9746 10.4333 29.6713 10.6633 29.3046 10.83C28.9379 10.9967 28.5279 11.08 28.0746 11.08C27.5279 11.08 27.0413 10.9633 26.6146 10.73C26.1879 10.4967 25.8546 10.1633 25.6146 9.73C25.3746 9.29667 25.2546 8.79 25.2546 8.21C25.2546 7.63 25.3713 7.12333 25.6046 6.69C25.8446 6.25667 26.1779 5.92333 26.6046 5.69C27.0313 5.45667 27.5213 5.34 28.0746 5.34C28.6146 5.34 29.0946 5.45333 29.5146 5.68C29.9346 5.90667 30.2613 6.23 30.4946 6.65C30.7346 7.07 30.8546 7.56 30.8546 8.12ZM29.1046 7.67C29.1046 7.37667 29.0046 7.14333 28.8046 6.97C28.6046 6.79667 28.3546 6.71 28.0546 6.71C27.7679 6.71 27.5246 6.79333 27.3246 6.96C27.1313 7.12667 27.0113 7.36333 26.9646 7.67L29.1046 7.67Z" fill="white"/>
</svg>
