<svg width="37" height="15" viewBox="0 0 37 15" fill="none" xmlns="http://www.w3.org/2000/svg">
<rect width="37" height="15" rx="7.5" fill="#404040"/>
<path d="M12.71 3.98L10.22 11H8.08L5.59 3.98L7.41 3.98L9.15 9.28L10.9 3.98L12.71 3.98ZM14.2847 4.84C13.9847 4.84 13.738 4.75333 13.5447 4.58C13.358 4.4 13.2647 4.18 13.2647 3.92C13.2647 3.65333 13.358 3.43333 13.5447 3.26C13.738 3.08 13.9847 2.99 14.2847 2.99C14.578 2.99 14.818 3.08 15.0047 3.26C15.198 3.43333 15.2947 3.65333 15.2947 3.92C15.2947 4.18 15.198 4.4 15.0047 4.58C14.818 4.75333 14.578 4.84 14.2847 4.84ZM15.1347 5.42L15.1347 11L13.4247 11V5.42H15.1347ZM21.6339 8.12C21.6339 8.28 21.6239 8.44667 21.6039 8.62L17.7339 8.62C17.7606 8.96667 17.8706 9.23333 18.0639 9.42C18.2639 9.6 18.5072 9.69 18.7939 9.69C19.2206 9.69 19.5172 9.51 19.6839 9.15H21.5039C21.4106 9.51667 21.2406 9.84667 20.9939 10.14C20.7539 10.4333 20.4506 10.6633 20.0839 10.83C19.7172 10.9967 19.3072 11.08 18.8539 11.08C18.3072 11.08 17.8206 10.9633 17.3939 10.73C16.9672 10.4967 16.6339 10.1633 16.3939 9.73C16.1539 9.29667 16.0339 8.79 16.0339 8.21C16.0339 7.63 16.1506 7.12333 16.3839 6.69C16.6239 6.25667 16.9572 5.92333 17.3839 5.69C17.8106 5.45667 18.3006 5.34 18.8539 5.34C19.3939 5.34 19.8739 5.45333 20.2939 5.68C20.7139 5.90667 21.0406 6.23 21.2739 6.65C21.5139 7.07 21.6339 7.56 21.6339 8.12ZM19.8839 7.67C19.8839 7.37667 19.7839 7.14333 19.5839 6.97C19.3839 6.79667 19.1339 6.71 18.8339 6.71C18.5472 6.71 18.3039 6.79333 18.1039 6.96C17.9106 7.12667 17.7906 7.36333 17.7439 7.67H19.8839ZM30.546 5.42L29.036 11H27.146L26.266 7.38L25.356 11H23.476L21.956 5.42H23.666L24.456 9.41L25.396 5.42H27.206L28.156 9.39L28.936 5.42H30.546Z" fill="white"/>
</svg>
