<svg width="25" height="24" viewBox="0 0 25 24" fill="none" xmlns="http://www.w3.org/2000/svg">
<path d="M24.7071 12.0005C24.7072 18.6279 19.3348 24.0005 12.7075 24.0005C6.08025 24.0005 0.707725 18.6279 0.707652 12.0005C0.707579 5.37307 6.07999 0.000488281 12.7073 0.000488281C19.3345 0.000488281 24.7071 5.37307 24.7071 12.0005Z" fill="url(#paint0_linear_1_479523)"/>
<path fill-rule="evenodd" clip-rule="evenodd" d="M12.7075 23.6476C19.1399 23.6476 24.3543 18.433 24.3542 12.0005C24.3541 5.56799 19.1396 0.353423 12.7073 0.353423C6.27492 0.353423 1.06051 5.56799 1.06059 12.0005C1.06066 18.433 6.27518 23.6476 12.7075 23.6476ZM12.7075 24.0005C19.3348 24.0005 24.7072 18.6279 24.7071 12.0005C24.7071 5.37307 19.3345 0.000488281 12.7073 0.000488281C6.07999 0.000488281 0.707579 5.37307 0.707652 12.0005C0.707725 18.6279 6.08025 24.0005 12.7075 24.0005Z" fill="white" fill-opacity="0.5" style="mix-blend-mode:overlay"/>
<path d="M3.55083 7.68397L3.85759 7.06551L4.07921 7.17078L3.90679 7.51544L4.03141 7.57552L4.15409 7.32882L4.36528 7.43024L4.2426 7.67693L4.58195 7.83856L4.44409 8.11223L3.54731 7.68383L3.55083 7.68397Z" fill="white"/>
<path d="M4.6548 6.15295C4.71457 6.06916 4.79709 6.03453 4.87784 6.04462L4.78857 5.9825L4.96774 5.7346L5.61672 6.18419L5.43755 6.43209L5.34828 6.36997C5.3843 6.44032 5.37737 6.52619 5.31746 6.61341C5.21283 6.76089 5.0035 6.7905 4.79408 6.64436C4.58467 6.49821 4.54326 6.2967 4.65128 6.15281L4.6548 6.15295ZM4.93767 6.22619C4.9004 6.2764 4.90824 6.34563 4.98044 6.39329C5.05264 6.44095 5.12011 6.42984 5.15752 6.37619C5.19479 6.32598 5.18695 6.25675 5.11475 6.20909C5.04269 6.15798 4.97508 6.17253 4.93767 6.22619Z" fill="white"/>
<path d="M6.22489 4.9194C6.17057 4.86555 6.10717 4.86304 6.05933 4.91283C6.01163 4.95919 6.0127 5.02126 6.06701 5.0751L6.36242 5.36594L6.1422 5.5812L5.58199 5.0283L5.80221 4.81304L5.88714 4.89567C5.86914 4.8157 5.88691 4.72336 5.97134 4.64055C6.09981 4.5147 6.27187 4.5353 6.41802 4.67549L6.74404 4.99511L6.52382 5.21037L6.22489 4.9194Z" fill="white"/>
<path d="M7.09744 4.05132L7.01762 4.10674L6.8635 3.90076L6.94331 3.84535L6.82941 3.69265L7.08349 3.51319L7.19739 3.66589L7.30268 3.5908L7.45681 3.79678L7.35152 3.87187L7.47882 4.04232C7.49887 4.07068 7.52339 4.0751 7.55605 4.05227L7.6177 4.00992L7.77521 4.21948L7.68076 4.2881C7.52832 4.39578 7.36885 4.41358 7.22488 4.21834L7.10096 4.05146L7.09744 4.05132Z" fill="white"/>
<path d="M8.33448 2.98045C8.42812 2.93248 8.51604 2.93941 8.58472 2.98693L8.53556 2.89194L8.81266 2.75474L9.17327 3.4479L8.89617 3.5851L8.84702 3.49011C8.84388 3.56924 8.79861 3.64326 8.70498 3.69124C8.54305 3.77097 8.34459 3.70452 8.22637 3.48273C8.11181 3.25765 8.17242 3.06363 8.33435 2.9839L8.33448 2.98045ZM8.5527 3.17174C8.49511 3.20048 8.47138 3.26501 8.51079 3.33894C8.55006 3.41631 8.61644 3.43272 8.67403 3.40399C8.73162 3.37526 8.75521 3.31417 8.71594 3.2368C8.67667 3.15943 8.61028 3.14301 8.5527 3.17174Z" fill="white"/>
<path d="M10.2664 3.0571C10.0485 3.12428 9.86779 3.05509 9.80307 2.90779L10.0888 2.81918C10.1118 2.86145 10.1538 2.87 10.2003 2.85462C10.2324 2.84555 10.244 2.82189 10.2376 2.8044C10.2062 2.70667 9.84507 2.91635 9.75708 2.64407C9.71294 2.51137 9.78574 2.36608 10.0001 2.29876C10.218 2.23159 10.3626 2.32003 10.4313 2.45714L10.1669 2.53971C10.1472 2.50446 10.109 2.48916 10.059 2.50441C10.0304 2.51362 10.0156 2.53026 10.0217 2.55462C10.0534 2.64548 10.4214 2.43952 10.5124 2.7257C10.5565 2.8584 10.4664 2.99611 10.2664 3.0571Z" fill="white"/>
<path d="M11.7968 1.92872L12.1374 1.8802L11.8003 3.08672L11.4596 3.13525L11.5967 2.70304L11.1617 2.01727L11.5059 1.96888L11.71 2.3388L11.7897 1.92844L11.7968 1.92872Z" fill="white"/>
<path d="M15.1904 2.86653C14.9666 2.81631 14.8169 2.67598 14.8537 2.46034L15.179 2.53181C15.1691 2.60379 15.2036 2.62239 15.235 2.63052C15.2665 2.63866 15.2984 2.63304 15.307 2.59547C15.3368 2.46571 14.8663 2.40915 14.9461 2.08838C14.9889 1.89711 15.1783 1.83569 15.3847 1.88178C15.6189 1.93586 15.7438 2.07865 15.7077 2.27709L15.379 2.20204C15.3884 2.14382 15.3612 2.11862 15.3297 2.11049C15.3052 2.10607 15.2837 2.11555 15.2753 2.14968C15.2458 2.26912 15.7048 2.34935 15.6367 2.643C15.5981 2.81722 15.4318 2.91745 15.194 2.86323L15.1904 2.86653Z" fill="white"/>
<path d="M16.6615 3.32425C16.4392 3.23618 16.331 3.02858 16.4246 2.80141C16.522 2.57094 16.747 2.5006 16.9693 2.58867C17.1916 2.67674 17.2998 2.88435 17.2062 3.11151C17.1125 3.33868 16.8838 3.41232 16.6615 3.32425ZM16.7629 3.08016C16.815 3.09946 16.8757 3.08119 16.911 2.99299C16.9461 2.90823 16.9166 2.85192 16.8679 2.83276C16.8193 2.81361 16.7551 2.83174 16.7198 2.91993C16.6847 3.00469 16.7142 3.061 16.7629 3.08016Z" fill="white"/>
<path d="M18.4654 3.33022C18.6412 3.43368 18.7081 3.61552 18.6299 3.80884L18.3473 3.63912C18.3594 3.6017 18.3501 3.57031 18.319 3.55185C18.2777 3.52609 18.2274 3.54822 18.175 3.6254C18.1259 3.70616 18.1309 3.75805 18.1687 3.78367C18.2033 3.80227 18.2318 3.79306 18.261 3.7701L18.5436 3.93982C18.4034 4.09278 18.2049 4.11592 18.0326 4.0126C17.8293 3.89082 17.7673 3.67471 17.8991 3.46628C18.0309 3.25441 18.2549 3.2116 18.4581 3.33682L18.4654 3.33022Z" fill="white"/>
<path d="M19.8081 4.28985C19.9617 4.42 20 4.61105 19.8906 4.78935L19.638 4.57602C19.6534 4.54217 19.6548 4.50777 19.6241 4.48243C19.5864 4.45337 19.5332 4.46159 19.4703 4.53491C19.4075 4.60479 19.4053 4.65984 19.4429 4.69234C19.4736 4.71768 19.5056 4.71206 19.538 4.69611L19.7906 4.90944C19.6231 5.04064 19.4295 5.02952 19.2724 4.89924C19.0914 4.74733 19.0649 4.52573 19.2312 4.3359C19.3974 4.14951 19.627 4.14139 19.808 4.29329L19.8081 4.28985Z" fill="white"/>
<path d="M20.3484 5.9546C20.1967 5.77629 20.2055 5.55265 20.3988 5.3949C20.592 5.23715 20.8202 5.26687 20.9719 5.44519C21.1236 5.6235 21.1184 5.84384 20.9251 6.00159C20.9105 6.01479 20.8923 6.02786 20.8743 6.03748L20.5506 5.65937C20.4921 5.71219 20.4973 5.75719 20.5278 5.78941C20.5548 5.8215 20.5865 5.82275 20.6114 5.81685L20.8238 6.06649C20.6724 6.14664 20.4762 6.1113 20.3446 5.96134L20.3484 5.9546ZM20.6598 5.5741L20.7813 5.71331C20.8249 5.68058 20.8163 5.632 20.7859 5.59633C20.7522 5.55709 20.7104 5.54509 20.6598 5.5741Z" fill="white"/>
<path d="M21.2184 7.13681L21.0558 6.87537L21.735 6.47498L21.8975 6.73643L21.7711 6.81068C21.8803 6.81501 21.984 6.86736 22.0371 6.95217L21.7518 7.12005L21.7053 7.04584C21.6456 6.95043 21.5869 6.9171 21.4965 6.97209L21.2184 7.13681Z" fill="white"/>
<path d="M21.8151 17.117L21.4695 17.7147L21.2551 17.5955L21.4491 17.2625L21.3286 17.1946L21.1904 17.433L20.9861 17.3184L21.1243 17.08L20.7959 16.897L20.9509 16.6327L21.8186 17.1174L21.8151 17.117Z" fill="white"/>
<path d="M20.6117 18.5742C20.5468 18.654 20.4622 18.6833 20.3823 18.6681L20.4674 18.7358L20.2728 18.9718L19.6538 18.4817L19.8484 18.2458L19.9335 18.3134C19.902 18.2409 19.9148 18.1523 19.9798 18.0725C20.0936 17.932 20.3044 17.9157 20.5041 18.0749C20.7037 18.2341 20.7322 18.4379 20.6152 18.5746L20.6117 18.5742ZM20.3341 18.4831C20.3745 18.4354 20.3711 18.3658 20.3021 18.3136C20.2334 18.258 20.165 18.2682 20.1243 18.3194C20.0839 18.3671 20.0873 18.4367 20.1563 18.4889C20.225 18.5445 20.2934 18.5343 20.3341 18.4831Z" fill="white"/>
<path d="M18.9699 19.7056C19.0207 19.7628 19.0838 19.7693 19.1347 19.7227C19.1853 19.6795 19.1882 19.6174 19.1374 19.5603L18.8611 19.2512L19.0946 19.0504L19.6184 19.6379L19.3849 19.8386L19.3055 19.7508C19.3183 19.8317 19.2947 19.9228 19.2052 20C19.0689 20.1174 18.8985 20.0859 18.7616 19.9367L18.4566 19.5969L18.6901 19.3961L18.9699 19.7056Z" fill="white"/>
<path d="M18.0464 20.52L18.1296 20.4698L18.2703 20.6852L18.1871 20.7354L18.291 20.8951L18.026 21.058L17.9221 20.8983L17.8122 20.9665L17.6715 20.7512L17.7814 20.6829L17.6652 20.5047C17.647 20.4751 17.6228 20.4692 17.5888 20.4899L17.5245 20.5282L17.3807 20.309L17.4793 20.2466C17.6383 20.1488 17.7986 20.1412 17.9295 20.3487L18.0429 20.5197L18.0464 20.52Z" fill="white"/>
<path d="M16.7427 21.51C16.6462 21.5519 16.5589 21.5394 16.4934 21.4876L16.5364 21.5855L16.2511 21.7048L15.9354 20.9901L16.2206 20.8708L16.2637 20.9687C16.2718 20.89 16.3217 20.819 16.4182 20.7771C16.5849 20.7078 16.7787 20.7868 16.8826 21.0156C16.9825 21.2476 16.9097 21.4373 16.743 21.5066L16.7427 21.51ZM16.5371 21.3052C16.5964 21.2802 16.6238 21.2207 16.5896 21.141C16.5553 21.0613 16.4901 21.0407 16.4308 21.0657C16.3715 21.0907 16.3441 21.1502 16.3783 21.2299C16.4126 21.3096 16.4778 21.3302 16.5371 21.3052Z" fill="white"/>
<path d="M14.8211 21.3073C15.0428 21.2541 15.2188 21.3347 15.274 21.4858L14.9831 21.556C14.9629 21.5124 14.9215 21.5012 14.8741 21.5136C14.8415 21.5206 14.8285 21.5434 14.8337 21.5613C14.8589 21.6608 15.2326 21.4746 15.3031 21.7519C15.3387 21.8872 15.2568 22.0275 15.0385 22.081C14.8168 22.1342 14.6781 22.0367 14.6183 21.8955L14.8874 21.83C14.9049 21.8664 14.942 21.8841 14.9929 21.8721C15.022 21.8647 15.0378 21.849 15.0333 21.8243C15.0075 21.7316 14.6271 21.9137 14.5542 21.6258C14.5186 21.4905 14.6173 21.3588 14.8208 21.3107L14.8211 21.3073Z" fill="white"/>
<path d="M13.2217 22.3391L12.8787 22.3659L13.292 21.1833L13.6346 21.16L13.4703 21.5826L13.8607 22.2947L13.5142 22.321L13.3341 21.9388L13.2283 22.3433L13.2217 22.3391Z" fill="white"/>
<path d="M9.89218 21.1834C10.1123 21.2478 10.2528 21.3974 10.2023 21.6102L9.88226 21.5182C9.89673 21.447 9.86345 21.4262 9.8326 21.4161C9.80175 21.406 9.76948 21.4095 9.75856 21.4465C9.72051 21.5741 10.1865 21.6605 10.0864 21.9755C10.0315 22.1637 9.83853 22.2129 9.63556 22.1538C9.40489 22.0883 9.28972 21.9344 9.33838 21.7387L9.66159 21.8345C9.64854 21.892 9.6741 21.9189 9.7053 21.9256C9.72949 21.9316 9.7516 21.9235 9.76216 21.89C9.79915 21.7726 9.3462 21.6633 9.43286 21.3746C9.48254 21.2032 9.6545 21.1172 9.88868 21.183L9.89218 21.1834Z" fill="white"/>
<path d="M8.45584 20.6366C8.67208 20.7386 8.76683 20.9527 8.65887 21.1734C8.54704 21.3972 8.31796 21.4531 8.10172 21.351C7.88548 21.249 7.79073 21.0349 7.8987 20.8142C8.01052 20.5904 8.2396 20.5345 8.45584 20.6366ZM8.33909 20.8737C8.28827 20.8511 8.22653 20.8655 8.18573 20.9513C8.14529 21.0336 8.17116 21.0917 8.21847 21.1139C8.26929 21.1365 8.33104 21.1221 8.37183 21.0364C8.41228 20.954 8.3864 20.8959 8.33909 20.8737Z" fill="white"/>
<path d="M6.64789 20.5111C6.47901 20.3966 6.42385 20.2109 6.51423 20.0229L6.78542 20.2103C6.77099 20.2469 6.77831 20.2788 6.80809 20.2992C6.84768 20.3276 6.89926 20.3087 6.95652 20.235C7.01064 20.1575 7.00895 20.1054 6.97287 20.0775C6.93958 20.0567 6.91046 20.0641 6.87993 20.0851L6.60874 19.8977C6.75833 19.754 6.95439 19.7432 7.12327 19.8577C7.31842 19.9921 7.36652 20.2118 7.22176 20.4114C7.07665 20.6144 6.85041 20.6429 6.65561 20.505L6.64789 20.5111Z" fill="white"/>
<path d="M5.37762 19.4722C5.23263 19.3326 5.20623 19.1429 5.32711 18.9685L5.56562 19.1975C5.54804 19.2303 5.54449 19.2645 5.57356 19.2918C5.60893 19.3266 5.66295 19.3184 5.73002 19.2526C5.79709 19.1869 5.80278 19.1321 5.77091 19.0976C5.74184 19.0704 5.70957 19.0739 5.67588 19.0912L5.43737 18.8622C5.61288 18.742 5.80538 18.7654 5.95389 18.9054C6.1248 19.0686 6.13713 19.2914 5.95908 19.4702C5.78139 19.6457 5.55169 19.6391 5.38113 19.4726L5.37762 19.4722Z" fill="white"/>
<path d="M4.94559 17.7759C5.08561 17.9636 5.06252 18.1862 4.85962 18.3313C4.65672 18.4764 4.43093 18.4322 4.29091 18.2446C4.14738 18.0566 4.17012 17.8374 4.37302 17.6923C4.38847 17.6801 4.40742 17.6682 4.42602 17.6597L4.72497 18.0577C4.78676 18.0087 4.78437 17.9635 4.75565 17.9328C4.7308 17.8991 4.69924 17.8958 4.67398 17.9001L4.47795 17.6374C4.63411 17.5671 4.82763 17.6148 4.94945 17.7729L4.94559 17.7759ZM4.61054 18.1358L4.49816 17.9892C4.45253 18.019 4.45808 18.0681 4.48608 18.1056C4.51724 18.1469 4.55825 18.1616 4.60703 18.1355L4.61054 18.1358Z" fill="white"/>
<path d="M4.15268 16.5378L4.2982 16.8091L3.59492 17.1653L3.4494 16.8941L3.5803 16.828C3.4716 16.8168 3.37138 16.7579 3.3238 16.6699L3.61929 16.5205L3.66092 16.5975C3.71444 16.6966 3.77085 16.7336 3.86456 16.6844L4.15268 16.5378Z" fill="white"/>
<path d="M6.35425 9.88232H7.59013L8.29894 12.2128L8.98958 9.88232H10.2209V13.7646H9.21676V11.8289L8.7215 13.7646H7.8582L7.36294 11.8289V13.7646H6.35425V9.88232Z" fill="white"/>
<path d="M12.7131 13.7646C11.6455 13.7646 10.7744 12.9582 10.7744 11.8208C10.7744 10.6833 11.6455 9.88232 12.7131 9.88232C13.7806 9.88232 14.6411 10.6833 14.6411 11.8208C14.6411 12.9582 13.7753 13.7646 12.7131 13.7646ZM12.7131 12.6592C13.1858 12.6592 13.446 12.3228 13.446 11.8208C13.446 11.3188 13.1858 10.9771 12.7131 10.9771C12.2403 10.9771 11.9748 11.3081 11.9748 11.8208C11.9748 12.3334 12.2297 12.6592 12.7131 12.6592Z" fill="white"/>
<path d="M15.1943 9.88232H16.4302L17.139 12.2128L17.8297 9.88232H19.061V13.7646H18.0568V11.8289L17.5616 13.7646H16.6983L16.203 11.8289V13.7646H15.1943V9.88232Z" fill="white"/>
<path d="M2.82501 12.7061L3.01566 12.1908L3.53088 12.0002L3.01566 11.8095L2.82501 11.2943L2.63436 11.8095L2.11914 12.0002L2.63436 12.1908L2.82501 12.7061Z" fill="white"/>
<path d="M22.5894 12.7061L22.7801 12.1908L23.2953 12.0002L22.7801 11.8095L22.5894 11.2943L22.3988 11.8095L21.8835 12.0002L22.3988 12.1908L22.5894 12.7061Z" fill="white"/>
<defs>
<linearGradient id="paint0_linear_1_479523" x1="11.9968" y1="0.000488391" x2="11.9968" y2="24.0005" gradientUnits="userSpaceOnUse">
<stop stop-color="#46CD8C"/>
<stop offset="0.0001" stop-color="#46CD8C"/>
<stop offset="1" stop-color="#46CD8C" stop-opacity="0"/>
</linearGradient>
</defs>
</svg>
