<svg width="25" height="24" viewBox="0 0 25 24" fill="none" xmlns="http://www.w3.org/2000/svg">
<path d="M24.7067 12.0005C24.7067 18.6279 19.3343 24.0005 12.707 24.0005C6.07977 24.0005 0.707237 18.6279 0.707164 12.0005C0.707091 5.37307 6.0795 0.000488281 12.7068 0.000488281C19.3341 0.000488281 24.7066 5.37307 24.7067 12.0005Z" fill="url(#paint0_linear_1_479557)"/>
<path fill-rule="evenodd" clip-rule="evenodd" d="M12.707 23.6476C19.1394 23.6476 24.3538 18.433 24.3537 12.0005C24.3537 5.56799 19.1391 0.353423 12.7068 0.353423C6.27443 0.353423 1.06003 5.56799 1.0601 12.0005C1.06017 18.433 6.27469 23.6476 12.707 23.6476ZM12.707 24.0005C19.3343 24.0005 24.7067 18.6279 24.7067 12.0005C24.7066 5.37307 19.3341 0.000488281 12.7068 0.000488281C6.0795 0.000488281 0.707091 5.37307 0.707164 12.0005C0.707237 18.6279 6.07977 24.0005 12.707 24.0005Z" fill="white" fill-opacity="0.5" style="mix-blend-mode:overlay"/>
<path d="M3.55058 7.68397L3.85735 7.06551L4.07897 7.17078L3.90654 7.51544L4.03117 7.57552L4.15385 7.32882L4.36504 7.43024L4.24236 7.67693L4.5817 7.83856L4.44384 8.11223L3.54706 7.68383L3.55058 7.68397Z" fill="white"/>
<path d="M4.65456 6.15295C4.71433 6.06916 4.79685 6.03453 4.87759 6.04462L4.78833 5.9825L4.9675 5.7346L5.61648 6.18419L5.4373 6.43209L5.34804 6.36997C5.38406 6.44032 5.37713 6.52619 5.31722 6.61341C5.21259 6.76089 5.00326 6.7905 4.79384 6.64436C4.58442 6.49821 4.54302 6.2967 4.65104 6.15281L4.65456 6.15295ZM4.93743 6.22619C4.90016 6.2764 4.908 6.34563 4.9802 6.39329C5.0524 6.44095 5.11987 6.42984 5.15728 6.37619C5.19455 6.32598 5.18671 6.25675 5.11451 6.20909C5.04244 6.15798 4.97484 6.17253 4.93743 6.22619Z" fill="white"/>
<path d="M6.22464 4.9194C6.17033 4.86555 6.10692 4.86304 6.05909 4.91283C6.01138 4.95919 6.01245 5.02126 6.06677 5.0751L6.36218 5.36594L6.14196 5.5812L5.58175 5.0283L5.80197 4.81304L5.88689 4.89567C5.86889 4.8157 5.88667 4.72336 5.97109 4.64055C6.09957 4.5147 6.27162 4.5353 6.41777 4.67549L6.74379 4.99511L6.52358 5.21037L6.22464 4.9194Z" fill="white"/>
<path d="M7.09695 4.05132L7.01714 4.10674L6.86301 3.90076L6.94282 3.84535L6.82892 3.69265L7.083 3.51319L7.1969 3.66589L7.30219 3.5908L7.45632 3.79678L7.35103 3.87187L7.47834 4.04232C7.49838 4.07068 7.5229 4.0751 7.55556 4.05227L7.61721 4.00992L7.77473 4.21948L7.68028 4.2881C7.52783 4.39578 7.36836 4.41358 7.22439 4.21834L7.10047 4.05146L7.09695 4.05132Z" fill="white"/>
<path d="M8.334 2.98045C8.42763 2.93248 8.51555 2.93941 8.58423 2.98693L8.53508 2.89194L8.81217 2.75474L9.17278 3.4479L8.89568 3.5851L8.84653 3.49011C8.84339 3.56924 8.79812 3.64326 8.70449 3.69124C8.54257 3.77097 8.3441 3.70452 8.22588 3.48273C8.11132 3.25765 8.17194 3.06363 8.33386 2.9839L8.334 2.98045ZM8.55221 3.17174C8.49462 3.20048 8.47089 3.26501 8.5103 3.33894C8.54957 3.41631 8.61595 3.43272 8.67354 3.40399C8.73113 3.37526 8.75472 3.31417 8.71545 3.2368C8.67618 3.15943 8.6098 3.14301 8.55221 3.17174Z" fill="white"/>
<path d="M10.2661 3.0571C10.0483 3.12428 9.86755 3.05509 9.80283 2.90779L10.0886 2.81918C10.1116 2.86145 10.1536 2.87 10.2001 2.85462C10.2322 2.84555 10.2437 2.82189 10.2373 2.8044C10.2059 2.70667 9.84482 2.91635 9.75683 2.64407C9.7127 2.51137 9.78549 2.36608 9.99984 2.29876C10.2177 2.23159 10.3624 2.32003 10.431 2.45714L10.1667 2.53971C10.1469 2.50446 10.1087 2.48916 10.0587 2.50441C10.0301 2.51362 10.0154 2.53026 10.0215 2.55462C10.0531 2.64548 10.4212 2.43952 10.5121 2.7257C10.5563 2.8584 10.4661 2.99611 10.2661 3.0571Z" fill="white"/>
<path d="M11.7963 1.92872L12.1369 1.8802L11.7998 3.08672L11.4592 3.13525L11.5962 2.70304L11.1613 2.01727L11.5054 1.96888L11.7095 2.3388L11.7892 1.92844L11.7963 1.92872Z" fill="white"/>
<path d="M15.1899 2.86653C14.9661 2.81631 14.8164 2.67598 14.8532 2.46034L15.1785 2.53181C15.1686 2.60379 15.2031 2.62239 15.2345 2.63052C15.266 2.63866 15.2979 2.63304 15.3065 2.59547C15.3363 2.46571 14.8658 2.40915 14.9456 2.08838C14.9884 1.89711 15.1778 1.83569 15.3842 1.88178C15.6184 1.93586 15.7433 2.07865 15.7072 2.27709L15.3785 2.20204C15.3879 2.14382 15.3607 2.11862 15.3292 2.11049C15.3047 2.10607 15.2832 2.11555 15.2748 2.14968C15.2453 2.26912 15.7043 2.34935 15.6362 2.643C15.5976 2.81722 15.4313 2.91745 15.1936 2.86323L15.1899 2.86653Z" fill="white"/>
<path d="M16.6612 3.32425C16.4389 3.23618 16.3307 3.02858 16.4244 2.80141C16.5217 2.57094 16.7468 2.5006 16.9691 2.58867C17.1914 2.67674 17.2996 2.88435 17.2059 3.11151C17.1122 3.33868 16.8835 3.41232 16.6612 3.32425ZM16.7626 3.08016C16.8148 3.09946 16.8755 3.08119 16.9107 2.99299C16.9458 2.90823 16.9163 2.85192 16.8677 2.83276C16.8191 2.81361 16.7548 2.83174 16.7196 2.91993C16.6845 3.00469 16.714 3.061 16.7626 3.08016Z" fill="white"/>
<path d="M18.4652 3.33022C18.641 3.43368 18.7079 3.61552 18.6297 3.80884L18.3471 3.63912C18.3591 3.6017 18.3498 3.57031 18.3188 3.55185C18.2775 3.52609 18.2272 3.54822 18.1747 3.6254C18.1257 3.70616 18.1307 3.75805 18.1685 3.78367C18.203 3.80227 18.2316 3.79306 18.2607 3.7701L18.5433 3.93982C18.4032 4.09278 18.2047 4.11592 18.0324 4.0126C17.8291 3.89082 17.7671 3.67471 17.8988 3.46628C18.0307 3.25441 18.2547 3.2116 18.4578 3.33682L18.4652 3.33022Z" fill="white"/>
<path d="M19.8076 4.28985C19.9612 4.42 19.9995 4.61105 19.8901 4.78935L19.6375 4.57602C19.653 4.54217 19.6543 4.50777 19.6236 4.48243C19.5859 4.45337 19.5327 4.46159 19.4698 4.53491C19.407 4.60479 19.4049 4.65984 19.4424 4.69234C19.4731 4.71768 19.5051 4.71206 19.5375 4.69611L19.7901 4.90944C19.6226 5.04064 19.429 5.02952 19.2719 4.89924C19.0909 4.74733 19.0644 4.52573 19.2307 4.3359C19.3969 4.14951 19.6265 4.14139 19.8075 4.29329L19.8076 4.28985Z" fill="white"/>
<path d="M20.3479 5.9546C20.1962 5.77629 20.2051 5.55265 20.3983 5.3949C20.5915 5.23715 20.8197 5.26687 20.9714 5.44519C21.1231 5.6235 21.1179 5.84384 20.9246 6.00159C20.91 6.01479 20.8918 6.02786 20.8738 6.03748L20.5501 5.65937C20.4916 5.71219 20.4968 5.75719 20.5273 5.78941C20.5543 5.8215 20.586 5.82275 20.6109 5.81685L20.8233 6.06649C20.6719 6.14664 20.4757 6.1113 20.3441 5.96134L20.3479 5.9546ZM20.6593 5.5741L20.7808 5.71331C20.8245 5.68058 20.8158 5.632 20.7855 5.59633C20.7517 5.55709 20.7099 5.54509 20.6593 5.5741Z" fill="white"/>
<path d="M21.2181 7.13681L21.0556 6.87537L21.7347 6.47498L21.8973 6.73643L21.7708 6.81068C21.88 6.81501 21.9838 6.86736 22.0369 6.95217L21.7515 7.12005L21.7051 7.04584C21.6453 6.95043 21.5867 6.9171 21.4963 6.97209L21.2181 7.13681Z" fill="white"/>
<path d="M21.8146 17.117L21.4691 17.7147L21.2546 17.5955L21.4486 17.2625L21.3281 17.1946L21.1899 17.433L20.9856 17.3184L21.1238 17.08L20.7954 16.897L20.9505 16.6327L21.8181 17.1174L21.8146 17.117Z" fill="white"/>
<path d="M20.6115 18.5742C20.5465 18.654 20.462 18.6833 20.382 18.6681L20.4671 18.7358L20.2725 18.9718L19.6535 18.4817L19.8481 18.2458L19.9333 18.3134C19.9018 18.2409 19.9145 18.1523 19.9795 18.0725C20.0933 17.932 20.3041 17.9157 20.5038 18.0749C20.7035 18.2341 20.732 18.4379 20.615 18.5746L20.6115 18.5742ZM20.3339 18.4831C20.3743 18.4354 20.3709 18.3658 20.3018 18.3136C20.2332 18.258 20.1648 18.2682 20.124 18.3194C20.0836 18.3671 20.087 18.4367 20.1561 18.4889C20.2247 18.5445 20.2931 18.5343 20.3339 18.4831Z" fill="white"/>
<path d="M18.9697 19.7056C19.0204 19.7628 19.0835 19.7693 19.1345 19.7227C19.185 19.6795 19.1879 19.6174 19.1371 19.5603L18.8609 19.2512L19.0943 19.0504L19.6182 19.6379L19.3847 19.8386L19.3052 19.7508C19.3181 19.8317 19.2945 19.9228 19.2049 20C19.0687 20.1174 18.8983 20.0859 18.7614 19.9367L18.4564 19.5969L18.6899 19.3961L18.9697 19.7056Z" fill="white"/>
<path d="M18.0461 20.52L18.1293 20.4698L18.27 20.6852L18.1868 20.7354L18.2908 20.8951L18.0258 21.058L17.9218 20.8983L17.812 20.9665L17.6713 20.7512L17.7811 20.6829L17.665 20.5047C17.6468 20.4751 17.6226 20.4692 17.5885 20.4899L17.5243 20.5282L17.3805 20.309L17.4791 20.2466C17.6381 20.1488 17.7984 20.1412 17.9292 20.3487L18.0426 20.5197L18.0461 20.52Z" fill="white"/>
<path d="M16.7424 21.51C16.6459 21.5519 16.5586 21.5394 16.4931 21.4876L16.5361 21.5855L16.2508 21.7048L15.9351 20.9901L16.2204 20.8708L16.2634 20.9687C16.2716 20.89 16.3215 20.819 16.418 20.7771C16.5846 20.7078 16.7785 20.7868 16.8823 21.0156C16.9823 21.2476 16.9095 21.4373 16.7428 21.5066L16.7424 21.51ZM16.5368 21.3052C16.5961 21.2802 16.6236 21.2207 16.5893 21.141C16.5551 21.0613 16.4899 21.0407 16.4306 21.0657C16.3713 21.0907 16.3438 21.1502 16.3781 21.2299C16.4123 21.3096 16.4775 21.3302 16.5368 21.3052Z" fill="white"/>
<path d="M14.8209 21.3073C15.0426 21.2541 15.2185 21.3347 15.2737 21.4858L14.9829 21.556C14.9626 21.5124 14.9213 21.5012 14.8739 21.5136C14.8413 21.5206 14.8283 21.5434 14.8335 21.5613C14.8586 21.6608 15.2324 21.4746 15.3028 21.7519C15.3384 21.8872 15.2565 22.0275 15.0383 22.081C14.8166 22.1342 14.6778 22.0367 14.6181 21.8955L14.8871 21.83C14.9046 21.8664 14.9418 21.8841 14.9926 21.8721C15.0218 21.8647 15.0376 21.849 15.033 21.8243C15.0072 21.7316 14.6268 21.9137 14.5539 21.6258C14.5183 21.4905 14.617 21.3588 14.8205 21.3107L14.8209 21.3073Z" fill="white"/>
<path d="M13.2212 22.3391L12.8782 22.3659L13.2915 21.1833L13.6342 21.16L13.4698 21.5826L13.8602 22.2947L13.5137 22.321L13.3336 21.9388L13.2278 22.3433L13.2212 22.3391Z" fill="white"/>
<path d="M9.89194 21.1834C10.1121 21.2478 10.2525 21.3974 10.2021 21.6102L9.88201 21.5182C9.89649 21.447 9.8632 21.4262 9.83235 21.4161C9.80151 21.406 9.76924 21.4095 9.75832 21.4465C9.72027 21.5741 10.1862 21.6605 10.0862 21.9755C10.0312 22.1637 9.83828 22.2129 9.63531 22.1538C9.40464 22.0883 9.28947 21.9344 9.33814 21.7387L9.66135 21.8345C9.64829 21.892 9.67386 21.9189 9.70506 21.9256C9.72925 21.9316 9.75135 21.9235 9.76192 21.89C9.7989 21.7726 9.34595 21.6633 9.43262 21.3746C9.4823 21.2032 9.65426 21.1172 9.88843 21.183L9.89194 21.1834Z" fill="white"/>
<path d="M8.4556 20.6366C8.67184 20.7386 8.76659 20.9527 8.65862 21.1734C8.5468 21.3972 8.31772 21.4531 8.10148 21.351C7.88524 21.249 7.79049 21.0349 7.89845 20.8142C8.01028 20.5904 8.23936 20.5345 8.4556 20.6366ZM8.33884 20.8737C8.28802 20.8511 8.22628 20.8655 8.18549 20.9513C8.14504 21.0336 8.17092 21.0917 8.21823 21.1139C8.26905 21.1365 8.33079 21.1221 8.37159 21.0364C8.41203 20.954 8.38616 20.8959 8.33884 20.8737Z" fill="white"/>
<path d="M6.6474 20.5111C6.47852 20.3966 6.42336 20.2109 6.51375 20.0229L6.78493 20.2103C6.7705 20.2469 6.77782 20.2788 6.8076 20.2992C6.84719 20.3276 6.89877 20.3087 6.95604 20.235C7.01015 20.1575 7.00847 20.1054 6.97238 20.0775C6.93909 20.0567 6.90998 20.0641 6.87944 20.0851L6.60825 19.8977C6.75785 19.754 6.9539 19.7432 7.12278 19.8577C7.31793 19.9921 7.36603 20.2118 7.22127 20.4114C7.07616 20.6144 6.84992 20.6429 6.65512 20.505L6.6474 20.5111Z" fill="white"/>
<path d="M5.37714 19.4722C5.23214 19.3326 5.20574 19.1429 5.32662 18.9685L5.56513 19.1975C5.54755 19.2303 5.544 19.2645 5.57307 19.2918C5.60844 19.3266 5.66246 19.3184 5.72953 19.2526C5.79661 19.1869 5.80229 19.1321 5.77043 19.0976C5.74135 19.0704 5.70909 19.0739 5.6754 19.0912L5.43688 18.8622C5.6124 18.742 5.8049 18.7654 5.9534 18.9054C6.12432 19.0686 6.13664 19.2914 5.95859 19.4702C5.7809 19.6457 5.5512 19.6391 5.38064 19.4726L5.37714 19.4722Z" fill="white"/>
<path d="M4.94535 17.7759C5.08537 17.9636 5.06227 18.1862 4.85937 18.3313C4.65647 18.4764 4.43069 18.4322 4.29066 18.2446C4.14713 18.0566 4.16988 17.8374 4.37278 17.6923C4.38822 17.6801 4.40718 17.6682 4.42578 17.6597L4.72473 18.0577C4.78652 18.0087 4.78412 17.9635 4.75541 17.9328C4.73055 17.8991 4.699 17.8958 4.67374 17.9001L4.47771 17.6374C4.63386 17.5671 4.82738 17.6148 4.94921 17.7729L4.94535 17.7759ZM4.61029 18.1358L4.49792 17.9892C4.45229 18.019 4.45783 18.0681 4.48584 18.1056C4.51699 18.1469 4.55801 18.1616 4.60679 18.1355L4.61029 18.1358Z" fill="white"/>
<path d="M4.15219 16.5378L4.29771 16.8091L3.59443 17.1653L3.44891 16.8941L3.57981 16.828C3.47111 16.8168 3.37089 16.7579 3.32332 16.6699L3.6188 16.5205L3.66043 16.5975C3.71395 16.6966 3.77037 16.7336 3.86407 16.6844L4.15219 16.5378Z" fill="white"/>
<path d="M6.354 9.88232H7.58988L8.29869 12.2128L8.98933 9.88232H10.2207V13.7646H9.21652V11.8289L8.72126 13.7646H7.85796L7.3627 11.8289V13.7646H6.354V9.88232Z" fill="white"/>
<path d="M12.7128 13.7646C11.6452 13.7646 10.7742 12.9582 10.7742 11.8208C10.7742 10.6833 11.6452 9.88232 12.7128 9.88232C13.7804 9.88232 14.6408 10.6833 14.6408 11.8208C14.6408 12.9582 13.7751 13.7646 12.7128 13.7646ZM12.7128 12.6592C13.1855 12.6592 13.4458 12.3228 13.4458 11.8208C13.4458 11.3188 13.1855 10.9771 12.7128 10.9771C12.2401 10.9771 11.9745 11.3081 11.9745 11.8208C11.9745 12.3334 12.2295 12.6592 12.7128 12.6592Z" fill="white"/>
<path d="M15.1938 9.88232H16.4297L17.1385 12.2128L17.8292 9.88232H19.0605V13.7646H18.0564V11.8289L17.5611 13.7646H16.6978L16.2025 11.8289V13.7646H15.1938V9.88232Z" fill="white"/>
<path d="M2.82476 12.7061L3.01541 12.1908L3.53063 12.0002L3.01541 11.8095L2.82476 11.2943L2.63412 11.8095L2.1189 12.0002L2.63412 12.1908L2.82476 12.7061Z" fill="white"/>
<path d="M22.5889 12.7061L22.7796 12.1908L23.2948 12.0002L22.7796 11.8095L22.5889 11.2943L22.3983 11.8095L21.8831 12.0002L22.3983 12.1908L22.5889 12.7061Z" fill="white"/>
<defs>
<linearGradient id="paint0_linear_1_479557" x1="11.9963" y1="0.000488391" x2="11.9963" y2="24.0005" gradientUnits="userSpaceOnUse">
<stop stop-color="#FC5B5B"/>
<stop offset="0.0001" stop-color="#FC5B5B"/>
<stop offset="0.0002" stop-color="#FC5B5B" stop-opacity="0.974056"/>
<stop offset="0.0003" stop-color="#FC5B5B"/>
<stop offset="1" stop-color="#FC5B5B" stop-opacity="0"/>
</linearGradient>
</defs>
</svg>
