<svg width="25" height="24" viewBox="0 0 25 24" fill="none" xmlns="http://www.w3.org/2000/svg">
<path d="M24.7076 12.0005C24.7077 18.6279 19.3353 24.0005 12.708 24.0005C6.08074 24.0005 0.708214 18.6279 0.70814 12.0005C0.708067 5.37307 6.08048 0.000488281 12.7078 0.000488281C19.335 0.000488281 24.7076 5.37307 24.7076 12.0005Z" fill="url(#paint0_linear_1_479489)"/>
<path fill-rule="evenodd" clip-rule="evenodd" d="M12.708 23.6476C19.1404 23.6476 24.3548 18.433 24.3547 12.0005C24.3546 5.56799 19.1401 0.353423 12.7078 0.353423C6.27541 0.353423 1.061 5.56799 1.06107 12.0005C1.06115 18.433 6.27566 23.6476 12.708 23.6476ZM12.708 24.0005C19.3353 24.0005 24.7077 18.6279 24.7076 12.0005C24.7076 5.37307 19.335 0.000488281 12.7078 0.000488281C6.08048 0.000488281 0.708067 5.37307 0.70814 12.0005C0.708214 18.6279 6.08074 24.0005 12.708 24.0005Z" fill="white" fill-opacity="0.5" style="mix-blend-mode:overlay"/>
<path d="M3.55132 7.68397L3.85808 7.06551L4.0797 7.17078L3.90727 7.51544L4.0319 7.57552L4.15458 7.32882L4.36577 7.43024L4.24309 7.67693L4.58243 7.83856L4.44458 8.11223L3.54779 7.68383L3.55132 7.68397Z" fill="white"/>
<path d="M4.65554 6.15295C4.71531 6.06916 4.79782 6.03453 4.87857 6.04462L4.7893 5.9825L4.96848 5.7346L5.61746 6.18419L5.43828 6.43209L5.34901 6.36997C5.38503 6.44032 5.3781 6.52619 5.3182 6.61341C5.21356 6.76089 5.00423 6.7905 4.79482 6.64436C4.5854 6.49821 4.544 6.2967 4.65201 6.15281L4.65554 6.15295ZM4.9384 6.22619C4.90113 6.2764 4.90897 6.34563 4.98117 6.39329C5.05337 6.44095 5.12085 6.42984 5.15825 6.37619C5.19552 6.32598 5.18768 6.25675 5.11548 6.20909C5.04342 6.15798 4.97581 6.17253 4.9384 6.22619Z" fill="white"/>
<path d="M6.22562 4.9194C6.17131 4.86555 6.1079 4.86304 6.06006 4.91283C6.01236 4.95919 6.01343 5.02126 6.06774 5.0751L6.36315 5.36594L6.14294 5.5812L5.58273 5.0283L5.80294 4.81304L5.88787 4.89567C5.86987 4.8157 5.88764 4.72336 5.97207 4.64055C6.10054 4.5147 6.2726 4.5353 6.41875 4.67549L6.74477 4.99511L6.52455 5.21037L6.22562 4.9194Z" fill="white"/>
<path d="M7.09793 4.05132L7.01811 4.10674L6.86399 3.90076L6.9438 3.84535L6.8299 3.69265L7.08398 3.51319L7.19788 3.66589L7.30317 3.5908L7.45729 3.79678L7.352 3.87187L7.47931 4.04232C7.49936 4.07068 7.52388 4.0751 7.55653 4.05227L7.61819 4.00992L7.7757 4.21948L7.68125 4.2881C7.52881 4.39578 7.36934 4.41358 7.22537 4.21834L7.10145 4.05146L7.09793 4.05132Z" fill="white"/>
<path d="M8.33497 2.98045C8.4286 2.93248 8.51653 2.93941 8.58521 2.98693L8.53605 2.89194L8.81315 2.75474L9.17376 3.4479L8.89666 3.5851L8.8475 3.49011C8.84437 3.56924 8.7991 3.64326 8.70547 3.69124C8.54354 3.77097 8.34508 3.70452 8.22686 3.48273C8.1123 3.25765 8.17291 3.06363 8.33484 2.9839L8.33497 2.98045ZM8.55318 3.17174C8.4956 3.20048 8.47187 3.26501 8.51128 3.33894C8.55055 3.41631 8.61693 3.43272 8.67452 3.40399C8.7321 3.37526 8.75569 3.31417 8.71642 3.2368C8.67715 3.15943 8.61077 3.14301 8.55318 3.17174Z" fill="white"/>
<path d="M10.2671 3.0571C10.0492 3.12428 9.86853 3.05509 9.8038 2.90779L10.0896 2.81918C10.1126 2.86145 10.1546 2.87 10.2011 2.85462C10.2332 2.84555 10.2447 2.82189 10.2383 2.8044C10.2069 2.70667 9.8458 2.91635 9.75781 2.64407C9.71368 2.51137 9.78647 2.36608 10.0008 2.29876C10.2187 2.23159 10.3634 2.32003 10.432 2.45714L10.1677 2.53971C10.1479 2.50446 10.1097 2.48916 10.0597 2.50441C10.0311 2.51362 10.0163 2.53026 10.0224 2.55462C10.0541 2.64548 10.4221 2.43952 10.5131 2.7257C10.5572 2.8584 10.4671 2.99611 10.2671 3.0571Z" fill="white"/>
<path d="M11.7973 1.92872L12.1379 1.8802L11.8008 3.08672L11.4601 3.13525L11.5972 2.70304L11.1622 2.01727L11.5064 1.96888L11.7104 2.3388L11.7902 1.92844L11.7973 1.92872Z" fill="white"/>
<path d="M15.1909 2.86653C14.9671 2.81631 14.8174 2.67598 14.8542 2.46034L15.1795 2.53181C15.1695 2.60379 15.2041 2.62239 15.2355 2.63052C15.2669 2.63866 15.2989 2.63304 15.3075 2.59547C15.3373 2.46571 14.8668 2.40915 14.9465 2.08838C14.9894 1.89711 15.1788 1.83569 15.3852 1.88178C15.6194 1.93586 15.7443 2.07865 15.7082 2.27709L15.3795 2.20204C15.3889 2.14382 15.3616 2.11862 15.3302 2.11049C15.3057 2.10607 15.2842 2.11555 15.2757 2.14968C15.2463 2.26912 15.7053 2.34935 15.6372 2.643C15.5986 2.81722 15.4323 2.91745 15.1945 2.86323L15.1909 2.86653Z" fill="white"/>
<path d="M16.6619 3.32425C16.4396 3.23618 16.3314 3.02858 16.4251 2.80141C16.5225 2.57094 16.7475 2.5006 16.9698 2.58867C17.1921 2.67674 17.3003 2.88435 17.2066 3.11151C17.113 3.33868 16.8842 3.41232 16.6619 3.32425ZM16.7634 3.08016C16.8155 3.09946 16.8762 3.08119 16.9115 2.99299C16.9466 2.90823 16.9171 2.85192 16.8684 2.83276C16.8198 2.81361 16.7556 2.83174 16.7203 2.91993C16.6852 3.00469 16.7147 3.061 16.7634 3.08016Z" fill="white"/>
<path d="M18.4661 3.33022C18.642 3.43368 18.7089 3.61552 18.6306 3.80884L18.3481 3.63912C18.3601 3.6017 18.3508 3.57031 18.3198 3.55185C18.2784 3.52609 18.2282 3.54822 18.1757 3.6254C18.1267 3.70616 18.1317 3.75805 18.1695 3.78367C18.204 3.80227 18.2326 3.79306 18.2617 3.7701L18.5443 3.93982C18.4042 4.09278 18.2057 4.11592 18.0334 4.0126C17.83 3.89082 17.768 3.67471 17.8998 3.46628C18.0317 3.25441 18.2556 3.2116 18.4588 3.33682L18.4661 3.33022Z" fill="white"/>
<path d="M19.8086 4.28985C19.9622 4.42 20.0005 4.61105 19.8911 4.78935L19.6385 4.57602C19.6539 4.54217 19.6553 4.50777 19.6245 4.48243C19.5869 4.45337 19.5336 4.46159 19.4708 4.53491C19.408 4.60479 19.4058 4.65984 19.4434 4.69234C19.4741 4.71768 19.5061 4.71206 19.5385 4.69611L19.7911 4.90944C19.6236 5.04064 19.43 5.02952 19.2729 4.89924C19.0919 4.74733 19.0654 4.52573 19.2317 4.3359C19.3978 4.14951 19.6275 4.14139 19.8085 4.29329L19.8086 4.28985Z" fill="white"/>
<path d="M20.3489 5.9546C20.1972 5.77629 20.206 5.55265 20.3993 5.3949C20.5925 5.23715 20.8207 5.26687 20.9724 5.44519C21.124 5.6235 21.1188 5.84384 20.9256 6.00159C20.911 6.01479 20.8928 6.02786 20.8748 6.03748L20.5511 5.65937C20.4925 5.71219 20.4978 5.75719 20.5283 5.78941C20.5552 5.8215 20.5869 5.82275 20.6119 5.81685L20.8242 6.06649C20.6729 6.14664 20.4767 6.1113 20.3451 5.96134L20.3489 5.9546ZM20.6603 5.5741L20.7818 5.71331C20.8254 5.68058 20.8168 5.632 20.7864 5.59633C20.7527 5.55709 20.7108 5.54509 20.6603 5.5741Z" fill="white"/>
<path d="M21.2191 7.13681L21.0566 6.87537L21.7357 6.47498L21.8982 6.73643L21.7718 6.81068C21.881 6.81501 21.9848 6.86736 22.0379 6.95217L21.7525 7.12005L21.706 7.04584C21.6463 6.95043 21.5877 6.9171 21.4973 6.97209L21.2191 7.13681Z" fill="white"/>
<path d="M21.8156 17.117L21.47 17.7147L21.2556 17.5955L21.4496 17.2625L21.3291 17.1946L21.1909 17.433L20.9866 17.3184L21.1248 17.08L20.7964 16.897L20.9514 16.6327L21.8191 17.1174L21.8156 17.117Z" fill="white"/>
<path d="M20.6125 18.5742C20.5475 18.654 20.4629 18.6833 20.383 18.6681L20.4681 18.7358L20.2735 18.9718L19.6545 18.4817L19.8491 18.2458L19.9342 18.3134C19.9028 18.2409 19.9155 18.1523 19.9805 18.0725C20.0943 17.932 20.3051 17.9157 20.5048 18.0749C20.7045 18.2341 20.7329 18.4379 20.616 18.5746L20.6125 18.5742ZM20.3348 18.4831C20.3752 18.4354 20.3718 18.3658 20.3028 18.3136C20.2342 18.258 20.1658 18.2682 20.125 18.3194C20.0846 18.3671 20.088 18.4367 20.157 18.4889C20.2257 18.5445 20.2941 18.5343 20.3348 18.4831Z" fill="white"/>
<path d="M18.9704 19.7056C19.0212 19.7628 19.0843 19.7693 19.1352 19.7227C19.1858 19.6795 19.1886 19.6174 19.1379 19.5603L18.8616 19.2512L19.0951 19.0504L19.6189 19.6379L19.3854 19.8386L19.3059 19.7508C19.3188 19.8317 19.2952 19.9228 19.2057 20C19.0694 20.1174 18.899 20.0859 18.7621 19.9367L18.4571 19.5969L18.6906 19.3961L18.9704 19.7056Z" fill="white"/>
<path d="M18.0471 20.52L18.1303 20.4698L18.271 20.6852L18.1878 20.7354L18.2917 20.8951L18.0268 21.058L17.9228 20.8983L17.813 20.9665L17.6723 20.7512L17.7821 20.6829L17.6659 20.5047C17.6477 20.4751 17.6236 20.4692 17.5895 20.4899L17.5253 20.5282L17.3814 20.309L17.4801 20.2466C17.6391 20.1488 17.7993 20.1412 17.9302 20.3487L18.0436 20.5197L18.0471 20.52Z" fill="white"/>
<path d="M16.7432 21.51C16.6467 21.5519 16.5594 21.5394 16.4938 21.4876L16.5368 21.5855L16.2516 21.7048L15.9359 20.9901L16.2211 20.8708L16.2641 20.9687C16.2723 20.89 16.3222 20.819 16.4187 20.7771C16.5854 20.7078 16.7792 20.7868 16.8831 21.0156C16.983 21.2476 16.9102 21.4373 16.7435 21.5066L16.7432 21.51ZM16.5376 21.3052C16.5969 21.2802 16.6243 21.2207 16.5901 21.141C16.5558 21.0613 16.4906 21.0407 16.4313 21.0657C16.372 21.0907 16.3446 21.1502 16.3788 21.2299C16.4131 21.3096 16.4783 21.3302 16.5376 21.3052Z" fill="white"/>
<path d="M14.8218 21.3073C15.0436 21.2541 15.2195 21.3347 15.2747 21.4858L14.9839 21.556C14.9636 21.5124 14.9222 21.5012 14.8749 21.5136C14.8422 21.5206 14.8292 21.5434 14.8345 21.5613C14.8596 21.6608 15.2333 21.4746 15.3038 21.7519C15.3394 21.8872 15.2575 22.0275 15.0393 22.081C14.8176 22.1342 14.6788 22.0367 14.619 21.8955L14.8881 21.83C14.9056 21.8664 14.9428 21.8841 14.9936 21.8721C15.0227 21.8647 15.0385 21.849 15.034 21.8243C15.0082 21.7316 14.6278 21.9137 14.5549 21.6258C14.5193 21.4905 14.618 21.3588 14.8215 21.3107L14.8218 21.3073Z" fill="white"/>
<path d="M13.2222 22.3391L12.8791 22.3659L13.2925 21.1833L13.6351 21.16L13.4708 21.5826L13.8612 22.2947L13.5147 22.321L13.3346 21.9388L13.2288 22.3433L13.2222 22.3391Z" fill="white"/>
<path d="M9.89267 21.1834C10.1128 21.2478 10.2532 21.3974 10.2028 21.6102L9.88275 21.5182C9.89722 21.447 9.86393 21.4262 9.83309 21.4161C9.80224 21.406 9.76997 21.4095 9.75905 21.4465C9.721 21.5741 10.187 21.6605 10.0869 21.9755C10.032 22.1637 9.83902 22.2129 9.63604 22.1538C9.40538 22.0883 9.29021 21.9344 9.33887 21.7387L9.66208 21.8345C9.64903 21.892 9.67459 21.9189 9.70579 21.9256C9.72998 21.9316 9.75209 21.9235 9.76265 21.89C9.79964 21.7726 9.34669 21.6633 9.43335 21.3746C9.48303 21.2032 9.65499 21.1172 9.88917 21.183L9.89267 21.1834Z" fill="white"/>
<path d="M8.45633 20.6366C8.67257 20.7386 8.76732 20.9527 8.65935 21.1734C8.54753 21.3972 8.31845 21.4531 8.10221 21.351C7.88597 21.249 7.79122 21.0349 7.89918 20.8142C8.01101 20.5904 8.24009 20.5345 8.45633 20.6366ZM8.33958 20.8737C8.28876 20.8511 8.22701 20.8655 8.18622 20.9513C8.14578 21.0336 8.17165 21.0917 8.21896 21.1139C8.26978 21.1365 8.33152 21.1221 8.37232 21.0364C8.41276 20.954 8.38689 20.8959 8.33958 20.8737Z" fill="white"/>
<path d="M6.64837 20.5111C6.4795 20.3966 6.42434 20.2109 6.51472 20.0229L6.78591 20.2103C6.77148 20.2469 6.7788 20.2788 6.80858 20.2992C6.84817 20.3276 6.89975 20.3087 6.95701 20.235C7.01112 20.1575 7.00944 20.1054 6.97336 20.0775C6.94007 20.0567 6.91095 20.0641 6.88041 20.0851L6.60923 19.8977C6.75882 19.754 6.95488 19.7432 7.12376 19.8577C7.31891 19.9921 7.36701 20.2118 7.22225 20.4114C7.07713 20.6144 6.8509 20.6429 6.6561 20.505L6.64837 20.5111Z" fill="white"/>
<path d="M5.37811 19.4722C5.23312 19.3326 5.20672 19.1429 5.3276 18.9685L5.56611 19.1975C5.54853 19.2303 5.54498 19.2645 5.57405 19.2918C5.60942 19.3266 5.66344 19.3184 5.73051 19.2526C5.79758 19.1869 5.80327 19.1321 5.7714 19.0976C5.74233 19.0704 5.71006 19.0739 5.67637 19.0912L5.43786 18.8622C5.61337 18.742 5.80587 18.7654 5.95438 18.9054C6.12529 19.0686 6.13761 19.2914 5.95957 19.4702C5.78188 19.6457 5.55218 19.6391 5.38162 19.4726L5.37811 19.4722Z" fill="white"/>
<path d="M4.94632 17.7759C5.08635 17.9636 5.06325 18.1862 4.86035 18.3313C4.65745 18.4764 4.43166 18.4322 4.29164 18.2446C4.14811 18.0566 4.17085 17.8374 4.37375 17.6923C4.3892 17.6801 4.40815 17.6682 4.42675 17.6597L4.7257 18.0577C4.78749 18.0087 4.7851 17.9635 4.75638 17.9328C4.73153 17.8991 4.69997 17.8958 4.67472 17.9001L4.47868 17.6374C4.63484 17.5671 4.82836 17.6148 4.95019 17.7729L4.94632 17.7759ZM4.61127 18.1358L4.4989 17.9892C4.45327 18.019 4.45881 18.0681 4.48681 18.1056C4.51797 18.1469 4.55898 18.1616 4.60776 18.1355L4.61127 18.1358Z" fill="white"/>
<path d="M4.15317 16.5378L4.29869 16.8091L3.59541 17.1653L3.44989 16.8941L3.58079 16.828C3.47209 16.8168 3.37187 16.7579 3.32429 16.6699L3.61978 16.5205L3.66141 16.5975C3.71493 16.6966 3.77134 16.7336 3.86504 16.6844L4.15317 16.5378Z" fill="white"/>
<path d="M6.35498 9.88232H7.59086L8.29967 12.2128L8.99031 9.88232H10.2216V13.7646H9.21749V11.8289L8.72223 13.7646H7.85894L7.36368 11.8289V13.7646H6.35498V9.88232Z" fill="white"/>
<path d="M12.7138 13.7646C11.6462 13.7646 10.7751 12.9582 10.7751 11.8208C10.7751 10.6833 11.6462 9.88232 12.7138 9.88232C13.7814 9.88232 14.6418 10.6833 14.6418 11.8208C14.6418 12.9582 13.7761 13.7646 12.7138 13.7646ZM12.7138 12.6592C13.1865 12.6592 13.4468 12.3228 13.4468 11.8208C13.4468 11.3188 13.1865 10.9771 12.7138 10.9771C12.2411 10.9771 11.9755 11.3081 11.9755 11.8208C11.9755 12.3334 12.2305 12.6592 12.7138 12.6592Z" fill="white"/>
<path d="M15.1948 9.88232H16.4307L17.1395 12.2128L17.8302 9.88232H19.0615V13.7646H18.0573V11.8289L17.5621 13.7646H16.6988L16.2035 11.8289V13.7646H15.1948V9.88232Z" fill="white"/>
<path d="M2.82574 12.7061L3.01639 12.1908L3.53161 12.0002L3.01639 11.8095L2.82574 11.2943L2.63509 11.8095L2.11987 12.0002L2.63509 12.1908L2.82574 12.7061Z" fill="white"/>
<path d="M22.5899 12.7061L22.7805 12.1908L23.2958 12.0002L22.7805 11.8095L22.5899 11.2943L22.3993 11.8095L21.884 12.0002L22.3993 12.1908L22.5899 12.7061Z" fill="white"/>
<defs>
<linearGradient id="paint0_linear_1_479489" x1="11.9972" y1="0.000488391" x2="11.9972" y2="24.0005" gradientUnits="userSpaceOnUse">
<stop stop-color="#13CCCC"/>
<stop offset="0.0001" stop-color="#13CCCC"/>
<stop offset="1" stop-color="#13CCCC" stop-opacity="0"/>
</linearGradient>
</defs>
</svg>
