<svg width="25" height="24" viewBox="0 0 25 24" fill="none" xmlns="http://www.w3.org/2000/svg">
<path d="M6.35352 9.88232H7.58939L8.29821 12.2128L8.98884 9.88232H10.2202V13.7646H9.21603V11.8289L8.72077 13.7646H7.85747L7.36221 11.8289V13.7646H6.35352V9.88232Z" fill="white"/>
<path d="M12.7123 13.7646C11.6447 13.7646 10.7737 12.9582 10.7737 11.8208C10.7737 10.6833 11.6447 9.88232 12.7123 9.88232C13.7799 9.88232 14.6403 10.6833 14.6403 11.8208C14.6403 12.9582 13.7746 13.7646 12.7123 13.7646ZM12.7123 12.6592C13.185 12.6592 13.4453 12.3228 13.4453 11.8208C13.4453 11.3188 13.185 10.9771 12.7123 10.9771C12.2396 10.9771 11.974 11.3081 11.974 11.8208C11.974 12.3334 12.229 12.6592 12.7123 12.6592Z" fill="white"/>
<path d="M15.1934 9.88232H16.4292L17.1381 12.2128L17.8287 9.88232H19.06V13.7646H18.0559V11.8289L17.5606 13.7646H16.6973L16.2021 11.8289V13.7646H15.1934V9.88232Z" fill="white"/>
</svg>
