<svg width="16" height="16" viewBox="0 0 16 16" fill="none" xmlns="http://www.w3.org/2000/svg">
<path d="M7.39886 6.64647L1.80128 12.2706C1.65295 12.4179 1.53522 12.5932 1.45488 12.7862C1.37455 12.9792 1.33319 13.1863 1.33319 13.3953C1.33319 13.6044 1.37455 13.8114 1.45488 14.0045C1.53522 14.1975 1.65295 14.3727 1.80128 14.5201C2.10104 14.8182 2.50665 14.9856 2.92944 14.9856C3.35224 14.9856 3.75784 14.8182 4.0576 14.5201L9.67337 8.92099M12.4839 10.6595L14.4445 8.69884C14.5867 8.55666 14.6665 8.36386 14.6665 8.16282C14.6665 7.96178 14.5867 7.76897 14.4445 7.62679L8.69306 1.8753C8.55088 1.73317 8.35807 1.65332 8.15703 1.65332C7.95599 1.65332 7.76318 1.73317 7.621 1.8753L5.66037 3.83593C5.51824 3.97811 5.43839 4.17092 5.43839 4.37196C5.43839 4.573 5.51824 4.76581 5.66037 4.90799L11.4119 10.6595C11.554 10.8016 11.7468 10.8815 11.9479 10.8815C12.1489 10.8815 12.3417 10.8016 12.4839 10.6595Z" stroke="white" stroke-width="1.2" stroke-linecap="round" stroke-linejoin="round"/>
<path d="M9.33319 15H14.6665" stroke="white" stroke-width="1.2" stroke-linecap="round"/>
</svg>
