<svg width="16" height="16" viewBox="0 0 16 16" fill="none" xmlns="http://www.w3.org/2000/svg">
<path d="M8.28196 11.767L7.32469 12.6968C6.79069 13.2155 6.08066 13.5011 5.32542 13.5011C4.57017 13.5011 3.86014 13.2155 3.32615 12.6968C2.2238 11.6261 2.2238 9.88389 3.32615 8.813L5.22307 6.97051C6.32541 5.8998 8.11909 5.8998 9.22161 6.97051" stroke="white" stroke-width="1.2" stroke-miterlimit="10" stroke-linecap="round"/>
<path d="M7.71675 4.23361L8.67402 3.30365C9.77636 2.23277 11.57 2.23277 12.6726 3.30365C13.7749 4.37454 13.7749 6.11704 12.6726 7.1881L10.7756 9.0309C10.2244 9.56643 9.50047 9.8341 8.77637 9.8341C8.05228 9.8341 7.32836 9.56643 6.7771 9.0309" stroke="white" stroke-width="1.2" stroke-miterlimit="10" stroke-linecap="round"/>
</svg>
