<svg width="16" height="16" viewBox="0 0 16 16" fill="none" xmlns="http://www.w3.org/2000/svg">
<path d="M7.99988 14C11.3136 14 13.9999 11.3137 13.9999 8C13.9999 4.68629 11.3136 2 7.99988 2C4.68617 2 1.99988 4.68629 1.99988 8C1.99988 11.3137 4.68617 14 7.99988 14Z" stroke="white" stroke-width="1.2" stroke-linecap="round" stroke-linejoin="round"/>
<path d="M7.99988 14C9.10445 14 9.99988 11.3137 9.99988 8C9.99988 4.68629 9.10445 2 7.99988 2C6.89531 2 5.99988 4.68629 5.99988 8C5.99988 11.3137 6.89531 14 7.99988 14Z" stroke="white" stroke-width="1.2" stroke-linecap="round" stroke-linejoin="round"/>
<path d="M2.33333 6H13.3333M2 10H13.3333" stroke="white" stroke-width="1.2"/>
</svg>
