<svg width="16" height="16" viewBox="0 0 16 16" fill="none" xmlns="http://www.w3.org/2000/svg">
<circle cx="7.99961" cy="7.99961" r="5.8" stroke="#BDBDBD" stroke-width="1.2"/>
<path d="M8.45824 9.55355H7.37144C7.37428 9.29548 7.39417 9.07326 7.43111 8.88688C7.47089 8.69764 7.53766 8.52703 7.63142 8.37505C7.72802 8.22308 7.85588 8.07255 8.01499 7.92344C8.14854 7.80301 8.26503 7.68832 8.36447 7.57936C8.46392 7.4704 8.54205 7.35857 8.59888 7.24387C8.65571 7.12631 8.68412 6.99584 8.68412 6.85247C8.68412 6.68617 8.65855 6.54853 8.6074 6.43957C8.5591 6.32774 8.48523 6.24315 8.38578 6.18581C8.28918 6.12846 8.167 6.09979 8.01926 6.09979C7.89708 6.09979 7.78343 6.12703 7.6783 6.18151C7.57317 6.23312 7.48652 6.31341 7.41832 6.42237C7.35298 6.53133 7.31888 6.6747 7.31604 6.85247H6.08008C6.0886 6.45964 6.1781 6.13563 6.34858 5.88043C6.5219 5.62237 6.75346 5.43169 7.04327 5.30839C7.33309 5.18222 7.65841 5.11914 8.01926 5.11914C8.41704 5.11914 8.75799 5.18509 9.04212 5.31699C9.32625 5.44602 9.54361 5.6367 9.6942 5.88903C9.84478 6.1385 9.92008 6.44244 9.92008 6.80086C9.92008 7.05032 9.87178 7.27255 9.77517 7.46753C9.67857 7.65964 9.55213 7.83885 9.39586 8.00516C9.23959 8.17147 9.06769 8.34351 8.88017 8.52129C8.71821 8.66753 8.6074 8.82093 8.54774 8.98151C8.49091 9.14208 8.46108 9.33276 8.45824 9.55355ZM7.24359 10.8826C7.24359 10.6991 7.30609 10.5471 7.43111 10.4267C7.55613 10.3034 7.72376 10.2417 7.93402 10.2417C8.14143 10.2417 8.30765 10.3034 8.43266 10.4267C8.56052 10.5471 8.62445 10.6991 8.62445 10.8826C8.62445 11.0604 8.56052 11.2109 8.43266 11.3342C8.30765 11.4575 8.14143 11.5191 7.93402 11.5191C7.72376 11.5191 7.55613 11.4575 7.43111 11.3342C7.30609 11.2109 7.24359 11.0604 7.24359 10.8826Z" fill="#BDBDBD"/>
</svg>
