<svg width="16" height="16" viewBox="0 0 16 16" fill="none" xmlns="http://www.w3.org/2000/svg">
<path d="M8 10.2666C9.10457 10.2666 10 9.37117 10 8.2666C10 7.16203 9.10457 6.2666 8 6.2666C6.89543 6.2666 6 7.16203 6 8.2666C6 9.37117 6.89543 10.2666 8 10.2666Z" stroke="white" stroke-width="1.2" stroke-miterlimit="10" stroke-linecap="round" stroke-linejoin="round"/>
<path d="M1.33301 8.8529V7.67957C1.33301 6.98623 1.89967 6.4129 2.59967 6.4129C3.80634 6.4129 4.29967 5.55957 3.69301 4.5129C3.34634 3.9129 3.55301 3.1329 4.15967 2.78623L5.31301 2.12623C5.83967 1.8129 6.51967 1.99957 6.83301 2.52623L6.90634 2.6529C7.50634 3.69957 8.49301 3.69957 9.09967 2.6529L9.17301 2.52623C9.48634 1.99957 10.1663 1.8129 10.693 2.12623L11.8463 2.78623C12.453 3.1329 12.6597 3.9129 12.313 4.5129C11.7063 5.55957 12.1997 6.4129 13.4063 6.4129C14.0997 6.4129 14.673 6.97957 14.673 7.67957V8.8529C14.673 9.54623 14.1063 10.1196 13.4063 10.1196C12.1997 10.1196 11.7063 10.9729 12.313 12.0196C12.6597 12.6262 12.453 13.3996 11.8463 13.7462L10.693 14.4062C10.1663 14.7196 9.48634 14.5329 9.17301 14.0062L9.09967 13.8796C8.49967 12.8329 7.51301 12.8329 6.90634 13.8796L6.83301 14.0062C6.51967 14.5329 5.83967 14.7196 5.31301 14.4062L4.15967 13.7462C3.55301 13.3996 3.34634 12.6196 3.69301 12.0196C4.29967 10.9729 3.80634 10.1196 2.59967 10.1196C1.89967 10.1196 1.33301 9.54623 1.33301 8.8529Z" stroke="white" stroke-width="1.2" stroke-miterlimit="10" stroke-linecap="round" stroke-linejoin="round"/>
</svg>
