<svg width="86" height="86" viewBox="0 0 86 86" fill="none" xmlns="http://www.w3.org/2000/svg">
<path d="M10.6087 85.9957H75.4775C75.288 85.6147 75.2433 85.1061 75.1412 84.6187C75.056 84.1185 74.9134 83.5886 75.0624 83.0885C75.2178 82.5117 75.7648 82.0946 75.9074 81.5646C76.0011 80.343 75.8989 79.0596 75.8351 77.8274C75.569 76.7058 75.4647 75.5459 75.3434 74.3966C75.0241 72.8366 74.4557 71.2978 74.3514 69.6889C73.9789 67.9011 73.9449 66.0814 73.7086 64.2745C73.3191 61.263 72.4889 58.3133 71.0266 55.6316C70.3114 54.4526 69.3471 53.4204 68.3084 52.5201C67.1632 51.7114 65.7221 51.4304 64.5237 50.6834C59.9302 47.8826 54.0383 47.1654 50.3622 43.0003C49.7109 41.5595 49.9621 39.7058 50.3495 38.2181C51.0029 36.8262 51.3542 35.3003 51.8927 33.885C52.7143 32.2632 54.7046 31.3119 55.2388 29.5454C55.5517 28.0237 55.6646 26.402 55.2623 24.876C54.9706 23.914 54.5407 22.9903 54.4811 21.973C54.3363 20.3215 54.5726 18.6104 54.3129 16.9801C53.5764 14.075 52.0481 11.3083 49.6747 9.42262C46.469 7.44971 39.6874 5.25759 36.7435 8.49682C35.6877 9.24384 34.236 9.29492 33.2058 10.1313C31.4838 11.5658 30.4025 13.8856 30.5046 16.1501C30.5004 18.1847 30.5131 20.2172 30.5046 22.2476C30.5876 23.3841 29.8107 24.18 29.5297 25.2037C29.2935 27.0788 29.5063 29.1176 30.2705 30.8543C31.6285 32.9634 32.9163 33.1954 33.5123 36.0303C34.2424 37.6456 34.6192 39.3035 34.4659 41.0913C34.4553 41.9703 34.6192 43.0961 33.7124 43.5963C31.8541 44.2858 31.2773 46.3353 29.5766 47.0653C25.9303 48.7892 21.9988 49.9385 18.4568 51.8986C16.9668 53.1054 14.9382 53.7949 13.7973 55.3805C12.5478 57.4385 11.773 59.7903 11.1664 62.0973C10.9833 65.3046 11.1706 68.5396 11.0663 71.7469C11.0004 72.7855 10.5874 73.7432 10.5831 74.7946C10.6555 76.0588 10.2894 77.2591 10.1 78.4871C10.1255 80.9644 9.79344 83.6333 10.6151 85.9999L10.6087 85.9957Z" fill="url(#paint0_linear_1_470886)"/>
<path d="M10.6087 85.9957H75.4775C75.288 85.6147 75.2433 85.1061 75.1412 84.6187C75.056 84.1185 74.9134 83.5886 75.0624 83.0885C75.2178 82.5117 75.7648 82.0946 75.9074 81.5646C76.0011 80.343 75.8989 79.0596 75.8351 77.8274C75.569 76.7058 75.4647 75.5459 75.3434 74.3966C75.0241 72.8366 74.4557 71.2978 74.3514 69.6889C73.9789 67.9011 73.9449 66.0814 73.7086 64.2745C73.3191 61.263 72.4889 58.3133 71.0266 55.6316C70.3114 54.4526 69.3471 53.4204 68.3084 52.5201C67.1632 51.7114 65.7221 51.4304 64.5237 50.6834C59.9302 47.8826 54.0383 47.1654 50.3622 43.0003C49.7109 41.5595 49.9621 39.7058 50.3495 38.2181C51.0029 36.8262 51.3542 35.3003 51.8927 33.885C52.7143 32.2632 54.7046 31.3119 55.2388 29.5454C55.5517 28.0237 55.6646 26.402 55.2623 24.876C54.9706 23.914 54.5407 22.9903 54.4811 21.973C54.3363 20.3215 54.5726 18.6104 54.3129 16.9801C53.5764 14.075 52.0481 11.3083 49.6747 9.42262C46.469 7.44971 39.6874 5.25759 36.7435 8.49682C35.6877 9.24384 34.236 9.29492 33.2058 10.1313C31.4838 11.5658 30.4025 13.8856 30.5046 16.1501C30.5004 18.1847 30.5131 20.2172 30.5046 22.2476C30.5876 23.3841 29.8107 24.18 29.5297 25.2037C29.2935 27.0788 29.5063 29.1176 30.2705 30.8543C31.6285 32.9634 32.9163 33.1954 33.5123 36.0303C34.2424 37.6456 34.6192 39.3035 34.4659 41.0913C34.4553 41.9703 34.6192 43.0961 33.7124 43.5963C31.8541 44.2858 31.2773 46.3353 29.5766 47.0653C25.9303 48.7892 21.9988 49.9385 18.4568 51.8986C16.9668 53.1054 14.9382 53.7949 13.7973 55.3805C12.5478 57.4385 11.773 59.7903 11.1664 62.0973C10.9833 65.3046 11.1706 68.5396 11.0663 71.7469C11.0004 72.7855 10.5874 73.7432 10.5831 74.7946C10.6555 76.0588 10.2894 77.2591 10.1 78.4871C10.1255 80.9644 9.79344 83.6333 10.6151 85.9999L10.6087 85.9957Z" fill="url(#paint1_linear_1_470886)"/>
<path d="M10.6087 85.9957H75.4775C75.288 85.6147 75.2433 85.1061 75.1412 84.6187C75.056 84.1185 74.9134 83.5886 75.0624 83.0885C75.2178 82.5117 75.7648 82.0946 75.9074 81.5646C76.0011 80.343 75.8989 79.0596 75.8351 77.8274C75.569 76.7058 75.4647 75.5459 75.3434 74.3966C75.0241 72.8366 74.4557 71.2978 74.3514 69.6889C73.9789 67.9011 73.9449 66.0814 73.7086 64.2745C73.3191 61.263 72.4889 58.3133 71.0266 55.6316C70.3114 54.4526 69.3471 53.4204 68.3084 52.5201C67.1632 51.7114 65.7221 51.4304 64.5237 50.6834C59.9302 47.8826 54.0383 47.1654 50.3622 43.0003C49.7109 41.5595 49.9621 39.7058 50.3495 38.2181C51.0029 36.8262 51.3542 35.3003 51.8927 33.885C52.7143 32.2632 54.7046 31.3119 55.2388 29.5454C55.5517 28.0237 55.6646 26.402 55.2623 24.876C54.9706 23.914 54.5407 22.9903 54.4811 21.973C54.3363 20.3215 54.5726 18.6104 54.3129 16.9801C53.5764 14.075 52.0481 11.3083 49.6747 9.42262C46.469 7.44971 39.6874 5.25759 36.7435 8.49682C35.6877 9.24384 34.236 9.29492 33.2058 10.1313C31.4838 11.5658 30.4025 13.8856 30.5046 16.1501C30.5004 18.1847 30.5131 20.2172 30.5046 22.2476C30.5876 23.3841 29.8107 24.18 29.5297 25.2037C29.2935 27.0788 29.5063 29.1176 30.2705 30.8543C31.6285 32.9634 32.9163 33.1954 33.5123 36.0303C34.2424 37.6456 34.6192 39.3035 34.4659 41.0913C34.4553 41.9703 34.6192 43.0961 33.7124 43.5963C31.8541 44.2858 31.2773 46.3353 29.5766 47.0653C25.9303 48.7892 21.9988 49.9385 18.4568 51.8986C16.9668 53.1054 14.9382 53.7949 13.7973 55.3805C12.5478 57.4385 11.773 59.7903 11.1664 62.0973C10.9833 65.3046 11.1706 68.5396 11.0663 71.7469C11.0004 72.7855 10.5874 73.7432 10.5831 74.7946C10.6555 76.0588 10.2894 77.2591 10.1 78.4871C10.1255 80.9644 9.79344 83.6333 10.6151 85.9999L10.6087 85.9957Z" fill="url(#paint2_linear_1_470886)" fill-opacity="0.5"/>
<defs>
<linearGradient id="paint0_linear_1_470886" x1="42.2678" y1="78.6708" x2="42.2678" y2="6.8457" gradientUnits="userSpaceOnUse">
<stop stop-color="#262626"/>
<stop offset="1" stop-color="#484848"/>
</linearGradient>
<linearGradient id="paint1_linear_1_470886" x1="42.2678" y1="78.6708" x2="42.2678" y2="6.8457" gradientUnits="userSpaceOnUse">
<stop stop-color="#262626"/>
<stop offset="1" stop-color="#484848"/>
</linearGradient>
<linearGradient id="paint2_linear_1_470886" x1="43" y1="6.8457" x2="43" y2="85.9999" gradientUnits="userSpaceOnUse">
<stop stop-color="#999798"/>
<stop offset="1" stop-color="#929094"/>
</linearGradient>
</defs>
</svg>
