<svg width="120" height="188" viewBox="0 0 120 188" fill="none" xmlns="http://www.w3.org/2000/svg">
<path d="M112.53 4.57L66.83 0.32C64.56 0.11 62.28 0 60 0C57.72 0 55.44 0.11 53.17 0.32L7.47 4.57C3.28 4.81 0 8.22 0 12.35V158.89C0 170.15 8.6 179.6 19.97 180.86L53.84 187.41C55.87 187.8 57.94 188 60 188C62.06 188 64.13 187.8 66.16 187.41L100.03 180.86C111.4 179.6 120 170.15 120 158.89V12.35C120 8.22 116.72 4.81 112.53 4.57Z" fill="url(#paint0_linear_627_17764)" fill-opacity="0.8"/>
<path d="M112.53 4.57L66.83 0.32C64.56 0.11 62.28 0 60 0C57.72 0 55.44 0.11 53.17 0.32L7.47 4.57C3.28 4.81 0 8.22 0 12.35V158.89C0 170.15 8.6 179.6 19.97 180.86L53.84 187.41C55.87 187.8 57.94 188 60 188C62.06 188 64.13 187.8 66.16 187.41L100.03 180.86C111.4 179.6 120 170.15 120 158.89V12.35C120 8.22 116.72 4.81 112.53 4.57Z" fill="url(#paint1_linear_627_17764)" fill-opacity="0.8"/>
<path d="M112.53 4.57L66.83 0.32C64.56 0.11 62.28 0 60 0C57.72 0 55.44 0.11 53.17 0.32L7.47 4.57C3.28 4.81 0 8.22 0 12.35V158.89C0 170.15 8.6 179.6 19.97 180.86L53.84 187.41C55.87 187.8 57.94 188 60 188C62.06 188 64.13 187.8 66.16 187.41L100.03 180.86C111.4 179.6 120 170.15 120 158.89V12.35C120 8.22 116.72 4.81 112.53 4.57Z" fill="black" fill-opacity="0.7"/>
<defs>
<linearGradient id="paint0_linear_627_17764" x1="60" y1="94.3275" x2="60" y2="188" gradientUnits="userSpaceOnUse">
<stop stop-opacity="0"/>
<stop offset="1"/>
</linearGradient>
<linearGradient id="paint1_linear_627_17764" x1="60" y1="94.3275" x2="60" y2="188" gradientUnits="userSpaceOnUse">
<stop stop-opacity="0"/>
<stop offset="1"/>
</linearGradient>
</defs>
</svg>
