<svg width="120" height="188" viewBox="0 0 120 188" fill="none" xmlns="http://www.w3.org/2000/svg">
<mask id="mask0_1_470561" style="mask-type:alpha" maskUnits="userSpaceOnUse" x="0" y="0" width="120" height="188">
<path d="M118.59 10.2182L118.05 10.0472L83.24 3.24849C82.73 3.14792 82.2 3.25855 81.75 3.53009C75.31 7.3619 67.04 6.31595 61.74 0.905152L61.44 0.593377C61.04 0.201145 60.53 0 60.01 0C59.49 0 58.98 0.201145 58.58 0.603434L58.28 0.915209C52.98 6.326 44.71 7.37196 38.27 3.54015C37.82 3.2686 37.29 3.15797 36.78 3.25855L1.96 10.0472L1.42 10.2182C0.58 10.4796 0 11.2641 0 12.1491V169.937C0 172.834 1.84 175.408 4.59 176.344L20.72 179.793L60 188L99.28 179.793L115.41 176.344C118.16 175.408 120 172.834 120 169.937V12.1491C120 11.2641 119.43 10.4796 118.58 10.2182H118.59Z" fill="#D9D9D9"/>
</mask>
<g mask="url(#mask0_1_470561)">
<rect width="120" height="188" rx="8" fill="url(#paint0_linear_1_470561)" fill-opacity="0.8"/>
<rect width="120" height="188" rx="8" fill="url(#paint1_linear_1_470561)" fill-opacity="0.8"/>
<rect width="120" height="188" rx="8" fill="black" fill-opacity="0.7"/>
</g>
<defs>
<linearGradient id="paint0_linear_1_470561" x1="60" y1="94.3275" x2="60" y2="188" gradientUnits="userSpaceOnUse">
<stop stop-opacity="0"/>
<stop offset="1"/>
</linearGradient>
<linearGradient id="paint1_linear_1_470561" x1="60" y1="94.3275" x2="60" y2="188" gradientUnits="userSpaceOnUse">
<stop stop-opacity="0"/>
<stop offset="1"/>
</linearGradient>
</defs>
</svg>
