<svg width="16" height="16" viewBox="0 0 16 16" fill="none" xmlns="http://www.w3.org/2000/svg">
<circle cx="7.66667" cy="8.33268" r="7.66667" fill="#937200"/>
<circle cx="7.66667" cy="7.66667" r="7.66667" fill="url(#paint0_linear_1_478597)"/>
<circle cx="7.66661" cy="7.66667" r="5.66667" fill="url(#paint1_linear_1_478597)"/>
<path d="M7.06286 3.9516C7.30281 3.44043 8.02987 3.44043 8.26982 3.9516L8.85435 5.19679C8.94873 5.39784 9.13703 5.53869 9.35656 5.57243L10.7182 5.7817C11.2543 5.86411 11.4728 6.51824 11.0939 6.90637L10.0682 7.95689C9.92028 8.10835 9.85312 8.32104 9.8872 8.52995L10.1233 9.97747C10.2129 10.5268 9.62973 10.9375 9.14269 10.6682C8.77546 10.4651 8.41859 10.2678 7.98922 10.0303C7.78847 9.91932 7.54448 9.91917 7.34373 10.0302L6.18997 10.6682C5.70293 10.9375 5.11979 10.5268 5.20939 9.97747L5.44549 8.52995C5.47956 8.32104 5.4124 8.10835 5.26452 7.95689L4.2388 6.90637C3.85984 6.51824 4.07837 5.86411 4.61453 5.7817L5.97613 5.57243C6.19565 5.53869 6.38396 5.39784 6.47834 5.19679L7.06286 3.9516Z" fill="white"/>
<defs>
<linearGradient id="paint0_linear_1_478597" x1="-3.83651e-07" y1="1.33333" x2="13.6667" y2="15.3333" gradientUnits="userSpaceOnUse">
<stop stop-color="#FFF7B0"/>
<stop offset="1" stop-color="#FFD600"/>
</linearGradient>
<linearGradient id="paint1_linear_1_478597" x1="1.1052" y1="2.89474" x2="14.5263" y2="14.5263" gradientUnits="userSpaceOnUse">
<stop stop-color="#FFD80E"/>
<stop offset="1" stop-color="#CB9E00"/>
</linearGradient>
</defs>
</svg>
