<svg width="16" height="17" viewBox="0 0 16 17" fill="none" xmlns="http://www.w3.org/2000/svg">
<path d="M0 3.95605C0 2.85149 0.895431 1.95605 2 1.95605H14C15.1046 1.95605 16 2.85149 16 3.95605V5.95605H0V3.95605Z" fill="url(#paint0_linear_1_478759)"/>
<g filter="url(#filter0_d_1_478759)">
<path d="M16 13.9561C16 15.0606 15.1046 15.9561 14 15.9561L2 15.9561C0.895431 15.9561 7.8281e-08 15.0606 1.74846e-07 13.9561L8.74228e-07 5.95605L16 5.95606L16 13.9561Z" fill="url(#paint1_linear_1_478759)"/>
</g>
<path d="M9.08917 10.4549C8.58784 10.1882 8.33717 9.76953 8.33717 9.19886C8.33717 8.91086 8.41184 8.64953 8.56117 8.41486C8.7105 8.17486 8.93717 7.98553 9.24117 7.84686C9.54517 7.70286 9.91851 7.63086 10.3612 7.63086C10.8038 7.63086 11.1745 7.70286 11.4732 7.84686C11.7772 7.98553 12.0038 8.17486 12.1532 8.41486C12.3025 8.64953 12.3772 8.91086 12.3772 9.19886C12.3772 9.48686 12.3078 9.73753 12.1692 9.95086C12.0358 10.1642 11.8545 10.3322 11.6252 10.4549C11.9132 10.5935 12.1345 10.7855 12.2892 11.0309C12.4438 11.2709 12.5212 11.5535 12.5212 11.8789C12.5212 12.2575 12.4252 12.5855 12.2332 12.8629C12.0412 13.1349 11.7798 13.3429 11.4492 13.4869C11.1238 13.6309 10.7612 13.7029 10.3612 13.7029C9.96117 13.7029 9.59584 13.6309 9.26517 13.4869C8.93984 13.3429 8.68117 13.1349 8.48917 12.8629C8.29717 12.5855 8.20117 12.2575 8.20117 11.8789C8.20117 11.5482 8.27851 11.2629 8.43317 11.0229C8.58784 10.7775 8.80651 10.5882 9.08917 10.4549ZM11.0492 9.40686C11.0492 9.18819 10.9852 9.02019 10.8572 8.90286C10.7345 8.78019 10.5692 8.71886 10.3612 8.71886C10.1532 8.71886 9.98517 8.78019 9.85717 8.90286C9.73451 9.02553 9.67317 9.19619 9.67317 9.41486C9.67317 9.62286 9.73717 9.78819 9.86517 9.91086C9.99317 10.0282 10.1585 10.0869 10.3612 10.0869C10.5638 10.0869 10.7292 10.0255 10.8572 9.90286C10.9852 9.78019 11.0492 9.61486 11.0492 9.40686ZM10.3612 11.0469C10.1105 11.0469 9.90784 11.1162 9.75317 11.2549C9.59851 11.3882 9.52117 11.5749 9.52117 11.8149C9.52117 12.0389 9.59584 12.2229 9.74517 12.3669C9.89984 12.5109 10.1052 12.5829 10.3612 12.5829C10.6172 12.5829 10.8172 12.5109 10.9612 12.3669C11.1105 12.2229 11.1852 12.0389 11.1852 11.8149C11.1852 11.5802 11.1078 11.3935 10.9532 11.2549C10.8038 11.1162 10.6065 11.0469 10.3612 11.0469Z" fill="#222222"/>
<path d="M3.51112 12.495C3.69245 12.351 3.77512 12.2844 3.75912 12.295C4.28178 11.863 4.69245 11.5084 4.99112 11.231C5.29512 10.9537 5.55112 10.663 5.75912 10.359C5.96712 10.055 6.07112 9.75905 6.07112 9.47105C6.07112 9.25238 6.02045 9.08171 5.91912 8.95905C5.81778 8.83638 5.66578 8.77505 5.46312 8.77505C5.26045 8.77505 5.10045 8.85238 4.98312 9.00705C4.87112 9.15638 4.81512 9.36971 4.81512 9.64705H3.49512C3.50578 9.19371 3.60178 8.81505 3.78312 8.51105C3.96978 8.20705 4.21245 7.98305 4.51112 7.83905C4.81512 7.69505 5.15112 7.62305 5.51912 7.62305C6.15378 7.62305 6.63112 7.78571 6.95112 8.11105C7.27645 8.43638 7.43912 8.86038 7.43912 9.38305C7.43912 9.95371 7.24445 10.4844 6.85512 10.975C6.46578 11.4604 5.96978 11.935 5.36712 12.399H7.52712V13.511H3.51112V12.495Z" fill="#222222"/>
<path d="M4.5 1.45605L4.5 3.95605" stroke="url(#paint2_linear_1_478759)" stroke-linecap="round"/>
<path d="M11.5 1.45605L11.5 3.95605" stroke="url(#paint3_linear_1_478759)" stroke-linecap="round"/>
<defs>
<filter id="filter0_d_1_478759" x="0" y="5.95605" width="16" height="11" filterUnits="userSpaceOnUse" color-interpolation-filters="sRGB">
<feFlood flood-opacity="0" result="BackgroundImageFix"/>
<feColorMatrix in="SourceAlpha" type="matrix" values="0 0 0 0 0 0 0 0 0 0 0 0 0 0 0 0 0 0 127 0" result="hardAlpha"/>
<feOffset dy="1"/>
<feComposite in2="hardAlpha" operator="out"/>
<feColorMatrix type="matrix" values="0 0 0 0 0.688477 0 0 0 0 0.688477 0 0 0 0 0.688477 0 0 0 1 0"/>
<feBlend mode="normal" in2="BackgroundImageFix" result="effect1_dropShadow_1_478759"/>
<feBlend mode="normal" in="SourceGraphic" in2="effect1_dropShadow_1_478759" result="shape"/>
</filter>
<linearGradient id="paint0_linear_1_478759" x1="7.5" y1="1.95606" x2="14.9262" y2="7.41647" gradientUnits="userSpaceOnUse">
<stop stop-color="#FF4A4A"/>
<stop offset="1" stop-color="#F97967"/>
</linearGradient>
<linearGradient id="paint1_linear_1_478759" x1="8" y1="15.9561" x2="8" y2="5.95605" gradientUnits="userSpaceOnUse">
<stop stop-color="white"/>
<stop offset="1" stop-color="#EEEEEE"/>
</linearGradient>
<linearGradient id="paint2_linear_1_478759" x1="4.5" y1="0.956055" x2="4.5" y2="4.45605" gradientUnits="userSpaceOnUse">
<stop stop-color="white"/>
<stop offset="1" stop-color="#E5E5E5"/>
</linearGradient>
<linearGradient id="paint3_linear_1_478759" x1="11.5" y1="0.956055" x2="11.5" y2="4.45605" gradientUnits="userSpaceOnUse">
<stop stop-color="white"/>
<stop offset="1" stop-color="#E5E5E5"/>
</linearGradient>
</defs>
</svg>
