<svg width="16" height="16" viewBox="0 0 16 16" fill="none" xmlns="http://www.w3.org/2000/svg">
<circle cx="7.66667" cy="8.33366" r="7.66667" fill="#6228B8"/>
<circle cx="7.66667" cy="7.66667" r="7.66667" fill="url(#paint0_linear_1_478607)"/>
<g opacity="0.44">
<circle cx="7.66667" cy="7.66667" r="5.66667" fill="#5C05DC"/>
<circle cx="7.66667" cy="7.66667" r="5.66667" fill="url(#paint1_linear_1_478607)" style="mix-blend-mode:multiply"/>
</g>
<path d="M8.04999 8.71932H6.8615C6.53604 8.71932 6.27221 8.45549 6.27221 8.13004C6.27221 7.80458 6.53604 7.54075 6.8615 7.54075H8.04999C8.32472 7.54075 8.54834 7.49374 8.72085 7.39973C8.89336 7.30235 9.01954 7.16804 9.09941 6.99679C9.17927 6.82555 9.2192 6.63248 9.2192 6.41758C9.2192 6.19933 9.17927 5.99618 9.09941 5.80815C9.01954 5.62012 8.89336 5.46902 8.72085 5.35485C8.54834 5.24069 8.32472 5.18361 8.04999 5.18361H7.65945C7.16853 5.18361 6.77056 5.58158 6.77056 6.0725V10.6146C6.77056 11.0115 6.44876 11.3333 6.05179 11.3333C5.65482 11.3333 5.33301 11.0115 5.33301 10.6146V4.88889C5.33301 4.39797 5.73098 4 6.2219 4H8.04999C8.59626 4 9.06426 4.10409 9.454 4.31227C9.84693 4.51709 10.1472 4.80082 10.3549 5.16346C10.5625 5.5261 10.6663 5.94078 10.6663 6.40751C10.6663 6.88095 10.5625 7.2906 10.3549 7.63645C10.1472 7.9823 9.84693 8.24924 9.454 8.43727C9.06426 8.62531 8.59626 8.71932 8.04999 8.71932Z" fill="white" stroke="white" stroke-width="0.444444"/>
<defs>
<linearGradient id="paint0_linear_1_478607" x1="0" y1="0" x2="9.92059" y2="18.2721" gradientUnits="userSpaceOnUse">
<stop stop-color="#C48CFC"/>
<stop offset="1" stop-color="#9052F4"/>
</linearGradient>
<linearGradient id="paint1_linear_1_478607" x1="7.66667" y1="2" x2="7.66667" y2="13.3333" gradientUnits="userSpaceOnUse">
<stop stop-color="#EBF6FF"/>
<stop offset="1" stop-color="#01BC84"/>
</linearGradient>
</defs>
</svg>
