<svg width="16" height="16" viewBox="0 0 16 16" fill="none" xmlns="http://www.w3.org/2000/svg">
<path fill-rule="evenodd" clip-rule="evenodd" d="M8.88934 2.15744C8.78135 2.08211 8.65001 2.03793 8.50835 2.03793H7.49182C7.35039 2.03793 7.21926 2.08196 7.11137 2.15707L4.99664 1.41094C4.07282 1.08499 3.12468 1.83323 3.22696 2.80751L3.41315 4.58121C3.50454 5.45185 4.39592 5.99967 5.21396 5.68795L7.54135 4.8011C7.72335 4.73175 7.87629 4.63271 8.00028 4.51341C8.12434 4.63285 8.27739 4.732 8.45954 4.80141L10.7869 5.68826C11.605 5.99998 12.4963 5.45215 12.5877 4.58152L12.7739 2.80781C12.8762 1.83353 11.9281 1.0853 11.0043 1.41125L8.88934 2.15744Z" fill="url(#paint0_linear_1_478639)"/>
<rect x="0.666992" y="3.25977" width="14.6667" height="3.33333" rx="1.33333" fill="white"/>
<path d="M2 6.59277H14V12.5928C14 13.6973 13.1046 14.5928 12 14.5928H4C2.89543 14.5928 2 13.6973 2 12.5928V6.59277Z" fill="url(#paint1_linear_1_478639)"/>
<rect x="6.66699" y="3.25977" width="2.66667" height="11.3333" fill="url(#paint2_linear_1_478639)"/>
<path d="M2 6.59277H14V12.5928C14 13.6973 13.1046 14.5928 12 14.5928H4C2.89543 14.5928 2 13.6973 2 12.5928V6.59277Z" fill="black" fill-opacity="0.08"/>
<defs>
<linearGradient id="paint0_linear_1_478639" x1="3.21936" y1="1.29872" x2="13.4068" y2="3.571" gradientUnits="userSpaceOnUse">
<stop stop-color="#FAB83C"/>
<stop offset="1" stop-color="#FF7377"/>
</linearGradient>
<linearGradient id="paint1_linear_1_478639" x1="1.4" y1="6.02134" x2="14.4328" y2="16.0566" gradientUnits="userSpaceOnUse">
<stop stop-color="white"/>
<stop offset="1" stop-color="#DEDEDE"/>
</linearGradient>
<linearGradient id="paint2_linear_1_478639" x1="7.33366" y1="2.96152" x2="12.0069" y2="4.64162" gradientUnits="userSpaceOnUse">
<stop stop-color="#FFC559"/>
<stop offset="1" stop-color="#FF7377"/>
</linearGradient>
</defs>
</svg>
