<svg width="16" height="16" viewBox="0 0 16 16" fill="none" xmlns="http://www.w3.org/2000/svg">
<mask id="path-1-inside-1_1_478797" fill="white">
<path d="M12 6.00033V4.40033C12 3.41018 11.5786 2.4606 10.8284 1.76046C10.0783 1.06032 9.06087 0.666992 8 0.666992C6.93913 0.666992 5.92172 1.06032 5.17157 1.76046C4.42143 2.4606 4 3.41018 4 4.40033V6.00033"/>
</mask>
<path d="M10 6.00033C10 7.1049 10.8954 8.00033 12 8.00033C13.1046 8.00033 14 7.1049 14 6.00033H10ZM12 4.40033H10H12ZM4 4.40033H2H4ZM2 6.00033C2 7.1049 2.89543 8.00033 4 8.00033C5.10457 8.00033 6 7.1049 6 6.00033H2ZM14 6.00033V4.40033H10V6.00033H14ZM14 4.40033C14 2.83348 13.3319 1.36122 12.1931 0.29835L9.46379 3.22257C9.82529 3.55997 10 3.98689 10 4.40033H14ZM12.1931 0.29835C11.0589 -0.760168 9.54848 -1.33301 8 -1.33301V2.66699C8.57325 2.66699 9.09763 2.88082 9.46379 3.22257L12.1931 0.29835ZM8 -1.33301C6.45152 -1.33301 4.94106 -0.760168 3.80694 0.29835L6.53621 3.22257C6.90237 2.88082 7.42675 2.66699 8 2.66699V-1.33301ZM3.80694 0.29835C2.66815 1.36122 2 2.83348 2 4.40033H6C6 3.98689 6.17471 3.55997 6.53621 3.22257L3.80694 0.29835ZM2 4.40033V6.00033H6V4.40033H2Z" fill="#C8C8C8" mask="url(#path-1-inside-1_1_478797)"/>
<path fill-rule="evenodd" clip-rule="evenodd" d="M3.2 4.66699H12.8C13.4627 4.66699 14 5.22664 14 5.91699V13.417C14 14.1073 13.4627 14.667 12.8 14.667H3.2C2.53726 14.667 2 14.1073 2 13.417V5.91699C2 5.22664 2.53726 4.66699 3.2 4.66699ZM9.33366 8.62691C9.33366 9.22937 8.90873 9.73558 8.33366 9.87911V11.778H7.66699V9.87911C7.09192 9.73558 6.66699 9.22937 6.66699 8.62691C6.66699 7.91285 7.26395 7.33398 8.00033 7.33398C8.73671 7.33398 9.33366 7.91285 9.33366 8.62691Z" fill="url(#paint0_linear_1_478797)"/>
<defs>
<linearGradient id="paint0_linear_1_478797" x1="2" y1="9.66699" x2="14" y2="9.66699" gradientUnits="userSpaceOnUse">
<stop stop-color="#BBBBBB"/>
<stop offset="1" stop-color="#828282"/>
</linearGradient>
</defs>
</svg>
