<svg width="16" height="16" viewBox="0 0 16 16" fill="none" xmlns="http://www.w3.org/2000/svg">
<g clip-path="url(#clip0_1_478858)">
<path d="M8.00005 3.37145L13.412 3.3712C14.6251 3.37114 15.6085 4.3545 15.6085 5.56756V10.4956C15.6085 11.2946 15.1746 12.0306 14.4754 12.4174L9.06336 15.4119C8.40173 15.7779 7.59833 15.7779 6.9367 15.4119L1.52464 12.4174C0.825512 12.0306 0.391602 11.2946 0.391602 10.4956V5.56756C0.391602 4.3545 1.37501 3.37114 2.58807 3.3712L8.00005 3.37145Z" fill="#BB4333"/>
<path d="M8.00005 0L13.4123 0.000402274C14.6252 0.00049243 15.6085 0.983812 15.6085 2.19677V9.7628C15.6085 10.5618 15.1745 11.2978 14.4754 11.6846L9.06336 14.6791C8.40173 15.0451 7.59833 15.0451 6.9367 14.6791L1.52464 11.6846C0.825512 11.2978 0.391602 10.5618 0.391602 9.7628V2.19677C0.391602 0.983814 1.37485 0.00049243 2.5878 0.000402275L8.00005 0Z" fill="url(#paint0_linear_1_478858)"/>
<path d="M8.00063 1.23145L13.7672 1.23175C14.2924 1.23178 14.7182 1.65757 14.7182 2.1828V9.80561C14.7182 10.1537 14.528 10.474 14.2224 10.6406L8.45575 13.785C8.17194 13.9398 7.82896 13.9398 7.54515 13.785L1.77847 10.6406C1.47287 10.474 1.28271 10.1537 1.28271 9.80561V2.1828C1.28271 1.65757 1.70849 1.23178 2.23372 1.23175L8.00063 1.23145Z" fill="#F99B64"/>
<path d="M8.00063 1.23145L13.7672 1.23175C14.2924 1.23178 14.7182 1.65757 14.7182 2.1828V9.80561C14.7182 10.1537 14.528 10.474 14.2224 10.6406L8.45575 13.785C8.17194 13.9398 7.82896 13.9398 7.54515 13.785L1.77847 10.6406C1.47287 10.474 1.28271 10.1537 1.28271 9.80561V2.1828C1.28271 1.65757 1.70849 1.23178 2.23372 1.23175L8.00063 1.23145Z" fill="url(#paint1_linear_1_478858)"/>
<path d="M8.8421 3.84375L10.0273 7.86723H10.0741L11.2593 3.84375H12.9358L11.0644 9.48909H9.04483L7.16565 3.84375H8.8421Z" fill="white"/>
<path d="M3.60986 9.48909V3.84375H5.09138V8.28829H7.39162V9.48909H3.60986Z" fill="white"/>
</g>
<defs>
<linearGradient id="paint0_linear_1_478858" x1="2.78369" y1="0.00758252" x2="13.7437" y2="13.6225" gradientUnits="userSpaceOnUse">
<stop stop-color="#FFC089"/>
<stop offset="1" stop-color="#FF784E"/>
</linearGradient>
<linearGradient id="paint1_linear_1_478858" x1="4.12214" y1="1.35369" x2="12.7439" y2="12.544" gradientUnits="userSpaceOnUse">
<stop stop-color="#FF9F4E"/>
<stop offset="1" stop-color="#FF5A5C"/>
</linearGradient>
<clipPath id="clip0_1_478858">
<rect width="16" height="16" fill="white"/>
</clipPath>
</defs>
</svg>
