<svg width="16" height="16" viewBox="0 0 16 16" fill="none" xmlns="http://www.w3.org/2000/svg">
<path d="M5.43653 9.13957L3.13837 14.628C3.07482 14.7798 3.20561 14.9413 3.36727 14.9107L5.15326 14.5726C5.22056 14.5598 5.2898 14.5813 5.3381 14.6299L6.47032 15.7684C6.57733 15.876 6.75997 15.8353 6.81116 15.6924L8.76151 10.2498C8.80075 10.1403 8.74183 10.02 8.63125 9.98387L5.69117 9.02304C5.58889 8.98962 5.47809 9.04032 5.43653 9.13957Z" fill="#FF6868"/>
<path d="M5.43653 9.13957L3.13837 14.628C3.07482 14.7798 3.20561 14.9413 3.36727 14.9107L5.15326 14.5726C5.22056 14.5598 5.2898 14.5813 5.3381 14.6299L6.47032 15.7684C6.57733 15.876 6.75997 15.8353 6.81116 15.6924L8.76151 10.2498C8.80075 10.1403 8.74183 10.02 8.63125 9.98387L5.69117 9.02304C5.58889 8.98962 5.47809 9.04032 5.43653 9.13957Z" fill="url(#paint0_linear_1_478727)" fill-opacity="0.8"/>
<path d="M10.5212 9.13957L12.8194 14.628C12.8829 14.7798 12.7522 14.9413 12.5905 14.9107L10.8045 14.5726C10.7372 14.5598 10.668 14.5813 10.6197 14.6299L9.48744 15.7684C9.38043 15.876 9.1978 15.8353 9.1466 15.6924L7.19626 10.2498C7.15701 10.1403 7.21593 10.02 7.32651 9.98387L10.2666 9.02304C10.3689 8.98962 10.4797 9.04032 10.5212 9.13957Z" fill="#FF6868"/>
<path d="M10.5212 9.13957L12.8194 14.628C12.8829 14.7798 12.7522 14.9413 12.5905 14.9107L10.8045 14.5726C10.7372 14.5598 10.668 14.5813 10.6197 14.6299L9.48744 15.7684C9.38043 15.876 9.1978 15.8353 9.1466 15.6924L7.19626 10.2498C7.15701 10.1403 7.21593 10.02 7.32651 9.98387L10.2666 9.02304C10.3689 8.98962 10.4797 9.04032 10.5212 9.13957Z" fill="url(#paint1_linear_1_478727)" fill-opacity="0.8"/>
<path d="M7.35156 1.0337C7.81886 0.775145 8.3863 0.775145 8.85361 1.0337L13.7249 3.72897C14.2187 4.00218 14.5252 4.522 14.5252 5.08634V10.3643C14.5252 10.9287 14.2187 11.4485 13.7249 11.7217L8.85361 14.417C8.3863 14.6755 7.81886 14.6755 7.35156 14.417L2.48024 11.7217C1.98645 11.4485 1.67998 10.9287 1.67998 10.3643V5.08634C1.67998 4.522 1.98645 4.00218 2.48024 3.72897L7.35156 1.0337Z" fill="#BA9328"/>
<path d="M7.35156 0.415536C7.81886 0.156981 8.3863 0.156981 8.85361 0.415536L13.7249 3.11081C14.2187 3.38402 14.5252 3.90384 14.5252 4.46817V9.74618C14.5252 10.3105 14.2187 10.8303 13.7249 11.1035L8.85361 13.7988C8.3863 14.0574 7.81886 14.0574 7.35156 13.7988L2.48024 11.1035C1.98645 10.8303 1.67998 10.3105 1.67998 9.74617V4.46817C1.67998 3.90384 1.98645 3.38402 2.48024 3.11081L7.35156 0.415536Z" fill="url(#paint2_linear_1_478727)"/>
<g opacity="0.8">
<path d="M7.36038 2.25846C7.82331 2.00604 8.38275 2.00604 8.84568 2.25846L12.1113 4.03915C12.6098 4.31095 12.92 4.83336 12.92 5.40112V8.81217C12.92 9.37993 12.6098 9.90233 12.1113 10.1741L8.84568 11.9548C8.38275 12.2072 7.82331 12.2072 7.36038 11.9548L4.09471 10.1741C3.59624 9.90233 3.28608 9.37993 3.28608 8.81217V5.40112C3.28608 4.83336 3.59624 4.31096 4.09471 4.03915L7.36038 2.25846Z" fill="#D3E36B"/>
<path d="M7.36038 2.25846C7.82331 2.00604 8.38275 2.00604 8.84568 2.25846L12.1113 4.03915C12.6098 4.31095 12.92 4.83336 12.92 5.40112V8.81217C12.92 9.37993 12.6098 9.90233 12.1113 10.1741L8.84568 11.9548C8.38275 12.2072 7.82331 12.2072 7.36038 11.9548L4.09471 10.1741C3.59624 9.90233 3.28608 9.37993 3.28608 8.81217V5.40112C3.28608 4.83336 3.59624 4.31096 4.09471 4.03915L7.36038 2.25846Z" fill="url(#paint3_linear_1_478727)"/>
</g>
<path d="M7.70973 4.54478C7.86591 4.21206 8.33914 4.21206 8.49533 4.54478L8.95908 5.5327C9.02051 5.66356 9.14308 5.75524 9.28596 5.7772L10.3585 5.94204C10.7075 5.99568 10.8497 6.42144 10.603 6.67407L9.80063 7.49589C9.70437 7.59447 9.66066 7.7329 9.68284 7.86888L9.86832 9.00607C9.92663 9.36359 9.54705 9.63094 9.23004 9.45564C8.93546 9.29274 8.65707 9.13879 8.3126 8.94831C8.18193 8.87605 8.02321 8.876 7.89254 8.94826L6.97499 9.45565C6.65798 9.63096 6.27842 9.36359 6.33674 9.00607L6.52222 7.86888C6.5444 7.7329 6.50068 7.59447 6.40443 7.49589L5.60202 6.67407C5.35536 6.42144 5.4976 5.99568 5.84658 5.94204L6.91909 5.7772C7.06198 5.75524 7.18454 5.66356 7.24597 5.5327L7.70973 4.54478Z" fill="white"/>
<defs>
<linearGradient id="paint0_linear_1_478727" x1="6.66689" y1="12.3336" x2="5.00022" y2="15.6669" gradientUnits="userSpaceOnUse">
<stop stop-color="#200505"/>
<stop offset="1" stop-color="#C28765" stop-opacity="0"/>
</linearGradient>
<linearGradient id="paint1_linear_1_478727" x1="10.0002" y1="13.0002" x2="11.0002" y2="15.6669" gradientUnits="userSpaceOnUse">
<stop stop-color="#772121"/>
<stop offset="1" stop-color="#C28765" stop-opacity="0"/>
</linearGradient>
<linearGradient id="paint2_linear_1_478727" x1="3.69922" y1="1.3326" x2="12.951" y2="12.8255" gradientUnits="userSpaceOnUse">
<stop stop-color="#FFFFBA"/>
<stop offset="1" stop-color="#EFC12D"/>
</linearGradient>
<linearGradient id="paint3_linear_1_478727" x1="5.32196" y1="3.26782" x2="11.5042" y2="11.2918" gradientUnits="userSpaceOnUse">
<stop stop-color="#FFCA10"/>
<stop offset="1" stop-color="#FFB774"/>
</linearGradient>
</defs>
</svg>
