<svg width="20" height="20" viewBox="0 0 20 20" fill="none" xmlns="http://www.w3.org/2000/svg">
<g clip-path="url(#clip0_1_482273)">
<rect width="20" height="20" rx="10" fill="#F93939"/>
<path d="M21.3333 0H-1.33333C-2.80609 0 -4 1.19391 -4 2.66667V17.3333C-4 18.8061 -2.80609 20 -1.33333 20H21.3333C22.8061 20 24 18.8061 24 17.3333V2.66667C24 1.19391 22.8061 0 21.3333 0Z" fill="#F93939"/>
<path fill-rule="evenodd" clip-rule="evenodd" d="M10.0001 6.10046L8.32886 4.98633L7.21472 6.10046H8.32886L7.21472 7.2146L4.98645 6.10046V11.6711L8.32886 10.557L7.21472 12.7853H6.10059L7.21472 13.8994L8.32886 12.7853L10.0001 15.0135V6.10046ZM11.6713 4.98633L12.7854 6.10046H11.6713L12.7854 7.2146L15.0137 6.10046V11.6711L11.6713 10.557L12.7854 12.7853H13.8995L12.7854 13.8994L11.6713 12.7853L10.0001 15.0135V6.10046L11.6713 4.98633Z" fill="#151515"/>
</g>
<defs>
<clipPath id="clip0_1_482273">
<rect width="20" height="20" rx="10" fill="white"/>
</clipPath>
</defs>
</svg>
