<svg width="20" height="20" viewBox="0 0 20 20" fill="none" xmlns="http://www.w3.org/2000/svg">
<g clip-path="url(#clip0_1_482221)">
<path d="M21.3333 0H-1.33333C-2.80609 0 -4 1.19391 -4 2.66667V17.3333C-4 18.8061 -2.80609 20 -1.33333 20H21.3333C22.8061 20 24 18.8061 24 17.3333V2.66667C24 1.19391 22.8061 0 21.3333 0Z" fill="#F93939"/>
<path fill-rule="evenodd" clip-rule="evenodd" d="M-4 13.333H24V19.9997H-4V13.333Z" fill="#249F58"/>
<path fill-rule="evenodd" clip-rule="evenodd" d="M-4 0H24V6.66667H-4V0Z" fill="#3ECBF8"/>
<path fill-rule="evenodd" clip-rule="evenodd" d="M12 9.3335H13.3333V10.6668H12V9.3335Z" fill="white"/>
<path fill-rule="evenodd" clip-rule="evenodd" d="M12.6667 12.0003C12.0587 12.8097 11.0907 13.3337 10 13.3337C8.16002 13.3337 6.66669 11.8403 6.66669 10.0003C6.66669 8.16033 8.16002 6.66699 10 6.66699C11.0907 6.66699 12.0587 7.19099 12.6667 8.00033H10.6667C9.56269 8.00033 8.66669 8.89633 8.66669 10.0003C8.66669 11.1043 9.56269 12.0003 10.6667 12.0003H12.6667Z" fill="white"/>
</g>
<defs>
<clipPath id="clip0_1_482221">
<rect width="20" height="20" rx="10" fill="white"/>
</clipPath>
</defs>
</svg>
