<svg width="20" height="20" viewBox="0 0 20 20" fill="none" xmlns="http://www.w3.org/2000/svg">
<g clip-path="url(#clip0_1_482275)">
<rect width="20" height="20" rx="10" fill="#F93939"/>
<path d="M21.3333 0H-1.33333C-2.80609 0 -4 1.19391 -4 2.66667V17.3333C-4 18.8061 -2.80609 20 -1.33333 20H21.3333C22.8061 20 24 18.8061 24 17.3333V2.66667C24 1.19391 22.8061 0 21.3333 0Z" fill="#F93939"/>
<path fill-rule="evenodd" clip-rule="evenodd" d="M-4 10.6665H24V19.9998H-4V10.6665Z" fill="#151515"/>
<path fill-rule="evenodd" clip-rule="evenodd" d="M13.174 12.1824C13.7527 11.4064 14.094 10.4437 14.094 9.40102C14.094 7.44502 12.89 5.77035 11.1833 5.07568L10.3767 6.20502C11.7553 6.61435 12.7607 7.89035 12.7607 9.40102C12.7607 10.193 12.4847 10.921 12.0233 11.4917L7.42734 8.73435L11.022 12.329C10.5487 12.5877 10.0047 12.7344 9.42734 12.7344C8.30734 12.7344 7.31667 12.1824 6.71267 11.3344L5.90601 12.4637C6.76067 13.4464 8.02067 14.0677 9.42734 14.0677C10.374 14.0677 11.2567 13.785 11.9927 13.2997L12.7607 14.0677L14.094 12.7344L13.174 12.1824ZM7.42734 6.06768H8.76067V7.40102H7.42734V6.06768Z" fill="#FFDA2C"/>
</g>
<defs>
<clipPath id="clip0_1_482275">
<rect width="20" height="20" rx="10" fill="white"/>
</clipPath>
</defs>
</svg>
