<svg width="21" height="21" viewBox="0 0 21 21" fill="none" xmlns="http://www.w3.org/2000/svg">
<g clip-path="url(#clip0_1_482385)">
<path d="M22.0805 0.237305H-0.586251C-2.05902 0.237305 -3.25293 1.43121 -3.25293 2.90397V17.5706C-3.25293 19.0434 -2.05902 20.2373 -0.586251 20.2373H22.0805C23.5533 20.2373 24.7472 19.0434 24.7472 17.5706V2.90397C24.7472 1.43121 23.5533 0.237305 22.0805 0.237305Z" fill="white"/>
<path fill-rule="evenodd" clip-rule="evenodd" d="M-3.25293 13.5706H24.7472V20.2373H-3.25293V13.5706ZM-3.25293 0.237305H24.7472V6.90397H-3.25293V0.237305Z" fill="#3ECBF8"/>
<path d="M10.7471 12.2373C11.8517 12.2373 12.7471 11.3419 12.7471 10.2373C12.7471 9.13274 11.8517 8.2373 10.7471 8.2373C9.64255 8.2373 8.74712 9.13274 8.74712 10.2373C8.74712 11.3419 9.64255 12.2373 10.7471 12.2373Z" fill="#FFDA2C"/>
</g>
<defs>
<clipPath id="clip0_1_482385">
<rect x="0.74707" y="0.237305" width="20.0001" height="20" rx="10" fill="white"/>
</clipPath>
</defs>
</svg>
