<svg width="20" height="20" viewBox="0 0 20 20" fill="none" xmlns="http://www.w3.org/2000/svg">
<g clip-path="url(#clip0_1_482167)">
<path d="M21.3333 0H-1.33333C-2.80609 0 -4 1.19391 -4 2.66667V17.3333C-4 18.8061 -2.80609 20 -1.33333 20H21.3333C22.8061 20 24 18.8061 24 17.3333V2.66667C24 1.19391 22.8061 0 21.3333 0Z" fill="#FFDA2C"/>
<path fill-rule="evenodd" clip-rule="evenodd" d="M-4 0H5.33333V20H-4V0ZM14.6667 0H24V20H14.6667V0Z" fill="#1A47B8"/>
<path fill-rule="evenodd" clip-rule="evenodd" d="M9.33335 13.3332H10.6667V14.6665H9.33335V13.3332ZM12 10.6665H13.3334V11.9998H12V10.6665ZM6.66669 10.6665H8.00002V11.9998H6.66669V10.6665Z" fill="#AE6A3E"/>
<path fill-rule="evenodd" clip-rule="evenodd" d="M10.6667 10.6663V5.33301H9.33335V10.6663H8.00002V11.9997H9.33335V13.333H10.6667V11.9997H12V10.6663H10.6667ZM12 6.66634H13.3334V10.6663H12V6.66634ZM6.66669 6.66634H8.00002V10.6663H6.66669V6.66634Z" fill="#151515"/>
</g>
<defs>
<clipPath id="clip0_1_482167">
<rect width="20" height="20" rx="10" fill="white"/>
</clipPath>
</defs>
</svg>
