<svg width="20" height="20" viewBox="0 0 20 20" fill="none" xmlns="http://www.w3.org/2000/svg">
<g clip-path="url(#clip0_1_482263)">
<rect width="20" height="20" rx="10" fill="#FFD702"/>
<path fill-rule="evenodd" clip-rule="evenodd" d="M-4 19.9998H24V2.6665L-4 17.3332V19.9998Z" fill="#013088"/>
<path fill-rule="evenodd" clip-rule="evenodd" d="M-22.5 32.5L22.5 6.83333V-2.5L-22.5 23.1667V32.5Z" fill="white"/>
<path d="M2.50005 11.2523C2.5073 11.2318 2.52465 11.2268 2.539 11.2185C2.67812 11.1389 2.81667 11.0582 2.95706 10.9809C2.99525 10.9598 3.01335 10.9343 3.01721 10.8908C3.03587 10.6801 3.08116 10.4743 3.14567 10.2735C3.28398 9.84292 3.50216 9.4567 3.80119 9.11605C4.06339 8.8174 4.36967 8.5743 4.71926 8.38553C4.94429 8.26401 5.18078 8.17021 5.42818 8.10454C5.58499 8.06295 5.74358 8.03017 5.90537 8.01443C5.91039 8.01393 5.91546 8.01261 5.92048 8.01266C5.97394 8.01342 6.00447 7.98544 6.03003 7.93966C6.10545 7.80427 6.18538 7.67141 6.26338 7.53749C6.27099 7.52439 6.27748 7.51062 6.29071 7.5C6.31146 7.50471 6.31648 7.52413 6.32535 7.53931C6.4065 7.67733 6.48826 7.81504 6.56763 7.95407C6.5869 7.98782 6.60911 8.00715 6.64928 8.01054C6.73849 8.01808 6.82689 8.03204 6.91504 8.04848C7.09802 8.08263 7.2768 8.13181 7.45111 8.19637C7.74258 8.30428 8.01366 8.4505 8.26349 8.63516C8.62941 8.90568 8.92752 9.23697 9.15646 9.62998C9.28335 9.84788 9.38321 10.0776 9.45569 10.3189C9.51153 10.5047 9.55251 10.6941 9.57026 10.8876C9.57416 10.9301 9.58943 10.9576 9.62843 10.979C9.77038 11.057 9.91036 11.1385 10.051 11.2187C10.0584 11.2228 10.0664 11.2261 10.0731 11.231C10.0927 11.2453 10.0929 11.2545 10.0708 11.2677C10.0158 11.3006 9.96006 11.3323 9.90448 11.3642C9.81228 11.417 9.72088 11.4715 9.62711 11.5215C9.58943 11.5415 9.57431 11.5678 9.57066 11.6085C9.5555 11.7785 9.52152 11.9453 9.47602 12.1095C9.40147 12.3785 9.29456 12.6345 9.15255 12.8753C8.83375 13.4159 8.39617 13.8335 7.84112 14.1279C7.58794 14.2622 7.32107 14.3604 7.04117 14.4236C6.90586 14.4542 6.76968 14.4787 6.63153 14.4906C6.59765 14.4936 6.58563 14.5145 6.57214 14.5376C6.49389 14.6714 6.41614 14.8056 6.33758 14.9393C6.3251 14.9605 6.31693 14.9855 6.29462 15C6.27651 14.9912 6.27129 14.9747 6.26302 14.9605C6.18208 14.8224 6.10017 14.6849 6.02085 14.5459C6.00082 14.5108 5.97891 14.4931 5.9359 14.4883C5.74095 14.4672 5.54908 14.43 5.36037 14.3745C4.70759 14.1828 4.16584 13.8234 3.73272 13.3018C3.47482 12.9913 3.28357 12.6428 3.15779 12.2588C3.08831 12.0466 3.03876 11.8304 3.01731 11.6083C3.0131 11.5645 2.99469 11.5391 2.95696 11.5182C2.81673 11.4406 2.67802 11.3602 2.5388 11.2807C2.52581 11.2733 2.51136 11.2677 2.5 11.2524L2.50005 11.2523ZM9.14718 11.244C9.14454 11.0935 9.13394 10.9375 9.10777 10.7823C9.06552 10.5315 8.99107 10.2909 8.88213 10.0614C8.65015 9.57281 8.30538 9.18157 7.85132 8.88646C7.58734 8.7149 7.3015 8.5919 6.99634 8.51551C6.82583 8.47286 6.65222 8.44802 6.47624 8.43653C6.17503 8.4169 5.87854 8.44468 5.58656 8.51698C5.37477 8.56944 5.17165 8.64725 4.97751 8.74773C4.58405 8.95142 4.25404 9.22963 3.99066 9.58515C3.68134 10.0026 3.50079 10.4709 3.45297 10.9875C3.42259 11.3155 3.44703 11.6405 3.53239 11.9603C3.60324 12.2258 3.70858 12.4763 3.85322 12.7098C4.13526 13.165 4.51578 13.5143 4.99333 13.7586C5.22156 13.8754 5.4618 13.9585 5.71234 14.01C5.89624 14.0478 6.08262 14.0672 6.27109 14.0683C6.64735 14.0707 7.01079 14.0048 7.35972 13.8655C7.74451 13.7119 8.08121 13.4857 8.3671 13.1854C8.71669 12.8182 8.95217 12.3894 9.0708 11.8964C9.12197 11.6837 9.14495 11.4684 9.14723 11.2439L9.14718 11.244Z" fill="black"/>
<path d="M6.29898 9.37988C6.33068 9.43326 6.36095 9.4834 6.39047 9.53399C6.52888 9.77127 6.66703 10.0088 6.80533 10.2461C6.81213 10.2577 6.81994 10.2688 6.82638 10.2806C6.83718 10.3004 6.85356 10.3095 6.87588 10.3095C6.89444 10.3095 6.91306 10.3105 6.93162 10.3105C7.24429 10.3106 7.557 10.3105 7.86967 10.3106C7.93961 10.3106 7.94012 10.311 7.90558 10.3703C7.74359 10.6486 7.58186 10.9269 7.4184 11.2042C7.39958 11.2362 7.39882 11.2604 7.41738 11.2919C7.54828 11.5141 7.67776 11.7371 7.8077 11.9599C7.84421 12.0225 7.88103 12.0849 7.91704 12.1478C7.93515 12.1794 7.92947 12.1895 7.89376 12.1916C7.882 12.1923 7.87013 12.1918 7.85826 12.1918C7.5422 12.1918 7.22613 12.1931 6.91006 12.1904C6.85884 12.19 6.83064 12.2065 6.80584 12.2497C6.65795 12.5068 6.50768 12.7626 6.35827 13.0188C6.343 13.045 6.32885 13.0719 6.31267 13.0975C6.29898 13.1192 6.2898 13.1196 6.2758 13.0972C6.24811 13.053 6.22229 13.0075 6.19592 12.9624C6.05468 12.721 5.91252 12.48 5.77335 12.2374C5.7522 12.2005 5.72781 12.1909 5.6885 12.1911C5.36904 12.1923 5.04962 12.1918 4.73016 12.1918C4.72002 12.1918 4.70987 12.192 4.69973 12.1917C4.65794 12.1903 4.65175 12.1801 4.67326 12.143C4.75354 12.0045 4.83443 11.8663 4.91528 11.7281C5.00205 11.5797 5.08827 11.431 5.17662 11.2836C5.19493 11.253 5.18529 11.2314 5.17003 11.2053C5.00312 10.9203 4.83692 10.6348 4.67047 10.3495C4.66545 10.3409 4.65885 10.333 4.65814 10.3192C4.67422 10.3046 4.69532 10.3109 4.71408 10.3109C4.94393 10.3103 5.17383 10.3105 5.40368 10.3105C5.49664 10.3105 5.5896 10.3097 5.68257 10.3109C5.72487 10.3115 5.7522 10.2986 5.77528 10.2584C5.93473 9.98078 6.09748 9.705 6.25917 9.42865C6.26845 9.41277 6.27494 9.39486 6.29898 9.37988Z" fill="#F93939"/>
</g>
<defs>
<clipPath id="clip0_1_482263">
<rect width="20" height="20" rx="10" fill="white"/>
</clipPath>
</defs>
</svg>
