<svg width="20" height="20" viewBox="0 0 20 20" fill="none" xmlns="http://www.w3.org/2000/svg">
<g clip-path="url(#clip0_1_482277)">
<path d="M21.3333 0H-1.33333C-2.80609 0 -4 1.19391 -4 2.66667V17.3333C-4 18.8061 -2.80609 20 -1.33333 20H21.3333C22.8061 20 24 18.8061 24 17.3333V2.66667C24 1.19391 22.8061 0 21.3333 0Z" fill="#FFDA2C"/>
<path fill-rule="evenodd" clip-rule="evenodd" d="M7.99951 9.3335H9.33285V10.6668H7.99951V9.3335ZM10.6662 9.3335H11.9995V10.6668H10.6662V9.3335Z" fill="#03BCDB"/>
<path fill-rule="evenodd" clip-rule="evenodd" d="M12 9.33333H13.3334V12H12V9.33333ZM10.6667 8H12V9.33333H10.6667V8ZM8.00002 8H9.33335V9.33333H8.00002V8ZM6.66669 9.33333H8.00002V12H6.66669V9.33333Z" fill="#AF010D"/>
<path fill-rule="evenodd" clip-rule="evenodd" d="M9.33374 10.6665H10.6671V11.9998H9.33374V10.6665Z" fill="#249F58"/>
<path fill-rule="evenodd" clip-rule="evenodd" d="M9.33374 8H10.6671V9.33333H9.33374V8Z" fill="#151515"/>
<path fill-rule="evenodd" clip-rule="evenodd" d="M10.6662 10.6665H11.9995V11.9998H10.6662V10.6665ZM7.99951 10.6665H9.33285V11.9998H7.99951V10.6665Z" fill="#D4AF2C"/>
<path fill-rule="evenodd" clip-rule="evenodd" d="M9.33374 9.3335H10.6671V10.6668H9.33374V9.3335Z" fill="#249F58"/>
<path fill-rule="evenodd" clip-rule="evenodd" d="M-4 13.333H24V19.9997H-4V13.333Z" fill="#249F58"/>
<path fill-rule="evenodd" clip-rule="evenodd" d="M-4 0H24V6.66667H-4V0Z" fill="#F93939"/>
</g>
<defs>
<clipPath id="clip0_1_482277">
<rect width="20" height="20" rx="10" fill="white"/>
</clipPath>
</defs>
</svg>
