<svg width="20" height="20" viewBox="0 0 20 20" fill="none" xmlns="http://www.w3.org/2000/svg">
<g clip-path="url(#clip0_1_482355)">
<rect width="20" height="20" rx="10" fill="#1A47B8"/>
<path fill-rule="evenodd" clip-rule="evenodd" d="M6.66667 6.66667H5.99385C5.621 6.66667 5.33333 6.96514 5.33333 7.33333C5.33333 7.69076 5.62906 8 5.99385 8H6.66667V8.67281C6.66667 9.04566 6.96514 9.33333 7.33333 9.33333C7.69076 9.33333 8 9.03761 8 8.67281V8H8.67281C9.04566 8 9.33333 7.70152 9.33333 7.33333C9.33333 6.97591 9.03761 6.66667 8.67281 6.66667H8V5.99385C8 5.621 7.70152 5.33333 7.33333 5.33333C6.97591 5.33333 6.66667 5.62906 6.66667 5.99385V6.66667ZM4 4H5.33333V5.33333H4V4Z" fill="white"/>
<path d="M28 12H0V14.6667H28V12Z" fill="#FFDA2C"/>
</g>
<defs>
<clipPath id="clip0_1_482355">
<rect width="20" height="20" rx="10" fill="white"/>
</clipPath>
</defs>
</svg>
