<svg width="20" height="20" viewBox="0 0 20 20" fill="none" xmlns="http://www.w3.org/2000/svg">
<g clip-path="url(#clip0_1_482161)">
<rect width="20" height="20" rx="10" fill="#1A47B8"/>
<path fill-rule="evenodd" clip-rule="evenodd" d="M0 10.6665H28V11.9998H0V10.6665Z" fill="white"/>
<path fill-rule="evenodd" clip-rule="evenodd" d="M0 12H28V13.3333H0V12Z" fill="#F93939"/>
<path fill-rule="evenodd" clip-rule="evenodd" d="M0 13.333H28V14.6663H0V13.333Z" fill="white"/>
<path fill-rule="evenodd" clip-rule="evenodd" d="M6.66665 9.33333H7.99998V10.6667H6.66665V9.33333ZM9.33331 8H10.6666V9.33333H9.33331V8ZM12 9.33333H13.3333V10.6667H12V9.33333ZM13.3333 12H14.6666V13.3333H13.3333V12ZM5.33331 12H6.66665V13.3333H5.33331V12ZM12 14.6667H13.3333V16H12V14.6667ZM9.33331 16H10.6666V17.3333H9.33331V16ZM6.66665 14.6667H7.99998V16H6.66665V14.6667Z" fill="#FFDA2C"/>
</g>
<defs>
<clipPath id="clip0_1_482161">
<rect width="20" height="20" rx="10" fill="white"/>
</clipPath>
</defs>
</svg>
