<svg width="20" height="20" viewBox="0 0 20 20" fill="none" xmlns="http://www.w3.org/2000/svg">
<g clip-path="url(#clip0_1_482151)">
<path d="M21.3333 0H-1.33333C-2.80609 0 -4 1.19391 -4 2.66667V17.3333C-4 18.8061 -2.80609 20 -1.33333 20H21.3333C22.8061 20 24 18.8061 24 17.3333V2.66667C24 1.19391 22.8061 0 21.3333 0Z" fill="white"/>
<path fill-rule="evenodd" clip-rule="evenodd" d="M-4 13.333H24V19.9997H-4V13.333Z" fill="#FFDA2C"/>
<path fill-rule="evenodd" clip-rule="evenodd" d="M-4 10.6665H24V14.6665H-4V10.6665Z" fill="#249F58"/>
<path fill-rule="evenodd" clip-rule="evenodd" d="M-4 0H24V6.66667H-4V0Z" fill="#1A47B8"/>
<path fill-rule="evenodd" clip-rule="evenodd" d="M0 2.6665H1.33333V3.99984H0V2.6665Z" fill="#FFDA2C"/>
<path fill-rule="evenodd" clip-rule="evenodd" d="M2.66724 2.66683H4.00057V4.00016H2.66724V2.66683ZM5.3339 2.66683H6.66724V4.00016H5.3339V2.66683ZM4.00057 4.00016H5.3339V5.3335H4.00057V4.00016ZM4.00057 1.3335H5.3339V2.66683H4.00057V1.3335Z" fill="#D4AF2C"/>
<path fill-rule="evenodd" clip-rule="evenodd" d="M8.00049 0H12.0005V20H8.00049V0Z" fill="#F93939"/>
</g>
<defs>
<clipPath id="clip0_1_482151">
<rect width="20" height="20" rx="10" fill="white"/>
</clipPath>
</defs>
</svg>
