<svg width="20" height="20" viewBox="0 0 20 20" fill="none" xmlns="http://www.w3.org/2000/svg">
<g clip-path="url(#clip0_1_482295)">
<rect width="20" height="20" rx="10" fill="white"/>
<path fill-rule="evenodd" clip-rule="evenodd" d="M-4 13.3333H24V20H-4V13.3333ZM-4 0H24V6.66667H-4V0Z" fill="#1A47B8"/>
<path d="M10.0005 12C11.1051 12 12.0005 11.1046 12.0005 10C12.0005 8.89543 11.1051 8 10.0005 8C8.89592 8 8.00049 8.89543 8.00049 10C8.00049 11.1046 8.89592 12 10.0005 12Z" fill="#1A47B8"/>
<path d="M10 10.6668C10.3682 10.6668 10.6667 10.3684 10.6667 10.0002C10.6667 9.63197 10.3682 9.3335 10 9.3335C9.63182 9.3335 9.33334 9.63197 9.33334 10.0002C9.33334 10.3684 9.63182 10.6668 10 10.6668Z" fill="#FFDA2C"/>
<path fill-rule="evenodd" clip-rule="evenodd" d="M6.66626 9.3335L7.99959 10.6668L9.99959 12.0002L11.9996 10.6668L13.3329 9.3335L11.9996 12.0002H7.99959L6.66626 9.3335Z" fill="#249F58"/>
</g>
<defs>
<clipPath id="clip0_1_482295">
<rect width="20" height="20" rx="10" fill="white"/>
</clipPath>
</defs>
</svg>
