<svg width="20" height="21" viewBox="0 0 20 21" fill="none" xmlns="http://www.w3.org/2000/svg">
<rect y="0.237305" width="20.0001" height="20" rx="10" fill="#1A47B8"/>
<ellipse cx="10.0007" cy="10.57" rx="6.66668" ry="6.66667" fill="#1A47B8"/>
<path d="M3.7834 11.7744L4.51045 11.3626L5.23751 11.7744L5.09869 10.9026L5.68692 10.2861L4.87516 10.1585L4.51045 9.36621L4.14575 10.1585L3.33398 10.2861L3.92222 10.9026L3.7834 11.7744Z" fill="#FFDA2C"/>
<path d="M14.7639 11.7744L15.4909 11.3626L16.218 11.7744L16.0792 10.9026L16.6674 10.2861L15.8556 10.1585L15.4909 9.36621L15.1262 10.1585L14.3145 10.2861L14.9027 10.9026L14.7639 11.7744Z" fill="#FFDA2C"/>
<path d="M9.508 17.2363L10.2351 16.8245L10.9621 17.2363L10.8233 16.3645L11.4115 15.748L10.5998 15.6204L10.2351 14.8281L9.87036 15.6204L9.05859 15.748L9.64683 16.3645L9.508 17.2363Z" fill="#FFDA2C"/>
<path d="M13.3586 15.871L14.0856 15.4592L14.8127 15.871L14.6739 14.9993L15.2621 14.3828L14.4504 14.2552L14.0856 13.4629L13.7209 14.2552L12.9092 14.3828L13.4974 14.9993L13.3586 15.871Z" fill="#FFDA2C"/>
<path d="M5.35175 15.871L6.07881 15.4592L6.80587 15.871L6.66705 14.9993L7.25528 14.3828L6.44352 14.2552L6.07881 13.4629L5.71411 14.2552L4.90234 14.3828L5.49058 14.9993L5.35175 15.871Z" fill="#FFDA2C"/>
<path d="M9.508 6.31146L10.2351 5.89967L10.9621 6.31146L10.8233 5.43972L11.4115 4.82323L10.5998 4.6956L10.2351 3.90332L9.87036 4.6956L9.05859 4.82323L9.64683 5.43972L9.508 6.31146Z" fill="#FFDA2C"/>
<path d="M13.4299 7.67767L14.1569 7.26588L14.884 7.67767L14.7452 6.80593L15.3334 6.18944L14.5216 6.06181L14.1569 5.26953L13.7922 6.06181L12.9805 6.18944L13.5687 6.80593L13.4299 7.67767Z" fill="#FFDA2C"/>
<path d="M5.35175 7.67767L6.07881 7.26588L6.80587 7.67767L6.66705 6.80593L7.25528 6.18944L6.44352 6.06181L6.07881 5.26953L5.71411 6.06181L4.90234 6.18944L5.49058 6.80593L5.35175 7.67767Z" fill="#FFDA2C"/>
</svg>
