<svg width="20" height="20" viewBox="0 0 20 20" fill="none" xmlns="http://www.w3.org/2000/svg">
<g clip-path="url(#clip0_1_482345)">
<rect width="20" height="20" rx="10" fill="white"/>
<path fill-rule="evenodd" clip-rule="evenodd" d="M-4 13.333H24V19.9997H-4V13.333Z" fill="#F93939"/>
<path fill-rule="evenodd" clip-rule="evenodd" d="M-4 0H24V6.66667H-4V0Z" fill="#00B731"/>
<path fill-rule="evenodd" clip-rule="evenodd" d="M10 9.33333C10.368 9.33333 10.6667 9.03467 10.6667 8.66667C10.6667 8.29867 10.368 8 10 8C9.63201 8 9.33334 8.29867 9.33334 8.66667C9.33334 9.03467 9.63201 9.33333 10 9.33333ZM12.6667 9.33333C13.0347 9.33333 13.3333 9.03467 13.3333 8.66667C13.3333 8.29867 13.0347 8 12.6667 8C12.2987 8 12 8.29867 12 8.66667C12 9.03467 12.2987 9.33333 12.6667 9.33333ZM15.3333 9.33333C15.7013 9.33333 16 9.03467 16 8.66667C16 8.29867 15.7013 8 15.3333 8C14.9653 8 14.6667 8.29867 14.6667 8.66667C14.6667 9.03467 14.9653 9.33333 15.3333 9.33333Z" fill="#FFDA2C"/>
<path fill-rule="evenodd" clip-rule="evenodd" d="M11.3333 10.6668C11.7013 10.6668 12 10.3682 12 10.0002C12 9.63216 11.7013 9.3335 11.3333 9.3335C10.9653 9.3335 10.6667 9.63216 10.6667 10.0002C10.6667 10.3682 10.9653 10.6668 11.3333 10.6668ZM14 10.6668C14.368 10.6668 14.6667 10.3682 14.6667 10.0002C14.6667 9.63216 14.368 9.3335 14 9.3335C13.632 9.3335 13.3333 9.63216 13.3333 10.0002C13.3333 10.3682 13.632 10.6668 14 10.6668Z" fill="#00B731"/>
<path fill-rule="evenodd" clip-rule="evenodd" d="M11.9995 9.3335H13.3328V12.0002H11.9995V9.3335Z" fill="#AE6A3E"/>
<path fill-rule="evenodd" clip-rule="evenodd" d="M-1.33301 0V20.044L8.00033 10L-1.33301 0Z" fill="#3A99FF"/>
</g>
<defs>
<clipPath id="clip0_1_482345">
<rect width="20" height="20" rx="10" fill="white"/>
</clipPath>
</defs>
</svg>
