<svg width="20" height="20" viewBox="0 0 20 20" fill="none" xmlns="http://www.w3.org/2000/svg">
<mask id="mask0_1_482159" style="mask-type:luminance" maskUnits="userSpaceOnUse" x="0" y="0" width="20" height="20">
<path d="M10 20C15.5228 20 20 15.5228 20 10C20 4.47715 15.5228 0 10 0C4.47715 0 0 4.47715 0 10C0 15.5228 4.47715 20 10 20Z" fill="white"/>
</mask>
<g mask="url(#mask0_1_482159)">
<path fill-rule="evenodd" clip-rule="evenodd" d="M-8.63916 -0.00292969H28.6336V19.9971H-8.63916V-0.00292969Z" fill="#C62139"/>
<path fill-rule="evenodd" clip-rule="evenodd" d="M-7.72974 0.905762H27.7248V19.0876H-7.72974V0.905762Z" fill="#00297B"/>
<path fill-rule="evenodd" clip-rule="evenodd" d="M10.0076 4.91357C10.0076 4.91357 6.89423 7.39091 6.89423 9.96424C6.89423 12.5376 10.0076 15.0808 10.0076 15.0808C10.0076 15.0808 13.1011 12.7231 13.1011 9.96424C13.1011 7.20537 10.0076 4.91357 10.0076 4.91357Z" fill="#92DBFC"/>
<path fill-rule="evenodd" clip-rule="evenodd" d="M7.23871 11.5348C8.04891 13.4809 10.0076 15.0807 10.0076 15.0807C10.0076 15.0807 12.0012 13.5613 12.7876 11.5347" fill="#008CE7"/>
<path fill-rule="evenodd" clip-rule="evenodd" d="M12.798 10.9733C12.318 11.3167 9.61725 11.1517 9.61725 11.1517L9.46625 11.5362L12.6821 11.5461C12.6955 11.4934 12.7276 11.4307 12.7388 11.3774L12.798 10.9731V10.9733Z" fill="#9C8431"/>
<path fill-rule="evenodd" clip-rule="evenodd" d="M7.96576 12.5648C8.10249 12.5693 8.23876 12.5981 8.36109 12.6637C8.57976 12.7785 8.70656 12.7777 8.94229 12.7813C9.18896 12.7851 9.38263 12.9667 9.64923 12.9742C10.1404 12.9879 10.3469 13.2319 9.96496 13.2317C9.78456 13.2315 9.39783 13.1105 9.21096 13.1359C8.92683 13.1647 8.76256 13.1864 8.55229 13.3535C8.35196 13.113 8.15169 12.8485 7.96576 12.5648ZM8.93743 13.7894C9.05923 13.7061 9.14309 13.641 9.26129 13.6373C9.49096 13.6303 9.56929 13.4882 9.83476 13.4884C10.1364 13.5437 10.5453 13.4521 10.7846 13.3991C11.2095 13.3011 11.008 13.0039 10.7508 12.8961C10.5429 12.8071 10.1532 12.8916 9.91156 12.8033C9.72863 12.7318 9.87943 12.6179 9.97789 12.5937C10.0772 12.5755 10.1837 12.6083 10.3072 12.6284C10.5278 12.6478 10.8049 12.6272 10.9987 12.5971C11.3992 12.5358 11.3826 12.4183 11.576 12.4155C11.717 12.409 11.8244 12.3671 11.9206 12.2984C12.0336 12.223 12.1513 12.0682 12.288 12.0744L12.3684 12.0779C11.5239 13.7117 10.0071 14.7842 10.0071 14.7842C10.0071 14.7842 9.51696 14.409 8.93749 13.7895L8.93743 13.7894Z" fill="#FFDE52"/>
<path fill-rule="evenodd" clip-rule="evenodd" d="M10.8785 12.5924C10.9309 12.7951 10.9864 12.864 11.1995 12.916C11.4097 12.9681 11.731 12.7636 11.5319 12.5652C11.3424 12.3807 11.1427 12.3335 10.973 12.1674C10.7097 11.9062 10.3483 11.3664 10.1767 10.856C9.98894 10.298 10.0216 8.72709 10.03 7.93136C10.0302 7.92209 10.0529 7.91656 10.0554 7.91282C10.0676 7.89529 10.0793 7.91849 10.0602 7.80182C10.0552 7.77196 10.0315 7.74103 10.0317 7.71076C10.0319 7.65683 9.84548 7.76969 9.79634 7.86589C9.78514 7.88789 9.83208 7.95056 9.83208 7.96296C9.83841 8.72642 9.75634 10.2338 9.95901 10.9162C10.0844 11.3386 10.3133 11.6648 10.5205 11.9667C10.6447 12.1602 10.8244 12.3689 10.8785 12.5924H10.8785Z" fill="#8C4200"/>
<path d="M8.55584 10.3577C8.55344 10.3573 8.54397 10.3561 8.53491 10.3549C8.47011 10.347 8.40091 10.3197 8.35024 10.2819C8.27811 10.2281 8.23031 10.1421 8.21437 10.0365C8.20991 10.0069 8.21011 9.93079 8.21457 9.90179C8.22731 9.82019 8.25717 9.74819 8.30011 9.69566C8.31284 9.68019 8.33724 9.65646 8.35217 9.64533C8.38737 9.61853 8.43291 9.59759 8.48084 9.58586C8.51517 9.57726 8.53631 9.57466 8.57757 9.57346C8.63497 9.57206 8.67531 9.57726 8.72071 9.59233C8.77877 9.61139 8.82377 9.64233 8.85557 9.68459C8.87704 9.71313 8.90491 9.77653 8.90884 9.80573C8.91091 9.82173 8.90457 9.83353 8.89044 9.83959C8.88597 9.84146 8.86364 9.84819 8.84064 9.85439C8.79444 9.86679 8.78791 9.86713 8.77757 9.85853C8.77071 9.85266 8.76831 9.84819 8.76231 9.82946C8.75957 9.82153 8.75284 9.80539 8.74717 9.79393C8.73844 9.77626 8.73477 9.77093 8.72297 9.75906C8.71111 9.74706 8.70597 9.74339 8.68824 9.73486C8.64904 9.71579 8.60511 9.70926 8.55444 9.71546C8.51731 9.71993 8.47711 9.73506 8.45191 9.75413C8.39571 9.79639 8.36444 9.87986 8.36771 9.97846C8.37197 10.113 8.42904 10.187 8.54637 10.2105C8.56891 10.215 8.61804 10.215 8.64204 10.2105C8.67711 10.204 8.72844 10.1839 8.75751 10.1653L8.76797 10.1588V10.116L8.76817 10.0731L8.67557 10.0724L8.58297 10.0717L8.57711 10.0676C8.57384 10.0652 8.56937 10.0607 8.56717 10.0575C8.56304 10.0518 8.56304 10.0509 8.56304 10.0006C8.56324 9.95026 8.56324 9.94939 8.56731 9.94373C8.56957 9.94046 8.57417 9.93599 8.57744 9.93379L8.58331 9.92953L8.74191 9.92986L8.90064 9.93019L8.90631 9.93433C8.90957 9.93653 8.91404 9.94153 8.91644 9.94533L8.92057 9.95206L8.92091 10.0835C8.92124 10.2235 8.92091 10.2291 8.91251 10.2393C8.91011 10.2422 8.89911 10.2511 8.88831 10.259C8.81337 10.3141 8.73371 10.3469 8.65177 10.3564C8.63064 10.3588 8.56911 10.3597 8.55611 10.3578L8.55584 10.3577ZM9.38544 10.3647C9.30244 10.3584 9.23977 10.3337 9.19404 10.2895C9.14904 10.246 9.12671 10.1915 9.11671 10.1009C9.11377 10.0756 9.11364 10.049 9.11377 9.84386C9.11411 9.62293 9.11431 9.61466 9.11771 9.60799C9.11957 9.60419 9.12404 9.59886 9.12751 9.59613L9.13404 9.59133L9.18851 9.59079C9.24111 9.59046 9.24331 9.59046 9.25104 9.59426C9.25584 9.59666 9.26064 9.60099 9.26324 9.60493L9.26737 9.61166L9.26804 9.84873C9.26857 10.0577 9.26891 10.0881 9.27151 10.1045C9.27837 10.1475 9.28524 10.1635 9.30537 10.1835C9.33064 10.2086 9.35691 10.2179 9.40671 10.2196C9.45257 10.221 9.48404 10.2158 9.51097 10.2026C9.54204 10.1875 9.55617 10.1636 9.56684 10.109C9.57077 10.0884 9.57077 10.0851 9.57231 9.85113C9.57384 9.58606 9.57264 9.60806 9.58691 9.59719L9.59364 9.59219H9.65031C9.71351 9.59239 9.71164 9.59199 9.72177 9.60539L9.72691 9.61213L9.72711 9.82479C9.72731 10.0382 9.72624 10.0829 9.72057 10.1231C9.70837 10.2086 9.68004 10.2627 9.62537 10.305C9.60697 10.3193 9.59944 10.3241 9.58137 10.333C9.55371 10.3469 9.52177 10.3563 9.4855 10.3615C9.46664 10.3643 9.40457 10.3662 9.38537 10.3648L9.38544 10.3647ZM10.128 10.3532C10.1256 10.3527 10.1202 10.3487 10.116 10.3446C10.1072 10.3359 10.1048 10.3277 10.1074 10.3168C10.1106 10.3032 10.3793 9.60986 10.3836 9.60433C10.392 9.59299 10.3944 9.59266 10.4574 9.59279C10.5202 9.59279 10.5226 9.59333 10.5312 9.60446C10.5334 9.60773 10.6001 9.76906 10.6793 9.96333C10.805 10.2721 10.8231 10.3176 10.8231 10.3258C10.8231 10.3363 10.819 10.3435 10.8092 10.3505C10.8033 10.3547 10.8032 10.3547 10.7403 10.3545H10.6772L10.6704 10.3491C10.6616 10.3425 10.6618 10.3431 10.621 10.2366C10.6025 10.188 10.5865 10.1467 10.5855 10.145C10.584 10.1419 10.576 10.1417 10.4592 10.1415C10.3422 10.1413 10.3345 10.1415 10.3333 10.1445C10.3326 10.1462 10.3168 10.1895 10.2981 10.2407C10.2796 10.2917 10.2627 10.3362 10.2606 10.3395C10.2586 10.3427 10.2543 10.3472 10.2512 10.3494C10.2455 10.3535 10.2445 10.3535 10.1888 10.3537C10.1578 10.3539 10.1304 10.3535 10.128 10.353L10.128 10.3532ZM10.5305 9.99826C10.5278 9.99053 10.4611 9.81219 10.4594 9.80793C10.4587 9.80606 10.4578 9.80693 10.4564 9.81066C10.4534 9.81993 10.3852 10.0019 10.3843 10.0034C10.3838 10.0041 10.4171 10.0048 10.4582 10.0049H10.5331L10.5305 9.99819V9.99826ZM11.0998 10.3525C11.0919 10.3501 11.0834 10.341 11.0811 10.3326C11.0799 10.3278 11.0796 10.2101 11.0804 9.96819L11.0816 9.61106L11.0864 9.60453C11.096 9.59199 11.0952 9.59213 11.1812 9.59233C11.2529 9.59253 11.2589 9.59266 11.2649 9.59579C11.2684 9.59766 11.273 9.60179 11.275 9.60493C11.2771 9.60786 11.3171 9.72553 11.3638 9.86606C11.4107 10.0066 11.4494 10.1217 11.4499 10.1217C11.4504 10.1217 11.4903 10.0075 11.5386 9.86799C11.5934 9.70926 11.6281 9.61153 11.631 9.60706C11.6406 9.59313 11.6397 9.59333 11.7186 9.59346C11.7858 9.59346 11.7888 9.59366 11.7952 9.59726C11.7988 9.59933 11.8038 9.60413 11.8063 9.60773L11.8108 9.61459L11.8102 9.97379C11.8096 10.3124 11.8094 10.3334 11.8063 10.3389C11.8046 10.3419 11.8001 10.3469 11.7964 10.3497L11.7896 10.3548L11.7348 10.3546C11.6806 10.3546 11.68 10.3546 11.6742 10.3503C11.6709 10.3481 11.6664 10.3436 11.6642 10.3404L11.66 10.3345L11.6594 10.1284L11.6589 9.92239L11.6493 9.94973C11.644 9.96486 11.6113 10.0583 11.5768 10.1575C11.5162 10.3311 11.5136 10.3382 11.5066 10.3454C11.5023 10.3499 11.497 10.3533 11.4934 10.354C11.4899 10.3547 11.4671 10.3552 11.4424 10.3552C11.3992 10.355 11.397 10.3549 11.3893 10.3509C11.3848 10.3487 11.3795 10.3443 11.3774 10.3411C11.3754 10.3381 11.3419 10.2413 11.303 10.1262C11.2642 10.0113 11.2318 9.91713 11.231 9.91713C11.2302 9.91713 11.2295 10.0103 11.2292 10.1243C11.2288 10.3564 11.2298 10.3394 11.2154 10.3491L11.208 10.3539L11.1568 10.3541C11.1286 10.3543 11.103 10.3535 11.1 10.3525L11.0998 10.3527L11.0998 10.3525Z" fill="white"/>
<path d="M8.55161 10.3263C8.45848 10.3156 8.37468 10.2744 8.32415 10.2143C8.28155 10.1637 8.25408 10.0971 8.24495 10.0222C8.24201 9.99747 8.24221 9.93907 8.24528 9.91534C8.25595 9.83374 8.28821 9.75761 8.33441 9.70521C8.41328 9.61567 8.57701 9.57961 8.70995 9.62254C8.79381 9.64954 8.84361 9.70074 8.87195 9.78847C8.87588 9.80067 8.87881 9.81101 8.87848 9.81147C8.87748 9.81214 8.80601 9.83161 8.80068 9.83261C8.79761 9.83314 8.79601 9.83021 8.79141 9.81647C8.77821 9.77767 8.75808 9.74534 8.73575 9.72747C8.68695 9.68867 8.61821 9.67441 8.53768 9.68661C8.48615 9.69454 8.43495 9.72094 8.40555 9.75501C8.36141 9.80601 8.33955 9.86854 8.33681 9.95121C8.33421 10.033 8.34901 10.0953 8.38321 10.1469C8.43868 10.2307 8.56788 10.2681 8.68281 10.2338C8.71955 10.2228 8.75961 10.2037 8.78781 10.1837L8.80088 10.1744L8.80108 10.1083V10.0419L8.69735 10.0417L8.59341 10.0415L8.59361 10.001V9.96047L8.74201 9.96081L8.89041 9.96101L8.89008 10.0902L8.88988 10.2194L8.87355 10.2314C8.80675 10.2805 8.73975 10.3103 8.66808 10.323C8.64161 10.3277 8.57841 10.3293 8.55161 10.3263ZM9.37401 10.3326C9.30668 10.3252 9.25428 10.3035 9.21715 10.2675C9.18328 10.2347 9.16388 10.1939 9.15375 10.1347C9.14655 10.0921 9.14601 10.0701 9.14635 9.84327L9.14668 9.62114L9.19221 9.62134H9.23755L9.23788 9.85827C9.23821 10.1103 9.23808 10.1062 9.24768 10.1441C9.25988 10.1926 9.29595 10.2285 9.34748 10.2434C9.38868 10.2554 9.44435 10.2556 9.49128 10.2439C9.54695 10.23 9.57681 10.2001 9.59195 10.1434C9.60361 10.0999 9.60348 10.1041 9.60468 9.85307L9.60588 9.62201L9.65141 9.62221H9.69675L9.69621 9.83641C9.69601 9.95974 9.69501 10.0627 9.69381 10.0791C9.68608 10.1877 9.65788 10.2465 9.59208 10.2909C9.56615 10.3086 9.53095 10.322 9.49208 10.3293C9.47521 10.3323 9.39315 10.3346 9.37388 10.3325L9.37401 10.3326ZM10.1426 10.313C10.1449 10.3073 10.2055 10.1501 10.2775 9.96354L10.4085 9.62441L10.4577 9.62407L10.507 9.62354L10.6482 9.97054C10.7259 10.1614 10.7899 10.3191 10.7906 10.321C10.7918 10.3243 10.7887 10.3245 10.7405 10.3245L10.6889 10.3243L10.68 10.3011C10.675 10.2883 10.657 10.2407 10.6396 10.1956L10.6081 10.1135L10.4601 10.1128L10.312 10.1119L10.2735 10.2177L10.2351 10.3235L10.1868 10.3233H10.1387L10.1426 10.3129V10.313ZM10.5779 10.0338C10.5774 10.0319 10.5571 9.97781 10.5331 9.91354C10.509 9.84927 10.4819 9.77474 10.4729 9.74761C10.464 9.72061 10.4563 9.69814 10.4559 9.69761C10.4554 9.69707 10.452 9.70894 10.4484 9.72387C10.4365 9.77354 10.4252 9.80754 10.3829 9.91921C10.3601 9.98021 10.3407 10.0315 10.34 10.0335C10.3386 10.0367 10.3451 10.0369 10.4587 10.0371C10.5721 10.0373 10.5788 10.0371 10.5779 10.0338ZM11.1125 9.97301L11.1132 9.62274L11.1819 9.62341L11.2505 9.62407L11.3433 9.90327C11.3943 10.0567 11.4389 10.1919 11.4424 10.2037C11.446 10.2154 11.4493 10.2247 11.4498 10.2243C11.4501 10.2238 11.4617 10.1907 11.4752 10.1505C11.4889 10.1105 11.5353 9.97574 11.5785 9.85121L11.657 9.62481L11.7185 9.62447L11.7801 9.62414L11.7794 9.97427L11.7787 10.3245L11.7353 10.3243H11.6918L11.6923 10.0301C11.6927 9.86821 11.6921 9.73681 11.6911 9.73787C11.6903 9.73887 11.6471 9.86121 11.5955 10.0097C11.5437 10.1581 11.4979 10.2895 11.4936 10.3017L11.4857 10.3239H11.4035L11.3035 10.0273C11.2485 9.86427 11.2029 9.72961 11.202 9.72787C11.2011 9.72634 11.2001 9.85967 11.1998 10.0242L11.1991 10.3233H11.1557L11.1122 10.3231L11.1127 9.97301H11.1125Z" fill="#BD0728"/>
<path fill-rule="evenodd" clip-rule="evenodd" d="M8.07255 7.70599C8.08575 7.72419 8.08389 7.80272 8.08389 7.80272C8.09469 7.80926 8.27029 7.65326 8.27029 7.66032C8.27049 7.69312 8.27442 7.76086 8.27442 7.76086C8.27442 7.76086 8.45615 7.58806 8.46375 7.60626C8.47215 7.62672 8.46309 7.72686 8.46309 7.72686C8.46309 7.72686 8.58402 7.59352 8.60622 7.56952C8.62222 7.55232 8.61962 7.59119 8.62115 7.65386C8.62149 7.66506 8.81942 7.50786 8.83142 7.50506C8.85702 7.49959 8.86495 7.58666 8.86355 7.60846C8.86255 7.62459 9.04615 7.50366 9.03809 7.51966L9.05169 7.61259C9.10289 7.60552 9.22489 7.55999 9.29822 7.57186C9.32175 7.57566 9.32055 7.58752 9.29962 7.59606C8.94609 7.73919 8.67409 7.95492 8.51569 8.25559C8.46175 8.35799 8.44522 8.44732 8.45949 8.46979C8.45949 8.46979 8.52302 8.33306 8.59469 8.31159C8.60429 8.30886 8.61069 8.39919 8.62049 8.39406C8.62049 8.39406 8.67475 8.25699 8.71395 8.20646C8.72442 8.19286 8.74195 8.27846 8.75315 8.26572C8.75315 8.26572 8.78135 8.17399 8.83649 8.11006C8.84442 8.10092 8.85862 8.19679 8.86742 8.18872C8.92462 8.13599 8.97842 8.00372 8.99989 7.99392C9.01482 7.98226 9.01742 8.10386 9.03169 8.09339C9.03169 8.09339 9.11329 7.92952 9.16209 7.89979C9.19335 7.88052 9.19215 7.98932 9.19215 7.98932C9.25435 7.92799 9.32289 7.82626 9.35535 7.78212C9.37029 7.76186 9.36209 7.91612 9.37802 7.92212C9.39849 7.93006 9.53249 7.80392 9.54755 7.80132C9.55749 7.79959 9.56922 7.83726 9.54309 7.86746C9.54102 7.86986 9.37749 8.05852 9.37749 8.05852C9.40929 8.06452 9.42162 8.05559 9.44449 8.06159C9.51235 8.07946 9.31735 8.19132 9.32062 8.21226C9.32062 8.21226 9.41462 8.21052 9.38315 8.22872C9.36049 8.24192 9.23629 8.40192 9.23629 8.39626C9.23629 8.39332 9.29862 8.39766 9.29829 8.41552C9.29775 8.44866 9.19502 8.61959 9.19402 8.61859C9.18835 8.61292 9.24915 8.61119 9.25742 8.62806C9.27255 8.65912 9.15195 8.79746 9.17549 8.82099C9.17875 8.82426 9.24435 8.82199 9.27355 8.82852C9.28762 8.83159 9.32715 9.07972 9.31722 9.06972C9.31495 9.06732 9.35949 8.83712 9.38649 8.76699C9.40295 8.72452 9.45575 8.83106 9.46002 8.82159C9.45775 8.82159 9.44935 8.67026 9.45675 8.60132C9.45882 8.58206 9.49675 8.62146 9.49629 8.60306C9.49489 8.56132 9.49149 8.51666 9.50009 8.47592C9.50662 8.44519 9.53889 8.53139 9.55149 8.50819C9.55149 8.50819 9.51229 8.35839 9.52862 8.31612C9.53942 8.28832 9.56555 8.38346 9.58275 8.38726C9.58275 8.38726 9.57315 8.27079 9.59115 8.24072L9.64562 8.29912C9.65749 8.28039 9.65522 8.09899 9.66622 8.08199C9.67535 8.06772 9.73182 8.14999 9.74029 8.13712C9.74782 8.12546 9.71642 7.99072 9.72342 7.98012C9.73335 7.96486 9.79542 8.01759 9.79662 8.01652C9.82189 7.99112 9.82102 7.92772 9.83169 7.90419C9.86022 7.84046 10.0238 7.83219 10.043 7.87759C10.0525 7.89959 10.046 7.92792 10.0422 7.96212C10.0437 7.96352 10.1241 7.96932 10.1248 7.96312C10.1248 7.96312 10.1152 8.03819 10.1209 8.12086C10.1218 8.13186 10.2025 8.11812 10.2036 8.12912C10.211 8.20692 10.1931 8.21419 10.1931 8.21419C10.1938 8.21986 10.2476 8.20592 10.2484 8.21192C10.2543 8.24992 10.2421 8.29612 10.218 8.34059C10.2144 8.34692 10.295 8.33439 10.2962 8.34179C10.306 8.40019 10.3079 8.44659 10.2978 8.52906C10.2969 8.53579 10.3766 8.47079 10.3778 8.47752C10.3898 8.54692 10.376 8.62186 10.3832 8.69366C10.3849 8.71032 10.4359 8.64399 10.4406 8.66326C10.4452 8.68212 10.4292 8.81959 10.437 8.82732C10.437 8.82732 10.5224 8.82306 10.5299 8.83026C10.5976 8.89379 10.5847 9.00479 10.5847 9.00479C10.6032 8.99106 10.5962 8.85739 10.5775 8.73506C10.5754 8.72219 10.6431 8.72712 10.641 8.71512C10.641 8.71512 10.5668 8.67046 10.5424 8.54606C10.5373 8.51946 10.6141 8.52492 10.6141 8.52492C10.5928 8.47599 10.5554 8.46666 10.5236 8.41959C10.5132 8.40412 10.6033 8.39706 10.6033 8.39259C10.6035 8.34566 10.5274 8.32332 10.488 8.27459C10.4712 8.25379 10.5702 8.25279 10.5702 8.25279C10.5412 8.21239 10.4454 8.19472 10.3966 8.14132C10.37 8.11226 10.4937 8.08379 10.4922 8.07879C10.4786 8.03599 10.3623 8.02259 10.306 7.97432C10.2943 7.96439 10.3795 7.93066 10.3795 7.93066C10.3709 7.91246 10.1852 7.79032 10.2797 7.80146C10.3196 7.80626 10.4005 7.86299 10.4068 7.85439C10.4068 7.85439 10.4034 7.78312 10.4116 7.77452C10.4427 7.74226 10.5499 7.91159 10.5864 7.90472C10.5864 7.90472 10.5998 7.78346 10.6162 7.78019C10.6554 7.77279 10.7032 7.95679 10.7418 7.95679C10.747 7.95679 10.7499 7.85046 10.7698 7.84459C10.7924 7.83806 10.8176 7.96379 10.8461 7.99166C10.8726 8.01726 10.8729 7.89339 10.8884 7.91692C10.9146 7.95486 10.921 8.03406 10.9569 8.06899C10.9802 8.09166 10.9846 7.95972 11.0105 7.97739C11.0406 7.99786 11.0335 8.06619 11.0674 8.09986C11.0835 8.11586 11.0944 8.01272 11.1127 8.02786C11.129 8.04106 11.14 8.16719 11.1576 8.18712C11.1799 8.21252 11.2057 8.12066 11.2288 8.13526C11.2455 8.14592 11.2416 8.25499 11.257 8.27839C11.2886 8.32686 11.3052 8.21979 11.3261 8.23632C11.3407 8.24752 11.3723 8.37292 11.3856 8.38286C11.415 8.40519 11.4311 8.32579 11.4534 8.33699C11.4696 8.34492 11.5022 8.50639 11.5156 8.50226C11.5244 8.49952 11.546 8.13426 11.4055 7.98019C11.1765 7.72899 10.7664 7.58406 10.4318 7.58039C10.4318 7.58039 10.6 7.54686 10.6044 7.51906C10.6134 7.46359 10.6968 7.47012 10.7551 7.48279C10.7654 7.48506 10.7599 7.38472 10.7613 7.38419C10.8134 7.38299 10.8599 7.41372 10.9097 7.44399C10.9252 7.45346 10.8782 7.34346 10.8948 7.35292C10.9587 7.38986 11.0298 7.40066 11.0729 7.44552C11.0842 7.45739 11.0598 7.36086 11.0598 7.36086C11.0918 7.35312 11.1548 7.39919 11.1796 7.44226C11.1916 7.46359 11.1789 7.32972 11.1883 7.35346C11.1883 7.35346 11.2996 7.39126 11.3116 7.43812C11.3116 7.43812 11.3208 7.35326 11.3357 7.35772C11.3804 7.36939 11.4196 7.44486 11.4544 7.45566C11.4544 7.45566 11.44 7.38006 11.4514 7.38299C11.5352 7.40412 11.6262 7.45599 11.6261 7.45566C11.5788 7.33746 11.3997 7.21359 11.0844 7.18046C11.0266 7.17446 10.7917 7.16486 10.5926 7.21106C10.4294 7.24886 10.3005 7.27032 10.327 7.24452C10.4348 7.13886 10.6092 7.12599 10.6572 7.10139C10.6915 7.08386 10.5416 7.02599 10.5713 7.01772C10.6008 7.01066 10.7348 6.99952 10.7348 6.99952C10.7639 6.97686 10.6374 6.93252 10.6563 6.89952C10.6941 6.83339 10.9176 6.89352 10.9367 6.86846C10.9429 6.86006 10.8406 6.79959 10.845 6.79066C10.8613 6.75712 11.0602 6.81539 11.0648 6.78619C11.0648 6.78619 11.0045 6.74119 10.9616 6.70426C10.9564 6.69979 11.1392 6.65066 11.1392 6.65066C11.1358 6.64719 11.108 6.62766 11.066 6.61132C11.0277 6.59639 11.2265 6.54466 11.2265 6.54466C10.9746 6.42952 10.321 6.75699 10.1912 7.09679C10.1576 7.17786 10.1565 7.08972 10.1636 7.02106C10.1703 6.94719 10.1796 6.88239 10.1716 6.81459C10.1692 6.79446 10.1182 6.86799 10.1148 6.84846C10.1017 6.77632 10.1404 6.69712 10.1227 6.61706C10.1168 6.59006 10.0492 6.69659 10.0402 6.66966C10.0155 6.59559 10.0588 6.49152 10.0412 6.38946C10.0344 6.34959 9.97029 6.47486 9.94882 6.43912C9.92375 6.39772 9.93475 6.24432 9.92289 6.22112C9.91329 6.20259 9.85622 6.29466 9.85142 6.27732C9.77409 5.99612 9.87682 5.96106 9.72842 6.11959C9.72329 6.12506 9.69029 5.95332 9.68462 5.95912C9.62382 6.08932 9.52415 5.86632 9.49015 5.88712C9.46475 5.90292 9.55955 5.98919 9.56062 6.02799C9.56115 6.04672 9.47335 6.04792 9.47335 6.04792C9.47522 6.08006 9.64035 6.17006 9.64569 6.20526C9.64995 6.23432 9.52889 6.22706 9.52889 6.22706C9.53269 6.26639 9.67029 6.30386 9.67782 6.34559C9.68209 6.36859 9.61342 6.37379 9.61562 6.39712C9.61922 6.43306 9.74862 6.50399 9.75289 6.54059C9.75582 6.56599 9.67022 6.57652 9.66822 6.60019C9.66562 6.62886 9.84002 6.72506 9.84022 6.75206C9.84042 6.79019 9.77082 6.77059 9.73922 6.78986C9.69475 6.81686 9.88195 6.92612 9.88989 6.95719C9.89609 6.98452 9.81495 6.96046 9.81222 6.98539C9.80875 7.01806 9.90395 7.06732 9.92575 7.12332C9.94755 7.17866 9.92522 7.19272 9.89395 7.17072C9.83122 7.12659 9.57835 6.85786 9.51122 6.78626C9.41362 6.68212 9.21382 6.56552 9.01455 6.55866C8.99375 6.56499 9.12175 6.65552 9.12262 6.68839C9.12282 6.69679 9.06509 6.70932 9.06762 6.71192C9.10302 6.74732 9.21315 6.78939 9.21315 6.78939L9.18155 6.84626C9.18895 6.86292 9.24115 6.86739 9.32482 6.89486C9.32482 6.89486 9.26209 6.93366 9.26675 6.93732C9.31109 6.97272 9.39695 6.99886 9.39695 6.99886L9.31242 7.02719C9.30742 7.04352 9.50262 7.12166 9.50262 7.12166C9.50262 7.12166 9.44162 7.17426 9.44435 7.17699C9.45929 7.19192 9.60275 7.22512 9.60275 7.22512C9.60515 7.22752 9.50142 7.25986 9.50209 7.26052C9.53969 7.29812 9.64349 7.31032 9.66769 7.37252C9.66769 7.37252 9.68195 7.40792 9.64089 7.40119C9.47942 7.34259 9.22929 7.22132 8.74429 7.26892C8.24849 7.33352 7.87069 7.76459 7.87722 7.80752C7.87722 7.80752 8.05449 7.68039 8.07322 7.70619L8.07255 7.70599Z" fill="#109421"/>
<path fill-rule="evenodd" clip-rule="evenodd" d="M9.8069 7.64383C9.85556 7.6125 9.92196 7.6289 9.95516 7.6805C9.98836 7.7321 9.97589 7.7993 9.92723 7.83063C9.87856 7.86196 9.81216 7.84556 9.77896 7.79396C9.74576 7.74236 9.75823 7.67516 9.8069 7.64383Z" fill="#8C4200"/>
<path d="M10.1426 7.90283C10.1807 7.84399 10.1665 7.7672 10.111 7.73131C10.0555 7.69542 9.97968 7.71403 9.94163 7.77286C9.90359 7.8317 9.91773 7.90849 9.97323 7.94438C10.0287 7.98027 10.1046 7.96166 10.1426 7.90283Z" fill="#8C4200"/>
<path d="M10.007 8.00544C10.0476 7.94262 10.0326 7.86063 9.97332 7.82232C9.91408 7.78402 9.83312 7.80389 9.7925 7.86672C9.75187 7.92954 9.76696 8.01152 9.82619 8.04983C9.88543 8.08814 9.96639 8.06826 10.007 8.00544Z" fill="#8C4200"/>
<path fill-rule="evenodd" clip-rule="evenodd" d="M8.91846 11.9727H9.07632V12.0907H8.91846V11.9727Z" fill="black"/>
<path fill-rule="evenodd" clip-rule="evenodd" d="M8.12888 12.0483C8.12888 12.0483 9.16601 12.1273 9.80201 11.9907C9.80201 11.9907 9.85541 12.027 9.77868 12.1167C9.70188 12.2062 9.50761 12.2254 9.40088 12.2447C9.40088 12.2447 9.37528 12.3022 9.37734 12.3321C9.37961 12.362 9.44468 12.3589 9.47661 12.3524L9.50854 12.3461C9.50854 12.3461 9.49361 12.4581 9.10101 12.473C8.97214 12.478 8.54728 12.4869 8.45748 12.361C8.45748 12.361 8.53528 12.3673 8.55554 12.361C8.57581 12.3547 8.56101 12.2735 8.55348 12.2617C8.54608 12.2501 8.27808 12.2617 8.13741 12.1315C8.10254 12.0944 8.08588 12.0549 8.08588 12.0408C8.08588 12.0396 8.12881 12.0483 8.12881 12.0483L8.12888 12.0483ZM8.66934 12.2659C8.66934 12.2659 8.95314 12.3022 9.27974 12.2659C9.27974 12.2659 9.28834 12.3278 9.27341 12.3513C9.25848 12.3749 8.88174 12.3929 8.69168 12.3599C8.66108 12.3501 8.66008 12.3127 8.66934 12.2659Z" fill="#8C4200"/>
<path fill-rule="evenodd" clip-rule="evenodd" d="M8.27258 11.9979C8.27258 11.9979 8.65738 11.5887 8.53958 10.7349C8.53958 10.7349 8.94058 10.8381 9.34925 11.4279C9.34925 11.4279 9.46845 11.5476 9.60865 11.9747L8.27258 11.9979V11.9979Z" fill="#FDF9FF"/>
<path fill-rule="evenodd" clip-rule="evenodd" d="M10.0078 4.6167C10.0078 4.6167 6.71252 7.06977 6.71252 9.9623C6.71252 12.8548 10.0078 15.3777 10.0078 15.3777C10.0078 15.3777 13.2819 13.0632 13.2819 9.9623C13.2819 6.86137 10.0078 4.6167 10.0078 4.6167ZM10.0066 5.21043C10.0066 5.21043 7.07506 7.39277 7.07506 9.9661C7.07506 12.5394 10.0066 14.784 10.0066 14.784C10.0066 14.784 12.9194 12.725 12.9194 9.9661C12.9194 7.20723 10.0066 5.21043 10.0066 5.21043Z" fill="#C62139"/>
</g>
</svg>
