<svg width="20" height="20" viewBox="0 0 20 20" fill="none" xmlns="http://www.w3.org/2000/svg">
<g clip-path="url(#clip0_1_482165)">
<rect width="20" height="20" rx="10" fill="white"/>
<path fill-rule="evenodd" clip-rule="evenodd" d="M0 0H5.33333V5.33333H0V0ZM8 0H13.3333V5.33333H8V0ZM0 8H5.33333V13.3333H0V8ZM8 8H13.3333V13.3333H8V8ZM13.3333 0H28V2.66667H13.3333V0ZM13.3333 5.33333H28V8H13.3333V5.33333Z" fill="#1A47B8"/>
<path fill-rule="evenodd" clip-rule="evenodd" d="M0 10.6665H28V13.3332H0V10.6665ZM5.33333 10.6665H8V13.3332H5.33333V10.6665ZM0 15.9998H28V18.6665H0V15.9998Z" fill="#1A47B8"/>
</g>
<defs>
<clipPath id="clip0_1_482165">
<rect width="20" height="20" rx="10" fill="white"/>
</clipPath>
</defs>
</svg>
