<svg width="20" height="20" viewBox="0 0 20 20" fill="none" xmlns="http://www.w3.org/2000/svg">
<g clip-path="url(#clip0_1_482245)">
<rect width="20" height="20" rx="10" fill="white"/>
<path fill-rule="evenodd" clip-rule="evenodd" d="M8 12H-4V8H8V0H12V8H24V12H12V20H8V12Z" fill="#F93939"/>
<path fill-rule="evenodd" clip-rule="evenodd" d="M15.9997 14.6665H14.6663V15.9998H15.9997V17.3332H17.333V15.9998H18.6663V14.6665H17.333V13.3332H15.9997V14.6665ZM15.9997 3.99984H14.6663V5.33317H15.9997V6.6665H17.333V5.33317H18.6663V3.99984H17.333V2.6665H15.9997V3.99984ZM2.66634 3.99984H1.33301V5.33317H2.66634V6.6665H3.99967V5.33317H5.33301V3.99984H3.99967V2.6665H2.66634V3.99984ZM2.66634 14.6665H1.33301V15.9998H2.66634V17.3332H3.99967V15.9998H5.33301V14.6665H3.99967V13.3332H2.66634V14.6665Z" fill="#F93939"/>
</g>
<defs>
<clipPath id="clip0_1_482245">
<rect width="20" height="20" rx="10" fill="white"/>
</clipPath>
</defs>
</svg>
