<svg width="20" height="20" viewBox="0 0 20 20" fill="none" xmlns="http://www.w3.org/2000/svg">
<rect width="20" height="20" rx="10" fill="#F93939"/>
<path fill-rule="evenodd" clip-rule="evenodd" d="M0 4H20V16H0V4Z" fill="#FFDA2C"/>
<path fill-rule="evenodd" clip-rule="evenodd" d="M0 4L10 10L0 16V4Z" fill="#249F58"/>
<path fill-rule="evenodd" clip-rule="evenodd" d="M1.33301 9.3335H2.66634V10.6668H1.33301V9.3335Z" fill="#FFDA2C"/>
<path fill-rule="evenodd" clip-rule="evenodd" d="M20 4L10 10L20 16V4Z" fill="#249F58"/>
<path fill-rule="evenodd" clip-rule="evenodd" d="M5.33331 1.3335H6.66665V2.66683H5.33331V1.3335ZM9.33331 1.3335H10.6666V2.66683H9.33331V1.3335ZM13.3333 1.3335H14.6666V2.66683H13.3333V1.3335ZM5.33331 17.3335H6.66665V18.6668H5.33331V17.3335ZM9.33331 17.3335H10.6666V18.6668H9.33331V17.3335ZM13.3333 17.3335H14.6666V18.6668H13.3333V17.3335Z" fill="#FFDA2C"/>
<path d="M9.99959 13.3337C11.8405 13.3337 13.3329 11.8413 13.3329 10.0003C13.3329 8.15938 11.8405 6.66699 9.99959 6.66699C8.15864 6.66699 6.66626 8.15938 6.66626 10.0003C6.66626 11.8413 8.15864 13.3337 9.99959 13.3337Z" fill="#F93939"/>
<path fill-rule="evenodd" clip-rule="evenodd" d="M10.0005 11.667L8.0405 12.6977L8.41383 10.515L6.82983 8.96833L9.0205 8.65233L10.0005 6.66699L10.9805 8.65366L13.1712 8.96966L11.5845 10.5163L11.9578 12.6977" fill="#FFDA2C"/>
</svg>
