<svg width="20" height="20" viewBox="0 0 20 20" fill="none" xmlns="http://www.w3.org/2000/svg">
<g clip-path="url(#clip0_1_482203)">
<rect width="20" height="20" rx="10" fill="white"/>
<path fill-rule="evenodd" clip-rule="evenodd" d="M-4 13.333H24V19.9997H-4V13.333Z" fill="#151515"/>
<path fill-rule="evenodd" clip-rule="evenodd" d="M9.33333 10.6667H10.6667V11.3267C10.6667 11.7133 10.9653 12 11.3333 12C11.6907 12 12 11.6987 12 11.3267V8.66C12 8.296 12.3093 8 12.6667 8C13.0347 8 13.3333 8.288 13.3333 8.66V10.6667H15.32C15.696 10.6667 16 10.976 16 11.3333C16 11.7013 15.704 12 15.32 12H4.68C4.304 12 4 11.6907 4 11.3333C4 11.0507 4.17333 10.8093 4.42667 10.712C4.46 10.6267 4.51067 10.5453 4.58133 10.476L6.47467 8.58267C6.73333 8.324 7.16133 8.33333 7.41467 8.58533C7.676 8.84533 7.684 9.25867 7.42 9.52267L6.276 10.6667H8V10.0067C8 9.63333 8.30933 9.33333 8.66667 9.33333C9.03467 9.33333 9.33333 9.61867 9.33333 10.0067V10.6667Z" fill="#249F58"/>
<path fill-rule="evenodd" clip-rule="evenodd" d="M-4 0H24V6.66667H-4V0Z" fill="#F93939"/>
</g>
<defs>
<clipPath id="clip0_1_482203">
<rect width="20" height="20" rx="10" fill="white"/>
</clipPath>
</defs>
</svg>
