<svg width="20" height="20" viewBox="0 0 20 20" fill="none" xmlns="http://www.w3.org/2000/svg">
<g clip-path="url(#clip0_1_482325)">
<rect width="20" height="20" rx="10" fill="#03BCDB"/>
<path fill-rule="evenodd" clip-rule="evenodd" d="M1.33301 3.3265C1.33301 2.9625 1.64234 2.6665 1.99967 2.6665C2.36767 2.6665 2.66634 2.9545 2.66634 3.3265V6.0065C2.66634 6.3705 2.35701 6.6665 1.99967 6.6665C1.63167 6.6665 1.33301 6.3785 1.33301 6.0065V3.3265ZM2.66634 5.99317C2.66634 5.62917 2.97567 5.33317 3.33301 5.33317C3.70101 5.33317 3.99967 5.62117 3.99967 5.99317V8.67317C3.99967 9.03717 3.69034 9.33317 3.33301 9.33317C2.96501 9.33317 2.66634 9.04517 2.66634 8.67317V5.99317ZM2.66634 11.3265C2.66634 10.9625 2.97567 10.6665 3.33301 10.6665C3.70101 10.6665 3.99967 10.9545 3.99967 11.3265V14.0065C3.99967 14.3705 3.69034 14.6665 3.33301 14.6665C2.96501 14.6665 2.66634 14.3785 2.66634 14.0065V11.3265ZM1.33301 13.9932C1.33301 13.6292 1.64234 13.3332 1.99967 13.3332C2.36767 13.3332 2.66634 13.6212 2.66634 13.9932V16.6732C2.66634 17.0372 2.35701 17.3332 1.99967 17.3332C1.63167 17.3332 1.33301 17.0452 1.33301 16.6732V13.9932ZM1.33301 8.6665C1.33301 8.2985 1.64234 7.99984 1.99967 7.99984C2.36767 7.99984 2.66634 8.30917 2.66634 8.6665C2.66634 9.0345 2.35701 9.33317 1.99967 9.33317C1.63167 9.33317 1.33301 9.02384 1.33301 8.6665ZM2.66634 3.33317C2.66634 2.96517 2.97567 2.6665 3.33301 2.6665C3.70101 2.6665 3.99967 2.97584 3.99967 3.33317C3.99967 3.70117 3.69034 3.99984 3.33301 3.99984C2.96501 3.99984 2.66634 3.6905 2.66634 3.33317ZM1.33301 9.99984C1.33301 9.63184 1.64234 9.33317 1.99967 9.33317C2.36767 9.33317 2.66634 9.6425 2.66634 9.99984C2.66634 10.3678 2.35701 10.6665 1.99967 10.6665C1.63167 10.6665 1.33301 10.3572 1.33301 9.99984ZM2.66634 16.6665C2.66634 16.2985 2.97567 15.9998 3.33301 15.9998C3.70101 15.9998 3.99967 16.3092 3.99967 16.6665C3.99967 17.0345 3.69034 17.3332 3.33301 17.3332C2.96501 17.3332 2.66634 17.0238 2.66634 16.6665ZM1.33301 11.3332C1.33301 10.9652 1.64234 10.6665 1.99967 10.6665C2.36767 10.6665 2.66634 10.9758 2.66634 11.3332C2.66634 11.7012 2.35701 11.9998 1.99967 11.9998C1.63167 11.9998 1.33301 11.6905 1.33301 11.3332Z" fill="#FFDA2C"/>
<path d="M14 11.9997C15.8409 11.9997 17.3333 10.5073 17.3333 8.66634C17.3333 6.82539 15.8409 5.33301 14 5.33301C12.159 5.33301 10.6667 6.82539 10.6667 8.66634C10.6667 10.5073 12.159 11.9997 14 11.9997Z" fill="#FFDA2C"/>
<path fill-rule="evenodd" clip-rule="evenodd" d="M9.33334 9.3335L10.6667 12.0002L14 13.3335L17.3333 12.0002L18.6667 9.3335V13.3335L14 14.6668L9.33334 13.3335V9.3335Z" fill="#FFDA2C"/>
</g>
<defs>
<clipPath id="clip0_1_482325">
<rect width="20" height="20" fill="white"/>
</clipPath>
</defs>
</svg>
