<svg width="20" height="20" viewBox="0 0 20 20" fill="none" xmlns="http://www.w3.org/2000/svg">
<g clip-path="url(#clip0_1_482341)">
<rect width="20" height="20" rx="10" fill="#151515"/>
<path fill-rule="evenodd" clip-rule="evenodd" d="M-4 13.333H24V14.6663H-4V13.333Z" fill="white"/>
<path fill-rule="evenodd" clip-rule="evenodd" d="M-4 14.667H24V20.0003H-4V14.667Z" fill="#0A6A30"/>
<path fill-rule="evenodd" clip-rule="evenodd" d="M-4 6.66699H24V13.3337H-4V6.66699Z" fill="#F93939"/>
<path fill-rule="evenodd" clip-rule="evenodd" d="M-4 5.33301H24V6.66634H-4V5.33301Z" fill="white"/>
<path fill-rule="evenodd" clip-rule="evenodd" d="M12.5513 7.88574C12.6473 7.88574 13.218 6.99241 13.218 5.88574C13.218 4.78174 12.6473 3.88574 12.5513 3.88574C12.458 3.88574 11.8847 4.78174 11.8847 5.88574C11.8847 6.99241 12.458 7.88574 12.5513 7.88574ZM8.63265 7.30041C8.56599 7.36708 7.52599 7.14041 6.74732 6.35774C5.96732 5.57641 5.73799 4.53908 5.80599 4.47241C5.87265 4.40574 6.90999 4.63241 7.69132 5.41508C8.47265 6.19641 8.70065 7.23374 8.63399 7.30174L8.63265 7.30041ZM11.138 13.3444C11.2047 13.2817 12.2447 13.4951 13.0247 14.2244C13.8047 14.9577 14.034 15.9271 13.9673 15.9897C13.9007 16.0524 12.8607 15.8391 12.0793 15.1097C11.2993 14.3764 11.07 13.4071 11.138 13.3444ZM8.63265 13.3444C8.56599 13.2817 7.52599 13.4951 6.74732 14.2244C5.96732 14.9577 5.73799 15.9271 5.80599 15.9897C5.87265 16.0524 6.90999 15.8391 7.69132 15.1097C8.47265 14.3764 8.70065 13.4071 8.63399 13.3444H8.63265Z" fill="white"/>
<path fill-rule="evenodd" clip-rule="evenodd" d="M9.99959 16C10.4756 16 13.3329 13.3133 13.3329 10C13.3329 6.68667 10.4756 4 9.99959 4C9.52359 4 6.66626 6.68667 6.66626 10C6.66626 13.3133 9.52359 16 9.99959 16Z" fill="#F93939"/>
<path fill-rule="evenodd" clip-rule="evenodd" d="M7.33293 12C7.42626 12 7.99959 11.104 7.99959 10C7.99959 8.896 7.42626 8 7.33293 8C7.23959 8 6.66626 8.896 6.66626 10C6.66626 11.104 7.23959 12 7.33293 12ZM12.6663 12C12.7596 12 13.3329 11.104 13.3329 10C13.3329 8.896 12.7596 8 12.6663 8C12.5729 8 11.9996 8.896 11.9996 10C11.9996 11.104 12.5729 12 12.6663 12Z" fill="#151515"/>
<path d="M10.6667 10C10.6667 8.89543 10.3682 8 10 8C9.63182 8 9.33334 8.89543 9.33334 10C9.33334 11.1046 9.63182 12 10 12C10.3682 12 10.6667 11.1046 10.6667 10Z" fill="white"/>
</g>
<defs>
<clipPath id="clip0_1_482341">
<rect width="20" height="20" rx="10" fill="white"/>
</clipPath>
</defs>
</svg>
