<svg width="20" height="20" viewBox="0 0 20 20" fill="none" xmlns="http://www.w3.org/2000/svg">
<g clip-path="url(#clip0_1_482247)">
<path d="M17.0696 17.0693C20.9739 13.165 20.9739 6.83498 17.0696 2.93073C13.1654 -0.973526 6.83534 -0.973527 2.93109 2.93073C-0.973162 6.83498 -0.973162 13.165 2.93109 17.0693C6.83534 20.9735 13.1654 20.9735 17.0696 17.0693Z" fill="#244AA5"/>
<path d="M15.8636 12.6222C15.8636 12.6222 15.8635 12.6218 15.8636 12.6217C15.9927 12.4659 16.1098 12.3248 16.2207 12.1911C16.1453 12.0742 16.0677 11.954 15.9921 11.8369C15.8891 11.8461 15.787 11.8441 15.6912 11.8678C15.6135 11.8869 15.5447 11.948 15.4749 11.9889C15.4645 11.995 15.4543 12.0021 15.4471 12.0117C15.422 12.0459 15.3741 12.045 15.3489 12.0145C15.33 11.9916 15.3115 11.9683 15.2962 11.9432C15.2724 11.9042 15.2587 11.859 15.2493 11.8369H15.2492C15.1491 11.82 15.0671 11.8135 14.9903 11.7899C14.9549 11.7789 14.9228 11.7406 14.9177 11.704C14.8943 11.5344 14.8279 11.4945 14.6559 11.5253C14.5694 11.5407 14.4682 11.5373 14.3869 11.5068C14.1747 11.4274 13.9629 11.3703 13.7338 11.3939C13.693 11.3981 13.6493 11.3758 13.607 11.3657V11.3656C13.6224 11.3263 13.6381 11.2872 13.6532 11.2478C13.7123 11.0943 13.7714 10.9409 13.8291 10.787C13.8324 10.778 13.819 10.7633 13.8213 10.7531C13.8358 10.691 13.8533 10.6297 13.8683 10.5677C13.8846 10.5001 13.8993 10.4321 13.9146 10.3643L13.9145 10.3642C13.8419 10.3607 13.7648 10.3401 13.6977 10.3574C13.5581 10.3934 13.4317 10.3567 13.3879 10.2368C13.3418 10.1106 13.2688 10.0835 13.1632 10.0903C13.0779 10.0956 12.9938 10.1193 12.9126 10.1342H12.9125C12.8588 10.0635 12.7932 9.99559 12.7499 9.91573C12.6799 9.78666 12.5933 9.67169 12.6388 9.49383C12.6905 9.29198 12.5697 9.12047 12.395 9.06808H12.3949C12.3808 9.0911 12.368 9.11724 12.3504 9.13969C12.3183 9.18059 12.2835 9.21934 12.2498 9.25897H12.2497C12.2173 9.2114 12.1815 9.16573 12.1538 9.1157C12.1357 9.0829 12.1285 9.04394 12.1178 9.00734C12.0753 8.86254 12.026 8.71917 11.9943 8.57207C11.9774 8.49369 11.9913 8.40871 11.9913 8.3268L11.9378 8.35889H11.9377C11.8406 8.30107 11.7436 8.2433 11.646 8.18523C11.6459 8.18512 11.6459 8.18512 11.6458 8.18523C11.4819 8.40825 11.4057 8.37273 11.2664 8.20557C11.1539 8.07072 11.0107 8.0985 10.9007 8.17082C10.7937 8.24125 10.7404 8.21603 10.6578 8.14837C10.4627 7.98901 10.2585 7.84231 9.99699 7.80864C9.9689 7.805 9.9425 7.78844 9.95158 7.79193C10.0044 7.68418 10.0393 7.61314 10.0902 7.5094C10.0903 7.5094 10.0903 7.50929 10.0903 7.50929L10.2927 7.47541C10.2927 7.47541 10.293 7.47516 10.2929 7.4751C10.1987 7.34963 10.1284 7.23507 10.0366 7.14157C9.97613 7.08001 9.88833 7.0308 9.80508 7.01435C9.77756 7.00887 9.7264 7.12256 9.67079 7.20411C9.56791 7.19196 9.43603 7.17627 9.27093 7.15669C9.27083 7.15669 9.27067 7.1568 9.27062 7.15685C9.11531 7.5421 8.75692 7.50612 8.44199 7.50914C8.44199 7.50914 8.44189 7.50914 8.44189 7.50924L8.55917 7.8213C8.55917 7.8213 8.55932 7.82155 8.55947 7.82155C8.86015 7.80843 8.87102 8.14519 9.03971 8.31491C9.06785 8.3433 8.98594 8.49298 8.93888 8.57776C8.92202 8.6082 8.85851 8.61287 8.83965 8.61999C8.83954 8.61999 8.83949 8.62014 8.83949 8.6203C8.86656 8.73886 8.89019 8.8423 8.90592 8.91149C8.82586 8.99853 8.7767 9.07572 8.70694 9.12088C8.64338 9.16199 8.54784 9.20099 8.48377 9.18208C8.40119 9.15758 8.36019 9.14963 8.31098 9.22821C8.24342 9.33601 8.16269 9.43545 8.08042 9.54826C8.08042 9.54837 8.08032 9.54837 8.08032 9.54826C7.96663 9.43837 7.8718 9.50372 7.80768 9.6026C7.61895 9.89379 7.87842 10.03 8.02096 10.1756C7.82511 10.3212 7.64002 10.4639 7.44796 10.5966C7.4132 10.6205 7.32894 10.6247 7.30274 10.6002C7.17506 10.4808 7.05445 10.5359 6.92723 10.5915C6.81887 10.6389 6.70862 10.6822 6.59739 10.7222C6.57304 10.7309 6.54065 10.7138 6.51251 10.7158C6.45166 10.7203 6.3694 10.7068 6.33429 10.7406C6.18815 10.8811 6.05934 11.0393 5.91741 11.1846C5.87435 11.2286 5.80285 11.2867 5.75564 11.2779C5.5339 11.2363 5.31605 11.1737 5.09688 11.1185C5.05203 11.1072 4.98693 11.0701 4.96566 11.0874C4.80138 11.221 4.51152 11.1953 4.49317 11.5216C4.47938 11.7661 4.52572 11.8563 4.76632 11.904C4.95151 11.9407 5.12379 12.0425 5.32395 12.1244C5.32405 12.1244 5.3241 12.1245 5.32405 12.1246C5.14116 12.3107 4.98503 12.459 5.12943 12.695C5.14286 12.7169 5.14106 12.7551 5.13342 12.782C5.0755 12.9867 5.17781 13.1132 5.34783 13.1881C5.56383 13.283 5.71996 13.425 5.8031 13.6489C5.83222 13.7274 5.86984 13.8094 5.9253 13.87C6.03581 13.9908 6.11521 14.1032 5.95713 14.2376V14.2377C5.97282 14.2626 5.97887 14.2815 5.99173 14.2913C6.12977 14.3956 6.23536 14.4964 6.16103 14.7054C6.13136 14.7891 6.1903 14.9336 6.35387 14.9151C6.47796 14.9011 6.60241 14.8853 6.72702 14.8825C6.77341 14.8815 6.82487 14.9084 6.86665 14.9345C7.05481 15.052 7.24026 15.1741 7.42699 15.294C7.50957 15.347 7.60091 15.3895 7.67457 15.4527C7.97903 15.7139 8.06387 16.0986 8.21313 16.4455C8.24685 16.524 8.23055 16.6234 8.24065 16.7128C8.25495 16.8405 8.22635 17.014 8.29811 17.0858C8.44507 17.2328 8.47106 17.4143 8.53713 17.5864C8.56004 17.646 8.5687 17.7126 8.5992 17.7675C8.69879 17.9467 8.66055 18.1084 8.49443 18.2235C8.44035 18.2611 8.35496 18.3407 8.36603 18.3707C8.42856 18.5398 8.43707 18.7489 8.648 18.8424L8.6481 18.8423C8.68957 18.806 8.72416 18.7536 8.76973 18.7408C8.83816 18.7216 8.94765 18.6987 8.9804 18.7333C9.05575 18.8132 9.12177 18.7989 9.17984 18.7475C9.34781 18.5991 9.50676 18.4405 9.6631 18.2918V18.2917C9.60313 18.2121 9.51322 18.1317 9.52706 18.1046C9.60708 17.9487 9.48037 17.8398 9.46427 17.7097C9.4308 17.4389 9.49103 17.1741 9.6977 16.9935C9.81805 16.8882 10.001 16.8128 10.16 16.8043C10.3485 16.7942 10.4646 16.7343 10.5712 16.5881C10.6162 16.5266 10.7179 16.5012 10.7983 16.472C10.8748 16.4442 10.9688 16.4519 11.0347 16.4111C11.2618 16.2706 11.482 16.1187 11.7004 15.9647C11.7907 15.901 12.1463 15.9035 12.1779 15.999C12.2582 16.2419 12.5205 16.3952 12.5029 16.686C12.5003 16.7287 12.5773 16.8133 12.619 16.8143C12.7306 16.817 12.8437 16.788 12.9549 16.765C13.0223 16.751 13.0872 16.7248 13.1717 16.6984C13.1718 16.6984 13.1718 16.6983 13.1718 16.6983C13.1537 16.6575 13.1194 16.5967 13.1003 16.5314C13.0868 16.4852 13.078 16.4268 13.0945 16.3846C13.202 16.1093 13.3406 15.8544 13.5637 15.6496C13.6582 15.5628 13.7308 15.5306 13.8344 15.6277C13.8711 15.6621 13.9305 15.672 13.9733 15.6903H13.9734V15.3464H13.9735C14.2555 15.2562 14.4691 15.2694 14.5352 15.5834C14.5352 15.5836 14.5353 15.5836 14.5354 15.5836C14.6102 15.5705 14.6688 15.5654 14.7243 15.5497C14.8925 15.5021 14.9223 15.4133 14.8295 15.2637C14.7899 15.2 14.7603 15.13 14.7239 15.0585L14.5284 15.1004V14.5572C14.5284 14.5572 14.5284 14.5571 14.5285 14.5571C14.6631 14.6047 14.7782 14.6179 14.8541 14.4769C14.8637 14.4591 14.9467 14.4601 14.9796 14.4795C15.0767 14.5371 15.1189 14.488 15.1593 14.4103C15.1943 14.3427 15.2342 14.2777 15.2773 14.2023C15.2584 14.1652 15.2366 14.1265 15.2155 14.0863C15.1943 14.0461 15.174 14.0042 15.158 13.9608C15.1426 13.9188 15.1404 13.847 15.1658 13.8189C15.3248 13.6422 15.4933 13.4738 15.6605 13.3009C15.6605 13.3009 15.6606 13.3009 15.6606 13.3008C15.5902 13.1385 15.6108 13.0989 15.7931 13.0572C15.9626 13.0185 16.0336 12.8791 15.9504 12.7454C15.924 12.703 15.8928 12.6635 15.8636 12.6223L15.8636 12.6222Z" fill="#D0A650"/>
<path d="M3.82442 4.19971L4.06512 4.95314L4.84972 4.94463L4.21746 5.39888L4.45811 6.1499L3.82442 5.70355L3.19077 6.1499L3.42189 5.41579L2.79916 4.94463L3.56295 4.95314L3.82442 4.19971Z" fill="white"/>
<path d="M6.22537 3.31641L6.46608 4.06984L7.25067 4.06133L6.61841 4.51557L6.85907 5.2666L6.22537 4.82025L5.59173 5.2666L5.82285 4.53249L5.20012 4.06133L5.96391 4.06984L6.22537 3.31641Z" fill="white"/>
<path d="M8.77205 2.86572L9.01271 3.61916L9.79731 3.61065L9.16504 4.06489L9.4057 4.81597L8.77205 4.36962L8.13836 4.81597L8.36948 4.08186L7.74675 3.61065L8.51054 3.61916L8.77205 2.86572Z" fill="white"/>
<path d="M16.2511 4.19971L16.0104 4.95314L15.2258 4.94463L15.858 5.39888L15.6174 6.1499L16.2511 5.70355L16.8848 6.1499L16.6536 5.41579L17.2764 4.94463L16.5125 4.95314L16.2511 4.19971Z" fill="white"/>
<path d="M13.8498 3.31641L13.6091 4.06984L12.8245 4.06133L13.4568 4.51557L13.2162 5.2666L13.8498 4.82025L14.4835 5.2666L14.2524 4.53249L14.8751 4.06133L14.1113 4.06984L13.8498 3.31641Z" fill="white"/>
<path d="M11.3036 2.86572L11.0629 3.61916L10.2783 3.61065L10.9106 4.06489L10.67 4.81597L11.3036 4.36962L11.9373 4.81597L11.7061 4.08186L12.3289 3.61065L11.5651 3.61916L11.3036 2.86572Z" fill="white"/>
<path d="M17.0696 17.0693C20.9739 13.165 20.9739 6.83498 17.0696 2.93073C13.1654 -0.973526 6.83534 -0.973527 2.93109 2.93073C-0.973162 6.83498 -0.973162 13.165 2.93109 17.0693C6.83534 20.9735 13.1654 20.9735 17.0696 17.0693Z" stroke="#244AA5" stroke-width="0.00512575" stroke-miterlimit="10"/>
</g>
<defs>
<clipPath id="clip0_1_482247">
<rect width="20" height="20" fill="white"/>
</clipPath>
</defs>
</svg>
