<svg width="20" height="20" viewBox="0 0 20 20" fill="none" xmlns="http://www.w3.org/2000/svg">
<g clip-path="url(#clip0_1_482107)">
<rect width="20" height="20" rx="10" fill="#D4AF2C"/>
<rect x="-2.66724" width="25.3333" height="20" fill="#AF010D"/>
<path fill-rule="evenodd" clip-rule="evenodd" d="M9.99999 6.37034L8.44399 5.33301L7.40799 6.37034H8.44399L7.40799 7.40767L5.33333 6.37034V11.557L8.44399 10.517L7.40799 12.5917H6.37066L7.40799 13.629L8.44399 12.5917L9.99999 14.6663V6.37034ZM11.556 5.33301L12.592 6.37034H11.556L12.592 7.40767L14.6667 6.37034V11.557L11.556 10.517L12.592 12.5917H13.6293L12.592 13.629L11.556 12.5917L9.99999 14.6663V6.37034L11.556 5.33301Z" fill="#D4AF2C"/>
<path fill-rule="evenodd" clip-rule="evenodd" d="M8.00049 8.67366C8.00049 7.56699 8.88849 6.66699 10.0005 6.66699C11.1045 6.66699 12.0005 7.56433 12.0005 8.67366V8.21633C12.0005 9.32299 11.3232 10.8243 10.5072 11.5523L10.0005 12.0003L9.49382 11.5523C8.67115 10.819 8.00049 9.32566 8.00049 8.21633V8.67366Z" fill="#1A47B8"/>
<path fill-rule="evenodd" clip-rule="evenodd" d="M8.00049 8H12.0005V9.33333H8.00049V8Z" fill="#AE6A3E"/>
</g>
<defs>
<clipPath id="clip0_1_482107">
<rect width="20" height="20" rx="10" fill="white"/>
</clipPath>
</defs>
</svg>
