<svg width="20" height="20" viewBox="0 0 20 20" fill="none" xmlns="http://www.w3.org/2000/svg">
<g clip-path="url(#clip0_1_482299)">
<rect width="20" height="20" rx="10" fill="#012169"/>
<path fill-rule="evenodd" clip-rule="evenodd" d="M20.0004 13.3337V8.66699C20.0004 7.55366 19.1044 6.66699 18.0004 6.66699H15.3337C14.2324 6.66699 13.3337 7.56033 13.3337 8.66699V13.3337C13.3337 13.5763 14.6671 16.0003 16.6671 16.0003C18.6671 16.0003 20.0004 13.5697 20.0004 13.3337Z" fill="white"/>
<path fill-rule="evenodd" clip-rule="evenodd" d="M20.625 13.3929V8.39286C20.625 7.2 19.617 6.25 18.375 6.25H15.375C14.136 6.25 13.125 7.20714 13.125 8.39286V13.3929C13.125 13.6529 14.625 16.25 16.875 16.25C19.125 16.25 20.625 13.6457 20.625 13.3929Z" fill="#A53D08"/>
<path fill-rule="evenodd" clip-rule="evenodd" d="M20.625 12.1329V13.5071H17.625H16.125H13.125V12.1329V10.5357V6.25H20.625V10.5357V12.1329Z" fill="#00A2DD"/>
<path fill-rule="evenodd" clip-rule="evenodd" d="M14.375 8.75H19.375V10H14.375V8.75Z" fill="#551100"/>
<path fill-rule="evenodd" clip-rule="evenodd" d="M16.875 7.5L16.875 15L15.375 15L15.375 7.5L16.875 7.5Z" fill="#551100"/>
<path d="M18.125 8.75H16.875V15H18.125V8.75Z" fill="#008021"/>
<g clip-path="url(#clip1_1_482299)">
<path d="M9.99673 2.50049H-2.5V9.98763H9.99673V2.50049Z" fill="white"/>
<path d="M9.99734 5.49641H4.49483V2.50098H2.99282V5.49641H-2.49512V6.99333H2.99282V9.98755H4.49483V6.99333H9.99734V5.49641Z" fill="#F93939"/>
<path d="M-2.49988 3.37305V5.00326H0.225813L-2.49988 3.37305Z" fill="#012169"/>
<path d="M-0.996427 2.50049L-1.03638 2.50256L2.49792 4.62749V2.50049H-0.996427Z" fill="#012169"/>
<path d="M1.69463 4.99213L-2.49991 2.50049V3.08777L0.69513 4.99213H1.69463Z" fill="#F93939"/>
<path d="M5.80566 7.49561L10.0003 9.98725V9.39996L6.80522 7.49561H5.80566Z" fill="#F93939"/>
<path d="M-2.49988 9.12777V7.49756H0.225813L-2.49988 9.12777Z" fill="#012169"/>
<path d="M-0.996427 10L-1.03638 9.99798L2.49792 7.87305V10H-0.996427Z" fill="#012169"/>
<path d="M1.67279 7.49512L-2.49756 9.98562L-1.52224 9.98669L2.50181 7.5964V7.49512H1.67279Z" fill="#F93939"/>
<path d="M9.99998 3.37207V5.00221H7.27429L9.99998 3.37207Z" fill="#012169"/>
<path d="M8.49679 2.5L8.53674 2.50207L5.00244 4.627V2.5H8.49679Z" fill="#012169"/>
<path d="M9.9954 2.50398L9.05727 2.50391L5.00488 4.91105V4.99548H5.86223L9.9954 2.50398Z" fill="#F93939"/>
<path d="M9.99998 9.12721V7.49707H7.27429L9.99998 9.12721Z" fill="#012169"/>
<path d="M8.49679 9.99907L8.53674 9.997L5.00244 7.87207V9.99907H8.49679Z" fill="#012169"/>
</g>
</g>
<defs>
<clipPath id="clip0_1_482299">
<rect width="20" height="20" rx="10" fill="white"/>
</clipPath>
<clipPath id="clip1_1_482299">
<rect x="-2.5" y="2.5" width="12.5" height="7.5" rx="1.25" fill="white"/>
</clipPath>
</defs>
</svg>
