<svg width="20" height="20" viewBox="0 0 20 20" fill="none" xmlns="http://www.w3.org/2000/svg">
<g clip-path="url(#clip0_1_482185)">
<rect width="20" height="20" rx="10" fill="#FFDA2C"/>
<path fill-rule="evenodd" clip-rule="evenodd" d="M-4 0H5.33333V20H-4V0Z" fill="#1A47B8"/>
<path fill-rule="evenodd" clip-rule="evenodd" d="M6.66626 6.66634H13.3329V13.333H6.66626V6.66634ZM6.66626 13.333L9.99959 15.9997L13.3329 13.333H6.66626ZM9.33293 5.33301H10.6663V6.66634H9.33293V5.33301Z" fill="#AE6A3E"/>
<path fill-rule="evenodd" clip-rule="evenodd" d="M8.00049 8H12.0005V10.6667H8.00049V8Z" fill="#AF010D"/>
<path fill-rule="evenodd" clip-rule="evenodd" d="M8.00049 10.6665H12.0005V12.6665H8.00049V10.6665ZM8.00049 12.6665L10.0005 13.9998L12.0005 12.6665H8.00049Z" fill="#1A47B8"/>
<path fill-rule="evenodd" clip-rule="evenodd" d="M10 9.3335C10.368 9.3335 10.6667 9.61883 10.6667 10.0068V11.3268C10.6667 11.7002 10.3573 12.0002 10 12.0002C9.63201 12.0002 9.33334 11.7148 9.33334 11.3268V10.0068C9.33334 9.6335 9.64268 9.3335 10 9.3335Z" fill="#FFDA2C"/>
<path fill-rule="evenodd" clip-rule="evenodd" d="M14.6667 0H24V20H14.6667V0Z" fill="#AF010D"/>
</g>
<defs>
<clipPath id="clip0_1_482185">
<rect width="20" height="20" rx="10" fill="white"/>
</clipPath>
</defs>
</svg>
