<svg width="20" height="20" viewBox="0 0 20 20" fill="none" xmlns="http://www.w3.org/2000/svg">
<g clip-path="url(#clip0_1_482281)">
<rect width="20" height="20" rx="10" fill="#1A47B8"/>
<path d="M21.3333 0H-1.33333C-2.80609 0 -4 1.19391 -4 2.66667V17.3333C-4 18.8061 -2.80609 20 -1.33333 20H21.3333C22.8061 20 24 18.8061 24 17.3333V2.66667C24 1.19391 22.8061 0 21.3333 0Z" fill="#1A47B8"/>
<path fill-rule="evenodd" clip-rule="evenodd" d="M16.0004 5.33301V6.66634H17.3337V5.33301H16.0004ZM18.6671 7.99967V9.33301H20.0004V7.99967H18.6671ZM13.3337 9.33301V10.6663H14.6671V9.33301H13.3337ZM16.0004 14.6663V15.9997H17.3337V14.6663H16.0004Z" fill="#F93939"/>
<g clip-path="url(#clip1_1_482281)">
<path d="M9.99673 2.50049H-2.5V9.98763H9.99673V2.50049Z" fill="white"/>
<path d="M9.99734 5.49641H4.49483V2.50098H2.99282V5.49641H-2.49512V6.99333H2.99282V9.98755H4.49483V6.99333H9.99734V5.49641Z" fill="#F93939"/>
<path d="M-2.49986 3.37305V5.00326H0.225829L-2.49986 3.37305Z" fill="#1A47B8"/>
<path d="M-0.996427 2.50049L-1.03638 2.50256L2.49792 4.62749V2.50049H-0.996427Z" fill="#1A47B8"/>
<path d="M1.69463 4.99213L-2.49991 2.50049V3.08777L0.69513 4.99213H1.69463Z" fill="#F93939"/>
<path d="M5.80566 7.49561L10.0003 9.98725V9.39996L6.80522 7.49561H5.80566Z" fill="#F93939"/>
<path d="M-2.49986 9.12777V7.49756H0.225829L-2.49986 9.12777Z" fill="#1A47B8"/>
<path d="M-0.996427 10L-1.03638 9.99798L2.49792 7.87305V10H-0.996427Z" fill="#1A47B8"/>
<path d="M1.67279 7.49512L-2.49756 9.98562L-1.52224 9.98669L2.50181 7.5964V7.49512H1.67279Z" fill="#F93939"/>
<path d="M10 3.37207V5.00221H7.27431L10 3.37207Z" fill="#1A47B8"/>
<path d="M8.49679 2.5L8.53674 2.50207L5.00244 4.627V2.5H8.49679Z" fill="#1A47B8"/>
<path d="M9.9954 2.50398L9.05727 2.50391L5.00488 4.91105V4.99548H5.86223L9.9954 2.50398Z" fill="#F93939"/>
<path d="M10 9.12721V7.49707H7.27431L10 9.12721Z" fill="#1A47B8"/>
<path d="M8.49679 9.99907L8.53674 9.997L5.00244 7.87207V9.99907H8.49679Z" fill="#1A47B8"/>
</g>
</g>
<defs>
<clipPath id="clip0_1_482281">
<rect width="20" height="20" rx="10" fill="white"/>
</clipPath>
<clipPath id="clip1_1_482281">
<rect x="-2.5" y="2.5" width="12.5" height="7.5" rx="1.25" fill="white"/>
</clipPath>
</defs>
</svg>
