<svg width="20" height="20" viewBox="0 0 20 20" fill="none" xmlns="http://www.w3.org/2000/svg">
<g clip-path="url(#clip0_1_482291)">
<rect width="20" height="20" rx="10" fill="#F93939"/>
<path d="M21.3333 0H-1.33333C-2.80609 0 -4 1.19391 -4 2.66667V17.3333C-4 18.8061 -2.80609 20 -1.33333 20H21.3333C22.8061 20 24 18.8061 24 17.3333V2.66667C24 1.19391 22.8061 0 21.3333 0Z" fill="#F93939"/>
<path fill-rule="evenodd" clip-rule="evenodd" d="M-4 0H24V10.6667H-4V0Z" fill="#1A47B8"/>
<path fill-rule="evenodd" clip-rule="evenodd" d="M-4 0V20.044L9.33333 10L-4 0Z" fill="white"/>
<path fill-rule="evenodd" clip-rule="evenodd" d="M1.98033 10.6468C3.14033 10.5735 4.00033 10.3135 4.00033 10.0002C4.00033 9.68816 3.14033 9.42683 1.98033 9.3535C1.90699 8.1935 1.64699 7.3335 1.33366 7.3335C1.02166 7.3335 0.760326 8.1935 0.686992 9.3535C-0.473008 9.42683 -1.33301 9.68683 -1.33301 10.0002C-1.33301 10.3122 -0.473008 10.5735 0.686992 10.6468C0.758992 11.8068 1.02033 12.6668 1.33366 12.6668C1.64566 12.6668 1.90699 11.8068 1.98033 10.6468Z" fill="#FFDA2C"/>
<path d="M5.99998 10.6668C6.36817 10.6668 6.66665 10.3684 6.66665 10.0002C6.66665 9.63197 6.36817 9.3335 5.99998 9.3335C5.63179 9.3335 5.33331 9.63197 5.33331 10.0002C5.33331 10.3684 5.63179 10.6668 5.99998 10.6668Z" fill="#FFDA2C"/>
<path d="M-0.666341 6.66634C-0.298151 6.66634 0.000325561 6.36786 0.000325561 5.99967C0.000325561 5.63148 -0.298151 5.33301 -0.666341 5.33301C-1.03453 5.33301 -1.33301 5.63148 -1.33301 5.99967C-1.33301 6.36786 -1.03453 6.66634 -0.666341 6.66634Z" fill="#FFDA2C"/>
<path d="M-0.666341 14.6663C-0.298151 14.6663 0.000325561 14.3679 0.000325561 13.9997C0.000325561 13.6315 -0.298151 13.333 -0.666341 13.333C-1.03453 13.333 -1.33301 13.6315 -1.33301 13.9997C-1.33301 14.3679 -1.03453 14.6663 -0.666341 14.6663Z" fill="#FFDA2C"/>
</g>
<defs>
<clipPath id="clip0_1_482291">
<rect width="20" height="20" rx="10" fill="white"/>
</clipPath>
</defs>
</svg>
