<svg width="20" height="20" viewBox="0 0 20 20" fill="none" xmlns="http://www.w3.org/2000/svg">
<g clip-path="url(#clip0_1_482289)">
<rect width="20" height="20" rx="10" fill="#1A47B8"/>
<path fill-rule="evenodd" clip-rule="evenodd" d="M0 13.333H28V19.9997H0V13.333Z" fill="white"/>
<path fill-rule="evenodd" clip-rule="evenodd" d="M0 0H28V6.66667H0V0ZM10.6667 13.3333V6.66667H5.33333V13.3333C5.33333 14.8067 6.52667 16 8 16C9.47333 16 10.6667 14.8067 10.6667 13.3333Z" fill="#F93939"/>
<path fill-rule="evenodd" clip-rule="evenodd" d="M6.66665 6.66667L5.33331 5.33333C5.33331 5.33333 6.66665 4 7.99998 4C9.33331 4 10.6666 5.33333 10.6666 5.33333L9.33331 6.66667H6.66665Z" fill="#FFDA2C"/>
<path fill-rule="evenodd" clip-rule="evenodd" d="M6.66665 8L5.33331 9.33333L7.99998 10.6667L6.66665 13.3333L7.99998 16L9.33331 13.3333L7.99998 10.6667L10.6666 9.33333L9.33331 8L7.99998 9.33333L6.66665 8Z" fill="white"/>
<path fill-rule="evenodd" clip-rule="evenodd" d="M6.66665 8H5.33331V9.33333L6.66665 8ZM9.33331 8H10.6666V9.33333L9.33331 8Z" fill="#FFDA2C"/>
<path fill-rule="evenodd" clip-rule="evenodd" d="M7.99959 4L6.66626 5.33333L7.99959 6.66667L9.33293 5.33333L7.99959 4Z" fill="#A75835"/>
<path fill-rule="evenodd" clip-rule="evenodd" d="M7.99998 10.6665L5.33331 11.9998H10.6666L7.99998 10.6665Z" fill="#88605F"/>
</g>
<defs>
<clipPath id="clip0_1_482289">
<rect width="20" height="20" rx="10" fill="white"/>
</clipPath>
</defs>
</svg>
