<svg width="20" height="20" viewBox="0 0 20 20" fill="none" xmlns="http://www.w3.org/2000/svg">
<rect width="20.0001" height="20" rx="10" fill="#005430"/>
<path fill-rule="evenodd" clip-rule="evenodd" d="M7.72333 6.58301C7.69833 6.35801 7.58166 6.26634 7.56499 6.31634H7.59833C7.58166 6.38301 7.53166 6.81634 7.55666 7.01634C7.58166 7.20801 7.78166 7.51634 8.00666 7.51634C8.1471 7.52154 8.2291 7.24754 8.28914 7.04693C8.32529 6.92613 8.35348 6.83195 8.38166 6.84134C8.43266 6.85834 8.42201 7.0333 8.41259 7.18808C8.40816 7.26094 8.404 7.32933 8.40666 7.37467C8.415 7.50801 8.615 7.65801 8.80667 7.64967C8.90764 7.64089 9.00631 7.55578 9.10022 7.47477C9.18457 7.40201 9.26508 7.33256 9.34 7.32467C9.41018 7.31729 9.44435 7.37048 9.48385 7.432C9.53348 7.50927 9.59154 7.59967 9.74 7.59967C9.96187 7.59967 10.0395 7.44969 10.093 7.3465C10.1037 7.32567 10.1135 7.30674 10.1233 7.29134C10.1817 7.19967 10.2983 7.18301 10.2567 7.25801C10.215 7.32467 10.2317 7.45801 10.3483 7.43301C10.4392 7.42003 10.4947 7.25035 10.5345 7.12869C10.5458 7.09414 10.5558 7.06346 10.565 7.04134C10.5983 6.94134 10.4733 6.99134 10.4233 7.04134C10.3733 7.09134 10.2567 7.04967 10.1733 7.00801C10.1136 6.97813 10.0967 6.90114 10.0735 6.79546C10.0643 6.75374 10.0542 6.70754 10.04 6.65801L10.0297 6.62715C9.97902 6.47608 9.96178 6.42467 10.04 6.42467C10.0651 6.42467 10.0909 6.43673 10.1129 6.44702C10.1641 6.47095 10.195 6.48534 10.1483 6.31634C10.09 6.08301 9.84 5.93301 9.78167 5.94134C9.72334 5.95801 9.465 6.09134 9.59 6.38301C9.60982 6.43256 9.63469 6.48812 9.66077 6.54638C9.78821 6.83109 9.94454 7.18034 9.68167 7.20801C9.37594 7.24019 9.41975 6.6199 9.43814 6.35953L9.44 6.33301C9.45667 6.09134 9.315 5.83301 9.22333 5.83301C9.15098 5.83959 9.11497 5.95 9.08251 6.04951L9.08251 6.04953L9.08251 6.04954L9.0825 6.04955L9.0825 6.04956L9.0825 6.04956L9.0825 6.04957C9.07384 6.07611 9.06544 6.10187 9.05667 6.12467C9.03234 6.18791 9.06197 6.30227 9.09583 6.43292C9.11997 6.52609 9.14626 6.62755 9.15667 6.72467C9.18167 6.95801 9.00667 7.24967 8.88167 7.24967C8.765 7.24967 8.59833 7.10801 8.60666 6.88301C8.615 6.66634 8.54833 6.19967 8.45666 6.19967C8.365 6.19967 8.24833 6.33301 8.19 6.44134C8.16608 6.4802 8.14002 6.58018 8.11067 6.69281L8.11067 6.69282L8.11066 6.69282C8.05818 6.89419 7.99516 7.136 7.91499 7.14134C7.78999 7.14967 7.74833 6.80801 7.72333 6.58301ZM3.75676 5.94922C3.6768 5.96376 3.72364 6.06705 3.77563 6.18168C3.78324 6.19848 3.79097 6.21551 3.79842 6.23255C3.85676 6.36589 3.88176 6.48255 3.84842 6.55755C3.81509 6.63255 3.94842 6.55755 3.98176 6.44089C4.01509 6.31589 3.98176 5.91589 3.75676 5.95755V5.94922ZM3.45604 6.64968C3.45604 6.64968 3.45903 6.64743 3.46413 6.64653C3.43169 7.35192 3.56488 7.80809 3.7727 7.84135C3.94821 7.86943 3.98769 7.54267 4.02069 7.2696C4.02686 7.21853 4.03281 7.16933 4.03937 7.12468C4.08104 6.84135 4.17271 7.06635 4.17271 7.06635C4.17271 7.06635 4.15604 7.46635 4.15604 7.68301C4.15604 7.89968 4.30604 7.93301 4.46437 7.95801C4.62271 7.98301 4.62271 8.09968 4.62271 8.09968L4.65604 9.14135C4.98104 9.04135 4.89771 8.42468 4.89771 8.42468C4.89771 8.42468 4.83104 7.70801 4.93104 7.63301C5.03104 7.56635 5.27271 7.79968 5.27271 7.79968C5.27271 7.79968 5.47271 7.91635 5.69771 7.62468C5.85177 7.43211 5.76244 7.1015 5.71034 6.90867C5.68352 6.80943 5.66657 6.74669 5.69771 6.75801C5.78105 6.79135 5.78105 6.72468 5.73105 6.61635C5.68105 6.50801 5.51438 6.22468 5.34771 6.34968C5.19801 6.46786 5.36118 6.81696 5.47098 7.05189L5.48938 7.09135C5.59771 7.32468 5.45605 7.40801 5.37271 7.35801C5.29771 7.30801 5.13938 7.13301 5.13938 7.13301C5.13938 7.13301 5.23938 7.10801 5.13938 6.69968C5.03938 6.29135 4.86438 6.34968 4.86438 6.34968C4.86438 6.34968 4.78938 6.34968 4.77271 6.64968C4.76445 6.8024 4.8298 6.95921 4.88166 7.08366C4.9345 7.21046 4.97334 7.30365 4.90604 7.32468C4.77271 7.37468 4.73938 7.04135 4.72271 6.58301C4.70604 6.12468 4.61438 6.01635 4.45604 6.05801C4.28937 6.10801 4.47271 6.82468 4.48937 6.84968C4.50604 6.86635 4.64771 7.44968 4.48937 7.47468C4.33104 7.49135 4.36437 7.26635 4.36437 7.26635C4.41437 6.72468 4.26437 6.49968 4.26437 6.49968C4.26437 6.49968 4.02271 6.38301 3.91437 6.94135C3.80604 7.49968 3.78104 7.43301 3.78104 7.43301C3.68148 7.4579 3.60516 7.0879 3.559 6.86414C3.54334 6.78821 3.53115 6.72912 3.5227 6.70801C3.49937 6.64967 3.47603 6.64443 3.46413 6.64653L3.46437 6.64135L3.45604 6.64968ZM5.01807 6.0832C4.99897 6.04419 4.97733 6 4.9401 6V6.00833C4.8651 6.00833 4.85676 6.35 5.1401 6.36667C5.43177 6.38333 5.39843 6 5.33176 6C5.29843 6 5.2901 6.03333 5.28176 6.06667C5.27343 6.1 5.2651 6.13333 5.23176 6.13333C5.19732 6.13333 5.19179 6.09774 5.18645 6.06333C5.18146 6.03115 5.17662 6 5.14843 6C5.11682 6 5.10723 6.04161 5.09845 6.07973C5.09103 6.11194 5.08418 6.14167 5.0651 6.14167C5.0467 6.14167 5.03318 6.11405 5.01807 6.0832ZM9.07302 7.74137C9.11026 7.74137 9.13189 7.78556 9.151 7.82458C9.1661 7.85542 9.17963 7.88304 9.19802 7.88304C9.21711 7.88304 9.22396 7.85332 9.23138 7.8211C9.24016 7.78298 9.24974 7.74137 9.28136 7.74137C9.30955 7.74137 9.31439 7.77252 9.31938 7.8047C9.32472 7.83911 9.33025 7.87471 9.36469 7.87471C9.39803 7.87471 9.40636 7.84137 9.41469 7.80804C9.42303 7.77471 9.43136 7.74137 9.46469 7.74137C9.53136 7.74137 9.56469 8.12471 9.27302 8.10804C8.98969 8.09137 8.99802 7.74971 9.07302 7.74971V7.74137ZM11.5591 7.14082C11.54 7.1018 11.5183 7.05762 11.4811 7.05762V7.06595C11.4061 7.06595 11.3978 7.40762 11.6811 7.42428C11.9728 7.44095 11.9394 7.05762 11.8728 7.05762C11.8394 7.05762 11.8311 7.09095 11.8228 7.12428C11.8144 7.15762 11.8061 7.19095 11.7728 7.19095C11.7383 7.19095 11.7328 7.15536 11.7275 7.12095C11.7225 7.08876 11.7176 7.05762 11.6894 7.05762C11.6578 7.05762 11.6482 7.09923 11.6395 7.13735C11.632 7.16956 11.6252 7.19928 11.6061 7.19928C11.5877 7.19928 11.5742 7.17167 11.5591 7.14082ZM7.36426 7.81647C7.36426 7.81647 7.27259 7.78314 7.23092 7.84147C7.20947 7.86651 7.20643 7.91763 7.20336 7.96915C7.19928 8.0377 7.19516 8.10696 7.14759 8.11647C7.1102 8.12478 7.07902 8.07509 7.04579 8.02214C7.01238 7.96888 6.97689 7.91232 6.93092 7.90814C6.88735 7.90418 6.83437 7.96988 6.77645 8.0417C6.71251 8.12098 6.64255 8.20773 6.57259 8.21647C6.50961 8.22487 6.50163 8.155 6.49323 8.08147C6.48496 8.00905 6.47628 7.93308 6.41425 7.92481C6.39398 7.92481 6.3696 7.94947 6.34554 7.97379C6.31028 8.00946 6.27574 8.04439 6.25592 7.99981C6.23092 7.92481 6.08925 6.76647 6.08925 6.76647C6.08925 6.76647 6.27259 6.80814 6.30592 6.76647C6.34759 6.71647 6.07259 6.19147 6.07259 6.19147C6.07259 6.19147 5.99759 5.98314 5.86425 6.03314C5.73092 6.08314 5.73092 6.35814 5.74758 6.39981C5.76425 6.44981 5.96425 7.81647 5.96425 7.81647C5.96425 7.81647 6.03925 8.14147 5.95592 8.17481C5.9167 8.19441 5.8738 8.14574 5.82199 8.08698C5.76371 8.02086 5.69415 7.94196 5.60592 7.93314C5.43925 7.91647 5.05591 8.04147 5.06425 8.37481C5.06425 8.70814 5.22258 8.80814 5.33091 8.82481C5.38761 8.82917 5.48081 8.77191 5.56156 8.72231C5.63513 8.67712 5.69836 8.63828 5.71425 8.65814C5.74758 8.69981 5.51425 9.32481 5.04758 9.37481C4.58091 9.42481 4.53091 9.08314 4.52258 8.88314C4.52079 8.84013 4.52015 8.80098 4.51959 8.76667V8.76666C4.51756 8.64144 4.51657 8.58081 4.46424 8.63314C4.43924 8.65814 4.23924 8.98314 4.29758 9.38314C4.37258 9.90814 5.07258 9.76647 5.07258 9.76647C5.07258 9.76647 5.52258 9.74147 5.77258 9.23314C5.90568 8.96252 5.9254 8.81471 5.93612 8.7344C5.94554 8.66385 5.948 8.64537 6.01425 8.64147C6.15592 8.63314 5.96425 9.24147 5.93925 9.28314C5.92258 9.32481 5.58092 9.99981 5.03091 10.0665C4.44053 10.1346 4.37263 9.92772 4.29645 9.69563L4.29645 9.69563C4.28876 9.67219 4.28098 9.6485 4.27258 9.62481C4.22518 9.49123 4.22234 9.35766 4.22029 9.26095C4.21837 9.17062 4.21713 9.11245 4.18091 9.11647C4.10591 9.11647 4.02258 9.52481 4.03924 9.69981C4.06424 9.86647 4.15591 10.4581 4.85591 10.4081C5.55592 10.3581 6.08925 9.89147 6.23092 9.45814C6.36425 9.02481 6.26425 8.57481 6.26425 8.57481C6.26425 8.57481 6.24759 8.50814 6.40592 8.59981C6.49721 8.65266 6.55526 8.60855 6.62319 8.55693C6.67308 8.51902 6.7283 8.47706 6.80592 8.46647C6.9135 8.45244 6.94232 8.47779 6.969 8.50126C6.98986 8.5196 7.00942 8.5368 7.06426 8.53314C7.18926 8.51647 7.37259 8.44147 7.37259 8.19147V7.82481L7.36426 7.81647ZM5.41425 8.29147C5.49758 8.23314 5.58092 8.34981 5.58092 8.34981C5.41425 8.53314 5.33091 8.34981 5.41425 8.29147ZM6.74015 7.0826C6.38182 7.26593 6.38182 7.14093 6.38182 7.14093L7.13321 6.47212C7.1209 6.45636 7.10194 6.43077 7.07349 6.39093C7.06515 6.3826 7.05682 6.37427 7.05682 6.36593C6.95682 6.19927 6.99015 6.04093 7.19016 6.0326C7.40682 6.02427 7.43182 6.1576 7.40682 6.26593C7.39016 6.37427 7.29849 6.3326 7.29849 6.3326C7.29849 6.3326 7.19849 6.17427 7.14015 6.22427C7.08182 6.27427 7.22349 6.36593 7.22349 6.36593C7.22349 6.36593 7.42349 6.4576 7.42349 6.51593C7.42349 6.6076 6.94015 6.9826 6.74015 7.0826ZM7.11444 7.05747C7.14407 7.04477 7.13284 7.1009 7.12008 7.16466C7.10773 7.22641 7.09394 7.29531 7.11444 7.31581C7.13615 7.33752 7.19406 7.32077 7.25045 7.30445C7.30228 7.28946 7.35282 7.27484 7.37277 7.29081C7.40611 7.32414 7.21444 7.58247 7.1061 7.55747C6.98944 7.53247 6.88944 7.42414 6.9061 7.30747C6.9311 7.19081 6.96444 7.13247 7.11444 7.05747ZM8.05636 5.84112C8.10731 5.83475 8.03656 5.93062 7.98921 5.99477C7.97462 6.01454 7.96225 6.0313 7.95636 6.04112C7.95097 6.0501 7.94481 6.0583 7.9388 6.06631C7.91689 6.09549 7.89687 6.12215 7.92302 6.17446C7.94089 6.21018 7.97311 6.20762 8.00302 6.20524C8.02892 6.20317 8.05309 6.20125 8.06469 6.22446C8.09802 6.27446 8.00636 6.39112 7.91469 6.36612C7.82302 6.34112 7.73136 6.20779 7.77302 6.10779C7.81469 6.00779 7.95636 5.86612 8.05636 5.84946V5.84112ZM8.70658 6.44147C8.65658 6.40814 8.68158 6.1998 8.70658 6.10814V6.0998C8.70658 6.0998 8.77325 5.8498 8.88158 5.8748C8.97704 5.89683 8.93663 6.03532 8.89717 6.17054L8.89716 6.17057L8.89715 6.17061C8.89183 6.18883 8.88653 6.207 8.88158 6.2248C8.84825 6.3748 8.75658 6.48314 8.70658 6.44147ZM6.70619 8.74133C6.63952 8.74133 6.73119 8.91633 6.77285 8.99133C6.79614 9.03325 6.7986 9.13244 6.80061 9.21324V9.21324C6.80219 9.27701 6.80349 9.32932 6.81452 9.333C6.83952 9.333 6.95619 9.233 6.95619 9.108C6.95619 8.983 6.90619 8.74967 6.70619 8.74967V8.74133ZM9.82289 8.79096H11.0396L11.0312 8.80762C11.0562 8.83262 10.9729 8.94929 10.9062 9.03262C10.876 9.07044 10.8577 9.12369 10.8406 9.1737C10.82 9.23391 10.801 9.28942 10.7646 9.30762C10.6979 9.34096 10.4646 9.43262 10.0979 9.44096C9.73123 9.44929 9.54789 9.60762 9.51456 9.69929C9.49165 9.76227 9.55923 9.79378 9.61728 9.82085C9.64372 9.83318 9.66819 9.84459 9.68123 9.85762C9.68838 9.86335 9.70464 9.87301 9.72602 9.88572C9.82912 9.94699 10.0514 10.0791 9.94789 10.1826C9.62437 10.5061 8.96833 9.94656 8.69841 9.71633C8.6346 9.6619 8.59237 9.62588 8.58122 9.62429C8.53122 9.60762 8.45622 9.70762 8.35622 9.84929C8.04788 10.2826 7.73955 10.4076 7.43955 10.4243C7.19971 10.4376 7.05041 10.1686 6.98315 10.0475C6.96627 10.0171 6.95456 9.99597 6.94788 9.99096C6.93287 9.97595 6.70659 10.0556 6.4601 10.1423C6.15925 10.2482 5.82828 10.3647 5.81454 10.3326C5.78954 10.2743 6.20621 9.99096 6.20621 9.99096C6.20621 9.99096 6.97288 9.53262 6.99788 9.44096C7.02288 9.34929 7.19788 9.02429 7.21455 9.02429C7.30621 9.02429 7.21455 9.34929 7.21455 9.34929C7.21455 9.34929 7.16455 9.38262 7.41455 9.20762C7.65622 9.02429 7.80622 8.80762 7.81455 8.62429C7.82473 8.51226 7.74157 8.42513 7.66583 8.34577C7.61762 8.29526 7.57242 8.24791 7.55621 8.19929C7.50621 8.07429 7.50621 7.86596 7.68122 7.77429C7.85622 7.68262 8.01455 7.97429 8.06455 8.09929C8.11455 8.22429 8.08122 8.24929 8.00622 8.20762C7.93122 8.16596 7.89788 8.21596 7.93122 8.24096C7.96455 8.26596 8.07288 8.52429 8.07288 8.75762C8.07288 8.9792 7.91508 9.19326 7.82068 9.32131L7.80622 9.34096C7.76809 9.39641 7.68096 9.46195 7.58918 9.53099C7.46028 9.62795 7.32222 9.73181 7.29788 9.82429C7.26455 9.98262 7.53955 10.1993 8.11455 9.64096C8.25622 9.49929 8.38955 9.27429 8.43122 9.09096C8.47289 8.90762 8.37289 8.50762 8.25622 8.20762C8.13955 7.90762 8.15622 7.68262 8.27289 7.60762C8.37339 7.54301 8.44298 7.7196 8.48164 7.81771C8.48785 7.83349 8.49327 7.84724 8.49789 7.85762C8.53122 7.92429 8.61455 8.14096 8.63955 8.26596C8.67289 8.38262 8.73122 8.86596 8.73122 8.86596C8.73122 8.86596 8.78122 8.92429 8.80622 8.79929C8.8179 8.71751 8.94016 8.63572 9.04954 8.56255C9.09619 8.53134 9.1405 8.5017 9.17289 8.47429C9.28122 8.38262 9.77289 8.28262 9.77289 8.28262C9.75623 7.84929 9.93123 7.59929 10.2062 7.59929C10.4812 7.59929 10.5812 7.94096 10.5812 8.11596C10.5812 8.29096 10.3812 8.46596 10.2396 8.55762C10.1605 8.60878 10.001 8.65215 9.87545 8.68628L9.87545 8.68628C9.77602 8.71332 9.69789 8.73456 9.69789 8.74929C9.69789 8.78262 9.82289 8.79096 9.82289 8.79096ZM10.2312 8.19929C10.2646 8.14929 10.1646 8.00762 10.0562 8.00762C9.99789 8.00762 10.0146 8.07429 10.0562 8.11596C10.0896 8.15762 10.2062 8.24929 10.2312 8.19929ZM9.43994 9.31487C9.48333 9.29372 9.53168 9.27015 9.59789 9.20762H9.58956C9.65623 9.14929 9.41456 9.10762 9.18956 9.07429C9.1231 9.06632 9.06767 9.05326 9.02164 9.04241C8.92336 9.01925 8.86793 9.00619 8.83955 9.07429C8.79789 9.16596 8.83955 9.39096 8.93955 9.50762C8.96219 9.53403 8.98269 9.56043 9.00221 9.58558C9.06895 9.67155 9.12429 9.74284 9.21456 9.74929C9.27427 9.75782 9.26631 9.71177 9.25548 9.64914C9.24515 9.5894 9.23221 9.51458 9.27289 9.45762C9.33806 9.36452 9.38503 9.34163 9.43994 9.31487ZM3.94787 8.2583C3.8562 8.31664 3.58953 8.6083 3.57286 8.6833C3.5575 8.75245 3.65546 8.71535 3.77532 8.66996L3.8062 8.6583C3.93953 8.6083 4.37287 8.39997 4.37287 8.39997C4.37287 8.39997 4.57287 8.34164 4.5562 8.2583C4.53953 8.17497 4.31453 8.01664 3.94787 8.2583ZM3.54786 9.6081V9.26644H3.53953C3.46547 9.28496 3.4234 9.51376 3.38625 9.71583C3.37324 9.78659 3.36083 9.85407 3.34786 9.9081C3.29786 10.1164 3.3812 10.3414 3.59787 10.3664C3.81453 10.3831 3.83953 9.94977 3.79787 9.89144C3.77638 9.86566 3.72389 9.90855 3.67121 9.95159C3.62173 9.99202 3.57209 10.0326 3.54786 10.0164C3.51442 9.99414 3.52572 9.87861 3.53687 9.76465C3.54239 9.70826 3.54786 9.65225 3.54786 9.6081ZM10.1643 9.90845C10.1639 9.91172 10.1639 9.91466 10.1643 9.91732V9.90845ZM10.1651 9.9207L10.1643 9.91732V9.92512L10.1651 9.9207ZM10.1651 9.9207C10.1717 9.94246 10.2086 9.94161 10.2495 9.94065C10.2944 9.93961 10.3441 9.93845 10.3643 9.96678C10.3837 9.98999 10.3725 10.024 10.3608 10.0595C10.3473 10.1006 10.3331 10.1439 10.3643 10.1751C10.4091 10.2199 10.5472 10.1763 10.6429 10.146C10.6719 10.1369 10.6969 10.129 10.7143 10.1251C10.7977 10.1085 10.9727 10.0585 10.9477 9.99178C10.9238 9.92813 10.8392 9.94045 10.7808 9.94895L10.7727 9.95012C10.7458 9.95012 10.7207 9.96605 10.6949 9.98241C10.6647 10.0016 10.6336 10.0213 10.5977 10.0168C10.531 10.0085 10.4727 9.98345 10.506 9.91678C10.5393 9.84178 10.5477 9.75012 10.506 9.71678C10.4649 9.67564 10.1881 9.80512 10.1651 9.9207ZM10.4564 6.04128L10.7647 6.33295V6.34128C10.812 6.38423 10.8194 6.29216 10.828 6.18485C10.8361 6.08394 10.8453 5.96955 10.8897 5.94128C10.9731 5.89128 11.0481 6.08295 11.0481 6.08295C11.0481 6.08295 11.3731 6.69128 11.3731 6.76628C11.3731 6.81176 11.3577 6.80208 11.3345 6.78742C11.3195 6.7779 11.3011 6.76628 11.2814 6.76628C11.2397 6.76628 11.2397 6.84962 11.2397 6.84962L11.3397 7.44962L12.1564 8.84128C12.1564 8.84128 12.1814 9.44128 12.1147 9.41628C12.0064 9.37461 11.3981 8.10795 11.3981 8.10795C11.3981 8.10795 11.4897 9.29128 11.3981 9.59128C11.3147 9.89128 11.0731 9.91628 11.0731 9.91628V7.58295C11.0731 7.58295 10.4064 6.69128 10.2814 6.51628C10.1564 6.34128 10.1231 6.06628 10.1981 5.93295C10.2731 5.79962 10.4564 6.04128 10.4564 6.04128ZM11.4808 6.24933C11.4225 6.19933 11.4058 6.06599 11.4808 6.04099C11.5725 6.00766 11.6558 6.07433 11.7225 6.15766C11.7892 6.24099 11.7892 6.44099 11.7725 6.53266C11.7558 6.62433 11.6642 6.78266 11.6142 6.74933C11.5837 6.72901 11.5966 6.69632 11.615 6.64937C11.6269 6.61927 11.641 6.58331 11.6475 6.54099C11.6642 6.43266 11.5392 6.29933 11.4808 6.24933ZM12.1143 5.99148C12.1476 5.94981 12.4393 6.50814 12.4393 6.54148C12.4393 6.55118 12.4456 6.5637 12.4528 6.57781C12.4702 6.6122 12.4925 6.65603 12.4393 6.69148C12.3643 6.74148 12.3226 6.79148 12.3226 6.86648C12.3226 6.90575 12.3615 7.20778 12.4009 7.51415L12.4009 7.51421L12.4009 7.51431L12.4009 7.51445L12.4009 7.51447C12.4367 7.79308 12.473 8.07521 12.4809 8.16648C12.4976 8.35814 12.5059 9.25814 12.4809 9.41648C12.4309 9.74981 12.2559 9.99148 12.0643 10.1831C11.8726 10.3831 11.4226 10.5998 11.2643 10.2915C11.2643 10.2915 11.1976 10.2665 11.4393 10.1498C11.6809 10.0331 12.1226 9.75814 12.2143 9.51648C12.3309 9.21648 12.1809 8.20814 12.1809 8.20814C12.1809 8.20814 12.0226 6.84148 12.0226 6.75814C12.0226 6.67481 12.0309 6.11648 12.1143 5.99148ZM12.9791 6.7476C12.9332 6.72596 12.8992 6.7099 12.9144 6.84157H12.906L12.956 7.18324C12.956 7.18324 13.1977 9.12491 13.1644 9.39991C13.131 9.66657 12.9227 9.74157 12.9227 9.74157C12.9227 9.74157 12.8894 8.89991 12.806 8.09991C12.7575 7.60858 12.6737 7.13492 12.6316 6.89745L12.6316 6.89737L12.6316 6.89736L12.6316 6.89732C12.6159 6.80862 12.606 6.75291 12.606 6.74157C12.5977 6.65824 12.5977 6.09991 12.681 5.97491C12.7144 5.93324 13.0227 6.48324 13.0227 6.51657C13.0227 6.52636 13.0335 6.54691 13.0468 6.57233C13.0789 6.63352 13.1257 6.72292 13.0727 6.75824C13.0433 6.77786 13.0087 6.76156 12.9791 6.7476ZM13.3397 7.30823C13.273 7.35823 13.3147 7.4999 13.423 7.66657C13.5314 7.83323 13.748 7.95823 13.773 7.95823C13.798 7.95823 13.798 7.70823 13.798 7.58323C13.798 7.45823 13.8397 7.3999 13.8564 7.4249C13.873 7.44157 13.9814 7.45823 13.998 7.4249C14.0064 7.39157 13.9314 7.19157 13.923 7.1749C13.9147 7.15823 13.798 7.0249 13.748 7.10823C13.7214 7.14632 13.7121 7.20007 13.7028 7.25437C13.6917 7.31889 13.6804 7.38418 13.6397 7.4249C13.6054 7.45537 13.5659 7.41621 13.522 7.37266C13.4698 7.32092 13.4114 7.26299 13.348 7.30823H13.3397ZM13.5147 8.39128C13.523 8.37461 14.1147 7.94961 14.1147 7.94961V7.95794C14.1814 7.90794 14.2064 8.06628 14.2064 8.10794C14.2064 8.14961 14.1647 8.20794 14.1647 8.20794C14.1647 8.20794 13.623 8.59128 13.5814 8.64961C13.5397 8.71628 13.448 8.63294 13.448 8.55794C13.4422 8.50572 13.4768 8.4535 13.4984 8.42097C13.5078 8.40678 13.5147 8.39634 13.5147 8.39128ZM14.0316 8.41603L14.0311 8.41634L14.0255 8.41603H14.0316ZM14.0311 8.41634C14.0691 8.41953 14.2316 8.45339 14.2316 8.79936C14.2316 9.19103 14.09 9.19103 14.0733 9.19103C14.0615 9.18513 14.0664 9.0875 14.0703 9.01022V9.01021C14.0719 8.97824 14.0733 8.94976 14.0733 8.9327C14.0784 8.89673 14.0551 8.84494 14.0325 8.79487L14.0325 8.79486C14.0184 8.76372 14.0047 8.73326 13.9983 8.7077C13.9817 8.64119 13.965 8.45859 14.0311 8.41634ZM15.2812 6.73295C15.1895 6.56628 15.2145 6.40795 15.2812 6.39962V6.40795C15.3562 6.39962 15.4729 6.48295 15.5062 6.82462C15.5395 7.16628 15.3729 7.24128 15.3729 7.24128C15.3729 7.24128 15.3479 7.17462 15.3812 7.05795C15.411 6.9538 15.381 6.90278 15.309 6.78039L15.2812 6.73295ZM12.7564 9.19174C12.7564 9.19174 12.5981 10.0167 13.0231 10.0167C13.1814 10.0167 13.3564 9.60008 13.3898 9.51674L13.3998 9.49122C13.4425 9.38153 13.5488 9.10841 13.6481 9.10841C13.6934 9.10841 13.7607 9.18285 13.8394 9.27003C13.9488 9.39117 14.0804 9.5369 14.2064 9.54174C14.3894 9.54174 14.385 9.32689 14.3815 9.1525C14.3806 9.11241 14.3799 9.07446 14.3814 9.04174C14.3814 8.86674 14.2898 7.38341 14.2898 7.38341C14.2898 7.38341 13.7148 6.75008 13.6148 6.48341C13.5731 6.35841 13.5898 5.98341 13.6231 5.97508C13.6648 5.95841 14.1064 6.39174 14.0981 6.40008C14.0981 6.40008 14.1231 6.44174 14.0481 6.45841C13.9905 6.47761 14.0066 6.50172 14.021 6.5232C14.0253 6.52969 14.0295 6.53594 14.0314 6.54174C14.0398 6.56674 14.1564 6.65008 14.1564 6.65008L14.1314 6.10008C14.1314 6.10008 14.1314 5.97508 14.1981 5.97508C14.2731 5.97508 14.6398 6.63341 14.6398 6.63341C14.6398 6.63341 14.6314 6.74174 14.5814 6.72508L14.5626 6.71553C14.5211 6.69434 14.4876 6.67722 14.4731 6.69174C14.4648 6.70841 14.5148 7.17508 14.5148 7.17508L14.9064 7.72508L14.6648 6.15008C14.6648 6.15008 14.6814 5.99174 14.8231 5.98341C14.9568 5.97555 15.0385 6.23473 15.0963 6.41802L15.1064 6.45008C15.1228 6.50139 15.1384 6.54486 15.1518 6.58197C15.1862 6.67745 15.2054 6.73074 15.1814 6.76674C15.1601 6.79233 15.1366 6.78737 15.1165 6.78312C15.0973 6.77906 15.0812 6.77567 15.0731 6.80008C15.0648 6.85008 15.2648 8.29174 15.2648 8.29174C15.2648 8.29174 15.6981 8.80008 15.7564 9.00008C15.7898 9.12508 15.7231 9.53341 15.7231 9.53341L15.3398 8.94174V9.34174C15.3398 9.34174 15.1398 9.65008 15.0648 9.70008C14.9898 9.75008 14.9898 8.39174 14.9898 8.36674C14.9898 8.34174 14.7064 7.94174 14.6814 7.94174C14.6564 7.94174 14.6814 9.19174 14.6814 9.19174V9.47508C14.6814 9.47508 14.5481 9.96674 14.2564 9.96674C14.0951 9.96674 13.9873 9.84945 13.8936 9.74744C13.8178 9.66505 13.7513 9.59263 13.6731 9.60008C13.5966 9.611 13.5424 9.78105 13.4834 9.96629C13.4073 10.205 13.3232 10.4688 13.1731 10.4501C12.9064 10.4167 12.6897 10.1417 12.6481 9.97508C12.6064 9.80841 12.5897 9.18341 12.7564 9.19174ZM14.6646 9.94141C14.6646 9.88308 14.8563 9.86641 14.8563 9.86641C14.8563 9.86641 14.998 9.86641 14.998 9.90808C14.998 9.92306 14.9828 9.94983 14.9661 9.97931C14.9457 10.0154 14.923 10.0556 14.923 10.0831C14.923 10.1074 14.9623 10.1179 15.0036 10.129C15.0475 10.1407 15.0937 10.1531 15.098 10.1831C15.1085 10.2199 15.0591 10.2368 15.0066 10.2548C14.976 10.2653 14.9444 10.2761 14.923 10.2914C14.8563 10.3414 14.7063 10.4247 14.6646 10.3664C14.6335 10.3353 14.6961 10.2556 14.7477 10.1899L14.7477 10.1899C14.779 10.1501 14.8063 10.1155 14.8063 10.0997C14.8063 10.0807 14.7766 10.0581 14.7443 10.0336C14.7062 10.0046 14.6646 9.97303 14.6646 9.94141ZM15.5061 10.058L15.5028 10.0593C15.3756 10.1102 15.0652 10.2343 15.1561 10.383C15.1978 10.458 15.5394 10.483 15.7894 10.308C16.0394 10.133 16.1144 9.84133 16.1311 9.658C16.1644 9.333 16.1478 8.608 16.1311 8.36633C16.1144 8.12467 15.9978 6.99967 15.9561 6.84133C15.9173 6.69377 15.9725 6.66926 15.9937 6.65986L15.9978 6.658C16.0039 6.65596 16.016 6.65492 16.0306 6.65366C16.0759 6.64976 16.1457 6.64374 16.1394 6.59967C16.1394 6.54133 15.8144 6.083 15.8144 6.083C15.8144 6.083 15.7478 5.97467 15.7144 5.983C15.6811 5.983 15.6061 6.11633 15.6144 6.333C15.6228 6.54133 15.8561 8.608 15.8561 8.608C15.8561 8.608 16.0228 9.833 15.5144 10.058H15.5061ZM14.0812 13.9493C14.0812 13.9493 14.3145 13.8576 14.3895 13.9493L14.3979 13.9576C14.4043 13.9655 14.4108 13.9733 14.4174 13.9811C14.4879 14.065 14.5645 14.1562 14.5645 14.4076C14.5645 14.5076 14.5062 14.8576 14.2979 14.8326C14.0812 14.8076 14.1062 14.6743 14.1062 14.6743H13.1645C13.1645 14.6743 13.2145 14.8326 13.0895 14.8326C12.9729 14.8326 12.8812 14.641 12.8812 14.566C12.8812 14.491 12.9145 14.3243 12.9145 14.3243H6.08117C6.08117 14.3243 5.72284 14.4076 5.17283 13.9243L12.9645 13.9576C12.9645 13.9576 12.8312 13.7993 12.8395 13.7326C12.8562 13.666 12.8895 13.5576 12.9645 13.5576C13.0011 13.5576 13.006 13.5755 13.012 13.5976C13.0183 13.6209 13.0259 13.6489 13.0729 13.666C13.1645 13.6993 13.2062 13.7326 13.1729 13.8076C13.1395 13.8826 13.1145 13.9493 13.1145 13.9493H14.0812ZM13.7895 14.5243H13.9562H13.9645C13.9979 14.5326 14.1145 14.4993 14.1145 14.441C14.1145 14.3826 14.0062 14.3493 14.0062 14.3493H13.1062C13.0395 14.3493 13.0812 14.5243 13.2312 14.5243H13.5145C13.5145 14.5243 13.5229 14.4326 13.6395 14.441C13.7118 14.4461 13.7361 14.4768 13.754 14.4995C13.7651 14.5134 13.7737 14.5243 13.7895 14.5243Z" fill="#FBFBFB"/>
</svg>
