<svg width="20" height="20" viewBox="0 0 20 20" fill="none" xmlns="http://www.w3.org/2000/svg">
<rect width="20" height="20" rx="10" fill="#F93939"/>
<path d="M9.99998 14.6663C12.5773 14.6663 14.6666 12.577 14.6666 9.99967C14.6666 7.42235 12.5773 5.33301 9.99998 5.33301C7.42265 5.33301 5.33331 7.42235 5.33331 9.99967C5.33331 12.577 7.42265 14.6663 9.99998 14.6663Z" fill="white"/>
<path fill-rule="evenodd" clip-rule="evenodd" d="M11.9995 9.3335H13.3328V10.6668H11.9995V9.3335Z" fill="#F93939"/>
<path fill-rule="evenodd" clip-rule="evenodd" d="M12.6663 12.0003C12.0583 12.8097 11.0903 13.3337 9.99959 13.3337C8.15959 13.3337 6.66626 11.8403 6.66626 10.0003C6.66626 8.16033 8.15959 6.66699 9.99959 6.66699C11.0903 6.66699 12.0583 7.19099 12.6663 8.00033H10.6663C9.56226 8.00033 8.66626 8.89633 8.66626 10.0003C8.66626 11.1043 9.56226 12.0003 10.6663 12.0003H12.6663Z" fill="#F93939"/>
</svg>
