<svg width="20" height="20" viewBox="0 0 20 20" fill="none" xmlns="http://www.w3.org/2000/svg">
<rect width="20" height="20" rx="10" fill="#F93939"/>
<path fill-rule="evenodd" clip-rule="evenodd" d="M14.6698 11.5357L13.1204 12.3491L13.4164 10.6251L12.1631 9.40239L13.8964 9.14905L14.6698 7.58105L15.4431 9.15039L17.1764 9.40372L15.9231 10.6237L16.2191 12.3477" fill="white"/>
<path fill-rule="evenodd" clip-rule="evenodd" d="M8.66667 14.6663C11.244 14.6663 13.3333 12.577 13.3333 9.99967C13.3333 7.42234 11.244 5.33301 8.66667 5.33301C6.08933 5.33301 4 7.42234 4 9.99967C4 12.577 6.08933 14.6663 8.66667 14.6663ZM10 13.333C11.84 13.333 13.3333 11.8397 13.3333 9.99967C13.3333 8.15967 11.84 6.66634 10 6.66634C8.16 6.66634 6.66667 8.15967 6.66667 9.99967C6.66667 11.8397 8.16 13.333 10 13.333Z" fill="white"/>
</svg>
