<svg width="20" height="20" viewBox="0 0 20 20" fill="none" xmlns="http://www.w3.org/2000/svg">
<g clip-path="url(#clip0_1_482547)">
<rect width="20.0001" height="20" rx="10" fill="white"/>
<path fill-rule="evenodd" clip-rule="evenodd" d="M0 0H12.0001V9.33333H0V0Z" fill="#1A47B8"/>
<path fill-rule="evenodd" clip-rule="evenodd" d="M12.0001 0V1.33333H28.0001V0H12.0001ZM12.0001 2.66667V4H28.0001V2.66667H12.0001ZM12.0001 5.33333V6.66667H28.0001V5.33333H12.0001ZM12.0001 8V9.33333H28.0001V8H12.0001ZM0 10.6667V12H28.0001V10.6667H0ZM0 13.3333V14.6667H28.0001V13.3333H0ZM0 16V17.3333H28.0001V16H0ZM0 18.6667V20H28.0001V18.6667H0Z" fill="#F93939"/>
<path fill-rule="evenodd" clip-rule="evenodd" d="M1.33398 1.33301V2.66634H2.66732V1.33301H1.33398ZM4.00066 1.33301V2.66634H5.334V1.33301H4.00066ZM6.66734 1.33301V2.66634H8.00068V1.33301H6.66734ZM9.33402 1.33301V2.66634H10.6674V1.33301H9.33402ZM8.00068 2.66634V3.99967H9.33402V2.66634H8.00068ZM5.334 2.66634V3.99967H6.66734V2.66634H5.334ZM2.66732 2.66634V3.99967H4.00066V2.66634H2.66732ZM1.33398 3.99967V5.33301H2.66732V3.99967H1.33398ZM4.00066 3.99967V5.33301H5.334V3.99967H4.00066ZM6.66734 3.99967V5.33301H8.00068V3.99967H6.66734ZM9.33402 3.99967V5.33301H10.6674V3.99967H9.33402ZM1.33398 6.66634V7.99967H2.66732V6.66634H1.33398ZM4.00066 6.66634V7.99967H5.334V6.66634H4.00066ZM6.66734 6.66634V7.99967H8.00068V6.66634H6.66734ZM9.33402 6.66634V7.99967H10.6674V6.66634H9.33402ZM8.00068 5.33301V6.66634H9.33402V5.33301H8.00068ZM5.334 5.33301V6.66634H6.66734V5.33301H5.334ZM2.66732 5.33301V6.66634H4.00066V5.33301H2.66732Z" fill="white"/>
</g>
<defs>
<clipPath id="clip0_1_482547">
<rect width="20.0001" height="20" rx="10" fill="white"/>
</clipPath>
</defs>
</svg>
