<svg width="20" height="20" viewBox="0 0 20 20" fill="none" xmlns="http://www.w3.org/2000/svg">
<g clip-path="url(#clip0_1_482123)">
<rect width="20" height="20" rx="10" fill="white"/>
<path fill-rule="evenodd" clip-rule="evenodd" d="M-3.75 10H24.25V20H-3.75V10Z" fill="#00B140"/>
<path d="M17.4874 8.42533C17.4687 8.37213 17.4466 8.32012 17.4308 8.26591C17.3527 7.99836 17.3182 7.72206 17.2879 7.44485C17.2944 7.36428 17.2787 7.28503 17.2753 7.20496C17.2701 7.08507 17.2668 6.96527 17.2661 6.84548C17.2663 6.81349 17.2663 6.78141 17.2661 6.74932C17.2668 6.6422 17.2697 6.53498 17.2756 6.42776C17.2757 6.42534 17.276 6.42283 17.2762 6.42042C17.2763 6.41891 17.2765 6.4174 17.2766 6.41589C17.2811 6.36007 17.2945 6.30495 17.2883 6.24832C17.2924 6.22539 17.2978 6.20255 17.3 6.17942C17.3013 6.16554 17.3145 6.14643 17.299 6.13808C17.2802 6.12802 17.2728 6.15186 17.2641 6.16363C17.183 6.27246 17.0961 6.37586 17.0067 6.47674C16.6761 6.85051 16.3295 7.20707 15.9812 7.56173C15.8678 7.6772 15.7536 7.79186 15.64 7.90713C15.6312 7.91598 15.6178 7.92302 15.6211 7.93912C15.6236 7.95169 15.6352 7.95078 15.6442 7.95119C15.8117 7.95803 15.979 7.95923 16.1465 7.94475C16.2367 7.9369 16.3247 7.91498 16.4146 7.90703C16.4411 7.9191 16.4305 7.93811 16.4231 7.95702C16.3699 8.09452 16.3158 8.23161 16.2642 8.36981C16.2511 8.40481 16.2349 8.40663 16.2073 8.39083C16.037 8.29337 15.8552 8.23644 15.664 8.20978C15.505 8.18756 15.3459 8.17378 15.1873 8.20697C14.9385 8.25897 14.7221 8.37152 14.5702 8.59894C14.4831 8.73885 14.4465 8.88973 14.4656 9.05931C14.4893 9.26963 14.5899 9.4197 14.7586 9.52129C14.9387 9.62981 15.1377 9.65556 15.3392 9.65657C15.5293 9.65747 15.7111 9.61 15.8843 9.52571C15.9001 9.51797 15.9196 9.49946 15.9362 9.51344C15.9518 9.52662 15.9323 9.54724 15.9335 9.56504C15.93 9.57148 15.9263 9.57791 15.9227 9.58435C15.9048 9.61513 15.8868 9.64601 15.8688 9.67679C15.7874 9.75796 15.7018 9.83058 15.5966 9.87725C15.5006 9.91979 15.4002 9.94424 15.3018 9.97682C15.1475 9.99111 14.9933 10.0095 14.8382 9.99956C14.7556 9.99423 14.6716 9.99302 14.592 9.96687C14.4394 9.91668 14.2828 9.8857 14.1269 9.8525C13.9166 9.80774 13.7039 9.78019 13.4908 9.75725C13.382 9.74548 13.2729 9.7307 13.1629 9.73573C13.0995 9.72587 13.0358 9.72366 12.972 9.72849C12.8969 9.72748 12.8218 9.72637 12.7469 9.72537C12.7518 9.6957 12.7711 9.67498 12.7879 9.65345C12.8801 9.53517 12.9894 9.4383 13.1136 9.36116C13.286 9.25414 13.4682 9.18021 13.6704 9.16995C13.7617 9.16532 13.8513 9.16884 13.9396 9.1953C13.9516 9.19892 13.968 9.21199 13.9778 9.19409C13.9862 9.1788 13.9696 9.17136 13.9618 9.162C13.9401 9.13565 13.9168 9.11061 13.8962 9.08325C13.7259 8.85623 13.6808 8.59653 13.7564 8.32364C13.8292 8.06102 13.9868 7.85121 14.182 7.67549C14.4236 7.45793 14.6985 7.30625 15.001 7.2108C15.013 7.20697 15.0295 7.20557 15.031 7.19118C15.0329 7.17298 15.0139 7.17539 15.0034 7.17137C14.9237 7.14049 14.8465 7.10458 14.7752 7.05489C14.6964 6.99977 14.6272 6.93097 14.5955 6.83683C14.564 6.74319 14.5691 6.64301 14.602 6.54705C14.6535 6.39658 14.7391 6.26934 14.8394 6.15276C15.0649 5.89075 15.3313 5.68264 15.6075 5.48731C15.6222 5.47695 15.6415 5.47091 15.6446 5.44687C15.6202 5.44074 15.6011 5.45381 15.5813 5.46236C15.2711 5.59654 14.9617 5.73313 14.6504 5.8647C14.2795 6.0216 13.9096 6.18133 13.532 6.31963C13.3999 6.36801 13.2653 6.40603 13.1237 6.39587C12.9727 6.38501 12.851 6.30847 12.8185 6.12591C12.7974 6.00712 12.806 5.88924 12.8278 5.77246C12.8589 5.60489 12.9112 5.44396 12.9707 5.28564C12.9787 5.26432 12.9928 5.24299 12.9869 5.21151C12.9065 5.25939 12.8299 5.30455 12.7537 5.35041C12.5533 5.47111 12.353 5.59212 12.1527 5.71302C12.1345 5.72257 12.1159 5.73142 12.0982 5.74188C11.7273 5.96216 11.358 6.18535 10.9938 6.418C10.7519 6.5726 10.5111 6.7292 10.2796 6.9014C10.0222 7.09291 9.77033 7.29197 9.56321 7.54704C9.41967 7.72387 9.33002 7.9185 9.33792 8.16523C9.3462 8.42393 9.36896 8.68363 9.34056 8.94283C9.33162 8.9537 9.33228 8.96768 9.32946 8.98055C9.3018 9.10789 9.24094 9.21048 9.12722 9.26611C9.03128 9.31308 8.92734 9.3335 8.8233 9.34818C8.64816 9.37293 8.47245 9.39455 8.30125 9.44283C8.21199 9.46798 8.1215 9.48799 8.03374 9.51968C8.01163 9.52762 7.98078 9.54643 7.96432 9.5075C7.91842 9.39837 7.88239 9.28632 7.89255 9.16391C7.89904 9.08586 7.9298 9.05257 8.00147 9.04563C8.10466 9.03567 8.20757 9.03145 8.30765 9.06906C8.34048 9.08144 8.34829 9.06615 8.33973 9.03557C8.32298 8.97582 8.30022 8.9192 8.25864 8.87353C8.22582 8.83129 8.18885 8.79488 8.1452 8.7646C8.06976 8.7123 7.98511 8.68494 7.90224 8.65235C7.88606 8.62419 7.86038 8.60015 7.86057 8.56444C7.86076 8.506 7.85793 8.44786 7.86725 8.38922C7.8823 8.29438 7.8728 8.26963 7.99734 8.29357C8.14821 8.32254 8.29711 8.36458 8.42749 8.45782C8.44893 8.47311 8.46201 8.47693 8.46031 8.44213C8.45204 8.26702 8.40153 8.11524 8.25836 8.01174C8.20173 7.9708 8.13683 7.95722 8.07296 7.94545C8.01041 7.93399 7.97815 7.9012 7.96987 7.83672C7.9726 7.78995 7.97532 7.74328 7.97815 7.69651C7.98718 7.66986 7.99555 7.643 8.00542 7.61675C8.01991 7.57812 8.0455 7.55217 8.08566 7.54926C8.1357 7.54564 8.18565 7.54483 8.2355 7.55509C8.33813 7.57631 8.43285 7.61936 8.52456 7.67116C8.54554 7.68303 8.56595 7.69178 8.56162 7.65215C8.54892 7.53598 8.52324 7.42484 8.44686 7.33481C8.40303 7.28613 8.36362 7.23131 8.29787 7.21341C8.26259 7.18917 8.22158 7.18474 8.18217 7.17438C8.15207 7.16644 8.11981 7.16161 8.10109 7.12993C8.04888 7.04141 8.10664 6.92212 8.20399 6.91468C8.28536 6.90854 8.36202 6.93329 8.44019 6.94948C8.46615 6.95481 8.5017 6.98619 8.51562 6.96055C8.52889 6.9362 8.49314 6.90663 8.47508 6.88239C8.37265 6.74469 8.2388 6.65166 8.08594 6.59452C7.98332 6.5562 7.94485 6.48077 7.92707 6.37545C7.9203 6.33562 7.93422 6.28533 7.88587 6.25516C7.80046 6.20195 7.80093 6.14643 7.88295 6.0898C8.04089 5.98087 8.20042 5.87475 8.36371 5.77508C8.39475 5.75617 8.43078 5.74349 8.45843 5.70829C8.39146 5.70004 8.33126 5.70457 8.27106 5.71634C8.24858 5.72076 8.23193 5.71734 8.24736 5.68596C8.26796 5.64412 8.27793 5.59815 8.28931 5.55309C8.31649 5.44567 8.32524 5.33603 8.31715 5.22499C8.3163 5.21342 8.31687 5.19964 8.30445 5.19501C8.29617 5.1919 8.291 5.20095 8.28658 5.20799C8.19976 5.34307 8.05961 5.37818 7.92651 5.42525C7.90139 5.4341 7.89405 5.42183 7.90299 5.39296C7.92002 5.33754 7.93469 5.28111 7.94711 5.22428C7.95971 5.16675 7.96009 5.10781 7.95219 5.04947C7.94927 5.02805 7.94015 5.00401 7.91776 5.00029C7.89819 4.99707 7.89772 5.02181 7.89029 5.03549C7.8712 5.07069 7.84636 5.10027 7.81551 5.12451C7.74675 5.17862 7.6699 5.21604 7.59202 5.25144C7.44086 5.32024 7.28434 5.37657 7.14211 5.46639C7.06028 5.51809 6.98653 5.57924 6.94251 5.67319C6.93461 5.69008 6.92295 5.70376 6.90282 5.70356C6.7541 5.70155 6.60529 5.7106 6.45658 5.69743C6.31962 5.68536 6.18521 5.65136 6.04656 5.65337C5.83783 5.65629 5.68733 5.7612 5.57841 5.94476C5.54915 6.01285 5.49789 6.02251 5.4328 6.01919C5.30007 6.01245 5.16791 6.02291 5.03566 6.04212C4.78423 6.07874 4.54305 6.14894 4.31617 6.27105C4.18401 6.34216 4.06239 6.42987 3.96391 6.54997C3.95469 6.56123 3.93428 6.5729 3.94481 6.5906C3.95243 6.60338 3.97124 6.59523 3.98469 6.59241C4.18307 6.55198 4.38296 6.52925 4.5851 6.52935C4.73551 6.52935 4.88516 6.53428 5.03331 6.56636C5.06172 6.5725 5.07178 6.58547 5.07338 6.61605C5.07837 6.7116 5.11505 6.78966 5.19199 6.84296C5.20225 6.8487 5.21241 6.85453 5.22266 6.86026C5.24279 6.87897 5.26884 6.87887 5.29283 6.88611C5.31512 6.89285 5.32763 6.91347 5.32613 6.9355C5.32444 6.95924 5.30205 6.94978 5.28785 6.95079C5.16613 6.95924 5.04385 6.96236 4.92279 6.97694C4.84293 6.9866 4.76325 6.98368 4.68358 6.98911C4.44748 7.00541 4.21101 7.01154 3.97444 7.00068C3.96306 7.00017 3.94867 7.00591 3.93917 6.98469C4.02364 6.92363 4.11422 6.87002 4.19239 6.80002C3.72141 6.75857 3.30471 6.56445 2.89713 6.31551C2.912 6.37043 2.92206 6.4169 2.94238 6.46045C3.05817 6.70929 3.21883 6.92242 3.40225 7.11665C3.5743 7.29881 3.75781 7.46497 3.98535 7.56535C4.00097 7.57229 4.01517 7.58034 4.03492 7.57279C4.00021 7.48428 3.94528 7.41256 3.90164 7.33361C3.8942 7.32013 3.87078 7.31148 3.88047 7.29307C3.89016 7.27467 3.91245 7.27658 3.93108 7.27467C3.97275 7.27034 4.01564 7.28322 4.05637 7.26491C4.10585 7.26491 4.15542 7.26491 4.2049 7.26501H4.20527C4.26162 7.27718 4.31862 7.27326 4.37543 7.27265C4.57071 7.28583 4.76598 7.29891 4.96126 7.31218C5.02531 7.31651 5.08928 7.32154 5.15333 7.32637C5.17271 7.32787 5.19303 7.32958 5.19265 7.35795C5.19152 7.45431 5.23856 7.52964 5.28568 7.60508C5.30939 7.643 5.33234 7.68172 5.33196 7.729C5.33149 7.78613 5.33422 7.84276 5.34541 7.89838C5.36573 7.99916 5.39978 8.09381 5.46346 8.17347C5.47089 8.18283 5.47908 8.19822 5.49328 8.19238C5.50466 8.18766 5.50127 8.17207 5.50363 8.1609C5.5104 8.12992 5.50795 8.09814 5.51397 8.06655C5.54191 7.9192 5.63447 7.80092 5.66795 7.64451C5.71508 7.72447 5.7131 7.80765 5.73737 7.88339C5.76475 7.8677 5.77095 7.84185 5.78271 7.82113C5.90133 7.61081 6.06114 7.45742 6.28821 7.39265C6.32188 7.38309 6.33543 7.39074 6.33947 7.42474C6.3438 7.46195 6.35452 7.49715 6.3739 7.52783C6.39243 7.5573 6.39083 7.5741 6.36073 7.59583C6.28397 7.65125 6.23685 7.7295 6.21324 7.82646C6.19659 7.89476 6.2011 7.96275 6.20346 8.03085C6.20459 8.06354 6.19913 8.08305 6.16828 8.09572C6.13122 8.11091 6.10243 8.14018 6.07826 8.17418C6.01279 8.26641 5.97582 8.36901 5.98118 8.48599C5.98307 8.52702 5.97422 8.55529 5.94008 8.58285C5.81046 8.68735 5.73154 8.82485 5.71997 9.00198C5.71555 9.06937 5.7037 9.13324 5.64416 9.17448C5.62779 9.18584 5.6165 9.20616 5.60446 9.22366C5.49845 9.37735 5.4708 9.54764 5.50899 9.73251C5.51294 9.75142 5.5309 9.77496 5.50776 9.79266C5.43882 9.84556 5.40147 9.92271 5.36432 10.0004C5.29518 10.2212 5.34438 10.4201 5.46722 10.6025C5.49168 10.6388 5.49347 10.6632 5.47061 10.6991C5.43684 10.7522 5.41558 10.8126 5.40947 10.8768C5.40524 10.9215 5.38426 10.9299 5.34513 10.9354C5.25041 10.9484 5.16942 10.942 5.08805 10.8709C5.02165 10.813 4.92636 10.8128 4.83945 10.8141C4.80267 10.8147 4.78094 10.8021 4.75959 10.7682C4.69741 10.6695 4.60043 10.6239 4.49762 10.595C4.44937 10.5815 4.42181 10.563 4.40657 10.5072C4.3727 10.3835 4.28908 10.2943 4.19728 10.2173C4.15015 10.1779 4.12776 10.1354 4.13077 10.0731C4.132 10.0484 4.12504 10.0234 4.12184 9.99855C4.11845 9.98407 4.11365 9.96988 4.11187 9.9552C4.08797 9.75424 4.03361 9.56363 3.94415 9.38469C3.88762 9.27154 3.89627 9.20938 3.98723 9.12378C4.04 9.07409 4.09719 9.02964 4.15363 8.98447C4.25306 8.90481 4.29284 8.7991 4.27554 8.66874C4.27187 8.64139 4.2793 8.62067 4.29143 8.59814C4.35521 8.47965 4.34402 8.33139 4.26199 8.22759C4.22945 8.18635 4.19342 8.14742 4.12974 8.13515C4.16511 8.20325 4.17395 8.26671 4.16915 8.333C4.16464 8.39446 4.12645 8.46406 4.09023 8.46889C4.03793 8.47583 3.99673 8.50379 3.95798 8.53909C3.93164 8.56313 3.9085 8.5921 3.87624 8.61051C3.87041 8.59321 3.8752 8.58053 3.87774 8.56766C3.89439 8.48428 3.9149 8.40099 3.90841 8.31499C3.90098 8.21703 3.88687 8.12037 3.79506 8.06515C3.77775 8.05469 3.7755 8.03467 3.77192 8.01757C3.7454 7.89295 3.66911 7.81701 3.56122 7.77517C3.48889 7.7471 3.41458 7.73865 3.33951 7.77758C3.35372 7.79709 3.37168 7.79961 3.38711 7.80675C3.4649 7.84266 3.52021 7.9014 3.54072 7.99051C3.54984 8.03024 3.56084 8.07631 3.5315 8.11061C3.46913 8.18363 3.46217 8.2645 3.49208 8.35281C3.49839 8.37142 3.50111 8.38762 3.4918 8.40542C3.46001 8.46617 3.44581 8.53296 3.43433 8.60055C3.42154 8.62318 3.42831 8.64843 3.42615 8.67247C3.42474 8.68775 3.43038 8.70717 3.40724 8.70988C3.35362 8.63052 3.32108 8.53929 3.27988 8.45289C3.2462 8.38228 3.20152 8.32344 3.12449 8.30373C3.1084 8.29961 3.09693 8.28794 3.08808 8.27376C3.02995 8.18072 2.94332 8.13566 2.84446 8.12097C2.76084 8.1085 2.68324 8.13455 2.61288 8.18896C2.62746 8.20777 2.64072 8.20295 2.65276 8.20365C2.74249 8.20918 2.8153 8.2475 2.86666 8.32837C2.88952 8.36428 2.89412 8.39848 2.87447 8.44032C2.83176 8.53125 2.84587 8.61624 2.9119 8.68826C2.93184 8.70998 2.93627 8.73 2.9293 8.76007C2.91585 8.81771 2.91614 8.87645 2.93975 8.93207C2.97135 9.0065 3.02911 9.04975 3.09598 9.08385C3.18835 9.13102 3.24545 9.20837 3.25956 9.31861C3.26859 9.38902 3.23445 9.44826 3.21347 9.51042C3.1749 9.62428 3.15365 9.73854 3.19108 9.85763C3.21469 9.90179 3.20914 9.95067 3.21102 9.99835C3.20519 10.0031 3.19945 10.0078 3.19362 10.0125C3.18534 10.055 3.16258 10.0867 3.12543 10.1023C3.07736 10.1224 3.05083 10.1606 3.03437 10.2101C3.02177 10.2479 3.00691 10.2849 2.99496 10.323C2.97097 10.3992 2.9278 10.4543 2.85387 10.4784C2.79799 10.4967 2.77071 10.5427 2.76056 10.6C2.75237 10.6463 2.74823 10.6967 2.77043 10.738C2.80476 10.8018 2.77767 10.8459 2.7408 10.8905C2.7076 10.9308 2.6648 10.9531 2.61767 10.9696C2.5793 10.983 2.53819 10.9788 2.5 10.9904C2.50132 11.008 2.51242 11.0127 2.52107 11.0191C2.65492 11.1184 2.84192 11.1001 2.95724 10.977C2.97455 10.9585 2.98781 10.9342 3.01631 10.9308C3.12289 10.9179 3.17961 10.8419 3.19644 10.7403C3.22607 10.562 3.34497 10.4339 3.40414 10.2687C3.4222 10.2891 3.42248 10.308 3.4268 10.3251C3.46603 10.4798 3.52651 10.6243 3.60618 10.76C3.72132 10.9558 3.86787 11.123 4.02185 11.2833C4.20348 11.4725 4.39246 11.6538 4.55923 11.8591C4.84349 12.2088 5.00368 12.612 5.02541 13.0764C5.02616 13.0923 5.01892 13.1152 5.03547 13.1221C5.05485 13.1301 5.0651 13.1069 5.0747 13.0935C5.22717 12.8821 5.3503 12.6542 5.40937 12.392C5.41615 12.362 5.42838 12.3507 5.45678 12.3499C5.64406 12.3445 5.82739 12.3104 6.00828 12.26C6.02869 12.2542 6.04825 12.2515 6.06791 12.2609C6.11005 12.2808 6.15567 12.2832 6.20016 12.2913C6.20468 12.3526 6.18794 12.4162 6.21813 12.4745C6.21597 12.4897 6.21164 12.5025 6.19913 12.5129C6.08701 12.6068 6.04129 12.7336 6.04148 12.8824C6.04148 12.8998 6.04233 12.9172 6.02285 12.9234C5.93763 12.9507 5.91308 13.0243 5.897 13.1065C5.87781 13.2046 5.86229 13.3034 5.82438 13.3969C5.68902 13.7302 5.33648 14.0438 4.87688 13.9048C4.72892 13.86 4.5946 13.7858 4.46244 13.7052C4.40845 13.6723 4.35201 13.647 4.28824 13.6585C4.25277 13.6649 4.22126 13.6576 4.18796 13.6447C4.02279 13.5807 3.83175 13.6651 3.7691 13.828C3.76459 13.8399 3.75217 13.854 3.76148 13.8651C3.77465 13.8808 3.78688 13.8621 3.79835 13.8562C3.87897 13.8141 3.96071 13.7948 4.04706 13.837C4.067 13.8468 4.08449 13.8561 4.07622 13.8848C4.05853 13.9462 4.05383 14.0092 4.05421 14.0734C4.05439 14.1099 4.03492 14.1282 3.99824 14.1199C3.91593 14.1013 3.83579 14.1113 3.75875 14.1456C3.64522 14.1961 3.55595 14.2723 3.52651 14.4081C3.52303 14.4241 3.51532 14.446 3.5283 14.4557C3.54598 14.4689 3.5536 14.4435 3.56414 14.4336C3.64418 14.3582 3.739 14.3317 3.84303 14.3376C3.92741 14.3424 3.99438 14.3745 4.03746 14.4615C4.06568 14.5184 4.06756 14.5395 4.01084 14.5691C3.88 14.6374 3.80898 14.7927 3.84031 14.9421C3.84398 14.9595 3.84407 14.9836 3.86448 14.9862C3.88292 14.9885 3.88649 14.9654 3.89279 14.9509C3.93691 14.8497 4.01131 14.7936 4.11441 14.7797C4.13651 14.7766 4.15805 14.7756 4.17724 14.7916C4.27638 14.8745 4.39086 14.8907 4.51126 14.8767C4.65828 14.8596 4.8022 14.8231 4.91357 14.7145C5.02099 14.6097 5.14158 14.5732 5.28079 14.5898C5.34927 14.5979 5.41718 14.611 5.48557 14.6206C5.53815 14.6281 5.58979 14.6263 5.63089 14.5833C5.6831 14.5287 5.7464 14.4989 5.81667 14.4819C5.90951 14.4595 5.99934 14.495 6.04778 14.5823C6.08635 14.6519 6.14043 14.6893 6.21474 14.6953C6.24908 14.698 6.2835 14.7007 6.31793 14.7008C6.36045 14.7009 6.39807 14.7119 6.42968 14.7442C6.45178 14.7667 6.47934 14.7795 6.50935 14.7845C6.62392 14.8035 6.72372 14.7701 6.80555 14.6825C6.82503 14.6617 6.84403 14.6526 6.87093 14.6511C6.96941 14.6454 7.04241 14.6922 7.1011 14.7722C7.1107 14.7854 7.11436 14.807 7.13581 14.8078C7.17456 14.6219 7.04052 14.4338 6.85531 14.4146C6.82888 14.4119 6.80838 14.4047 6.79022 14.3823C6.73595 14.3152 6.66314 14.2848 6.58375 14.297C6.44793 14.3178 6.32235 14.2839 6.19772 14.2354C6.13093 14.2095 6.12952 14.2027 6.15257 14.1286C6.20402 13.9632 6.28247 13.8134 6.37851 13.6733C6.56118 13.4069 6.789 13.1858 7.00892 12.9568C7.11436 12.847 7.22141 12.7384 7.30663 12.6087C7.31209 12.6004 7.31331 12.5848 7.33127 12.5892C7.33278 12.5982 7.33532 12.6078 7.33588 12.6174C7.34134 12.7254 7.37435 12.8242 7.4259 12.9158C7.45986 12.976 7.49927 13.0325 7.53464 13.0919C7.58289 13.1727 7.61751 13.2577 7.59559 13.3573C7.59418 13.3638 7.59625 13.3708 7.6082 13.373C7.67103 13.3128 7.72399 13.2407 7.76886 13.1619C7.80987 13.0898 7.84034 13.013 7.84702 12.9274C7.86386 12.877 7.85982 12.8251 7.85633 12.7733C7.90816 12.7436 7.96705 12.7298 8.01568 12.6929C8.08688 12.66 8.14097 12.6033 8.18678 12.5398C8.21481 12.501 8.24275 12.4972 8.28348 12.5049C8.58288 12.5613 8.83375 12.4636 9.03702 12.2249C9.06223 12.1953 9.08358 12.1883 9.1181 12.198C9.2321 12.2302 9.3447 12.2241 9.45456 12.1763C9.46585 12.1713 9.47902 12.1592 9.48946 12.1681C9.50263 12.1794 9.49134 12.1962 9.48852 12.2103C9.42945 12.4966 9.5903 12.7483 9.86195 12.7928C9.88819 12.7972 9.90409 12.8077 9.91237 12.8361C9.92497 12.8794 9.94482 12.9195 9.97247 12.9547C10.0933 13.1088 10.254 13.1647 10.4341 13.1508C10.5078 13.1451 10.566 13.1509 10.6212 13.2059C10.6647 13.2492 10.7262 13.2614 10.7816 13.2884C10.7754 13.2956 10.773 13.3008 10.7693 13.3025C10.675 13.3452 10.6234 13.4212 10.6174 13.5302C10.6151 13.5713 10.593 13.5815 10.5607 13.5889C10.4796 13.6075 10.4051 13.6403 10.3552 13.7171C10.3462 13.7248 10.3392 13.7339 10.3383 13.7469C10.326 13.7715 10.306 13.7657 10.2854 13.764C10.2205 13.7585 10.1554 13.7512 10.0909 13.7684C10.0544 13.767 10.0193 13.7752 9.98442 13.7852C9.9341 13.7996 9.89055 13.8351 9.84097 13.8468C9.62416 13.8975 9.42653 13.8784 9.27029 13.6647C9.19815 13.5659 9.11067 13.4841 9.00626 13.4266C8.92913 13.3841 8.84767 13.3492 8.75859 13.3798C8.7236 13.3919 8.69002 13.3983 8.65324 13.3977C8.47518 13.3955 8.31696 13.5304 8.29476 13.7012C8.29288 13.7154 8.28366 13.7345 8.29843 13.7426C8.31405 13.7513 8.32185 13.7306 8.33145 13.721C8.39776 13.6548 8.47367 13.6182 8.56642 13.632C8.59257 13.6358 8.6158 13.6435 8.62192 13.6763C8.64308 13.7898 8.71777 13.8346 8.81625 13.8476C8.9026 13.859 8.98453 13.8857 9.06317 13.9251C9.14792 13.9676 9.22213 14.0255 9.28657 14.0977C9.29588 14.1082 9.31168 14.1175 9.3051 14.1348C9.29898 14.1508 9.28167 14.149 9.26813 14.1518C9.23398 14.159 9.19975 14.1594 9.16522 14.1545C9.07267 14.1417 8.98575 14.1088 8.90006 14.0711C8.79443 14.0246 8.69152 13.9705 8.57771 13.948C8.52494 13.9377 8.47377 13.9422 8.42626 13.9667C8.39823 13.9813 8.37114 13.9856 8.34076 13.9858C8.1516 13.9873 7.98736 14.164 7.99724 14.3542C7.99809 14.37 7.99291 14.3928 8.01097 14.398C8.02715 14.4028 8.03063 14.3801 8.03872 14.3689C8.08707 14.3016 8.14558 14.2522 8.22685 14.2384C8.26391 14.2322 8.29109 14.2378 8.30361 14.2813C8.31104 14.3071 8.3275 14.3279 8.34471 14.3479C8.39428 14.4055 8.45448 14.4413 8.52738 14.4521C8.53792 14.4537 8.55127 14.4528 8.55391 14.4674C8.55626 14.4805 8.54685 14.4889 8.53763 14.4957C8.52992 14.5014 8.52183 14.5066 8.51402 14.5122C8.41159 14.5864 8.35609 14.6866 8.36531 14.8219C8.36672 14.8424 8.35957 14.8723 8.38281 14.8783C8.39946 14.8827 8.40359 14.8532 8.41375 14.8392C8.42532 14.8234 8.43539 14.8062 8.44809 14.7915C8.52146 14.706 8.59539 14.6883 8.695 14.7318C8.81136 14.7825 8.91934 14.7787 9.01971 14.6864C9.1481 14.5684 9.29588 14.5295 9.46275 14.5692C9.53517 14.5865 9.60121 14.5801 9.65943 14.5128C9.72424 14.4378 9.79883 14.4415 9.87314 14.5058C9.89017 14.5206 9.90663 14.5361 9.92431 14.5499C9.99448 14.6044 10.0663 14.6049 10.1391 14.5556C10.1576 14.543 10.1753 14.529 10.194 14.5168C10.2729 14.465 10.3552 14.4574 10.4414 14.4947C10.4974 14.5189 10.5443 14.558 10.5907 14.598C10.674 14.6698 10.7609 14.7358 10.8649 14.769C10.9263 14.7886 10.9888 14.8083 11.0529 14.7785C11.0983 14.7707 11.133 14.7456 11.1584 14.705C11.3102 14.6294 11.4157 14.7107 11.5139 14.8367C11.5206 14.7675 11.5199 14.7116 11.4969 14.6584C11.4317 14.508 11.3179 14.4424 11.1663 14.4434C11.1177 14.3922 11.0582 14.371 10.9912 14.3726C10.8922 14.3749 10.7936 14.3728 10.6964 14.3512C10.6669 14.3446 10.6355 14.3401 10.6051 14.3106C10.657 14.293 10.7026 14.2778 10.7481 14.262C11.1489 14.1217 11.5036 13.8982 11.8116 13.5898C11.9676 13.4335 12.1086 13.2633 12.2352 13.0791C12.2469 13.0619 12.2572 13.0389 12.2829 13.0596C12.3553 13.1176 12.4411 13.138 12.5268 13.1596C12.6363 13.1871 12.7485 13.207 12.8465 13.2727C12.8589 13.2811 12.8708 13.2991 12.8879 13.2868C12.9031 13.2758 12.8979 13.2562 12.8972 13.24C12.8866 13.0038 12.7915 12.8277 12.5827 12.7302C12.4535 12.6698 12.3156 12.646 12.1796 12.6143C12.0401 12.5818 11.9003 12.5507 11.7754 12.4716C11.5723 12.3429 11.5237 12.1454 11.6417 11.9271C11.7242 11.7745 11.8448 11.6607 11.9737 11.5552C11.9921 11.5401 12.0088 11.5397 12.0298 11.5505C12.1023 11.5879 12.1782 11.6138 12.2581 11.6252C12.2771 11.6279 12.2931 11.6334 12.3058 11.6521C12.424 11.8249 12.5925 11.9024 12.784 11.9257C12.8462 11.9333 12.9065 11.9266 12.9528 11.9842C12.965 11.9993 12.9876 12.0062 13.0065 12.0141C13.1766 12.085 13.3498 12.0791 13.524 12.0351C13.544 12.03 13.5613 12.0229 13.5816 12.0382C13.7649 12.1767 13.9639 12.1783 14.1693 12.1104C14.1905 12.1033 14.2047 12.1076 14.2211 12.1196C14.3193 12.1916 14.4241 12.2132 14.5373 12.1646C14.5624 12.1538 14.5738 12.1609 14.5798 12.1896C14.6017 12.2945 14.6569 12.3714 14.7511 12.4133C14.7731 12.4231 14.776 12.4358 14.7673 12.4604C14.7201 12.596 14.7468 12.7201 14.8236 12.8349C14.8325 12.8483 14.8469 12.8577 14.8487 12.8761C14.8165 12.9744 14.7793 13.0748 14.8088 13.179C14.8275 13.245 14.8109 13.2816 14.7661 13.3237C14.6846 13.4006 14.6523 13.4986 14.6851 13.6139C14.6928 13.6411 14.6881 13.6613 14.673 13.6835C14.6196 13.7624 14.5627 13.8378 14.4972 13.9058C14.3441 14.0646 14.1644 14.0906 13.9763 13.9833C13.8486 13.9106 13.7417 13.811 13.6428 13.7003C13.579 13.6288 13.5185 13.5534 13.4364 13.5042C13.366 13.4621 13.2913 13.446 13.216 13.4841C13.1848 13.4999 13.1558 13.5066 13.1221 13.5065C12.9492 13.5058 12.805 13.6366 12.7881 13.8081C12.7866 13.8237 12.7785 13.8456 12.7957 13.8536C12.8106 13.8605 12.8181 13.8393 12.8274 13.8292C12.8812 13.7711 12.9443 13.735 13.022 13.7302C13.0599 13.7278 13.0879 13.7374 13.1037 13.7797C13.1211 13.8264 13.158 13.8567 13.1962 13.8838C13.2223 13.9023 13.2497 13.9187 13.2758 13.9373C13.2877 13.9458 13.3117 13.9495 13.3055 13.9691C13.2998 13.9872 13.2777 13.9773 13.2628 13.9777C13.1528 13.9803 13.0419 13.9777 12.9545 14.0691C12.9455 14.0785 12.9285 14.0794 12.915 14.0835C12.8469 14.104 12.7877 14.1407 12.7421 14.1988C12.6782 14.2802 12.6553 14.3728 12.6795 14.4899C12.7005 14.4604 12.7149 14.4394 12.73 14.4192C12.7788 14.3542 12.8431 14.32 12.9199 14.3121C12.9385 14.3102 12.9585 14.3085 12.973 14.3253C13.0319 14.3938 13.1087 14.4039 13.1889 14.4004C13.2608 14.3971 13.3326 14.3894 13.4046 14.3866C13.4378 14.3853 13.4725 14.3851 13.5075 14.4071C13.4821 14.4276 13.4548 14.4301 13.4306 14.4398C13.3736 14.4626 13.3193 14.4921 13.2894 14.5501C13.2701 14.5876 13.2445 14.6109 13.2125 14.6335C13.1006 14.7129 13.0497 14.8244 13.0677 14.9689C13.0691 14.98 13.0665 14.9952 13.0794 14.9992C13.0935 15.0037 13.0962 14.988 13.1019 14.9787C13.1052 14.9731 13.1075 14.9667 13.1108 14.9611C13.17 14.8593 13.2843 14.7973 13.3726 14.8261C13.5156 14.8729 13.6408 14.833 13.7502 14.7364C13.9041 14.6006 14.0804 14.5594 14.2731 14.5759C14.3221 14.5801 14.3682 14.5971 14.4066 14.6324C14.4513 14.6734 14.5034 14.6923 14.5618 14.6946C14.6823 14.6993 14.7925 14.6599 14.89 14.59C14.9923 14.5166 15.1013 14.5117 15.2146 14.5314C15.3348 14.5522 15.4399 14.6068 15.5291 14.699C15.6279 14.8012 15.7502 14.8081 15.8652 14.7254C15.8792 14.7154 15.8938 14.7132 15.9096 14.7121C16.0152 14.7046 16.0934 14.7534 16.1522 14.8447C16.1627 14.861 16.1647 14.8967 16.1881 14.8884C16.2077 14.8813 16.2039 14.8479 16.2059 14.825C16.2073 14.8101 16.2065 14.7948 16.2051 14.7799C16.1913 14.6287 16.0913 14.5111 15.9455 14.4736C15.9231 14.4678 15.8986 14.4682 15.8817 14.4461C15.8437 14.3969 15.7915 14.376 15.7351 14.3634C15.6906 14.3535 15.6461 14.3436 15.6021 14.3315C15.4299 14.2838 15.3613 14.1827 15.3685 13.9918C15.3722 13.8939 15.3936 13.7994 15.4154 13.7051C15.4861 13.3997 15.5739 13.0983 15.6014 12.783C15.6223 12.5429 15.6137 12.3074 15.5069 12.0872C15.5035 12.0801 15.4987 12.0723 15.5061 12.0637C15.5228 12.065 15.5333 12.0785 15.5461 12.0875C15.7261 12.2136 15.9176 12.3101 16.1329 12.3443C16.1582 12.3484 16.1909 12.364 16.2072 12.3373C16.2213 12.3142 16.1979 12.2874 16.1863 12.2645C16.0883 12.0695 15.9421 11.9215 15.7762 11.7947C15.5478 11.6201 15.296 11.4919 15.0358 11.3829C14.8297 11.2965 14.624 11.2109 14.4479 11.0623C14.4356 11.052 14.4169 11.0466 14.4138 11.0191C14.5081 11.0148 14.5998 11.0076 14.6911 10.9953C15.1603 10.9323 15.6035 10.7853 16.0063 10.5166C16.2149 10.3774 16.403 10.2121 16.5285 9.97914C16.5375 9.96123 16.5466 9.94343 16.5557 9.92553C16.5595 9.9203 16.5642 9.91557 16.5671 9.90974C16.7461 9.54784 16.7643 9.17971 16.6022 8.80584C16.587 8.77063 16.5835 8.74277 16.5987 8.70697C16.6218 8.65225 16.6399 8.59502 16.6588 8.53829C16.7175 8.36197 16.7731 8.18454 16.8218 8.0047C16.8251 7.99243 16.8258 7.97653 16.8393 7.971C16.8525 7.96557 16.8583 7.97865 16.8652 7.9873C16.9477 8.0913 17.0424 8.18102 17.1453 8.26128C17.2443 8.33853 17.3507 8.402 17.462 8.45641C17.4726 8.46164 17.4853 8.47381 17.4961 8.46064C17.507 8.44736 17.4919 8.4364 17.4878 8.42473L17.4874 8.42533ZM15.605 9.19349C15.5797 9.1959 15.5537 9.19248 15.5295 9.20405C15.5075 9.20566 15.4855 9.20636 15.4635 9.20646C15.3869 9.20706 15.3105 9.20053 15.234 9.19721C15.2002 9.1957 15.1658 9.18544 15.1338 9.17307C15.0809 9.15255 15.0427 9.11403 15.0335 9.05136C15.0241 8.98799 15.0524 8.94183 15.097 8.90461C15.1695 8.84436 15.2558 8.82938 15.3432 8.81972C15.4051 8.81288 15.4663 8.81741 15.527 8.82726C15.5558 8.83199 15.5844 8.83792 15.613 8.84436C15.6742 8.87856 15.7424 8.89848 15.7961 8.94867C15.8246 8.97532 15.8509 9.00218 15.8593 9.04342C15.8593 9.04342 15.8592 9.04352 15.8591 9.04362C15.8128 9.09522 15.7523 9.12479 15.6969 9.1623C15.6662 9.17266 15.6356 9.18313 15.605 9.19349ZM6 6.11867C6.00875 6.18636 6.03273 6.24782 6.09575 6.27165C6.16291 6.2971 6.21493 6.25405 6.26083 6.20638C6.274 6.1927 6.2835 6.17509 6.2947 6.1593C6.31313 6.15246 6.33166 6.15397 6.35029 6.1585C6.35311 6.16182 6.35593 6.16514 6.35875 6.16846C6.35603 6.18505 6.3533 6.20165 6.35057 6.21824C6.33618 6.25566 6.31041 6.28322 6.27767 6.30032C6.19113 6.34578 6.10262 6.36147 6.01298 6.30806C5.95259 6.25687 5.91703 6.1939 5.92926 6.10801C5.95466 6.09795 5.97902 6.09624 6.00009 6.11877L6 6.11867Z" fill="#F93939"/>
</g>
<defs>
<clipPath id="clip0_1_482123">
<rect width="20" height="20" rx="10" fill="white"/>
</clipPath>
</defs>
</svg>
