<svg width="16" height="16" viewBox="0 0 16 16" fill="none" xmlns="http://www.w3.org/2000/svg">
<rect x="12.667" y="16" width="10" height="13.3333" rx="2" transform="rotate(-165 12.667 16)" fill="url(#paint0_linear_1_478155)"/>
<rect width="9.88677" height="13.8438" rx="2" transform="matrix(0.964541 -0.263933 0.25379 0.967259 -0.333008 2.60938)" fill="url(#paint1_linear_1_478155)"/>
<path d="M2.75175 9.41765C2.98489 9.91306 3.33243 10.3638 3.78993 10.7255C5.37864 11.9815 7.69053 11.7053 8.9527 10.1088C10.0066 8.77566 9.99556 6.94463 9.03924 5.64474C8.85045 5.38763 8.62415 5.15082 8.36203 4.9436C6.77332 3.68761 4.46267 3.96362 3.20051 5.56015C2.30235 6.69623 2.17734 8.19489 2.753 9.4175L2.75175 9.41765Z" fill="white"/>
<path d="M3.28852 9.10558C3.48261 9.51801 3.77194 9.89325 4.15281 10.1943C5.47542 11.24 7.40007 11.0101 8.45083 9.68094C9.32822 8.57112 9.31902 7.04678 8.52288 5.96462C8.36571 5.75057 8.17731 5.55343 7.9591 5.38091C6.63649 4.3353 4.71287 4.56508 3.66211 5.89419C2.9144 6.83999 2.81033 8.08762 3.28956 9.10545L3.28852 9.10558Z" fill="white"/>
<path d="M5.00967 4.81185C5.00368 4.83538 5.06352 4.92656 5.16044 4.99538C5.18049 5.00928 5.20161 5.02306 5.22463 5.03443L5.86813 5.40084C5.88507 5.41131 5.90404 5.42045 5.92395 5.4284C6.0297 5.47009 6.16508 5.46695 6.26899 5.42141C6.28813 5.41314 6.30655 5.40334 6.32366 5.39152L6.95518 4.99883C7.00569 4.97053 7.05204 4.9438 7.08994 4.91918C7.12429 4.90149 7.15911 4.88321 7.19359 4.8666C7.1866 4.84353 7.17915 4.82106 7.17216 4.79799C6.47698 4.535 5.7155 4.52763 5.02283 4.76085C5.01825 4.77769 5.01366 4.79454 5.00908 4.81138L5.00967 4.81185Z" fill="url(#paint2_linear_1_478155)"/>
<path d="M8.50723 6.20074L8.30521 6.9164C8.29872 6.93564 8.2951 6.95618 8.29208 6.97718C8.27734 7.0903 8.31183 7.2209 8.38132 7.31093C8.39412 7.32787 8.40786 7.34361 8.42291 7.35648L8.9538 7.87269C8.98654 7.90735 9.01785 7.93892 9.04699 7.96586C9.10946 8.02305 9.15971 8.05887 9.1729 8.05078C9.19571 8.03664 9.21852 8.02251 9.24134 8.00838C9.2903 7.27895 9.08932 6.54297 8.65445 5.93598C8.64469 5.93606 8.6354 5.93554 8.62564 5.93562C8.61313 5.93548 8.56968 6.00641 8.53441 6.10623C8.52415 6.13516 8.51473 6.1667 8.50723 6.20074Z" fill="url(#paint3_linear_1_478155)"/>
<path d="M7.49039 9.5266C7.37841 9.54432 7.2622 9.61524 7.19512 9.70746C7.18184 9.72425 7.17142 9.74234 7.16267 9.76077L6.81388 10.4179C6.79885 10.4431 6.78655 10.4684 6.77532 10.4937C6.73019 10.5974 6.72063 10.6941 6.75719 10.7289C6.75719 10.7289 6.75719 10.7289 6.75778 10.7294C6.81356 10.7803 6.86934 10.8312 6.92499 10.8811C7.54783 10.7018 8.12288 10.3327 8.55539 9.78562L8.57768 9.75743C8.57768 9.75743 8.57958 9.75503 8.58053 9.75383C8.59428 9.73643 8.60803 9.71904 8.62059 9.7007C8.6142 9.6781 8.60889 9.65538 8.6025 9.63278C8.59394 9.60067 8.48427 9.52956 8.35992 9.51508C8.33848 9.51276 8.31716 9.5115 8.29454 9.51312L7.55289 9.5224C7.53277 9.52208 7.51182 9.52404 7.49099 9.52707L7.49039 9.5266Z" fill="url(#paint4_linear_1_478155)"/>
<path d="M5.10513 10.483C5.10078 10.464 5.09476 10.4446 5.08673 10.4266L4.82338 9.73391C4.81736 9.71453 4.80813 9.69553 4.79795 9.67773C4.7426 9.57842 4.63694 9.49489 4.52753 9.46395C4.50679 9.45828 4.48678 9.45415 4.467 9.45217L3.73226 9.35578C3.69902 9.34997 3.6665 9.34571 3.63589 9.34393C3.53085 9.33692 3.44636 9.35299 3.43243 9.38779C3.41035 9.44149 3.38933 9.49507 3.36725 9.54877C3.5377 9.81415 3.75297 10.0584 4.00922 10.2717C4.02952 10.2878 4.04886 10.305 4.06916 10.3211C4.08946 10.3371 4.11023 10.3525 4.131 10.368C4.3966 10.5682 4.68443 10.7207 4.98425 10.8261C5.00789 10.8097 5.03093 10.7929 5.05504 10.7759C5.08913 10.7511 5.13366 10.6089 5.10561 10.4824L5.10513 10.483Z" fill="url(#paint5_linear_1_478155)"/>
<path d="M5.06797 7.10636C4.91665 7.209 4.83116 7.435 4.87723 7.60811L5.00329 8.08457L5.12935 8.56102C5.17541 8.73413 5.35948 8.87965 5.53855 8.88452L5.65811 8.88752L5.77768 8.89053C5.86715 8.89232 5.98544 8.89549 6.10372 8.89867L6.47684 8.90837L6.52392 8.90993C6.70298 8.91481 6.90303 8.77818 6.9674 8.60799L6.97665 8.5832L7.00142 8.51839C7.03852 8.42054 7.08909 8.28817 7.13819 8.16058L7.28158 7.78422L7.32554 7.6704C7.39049 7.49947 7.3303 7.27003 7.19154 7.16033L6.42766 6.55643C6.28891 6.44673 6.05105 6.44055 5.90102 6.54302L5.30923 6.94525L5.07125 7.10657L5.06797 7.10636Z" fill="url(#paint6_linear_1_478155)"/>
<path d="M2.86263 7.77274C2.88268 7.78665 2.90321 7.79995 2.92266 7.81338C2.95142 7.83222 3.0846 7.81468 3.18878 7.74302C3.20589 7.7312 3.22287 7.71831 3.23794 7.70292L3.79256 7.20752C3.80847 7.19476 3.82247 7.1795 3.83634 7.16318C3.90939 7.07569 3.95051 6.94637 3.94131 6.83285C3.93946 6.81189 3.93653 6.79105 3.93051 6.77167L3.76256 6.04914C3.75442 6.00176 3.74451 5.95786 3.73401 5.91837C3.71266 5.83617 3.68997 5.78022 3.67532 5.78034C3.65413 5.78015 3.58678 5.79417 3.56946 5.81362C3.56946 5.81362 3.56899 5.81422 3.56851 5.81482L3.55429 5.83282C3.09901 6.4087 2.87271 7.0925 2.86156 7.77287L2.86263 7.77274Z" fill="url(#paint7_linear_1_478155)"/>
<g style="mix-blend-mode:darken" opacity="0.3">
<rect x="4.44128" y="10.2773" width="0.531212" height="2.39045" rx="0.265606" transform="rotate(-141.671 4.44128 10.2773)" fill="url(#paint8_linear_1_478155)"/>
</g>
<g style="mix-blend-mode:darken" opacity="0.3">
<rect x="7.81421" y="9.85254" width="0.531212" height="2.39045" rx="0.265606" transform="rotate(147.971 7.81421 9.85254)" fill="url(#paint9_linear_1_478155)"/>
</g>
<g style="mix-blend-mode:darken" opacity="0.3">
<rect x="3.45398" y="7.02441" width="0.531211" height="2.39045" rx="0.265606" transform="rotate(-70.4908 3.45398 7.02441)" fill="url(#paint10_linear_1_478155)"/>
</g>
<g style="mix-blend-mode:darken" opacity="0.3">
<rect x="6.80151" y="7.7627" width="0.531212" height="2.39045" rx="0.265606" transform="rotate(-101.354 6.80151 7.7627)" fill="url(#paint11_linear_1_478155)"/>
</g>
<g style="mix-blend-mode:darken" opacity="0.3">
<rect x="6.37476" y="7.34961" width="0.531212" height="2.39045" rx="0.265606" transform="rotate(179.421 6.37476 7.34961)" fill="url(#paint12_linear_1_478155)"/>
</g>
<defs>
<linearGradient id="paint0_linear_1_478155" x1="12.667" y1="29.3333" x2="22.667" y2="29.3333" gradientUnits="userSpaceOnUse">
<stop stop-color="#D23A71"/>
<stop offset="1" stop-color="#E67777"/>
</linearGradient>
<linearGradient id="paint1_linear_1_478155" x1="0" y1="13.8438" x2="9.88677" y2="13.8438" gradientUnits="userSpaceOnUse">
<stop stop-color="#FF8C8C"/>
<stop offset="1" stop-color="#FF508F"/>
</linearGradient>
<linearGradient id="paint2_linear_1_478155" x1="7.21872" y1="4.8348" x2="5.83142" y2="3.73805" gradientUnits="userSpaceOnUse">
<stop stop-color="#FF8C8C"/>
<stop offset="1" stop-color="#FF508F"/>
</linearGradient>
<linearGradient id="paint3_linear_1_478155" x1="10.0238" y1="7.01858" x2="8.63369" y2="5.91956" gradientUnits="userSpaceOnUse">
<stop stop-color="#FF8C8C"/>
<stop offset="1" stop-color="#FF508F"/>
</linearGradient>
<linearGradient id="paint4_linear_1_478155" x1="8.65325" y1="9.66184" x2="7.77789" y2="8.96981" gradientUnits="userSpaceOnUse">
<stop stop-color="#FF8C8C"/>
<stop offset="1" stop-color="#FF508F"/>
</linearGradient>
<linearGradient id="paint5_linear_1_478155" x1="5.51187" y1="10.2005" x2="3.83583" y2="8.87544" gradientUnits="userSpaceOnUse">
<stop stop-color="#FF8C8C"/>
<stop offset="1" stop-color="#FF508F"/>
</linearGradient>
<linearGradient id="paint6_linear_1_478155" x1="7.77239" y1="7.61953" x2="5.84407" y2="6.09506" gradientUnits="userSpaceOnUse">
<stop stop-color="#FF8C8C"/>
<stop offset="1" stop-color="#FF508F"/>
</linearGradient>
<linearGradient id="paint7_linear_1_478155" x1="4.4483" y1="6.38932" x2="3.6274" y2="5.74034" gradientUnits="userSpaceOnUse">
<stop stop-color="#FF8C8C"/>
<stop offset="1" stop-color="#FF508F"/>
</linearGradient>
<linearGradient id="paint8_linear_1_478155" x1="4.44128" y1="12.6678" x2="4.9725" y2="12.6678" gradientUnits="userSpaceOnUse">
<stop stop-color="#FF8C8C"/>
<stop offset="1" stop-color="#FF508F"/>
</linearGradient>
<linearGradient id="paint9_linear_1_478155" x1="7.81421" y1="12.243" x2="8.34542" y2="12.243" gradientUnits="userSpaceOnUse">
<stop stop-color="#FF8C8C"/>
<stop offset="1" stop-color="#FF508F"/>
</linearGradient>
<linearGradient id="paint10_linear_1_478155" x1="3.45398" y1="9.41487" x2="3.98519" y2="9.41487" gradientUnits="userSpaceOnUse">
<stop stop-color="#FF8C8C"/>
<stop offset="1" stop-color="#FF508F"/>
</linearGradient>
<linearGradient id="paint11_linear_1_478155" x1="6.80151" y1="10.1531" x2="7.33273" y2="10.1531" gradientUnits="userSpaceOnUse">
<stop stop-color="#FF8C8C"/>
<stop offset="1" stop-color="#FF508F"/>
</linearGradient>
<linearGradient id="paint12_linear_1_478155" x1="6.37476" y1="9.74006" x2="6.90597" y2="9.74006" gradientUnits="userSpaceOnUse">
<stop stop-color="#FF8C8C"/>
<stop offset="1" stop-color="#FF508F"/>
</linearGradient>
</defs>
</svg>
