<svg width="16" height="16" viewBox="0 0 16 16" fill="none" xmlns="http://www.w3.org/2000/svg">
<rect x="12.667" y="16" width="10" height="13.3333" rx="2" transform="rotate(-165 12.667 16)" fill="url(#paint0_linear_1_478051)"/>
<path d="M0.174573 4.54389C-0.105756 3.47549 0.530672 2.37304 1.59607 2.08151L7.27411 0.527795C8.33951 0.236263 9.43044 0.866043 9.71077 1.93445L12.209 11.456C12.4894 12.5244 11.8529 13.6268 10.7875 13.9183L5.1095 15.4721C4.04409 15.7636 2.95316 15.1338 2.67283 14.0654L0.174573 4.54389Z" fill="url(#paint1_linear_1_478051)"/>
<path d="M2.75169 9.41765C2.98483 9.91306 3.33237 10.3638 3.78986 10.7255C5.37858 11.9815 7.69047 11.7053 8.95264 10.1088C10.0066 8.77566 9.9955 6.94463 9.03918 5.64474C8.85039 5.38763 8.62409 5.15082 8.36197 4.9436C6.77325 3.68761 4.46261 3.96362 3.20044 5.56015C2.30229 6.69623 2.17728 8.19489 2.75294 9.4175L2.75169 9.41765Z" fill="white"/>
<path d="M3.28864 9.10558C3.48273 9.51801 3.77206 9.89325 4.15293 10.1943C5.47554 11.24 7.4002 11.0101 8.45095 9.68094C9.32834 8.57112 9.31914 7.04678 8.523 5.96462C8.36583 5.75057 8.17743 5.55343 7.95922 5.38091C6.63661 4.3353 4.71299 4.56508 3.66223 5.89419C2.91452 6.83999 2.81045 8.08762 3.28968 9.10545L3.28864 9.10558Z" fill="white"/>
<path d="M5.00955 4.81185C5.00356 4.83538 5.0634 4.92656 5.16032 4.99538C5.18037 5.00928 5.20149 5.02306 5.22451 5.03443L5.86801 5.40084C5.88495 5.41131 5.90392 5.42045 5.92383 5.4284C6.02958 5.47009 6.16495 5.46695 6.26887 5.42141C6.28801 5.41314 6.30643 5.40334 6.32354 5.39152L6.95506 4.99883C7.00557 4.97053 7.05192 4.9438 7.08982 4.91918C7.12417 4.90149 7.15899 4.88321 7.19347 4.8666C7.18648 4.84353 7.17902 4.82106 7.17204 4.79799C6.47686 4.535 5.71538 4.52763 5.02271 4.76085C5.01813 4.77769 5.01354 4.79454 5.00895 4.81138L5.00955 4.81185Z" fill="url(#paint2_linear_1_478051)"/>
<path d="M8.5071 6.20074L8.30509 6.9164C8.2986 6.93564 8.29498 6.95618 8.29196 6.97718C8.27722 7.0903 8.31171 7.2209 8.3812 7.31093C8.39399 7.32787 8.40774 7.34361 8.42279 7.35648L8.95368 7.87269C8.98642 7.90735 9.01772 7.93892 9.04687 7.96586C9.10933 8.02305 9.15958 8.05887 9.17277 8.05078C9.19559 8.03664 9.2184 8.02251 9.24121 8.00838C9.29018 7.27895 9.0892 6.54297 8.65433 5.93598C8.64457 5.93606 8.63528 5.93554 8.62551 5.93562C8.61301 5.93548 8.56955 6.00641 8.53429 6.10623C8.52403 6.13516 8.51461 6.1667 8.5071 6.20074Z" fill="url(#paint3_linear_1_478051)"/>
<path d="M7.49027 9.5266C7.37829 9.54432 7.26208 9.61524 7.195 9.70746C7.18172 9.72425 7.1713 9.74234 7.16255 9.76077L6.81376 10.4179C6.79872 10.4431 6.78643 10.4684 6.7752 10.4937C6.73007 10.5974 6.72051 10.6941 6.75706 10.7289C6.75706 10.7289 6.75706 10.7289 6.75766 10.7294C6.81344 10.7803 6.86922 10.8312 6.92487 10.8811C7.54771 10.7018 8.12276 10.3327 8.55527 9.78562L8.57756 9.75743C8.57756 9.75743 8.57946 9.75503 8.5804 9.75383C8.59416 9.73643 8.60791 9.71904 8.62047 9.7007C8.61408 9.6781 8.60877 9.65538 8.60238 9.63278C8.59382 9.60067 8.48415 9.52956 8.35979 9.51508C8.33835 9.51276 8.31704 9.5115 8.29442 9.51312L7.55277 9.5224C7.53264 9.52208 7.51169 9.52404 7.49087 9.52707L7.49027 9.5266Z" fill="url(#paint4_linear_1_478051)"/>
<path d="M5.10501 10.483C5.10066 10.464 5.09464 10.4446 5.0866 10.4266L4.82326 9.73391C4.81724 9.71453 4.80801 9.69553 4.79783 9.67773C4.74248 9.57842 4.63682 9.49489 4.52741 9.46395C4.50667 9.45828 4.48665 9.45415 4.46688 9.45217L3.73214 9.35578C3.6989 9.34997 3.66638 9.34571 3.63577 9.34393C3.53073 9.33692 3.44624 9.35299 3.43231 9.38779C3.41023 9.44149 3.38921 9.49507 3.36713 9.54877C3.53758 9.81415 3.75285 10.0584 4.0091 10.2717C4.02939 10.2878 4.04874 10.305 4.06904 10.3211C4.08933 10.3371 4.1101 10.3525 4.13087 10.368C4.39648 10.5682 4.68431 10.7207 4.98413 10.8261C5.00777 10.8097 5.03081 10.7929 5.05492 10.7759C5.08901 10.7511 5.13354 10.6089 5.10549 10.4824L5.10501 10.483Z" fill="url(#paint5_linear_1_478051)"/>
<path d="M5.06785 7.10636C4.91653 7.209 4.83104 7.435 4.8771 7.60811L5.00317 8.08457L5.12923 8.56102C5.17529 8.73413 5.35936 8.87965 5.53842 8.88452L5.65799 8.88752L5.77756 8.89053C5.86703 8.89232 5.98531 8.89549 6.1036 8.89867L6.47671 8.90837L6.5238 8.90993C6.70286 8.91481 6.90291 8.77818 6.96728 8.60799L6.97652 8.5832L7.0013 8.51839C7.0384 8.42054 7.08897 8.28817 7.13807 8.16058L7.28145 7.78422L7.32542 7.6704C7.39037 7.49947 7.33018 7.27003 7.19142 7.16033L6.42754 6.55643C6.28878 6.44673 6.05093 6.44055 5.90089 6.54302L5.30911 6.94525L5.07113 7.10657L5.06785 7.10636Z" fill="url(#paint6_linear_1_478051)"/>
<path d="M2.86251 7.77274C2.88256 7.78665 2.90309 7.79995 2.92254 7.81338C2.9513 7.83222 3.08448 7.81468 3.18866 7.74302C3.20577 7.7312 3.22275 7.71831 3.23782 7.70292L3.79243 7.20752C3.80835 7.19476 3.82234 7.1795 3.83622 7.16318C3.90927 7.07569 3.95039 6.94637 3.94119 6.83285C3.93934 6.81189 3.93641 6.79105 3.93039 6.77167L3.76244 6.04914C3.7543 6.00176 3.74439 5.95786 3.73389 5.91837C3.71254 5.83617 3.68985 5.78022 3.6752 5.78034C3.65401 5.78015 3.58666 5.79417 3.56934 5.81362C3.56934 5.81362 3.56887 5.81422 3.56839 5.81482L3.55417 5.83282C3.09889 6.4087 2.87259 7.0925 2.86144 7.77287L2.86251 7.77274Z" fill="url(#paint7_linear_1_478051)"/>
<g style="mix-blend-mode:darken" opacity="0.3">
<rect x="4.44116" y="10.2773" width="0.531212" height="2.39045" rx="0.265606" transform="rotate(-141.671 4.44116 10.2773)" fill="url(#paint8_linear_1_478051)"/>
</g>
<g style="mix-blend-mode:darken" opacity="0.3">
<rect x="7.81409" y="9.85254" width="0.531212" height="2.39045" rx="0.265606" transform="rotate(147.971 7.81409 9.85254)" fill="url(#paint9_linear_1_478051)"/>
</g>
<g style="mix-blend-mode:darken" opacity="0.3">
<rect x="3.45386" y="7.02441" width="0.531211" height="2.39045" rx="0.265606" transform="rotate(-70.4908 3.45386 7.02441)" fill="url(#paint10_linear_1_478051)"/>
</g>
<g style="mix-blend-mode:darken" opacity="0.3">
<rect x="6.80139" y="7.7627" width="0.531212" height="2.39045" rx="0.265606" transform="rotate(-101.354 6.80139 7.7627)" fill="url(#paint11_linear_1_478051)"/>
</g>
<g style="mix-blend-mode:darken" opacity="0.3">
<rect x="6.37463" y="7.34961" width="0.531212" height="2.39045" rx="0.265606" transform="rotate(179.421 6.37463 7.34961)" fill="url(#paint12_linear_1_478051)"/>
</g>
<defs>
<linearGradient id="paint0_linear_1_478051" x1="12.667" y1="22.6667" x2="22.667" y2="22.6667" gradientUnits="userSpaceOnUse">
<stop stop-color="#6641C7"/>
<stop offset="1" stop-color="#4C23B3"/>
</linearGradient>
<linearGradient id="paint1_linear_1_478051" x1="1.4237" y1="9.30465" x2="10.9862" y2="6.79562" gradientUnits="userSpaceOnUse">
<stop stop-color="#DB73FF"/>
<stop offset="1" stop-color="#7B53ED"/>
</linearGradient>
<linearGradient id="paint2_linear_1_478051" x1="7.2186" y1="4.8348" x2="5.8313" y2="3.73805" gradientUnits="userSpaceOnUse">
<stop stop-color="#3365E4"/>
<stop offset="1" stop-color="#D869FF"/>
</linearGradient>
<linearGradient id="paint3_linear_1_478051" x1="10.0237" y1="7.01858" x2="8.63357" y2="5.91956" gradientUnits="userSpaceOnUse">
<stop stop-color="#3365E4"/>
<stop offset="1" stop-color="#D869FF"/>
</linearGradient>
<linearGradient id="paint4_linear_1_478051" x1="8.65313" y1="9.66184" x2="7.77777" y2="8.96981" gradientUnits="userSpaceOnUse">
<stop stop-color="#3365E4"/>
<stop offset="1" stop-color="#D869FF"/>
</linearGradient>
<linearGradient id="paint5_linear_1_478051" x1="5.51175" y1="10.2005" x2="3.83571" y2="8.87544" gradientUnits="userSpaceOnUse">
<stop stop-color="#3365E4"/>
<stop offset="1" stop-color="#D869FF"/>
</linearGradient>
<linearGradient id="paint6_linear_1_478051" x1="7.77227" y1="7.61953" x2="5.84395" y2="6.09506" gradientUnits="userSpaceOnUse">
<stop stop-color="#3365E4"/>
<stop offset="1" stop-color="#D869FF"/>
</linearGradient>
<linearGradient id="paint7_linear_1_478051" x1="4.44818" y1="6.38932" x2="3.62727" y2="5.74034" gradientUnits="userSpaceOnUse">
<stop stop-color="#3365E4"/>
<stop offset="1" stop-color="#D869FF"/>
</linearGradient>
<linearGradient id="paint8_linear_1_478051" x1="4.44116" y1="12.6678" x2="4.97237" y2="12.6678" gradientUnits="userSpaceOnUse">
<stop stop-color="#3365E4"/>
<stop offset="1" stop-color="#D869FF"/>
</linearGradient>
<linearGradient id="paint9_linear_1_478051" x1="7.81409" y1="12.243" x2="8.3453" y2="12.243" gradientUnits="userSpaceOnUse">
<stop stop-color="#3365E4"/>
<stop offset="1" stop-color="#D869FF"/>
</linearGradient>
<linearGradient id="paint10_linear_1_478051" x1="3.45386" y1="9.41487" x2="3.98507" y2="9.41487" gradientUnits="userSpaceOnUse">
<stop stop-color="#3365E4"/>
<stop offset="1" stop-color="#D869FF"/>
</linearGradient>
<linearGradient id="paint11_linear_1_478051" x1="6.80139" y1="10.1531" x2="7.3326" y2="10.1531" gradientUnits="userSpaceOnUse">
<stop stop-color="#3365E4"/>
<stop offset="1" stop-color="#D869FF"/>
</linearGradient>
<linearGradient id="paint12_linear_1_478051" x1="6.37463" y1="9.74006" x2="6.90585" y2="9.74006" gradientUnits="userSpaceOnUse">
<stop stop-color="#3365E4"/>
<stop offset="1" stop-color="#D869FF"/>
</linearGradient>
</defs>
</svg>
