<svg width="16" height="16" viewBox="0 0 16 16" fill="none" xmlns="http://www.w3.org/2000/svg">
<path d="M13.1846 14.0682C12.8987 15.1351 11.8021 15.7682 10.7351 15.4824L4.93959 13.9294C3.87265 13.6436 3.23949 12.5469 3.52537 11.48L5.94102 2.46465C6.2269 1.39772 7.32357 0.764554 8.39051 1.05044L14.1861 2.60335C15.253 2.88924 15.8862 3.98591 15.6003 5.05284L13.1846 14.0682Z" fill="url(#paint0_linear_1_478071)"/>
<path d="M13.1846 14.0682C12.8987 15.1351 11.8021 15.7682 10.7351 15.4824L4.93959 13.9294C3.87265 13.6436 3.23949 12.5469 3.52537 11.48L5.94102 2.46465C6.2269 1.39772 7.32357 0.764554 8.39051 1.05044L14.1861 2.60335C15.253 2.88924 15.8862 3.98591 15.6003 5.05284L13.1846 14.0682Z" fill="black" fill-opacity="0.4"/>
<rect width="9.88677" height="13.8438" rx="2" transform="matrix(0.964541 -0.263933 0.25379 0.967259 -0.333008 2.60938)" fill="url(#paint1_linear_1_478071)"/>
<path d="M2.75413 9.41765C2.98727 9.91306 3.33481 10.3638 3.79231 10.7255C5.38102 11.9815 7.69291 11.7053 8.95508 10.1088C10.009 8.77566 9.99795 6.94463 9.04162 5.64474C8.85283 5.38763 8.62653 5.15082 8.36441 4.9436C6.7757 3.68761 4.46505 3.96362 3.20289 5.56015C2.30473 6.69623 2.17972 8.19489 2.75538 9.4175L2.75413 9.41765Z" fill="white"/>
<path d="M3.2906 9.10558C3.48469 9.51801 3.77402 9.89325 4.15488 10.1943C5.47749 11.24 7.40215 11.0101 8.4529 9.68094C9.3303 8.57112 9.32109 7.04678 8.52495 5.96462C8.36778 5.75057 8.17939 5.55343 7.96117 5.38091C6.63856 4.3353 4.71494 4.56508 3.66419 5.89419C2.91647 6.83999 2.8124 8.08762 3.29164 9.10545L3.2906 9.10558Z" fill="white"/>
<path d="M5.01272 4.81185C5.00673 4.83538 5.06657 4.92656 5.16349 4.99538C5.18354 5.00928 5.20466 5.02306 5.22768 5.03443L5.87118 5.40084C5.88813 5.41131 5.90709 5.42045 5.927 5.4284C6.03276 5.47009 6.16813 5.46695 6.27204 5.42141C6.29118 5.41314 6.3096 5.40334 6.32671 5.39152L6.95823 4.99883C7.00874 4.97053 7.05509 4.9438 7.09299 4.91918C7.12734 4.90149 7.16217 4.88321 7.19664 4.8666C7.18966 4.84353 7.1822 4.82106 7.17521 4.79799C6.48003 4.535 5.71856 4.52763 5.02589 4.76085C5.0213 4.77769 5.01671 4.79454 5.01213 4.81138L5.01272 4.81185Z" fill="url(#paint2_linear_1_478071)"/>
<path d="M8.51028 6.20074L8.30826 6.9164C8.30178 6.93564 8.29815 6.95618 8.29513 6.97718C8.28039 7.0903 8.31489 7.2209 8.38437 7.31093C8.39717 7.32787 8.41091 7.34361 8.42596 7.35648L8.95685 7.87269C8.9896 7.90735 9.0209 7.93892 9.05004 7.96586C9.11251 8.02305 9.16276 8.05887 9.17595 8.05078C9.19876 8.03664 9.22157 8.02251 9.24439 8.00838C9.29336 7.27895 9.09238 6.54297 8.6575 5.93598C8.64774 5.93606 8.63845 5.93554 8.62869 5.93562C8.61619 5.93548 8.57273 6.00641 8.53746 6.10623C8.5272 6.13516 8.51778 6.1667 8.51028 6.20074Z" fill="url(#paint3_linear_1_478071)"/>
<path d="M7.49344 9.5266C7.38146 9.54432 7.26525 9.61524 7.19817 9.70746C7.18489 9.72425 7.17447 9.74234 7.16573 9.76077L6.81693 10.4179C6.8019 10.4431 6.7896 10.4684 6.77837 10.4937C6.73324 10.5974 6.72369 10.6941 6.76024 10.7289C6.76024 10.7289 6.76024 10.7289 6.76084 10.7294C6.81661 10.7803 6.87239 10.8312 6.92805 10.8811C7.55089 10.7018 8.12593 10.3327 8.55844 9.78562L8.58073 9.75743C8.58073 9.75743 8.58263 9.75503 8.58358 9.75383C8.59733 9.73643 8.61108 9.71904 8.62364 9.7007C8.61726 9.6781 8.61194 9.65538 8.60555 9.63278C8.59699 9.60067 8.48733 9.52956 8.36297 9.51508C8.34153 9.51276 8.32021 9.5115 8.29759 9.51312L7.55594 9.5224C7.53582 9.52208 7.51487 9.52404 7.49404 9.52707L7.49344 9.5266Z" fill="url(#paint4_linear_1_478071)"/>
<path d="M5.10819 10.483C5.10383 10.464 5.09782 10.4446 5.08978 10.4266L4.82643 9.73391C4.82041 9.71453 4.81118 9.69553 4.801 9.67773C4.74565 9.57842 4.63999 9.49489 4.53058 9.46395C4.50985 9.45828 4.48983 9.45415 4.47006 9.45217L3.73531 9.35578C3.70207 9.34997 3.66955 9.34571 3.63894 9.34393C3.5339 9.33692 3.44942 9.35299 3.43548 9.38779C3.4134 9.44149 3.39239 9.49507 3.3703 9.54877C3.54076 9.81415 3.75603 10.0584 4.01227 10.2717C4.03257 10.2878 4.05191 10.305 4.07221 10.3211C4.09251 10.3371 4.11328 10.3525 4.13405 10.368C4.39965 10.5682 4.68749 10.7207 4.9873 10.8261C5.01094 10.8097 5.03398 10.7929 5.0581 10.7759C5.09219 10.7511 5.13671 10.6089 5.10866 10.4824L5.10819 10.483Z" fill="url(#paint5_linear_1_478071)"/>
<path d="M5.07103 7.10636C4.9197 7.209 4.83421 7.435 4.88028 7.60811L5.00634 8.08457L5.1324 8.56102C5.17846 8.73413 5.36253 8.87965 5.5416 8.88452L5.66117 8.88752L5.78074 8.89053C5.8702 8.89232 5.98849 8.89549 6.10677 8.89867L6.47989 8.90837L6.52697 8.90993C6.70604 8.91481 6.90608 8.77818 6.97046 8.60799L6.9797 8.5832L7.00447 8.51839C7.04157 8.42054 7.09215 8.28817 7.14125 8.16058L7.28463 7.78422L7.32859 7.6704C7.39355 7.49947 7.33335 7.27003 7.19459 7.16033L6.43072 6.55643C6.29196 6.44673 6.0541 6.44055 5.90407 6.54302L5.31228 6.94525L5.07431 7.10657L5.07103 7.10636Z" fill="url(#paint6_linear_1_478071)"/>
<path d="M2.86569 7.77274C2.88574 7.78665 2.90626 7.79995 2.92571 7.81338C2.95447 7.83222 3.08765 7.81468 3.19183 7.74302C3.20894 7.7312 3.22592 7.71831 3.24099 7.70292L3.79561 7.20752C3.81152 7.19476 3.82552 7.1795 3.83939 7.16318C3.91244 7.07569 3.95356 6.94637 3.94437 6.83285C3.94251 6.81189 3.93958 6.79105 3.93356 6.77167L3.76561 6.04914C3.75747 6.00176 3.74756 5.95786 3.73707 5.91837C3.71571 5.83617 3.69302 5.78022 3.67837 5.78034C3.65718 5.78015 3.58983 5.79417 3.57252 5.81362C3.57252 5.81362 3.57204 5.81422 3.57157 5.81482L3.55734 5.83282C3.10206 6.4087 2.87577 7.0925 2.86461 7.77287L2.86569 7.77274Z" fill="url(#paint7_linear_1_478071)"/>
<g style="mix-blend-mode:darken" opacity="0.3">
<rect x="4.44434" y="10.2773" width="0.531212" height="2.39045" rx="0.265606" transform="rotate(-141.671 4.44434 10.2773)" fill="url(#paint8_linear_1_478071)"/>
</g>
<g style="mix-blend-mode:darken" opacity="0.3">
<rect x="7.81726" y="9.85254" width="0.531212" height="2.39045" rx="0.265606" transform="rotate(147.971 7.81726 9.85254)" fill="url(#paint9_linear_1_478071)"/>
</g>
<g style="mix-blend-mode:darken" opacity="0.3">
<rect x="3.45703" y="7.02441" width="0.531211" height="2.39045" rx="0.265606" transform="rotate(-70.4908 3.45703 7.02441)" fill="url(#paint10_linear_1_478071)"/>
</g>
<g style="mix-blend-mode:darken" opacity="0.3">
<rect x="6.80457" y="7.7627" width="0.531212" height="2.39045" rx="0.265606" transform="rotate(-101.354 6.80457 7.7627)" fill="url(#paint11_linear_1_478071)"/>
</g>
<g style="mix-blend-mode:darken" opacity="0.3">
<rect x="6.37781" y="7.34961" width="0.531212" height="2.39045" rx="0.265606" transform="rotate(179.421 6.37781 7.34961)" fill="url(#paint12_linear_1_478071)"/>
</g>
<defs>
<linearGradient id="paint0_linear_1_478071" x1="16.1179" y1="3.12098" x2="6.45866" y2="0.532794" gradientUnits="userSpaceOnUse">
<stop stop-color="#33A4E4"/>
<stop offset="1" stop-color="#4E5FF3"/>
</linearGradient>
<linearGradient id="paint1_linear_1_478071" x1="0" y1="13.8438" x2="9.88677" y2="13.8438" gradientUnits="userSpaceOnUse">
<stop stop-color="#33AFE4"/>
<stop offset="1" stop-color="#7569FF"/>
</linearGradient>
<linearGradient id="paint2_linear_1_478071" x1="7.22178" y1="4.8348" x2="5.83448" y2="3.73805" gradientUnits="userSpaceOnUse">
<stop stop-color="#33AFE4"/>
<stop offset="1" stop-color="#7569FF"/>
</linearGradient>
<linearGradient id="paint3_linear_1_478071" x1="10.0269" y1="7.01858" x2="8.63674" y2="5.91956" gradientUnits="userSpaceOnUse">
<stop stop-color="#33AFE4"/>
<stop offset="1" stop-color="#7569FF"/>
</linearGradient>
<linearGradient id="paint4_linear_1_478071" x1="8.6563" y1="9.66184" x2="7.78095" y2="8.96981" gradientUnits="userSpaceOnUse">
<stop stop-color="#33AFE4"/>
<stop offset="1" stop-color="#7569FF"/>
</linearGradient>
<linearGradient id="paint5_linear_1_478071" x1="5.51492" y1="10.2005" x2="3.83889" y2="8.87544" gradientUnits="userSpaceOnUse">
<stop stop-color="#33AFE4"/>
<stop offset="1" stop-color="#7569FF"/>
</linearGradient>
<linearGradient id="paint6_linear_1_478071" x1="7.77545" y1="7.61953" x2="5.84713" y2="6.09506" gradientUnits="userSpaceOnUse">
<stop stop-color="#33AFE4"/>
<stop offset="1" stop-color="#7569FF"/>
</linearGradient>
<linearGradient id="paint7_linear_1_478071" x1="4.45135" y1="6.38932" x2="3.63045" y2="5.74034" gradientUnits="userSpaceOnUse">
<stop stop-color="#33AFE4"/>
<stop offset="1" stop-color="#7569FF"/>
</linearGradient>
<linearGradient id="paint8_linear_1_478071" x1="4.44434" y1="12.6678" x2="4.97555" y2="12.6678" gradientUnits="userSpaceOnUse">
<stop stop-color="#33AFE4"/>
<stop offset="1" stop-color="#7569FF"/>
</linearGradient>
<linearGradient id="paint9_linear_1_478071" x1="7.81726" y1="12.243" x2="8.34847" y2="12.243" gradientUnits="userSpaceOnUse">
<stop stop-color="#33AFE4"/>
<stop offset="1" stop-color="#7569FF"/>
</linearGradient>
<linearGradient id="paint10_linear_1_478071" x1="3.45703" y1="9.41487" x2="3.98824" y2="9.41487" gradientUnits="userSpaceOnUse">
<stop stop-color="#33AFE4"/>
<stop offset="1" stop-color="#7569FF"/>
</linearGradient>
<linearGradient id="paint11_linear_1_478071" x1="6.80457" y1="10.1531" x2="7.33578" y2="10.1531" gradientUnits="userSpaceOnUse">
<stop stop-color="#33AFE4"/>
<stop offset="1" stop-color="#7569FF"/>
</linearGradient>
<linearGradient id="paint12_linear_1_478071" x1="6.37781" y1="9.74006" x2="6.90902" y2="9.74006" gradientUnits="userSpaceOnUse">
<stop stop-color="#33AFE4"/>
<stop offset="1" stop-color="#7569FF"/>
</linearGradient>
</defs>
</svg>
