<svg width="16" height="16" viewBox="0 0 16 16" fill="none" xmlns="http://www.w3.org/2000/svg">
<rect x="12.667" y="16" width="10" height="13.3333" rx="2" transform="rotate(-165 12.667 16)" fill="url(#paint0_linear_1_478092)"/>
<rect width="9.88677" height="13.8438" rx="2" transform="matrix(0.964541 -0.263933 0.25379 0.967259 -0.333008 2.60938)" fill="url(#paint1_linear_1_478092)"/>
<path d="M2.75175 9.41765C2.98489 9.91306 3.33243 10.3638 3.78993 10.7255C5.37864 11.9815 7.69053 11.7053 8.9527 10.1088C10.0066 8.77566 9.99556 6.94463 9.03924 5.64474C8.85045 5.38763 8.62415 5.15082 8.36203 4.9436C6.77332 3.68761 4.46267 3.96362 3.20051 5.56015C2.30235 6.69623 2.17734 8.19489 2.753 9.4175L2.75175 9.41765Z" fill="white"/>
<path d="M3.28846 9.10558C3.48255 9.51801 3.77188 9.89325 4.15275 10.1943C5.47535 11.24 7.40001 11.0101 8.45077 9.68094C9.32816 8.57112 9.31896 7.04678 8.52281 5.96462C8.36565 5.75057 8.17725 5.55343 7.95904 5.38091C6.63643 4.3353 4.71281 4.56508 3.66205 5.89419C2.91434 6.83999 2.81026 8.08762 3.2895 9.10545L3.28846 9.10558Z" fill="white"/>
<path d="M5.00961 4.81185C5.00362 4.83538 5.06346 4.92656 5.16038 4.99538C5.18043 5.00928 5.20155 5.02306 5.22457 5.03443L5.86807 5.40084C5.88501 5.41131 5.90398 5.42045 5.92389 5.4284C6.02964 5.47009 6.16501 5.46695 6.26893 5.42141C6.28807 5.41314 6.30649 5.40334 6.3236 5.39152L6.95512 4.99883C7.00563 4.97053 7.05198 4.9438 7.08988 4.91918C7.12423 4.90149 7.15905 4.88321 7.19353 4.8666C7.18654 4.84353 7.17908 4.82106 7.1721 4.79799C6.47692 4.535 5.71544 4.52763 5.02277 4.76085C5.01819 4.77769 5.0136 4.79454 5.00901 4.81138L5.00961 4.81185Z" fill="url(#paint2_linear_1_478092)"/>
<path d="M8.50717 6.20074L8.30515 6.9164C8.29866 6.93564 8.29504 6.95618 8.29202 6.97718C8.27728 7.0903 8.31177 7.2209 8.38126 7.31093C8.39406 7.32787 8.4078 7.34361 8.42285 7.35648L8.95374 7.87269C8.98648 7.90735 9.01779 7.93892 9.04693 7.96586C9.1094 8.02305 9.15965 8.05887 9.17283 8.05078C9.19565 8.03664 9.21846 8.02251 9.24128 8.00838C9.29024 7.27895 9.08926 6.54297 8.65439 5.93598C8.64463 5.93606 8.63534 5.93554 8.62558 5.93562C8.61307 5.93548 8.56961 6.00641 8.53435 6.10623C8.52409 6.13516 8.51467 6.1667 8.50717 6.20074Z" fill="url(#paint3_linear_1_478092)"/>
<path d="M7.49033 9.5266C7.37835 9.54432 7.26214 9.61524 7.19506 9.70746C7.18178 9.72425 7.17136 9.74234 7.16261 9.76077L6.81382 10.4179C6.79878 10.4431 6.78649 10.4684 6.77526 10.4937C6.73013 10.5974 6.72057 10.6941 6.75713 10.7289C6.75713 10.7289 6.75713 10.7289 6.75772 10.7294C6.8135 10.7803 6.86928 10.8312 6.92493 10.8811C7.54777 10.7018 8.12282 10.3327 8.55533 9.78562L8.57762 9.75743C8.57762 9.75743 8.57952 9.75503 8.58047 9.75383C8.59422 9.73643 8.60797 9.71904 8.62053 9.7007C8.61414 9.6781 8.60883 9.65538 8.60244 9.63278C8.59388 9.60067 8.48421 9.52956 8.35986 9.51508C8.33842 9.51276 8.3171 9.5115 8.29448 9.51312L7.55283 9.5224C7.5327 9.52208 7.51176 9.52404 7.49093 9.52707L7.49033 9.5266Z" fill="url(#paint4_linear_1_478092)"/>
<path d="M5.10507 10.483C5.10072 10.464 5.0947 10.4446 5.08666 10.4266L4.82332 9.73391C4.8173 9.71453 4.80807 9.69553 4.79789 9.67773C4.74254 9.57842 4.63688 9.49489 4.52747 9.46395C4.50673 9.45828 4.48672 9.45415 4.46694 9.45217L3.7322 9.35578C3.69896 9.34997 3.66644 9.34571 3.63583 9.34393C3.53079 9.33692 3.4463 9.35299 3.43237 9.38779C3.41029 9.44149 3.38927 9.49507 3.36719 9.54877C3.53764 9.81415 3.75291 10.0584 4.00916 10.2717C4.02945 10.2878 4.0488 10.305 4.0691 10.3211C4.08939 10.3371 4.11016 10.3525 4.13093 10.368C4.39654 10.5682 4.68437 10.7207 4.98419 10.8261C5.00783 10.8097 5.03087 10.7929 5.05498 10.7759C5.08907 10.7511 5.1336 10.6089 5.10555 10.4824L5.10507 10.483Z" fill="url(#paint5_linear_1_478092)"/>
<path d="M5.06791 7.10636C4.91659 7.209 4.8311 7.435 4.87716 7.60811L5.00323 8.08457L5.12929 8.56102C5.17535 8.73413 5.35942 8.87965 5.53848 8.88452L5.65805 8.88752L5.77762 8.89053C5.86709 8.89232 5.98538 8.89549 6.10366 8.89867L6.47678 8.90837L6.52386 8.90993C6.70292 8.91481 6.90297 8.77818 6.96734 8.60799L6.97659 8.5832L7.00136 8.51839C7.03846 8.42054 7.08903 8.28817 7.13813 8.16058L7.28152 7.78422L7.32548 7.6704C7.39043 7.49947 7.33024 7.27003 7.19148 7.16033L6.4276 6.55643C6.28884 6.44673 6.05099 6.44055 5.90096 6.54302L5.30917 6.94525L5.07119 7.10657L5.06791 7.10636Z" fill="url(#paint6_linear_1_478092)"/>
<path d="M2.86257 7.77274C2.88262 7.78665 2.90315 7.79995 2.9226 7.81338C2.95136 7.83222 3.08454 7.81468 3.18872 7.74302C3.20583 7.7312 3.22281 7.71831 3.23788 7.70292L3.79249 7.20752C3.80841 7.19476 3.82241 7.1795 3.83628 7.16318C3.90933 7.07569 3.95045 6.94637 3.94125 6.83285C3.9394 6.81189 3.93647 6.79105 3.93045 6.77167L3.7625 6.04914C3.75436 6.00176 3.74445 5.95786 3.73395 5.91837C3.7126 5.83617 3.68991 5.78022 3.67526 5.78034C3.65407 5.78015 3.58672 5.79417 3.5694 5.81362C3.5694 5.81362 3.56893 5.81422 3.56845 5.81482L3.55423 5.83282C3.09895 6.4087 2.87265 7.0925 2.8615 7.77287L2.86257 7.77274Z" fill="url(#paint7_linear_1_478092)"/>
<g style="mix-blend-mode:darken" opacity="0.3">
<rect x="4.44122" y="10.2773" width="0.531212" height="2.39045" rx="0.265606" transform="rotate(-141.671 4.44122 10.2773)" fill="url(#paint8_linear_1_478092)"/>
</g>
<g style="mix-blend-mode:darken" opacity="0.3">
<rect x="7.81415" y="9.85254" width="0.531212" height="2.39045" rx="0.265606" transform="rotate(147.971 7.81415 9.85254)" fill="url(#paint9_linear_1_478092)"/>
</g>
<g style="mix-blend-mode:darken" opacity="0.3">
<rect x="3.45392" y="7.02441" width="0.531211" height="2.39045" rx="0.265606" transform="rotate(-70.4908 3.45392 7.02441)" fill="url(#paint10_linear_1_478092)"/>
</g>
<g style="mix-blend-mode:darken" opacity="0.3">
<rect x="6.80145" y="7.7627" width="0.531212" height="2.39045" rx="0.265606" transform="rotate(-101.354 6.80145 7.7627)" fill="url(#paint11_linear_1_478092)"/>
</g>
<g style="mix-blend-mode:darken" opacity="0.3">
<rect x="6.37469" y="7.34961" width="0.531212" height="2.39045" rx="0.265606" transform="rotate(179.421 6.37469 7.34961)" fill="url(#paint12_linear_1_478092)"/>
</g>
<defs>
<linearGradient id="paint0_linear_1_478092" x1="12.667" y1="22.6667" x2="22.667" y2="22.6667" gradientUnits="userSpaceOnUse">
<stop stop-color="#0E7171"/>
<stop offset="1" stop-color="#067272"/>
</linearGradient>
<linearGradient id="paint1_linear_1_478092" x1="0" y1="6.9219" x2="9.88677" y2="6.9219" gradientUnits="userSpaceOnUse">
<stop stop-color="#13CCCC"/>
<stop offset="1" stop-color="#359E9E"/>
</linearGradient>
<linearGradient id="paint2_linear_1_478092" x1="6.78356" y1="5.38518" x2="5.39626" y2="4.28842" gradientUnits="userSpaceOnUse">
<stop stop-color="#67E6A9"/>
<stop offset="1" stop-color="#20ACAC"/>
</linearGradient>
<linearGradient id="paint3_linear_1_478092" x1="9.60457" y1="7.54884" x2="8.21442" y2="6.44983" gradientUnits="userSpaceOnUse">
<stop stop-color="#67E6A9"/>
<stop offset="1" stop-color="#20ACAC"/>
</linearGradient>
<linearGradient id="paint4_linear_1_478092" x1="8.02426" y1="10.4574" x2="7.1489" y2="9.76535" gradientUnits="userSpaceOnUse">
<stop stop-color="#67E6A9"/>
<stop offset="1" stop-color="#20ACAC"/>
</linearGradient>
<linearGradient id="paint5_linear_1_478092" x1="5.20503" y1="10.5885" x2="3.52899" y2="9.26349" gradientUnits="userSpaceOnUse">
<stop stop-color="#67E6A9"/>
<stop offset="1" stop-color="#20ACAC"/>
</linearGradient>
<linearGradient id="paint6_linear_1_478092" x1="7.0101" y1="8.58369" x2="5.08178" y2="7.05922" gradientUnits="userSpaceOnUse">
<stop stop-color="#67E6A9"/>
<stop offset="1" stop-color="#20ACAC"/>
</linearGradient>
<linearGradient id="paint7_linear_1_478092" x1="3.80655" y1="7.20101" x2="2.98564" y2="6.55203" gradientUnits="userSpaceOnUse">
<stop stop-color="#67E6A9"/>
<stop offset="1" stop-color="#20ACAC"/>
</linearGradient>
<linearGradient id="paint8_linear_1_478092" x1="4.44122" y1="11.4726" x2="4.97243" y2="11.4726" gradientUnits="userSpaceOnUse">
<stop stop-color="#67E6A9"/>
<stop offset="1" stop-color="#20ACAC"/>
</linearGradient>
<linearGradient id="paint9_linear_1_478092" x1="7.81415" y1="11.0478" x2="8.34536" y2="11.0478" gradientUnits="userSpaceOnUse">
<stop stop-color="#67E6A9"/>
<stop offset="1" stop-color="#20ACAC"/>
</linearGradient>
<linearGradient id="paint10_linear_1_478092" x1="3.45392" y1="8.21964" x2="3.98513" y2="8.21964" gradientUnits="userSpaceOnUse">
<stop stop-color="#67E6A9"/>
<stop offset="1" stop-color="#20ACAC"/>
</linearGradient>
<linearGradient id="paint11_linear_1_478092" x1="6.80145" y1="8.95792" x2="7.33266" y2="8.95792" gradientUnits="userSpaceOnUse">
<stop stop-color="#67E6A9"/>
<stop offset="1" stop-color="#20ACAC"/>
</linearGradient>
<linearGradient id="paint12_linear_1_478092" x1="6.37469" y1="8.54484" x2="6.90591" y2="8.54484" gradientUnits="userSpaceOnUse">
<stop stop-color="#67E6A9"/>
<stop offset="1" stop-color="#20ACAC"/>
</linearGradient>
</defs>
</svg>
