<svg width="38" height="38" viewBox="0 0 38 38" fill="none" xmlns="http://www.w3.org/2000/svg">
<g clip-path="url(#clip0_1_477838)">
<path d="M2.0581 17.0942L12.254 21.8034L10.5337 27.5348L4.49779 25.409C0.500871 23.9716 1.20595 19.2669 2.0581 17.0942Z" fill="#A4A4A4"/>
<path d="M2.15966 16.1352L12.3556 20.8444L10.6353 26.5758L4.59935 24.45C0.602433 23.0126 1.30751 18.3079 2.15966 16.1352Z" fill="url(#paint0_linear_1_477838)"/>
<path d="M11.8723 21.0611L10.3728 26.058L4.73189 24.0724L4.73093 24.0723C2.90933 23.4156 2.15998 22.0326 1.95783 20.5157C1.7771 19.1592 2.04207 17.7184 2.38765 16.6806L11.8723 21.0611Z" stroke="white" stroke-opacity="0.3" stroke-width="0.8"/>
<path d="M0.737971 12.854L10.9339 17.5632L9.21357 23.2945L3.17766 21.1688C-0.819259 19.7313 -0.114182 15.0267 0.737971 12.854Z" fill="#A4A4A4"/>
<path d="M0.838557 11.8393L11.0344 16.5485L9.31416 22.2799L3.27825 20.1541C-0.718673 18.7167 -0.0135963 14.012 0.838557 11.8393Z" fill="url(#paint1_linear_1_477838)"/>
<path d="M10.5512 16.7652L9.05172 21.7621L3.41079 19.7765L3.40982 19.7764C1.58822 19.1197 0.838869 17.7367 0.636721 16.2198C0.455992 14.8633 0.720961 13.4225 1.06655 12.3847L10.5512 16.7652Z" stroke="white" stroke-opacity="0.3" stroke-width="0.8"/>
<path d="M0.582453 8.02099L10.7783 12.7301L9.05806 18.4615L3.02214 16.3358C-0.974776 14.8983 -0.2697 10.1936 0.582453 8.02099Z" fill="#AEAEAE"/>
<path d="M1.64697 7.43059L10.0919 11.331C10.544 11.5398 10.7735 12.0494 10.6304 12.5264L9.46095 16.4225C9.29687 16.9691 8.70931 17.2678 8.17098 17.0782L3.12371 15.3006C-0.331964 14.0578 -0.272872 10.3728 0.357231 7.99337C0.504536 7.43711 1.12457 7.18931 1.64697 7.43059Z" fill="url(#paint2_linear_1_477838)"/>
<path d="M1.47939 7.79332L9.92449 11.6947C10.1617 11.8045 10.2966 12.052 10.2689 12.3039L10.2477 12.4114L9.07824 16.308C8.99193 16.5949 8.71063 16.7677 8.42542 16.7301L8.30428 16.701L3.25625 14.923L3.25528 14.9229C1.67393 14.3528 0.907509 13.2399 0.59653 11.9773C0.319561 10.8525 0.406682 9.607 0.637301 8.54063L0.743896 8.09613C0.810112 7.84609 1.07391 7.68634 1.35713 7.75128L1.47939 7.79332Z" stroke="white" stroke-opacity="0.3" stroke-width="0.8"/>
<path d="M35.9417 17.0942L25.7458 21.8034L27.4661 27.5348L33.502 25.409C37.4989 23.9716 36.7939 19.2669 35.9417 17.0942Z" fill="#A4A4A4"/>
<path d="M35.8402 16.1352L25.6443 20.8444L27.3646 26.5758L33.4005 24.45C37.3974 23.0126 36.6923 18.3079 35.8402 16.1352Z" fill="url(#paint3_linear_1_477838)"/>
<path d="M26.1275 21.0611L27.627 26.058L33.2679 24.0724L33.2689 24.0723C35.0905 23.4156 35.8398 22.0326 36.042 20.5157C36.2227 19.1592 35.9577 17.7184 35.6122 16.6806L26.1275 21.0611Z" stroke="white" stroke-opacity="0.3" stroke-width="0.8"/>
<path d="M37.2623 12.854L27.0664 17.5632L28.7867 23.2945L34.8226 21.1688C38.8195 19.7313 38.1144 15.0267 37.2623 12.854Z" fill="#A4A4A4"/>
<path d="M37.1614 11.8393L26.9656 16.5485L28.6858 22.2799L34.7218 20.1541C38.7187 18.7167 38.0136 14.012 37.1614 11.8393Z" fill="url(#paint4_linear_1_477838)"/>
<path d="M27.4488 16.7652L28.9483 21.7621L34.5892 19.7765L34.5902 19.7764C36.4118 19.1197 37.1611 17.7367 37.3633 16.2198C37.544 14.8633 37.279 13.4225 36.9335 12.3847L27.4488 16.7652Z" stroke="white" stroke-opacity="0.3" stroke-width="0.8"/>
<path d="M37.4163 8.02099L27.2204 12.7301L28.9407 18.4615L34.9766 16.3358C38.9736 14.8983 38.2685 10.1936 37.4163 8.02099Z" fill="#AEAEAE"/>
<path d="M36.3528 7.43059L27.9079 11.331C27.4558 11.5398 27.2262 12.0494 27.3694 12.5264L28.5388 16.4225C28.7029 16.9691 29.2904 17.2678 29.8288 17.0782L34.8761 15.3006C38.3317 14.0578 38.2726 10.3728 37.6425 7.99337C37.4952 7.43711 36.8752 7.18931 36.3528 7.43059Z" fill="url(#paint5_linear_1_477838)"/>
<path d="M36.5204 7.79332L28.0753 11.6947C27.8381 11.8045 27.7032 12.052 27.7308 12.3039L27.752 12.4114L28.9215 16.308C29.0078 16.5949 29.2891 16.7677 29.5743 16.7301L29.6955 16.701L34.7435 14.923L34.7445 14.9229C36.3258 14.3528 37.0922 13.2399 37.4032 11.9773C37.6802 10.8525 37.5931 9.607 37.3625 8.54063L37.2559 8.09613C37.1896 7.84609 36.9258 7.68634 36.6426 7.75128L36.5204 7.79332Z" stroke="white" stroke-opacity="0.3" stroke-width="0.8"/>
<path d="M17.8972 5.86744C18.5982 5.47961 19.4493 5.47961 20.1503 5.86744L30.7582 11.7367C31.4989 12.1466 31.9586 12.9263 31.9586 13.7728V25.3426C31.9586 26.1891 31.4989 26.9688 30.7582 27.3786L20.1503 33.2479C19.4493 33.6358 18.5982 33.6358 17.8972 33.2479L7.28931 27.3786C6.54862 26.9688 6.08892 26.1891 6.08892 25.3426V13.7728C6.08892 12.9263 6.54862 12.1466 7.28931 11.7367L17.8972 5.86744Z" fill="#A4A4A4"/>
<path d="M17.8972 4.6233C18.5982 4.23547 19.4493 4.23547 20.1503 4.6233L30.7582 10.4926C31.4989 10.9024 31.9586 11.6821 31.9586 12.5287V24.0984C31.9586 24.9449 31.4989 25.7247 30.7582 26.1345L20.1503 32.0038C19.4493 32.3916 18.5982 32.3916 17.8972 32.0038L7.28931 26.1345C6.54862 25.7247 6.08892 24.9449 6.08892 24.0984V12.5287C6.08892 11.6822 6.54862 10.9024 7.28931 10.4926L17.8972 4.6233Z" fill="url(#paint6_linear_1_477838)"/>
<path opacity="0.8" d="M17.9102 8.34082C18.6046 7.96219 19.4438 7.96219 20.1381 8.34082L27.5124 12.3618C28.2601 12.7695 28.7253 13.5531 28.7253 14.4047V22.2212C28.7253 23.0729 28.2601 23.8565 27.5124 24.2642L20.1381 28.2851C19.4438 28.6638 18.6046 28.6638 17.9102 28.2851L10.536 24.2642C9.78828 23.8565 9.32304 23.0728 9.32304 22.2212V14.4047C9.32304 13.5531 9.78828 12.7695 10.536 12.3618L17.9102 8.34082Z" fill="url(#paint7_linear_1_477838)"/>
<path d="M18.4559 11.8509C18.6902 11.3518 19.4 11.3518 19.6343 11.8509L21.0885 14.9487C21.1806 15.145 21.3645 15.2825 21.5788 15.3154L24.8839 15.8234C25.4074 15.9039 25.6207 16.5425 25.2507 16.9215L22.8197 19.4113C22.6753 19.5592 22.6097 19.7668 22.643 19.9708L23.2109 23.4526C23.2984 23.9888 22.729 24.3899 22.2534 24.1269C21.275 23.5858 20.4718 23.1417 19.3601 22.5269C19.1641 22.4185 18.9261 22.4185 18.7301 22.5269L15.8366 24.1269C15.3611 24.3899 14.7918 23.9888 14.8793 23.4526L15.4472 19.9708C15.4804 19.7668 15.4149 19.5592 15.2705 19.4113L12.8394 16.9215C12.4694 16.5425 12.6828 15.9039 13.2063 15.8234L16.5114 15.3154C16.7257 15.2825 16.9095 15.145 17.0017 14.9487L18.4559 11.8509Z" fill="url(#paint8_linear_1_477838)"/>
<mask id="mask0_1_477838" style="mask-type:alpha" maskUnits="userSpaceOnUse" x="12" y="11" width="14" height="14">
<path d="M18.4559 11.8509C18.6902 11.3518 19.4 11.3518 19.6343 11.8509L21.0885 14.9487C21.1806 15.145 21.3645 15.2825 21.5788 15.3154L24.8839 15.8234C25.4074 15.9039 25.6207 16.5425 25.2507 16.9215L22.8197 19.4113C22.6753 19.5592 22.6097 19.7668 22.643 19.9708L23.2109 23.4526C23.2984 23.9888 22.729 24.3899 22.2534 24.1269C21.275 23.5858 20.4718 23.1417 19.3601 22.5269C19.1641 22.4185 18.9261 22.4185 18.7301 22.5269L15.8366 24.1269C15.3611 24.3899 14.7918 23.9888 14.8793 23.4526L15.4472 19.9708C15.4804 19.7668 15.4149 19.5592 15.2705 19.4113L12.8394 16.9215C12.4694 16.5425 12.6828 15.9039 13.2063 15.8234L16.5114 15.3154C16.7257 15.2825 16.9095 15.145 17.0017 14.9487L18.4559 11.8509Z" fill="url(#paint9_linear_1_477838)"/>
</mask>
<g mask="url(#mask0_1_477838)">
<path opacity="0.8" d="M19.1043 17.8412V11.0787C18.7179 10.3058 16.8501 13.1719 16.2061 14.943L19.1043 17.8412Z" fill="url(#paint10_linear_1_477838)"/>
<path opacity="0.8" d="M19.0959 17.8409L14.8401 24.0719C14.5668 24.8917 17.2915 24.4344 18.9993 23.6374L19.0959 17.8409Z" fill="url(#paint11_linear_1_477838)"/>
<path opacity="0.8" d="M19.2003 17.8413L11.9547 16.3922C11.1819 16.7786 13.1388 19.1294 14.9099 19.7734L19.2003 17.8413Z" fill="url(#paint12_linear_1_477838)"/>
<path opacity="0.8" d="M19.0352 17.8411L23.0653 24.1206C23.885 24.3939 23.8622 21.4811 23.0652 19.7733L19.0352 17.8411Z" fill="url(#paint13_linear_1_477838)"/>
<path opacity="0.8" d="M19.051 17.8415L25.4802 16.3923C26.1267 15.819 23.4934 15.1069 21.6159 14.9432L19.051 17.8415Z" fill="url(#paint14_linear_1_477838)"/>
</g>
</g>
<defs>
<linearGradient id="paint0_linear_1_477838" x1="7.35939" y1="16.8745" x2="6.07239" y2="25.9271" gradientUnits="userSpaceOnUse">
<stop stop-color="#E7E7E7"/>
<stop offset="1" stop-color="#9C9C9C"/>
</linearGradient>
<linearGradient id="paint1_linear_1_477838" x1="6.03829" y1="12.5786" x2="4.75129" y2="21.6312" gradientUnits="userSpaceOnUse">
<stop stop-color="#E7E7E7"/>
<stop offset="1" stop-color="#9C9C9C"/>
</linearGradient>
<linearGradient id="paint2_linear_1_477838" x1="5.88375" y1="7.72507" x2="4.59675" y2="16.7777" gradientUnits="userSpaceOnUse">
<stop stop-color="#F0F0F0"/>
<stop offset="1" stop-color="#C5C5C5"/>
</linearGradient>
<linearGradient id="paint3_linear_1_477838" x1="30.6404" y1="16.8745" x2="31.9274" y2="25.9271" gradientUnits="userSpaceOnUse">
<stop stop-color="#E7E7E7"/>
<stop offset="1" stop-color="#9C9C9C"/>
</linearGradient>
<linearGradient id="paint4_linear_1_477838" x1="31.9617" y1="12.5786" x2="33.2487" y2="21.6312" gradientUnits="userSpaceOnUse">
<stop stop-color="#E7E7E7"/>
<stop offset="1" stop-color="#9C9C9C"/>
</linearGradient>
<linearGradient id="paint5_linear_1_477838" x1="32.116" y1="7.72507" x2="33.403" y2="16.7777" gradientUnits="userSpaceOnUse">
<stop stop-color="#F0F0F0"/>
<stop offset="1" stop-color="#C5C5C5"/>
</linearGradient>
<linearGradient id="paint6_linear_1_477838" x1="10.1556" y1="6.68379" x2="28.7883" y2="29.83" gradientUnits="userSpaceOnUse">
<stop stop-color="white"/>
<stop offset="1" stop-color="#D7D7D7"/>
</linearGradient>
<linearGradient id="paint7_linear_1_477838" x1="13.4232" y1="10.5817" x2="25.874" y2="26.7418" gradientUnits="userSpaceOnUse">
<stop stop-color="#C8C8C8"/>
<stop offset="1" stop-color="#B3B3B3"/>
</linearGradient>
<linearGradient id="paint8_linear_1_477838" x1="13.8393" y1="12.48" x2="24.0151" y2="23.9278" gradientUnits="userSpaceOnUse">
<stop stop-color="#FFFFFD"/>
<stop offset="1" stop-color="#DEDEDE"/>
</linearGradient>
<linearGradient id="paint9_linear_1_477838" x1="19.0451" y1="10.5957" x2="19.0451" y2="24.7757" gradientUnits="userSpaceOnUse">
<stop stop-color="white"/>
<stop offset="1" stop-color="#E7E1B4"/>
</linearGradient>
<linearGradient id="paint10_linear_1_477838" x1="17.6552" y1="10.9492" x2="17.6552" y2="17.8412" gradientUnits="userSpaceOnUse">
<stop stop-color="#EBEBEB"/>
<stop offset="1" stop-color="#D2D2D2"/>
</linearGradient>
<linearGradient id="paint11_linear_1_477838" x1="15.1668" y1="24.62" x2="20.5209" y2="19.2659" gradientUnits="userSpaceOnUse">
<stop stop-color="#EBEBEB"/>
<stop offset="1" stop-color="#D2D2D2"/>
</linearGradient>
<linearGradient id="paint12_linear_1_477838" x1="11.7813" y1="18.0828" x2="19.2003" y2="18.0828" gradientUnits="userSpaceOnUse">
<stop stop-color="#EBEBEB"/>
<stop offset="1" stop-color="#D2D2D2"/>
</linearGradient>
<linearGradient id="paint13_linear_1_477838" x1="24.2696" y1="23.1513" x2="18.9973" y2="17.879" gradientUnits="userSpaceOnUse">
<stop stop-color="#EBEBEB"/>
<stop offset="1" stop-color="#D2D2D2"/>
</linearGradient>
<linearGradient id="paint14_linear_1_477838" x1="25.3154" y1="15.1942" x2="18.8088" y2="16.9376" gradientUnits="userSpaceOnUse">
<stop stop-color="#EBEBEB"/>
<stop offset="1" stop-color="#D2D2D2"/>
</linearGradient>
<clipPath id="clip0_1_477838">
<rect width="38" height="38" fill="white"/>
</clipPath>
</defs>
</svg>
