<svg width="20" height="20" viewBox="0 0 20 20" fill="none" xmlns="http://www.w3.org/2000/svg">
<path d="M9.2481 8.30785L2.25113 15.338C2.06571 15.5222 1.91855 15.7412 1.81813 15.9825C1.71771 16.2238 1.66602 16.4826 1.66602 16.7439C1.66602 17.0053 1.71771 17.264 1.81813 17.5053C1.91855 17.7466 2.06571 17.9657 2.25113 18.1499C2.62583 18.5226 3.13283 18.7318 3.66133 18.7318C4.18982 18.7318 4.69683 18.5226 5.07153 18.1499L12.0912 11.151M15.6044 13.3241L18.0552 10.8733C18.2329 10.6956 18.3327 10.4546 18.3327 10.2033C18.3327 9.95197 18.2329 9.71096 18.0552 9.53324L10.8658 2.34388C10.6881 2.16621 10.4471 2.06641 10.1958 2.06641C9.94451 2.06641 9.7035 2.16621 9.52578 2.34388L7.07499 4.79467C6.89732 4.97239 6.79752 5.21341 6.79752 5.46471C6.79752 5.71601 6.89732 5.95702 7.07499 6.13474L14.2644 13.3241C14.4421 13.5018 14.6831 13.6016 14.9344 13.6016C15.1857 13.6016 15.4267 13.5018 15.6044 13.3241Z" stroke="white" stroke-width="1.4" stroke-linecap="round" stroke-linejoin="round"/>
<path d="M11.666 18.7334H18.3327" stroke="white" stroke-width="1.5" stroke-linecap="round"/>
</svg>
