<svg width="20" height="20" viewBox="0 0 20 20" fill="none" xmlns="http://www.w3.org/2000/svg">
<path d="M12.9833 10.3329C12.9833 11.9829 11.6499 13.3163 9.99993 13.3163C8.34993 13.3163 7.0166 11.9829 7.0166 10.3329C7.0166 8.68294 8.34993 7.34961 9.99993 7.34961C11.6499 7.34961 12.9833 8.68294 12.9833 10.3329Z" stroke="white" stroke-width="1.4" stroke-linecap="round" stroke-linejoin="round"/>
<path d="M9.99987 17.2253C12.9415 17.2253 15.6832 15.4919 17.5915 12.4919C18.3415 11.3169 18.3415 9.34193 17.5915 8.16693C15.6832 5.16693 12.9415 3.43359 9.99987 3.43359C7.0582 3.43359 4.31654 5.16693 2.4082 8.16693C1.6582 9.34193 1.6582 11.3169 2.4082 12.4919C4.31654 15.4919 7.0582 17.2253 9.99987 17.2253Z" stroke="white" stroke-width="1.4" stroke-linecap="round" stroke-linejoin="round"/>
</svg>
