<svg width="20" height="20" viewBox="0 0 20 20" fill="none" xmlns="http://www.w3.org/2000/svg">
<path d="M12.1083 8.225L7.89163 12.4417M12.1083 8.225C11.5666 7.68333 10.825 7.35 9.99996 7.35C8.34996 7.35 7.01663 8.68333 7.01663 10.3333C7.01663 11.1583 7.34996 11.9 7.89163 12.4417M12.1083 8.225L18.3333 2M7.89163 12.4417L1.66663 18.6667M14.85 5.14167C13.3916 4.04167 11.725 3.44167 9.99996 3.44167C7.05829 3.44167 4.31663 5.175 2.40829 8.175C1.65829 9.35 1.65829 11.325 2.40829 12.5C3.06663 13.5333 3.83329 14.425 4.66663 15.1417M7.01663 16.6083C7.96663 17.0083 8.97496 17.225 9.99996 17.225C12.9416 17.225 15.6833 15.4917 17.5916 12.4917C18.3416 11.3167 18.3416 9.34167 17.5916 8.16667C17.3166 7.73333 17.0166 7.325 16.7083 6.94167M12.925 10.9167C12.7083 12.0917 11.75 13.05 10.575 13.2667" stroke="white" stroke-width="1.4" stroke-linecap="round" stroke-linejoin="round"/>
</svg>
