<svg width="20" height="20" viewBox="0 0 20 20" fill="none" xmlns="http://www.w3.org/2000/svg">
<path d="M10.3538 14.7079L9.15723 15.8702C8.48974 16.5185 7.6022 16.8755 6.65814 16.8755C5.71409 16.8755 4.82655 16.5185 4.15905 15.8702C2.78113 14.5318 2.78113 12.354 4.15905 11.0154L6.53021 8.71229C7.90813 7.3739 10.1502 7.3739 11.5284 8.71229" stroke="white" stroke-width="1.4" stroke-miterlimit="10" stroke-linecap="round"/>
<path d="M9.64734 5.29091L10.8439 4.12847C12.2219 2.78986 14.464 2.78986 15.8421 4.12847C17.22 5.46708 17.22 7.6452 15.8421 8.98403L13.471 11.2875C12.7819 11.9569 11.877 12.2915 10.9719 12.2915C10.0667 12.2915 9.16185 11.9569 8.47278 11.2875" stroke="white" stroke-width="1.4" stroke-miterlimit="10" stroke-linecap="round"/>
</svg>
