<svg width="20" height="20" viewBox="0 0 20 20" fill="none" xmlns="http://www.w3.org/2000/svg">
<path d="M10.0001 17.5C14.1423 17.5 17.5001 14.1421 17.5001 10C17.5001 5.85786 14.1423 2.5 10.0001 2.5C5.85799 2.5 2.50012 5.85786 2.50012 10C2.50012 14.1421 5.85799 17.5 10.0001 17.5Z" stroke="white" stroke-width="1.4" stroke-linecap="round" stroke-linejoin="round"/>
<path d="M10.0001 17.5C11.3808 17.5 12.5001 14.1421 12.5001 10C12.5001 5.85786 11.3808 2.5 10.0001 2.5C8.61941 2.5 7.50012 5.85786 7.50012 10C7.50012 14.1421 8.61941 17.5 10.0001 17.5Z" stroke="white" stroke-width="1.4" stroke-linecap="round" stroke-linejoin="round"/>
<path d="M2.91667 7.5H16.6667M2.5 12.5H16.6667" stroke="white" stroke-width="1.4"/>
</svg>
