<svg width="20" height="20" viewBox="0 0 20 20" fill="none" xmlns="http://www.w3.org/2000/svg">
<path d="M3.4122 14.0627C2.65111 12.9604 2.15952 10.9078 2.03263 9.5C2.01103 9.73959 2 10.7322 2 10.9775C2 15.3957 5.58172 18.9775 10 18.9775C14.4183 18.9775 18 15.3957 18 10.9775C18 10.7322 17.989 9.73959 17.9674 9.5C17.8405 10.9078 17.3489 12.9604 16.5878 14.0627C15.4271 16.5368 12.9136 17.5 10 17.5C7.08636 17.5 4.5729 16.5368 3.4122 14.0627Z" fill="white"/>
<path fill-rule="evenodd" clip-rule="evenodd" d="M10 17.2727C14.0166 17.2727 17.2727 14.0166 17.2727 10C17.2727 5.98338 14.0166 2.72727 10 2.72727C5.98338 2.72727 2.72727 5.98338 2.72727 10C2.72727 14.0166 5.98338 17.2727 10 17.2727ZM10 18C14.4183 18 18 14.4183 18 10C18 5.58172 14.4183 2 10 2C5.58172 2 2 5.58172 2 10C2 14.4183 5.58172 18 10 18Z" fill="white"/>
<path d="M13.5556 9.2024C13.801 9.2024 14 9.38556 14 9.6115V12.6398C14 12.7414 13.9602 12.8405 13.8789 12.9092C13.7229 13.0411 13.5141 13.1802 13.2525 13.3267C12.9202 13.511 12.5005 13.6693 11.9934 13.8016C11.4863 13.9339 10.8896 14 10.2033 14C9.5694 14 8.99454 13.9078 8.47869 13.7234C7.96284 13.5351 7.51913 13.2605 7.14754 12.8998C6.78033 12.5351 6.49617 12.0902 6.29508 11.5651C6.09836 11.0361 6 10.4309 6 9.7495V9.26252C6 8.58116 6.10055 7.97595 6.30164 7.44689C6.50273 6.91784 6.7847 6.47295 7.14754 6.11222C7.51475 5.74749 7.94536 5.47094 8.43934 5.28257C8.93771 5.09419 9.48415 5 10.0787 5C10.9574 5 11.6721 5.12826 12.223 5.38477C12.7738 5.63727 13.1913 5.98798 13.4754 6.43687C13.6851 6.76522 13.8341 7.13177 13.9224 7.53653C13.974 7.77324 13.7664 7.98196 13.5042 7.98196H12.1704C11.9486 7.98196 11.766 7.82991 11.7052 7.63362C11.661 7.49096 11.6041 7.36258 11.5344 7.2485C11.4164 7.04409 11.2459 6.88978 11.023 6.78557C10.8 6.67735 10.5115 6.62325 10.1574 6.62325C9.88197 6.62325 9.6306 6.67735 9.40328 6.78557C9.18033 6.89379 8.99016 7.05812 8.83279 7.27856C8.67541 7.49499 8.55301 7.76753 8.46557 8.09619C8.38251 8.42485 8.34098 8.80962 8.34098 9.2505V9.7495C8.34098 10.1864 8.38033 10.5691 8.45902 10.8978C8.54208 11.2265 8.66448 11.501 8.82623 11.7214C8.99235 11.9379 9.20219 12.1022 9.45574 12.2144C9.71366 12.3226 10.0175 12.3768 10.3672 12.3768C10.612 12.3768 10.8219 12.3587 10.9967 12.3226C11.1716 12.2826 11.3158 12.2345 11.4295 12.1784C11.485 12.1501 11.5531 12.1214 11.616 12.0935C11.7276 12.044 11.7836 11.9392 11.7836 11.8251V11.0604C11.7836 10.8345 11.5846 10.6513 11.3392 10.6513H10.5428C10.2973 10.6513 10.0984 10.4681 10.0984 10.2422V9.6115C10.0984 9.38556 10.2973 9.2024 10.5428 9.2024H13.5556Z" fill="white"/>
</svg>
