<svg width="20" height="20" viewBox="0 0 20 20" fill="none" xmlns="http://www.w3.org/2000/svg">
<path d="M7.375 1.9502H12.625C14.7435 1.9502 16.0441 2.37812 16.833 3.16699C17.6219 3.95586 18.0498 5.25654 18.0498 7.375V12.625C18.0498 14.7435 17.6219 16.0441 16.833 16.833C16.0441 17.6219 14.7435 18.0498 12.625 18.0498H7.375C5.25654 18.0498 3.95586 17.6219 3.16699 16.833C2.37812 16.0441 1.9502 14.7435 1.9502 12.625V7.375C1.9502 5.25654 2.37812 3.95586 3.16699 3.16699C3.95586 2.37812 5.25654 1.9502 7.375 1.9502Z" stroke="white" stroke-width="1.4" stroke-linecap="round" stroke-linejoin="round"/>
<path d="M6.25 10H13.75" stroke="white" stroke-width="1.4" stroke-linecap="round" stroke-linejoin="round"/>
<path d="M10 13.75V6.25" stroke="white" stroke-width="1.4" stroke-linecap="round" stroke-linejoin="round"/>
</svg>
