<svg width="20" height="20" viewBox="0 0 20 20" fill="none" xmlns="http://www.w3.org/2000/svg">
<path d="M7.375 1.875H12.625C14.7509 1.875 16.0759 2.30444 16.8857 3.11426C17.6956 3.92408 18.125 5.24914 18.125 7.375V12.625C18.125 14.7509 17.6956 16.0759 16.8857 16.8857C16.0759 17.6956 14.7509 18.125 12.625 18.125H7.375C5.24914 18.125 3.92408 17.6956 3.11426 16.8857C2.30444 16.0759 1.875 14.7509 1.875 12.625V7.375C1.875 5.24914 2.30444 3.92408 3.11426 3.11426C3.92408 2.30444 5.24914 1.875 7.375 1.875Z" fill="white" stroke="white" stroke-width="1.25" stroke-linecap="round" stroke-linejoin="round"/>
<path d="M6.25 10H13.75" stroke="#404040" stroke-width="1.4" stroke-linecap="round" stroke-linejoin="round"/>
<path d="M10 13.75V6.25" stroke="#404040" stroke-width="1.4" stroke-linecap="round" stroke-linejoin="round"/>
</svg>
