<svg width="20" height="20" viewBox="0 0 20 20" fill="none" xmlns="http://www.w3.org/2000/svg">
<circle cx="10" cy="10" r="7.3" stroke="#BDBDBD" stroke-width="1.4"/>
<path d="M10.5723 11.9434H9.21382C9.21737 11.6208 9.24223 11.343 9.2884 11.1101C9.33812 10.8735 9.42159 10.6602 9.53879 10.4703C9.65954 10.2803 9.81937 10.0921 10.0183 9.90577C10.1852 9.75523 10.3308 9.61186 10.4551 9.47566C10.5794 9.33946 10.6771 9.19967 10.7481 9.0563C10.8191 8.90935 10.8547 8.74627 10.8547 8.56706C10.8547 8.35917 10.8227 8.18713 10.7588 8.05093C10.6984 7.91114 10.606 7.80541 10.4817 7.73372C10.361 7.66204 10.2083 7.6262 10.0236 7.6262C9.87086 7.6262 9.7288 7.66025 9.59739 7.72835C9.46598 7.79286 9.35766 7.89322 9.27242 8.02942C9.19073 8.16562 9.14811 8.34484 9.14456 8.56706H7.59961C7.61026 8.07602 7.72214 7.671 7.93524 7.352C8.15188 7.02942 8.44134 6.79107 8.8036 6.63695C9.16587 6.47924 9.57253 6.40039 10.0236 6.40039C10.5208 6.40039 10.947 6.48283 11.3022 6.6477C11.6573 6.80899 11.929 7.04734 12.1173 7.36276C12.3055 7.67458 12.3996 8.05451 12.3996 8.50254C12.3996 8.81437 12.3392 9.09215 12.2185 9.33587C12.0977 9.57602 11.9397 9.80003 11.7443 10.0079C11.549 10.2158 11.3341 10.4309 11.0997 10.6531C10.8973 10.8359 10.7588 11.0276 10.6842 11.2283C10.6132 11.4291 10.5759 11.6674 10.5723 11.9434ZM9.05399 13.6047C9.05399 13.3753 9.13213 13.1853 9.2884 13.0348C9.44467 12.8807 9.65422 12.8036 9.91703 12.8036C10.1763 12.8036 10.3841 12.8807 10.5403 13.0348C10.7002 13.1853 10.7801 13.3753 10.7801 13.6047C10.7801 13.8269 10.7002 14.0151 10.5403 14.1692C10.3841 14.3233 10.1763 14.4004 9.91703 14.4004C9.65422 14.4004 9.44467 14.3233 9.2884 14.1692C9.13213 14.0151 9.05399 13.8269 9.05399 13.6047Z" fill="#BDBDBD"/>
</svg>
