<svg width="20" height="20" viewBox="0 0 20 20" fill="none" xmlns="http://www.w3.org/2000/svg">
<path fill-rule="evenodd" clip-rule="evenodd" d="M10 18C14.4183 18 18 14.4183 18 10C18 5.58172 14.4183 2 10 2C5.58172 2 2 5.58172 2 10C2 14.4183 5.58172 18 10 18ZM13.9118 6.25513C14.1851 6.5285 14.1851 6.97171 13.9118 7.24508L11.0734 10.0834L13.9118 12.9218C14.1851 13.1952 14.1851 13.6384 13.9118 13.9117C13.6384 14.1851 13.1952 14.1851 12.9218 13.9117L10.0835 11.0734L7.2451 13.9117C6.97173 14.1851 6.52852 14.1851 6.25515 13.9117C5.98179 13.6384 5.98179 13.1952 6.25515 12.9218L9.09351 10.0834L6.25515 7.24508C5.98179 6.97171 5.98179 6.5285 6.25515 6.25513C6.52852 5.98176 6.97173 5.98176 7.2451 6.25513L10.0835 9.09349L12.9218 6.25513C13.1952 5.98176 13.6384 5.98176 13.9118 6.25513Z" fill="#BDBDBD"/>
</svg>
