<svg width="20" height="20" viewBox="0 0 20 20" fill="none" xmlns="http://www.w3.org/2000/svg">
<path d="M15.0568 8.51321C13.9262 8.51321 13.4639 7.75041 14.0261 6.81479C14.351 6.27249 14.1573 5.5812 13.5888 5.27131L12.5081 4.68133C12.0146 4.40124 11.3774 4.5681 11.0838 5.0389L11.0151 5.15212C10.4529 6.08775 9.52836 6.08775 8.9599 5.15212L8.89118 5.0389C8.61007 4.5681 7.97289 4.40124 7.47939 4.68133L6.39868 5.27131C5.83021 5.5812 5.63656 6.27845 5.96139 6.82075C6.52986 7.75041 6.06759 8.51321 4.93691 8.51321C4.28723 8.51321 3.75 9.01976 3.75 9.6455V10.6943C3.75 11.3141 4.28098 11.8266 4.93691 11.8266C6.06759 11.8266 6.52986 12.5894 5.96139 13.5251C5.63656 14.0674 5.83021 14.7586 6.39868 15.0685L7.47939 15.6585C7.97289 15.9386 8.61007 15.7717 8.90367 15.3009L8.97239 15.1877C9.53461 14.2521 10.4591 14.2521 11.0276 15.1877L11.0963 15.3009C11.3899 15.7717 12.0271 15.9386 12.5206 15.6585L13.6013 15.0685C14.1698 14.7586 14.3634 14.0614 14.0386 13.5251C13.4701 12.5894 13.9324 11.8266 15.0631 11.8266C15.7128 11.8266 16.25 11.3201 16.25 10.6943V9.6455C16.2438 9.02572 15.7128 8.51321 15.0568 8.51321ZM9.99688 12.1067C8.87869 12.1067 7.96664 11.2367 7.96664 10.1699C7.96664 9.10319 8.87869 8.23312 9.99688 8.23312C11.1151 8.23312 12.0271 9.10319 12.0271 10.1699C12.0271 11.2367 11.1151 12.1067 9.99688 12.1067Z" fill="white"/>
</svg>
