<svg width="20" height="20" viewBox="0 0 20 20" fill="none" xmlns="http://www.w3.org/2000/svg">
<path d="M10 12.833C11.3807 12.833 12.5 11.7137 12.5 10.333C12.5 8.9523 11.3807 7.83301 10 7.83301C8.61929 7.83301 7.5 8.9523 7.5 10.333C7.5 11.7137 8.61929 12.833 10 12.833Z" stroke="white" stroke-width="1.4" stroke-miterlimit="10" stroke-linecap="round" stroke-linejoin="round"/>
<path d="M1.66699 11.0669V9.60019C1.66699 8.73352 2.37533 8.01686 3.25033 8.01686C4.75866 8.01686 5.37533 6.95019 4.61699 5.64186C4.18366 4.89186 4.44199 3.91686 5.20033 3.48352L6.64199 2.65852C7.30033 2.26686 8.15033 2.50019 8.54199 3.15852L8.63366 3.31686C9.38366 4.62519 10.617 4.62519 11.3753 3.31686L11.467 3.15852C11.8587 2.50019 12.7087 2.26686 13.367 2.65852L14.8087 3.48352C15.567 3.91686 15.8253 4.89186 15.392 5.64186C14.6337 6.95019 15.2503 8.01686 16.7587 8.01686C17.6253 8.01686 18.342 8.72519 18.342 9.60019V11.0669C18.342 11.9335 17.6337 12.6502 16.7587 12.6502C15.2503 12.6502 14.6337 13.7169 15.392 15.0252C15.8253 15.7835 15.567 16.7502 14.8087 17.1835L13.367 18.0085C12.7087 18.4002 11.8587 18.1669 11.467 17.5085L11.3753 17.3502C10.6253 16.0419 9.39199 16.0419 8.63366 17.3502L8.54199 17.5085C8.15033 18.1669 7.30033 18.4002 6.64199 18.0085L5.20033 17.1835C4.44199 16.7502 4.18366 15.7752 4.61699 15.0252C5.37533 13.7169 4.75866 12.6502 3.25033 12.6502C2.37533 12.6502 1.66699 11.9335 1.66699 11.0669Z" stroke="white" stroke-width="1.4" stroke-miterlimit="10" stroke-linecap="round" stroke-linejoin="round"/>
</svg>
