<svg width="18" height="17" viewBox="0 0 18 17" fill="none" xmlns="http://www.w3.org/2000/svg">
<path d="M1.80713 8.27973C1.73715 8.44981 1.66716 8.61992 1.59719 8.79C1.5492 8.96677 1.58171 9.13063 1.67838 9.2832C1.77816 9.44113 1.93215 9.52626 2.09508 9.59731C2.23135 9.65666 2.29639 9.67958 2.31313 9.72268C2.32979 9.76559 2.29854 9.82852 2.24205 9.96734C2.16815 10.1493 2.11836 10.3374 2.17549 10.5334C2.26887 10.8531 2.4606 11 2.76393 11.0394C3.06406 11.0782 3.28469 10.9138 3.42763 10.6474C3.47026 10.5681 3.50247 10.4835 3.53455 10.3992L3.54419 10.3739C3.58001 10.28 3.63508 10.2603 3.72519 10.3003C3.94288 10.3971 4.16126 10.4916 4.38088 10.5834C4.47821 10.6239 4.50307 10.6821 4.45989 10.7797C4.4006 10.9132 4.34654 11.0487 4.32409 11.1958C4.24867 11.6913 4.73227 12.1004 5.19533 11.9373C5.46761 11.8413 5.59055 11.6227 5.68695 11.3716C5.75701 11.1888 5.77156 11.1852 5.94718 11.2608C6.38647 11.4499 6.82538 11.6394 7.26435 11.829C7.45719 11.9123 7.65005 11.9956 7.84296 12.0789C7.92027 12.1123 7.99752 12.1459 8.07477 12.1795C8.27277 12.2657 8.47081 12.3518 8.67018 12.4345C8.77898 12.4798 8.81456 12.5389 8.7603 12.6512C8.71735 12.7402 8.67945 12.8324 8.649 12.9269C8.55333 13.2244 8.68388 13.5983 8.92675 13.7262C9.28355 13.9143 9.61433 13.8442 9.82852 13.539C9.91007 13.4226 9.96655 13.2945 10.0186 13.1634C10.0524 13.0783 10.1066 13.0564 10.19 13.0925C10.3158 13.1471 10.4418 13.2013 10.5677 13.2556C10.6699 13.2997 10.772 13.3438 10.8739 13.3882C10.9508 13.4216 10.9709 13.4733 10.9394 13.5514C10.9272 13.5816 10.9146 13.6116 10.9019 13.6416C10.874 13.7079 10.8461 13.7741 10.8227 13.8421C10.7169 14.149 10.8394 14.5257 11.0868 14.6585C11.4464 14.8514 11.7828 14.7791 12.0005 14.4661C12.0787 14.3536 12.1343 14.2307 12.1828 14.1039C12.2184 14.0109 12.2736 13.9896 12.3641 14.0299C12.5382 14.1076 12.7133 14.1826 12.8884 14.2577C12.9368 14.2784 12.9852 14.2992 13.0337 14.32C13.1174 14.356 13.1386 14.4099 13.1039 14.4947C13.0926 14.5222 13.0808 14.5496 13.069 14.5769C13.0355 14.6551 13.0019 14.7333 12.9772 14.8149C12.8641 15.1904 13.0438 15.5226 13.4291 15.6718C13.6684 15.7641 14.0949 15.6483 14.2124 15.2942C14.2371 15.22 14.2709 15.1489 14.3011 15.0767C14.3773 14.8957 14.3817 14.8908 14.5638 14.9386C15.3452 15.1443 16.3017 14.7577 16.6498 14.0118C16.7861 13.7204 16.9228 13.4277 16.9239 13.0891C16.9256 12.6139 16.778 12.1959 16.5034 11.814C16.1529 11.3267 15.801 10.8405 15.4491 10.3543C15.1117 9.88806 14.7742 9.42177 14.438 8.95452C14.3067 8.77226 14.2919 8.76857 14.0785 8.85611C13.5494 9.07334 13.0207 9.29116 12.4921 9.50992C12.3773 9.55766 12.2603 9.59706 12.1372 9.61395C11.8665 9.65092 11.6277 9.50917 11.5302 9.25617C11.4359 9.01106 11.5197 8.72738 11.7326 8.57151C11.8042 8.51926 11.8839 8.48387 11.9652 8.45055C12.105 8.39292 12.2448 8.33537 12.3847 8.27783C12.7022 8.14715 13.0198 8.01646 13.337 7.88474C13.5595 7.79232 13.5699 7.75325 13.4325 7.55866C13.3511 7.44345 13.2682 7.32902 13.1854 7.21492C13.0398 7.01492 13.0175 7.0083 12.7863 7.103C12.3622 7.27681 11.9383 7.4522 11.5143 7.62663C11.3087 7.71135 11.1103 7.70522 10.9305 7.56139C10.5873 7.28707 10.6544 6.75019 11.0601 6.56578C11.2732 6.46895 11.4901 6.38141 11.707 6.2939C11.8341 6.24258 11.9613 6.19126 12.0876 6.13808C12.293 6.05148 12.3084 5.99879 12.1775 5.81488C12.0853 5.68528 11.992 5.55641 11.8988 5.42756C11.7592 5.23454 11.6197 5.04157 11.4834 4.84625C11.3685 4.68182 11.2316 4.55556 11.0425 4.49299C10.8236 4.39859 10.6046 4.30404 10.3856 4.20946C10.145 4.10558 9.90426 4.00164 9.66347 3.8978C9.27897 3.73169 9.005 3.81833 8.78807 4.18307C8.72346 4.29209 8.63825 4.36628 8.52313 4.40863C7.9912 4.60425 7.20287 4.26124 6.97526 3.7342C6.9282 3.62484 6.91975 3.5148 6.94937 3.39714C7.05704 2.9672 6.93439 2.71999 6.53545 2.54761C6.06788 2.34569 5.59969 2.14383 5.13149 1.94166C4.76339 1.78254 4.55248 1.83226 4.33837 2.12762C3.61456 3.88643 2.89099 5.64523 2.16741 7.404C3.0869 7.80759 4.00639 8.21123 4.92594 8.61495L5.33774 8.79577C8.63221 10.2422 11.9267 11.6886 15.2211 13.1345C15.5029 13.258 15.5146 13.3005 15.2847 13.4925C14.9447 13.7765 14.5614 13.8526 14.139 13.6896C14.0856 13.6687 14.033 13.6457 13.9804 13.6226C13.9594 13.6133 13.9384 13.6041 13.9173 13.5949L10.6854 12.1762C7.72611 10.8771 4.7668 9.57801 1.80713 8.27973Z" fill="#FAFAFA"/>
<path d="M1.80713 8.27973C1.73715 8.44981 1.66716 8.61992 1.59719 8.79C1.5492 8.96677 1.58171 9.13063 1.67838 9.2832C1.77816 9.44113 1.93215 9.52626 2.09508 9.59731C2.23135 9.65666 2.29639 9.67958 2.31313 9.72268C2.32979 9.76559 2.29854 9.82852 2.24205 9.96734C2.16815 10.1493 2.11836 10.3374 2.17549 10.5334C2.26887 10.8531 2.4606 11 2.76393 11.0394C3.06406 11.0782 3.28469 10.9138 3.42763 10.6474C3.47026 10.5681 3.50247 10.4835 3.53455 10.3992L3.54419 10.3739C3.58001 10.28 3.63508 10.2603 3.72519 10.3003C3.94288 10.3971 4.16126 10.4916 4.38088 10.5834C4.47821 10.6239 4.50307 10.6821 4.45989 10.7797C4.4006 10.9132 4.34654 11.0487 4.32409 11.1958C4.24867 11.6913 4.73227 12.1004 5.19533 11.9373C5.46761 11.8413 5.59055 11.6227 5.68695 11.3716C5.75701 11.1888 5.77156 11.1852 5.94718 11.2608C6.38647 11.4499 6.82538 11.6394 7.26435 11.829C7.45719 11.9123 7.65005 11.9956 7.84296 12.0789C7.92027 12.1123 7.99752 12.1459 8.07477 12.1795C8.27277 12.2657 8.47081 12.3518 8.67018 12.4345C8.77898 12.4798 8.81456 12.5389 8.7603 12.6512C8.71735 12.7402 8.67945 12.8324 8.649 12.9269C8.55333 13.2244 8.68388 13.5983 8.92675 13.7262C9.28355 13.9143 9.61433 13.8442 9.82852 13.539C9.91007 13.4226 9.96655 13.2945 10.0186 13.1634C10.0524 13.0783 10.1066 13.0564 10.19 13.0925C10.3158 13.1471 10.4418 13.2013 10.5677 13.2556C10.6699 13.2997 10.772 13.3438 10.8739 13.3882C10.9508 13.4216 10.9709 13.4733 10.9394 13.5514C10.9272 13.5816 10.9146 13.6116 10.9019 13.6416C10.874 13.7079 10.8461 13.7741 10.8227 13.8421C10.7169 14.149 10.8394 14.5257 11.0868 14.6585C11.4464 14.8514 11.7828 14.7791 12.0005 14.4661C12.0787 14.3536 12.1343 14.2307 12.1828 14.1039C12.2184 14.0109 12.2736 13.9896 12.3641 14.0299C12.5382 14.1076 12.7133 14.1826 12.8884 14.2577C12.9368 14.2784 12.9852 14.2992 13.0337 14.32C13.1174 14.356 13.1386 14.4099 13.1039 14.4947C13.0926 14.5222 13.0808 14.5496 13.069 14.5769C13.0355 14.6551 13.0019 14.7333 12.9772 14.8149C12.8641 15.1904 13.0438 15.5226 13.4291 15.6718C13.6684 15.7641 14.0949 15.6483 14.2124 15.2942C14.2371 15.22 14.2709 15.1489 14.3011 15.0767C14.3773 14.8957 14.3817 14.8908 14.5638 14.9386C15.3452 15.1443 16.3017 14.7577 16.6498 14.0118C16.7861 13.7204 16.9228 13.4277 16.9239 13.0891C16.9256 12.6139 16.778 12.1959 16.5034 11.814C16.1529 11.3267 15.801 10.8405 15.4491 10.3543C15.1117 9.88806 14.7742 9.42177 14.438 8.95452C14.3067 8.77226 14.2919 8.76857 14.0785 8.85611C13.5494 9.07334 13.0207 9.29116 12.4921 9.50992C12.3773 9.55766 12.2603 9.59706 12.1372 9.61395C11.8665 9.65092 11.6277 9.50917 11.5302 9.25617C11.4359 9.01106 11.5197 8.72738 11.7326 8.57151C11.8042 8.51926 11.8839 8.48387 11.9652 8.45055C12.105 8.39292 12.2448 8.33537 12.3847 8.27783C12.7022 8.14715 13.0198 8.01646 13.337 7.88474C13.5595 7.79232 13.5699 7.75325 13.4325 7.55866C13.3511 7.44345 13.2682 7.32902 13.1854 7.21492C13.0398 7.01492 13.0175 7.0083 12.7863 7.103C12.3622 7.27681 11.9383 7.4522 11.5143 7.62663C11.3087 7.71135 11.1103 7.70522 10.9305 7.56139C10.5873 7.28707 10.6544 6.75019 11.0601 6.56578C11.2732 6.46895 11.4901 6.38141 11.707 6.2939C11.8341 6.24258 11.9613 6.19126 12.0876 6.13808C12.293 6.05148 12.3084 5.99879 12.1775 5.81488C12.0853 5.68528 11.992 5.55641 11.8988 5.42756C11.7592 5.23454 11.6197 5.04157 11.4834 4.84625C11.3685 4.68182 11.2316 4.55556 11.0425 4.49299C10.8236 4.39859 10.6046 4.30404 10.3856 4.20946C10.145 4.10558 9.90426 4.00164 9.66347 3.8978C9.27897 3.73169 9.005 3.81833 8.78807 4.18307C8.72346 4.29209 8.63825 4.36628 8.52313 4.40863C7.9912 4.60425 7.20287 4.26124 6.97526 3.7342C6.9282 3.62484 6.91975 3.5148 6.94937 3.39714C7.05704 2.9672 6.93439 2.71999 6.53545 2.54761C6.06788 2.34569 5.59969 2.14383 5.13149 1.94166C4.76339 1.78254 4.55248 1.83226 4.33837 2.12762C3.61456 3.88643 2.89099 5.64523 2.16741 7.404C3.0869 7.80759 4.00639 8.21123 4.92594 8.61495L5.33774 8.79577C8.63221 10.2422 11.9267 11.6886 15.2211 13.1345C15.5029 13.258 15.5146 13.3005 15.2847 13.4925C14.9447 13.7765 14.5614 13.8526 14.139 13.6896C14.0856 13.6687 14.033 13.6457 13.9804 13.6226C13.9594 13.6133 13.9384 13.6041 13.9173 13.5949L10.6854 12.1762C7.72611 10.8771 4.7668 9.57801 1.80713 8.27973Z" fill="url(#paint0_linear_1_478586)" fill-opacity="0.4" style="mix-blend-mode:multiply"/>
<path d="M1.59692 8.78964L1.80682 8.27936C4.76652 9.57763 7.72584 10.8768 10.6851 12.1759L13.917 13.5946C13.935 13.6023 13.9529 13.6102 13.9708 13.6181L13.9802 13.6222C14.0328 13.6453 14.0853 13.6684 14.1387 13.6892C14.4229 13.7989 14.6894 13.8003 14.9369 13.703L16.4401 14.3395C16.0013 14.8654 15.2205 15.1112 14.5635 14.9382C14.3814 14.8904 14.377 14.8954 14.3009 15.0764C14.2825 15.1202 14.2628 15.1636 14.2446 15.2076C14.2329 15.236 14.2218 15.2647 14.2121 15.2938C14.0946 15.6479 13.6682 15.7638 13.4288 15.6714C13.0435 15.5222 12.8638 15.19 12.9769 14.8145C13.0016 14.733 13.0352 14.6547 13.0688 14.5766C13.0805 14.5492 13.0923 14.5218 13.1036 14.4944C13.1383 14.4095 13.1171 14.3557 13.0334 14.3196L12.8881 14.2573L12.8862 14.2565C12.7117 14.1817 12.5373 14.1069 12.3638 14.0296C12.2733 13.9892 12.2181 14.0106 12.1825 14.1035C12.134 14.2304 12.0785 14.3532 12.0002 14.4658C11.7825 14.7788 11.4461 14.851 11.0865 14.6582C10.8391 14.5254 10.7166 14.1487 10.8224 13.8417C10.8458 13.7737 10.8737 13.7075 10.9016 13.6412L10.9034 13.6371C10.9154 13.6085 10.9275 13.5799 10.9391 13.5511C10.9706 13.4729 10.9505 13.4212 10.8737 13.3879C10.7717 13.3434 10.6696 13.2993 10.5674 13.2552C10.4415 13.2009 10.3155 13.1467 10.1897 13.0922C10.1063 13.0561 10.0521 13.078 10.0183 13.163C9.96624 13.2941 9.90978 13.4222 9.82825 13.5386C9.61406 13.8439 9.28324 13.9139 8.92645 13.7258C8.68359 13.5979 8.55305 13.224 8.6487 12.9266C8.67917 12.832 8.71705 12.7398 8.76003 12.6508C8.81427 12.5386 8.77869 12.4794 8.66988 12.4342C8.568 12.3919 8.46649 12.3488 8.36515 12.3052C8.26813 12.2634 8.17129 12.2213 8.07448 12.1792C7.99722 12.1455 7.91997 12.1119 7.84266 12.0785L7.26404 11.8287C6.96769 11.7007 6.67137 11.5727 6.37491 11.4448L5.94691 11.2604C5.77126 11.1848 5.75671 11.1884 5.68665 11.3712C5.59027 11.6223 5.4673 11.8409 5.19506 11.9369C4.73196 12.1 4.2484 11.6909 4.32382 11.1954C4.34627 11.0483 4.40032 10.9129 4.4596 10.7793C4.50279 10.6818 4.47792 10.6236 4.38061 10.583C4.16099 10.4913 3.94261 10.3968 3.72491 10.3C3.63479 10.2599 3.57973 10.2797 3.5439 10.3735L3.53426 10.3989C3.5022 10.4831 3.46997 10.5678 3.42733 10.6471C3.28441 10.9134 3.06376 11.0779 2.76365 11.039C2.46031 10.9996 2.26857 10.8527 2.17521 10.533C2.11806 10.3371 2.16787 10.149 2.24175 9.96696L2.26292 9.91548C2.30574 9.8118 2.3273 9.75953 2.31284 9.72232C2.29814 9.68458 2.24639 9.66227 2.14209 9.6174L2.0948 9.59696C1.93185 9.52591 1.77785 9.44076 1.67807 9.28283C1.58141 9.13025 1.5489 8.96639 1.59692 8.78964Z" fill="url(#paint1_linear_1_478586)"/>
<path d="M1.59692 8.78964L1.80682 8.27936C4.76652 9.57763 7.72584 10.8768 10.6851 12.1759L13.917 13.5946C13.935 13.6023 13.9529 13.6102 13.9708 13.6181L13.9802 13.6222C14.0328 13.6453 14.0853 13.6684 14.1387 13.6892C14.4229 13.7989 14.6894 13.8003 14.9369 13.703L16.4401 14.3395C16.0013 14.8654 15.2205 15.1112 14.5635 14.9382C14.3814 14.8904 14.377 14.8954 14.3009 15.0764C14.2825 15.1202 14.2628 15.1636 14.2446 15.2076C14.2329 15.236 14.2218 15.2647 14.2121 15.2938C14.0946 15.6479 13.6682 15.7638 13.4288 15.6714C13.0435 15.5222 12.8638 15.19 12.9769 14.8145C13.0016 14.733 13.0352 14.6547 13.0688 14.5766C13.0805 14.5492 13.0923 14.5218 13.1036 14.4944C13.1383 14.4095 13.1171 14.3557 13.0334 14.3196L12.8881 14.2573L12.8862 14.2565C12.7117 14.1817 12.5373 14.1069 12.3638 14.0296C12.2733 13.9892 12.2181 14.0106 12.1825 14.1035C12.134 14.2304 12.0785 14.3532 12.0002 14.4658C11.7825 14.7788 11.4461 14.851 11.0865 14.6582C10.8391 14.5254 10.7166 14.1487 10.8224 13.8417C10.8458 13.7737 10.8737 13.7075 10.9016 13.6412L10.9034 13.6371C10.9154 13.6085 10.9275 13.5799 10.9391 13.5511C10.9706 13.4729 10.9505 13.4212 10.8737 13.3879C10.7717 13.3434 10.6696 13.2993 10.5674 13.2552C10.4415 13.2009 10.3155 13.1467 10.1897 13.0922C10.1063 13.0561 10.0521 13.078 10.0183 13.163C9.96624 13.2941 9.90978 13.4222 9.82825 13.5386C9.61406 13.8439 9.28324 13.9139 8.92645 13.7258C8.68359 13.5979 8.55305 13.224 8.6487 12.9266C8.67917 12.832 8.71705 12.7398 8.76003 12.6508C8.81427 12.5386 8.77869 12.4794 8.66988 12.4342C8.568 12.3919 8.46649 12.3488 8.36515 12.3052C8.26813 12.2634 8.17129 12.2213 8.07448 12.1792C7.99722 12.1455 7.91997 12.1119 7.84266 12.0785L7.26404 11.8287C6.96769 11.7007 6.67137 11.5727 6.37491 11.4448L5.94691 11.2604C5.77126 11.1848 5.75671 11.1884 5.68665 11.3712C5.59027 11.6223 5.4673 11.8409 5.19506 11.9369C4.73196 12.1 4.2484 11.6909 4.32382 11.1954C4.34627 11.0483 4.40032 10.9129 4.4596 10.7793C4.50279 10.6818 4.47792 10.6236 4.38061 10.583C4.16099 10.4913 3.94261 10.3968 3.72491 10.3C3.63479 10.2599 3.57973 10.2797 3.5439 10.3735L3.53426 10.3989C3.5022 10.4831 3.46997 10.5678 3.42733 10.6471C3.28441 10.9134 3.06376 11.0779 2.76365 11.039C2.46031 10.9996 2.26857 10.8527 2.17521 10.533C2.11806 10.3371 2.16787 10.149 2.24175 9.96696L2.26292 9.91548C2.30574 9.8118 2.3273 9.75953 2.31284 9.72232C2.29814 9.68458 2.24639 9.66227 2.14209 9.6174L2.0948 9.59696C1.93185 9.52591 1.77785 9.44076 1.67807 9.28283C1.58141 9.13025 1.5489 8.96639 1.59692 8.78964Z" fill="black" fill-opacity="0.2"/>
<defs>
<linearGradient id="paint0_linear_1_478586" x1="15.7118" y1="14.717" x2="3.25056" y2="4.05987" gradientUnits="userSpaceOnUse">
<stop stop-color="#333333"/>
<stop offset="1" stop-color="white"/>
</linearGradient>
<linearGradient id="paint1_linear_1_478586" x1="5.78526" y1="11.6558" x2="16.3334" y2="13.9707" gradientUnits="userSpaceOnUse">
<stop stop-color="#9E9E9E"/>
<stop offset="1" stop-color="#F4F4F4" stop-opacity="0.62"/>
</linearGradient>
</defs>
</svg>
