<svg width="24" height="24" viewBox="0 0 24 24" fill="none" xmlns="http://www.w3.org/2000/svg">
<circle cx="12" cy="12" r="11.5" stroke="white"/>
<path d="M13.58 11.704C14.052 11.792 14.44 12.028 14.744 12.412C15.048 12.796 15.2 13.236 15.2 13.732C15.2 14.18 15.088 14.576 14.864 14.92C14.648 15.256 14.332 15.52 13.916 15.712C13.5 15.904 13.008 16 12.44 16H8.828V7.624H12.284C12.852 7.624 13.34 7.716 13.748 7.9C14.164 8.084 14.476 8.34 14.684 8.668C14.9 8.996 15.008 9.368 15.008 9.784C15.008 10.272 14.876 10.68 14.612 11.008C14.356 11.336 14.012 11.568 13.58 11.704ZM10.508 11.08H12.044C12.444 11.08 12.752 10.992 12.968 10.816C13.184 10.632 13.292 10.372 13.292 10.036C13.292 9.7 13.184 9.44 12.968 9.256C12.752 9.072 12.444 8.98 12.044 8.98H10.508V11.08ZM12.2 14.632C12.608 14.632 12.924 14.536 13.148 14.344C13.38 14.152 13.496 13.88 13.496 13.528C13.496 13.168 13.376 12.888 13.136 12.688C12.896 12.48 12.572 12.376 12.164 12.376H10.508V14.632H12.2Z" fill="white"/>
</svg>
