<svg width="16" height="16" viewBox="0 0 16 16" fill="none" xmlns="http://www.w3.org/2000/svg">
<path fill-rule="evenodd" clip-rule="evenodd" d="M2.99707 0C1.34022 0 -0.00292969 1.34315 -0.00292969 3V9C-0.00292969 10.6569 1.34022 12 2.99707 12H3.71223C3.77635 12.6998 3.63219 13.0384 3.41356 13.5519C3.30295 13.8117 3.17328 14.1162 3.04188 14.535C2.59499 15.9591 5.83433 13.7425 7.54243 12H12.9971C14.6539 12 15.9971 10.6569 15.9971 9V3C15.9971 1.34315 14.6539 0 12.9971 0H2.99707Z" fill="#69ADDE"/>
<rect x="3" y="5" width="2" height="2" rx="1" fill="white"/>
<rect x="7" y="5" width="2" height="2" rx="1" fill="white"/>
<rect x="11" y="5" width="2" height="2" rx="1" fill="white"/>
</svg>
