<svg width="24" height="25" viewBox="0 0 24 25" fill="none" xmlns="http://www.w3.org/2000/svg">
<mask id="path-1-outside-1_1_478497" maskUnits="userSpaceOnUse" x="0.181641" y="1.4668" width="24" height="22" fill="black">
<rect fill="white" x="0.181641" y="1.4668" width="24" height="22"/>
<path fill-rule="evenodd" clip-rule="evenodd" d="M6.18164 3.4668H17.8182C20.0273 3.4668 21.8182 5.25766 21.8182 7.4668V14.1942C21.8182 16.4033 20.0273 18.1942 17.8182 18.1942H17.1009C14.5868 20.5661 11.526 22.6211 12.0617 20.7197C12.2552 20.0328 12.4462 19.5332 12.6091 19.107C12.7355 18.7763 12.845 18.4897 12.9257 18.1942H6.18164C3.9725 18.1942 2.18164 16.4033 2.18164 14.1942V7.46679C2.18164 5.25765 3.9725 3.4668 6.18164 3.4668Z"/>
</mask>
<path d="M17.1009 18.1942V16.1942C16.5906 16.1942 16.0996 16.3893 15.7284 16.7394L17.1009 18.1942ZM12.0617 20.7197L13.9867 21.262L12.0617 20.7197ZM12.6091 19.107L14.4772 19.8211L14.4772 19.8211L12.6091 19.107ZM12.9257 18.1942L14.8551 18.7209C15.0193 18.1195 14.8937 17.4759 14.5153 16.9804C14.1369 16.4849 13.5492 16.1942 12.9257 16.1942V18.1942ZM17.8182 1.4668H6.18164V5.4668H17.8182V1.4668ZM23.8182 7.4668C23.8182 4.15309 21.1319 1.4668 17.8182 1.4668V5.4668C18.9228 5.4668 19.8182 6.36223 19.8182 7.4668H23.8182ZM23.8182 14.1942V7.4668H19.8182V14.1942H23.8182ZM17.8182 20.1942C21.1319 20.1942 23.8182 17.5079 23.8182 14.1942H19.8182C19.8182 15.2988 18.9228 16.1942 17.8182 16.1942V20.1942ZM17.1009 20.1942H17.8182V16.1942H17.1009V20.1942ZM15.7284 16.7394C14.5221 17.8775 13.2632 18.8604 12.4532 19.3185C12.2582 19.4287 12.1417 19.4782 12.0956 19.4944C12.0007 19.5277 12.2075 19.429 12.5665 19.4829C12.78 19.515 13.0853 19.608 13.3784 19.8477C13.6803 20.0945 13.8509 20.4004 13.9326 20.6653C14.0676 21.1033 13.9519 21.3858 13.9867 21.262L10.1366 20.1773C10.0376 20.5289 9.90032 21.1631 10.11 21.8434C10.229 22.2294 10.461 22.6291 10.8463 22.9442C11.2228 23.2521 11.6336 23.3877 11.9726 23.4386C12.5825 23.5302 13.1201 23.374 13.42 23.2688C13.7687 23.1464 14.1108 22.9764 14.4221 22.8003C15.637 22.1133 17.1656 20.8827 18.4734 19.649L15.7284 16.7394ZM13.9867 21.262C14.1542 20.6677 14.3174 20.2393 14.4772 19.8211L10.7409 18.3929C10.575 18.827 10.3562 19.3978 10.1366 20.1773L13.9867 21.262ZM14.4772 19.8211C14.5964 19.5094 14.7438 19.1287 14.8551 18.7209L10.9963 17.6675C10.9463 17.8507 10.8746 18.0431 10.7409 18.3929L14.4772 19.8211ZM6.18164 20.1942H12.9257V16.1942H6.18164V20.1942ZM0.181641 14.1942C0.181641 17.5079 2.86793 20.1942 6.18164 20.1942V16.1942C5.07707 16.1942 4.18164 15.2988 4.18164 14.1942H0.181641ZM0.181641 7.46679V14.1942H4.18164V7.46679H0.181641ZM6.18164 1.4668C2.86793 1.4668 0.181641 4.15308 0.181641 7.46679H4.18164C4.18164 6.36223 5.07707 5.4668 6.18164 5.4668V1.4668Z" fill="white" mask="url(#path-1-outside-1_1_478497)"/>
<rect x="7" y="9.6875" width="2" height="2" rx="1" fill="white"/>
<rect x="11" y="9.6875" width="2" height="2" rx="1" fill="white"/>
<rect x="15" y="9.6875" width="2" height="2" rx="1" fill="white"/>
</svg>
