<svg width="32" height="32" viewBox="0 0 32 32" fill="none" xmlns="http://www.w3.org/2000/svg">
<circle opacity="0.2" cx="16" cy="16" r="16" fill="white"/>
<path fill-rule="evenodd" clip-rule="evenodd" d="M16 11C15.6548 11 15.375 11.2798 15.375 11.625V15.375H11.625C11.2798 15.375 11 15.6548 11 16C11 16.3452 11.2798 16.625 11.625 16.625H15.375V20.375C15.375 20.7202 15.6548 21 16 21C16.3452 21 16.625 20.7202 16.625 20.375V16.625H20.375C20.7202 16.625 21 16.3452 21 16C21 15.6548 20.7202 15.375 20.375 15.375H16.625V11.625C16.625 11.2798 16.3452 11 16 11Z" fill="white"/>
</svg>
