<svg width="32" height="33" viewBox="0 0 32 33" fill="none" xmlns="http://www.w3.org/2000/svg">
<path fill-rule="evenodd" clip-rule="evenodd" d="M24.4913 4.52939L27 2.02148V8.01951H21L23.0489 5.9713C19.4527 0.361721 10.883 0.728371 7.90186 6.95154L6.09814 6.0875C9.70086 -1.43336 19.9405 -1.9993 24.4913 4.52939ZM17 6.01968H15V8.01968H17V6.01968ZM13 20.0151L1 29.5382V10.4919L13 20.0151ZM19 20.0153L20.6087 21.292L29 27.9513L31 29.5385V26.9852V13.0455V10.4922L29 12.0794L20.6087 18.7387L19 20.0153ZM22.2173 20.0153L29 25.398V14.6327L22.2173 20.0153ZM15 10.0187H17V12.0187H15V10.0187ZM17 14.0168H15V16.0168H17V14.0168ZM15 18.0157H17V20.0157H15V18.0157ZM17 22.0148H15V24.0148H17V22.0148ZM15 26.0131H17V28.0131H15V26.0131ZM17 30.0118H15V32.0118H17V30.0118Z" fill="white"/>
</svg>
