<svg width="16" height="16" viewBox="0 0 16 16" fill="none" xmlns="http://www.w3.org/2000/svg">
<circle cx="7.9977" cy="7.99996" r="7.99996" fill="#FC5B5B"/>
<path fill-rule="evenodd" clip-rule="evenodd" d="M7.41058 2.2394C7.76106 2.49405 8.23566 2.49405 8.58615 2.2394L10.9144 0.547852C11.8471 0.913128 12.6946 1.44848 13.4186 2.11577C13.4152 2.1359 13.4125 2.15623 13.4103 2.17674L13.0707 5.40811C13.0254 5.83896 13.2627 6.24997 13.6585 6.42618L15.9804 7.45999C15.9923 7.63837 15.9984 7.81835 15.9984 7.99975C15.9984 9.30478 15.6859 10.5368 15.1316 11.6251C15.0976 11.624 15.0633 11.6246 15.0288 11.6271L11.7876 11.8537C11.3554 11.8839 10.9918 12.189 10.887 12.6093L10.1121 15.7175C9.43877 15.9015 8.73006 15.9997 7.9984 15.9997C7.24093 15.9997 6.50805 15.8944 5.81358 15.6977L5.04896 12.631C4.94416 12.2106 4.5806 11.9056 4.14842 11.8754L0.907168 11.6487C0.896875 11.648 0.886599 11.6474 0.876343 11.647C0.350771 10.6228 0.0396497 9.47039 0.0022583 8.2491L2.48908 6.57171C2.84825 6.32945 3.01057 5.88348 2.89115 5.46704L2.0754 2.62217C2.89752 1.71721 3.92419 1.00143 5.08238 0.547873L7.41058 2.2394Z" fill="url(#paint0_linear_1_478536)"/>
<path d="M15.6649 10.333C14.9982 12.6663 12.4165 15.9996 7.99823 15.9996C3.57997 15.9996 0.998267 12.6663 0.331604 10.333C1.3316 12.4202 3.57999 14.333 7.99824 14.333C12.4165 14.333 14.4548 12.7171 15.6649 10.333Z" fill="black" fill-opacity="0.25"/>
<path d="M7.40941 4.42705C7.7599 4.17241 8.2345 4.17241 8.58498 4.42705L11.2136 6.33687C11.5641 6.59151 11.7108 7.04288 11.5769 7.4549L10.5728 10.545C10.439 10.9571 10.055 11.236 9.62178 11.236H6.37261C5.93939 11.236 5.55543 10.9571 5.42156 10.545L4.41751 7.4549C4.28363 7.04288 4.43029 6.59151 4.78078 6.33687L7.40941 4.42705Z" fill="#FC5B5B"/>
<defs>
<linearGradient id="paint0_linear_1_478536" x1="1.99846" y1="0.666421" x2="13.665" y2="14.9997" gradientUnits="userSpaceOnUse">
<stop stop-color="white"/>
<stop offset="1" stop-color="#E8E8E8"/>
</linearGradient>
</defs>
</svg>
