<svg width="26" height="24" viewBox="0 0 26 24" fill="none" xmlns="http://www.w3.org/2000/svg">
<path d="M19.7197 1.41309C20.6157 1.41309 21.3494 2.10974 21.3496 2.97852V4.28809H23.3818C24.3265 4.28809 25.0996 5.02304 25.0996 5.93848V9.41895C25.0996 11.4629 23.3722 13.1123 21.25 13.1123H21.0127C20.0729 16.1863 17.2643 18.4893 13.8496 18.8203V21.0449H18.1416L18.29 21.0566C18.9566 21.1636 19.2372 21.9818 18.7441 22.4434L18.626 22.5371C18.5192 22.6084 18.3975 22.6551 18.2705 22.6738L18.1416 22.6826H7.85742C7.72772 22.6826 7.60019 22.6541 7.48438 22.5996L7.37305 22.5371C6.68029 22.0742 7.03483 21.0449 7.85742 21.0449H12.1504V18.8203C8.73569 18.4893 5.92708 16.1863 4.9873 13.1123H4.75C2.62776 13.1123 0.900391 11.4629 0.900391 9.41895V5.93848C0.900391 5.02304 1.67352 4.28809 2.61816 4.28809H4.65039V2.97852C4.65062 2.10974 5.38425 1.41309 6.28027 1.41309H19.7197ZM6.34961 10.8564C6.34961 14.3698 9.32326 17.2256 13 17.2256C16.6751 17.2256 19.6477 14.3725 19.6504 10.8613V3.0498H6.34961V10.8564ZM2.60352 5.93066C2.60074 5.93341 2.59961 5.93638 2.59961 5.93848V9.41895C2.59961 10.0264 2.87569 10.573 3.31543 10.9502L3.46289 11.0664C3.79664 11.3053 4.2058 11.4513 4.65039 11.4707V5.9248H2.61816C2.61186 5.9248 2.60653 5.92778 2.60352 5.93066ZM21.3496 11.4707C21.8622 11.4483 22.3274 11.2565 22.6846 10.9502L22.8418 10.8008C23.189 10.4352 23.4004 9.95038 23.4004 9.41895V5.93848C23.4004 5.93638 23.3993 5.93341 23.3965 5.93066C23.3935 5.92778 23.3881 5.9248 23.3818 5.9248H21.3496V11.4707Z" fill="white" stroke="white" stroke-width="0.2"/>
<path d="M12.4386 5.84766C12.7218 5.43588 13.3831 5.46517 13.6124 5.93555L14.3302 7.40918L14.3927 7.50391C14.4661 7.59045 14.5715 7.65033 14.6906 7.66797L16.3419 7.91211L16.4396 7.93359C16.8784 8.0624 17.0647 8.58414 16.7892 8.94727L16.7238 9.02246L15.4933 10.2363C15.3879 10.3404 15.3404 10.4862 15.3644 10.6279L15.6495 12.3125L15.6593 12.4141C15.6673 12.8754 15.1835 13.1936 14.7472 13.0361L14.6544 12.9951L13.2325 12.2373C13.1061 12.1699 12.9558 12.1615 12.8234 12.2119L12.7677 12.2373L11.3458 12.9951C10.8579 13.2552 10.2568 12.8615 10.3497 12.3125L10.6349 10.6279L10.6398 10.5215C10.6344 10.4509 10.6123 10.3824 10.5743 10.3213L10.507 10.2363L9.27649 9.02246C8.88572 8.63668 9.11658 7.99245 9.65735 7.91211L11.3097 7.66797L11.423 7.63672C11.5309 7.5929 11.6189 7.5121 11.6691 7.40918L12.3868 5.93555L12.4386 5.84766Z" fill="white" stroke="white" stroke-width="0.2"/>
</svg>
