<svg width="16" height="16" viewBox="0 0 16 16" fill="none" xmlns="http://www.w3.org/2000/svg">
<rect x="15.998" y="16" width="16" height="16" rx="8" transform="rotate(-180 15.998 16)" fill="white"/>
<g clip-path="url(#clip0_1_478549)">
<path d="M9.33829 5.50013L8.87108 5.96734C8.70837 6.13006 8.70837 6.39388 8.87108 6.5566C9.03379 6.71932 9.29762 6.71932 9.46033 6.5566L10.6389 5.37809C10.717 5.29995 10.7609 5.19397 10.7609 5.08346C10.7609 4.97295 10.717 4.86697 10.6389 4.78883L9.46033 3.61032C9.43999 3.58998 9.41808 3.57218 9.39499 3.55693C9.23324 3.45014 9.01345 3.46794 8.87108 3.61032C8.70837 3.77304 8.70837 4.03686 8.87108 4.19958L9.33829 4.66679H7.16879C5.32783 4.66679 3.83545 6.15918 3.83545 8.00011C3.83545 8.58261 3.98485 9.13015 4.24741 9.60661C4.37209 9.83286 4.67619 9.8529 4.85885 9.67024C5.0044 9.52469 5.0214 9.29744 4.92963 9.11319C4.76268 8.77799 4.66878 8.40003 4.66878 8.00011C4.66878 6.61942 5.78807 5.50013 7.16879 5.50013H9.33829Z" fill="#404040"/>
<path d="M7.13315 11.8007L6.66593 11.3334H8.83545C10.6764 11.3334 12.1688 9.84107 12.1688 8.00011C12.1688 7.41765 12.0194 6.87008 11.7568 6.39362C11.7412 6.36535 11.7228 6.34029 11.7022 6.31844C11.558 6.16553 11.3052 6.17017 11.1454 6.33C10.9998 6.47555 10.9828 6.70279 11.0746 6.88705C11.0955 6.92895 11.1152 6.97151 11.1337 7.01471C11.2636 7.31707 11.3355 7.65019 11.3355 8.00011C11.3355 9.38082 10.2162 10.5001 8.83545 10.5001H6.66593L7.13315 10.0329C7.29587 9.87019 7.29587 9.60636 7.13315 9.44365C6.97042 9.28094 6.70661 9.28094 6.54389 9.44365L5.36538 10.6221C5.28724 10.7003 5.24334 10.8063 5.24334 10.9168C5.24334 11.0273 5.28724 11.1333 5.36538 11.2114L6.54389 12.3899C6.70661 12.5526 6.97042 12.5526 7.13315 12.3899C7.29587 12.2272 7.29587 11.9634 7.13315 11.8007Z" fill="#404040"/>
<path d="M9.33829 5.50013L8.87108 5.96734C8.70837 6.13006 8.70837 6.39388 8.87108 6.5566C9.03379 6.71932 9.29762 6.71932 9.46033 6.5566L10.6389 5.37809C10.717 5.29995 10.7609 5.19397 10.7609 5.08346C10.7609 4.97295 10.717 4.86697 10.6389 4.78883L9.46033 3.61032C9.43999 3.58998 9.41808 3.57218 9.39499 3.55693C9.23324 3.45014 9.01345 3.46794 8.87108 3.61032C8.70837 3.77304 8.70837 4.03686 8.87108 4.19958L9.33829 4.66679H7.16879C5.32783 4.66679 3.83545 6.15918 3.83545 8.00011C3.83545 8.58261 3.98485 9.13015 4.24741 9.60661C4.37209 9.83286 4.67619 9.8529 4.85885 9.67024C5.0044 9.52469 5.0214 9.29744 4.92963 9.11319C4.76268 8.77799 4.66878 8.40003 4.66878 8.00011C4.66878 6.61942 5.78807 5.50013 7.16879 5.50013H9.33829Z" stroke="#404040" stroke-width="0.3"/>
<path d="M7.13315 11.8007L6.66593 11.3334H8.83545C10.6764 11.3334 12.1688 9.84107 12.1688 8.00011C12.1688 7.41765 12.0194 6.87008 11.7568 6.39362C11.7412 6.36535 11.7228 6.34029 11.7022 6.31844C11.558 6.16553 11.3052 6.17017 11.1454 6.33C10.9998 6.47555 10.9828 6.70279 11.0746 6.88705C11.0955 6.92895 11.1152 6.97151 11.1337 7.01471C11.2636 7.31707 11.3355 7.65019 11.3355 8.00011C11.3355 9.38082 10.2162 10.5001 8.83545 10.5001H6.66593L7.13315 10.0329C7.29587 9.87019 7.29587 9.60636 7.13315 9.44365C6.97042 9.28094 6.70661 9.28094 6.54389 9.44365L5.36538 10.6221C5.28724 10.7003 5.24334 10.8063 5.24334 10.9168C5.24334 11.0273 5.28724 11.1333 5.36538 11.2114L6.54389 12.3899C6.70661 12.5526 6.97042 12.5526 7.13315 12.3899C7.29587 12.2272 7.29587 11.9634 7.13315 11.8007Z" stroke="#404040" stroke-width="0.3"/>
</g>
<defs>
<clipPath id="clip0_1_478549">
<rect width="10" height="10" fill="white" transform="translate(2.99805 3)"/>
</clipPath>
</defs>
</svg>
