<svg width="18" height="19" viewBox="0 0 18 19" fill="none" xmlns="http://www.w3.org/2000/svg">
<path d="M2 4.18359H16C16.5523 4.18359 17 4.63131 17 5.18359V14.6836C17 15.2359 16.5523 15.6836 16 15.6836H2C1.44772 15.6836 1 15.2359 1 14.6836V5.18359C1 4.63131 1.44772 4.18359 2 4.18359Z" stroke="white" stroke-width="2" stroke-linecap="round" stroke-linejoin="round"/>
<path d="M9 4.30859V7.30859" stroke="white" stroke-width="2" stroke-linecap="square" stroke-linejoin="round"/>
<path d="M9 13.0928L9 15.3428" stroke="white" stroke-width="2" stroke-linecap="square" stroke-linejoin="round"/>
<path d="M9 7.55859C10.3112 7.55859 11.375 8.62236 11.375 9.93359C11.375 11.2448 10.3112 12.3086 9 12.3086C7.68877 12.3086 6.625 11.2448 6.625 9.93359C6.625 8.62236 7.68877 7.55859 9 7.55859Z" stroke="white" stroke-width="2" stroke-linecap="round" stroke-linejoin="round"/>
</svg>
