<svg width="24" height="24" viewBox="0 0 24 24" fill="none" xmlns="http://www.w3.org/2000/svg">
<circle cx="12" cy="12.4668" r="10" stroke="white" stroke-width="2"/>
<path d="M11.1033 7.28378C11.4701 6.54054 12.5299 6.54054 12.8967 7.28378L13.8246 9.16379C13.9702 9.45894 14.2518 9.66351 14.5775 9.71084L16.6522 10.0123C17.4725 10.1315 17.8 11.1395 17.2064 11.718L15.7052 13.1814C15.4695 13.4111 15.3619 13.7421 15.4176 14.0665L15.772 16.1329C15.9121 16.9498 15.0547 17.5727 14.321 17.187L12.4653 16.2114C12.174 16.0583 11.826 16.0583 11.5347 16.2114L9.67898 17.187C8.94535 17.5727 8.08792 16.9498 8.22803 16.1329L8.58243 14.0665C8.63807 13.7421 8.53052 13.4111 8.29483 13.1814L6.79355 11.718C6.20004 11.1395 6.52755 10.1315 7.34777 10.0123L9.42248 9.71084C9.74819 9.66351 10.0298 9.45894 10.1754 9.1638L11.1033 7.28378Z" fill="white"/>
</svg>
