<svg width="16" height="16" viewBox="0 0 16 16" fill="none" xmlns="http://www.w3.org/2000/svg">
<rect x="15.998" width="12.7994" height="16" rx="2" transform="rotate(90 15.998 0)" fill="#808080"/>
<rect x="12.7988" y="14.4004" width="1.6" height="9.6" rx="0.8" transform="rotate(90 12.7988 14.4004)" fill="#808080"/>
<path d="M5.87153 4.27L4.41353 8.5H2.90753L1.44353 4.27H2.70353L3.66353 7.324L4.61753 4.27H5.87153ZM8.91395 7.81H7.41395L7.18595 8.5H5.94995L7.49195 4.27H8.84795L10.384 8.5H9.14195L8.91395 7.81ZM8.61995 6.91L8.16395 5.542L7.71395 6.91H8.61995ZM12.9092 8.5L12.0692 6.94H11.9432V8.5H10.7672V4.27H12.6212C12.9612 4.27 13.2492 4.33 13.4852 4.45C13.7212 4.566 13.8992 4.728 14.0192 4.936C14.1392 5.14 14.1992 5.37 14.1992 5.626C14.1992 5.914 14.1192 6.168 13.9592 6.388C13.8032 6.604 13.5732 6.758 13.2692 6.85L14.2232 8.5H12.9092ZM11.9432 6.136H12.5252C12.6852 6.136 12.8052 6.098 12.8852 6.022C12.9652 5.946 13.0052 5.836 13.0052 5.692C13.0052 5.556 12.9632 5.45 12.8792 5.374C12.7992 5.294 12.6812 5.254 12.5252 5.254H11.9432V6.136Z" fill="white"/>
</svg>
