<svg width="24" height="24" viewBox="0 0 24 24" fill="none" xmlns="http://www.w3.org/2000/svg">
<path fill-rule="evenodd" clip-rule="evenodd" d="M4.18182 8C2.97683 8 2 8.97683 2 10.1818L2.00002 10.1918V11.2727H2V12.3636V17.8182C2 19.0231 2.95139 20 4.125 20H16.875C18.0486 20 19 19.0231 19 17.8182V13.4545C19 12.2495 18.0486 11.2727 16.875 11.2727H4.17475C3.57785 11.2689 3.0947 10.7858 3.09093 10.1888V10.1818H3.09091C3.09091 9.57933 3.57933 9.09091 4.18182 9.09091H6.36364V8H4.18182ZM4.17182 12.3636C4.17515 12.3636 4.17848 12.3636 4.18182 12.3636H6.36364V12.3636H16.875C17.4192 12.3636 17.9091 12.8247 17.9091 13.4545V17.8182C17.9091 18.448 17.4192 18.9091 16.875 18.9091H4.125C3.58084 18.9091 3.09091 18.448 3.09091 17.8182V12.4727H3.09002V12.3636H3.09093V12.0857C3.37535 12.2486 3.70001 12.3465 4.04576 12.3595C4.08112 12.3616 4.11672 12.363 4.15252 12.3634V12.3636H4.17182Z" fill="white"/>
<path fill-rule="evenodd" clip-rule="evenodd" d="M8 2.5H20C20.2761 2.5 20.5 2.72386 20.5 3V21C20.5 21.2761 20.2761 21.5 20 21.5H8C7.72386 21.5 7.5 21.2761 7.5 21V19H6V21C6 22.1046 6.89543 23 8 23H20C21.1046 23 22 22.1046 22 21V3C22 1.89543 21.1046 1 20 1H8C6.89543 1 6 1.89543 6 3V12H7.5V3C7.5 2.72386 7.72386 2.5 8 2.5Z" fill="white"/>
<circle cx="14" cy="7.4" r="2.7" stroke="white" stroke-width="1.4"/>
<mask id="mask0_1_478978" style="mask-type:alpha" maskUnits="userSpaceOnUse" x="6" y="12" width="16" height="9">
<mask id="path-4-inside-1_1_478978" fill="white">
<path d="M6 20C6 15.5817 9.58172 12 14 12C18.4183 12 22 15.5817 22 20V21H6V20Z"/>
</mask>
<path d="M4.5 20C4.5 14.7533 8.75329 10.5 14 10.5C19.2467 10.5 23.5 14.7533 23.5 20H20.5C20.5 16.4101 17.5899 13.5 14 13.5C10.4101 13.5 7.5 16.4101 7.5 20H4.5ZM22 21H6H22ZM4.5 21V20C4.5 14.7533 8.75329 10.5 14 10.5V13.5C10.4101 13.5 7.5 16.4101 7.5 20V21H4.5ZM14 10.5C19.2467 10.5 23.5 14.7533 23.5 20V21H20.5V20C20.5 16.4101 17.5899 13.5 14 13.5V10.5Z" fill="white" mask="url(#path-4-inside-1_1_478978)"/>
</mask>
<g mask="url(#mask0_1_478978)">
<path d="M19 11H22V22H19V11Z" fill="white"/>
</g>
<path d="M6.17573 17.9999C6.12418 17.9999 6.08201 17.9846 6.0492 17.9539C6.0164 17.9232 6 17.8838 6 17.8356V13.5642C6 13.516 6.0164 13.4766 6.0492 13.4459C6.08201 13.4152 6.12418 13.3999 6.17573 13.3999H8.00333C8.46257 13.3999 8.85387 13.47 9.17721 13.6102C9.50056 13.746 9.74892 13.9475 9.92231 14.2148C10.0957 14.4776 10.1894 14.804 10.2035 15.1939C10.2082 15.3867 10.2105 15.5553 10.2105 15.6999C10.2105 15.8445 10.2082 16.011 10.2035 16.1993C10.1847 16.6068 10.091 16.9441 9.92231 17.2113C9.7583 17.4786 9.51696 17.6779 9.1983 17.8093C8.88433 17.9364 8.49772 17.9999 8.03848 17.9999H6.17573ZM7.25823 17.0536H8.00333C8.20484 17.0536 8.37119 17.0251 8.50241 16.9682C8.6383 16.9069 8.73906 16.8127 8.80466 16.6856C8.87496 16.5586 8.91244 16.3921 8.91713 16.1862C8.9265 16.0591 8.93119 15.9452 8.93119 15.8445C8.93588 15.7437 8.93588 15.643 8.93119 15.5422C8.93119 15.4414 8.9265 15.3297 8.91713 15.207C8.90776 14.9091 8.82341 14.6923 8.66408 14.5565C8.50944 14.4163 8.27747 14.3462 7.96818 14.3462H7.25823V17.0536Z" fill="white"/>
<path d="M11.2074 17.9999C11.1558 17.9999 11.1137 17.9846 11.0809 17.9539C11.0481 17.9232 11.0317 17.8838 11.0317 17.8356V13.5642C11.0317 13.516 11.0481 13.4766 11.0809 13.4459C11.1137 13.4152 11.1558 13.3999 11.2074 13.3999H13.3513C13.7543 13.3999 14.0847 13.4525 14.3424 13.5576C14.6002 13.6628 14.79 13.8139 14.9118 14.011C15.0383 14.2038 15.1016 14.4338 15.1016 14.701C15.1016 14.8588 15.0688 14.999 15.0032 15.1216C14.9423 15.2399 14.8649 15.3385 14.7712 15.4173C14.6822 15.4962 14.5978 15.5531 14.5182 15.5882C14.6962 15.667 14.8532 15.7963 14.9891 15.9759C15.1297 16.1555 15.2 16.3658 15.2 16.6068C15.2 16.8959 15.1297 17.1456 14.9891 17.3559C14.8532 17.5618 14.6517 17.7217 14.3846 17.8356C14.1222 17.9451 13.7988 17.9999 13.4146 17.9999H11.2074ZM12.2899 17.1456H13.274C13.4755 17.1456 13.6278 17.0909 13.7309 16.9813C13.834 16.8718 13.8855 16.7469 13.8855 16.6068C13.8855 16.4534 13.8316 16.3242 13.7239 16.219C13.6208 16.1139 13.4708 16.0613 13.274 16.0613H12.2899V17.1456ZM12.2899 15.2268H13.2107C13.4029 15.2268 13.5458 15.1808 13.6395 15.0888C13.7379 14.9968 13.7871 14.8785 13.7871 14.7339C13.7871 14.5937 13.7379 14.4798 13.6395 14.3922C13.5458 14.3002 13.4029 14.2542 13.2107 14.2542H12.2899V15.2268Z" fill="white"/>
</svg>
