<svg width="24" height="24" viewBox="0 0 24 24" fill="none" xmlns="http://www.w3.org/2000/svg">
<path d="M21 14.2004H13.8V21.4004H21V14.2004ZM7.05 3.40039L11.1 10.6004H3L7.05 3.40039ZM17.4 10.6004C18.3548 10.6004 19.2705 10.2211 19.9456 9.54598C20.6207 8.87084 21 7.95517 21 7.00039C21 6.04561 20.6207 5.12994 19.9456 4.45481C19.2705 3.77968 18.3548 3.40039 17.4 3.40039C16.4452 3.40039 15.5295 3.77968 14.8544 4.45481C14.1793 5.12994 13.8 6.04561 13.8 7.00039C13.8 7.95517 14.1793 8.87084 14.8544 9.54598C15.5295 10.2211 16.4452 10.6004 17.4 10.6004Z" stroke="white" stroke-width="2" stroke-linejoin="round"/>
<path d="M3 14.4004L10 21.4004M10 14.4004L3 21.4004" stroke="white" stroke-width="2" stroke-linecap="round" stroke-linejoin="round"/>
</svg>
