<svg width="24" height="24" viewBox="0 0 24 24" fill="none" xmlns="http://www.w3.org/2000/svg">
<path d="M5 9.76953H19C19.701 9.76953 20.2695 10.3381 20.2695 11.0391V20.1934C20.2693 20.8941 19.7008 21.4619 19 21.4619H5C4.29917 21.4619 3.73071 20.8941 3.73047 20.1934V11.0391C3.73047 10.3381 4.29902 9.76953 5 9.76953Z" stroke="white" stroke-width="1.46154"/>
<path d="M4 5.38477H20C20.701 5.38477 21.2695 5.95332 21.2695 6.6543V8.5C21.2695 9.20098 20.701 9.76953 20 9.76953H4C3.29902 9.76953 2.73047 9.20098 2.73047 8.5V6.6543C2.73047 5.95332 3.29902 5.38477 4 5.38477Z" stroke="white" stroke-width="1.46154"/>
<path d="M12 5.14062L12 21.2175" stroke="white" stroke-width="1.46154" stroke-linecap="round" stroke-linejoin="round"/>
<path d="M15.5723 3.23242C16.1881 2.75512 17.0729 2.97495 17.4082 3.65039L17.4678 3.79102L17.9424 5.14062H13.1104L15.5723 3.23242Z" stroke="white" stroke-width="1.46154"/>
<path d="M8.42773 3.23242C7.8119 2.75512 6.92706 2.97495 6.5918 3.65039L6.53223 3.79102L6.05762 5.14062H10.8896L8.42773 3.23242Z" stroke="white" stroke-width="1.46154"/>
</svg>
