<svg width="24" height="24" viewBox="0 0 24 24" fill="none" xmlns="http://www.w3.org/2000/svg">
<g clip-path="url(#clip0_1_478953)">
<path d="M6.685 21H17.23C18.715 21 19.915 19.785 19.915 18.3V3C19.915 1.335 18.58 0 16.915 0H7C5.335 0 4 1.335 4 3V18.3C4 19.785 5.2 21 6.685 21ZM16.93 19.485H7C6.205 19.485 5.56 18.87 5.515 18.09C5.62 14.595 8.47 11.76 11.965 11.745C15.46 11.76 18.31 14.595 18.415 18.09C18.37 18.87 17.71 19.485 16.93 19.485ZM5.5 3C5.5 2.175 6.175 1.5 7 1.5H16.93C17.755 1.5 18.43 2.175 18.43 3V13.635C17.065 11.715 14.875 10.425 12.385 10.29C12.25 10.29 12.115 10.29 11.98 10.29C11.83 10.29 11.68 10.29 11.545 10.29C9.055 10.44 6.865 11.715 5.5 13.635V3Z" fill="white"/>
<path d="M11.9669 10.1701C13.8569 10.1701 15.3869 8.64008 15.3869 6.75008C15.3869 4.86008 13.8569 3.33008 11.9669 3.33008C10.0769 3.33008 8.54688 4.86008 8.54688 6.75008C8.54688 8.64008 10.0769 10.1701 11.9669 10.1701ZM11.9669 4.75508C13.0469 4.77008 13.9319 5.65508 13.9319 6.75008C13.9319 7.84508 13.0469 8.71508 11.9669 8.74508C10.8869 8.73008 10.0019 7.84508 10.0019 6.75008C10.0019 5.65508 10.8869 4.78508 11.9669 4.75508Z" fill="white"/>
<path d="M19.0422 22.6899H4.86719C4.45297 22.6899 4.11719 23.0257 4.11719 23.4399C4.11719 23.8542 4.45297 24.1899 4.86719 24.1899H19.0422C19.4564 24.1899 19.7922 23.8542 19.7922 23.4399C19.7922 23.0257 19.4564 22.6899 19.0422 22.6899Z" fill="white"/>
</g>
<defs>
<clipPath id="clip0_1_478953">
<rect width="24" height="24" fill="white"/>
</clipPath>
</defs>
</svg>
