<svg width="24" height="24" viewBox="0 0 24 24" fill="none" xmlns="http://www.w3.org/2000/svg">
<path d="M3 18.4004V12.4004C3 10.0134 3.94821 7.72426 5.63604 6.03643C7.32387 4.3486 9.61305 3.40039 12 3.40039C14.3869 3.40039 16.6761 4.3486 18.364 6.03643C20.0518 7.72426 21 10.0134 21 12.4004V18.4004" stroke="white" stroke-width="2" stroke-linecap="round" stroke-linejoin="round"/>
<path d="M21 19.4004C21 19.9308 20.7893 20.4395 20.4142 20.8146C20.0391 21.1897 19.5304 21.4004 19 21.4004H18C17.4696 21.4004 16.9609 21.1897 16.5858 20.8146C16.2107 20.4395 16 19.9308 16 19.4004V16.4004C16 15.87 16.2107 15.3613 16.5858 14.9862C16.9609 14.6111 17.4696 14.4004 18 14.4004H21V19.4004ZM3 19.4004C3 19.9308 3.21071 20.4395 3.58579 20.8146C3.96086 21.1897 4.46957 21.4004 5 21.4004H6C6.53043 21.4004 7.03914 21.1897 7.41421 20.8146C7.78929 20.4395 8 19.9308 8 19.4004V16.4004C8 15.87 7.78929 15.3613 7.41421 14.9862C7.03914 14.6111 6.53043 14.4004 6 14.4004H3V19.4004Z" stroke="white" stroke-width="2" stroke-linecap="round" stroke-linejoin="round"/>
</svg>
