<svg width="24" height="24" viewBox="0 0 24 24" fill="none" xmlns="http://www.w3.org/2000/svg">
<path d="M3 6.40039L6 2.40039H18L21 6.40039M3 6.40039V20.4004C3 20.9308 3.21071 21.4395 3.58579 21.8146C3.96086 22.1897 4.46957 22.4004 5 22.4004H19C19.5304 22.4004 20.0391 22.1897 20.4142 21.8146C20.7893 21.4395 21 20.9308 21 20.4004V6.40039M3 6.40039H21M16 10.4004C16 11.4613 15.5786 12.4787 14.8284 13.2288C14.0783 13.979 13.0609 14.4004 12 14.4004C10.9391 14.4004 9.92172 13.979 9.17157 13.2288C8.42143 12.4787 8 11.4613 8 10.4004" stroke="white" stroke-width="1.5" stroke-linecap="round" stroke-linejoin="round"/>
</svg>
