<svg width="24" height="24" viewBox="0 0 24 24" fill="none" xmlns="http://www.w3.org/2000/svg">
<g clip-path="url(#clip0_1_478940)">
<path fill-rule="evenodd" clip-rule="evenodd" d="M11 10.2857C12.2624 10.2857 13.2857 9.26237 13.2857 8C13.2857 6.73764 12.2624 5.71429 11 5.71429C9.73764 5.71429 8.71429 6.73764 8.71429 8C8.71429 9.26237 9.73764 10.2857 11 10.2857ZM11 12C13.2091 12 15 10.2091 15 8C15 5.79086 13.2091 4 11 4C8.79086 4 7 5.79086 7 8C7 10.2091 8.79086 12 11 12Z" fill="white"/>
<path fill-rule="evenodd" clip-rule="evenodd" d="M17 21.4121C19.4853 21.4121 21.5 19.3974 21.5 16.9121C21.5 14.4268 19.4853 12.4121 17 12.4121C14.5147 12.4121 12.5 14.4268 12.5 16.9121C12.5 19.3974 14.5147 21.4121 17 21.4121ZM17 22.9121C20.3137 22.9121 23 20.2258 23 16.9121C23 13.5984 20.3137 10.9121 17 10.9121C13.6863 10.9121 11 13.5984 11 16.9121C11 20.2258 13.6863 22.9121 17 22.9121Z" fill="white"/>
<path fill-rule="evenodd" clip-rule="evenodd" d="M19.8544 20.4092C20.1473 20.1163 20.6222 20.1163 20.9151 20.4092L23.0364 22.5306C23.3293 22.8234 23.3293 23.2983 23.0364 23.5912C22.7435 23.8841 22.2686 23.8841 21.9758 23.5912L19.8544 21.4699C19.5615 21.177 19.5615 20.7021 19.8544 20.4092Z" fill="white"/>
<path fill-rule="evenodd" clip-rule="evenodd" d="M3.69527 20.982C3.69527 21.7273 4.30953 22.3259 5.03792 22.3259H12.731C13.0297 22.9419 13.4209 23.5058 13.8869 24H5.03792C3.36012 24 2 22.6389 2 20.982C2 16.0509 6.048 12 11.0415 12C12.0531 12 13.0599 12.1868 13.9976 12.5107C13.3991 12.8686 13.0176 13.3844 13.0006 13.9598C12.3659 13.7803 11.6971 13.6741 11.0415 13.6741C6.99741 13.6741 3.69527 16.9625 3.69527 20.982Z" fill="white"/>
<path d="M4.37138 0.154142C4.68843 0.0539657 5.02551 0 5.375 0L16.625 1.96701e-06C18.489 2.29292e-06 20 1.53503 20 3.42857L20 12H18.3125L18.3125 3.42857C18.3125 2.4818 17.557 1.71429 16.625 1.71429L5.37154 1.71429C4.44115 1.71619 3.6875 2.48297 3.6875 3.42857L3.6875 20.5714C3.6875 20.6306 3.69045 20.6891 3.69621 20.7467C3.70197 20.8043 3.71054 20.8611 3.72178 20.9169C3.87914 21.6981 4.55952 22.2857 5.375 22.2857L17.8494 22.2857C17.9369 22.4715 18.1161 22.6532 18.3125 22.8298L18.3125 22H19.694C19.478 22.4781 19.1569 22.8971 18.7608 23.2263C18.6203 23.343 18.4705 23.4485 18.3125 23.5413C17.8161 23.833 17.2397 24 16.625 24L5.375 24C3.51104 24 2 22.465 2 20.5714L2 3.42857C2 3.30283 2.00667 3.17867 2.01965 3.05643C2.025 3.0061 2.03142 2.95609 2.03889 2.90643L2.04437 2.87125C2.06218 2.76056 2.08521 2.65165 2.11319 2.5448C2.4111 1.40716 3.2704 0.502019 4.37138 0.154142Z" fill="white"/>
<rect x="18" y="22" width="1" height="1" fill="white"/>
</g>
<defs>
<clipPath id="clip0_1_478940">
<rect width="24" height="24" fill="white"/>
</clipPath>
</defs>
</svg>
