<svg width="24" height="24" viewBox="0 0 24 24" fill="none" xmlns="http://www.w3.org/2000/svg">
<g clip-path="url(#clip0_1_478922)">
<path d="M11.6465 6.37812C11.7871 6.07867 12.213 6.07868 12.3535 6.37812L12.8386 7.41136C12.8938 7.52914 13.0041 7.61165 13.1327 7.63141L14.2493 7.80302C14.5634 7.8513 14.6914 8.23448 14.4694 8.46185L13.6378 9.3136C13.5511 9.40233 13.5118 9.52692 13.5317 9.6493L13.7245 10.8312C13.777 11.1529 13.4354 11.3935 13.1501 11.2358C12.8389 11.0637 12.552 10.9051 12.1891 10.7044C12.0715 10.6393 11.9286 10.6393 11.811 10.7043L10.8499 11.2358C10.5646 11.3936 10.223 11.1529 10.2755 10.8312L10.4683 9.6493C10.4882 9.52692 10.4489 9.40233 10.3623 9.3136L9.53062 8.46185C9.30862 8.23449 9.43664 7.8513 9.75072 7.80302L10.8673 7.63141C10.9959 7.61165 11.1062 7.52914 11.1615 7.41136L11.6465 6.37812Z" fill="white"/>
<path fill-rule="evenodd" clip-rule="evenodd" d="M20.25 1.90497V3.375H22.3822C23.2757 3.375 24 4.0993 24 4.99277V8.62503C24 10.6961 22.3211 12.375 20.25 12.375H19.9395C19.0257 15.606 16.1928 18.0312 12.75 18.3414V21.9522L17.1415 21.9521C17.8755 21.9521 18.1726 22.8975 17.5705 23.3174C17.4447 23.4051 17.2949 23.4522 17.1415 23.4522L6.85738 23.4522C6.70396 23.4522 6.55423 23.4051 6.42839 23.3174C5.82633 22.8975 6.1234 21.9521 6.85738 21.9522L11.25 21.9522V18.3414C7.80726 18.0312 4.97436 15.606 4.06055 12.375H3.75C1.67894 12.375 0 10.6961 0 8.62503V4.99277C0 4.0993 0.724299 3.375 1.61777 3.375H3.75001V1.90497C3.75001 1.06 4.43499 0.375 5.27998 0.375H18.72C19.565 0.375 20.25 1.06 20.25 1.90497ZM22.3822 4.875H20.25V10.875C20.8263 10.875 21.3519 10.6584 21.75 10.3021C22.2103 9.89011 22.5 9.2914 22.5 8.62503V4.99277C22.5 4.92773 22.4473 4.875 22.3822 4.875ZM18.75 1.90497L18.75 10.1302C18.7472 13.8558 15.7262 16.8751 12 16.8751C8.27209 16.8751 5.25001 13.853 5.25001 10.1251V1.90497C5.25001 1.88842 5.26343 1.875 5.27998 1.875H18.72C18.7366 1.875 18.75 1.88842 18.75 1.90497ZM3.75 10.875C3.17374 10.875 2.64807 10.6584 2.25 10.3021C1.78969 9.89011 1.5 9.2914 1.5 8.62503V4.99277C1.5 4.92773 1.55273 4.875 1.61777 4.875H3.75V10.875Z" fill="white"/>
</g>
<defs>
<clipPath id="clip0_1_478922">
<rect width="24" height="24" fill="white"/>
</clipPath>
</defs>
</svg>
