<svg width="24" height="24" viewBox="0 0 24 24" fill="none" xmlns="http://www.w3.org/2000/svg">
<path d="M15.9865 5.18457C16.6769 5.18457 17.2365 5.74421 17.2365 6.43457V15.0322C17.2362 15.7224 16.6767 16.2822 15.9865 16.2822H3.20233V5.18457H15.9865Z" stroke="white" stroke-width="1.5"/>
<path d="M9.86533 8.39158C10.0059 8.09213 10.4318 8.09213 10.5724 8.39158L11.0574 9.42482C11.1127 9.5426 11.223 9.62511 11.3516 9.64487L12.4681 9.81648C12.7822 9.86475 12.9102 10.2479 12.6882 10.4753L11.8566 11.3271C11.77 11.4158 11.7306 11.5404 11.7506 11.6628L11.9434 12.8446C11.9958 13.1664 11.6542 13.407 11.3689 13.2492C11.0577 13.0772 10.7709 12.9185 10.4079 12.7178C10.2903 12.6528 10.1475 12.6527 10.0299 12.7178L9.06876 13.2492C8.78345 13.407 8.44185 13.1664 8.49433 12.8446L8.6871 11.6628C8.70707 11.5404 8.66772 11.4158 8.58109 11.3271L7.74946 10.4753C7.52746 10.2479 7.65548 9.86475 7.96956 9.81648L9.08611 9.64487C9.2147 9.62511 9.32501 9.5426 9.3803 9.42482L9.86533 8.39158Z" fill="white"/>
<path d="M3.20673 1.30957V23.0083" stroke="white" stroke-width="1.5" stroke-linecap="round"/>
<rect x="3.20673" y="0.199219" width="3.0879" height="3.0879" rx="0.5" transform="rotate(45 3.20673 0.199219)" fill="white"/>
<path d="M18.0362 9.63135H21.748C22.2905 9.63135 22.6268 10.2217 22.3501 10.6884L20.2041 14.3077C20.0668 14.5393 20.0745 14.829 20.2237 15.053L22.2516 18.0956C22.5616 18.5608 22.2281 19.1838 21.6691 19.1838H13.5C13.1134 19.1838 12.8 18.8704 12.8 18.4838V16.769" stroke="white" stroke-width="1.5" stroke-linecap="round"/>
</svg>
