<svg width="24" height="24" viewBox="0 0 24 24" fill="none" xmlns="http://www.w3.org/2000/svg">
<g clip-path="url(#clip0_1_478934)">
<path d="M1.77585 10.6688C1.45492 10.9307 1.40703 11.4032 1.66889 11.7241C1.93076 12.045 2.40321 12.0929 2.72415 11.8311L1.77585 10.6688ZM9.81977 5.07348L10.3047 4.50135L9.8289 4.09805L9.34562 4.49238L9.81977 5.07348ZM13.125 7.875L12.6401 8.44713L13.1234 8.85683L13.6081 8.44868L13.125 7.875ZM18 0.375V-0.375H16.1893L17.4697 0.90533L18 0.375ZM21.75 4.125L21.2197 4.65533L22.5 5.93566V4.125H21.75ZM3 15.375H6V13.875H3V15.375ZM6 15.375V21.375H7.5V15.375H6ZM6 21.375H3V22.875H6V21.375ZM3 21.375V15.375H1.5V21.375H3ZM3 21.375H3H1.5C1.5 22.2034 2.17157 22.875 3 22.875V21.375ZM6 21.375V22.875C6.82843 22.875 7.5 22.2034 7.5 21.375H6ZM6 15.375H7.5C7.5 14.5466 6.82843 13.875 6 13.875V15.375ZM3 13.875C2.17157 13.875 1.5 14.5466 1.5 15.375H3V13.875ZM18 8.625H21V7.125H18V8.625ZM21 8.625V21.375H22.5V8.625H21ZM21 21.375H18V22.875H21V21.375ZM18 21.375V8.625H16.5V21.375H18ZM18 21.375H16.5C16.5 22.2034 17.1716 22.875 18 22.875V21.375ZM21 21.375V22.875C21.8284 22.875 22.5 22.2034 22.5 21.375H21ZM21 8.625H22.5C22.5 7.79657 21.8284 7.125 21 7.125V8.625ZM18 7.125C17.1716 7.125 16.5 7.79657 16.5 8.625H18V7.125ZM2.72415 11.8311L10.2939 5.65459L9.34562 4.49238L1.77585 10.6688L2.72415 11.8311ZM9.33483 5.64561L12.6401 8.44713L13.6099 7.30287L10.3047 4.50135L9.33483 5.64561ZM13.6081 8.44868L20.7331 2.44868L19.7669 1.30132L12.6419 7.30132L13.6081 8.44868ZM17.4697 0.90533L21.2197 4.65533L22.2803 3.59467L18.5303 -0.15533L17.4697 0.90533ZM22.5 4.125V1.125H21V4.125H22.5ZM22.5 1.125C22.5 0.296573 21.8284 -0.375 21 -0.375V1.125H22.5ZM10.5 13.125H13.5V11.625H10.5V13.125ZM13.5 13.125V21.375H15V13.125H13.5ZM13.5 21.375H10.5V22.875H13.5V21.375ZM10.5 21.375V13.125H9V21.375H10.5ZM10.5 21.375H9C9 22.2034 9.67157 22.875 10.5 22.875V21.375ZM13.5 21.375V22.875C14.3284 22.875 15 22.2034 15 21.375H13.5ZM13.5 13.125H15C15 12.2966 14.3284 11.625 13.5 11.625V13.125ZM10.5 11.625C9.67157 11.625 9 12.2966 9 13.125H10.5V11.625ZM21 -0.375H18V1.125H21V-0.375Z" fill="white"/>
</g>
<defs>
<clipPath id="clip0_1_478934">
<rect width="24" height="24" fill="white"/>
</clipPath>
</defs>
</svg>
