<svg width="24" height="24" viewBox="0 0 24 24" fill="none" xmlns="http://www.w3.org/2000/svg">
<path fill-rule="evenodd" clip-rule="evenodd" d="M8.37927 2.32824C6.67276 2.94173 5.1674 3.9765 3.98852 5.30699C3.97959 5.31655 3.97094 5.32635 3.96258 5.33637C2.30509 7.2208 1.2998 9.69319 1.2998 12.4002C1.2998 18.3098 6.09021 23.1002 11.9998 23.1002C17.9094 23.1002 22.6998 18.3098 22.6998 12.4002C22.6998 9.69319 21.6945 7.22081 20.037 5.33638C20.0287 5.32636 20.02 5.31657 20.0111 5.30701C18.8322 3.9765 17.3268 2.9417 15.6203 2.32821L15.6049 2.3227C14.4783 1.91967 13.2646 1.7002 11.9998 1.7002C10.735 1.7002 9.5212 1.91969 8.39466 2.32272L8.37927 2.32824ZM19.961 5.40139C19.961 5.40136 19.9611 5.40143 19.961 5.40139V5.40139ZM19.961 5.40139C19.9534 5.39214 19.9455 5.38322 19.9373 5.37443L19.961 5.40139ZM2.72439 11.7187L4.72751 9.68653L4.16774 7.38308C3.35385 8.65098 2.83947 10.1294 2.72439 11.7187ZM2.60922 11.978C2.60922 11.978 2.60922 11.9779 2.60922 11.978L4.83793 9.71716L4.21078 7.1364C4.21076 7.13643 4.2108 7.13637 4.21078 7.1364L4.83793 9.71716L2.60922 11.978ZM8.11872 10.3549L6.10077 9.40884L5.26828 5.98315C6.17567 5.03158 7.28271 4.2722 8.52208 3.77218L11.2998 5.76003V8.04355L8.11872 10.3549ZM10.225 3.26931L11.9998 4.53941L13.7746 3.26931C13.2002 3.15833 12.6068 3.1002 11.9998 3.1002C11.3928 3.1002 10.7995 3.15833 10.225 3.26931ZM9.98096 3.21761C9.98095 3.21762 9.98097 3.21761 9.98096 3.21761L11.9999 4.66248L14.0189 3.21762C14.0188 3.21761 14.0189 3.21763 14.0189 3.21762L11.9999 4.66248L9.98096 3.21761ZM12.6998 8.04355V5.76003L15.4775 3.77218C16.7169 4.2722 17.8239 5.03158 18.7313 5.98315L17.8988 9.40884L15.8809 10.3549L12.6998 8.04355ZM15.87 10.4706L17.9848 9.47913L18.8415 5.95396C18.8414 5.95393 18.8415 5.95399 18.8415 5.95396L17.9848 9.47913L15.87 10.4706ZM21.2752 11.7187L19.2721 9.68653L19.8319 7.38307C20.6458 8.65098 21.1601 10.1294 21.2752 11.7187ZM19.789 7.1364C20.7322 8.52933 21.3115 10.1887 21.3906 11.9782C21.3884 11.9279 21.3857 11.8777 21.3827 11.8277C21.2815 10.1437 20.737 8.57921 19.8643 7.24944C19.8395 7.21158 19.8144 7.17388 19.789 7.1364ZM16.3758 11.6692L18.3488 10.7441L21.2162 13.6531C21.0676 14.7561 20.7258 15.7978 20.2258 16.7429L16.3276 17.161L15.1272 15.512L16.3758 11.6692ZM14.9039 21.2379L16.4307 18.558L19.2232 18.2585C18.111 19.6282 16.6172 20.6752 14.9039 21.2379ZM14.6913 21.4092C16.6038 20.8388 18.2608 19.6761 19.4496 18.1338C19.4212 18.1705 19.3924 18.2071 19.3636 18.2434C18.211 19.694 16.6388 20.7962 14.8306 21.3665C14.7843 21.3811 14.7379 21.3953 14.6913 21.4092ZM13.0634 21.64L15.1677 17.9466L13.9955 16.3362H10.0058L8.832 17.9468L10.9362 21.64C11.2852 21.6798 11.6401 21.7002 11.9998 21.7002C12.3595 21.7002 12.7144 21.6798 13.0634 21.64ZM4.77641 18.2585L7.56894 18.558L9.09575 21.2379C7.38243 20.6752 5.88861 19.6282 4.77641 18.2585ZM9.30861 21.4094C8.12428 21.0561 7.03791 20.4757 6.10004 19.7187C7.00095 20.4459 8.03889 21.0101 9.16905 21.3665C9.21538 21.3811 9.26197 21.3955 9.30861 21.4094ZM8.8736 15.5127L7.67231 17.1611L3.77383 16.7429C3.27382 15.7978 2.93196 14.7561 2.78346 13.6531L5.65084 10.7441L7.62393 11.6692L8.8736 15.5127ZM3.71053 16.8367C3.71051 16.8367 3.71054 16.8368 3.71053 16.8367V16.8367ZM13.8422 14.9362H10.1583L9.01878 11.4315L11.9998 9.26547L14.9809 11.4316L13.8422 14.9362Z" fill="white"/>
</svg>
