<svg width="24" height="24" viewBox="0 0 24 24" fill="none" xmlns="http://www.w3.org/2000/svg">
<path d="M23.7167 8.77804C24.0646 9.14409 24.0627 9.56049 23.711 9.91976C22.5244 11.1351 21.3358 12.3484 20.1472 13.5618C19.3501 14.3762 18.5529 15.1906 17.7558 16.005C17.498 16.2684 17.2241 16.3362 16.917 16.2103C16.6232 16.0893 16.4734 15.8443 16.4715 15.4831C16.4687 14.9398 16.4696 14.3975 16.4696 13.8543V12.7329H16.0184C15.2033 12.7329 14.3891 12.7319 13.5749 12.731C11.4205 12.729 9.19312 12.7261 7.00174 12.7416C6.69085 12.7406 6.43778 12.6545 6.27949 12.4821C6.12974 12.3184 6.0596 12.0841 6.07855 11.8042C6.09656 11.536 6.09182 11.2706 6.08709 11.015C6.08519 10.9065 6.08329 10.8 6.08329 10.6964V10.3458L1.85408 14.6725L6.08329 18.9915V18.641C6.08329 18.5296 6.08329 18.4182 6.08235 18.3069C6.08235 18.028 6.08045 17.7404 6.08519 17.4576C6.08803 17.3191 6.09277 17.1855 6.12974 17.0722C6.21883 16.7914 6.41124 16.6267 6.69844 16.5822C6.77521 16.5706 6.86051 16.5648 6.96004 16.5648C9.16848 16.5638 11.3779 16.5628 13.5863 16.5667C13.7389 16.5667 13.8631 16.5822 13.9636 16.6141C14.2706 16.709 14.4801 17.0276 14.4517 17.354C14.4195 17.7191 14.1579 17.9931 13.8005 18.0357C13.7323 18.0435 13.6621 18.0435 13.5863 18.0425H7.53063V18.6274C7.53158 18.9537 7.53253 19.2704 7.52968 19.588C7.52968 19.7091 7.52968 19.8311 7.53063 19.9531C7.53253 20.2746 7.53442 20.6068 7.50599 20.9273C7.48324 21.1868 7.33443 21.4037 7.1079 21.5093C6.87094 21.6197 6.59986 21.5897 6.38186 21.4289C6.31456 21.3786 6.25201 21.3166 6.18756 21.2507C4.24071 19.2636 2.29387 17.2755 0.347976 15.2865C-0.0813912 14.8478 -0.0842346 14.4585 0.339445 14.0257C2.29671 12.025 4.25398 10.0253 6.2122 8.02658C6.40461 7.83097 6.62166 7.73123 6.83018 7.73123C6.99226 7.73123 7.14865 7.79127 7.28419 7.91328C7.45575 8.06725 7.53158 8.27545 7.53158 8.58727C7.52968 9.31162 7.53063 10.0369 7.53158 10.7613V10.8358C7.53158 10.8959 7.53442 10.955 7.53821 11.0227C7.54011 11.0547 7.542 11.0896 7.5439 11.1264L7.54959 11.2648H7.98369C8.79693 11.2648 9.61017 11.2648 10.4234 11.2668C12.5788 11.2697 14.8081 11.2716 17.0004 11.2561C17.3132 11.2581 17.5625 11.3442 17.7207 11.5156C17.8715 11.6793 17.9406 11.9146 17.9226 12.1954C17.9046 12.4637 17.9094 12.728 17.9132 12.9837C17.9151 13.0922 17.9169 13.1977 17.9169 13.3004V13.6509L22.15 9.32711L17.9169 5.00137V5.35289C17.9169 5.47588 17.9188 5.59983 17.9207 5.72378C17.9245 6.01526 17.9283 6.31546 17.9094 6.60694C17.897 6.79481 17.8383 6.99332 17.7473 7.1502C17.6402 7.3371 17.4411 7.43103 17.1568 7.432H16.1928C14.2669 7.4349 12.2764 7.43684 10.3182 7.42909C10.086 7.42909 9.87935 7.34678 9.73812 7.19765C9.60922 7.06305 9.54193 6.87906 9.54666 6.68151C9.55709 6.24864 9.8803 5.95716 10.3504 5.95619C11.7181 5.95522 13.0859 5.95522 14.4536 5.95522H16.4478L16.4554 5.81868C16.4573 5.7877 16.4592 5.75768 16.4611 5.72959C16.4649 5.66471 16.4687 5.60467 16.4687 5.54463C16.4696 5.2822 16.4687 5.02074 16.4687 4.75831C16.4687 4.26347 16.4668 3.75217 16.4715 3.24958C16.4744 2.98037 16.5634 2.7499 16.7208 2.60174C16.8611 2.47101 17.0449 2.41 17.2554 2.42646C17.4885 2.44389 17.661 2.59012 17.8127 2.74506C19.1662 4.12984 20.5206 5.51268 21.8751 6.89649L22.966 8.00915C23.0438 8.08953 23.1224 8.16893 23.2011 8.24834C23.3708 8.42071 23.5471 8.59986 23.7167 8.77804Z" fill="white"/>
</svg>
