<svg width="24" height="24" viewBox="0 0 24 24" fill="none" xmlns="http://www.w3.org/2000/svg">
<g clip-path="url(#clip0_1_478949)">
<path d="M9.84097 3.71973C7.62954 3.71973 5.84668 5.51973 5.84668 7.71401C5.84668 9.9083 7.64668 11.7083 9.84097 11.7083C12.0353 11.7083 13.8353 9.9083 13.8353 7.71401C13.8353 5.51973 12.0353 3.71973 9.84097 3.71973ZM9.84097 9.99401C8.58954 9.99401 7.56097 8.96544 7.56097 7.71401C7.56097 6.46258 8.58954 5.43401 9.84097 5.43401C11.0924 5.43401 12.121 6.46258 12.121 7.71401C12.121 8.96544 11.0924 9.99401 9.84097 9.99401Z" fill="white"/>
<path d="M15.9955 12.2914L20.9498 17.1257H20.127C19.8012 17.1257 19.4584 17.1257 19.1155 17.1257C18.8927 17.1257 18.6698 17.2114 18.4984 17.3143C18.2755 17.4343 18.1727 17.6743 18.1727 17.9829V23.1086C18.1727 23.3657 18.2584 23.6057 18.4298 23.7771C18.5841 23.9314 18.7898 24 19.0298 24C19.527 24 19.8527 23.6229 19.8698 23.0914C19.8698 22.6971 19.8698 22.56 19.8698 22.5771V18.7886H20.0241C20.0241 18.7886 20.0927 18.7886 20.127 18.7886H22.9555C23.2641 18.7886 23.5212 18.6857 23.6927 18.4971C23.847 18.3429 23.9155 18.1371 23.8984 17.8971C23.8812 17.64 23.7098 17.4343 23.5384 17.2629C22.0298 15.7886 20.5212 14.3143 19.0127 12.84V3.42857C19.0127 1.52571 17.487 0 15.5841 0H4.13267C2.22982 0 0.704102 1.52571 0.704102 3.42857V20.9143C0.704102 22.6114 2.07553 24 3.77267 24H12.9098C13.0298 24 13.1327 24 13.2184 23.9486C13.3212 23.9143 13.407 23.8629 13.4927 23.7771C13.6641 23.6229 13.7498 23.3829 13.7498 23.1086V17.9829C13.7498 17.6571 13.647 17.4343 13.4241 17.3143C13.2355 17.2114 13.0127 17.1429 12.807 17.1257C12.4812 17.1086 12.1384 17.1086 11.7955 17.1257H10.9727L15.9612 12.2914H15.9955ZM8.22982 18.4286C8.22982 18.4286 8.22982 18.4629 8.2641 18.48C8.43553 18.6686 8.69267 18.7714 9.00124 18.7714H12.1041V22.2857H4.13267C3.2241 22.2857 2.48696 21.5829 2.43553 20.6914C2.55553 16.68 5.84696 13.44 9.85839 13.44C10.5784 13.44 11.2812 13.5771 11.967 13.8L8.43553 17.2457C8.2641 17.4343 8.09267 17.6229 8.07553 17.8971C8.05839 18.12 8.12696 18.3086 8.24696 18.4629M12.5155 12.1886C12.5155 12.1886 12.3612 12.1371 12.2927 12.12C11.9498 12.0171 11.6241 11.9314 11.2641 11.8629C10.9041 11.7943 10.5612 11.7429 10.2184 11.7257C10.0984 11.7257 9.96124 11.7257 9.84124 11.7257C6.77267 11.7257 4.0641 13.2514 2.41839 15.5829V3.42857C2.41839 2.48571 3.18982 1.71429 4.13267 1.71429H15.567C16.5098 1.71429 17.2812 2.48571 17.2812 3.42857V11.1086C17.2812 11.1086 17.247 11.0743 17.2298 11.0571C17.0412 10.8686 16.8355 10.6629 16.6298 10.4571C16.4241 10.2514 16.2012 10.1657 15.9784 10.1657C15.7555 10.1657 15.5327 10.2686 15.327 10.4571C15.1212 10.6457 14.9155 10.8514 14.727 11.0571L13.2698 12.48C13.2698 12.48 13.167 12.4286 13.1498 12.4286C13.1155 12.4114 13.0641 12.3943 13.0298 12.3771C12.9441 12.3429 12.8584 12.3086 12.7898 12.2743C12.7041 12.24 12.6012 12.2057 12.5155 12.1714V12.1886Z" fill="white"/>
</g>
<defs>
<clipPath id="clip0_1_478949">
<rect width="24" height="24" fill="white"/>
</clipPath>
</defs>
</svg>
