<svg width="14" height="14" viewBox="0 0 14 14" fill="none" xmlns="http://www.w3.org/2000/svg">
<path d="M5.2002 1.5H8.7998C10.2505 1.5 11.1365 1.79277 11.6719 2.32812C12.2072 2.86348 12.5 3.74951 12.5 5.2002V8.7998C12.5 10.2505 12.2072 11.1365 11.6719 11.6719C11.1365 12.2072 10.2505 12.5 8.7998 12.5H5.2002C3.74951 12.5 2.86348 12.2072 2.32812 11.6719C1.79277 11.1365 1.5 10.2505 1.5 8.7998V5.2002L1.51367 4.68164C1.57716 3.53325 1.85975 2.7965 2.32812 2.32812C2.7965 1.85975 3.53325 1.57716 4.68164 1.51367L5.2002 1.5Z" stroke="white" stroke-linecap="round" stroke-linejoin="round"/>
<path d="M5 7H9" stroke="white" stroke-linecap="round" stroke-linejoin="round"/>
<path d="M7 9V5" stroke="white" stroke-linecap="round" stroke-linejoin="round"/>
</svg>
