<svg width="14" height="14" viewBox="0 0 14 14" fill="none" xmlns="http://www.w3.org/2000/svg">
<circle cx="7.00039" cy="7.27969" r="5.6" fill="white"/>
<path d="M7.40132 8.3596H6.45038C6.45287 8.13379 6.47027 7.93935 6.50259 7.77627C6.53739 7.61068 6.59582 7.46139 6.67786 7.32842C6.76239 7.19544 6.87426 7.06372 7.01349 6.93326C7.13033 6.82788 7.23227 6.72752 7.31928 6.63218C7.40629 6.53684 7.47466 6.43899 7.52439 6.33863C7.57411 6.23576 7.59897 6.12161 7.59897 5.99616C7.59897 5.85064 7.57659 5.73021 7.53184 5.63487C7.48958 5.53702 7.42494 5.463 7.33793 5.41283C7.2534 5.36265 7.14649 5.33756 7.01722 5.33756C6.91031 5.33756 6.81087 5.36139 6.71888 5.40906C6.62689 5.45422 6.55107 5.52447 6.4914 5.61981C6.43422 5.71516 6.40439 5.8406 6.4019 5.99616H5.32043C5.32789 5.65243 5.40621 5.36892 5.55537 5.14562C5.70703 4.91981 5.90965 4.75297 6.16323 4.64508C6.41682 4.53469 6.70148 4.47949 7.01722 4.47949C7.36527 4.47949 7.66361 4.5372 7.91222 4.65261C8.16083 4.76551 8.35102 4.93236 8.48279 5.15315C8.61455 5.37143 8.68043 5.63738 8.68043 5.951C8.68043 6.16928 8.63817 6.36372 8.55364 6.53433C8.46911 6.70243 8.35848 6.85924 8.22174 7.00476C8.08501 7.15028 7.9346 7.30082 7.77051 7.45637C7.6288 7.58433 7.53184 7.71856 7.47964 7.85906C7.42991 7.99956 7.40381 8.16641 7.40132 8.3596ZM6.3385 9.5225C6.3385 9.36193 6.3932 9.22895 6.50259 9.12358C6.61198 9.01569 6.75866 8.96175 6.94263 8.96175C7.12412 8.96175 7.26956 9.01569 7.37895 9.12358C7.49082 9.22895 7.54676 9.36193 7.54676 9.5225C7.54676 9.67806 7.49082 9.80978 7.37895 9.91766C7.26956 10.0255 7.12412 10.0795 6.94263 10.0795C6.75866 10.0795 6.61198 10.0255 6.50259 9.91766C6.3932 9.80978 6.3385 9.67806 6.3385 9.5225Z" fill="black"/>
</svg>
