<svg width="14" height="14" viewBox="0 0 14 14" fill="none" xmlns="http://www.w3.org/2000/svg">
<circle cx="7.00039" cy="7.00039" r="5.1" stroke="#BDBDBD"/>
<path d="M7.40132 8.36058H6.45038C6.45287 8.13477 6.47027 7.94033 6.50259 7.77724C6.53739 7.61165 6.59582 7.46237 6.67786 7.32939C6.76239 7.19642 6.87426 7.0647 7.01349 6.93423C7.13033 6.82886 7.23227 6.7285 7.31928 6.63316C7.40629 6.53782 7.47466 6.43997 7.52439 6.33961C7.57411 6.23674 7.59897 6.12258 7.59897 5.99714C7.59897 5.85162 7.57659 5.73119 7.53184 5.63585C7.48958 5.538 7.42494 5.46398 7.33793 5.4138C7.2534 5.36362 7.14649 5.33853 7.01722 5.33853C6.91031 5.33853 6.81087 5.36237 6.71888 5.41004C6.62689 5.4552 6.55107 5.52545 6.4914 5.62079C6.43422 5.71613 6.40439 5.84158 6.4019 5.99714H5.32043C5.32789 5.65341 5.40621 5.3699 5.55537 5.1466C5.70703 4.92079 5.90965 4.75395 6.16323 4.64606C6.41682 4.53567 6.70148 4.48047 7.01722 4.48047C7.36527 4.48047 7.66361 4.53817 7.91222 4.65359C8.16083 4.76649 8.35102 4.93334 8.48279 5.15412C8.61455 5.3724 8.68043 5.63835 8.68043 5.95197C8.68043 6.17025 8.63817 6.3647 8.55364 6.53531C8.46911 6.70341 8.35848 6.86022 8.22174 7.00574C8.08501 7.15126 7.9346 7.3018 7.77051 7.45735C7.6288 7.58531 7.53184 7.71954 7.47964 7.86004C7.42991 8.00054 7.40381 8.16739 7.40132 8.36058ZM6.3385 9.52348C6.3385 9.36291 6.3932 9.22993 6.50259 9.12455C6.61198 9.01667 6.75866 8.96273 6.94263 8.96273C7.12412 8.96273 7.26956 9.01667 7.37895 9.12455C7.49082 9.22993 7.54676 9.36291 7.54676 9.52348C7.54676 9.67904 7.49082 9.81076 7.37895 9.91864C7.26956 10.0265 7.12412 10.0805 6.94263 10.0805C6.75866 10.0805 6.61198 10.0265 6.50259 9.91864C6.3932 9.81076 6.3385 9.67904 6.3385 9.52348Z" fill="#BDBDBD"/>
</svg>
